<svg id="svg" version="1.1" xmlns="http://www.w3.org/2000/svg" xmlns:xlink="http://www.w3.org/1999/xlink" width="400" height="400" viewBox="0, 0, 400,400"><g id="svgg"><path id="path0" d="M189.600 34.803 C 184.441 35.474,181.306 36.020,177.800 36.860 C 176.920 37.071,175.480 37.390,174.600 37.568 C 173.011 37.890,172.136 38.162,170.600 38.810 C 170.160 38.996,168.630 39.528,167.200 39.993 C 165.770 40.457,164.287 41.009,163.905 41.219 C 163.523 41.429,162.944 41.600,162.618 41.600 C 162.291 41.600,161.355 41.976,160.538 42.435 C 159.558 42.985,158.667 43.193,157.925 43.045 C 157.306 42.921,156.800 42.980,156.800 43.175 C 156.800 43.370,156.080 43.651,155.200 43.800 C 154.320 43.949,153.600 44.195,153.600 44.347 C 153.600 44.500,153.015 44.869,152.300 45.167 C 151.585 45.465,150.910 45.754,150.800 45.809 C 150.690 45.863,150.197 46.039,149.704 46.199 C 149.212 46.360,148.908 46.650,149.028 46.845 C 149.149 47.040,148.878 47.200,148.427 47.200 C 147.976 47.200,147.382 47.560,147.107 48.000 C 146.832 48.440,146.413 48.800,146.175 48.800 C 145.937 48.800,145.035 49.335,144.171 49.989 C 143.307 50.643,142.325 51.183,141.988 51.189 C 141.652 51.195,141.117 51.560,140.800 52.000 C 140.483 52.440,140.038 52.809,139.812 52.820 C 139.585 52.830,138.680 53.549,137.800 54.417 C 136.920 55.284,135.964 55.996,135.676 55.997 C 135.388 55.999,135.264 56.180,135.400 56.400 C 135.536 56.620,135.393 56.800,135.083 56.800 C 134.773 56.800,133.988 57.307,133.340 57.926 C 132.692 58.546,131.855 59.170,131.481 59.314 C 131.106 59.457,130.800 59.771,130.800 60.011 C 130.800 60.251,130.620 60.336,130.400 60.200 C 130.180 60.064,130.000 60.116,130.000 60.315 C 130.000 60.515,129.640 61.093,129.200 61.600 C 128.760 62.107,128.400 62.373,128.400 62.190 C 128.400 62.007,127.590 62.702,126.600 63.735 C 125.610 64.769,124.800 65.821,124.800 66.074 C 124.800 66.326,124.687 66.420,124.549 66.283 C 124.411 66.145,123.556 66.875,122.649 67.906 C 121.742 68.937,120.595 70.198,120.100 70.708 C 119.605 71.219,119.200 71.787,119.200 71.970 C 119.200 72.154,118.480 72.935,117.600 73.706 C 116.720 74.478,116.000 75.290,116.000 75.512 C 116.000 75.734,115.553 76.340,115.007 76.858 C 114.461 77.376,114.011 78.025,114.007 78.300 C 114.003 78.575,113.750 78.800,113.443 78.800 C 113.137 78.800,112.774 79.250,112.636 79.800 C 112.498 80.350,112.198 80.800,111.969 80.800 C 111.740 80.800,111.664 80.980,111.800 81.200 C 111.936 81.420,111.846 81.600,111.600 81.600 C 111.354 81.600,111.264 81.780,111.400 82.000 C 111.536 82.220,111.457 82.400,111.224 82.400 C 110.991 82.400,110.800 82.681,110.800 83.024 C 110.800 83.367,110.620 83.536,110.400 83.400 C 110.180 83.264,110.000 83.513,110.000 83.954 C 110.000 84.394,109.685 84.990,109.300 85.277 C 108.915 85.565,108.549 86.044,108.486 86.343 C 108.423 86.641,108.097 87.160,107.762 87.495 C 107.426 87.831,106.850 88.801,106.482 89.653 C 106.113 90.504,105.674 91.200,105.506 91.200 C 105.338 91.200,105.200 91.560,105.200 92.000 C 105.200 92.440,105.020 92.800,104.800 92.800 C 104.580 92.800,104.400 93.034,104.400 93.320 C 104.400 94.056,103.459 95.993,103.100 95.997 C 102.935 95.999,102.800 96.270,102.800 96.600 C 102.800 96.930,102.620 97.200,102.400 97.200 C 102.180 97.200,102.000 97.616,102.000 98.125 C 102.000 98.633,101.638 99.437,101.197 99.911 C 100.755 100.386,100.355 101.230,100.309 101.787 C 100.263 102.344,100.085 102.800,99.913 102.800 C 99.741 102.800,99.600 103.261,99.600 103.824 C 99.600 104.404,99.427 104.740,99.200 104.600 C 98.980 104.464,98.800 104.726,98.800 105.182 C 98.800 105.638,98.633 106.323,98.429 106.705 C 98.071 107.377,97.599 108.575,97.367 109.400 C 97.305 109.620,96.898 110.745,96.462 111.900 C 96.026 113.055,95.750 114.000,95.849 114.000 C 95.947 114.000,95.818 114.394,95.560 114.875 C 95.303 115.356,95.016 116.391,94.924 117.175 C 94.831 117.959,94.648 118.870,94.518 119.200 C 94.245 119.889,94.084 120.709,93.752 123.100 C 93.622 124.035,93.355 124.800,93.158 124.800 C 92.961 124.800,92.800 125.880,92.800 127.200 C 92.800 128.533,92.622 129.600,92.400 129.600 C 92.169 129.600,92.000 130.867,92.000 132.600 C 92.000 134.333,91.831 135.600,91.600 135.600 C 91.346 135.600,91.200 138.592,91.200 143.776 C 91.200 148.273,91.040 152.052,90.845 152.172 C 90.650 152.293,90.461 156.038,90.426 160.496 C 90.389 165.212,90.203 168.656,89.981 168.733 C 89.772 168.807,89.600 170.461,89.600 172.410 C 89.600 174.358,89.420 176.064,89.200 176.200 C 88.980 176.336,88.800 177.977,88.800 179.847 C 88.800 182.012,88.655 183.157,88.400 183.000 C 88.147 182.844,88.000 183.863,88.000 185.776 C 88.000 187.525,87.831 188.800,87.600 188.800 C 87.378 188.800,87.200 189.859,87.200 191.176 C 87.200 192.483,87.020 193.664,86.800 193.800 C 86.580 193.936,86.400 194.847,86.400 195.824 C 86.400 196.801,86.254 197.600,86.075 197.600 C 85.896 197.600,85.706 198.455,85.652 199.500 C 85.599 200.545,85.385 201.571,85.178 201.780 C 84.970 201.989,84.800 202.844,84.800 203.680 C 84.800 204.516,84.657 205.200,84.482 205.200 C 84.307 205.200,84.118 205.870,84.063 206.688 C 84.008 207.506,83.776 208.291,83.547 208.433 C 83.319 208.574,83.147 208.804,83.166 208.945 C 83.322 210.111,83.137 212.008,82.883 211.851 C 82.709 211.744,82.523 212.225,82.469 212.921 C 82.416 213.617,82.199 214.361,81.987 214.573 C 81.774 214.786,81.596 215.419,81.592 215.980 C 81.578 217.637,79.777 224.042,79.419 223.708 C 79.239 223.538,79.176 223.670,79.281 224.000 C 79.385 224.330,79.237 225.162,78.951 225.849 C 78.666 226.536,78.529 227.196,78.648 227.315 C 78.767 227.434,78.632 227.952,78.347 228.466 C 77.739 229.561,77.804 229.350,77.410 231.500 C 77.238 232.435,76.941 233.200,76.749 233.200 C 76.557 233.200,76.400 233.740,76.400 234.400 C 76.400 235.060,76.220 235.600,76.000 235.600 C 75.780 235.600,75.600 236.129,75.600 236.776 C 75.600 237.423,75.420 238.064,75.200 238.200 C 74.980 238.336,74.800 238.807,74.800 239.247 C 74.800 239.687,74.658 239.960,74.485 239.852 C 74.312 239.745,74.130 240.140,74.081 240.729 C 74.033 241.318,73.815 241.860,73.597 241.933 C 73.378 242.007,73.200 242.324,73.200 242.638 C 73.200 243.162,72.046 246.033,71.167 247.695 C 70.965 248.077,70.800 248.752,70.800 249.195 C 70.800 249.638,70.620 250.000,70.400 250.000 C 70.180 250.000,70.000 250.450,70.000 251.000 C 70.000 251.550,69.843 252.000,69.650 252.000 C 69.458 252.000,69.196 252.518,69.070 253.152 C 68.943 253.785,68.560 254.582,68.220 254.923 C 67.879 255.264,67.600 255.811,67.600 256.138 C 67.600 256.465,67.422 256.793,67.203 256.867 C 66.985 256.940,66.766 257.495,66.716 258.100 C 66.666 258.705,66.529 259.200,66.410 259.200 C 66.292 259.200,65.944 259.785,65.636 260.500 C 64.373 263.436,63.431 265.412,63.203 265.600 C 63.070 265.710,62.740 266.557,62.470 267.482 C 62.200 268.407,61.668 269.474,61.289 269.854 C 60.910 270.233,60.600 270.676,60.600 270.838 C 60.600 271.000,60.465 271.268,60.300 271.433 C 60.135 271.598,60.000 272.063,60.000 272.467 C 60.000 272.870,59.848 273.200,59.663 273.200 C 59.477 273.200,58.892 274.055,58.363 275.100 C 57.833 276.145,57.265 277.060,57.100 277.133 C 56.935 277.207,56.800 277.612,56.800 278.033 C 56.800 278.455,56.620 278.800,56.400 278.800 C 56.180 278.800,56.000 279.160,56.000 279.600 C 56.000 280.040,55.820 280.400,55.600 280.400 C 55.380 280.400,55.200 280.670,55.200 281.000 C 55.200 281.330,55.020 281.600,54.800 281.600 C 54.580 281.600,54.400 281.870,54.400 282.200 C 54.400 282.530,54.220 282.800,54.000 282.800 C 53.780 282.800,53.600 283.160,53.600 283.600 C 53.600 284.040,53.420 284.400,53.200 284.400 C 52.980 284.400,52.800 284.749,52.800 285.176 C 52.800 285.603,52.639 286.052,52.442 286.174 C 52.055 286.413,49.483 291.628,49.026 293.100 C 48.872 293.595,48.578 294.000,48.373 294.000 C 48.168 294.000,48.000 294.234,48.000 294.520 C 48.000 295.280,47.054 297.193,46.676 297.197 C 46.498 297.199,46.437 297.336,46.540 297.502 C 46.642 297.669,46.383 298.511,45.963 299.374 C 45.543 300.237,45.200 301.181,45.200 301.471 C 45.200 301.762,45.020 302.000,44.800 302.000 C 44.580 302.000,44.400 302.349,44.400 302.776 C 44.400 303.203,44.220 303.664,44.000 303.800 C 43.780 303.936,43.600 304.487,43.600 305.024 C 43.600 305.561,43.420 306.000,43.200 306.000 C 42.980 306.000,42.800 306.529,42.800 307.176 C 42.800 307.823,42.620 308.464,42.400 308.600 C 42.180 308.736,42.000 309.726,42.000 310.800 C 42.000 311.874,41.820 312.864,41.600 313.000 C 41.074 313.325,41.074 321.475,41.600 321.800 C 41.820 321.936,42.000 322.757,42.000 323.624 C 42.000 324.491,42.180 325.200,42.400 325.200 C 42.620 325.200,42.800 325.920,42.800 326.800 C 42.800 327.680,42.980 328.400,43.200 328.400 C 43.420 328.400,43.600 328.744,43.600 329.164 C 43.600 330.236,45.768 334.701,46.844 335.847 C 47.336 336.371,47.618 336.800,47.470 336.800 C 47.321 336.800,47.515 337.141,47.900 337.559 C 50.844 340.751,52.535 342.400,52.863 342.400 C 53.074 342.400,53.136 342.580,53.000 342.800 C 52.864 343.020,53.033 343.200,53.376 343.200 C 53.719 343.200,54.000 343.380,54.000 343.600 C 54.000 343.820,54.188 344.000,54.417 344.000 C 54.646 344.000,55.220 344.360,55.692 344.800 C 56.164 345.240,56.787 345.600,57.075 345.600 C 57.364 345.600,57.600 345.780,57.600 346.000 C 57.600 346.220,57.960 346.400,58.400 346.400 C 58.840 346.400,59.200 346.580,59.200 346.800 C 59.200 347.020,59.470 347.200,59.800 347.200 C 60.130 347.200,60.400 347.380,60.400 347.600 C 60.400 347.820,60.850 348.000,61.400 348.000 C 61.950 348.000,62.400 348.180,62.400 348.400 C 62.400 348.620,63.041 348.800,63.824 348.800 C 64.671 348.800,65.147 348.962,65.000 349.200 C 64.856 349.433,65.255 349.600,65.953 349.600 C 66.613 349.600,67.240 349.740,67.346 349.912 C 67.582 350.295,331.682 350.168,333.500 349.784 C 334.215 349.633,334.800 349.350,334.800 349.155 C 334.800 348.960,335.430 348.800,336.200 348.800 C 336.970 348.800,337.600 348.620,337.600 348.400 C 337.600 348.180,337.960 348.000,338.400 348.000 C 338.840 348.000,339.200 347.820,339.200 347.600 C 339.200 347.380,339.472 347.200,339.805 347.200 C 340.425 347.200,342.038 346.413,342.404 345.932 C 342.516 345.785,342.874 345.605,343.200 345.532 C 343.526 345.459,344.271 344.905,344.857 344.300 C 345.442 343.695,346.137 343.200,346.400 343.200 C 346.663 343.200,347.378 342.666,347.987 342.014 C 348.596 341.362,349.208 340.942,349.347 341.081 C 349.486 341.220,349.600 341.077,349.600 340.763 C 349.600 340.449,349.967 339.963,350.416 339.683 C 350.864 339.403,351.123 339.000,350.992 338.787 C 350.860 338.574,350.933 338.400,351.154 338.400 C 351.374 338.400,351.868 337.870,352.251 337.222 C 352.634 336.574,353.098 336.137,353.283 336.251 C 353.468 336.366,353.573 336.311,353.515 336.130 C 353.352 335.619,354.453 333.200,354.849 333.200 C 355.042 333.200,355.200 332.930,355.200 332.600 C 355.200 332.270,355.380 332.000,355.600 332.000 C 355.820 332.000,355.971 331.865,355.935 331.700 C 355.900 331.535,356.080 330.893,356.335 330.274 C 356.591 329.655,356.800 328.800,356.800 328.374 C 356.800 327.948,356.980 327.600,357.200 327.600 C 357.420 327.600,357.600 327.180,357.600 326.667 C 357.600 326.153,357.720 325.613,357.868 325.466 C 358.981 324.352,358.819 310.241,357.668 308.116 C 357.405 307.630,357.230 307.090,357.280 306.916 C 357.329 306.742,357.137 306.180,356.853 305.666 C 356.568 305.152,356.426 304.641,356.536 304.530 C 356.647 304.420,356.212 303.437,355.569 302.347 C 354.926 301.257,354.400 300.013,354.400 299.582 C 354.400 299.152,354.220 298.800,354.000 298.800 C 353.780 298.800,353.600 298.429,353.600 297.976 C 353.600 297.523,353.420 297.264,353.200 297.400 C 352.980 297.536,352.800 297.277,352.800 296.824 C 352.800 296.371,352.620 296.000,352.400 296.000 C 352.180 296.000,352.000 295.640,352.000 295.200 C 352.000 294.760,351.865 294.399,351.700 294.397 C 351.341 294.393,350.400 292.456,350.400 291.720 C 350.400 291.434,350.220 291.200,350.000 291.200 C 349.780 291.200,349.600 290.945,349.600 290.633 C 349.600 290.321,348.981 288.900,348.225 287.475 C 347.469 286.049,346.959 284.774,347.092 284.642 C 347.225 284.509,347.135 284.400,346.893 284.400 C 346.650 284.400,346.224 283.770,345.946 283.000 C 345.667 282.230,345.295 281.600,345.120 281.600 C 344.944 281.600,344.800 281.240,344.800 280.800 C 344.800 280.360,344.642 280.000,344.449 280.000 C 344.255 280.000,343.860 279.415,343.571 278.700 C 343.281 277.985,342.719 277.109,342.322 276.753 C 341.925 276.397,341.600 275.823,341.600 275.477 C 341.600 275.130,341.408 274.728,341.173 274.583 C 340.938 274.438,340.842 274.067,340.960 273.760 C 341.084 273.437,340.926 273.200,340.587 273.200 C 340.264 273.200,340.045 273.052,340.100 272.871 C 340.195 272.557,338.018 267.618,337.600 267.200 C 337.134 266.734,336.400 265.167,336.400 264.639 C 336.400 264.324,336.265 264.007,336.100 263.933 C 335.668 263.741,334.000 260.428,334.000 259.762 C 334.000 259.453,333.820 259.200,333.600 259.200 C 333.380 259.200,333.200 258.784,333.200 258.275 C 333.200 257.767,332.885 257.002,332.500 256.575 C 332.115 256.149,331.738 255.350,331.662 254.800 C 331.586 254.250,331.361 253.740,331.162 253.667 C 330.963 253.593,330.800 253.188,330.800 252.767 C 330.800 252.345,330.620 252.000,330.400 252.000 C 330.180 252.000,330.000 251.550,330.000 251.000 C 330.000 250.450,329.820 250.000,329.600 250.000 C 329.380 250.000,329.200 249.550,329.200 249.000 C 329.200 248.450,329.020 248.000,328.800 248.000 C 328.580 248.000,328.400 247.550,328.400 247.000 C 328.400 246.450,328.220 246.000,328.000 246.000 C 327.780 246.000,327.600 245.539,327.600 244.976 C 327.600 244.396,327.427 244.060,327.200 244.200 C 326.980 244.336,326.800 244.087,326.800 243.647 C 326.800 243.207,326.620 242.736,326.400 242.600 C 326.180 242.464,326.000 241.913,326.000 241.376 C 326.000 240.839,325.837 240.400,325.638 240.400 C 325.438 240.400,325.153 239.509,325.003 238.420 C 324.853 237.331,324.476 236.229,324.165 235.971 C 323.854 235.713,323.600 234.984,323.600 234.351 C 323.600 233.718,323.412 233.200,323.182 233.200 C 322.953 233.200,322.803 232.975,322.849 232.700 C 322.976 231.948,322.328 229.029,321.984 228.800 C 321.818 228.690,321.619 228.150,321.541 227.600 C 321.464 227.050,321.261 226.497,321.091 226.371 C 320.920 226.244,320.705 225.794,320.613 225.371 C 320.520 224.947,320.267 224.015,320.050 223.300 C 319.833 222.585,319.769 222.000,319.908 222.000 C 320.047 222.000,319.944 221.784,319.680 221.520 C 319.416 221.256,319.200 220.435,319.200 219.696 C 319.200 218.903,319.036 218.454,318.800 218.600 C 318.558 218.749,318.400 218.204,318.400 217.224 C 318.400 216.331,318.220 215.600,318.000 215.600 C 317.780 215.600,317.600 214.880,317.600 214.000 C 317.600 213.120,317.420 212.400,317.200 212.400 C 316.980 212.400,316.800 211.781,316.800 211.024 C 316.800 210.267,316.620 209.536,316.400 209.400 C 316.180 209.264,316.000 208.634,316.000 208.000 C 316.000 207.366,315.820 206.736,315.600 206.600 C 315.380 206.464,315.200 205.589,315.200 204.656 C 315.200 203.723,315.038 202.789,314.841 202.580 C 314.495 202.214,314.220 200.737,313.746 196.700 C 313.623 195.655,313.378 194.800,313.202 194.800 C 312.846 194.800,312.472 192.453,312.150 188.200 C 312.033 186.660,311.772 185.229,311.569 185.020 C 311.366 184.811,311.200 183.542,311.200 182.200 C 311.200 180.858,311.030 179.589,310.823 179.380 C 310.615 179.171,310.408 177.695,310.362 176.100 C 310.316 174.505,310.126 173.200,309.939 173.200 C 309.753 173.200,309.600 170.986,309.600 168.280 C 309.600 165.574,309.436 163.189,309.235 162.980 C 309.034 162.771,308.781 158.730,308.673 154.000 C 308.421 142.987,308.215 138.671,307.916 138.187 C 307.784 137.974,307.576 136.900,307.452 135.800 C 307.013 131.877,305.983 125.608,305.256 122.422 C 305.032 121.443,304.956 120.471,305.087 120.260 C 305.217 120.049,305.147 119.985,304.931 120.119 C 304.706 120.258,304.324 119.223,304.032 117.681 C 303.470 114.713,302.884 112.561,302.351 111.505 C 302.158 111.123,302.000 110.369,302.000 109.829 C 302.000 109.289,301.820 108.736,301.600 108.600 C 301.380 108.464,301.200 108.003,301.200 107.576 C 301.200 107.149,301.020 106.800,300.800 106.800 C 300.580 106.800,300.440 106.665,300.490 106.500 C 300.625 106.048,299.532 102.256,299.141 101.820 C 298.953 101.611,298.800 101.116,298.800 100.720 C 298.800 100.324,298.620 100.000,298.400 100.000 C 298.180 100.000,298.000 99.550,298.000 99.000 C 298.000 98.450,297.820 98.000,297.600 98.000 C 297.380 98.000,297.200 97.629,297.200 97.176 C 297.200 96.723,297.020 96.464,296.800 96.600 C 296.460 96.810,296.196 95.691,296.353 94.700 C 296.379 94.535,296.220 94.400,296.000 94.400 C 295.780 94.400,295.600 94.040,295.600 93.600 C 295.600 93.160,295.420 92.800,295.200 92.800 C 294.980 92.800,294.800 92.440,294.800 92.000 C 294.800 91.560,294.620 91.200,294.400 91.200 C 294.180 91.200,294.000 90.840,294.000 90.400 C 294.000 89.960,293.865 89.599,293.700 89.597 C 293.335 89.593,292.400 87.651,292.400 86.897 C 292.400 86.598,292.220 86.464,292.000 86.600 C 291.780 86.736,291.600 86.511,291.600 86.099 C 291.600 85.688,291.285 84.995,290.900 84.560 C 290.515 84.125,290.144 83.506,290.075 83.184 C 290.006 82.863,289.151 81.402,288.175 79.938 C 287.199 78.474,286.400 77.118,286.400 76.926 C 286.400 76.734,286.040 76.317,285.600 76.000 C 285.160 75.683,284.800 75.193,284.800 74.912 C 284.800 74.630,284.620 74.400,284.400 74.400 C 284.180 74.400,284.000 74.202,284.000 73.960 C 284.000 73.719,283.469 73.025,282.819 72.418 C 282.170 71.811,281.585 71.077,281.519 70.786 C 281.454 70.496,280.860 69.681,280.200 68.975 C 278.076 66.704,276.800 65.109,276.800 64.726 C 276.800 64.521,276.620 64.464,276.400 64.600 C 276.180 64.736,276.000 64.567,276.000 64.224 C 276.000 63.881,275.754 63.600,275.454 63.600 C 275.154 63.600,274.405 62.873,273.789 61.984 C 273.173 61.095,272.168 60.072,271.556 59.710 C 270.944 59.349,270.534 58.906,270.645 58.727 C 270.756 58.547,270.466 58.400,270.000 58.400 C 269.534 58.400,269.264 58.220,269.400 58.000 C 269.536 57.780,269.442 57.600,269.192 57.600 C 268.942 57.600,268.053 56.888,267.217 56.018 C 266.381 55.148,265.585 54.548,265.449 54.685 C 265.312 54.821,265.200 54.633,265.200 54.267 C 265.200 53.900,264.920 53.600,264.578 53.600 C 264.236 53.600,263.381 53.061,262.678 52.402 C 261.975 51.743,261.177 51.203,260.903 51.202 C 260.630 51.201,260.182 50.840,259.907 50.400 C 259.632 49.960,259.157 49.600,258.851 49.600 C 258.544 49.600,257.958 49.212,257.547 48.739 C 257.136 48.265,256.800 48.004,256.800 48.159 C 256.800 48.314,256.189 47.975,255.443 47.406 C 254.697 46.836,253.662 46.289,253.144 46.189 C 252.626 46.090,252.138 45.815,252.059 45.578 C 251.934 45.203,250.792 44.602,249.903 44.443 C 249.740 44.414,248.969 44.032,248.191 43.595 C 247.412 43.158,246.511 42.800,246.188 42.800 C 245.865 42.800,245.600 42.620,245.600 42.400 C 245.600 42.180,245.251 42.000,244.824 42.000 C 244.397 42.000,243.926 41.804,243.778 41.564 C 243.619 41.307,242.977 41.228,242.213 41.371 C 241.403 41.523,240.485 41.389,239.760 41.013 C 239.123 40.683,237.611 40.124,236.401 39.773 C 235.190 39.421,233.887 38.968,233.505 38.767 C 233.123 38.565,232.459 38.400,232.029 38.400 C 231.599 38.400,231.151 38.244,231.033 38.054 C 230.916 37.864,230.230 37.595,229.510 37.457 C 228.789 37.319,227.480 37.043,226.600 36.844 C 214.319 34.068,200.941 33.330,189.600 34.803 M204.290 67.729 C 208.415 70.603,209.879 76.633,207.160 79.551 C 206.742 79.999,206.400 80.509,206.399 80.683 C 206.396 82.186,202.342 83.448,195.800 83.985 C 192.940 84.219,188.800 84.781,186.600 85.233 C 183.131 85.945,181.608 86.400,177.400 87.978 C 174.946 88.898,169.892 91.592,169.667 92.100 C 169.593 92.265,169.348 92.400,169.122 92.400 C 168.211 92.400,160.520 99.477,157.957 102.674 C 154.275 107.266,149.428 116.574,147.580 122.600 C 147.310 123.480,146.955 124.560,146.790 125.000 C 146.372 126.119,145.259 130.390,144.444 134.000 C 143.229 139.388,142.817 143.617,141.578 163.400 C 140.949 173.460,140.469 179.434,140.022 182.800 C 139.802 184.450,139.426 187.330,139.185 189.200 C 138.113 197.519,138.062 197.852,136.862 204.200 C 136.654 205.300,136.188 207.820,135.826 209.800 C 135.253 212.938,133.325 221.444,132.382 225.000 C 132.207 225.660,131.775 227.370,131.422 228.800 C 131.069 230.230,130.629 231.940,130.444 232.600 C 130.259 233.260,129.886 234.610,129.615 235.600 C 129.344 236.590,128.960 237.713,128.761 238.095 C 128.562 238.477,128.400 239.064,128.400 239.400 C 128.400 239.736,128.238 240.323,128.039 240.705 C 127.840 241.087,127.463 242.210,127.200 243.200 C 126.937 244.190,126.560 245.313,126.361 245.695 C 126.162 246.077,126.000 246.741,126.000 247.171 C 126.000 247.601,125.820 248.064,125.600 248.200 C 125.380 248.336,125.200 248.876,125.200 249.400 C 125.200 249.924,125.020 250.464,124.800 250.600 C 124.580 250.736,124.400 251.251,124.400 251.744 C 124.400 252.237,124.257 252.811,124.082 253.020 C 123.907 253.229,123.535 254.120,123.255 255.000 C 122.743 256.613,122.459 257.371,121.682 259.200 C 121.449 259.750,120.332 262.630,119.200 265.600 C 116.127 273.668,109.412 288.193,104.869 296.600 C 104.274 297.700,102.812 300.400,101.620 302.600 C 100.428 304.800,98.780 307.902,97.958 309.494 C 95.859 313.557,95.002 314.648,92.970 315.838 C 87.397 319.105,80.400 315.009,80.400 308.479 C 80.400 305.283,80.555 304.940,89.109 289.200 C 92.037 283.813,95.200 277.441,95.200 276.930 C 95.200 276.638,95.380 276.400,95.600 276.400 C 95.820 276.400,96.000 276.164,96.000 275.875 C 96.000 275.586,96.342 274.641,96.760 273.775 C 98.721 269.709,100.248 266.174,102.273 261.010 C 103.483 257.924,104.636 254.995,104.836 254.500 C 105.736 252.274,105.970 251.669,106.732 249.600 C 107.178 248.390,107.758 246.680,108.021 245.800 C 108.283 244.920,108.656 243.887,108.849 243.505 C 109.042 243.123,109.200 242.536,109.200 242.200 C 109.200 241.864,109.361 241.277,109.559 240.895 C 109.756 240.513,110.497 238.310,111.207 236.000 C 111.916 233.690,112.641 231.440,112.818 231.000 C 112.995 230.560,113.251 229.660,113.388 229.000 C 113.707 227.457,114.133 225.761,115.195 221.800 C 116.946 215.278,119.909 201.128,120.850 194.800 C 121.214 192.353,121.407 190.929,122.406 183.300 C 123.326 176.281,124.178 165.535,124.810 153.000 C 125.020 148.820,125.369 144.050,125.584 142.400 C 126.231 137.439,126.724 134.305,127.174 132.300 C 127.408 131.255,127.761 129.635,127.958 128.700 C 128.795 124.721,130.783 118.232,132.399 114.200 C 132.575 113.760,132.947 112.770,133.225 112.000 C 133.981 109.908,137.838 102.151,138.779 100.830 C 139.231 100.195,139.600 99.557,139.600 99.410 C 139.600 99.126,141.982 95.534,142.393 95.200 C 142.528 95.090,143.077 94.370,143.614 93.600 C 145.046 91.544,145.587 90.879,147.828 88.423 C 148.943 87.200,150.113 85.885,150.428 85.500 C 150.743 85.116,152.260 83.766,153.800 82.501 C 155.340 81.237,156.690 80.100,156.800 79.975 C 157.288 79.420,160.786 77.200,161.172 77.200 C 161.407 77.200,161.600 77.050,161.600 76.868 C 161.600 76.685,162.095 76.280,162.700 75.968 C 163.305 75.656,163.890 75.309,164.000 75.195 C 164.196 74.994,165.572 74.321,170.000 72.263 C 180.514 67.376,200.071 64.790,204.290 67.729 " stroke="none" fill="#fcc304" fill-rule="evenodd"></path><path id="path1" d="M194.000 67.253 C 191.250 67.416,188.100 67.734,187.000 67.961 C 185.900 68.188,184.190 68.492,183.200 68.636 C 182.210 68.781,179.801 69.417,177.847 70.049 C 175.893 70.682,174.131 71.200,173.932 71.200 C 173.733 71.200,171.676 72.100,169.361 73.200 C 167.046 74.300,165.066 75.200,164.961 75.200 C 164.512 75.200,157.184 80.318,154.800 82.297 C 149.933 86.337,142.763 94.814,139.995 99.800 C 139.506 100.680,138.798 101.850,138.422 102.400 C 135.496 106.675,130.566 119.846,128.465 129.000 C 126.580 137.214,125.196 148.020,125.207 154.445 C 125.220 162.590,122.881 187.172,121.253 196.000 C 121.030 197.210,120.736 198.830,120.600 199.600 C 120.464 200.370,120.198 201.720,120.009 202.600 C 119.820 203.480,119.460 205.280,119.209 206.600 C 118.206 211.873,117.835 213.576,116.770 217.800 C 114.424 227.103,113.188 231.600,111.652 236.413 C 110.778 239.156,109.578 242.930,108.986 244.800 C 108.394 246.670,107.774 248.560,107.608 249.000 C 107.121 250.294,106.334 252.147,105.953 252.895 C 105.759 253.277,105.600 253.774,105.600 253.999 C 105.600 254.224,105.260 255.172,104.844 256.104 C 104.429 257.037,103.132 260.230,101.963 263.200 C 100.794 266.170,99.182 269.950,98.380 271.600 C 97.578 273.250,96.409 275.770,95.782 277.200 C 94.604 279.884,90.804 287.382,89.194 290.200 C 88.691 291.080,87.612 293.060,86.797 294.600 C 85.982 296.140,84.351 299.200,83.174 301.400 C 79.597 308.083,80.318 312.959,85.258 315.486 C 90.412 318.123,93.911 316.089,98.135 308.000 C 99.341 305.690,101.790 301.100,103.578 297.800 C 106.452 292.493,109.335 286.735,111.589 281.800 C 111.991 280.920,112.861 279.030,113.521 277.600 C 116.517 271.117,117.200 269.554,117.200 269.185 C 117.200 268.967,117.359 268.477,117.553 268.095 C 119.885 263.510,128.036 239.848,129.986 232.000 C 130.177 231.230,130.544 229.790,130.800 228.800 C 131.056 227.810,131.443 226.280,131.660 225.400 C 131.877 224.520,132.204 223.260,132.388 222.600 C 132.917 220.694,134.287 214.805,134.760 212.400 C 138.840 191.656,140.297 179.117,141.617 153.400 C 141.843 149.000,142.211 144.230,142.435 142.800 C 142.659 141.370,143.025 138.940,143.249 137.400 C 143.634 134.748,143.798 133.974,144.831 129.900 C 151.150 104.996,165.933 88.718,185.800 84.788 C 187.120 84.527,188.722 84.153,189.360 83.957 C 189.998 83.761,191.739 83.600,193.231 83.600 C 195.833 83.600,201.409 82.993,202.926 82.544 C 207.012 81.336,209.199 74.656,206.731 70.926 C 204.388 67.386,202.241 66.766,194.000 67.253 " stroke="none" fill="#fcd34b" fill-rule="evenodd"></path><path id="path2" d="M190.400 0.275 C 189.410 0.371,188.429 0.619,188.220 0.825 C 188.011 1.031,187.336 1.200,186.720 1.200 C 186.104 1.200,185.600 1.380,185.600 1.600 C 185.600 1.820,185.161 2.000,184.624 2.000 C 184.087 2.000,183.536 2.180,183.400 2.400 C 183.264 2.620,182.803 2.800,182.376 2.800 C 181.949 2.800,181.600 2.980,181.600 3.200 C 181.600 3.420,181.240 3.600,180.800 3.600 C 180.360 3.600,180.000 3.780,180.000 4.000 C 180.000 4.220,179.730 4.400,179.400 4.400 C 179.070 4.400,178.800 4.580,178.800 4.800 C 178.800 5.020,178.530 5.200,178.200 5.200 C 177.870 5.200,177.600 5.380,177.600 5.600 C 177.600 5.820,177.370 6.000,177.088 6.000 C 176.807 6.000,176.317 6.360,176.000 6.800 C 175.683 7.240,175.188 7.600,174.900 7.600 C 174.336 7.600,173.107 8.670,168.776 12.931 C 167.249 14.433,166.000 15.830,166.000 16.035 C 166.000 16.240,165.460 16.972,164.800 17.663 C 164.140 18.354,163.600 19.162,163.600 19.459 C 163.600 19.757,163.420 20.000,163.200 20.000 C 162.980 20.000,162.800 20.360,162.800 20.800 C 162.800 21.240,162.620 21.600,162.400 21.600 C 162.180 21.600,162.000 21.960,162.000 22.400 C 162.000 22.840,161.820 23.200,161.600 23.200 C 161.380 23.200,161.200 23.560,161.200 24.000 C 161.200 24.440,161.031 24.800,160.825 24.800 C 160.618 24.800,160.327 25.612,160.178 26.605 C 160.029 27.598,159.748 28.508,159.554 28.629 C 159.359 28.749,159.200 29.467,159.200 30.224 C 159.200 30.981,159.020 31.600,158.800 31.600 C 158.580 31.600,158.400 32.579,158.400 33.776 C 158.400 34.973,158.220 36.064,158.000 36.200 C 157.208 36.690,157.504 42.800,158.320 42.800 C 158.716 42.800,159.211 42.647,159.420 42.460 C 161.328 40.750,177.739 35.900,185.200 34.840 C 186.850 34.606,189.495 34.231,191.077 34.007 C 204.578 32.097,228.509 35.245,239.896 40.428 C 240.828 40.853,241.773 41.200,241.996 41.200 C 242.484 41.200,242.543 37.336,242.060 37.037 C 241.873 36.922,241.599 35.251,241.451 33.324 C 241.303 31.398,241.006 29.646,240.791 29.431 C 240.576 29.216,240.400 28.626,240.400 28.120 C 240.400 27.614,240.220 27.200,240.000 27.200 C 239.780 27.200,239.600 26.660,239.600 26.000 C 239.600 25.340,239.420 24.800,239.200 24.800 C 238.980 24.800,238.800 24.440,238.800 24.000 C 238.800 23.560,238.620 23.200,238.400 23.200 C 238.180 23.200,238.000 22.840,238.000 22.400 C 238.000 21.960,237.820 21.600,237.600 21.600 C 237.380 21.600,237.200 21.240,237.200 20.800 C 237.200 20.360,237.050 20.000,236.868 20.000 C 236.685 20.000,236.281 19.505,235.970 18.900 C 235.660 18.295,235.126 17.530,234.784 17.200 C 234.442 16.870,233.726 15.970,233.192 15.200 C 232.346 13.978,230.391 11.983,227.314 9.201 C 226.827 8.760,226.164 8.400,225.841 8.400 C 225.518 8.400,225.143 8.051,225.008 7.625 C 224.873 7.199,224.231 6.615,223.581 6.327 C 222.931 6.040,222.400 5.669,222.400 5.502 C 222.400 5.336,222.010 5.200,221.533 5.200 C 221.057 5.200,220.784 5.083,220.927 4.939 C 221.227 4.640,219.384 3.600,218.554 3.600 C 218.249 3.600,218.000 3.420,218.000 3.200 C 218.000 2.980,217.550 2.800,217.000 2.800 C 216.450 2.800,216.000 2.664,216.000 2.497 C 216.000 2.137,213.140 1.200,212.040 1.200 C 211.615 1.200,211.192 0.975,211.100 0.700 C 210.932 0.196,194.637 -0.139,190.400 0.275 M160.400 385.725 C 160.400 385.794,160.985 386.379,161.700 387.025 L 163.000 388.200 161.825 386.900 C 160.730 385.688,160.400 385.416,160.400 385.725 M232.456 390.813 C 231.936 391.246,231.684 391.600,231.894 391.600 C 232.105 391.600,232.693 391.240,233.200 390.800 C 234.393 389.765,233.699 389.777,232.456 390.813 " stroke="none" fill="#f47c04" fill-rule="evenodd"></path><path id="path3" d="M190.600 34.051 C 189.280 34.243,186.850 34.594,185.200 34.833 C 177.806 35.901,166.769 39.100,159.800 42.195 C 159.140 42.488,158.330 42.820,158.000 42.933 C 157.618 43.063,157.723 43.148,158.288 43.168 C 158.776 43.186,159.817 42.840,160.600 42.400 C 161.383 41.960,162.291 41.600,162.618 41.600 C 162.944 41.600,163.523 41.429,163.905 41.219 C 164.287 41.009,165.770 40.457,167.200 39.993 C 168.630 39.528,170.160 38.996,170.600 38.810 C 172.136 38.162,173.011 37.890,174.600 37.568 C 175.480 37.390,176.920 37.072,177.800 36.862 C 193.371 33.149,210.230 33.143,226.600 36.844 C 227.480 37.043,228.789 37.319,229.510 37.457 C 230.230 37.595,230.916 37.864,231.033 38.054 C 231.151 38.244,231.599 38.400,232.029 38.400 C 232.459 38.400,233.123 38.562,233.505 38.759 C 233.887 38.956,235.515 39.530,237.123 40.034 C 238.730 40.538,240.136 41.097,240.246 41.275 C 240.357 41.454,240.842 41.591,241.324 41.579 C 242.789 41.544,239.099 39.936,233.800 38.300 C 226.664 36.098,221.406 34.985,213.579 34.021 C 209.567 33.527,194.070 33.547,190.600 34.051 M142.000 352.200 C 142.000 353.410,142.180 354.400,142.400 354.400 C 142.620 354.400,142.800 355.120,142.800 356.000 C 142.800 356.880,142.980 357.600,143.200 357.600 C 143.420 357.600,143.600 358.056,143.600 358.613 C 143.600 359.170,143.889 360.295,144.242 361.113 C 144.595 361.931,144.911 362.870,144.944 363.200 C 145.007 363.832,148.785 371.656,149.192 372.000 C 149.323 372.110,150.004 373.100,150.706 374.200 C 151.408 375.300,152.367 376.650,152.837 377.200 C 153.307 377.750,153.714 378.380,153.741 378.600 C 153.926 380.082,167.238 391.600,168.765 391.600 C 169.004 391.600,169.200 391.737,169.200 391.904 C 169.200 392.072,170.415 392.835,171.900 393.601 C 173.385 394.367,174.690 395.085,174.800 395.197 C 174.910 395.309,175.360 395.460,175.800 395.533 C 176.240 395.607,176.771 395.832,176.980 396.033 C 177.189 396.235,177.684 396.400,178.080 396.400 C 178.476 396.400,178.800 396.580,178.800 396.800 C 178.800 397.020,179.162 397.200,179.605 397.200 C 180.048 397.200,180.723 397.358,181.105 397.551 C 182.256 398.132,184.603 398.800,185.495 398.800 C 185.956 398.800,186.408 399.025,186.500 399.300 C 186.629 399.686,189.591 399.800,199.513 399.800 C 209.257 399.800,212.481 399.679,212.860 399.300 C 213.135 399.025,213.943 398.800,214.656 398.800 C 215.369 398.800,216.064 398.620,216.200 398.400 C 216.336 398.180,216.876 398.000,217.400 398.000 C 217.924 398.000,218.464 397.820,218.600 397.600 C 218.736 397.380,219.387 397.200,220.047 397.200 C 220.745 397.200,221.144 397.033,221.000 396.800 C 220.864 396.580,221.106 396.400,221.539 396.400 C 222.278 396.400,224.548 395.419,226.800 394.125 C 227.350 393.809,228.115 393.451,228.500 393.329 C 228.885 393.207,229.200 392.948,229.200 392.753 C 229.200 392.559,229.545 392.400,229.967 392.400 C 230.388 392.400,230.793 392.265,230.867 392.100 C 231.078 391.625,233.327 390.140,234.308 389.829 C 234.798 389.674,235.200 389.402,235.200 389.226 C 235.200 389.050,235.875 388.459,236.700 387.912 C 238.618 386.641,245.600 379.642,245.600 378.989 C 245.600 378.881,246.140 378.228,246.800 377.537 C 247.460 376.846,248.000 376.121,248.000 375.924 C 248.000 375.727,248.360 375.180,248.800 374.708 C 249.240 374.236,249.600 373.613,249.600 373.325 C 249.600 373.036,249.780 372.800,250.000 372.800 C 250.220 372.800,250.400 372.530,250.400 372.200 C 250.400 371.870,250.580 371.600,250.800 371.600 C 251.020 371.600,251.200 371.330,251.200 371.000 C 251.200 370.670,251.380 370.400,251.600 370.400 C 251.820 370.400,252.000 370.040,252.000 369.600 C 252.000 369.160,252.180 368.800,252.400 368.800 C 252.620 368.800,252.800 368.440,252.800 368.000 C 252.800 367.560,252.959 367.200,253.153 367.200 C 253.476 367.200,253.867 366.325,254.218 364.817 C 254.292 364.497,254.528 363.867,254.741 363.417 C 255.959 360.844,258.453 351.402,258.133 350.570 C 257.945 350.080,249.762 350.000,199.957 350.000 L 142.000 350.000 142.000 352.200 " stroke="none" fill="#fca304" fill-rule="evenodd"></path><path id="path4" d="M191.600 66.793 C 184.470 67.472,175.326 69.788,170.000 72.263 C 165.572 74.321,164.196 74.994,164.000 75.195 C 163.890 75.309,163.305 75.656,162.700 75.968 C 162.095 76.280,161.600 76.685,161.600 76.868 C 161.600 77.050,161.407 77.200,161.172 77.200 C 160.786 77.200,157.288 79.420,156.800 79.975 C 156.690 80.100,155.340 81.237,153.800 82.501 C 152.260 83.766,150.743 85.116,150.428 85.500 C 150.113 85.885,148.943 87.200,147.828 88.423 C 145.587 90.879,145.046 91.544,143.614 93.600 C 143.077 94.370,142.528 95.090,142.393 95.200 C 141.982 95.534,139.600 99.126,139.600 99.410 C 139.600 99.557,139.231 100.195,138.779 100.830 C 137.838 102.151,133.981 109.908,133.225 112.000 C 132.947 112.770,132.575 113.760,132.399 114.200 C 130.783 118.232,128.795 124.721,127.958 128.700 C 127.761 129.635,127.408 131.255,127.174 132.300 C 126.724 134.305,126.231 137.439,125.584 142.400 C 125.369 144.050,125.020 148.820,124.810 153.000 C 124.178 165.535,123.326 176.281,122.406 183.300 C 121.407 190.929,121.214 192.353,120.850 194.800 C 119.909 201.128,116.946 215.278,115.195 221.800 C 114.133 225.761,113.707 227.457,113.388 229.000 C 113.251 229.660,112.995 230.560,112.818 231.000 C 112.641 231.440,111.916 233.690,111.207 236.000 C 110.497 238.310,109.756 240.513,109.559 240.895 C 109.361 241.277,109.200 241.864,109.200 242.200 C 109.200 242.536,109.042 243.123,108.849 243.505 C 108.656 243.887,108.283 244.920,108.021 245.800 C 107.758 246.680,107.178 248.390,106.732 249.600 C 105.970 251.669,105.736 252.274,104.836 254.500 C 104.636 254.995,103.483 257.924,102.273 261.010 C 100.248 266.174,98.721 269.709,96.760 273.775 C 96.342 274.641,96.000 275.586,96.000 275.875 C 96.000 276.164,95.820 276.400,95.600 276.400 C 95.380 276.400,95.200 276.638,95.200 276.930 C 95.200 277.441,92.037 283.813,89.109 289.200 C 80.555 304.940,80.400 305.283,80.400 308.479 C 80.400 315.009,87.397 319.105,92.970 315.838 C 95.002 314.648,95.859 313.557,97.958 309.494 C 98.780 307.902,100.428 304.800,101.620 302.600 C 102.812 300.400,104.274 297.700,104.869 296.600 C 109.412 288.193,116.127 273.668,119.200 265.600 C 120.332 262.630,121.449 259.750,121.682 259.200 C 122.459 257.371,122.743 256.613,123.255 255.000 C 123.535 254.120,123.907 253.229,124.082 253.020 C 124.257 252.811,124.400 252.237,124.400 251.744 C 124.400 251.251,124.580 250.736,124.800 250.600 C 125.020 250.464,125.200 249.924,125.200 249.400 C 125.200 248.876,125.380 248.336,125.600 248.200 C 125.820 248.064,126.000 247.601,126.000 247.171 C 126.000 246.741,126.162 246.077,126.361 245.695 C 126.560 245.313,126.937 244.190,127.200 243.200 C 127.463 242.210,127.840 241.087,128.039 240.705 C 128.238 240.323,128.400 239.736,128.400 239.400 C 128.400 239.064,128.562 238.477,128.761 238.095 C 128.960 237.713,129.344 236.590,129.615 235.600 C 129.886 234.610,130.259 233.260,130.444 232.600 C 130.629 231.940,131.067 230.230,131.418 228.800 C 131.769 227.370,132.656 223.770,133.390 220.800 C 134.124 217.830,135.011 213.870,135.361 212.000 C 135.711 210.130,136.164 207.790,136.366 206.800 C 137.421 201.647,137.669 200.057,137.526 199.363 C 137.439 198.943,136.868 201.300,136.256 204.600 C 134.738 212.787,133.453 218.766,132.388 222.600 C 132.050 223.814,131.503 225.962,130.833 228.700 C 129.665 233.473,128.210 238.329,124.987 248.200 C 122.802 254.895,118.745 265.751,117.553 268.095 C 117.359 268.477,117.200 268.967,117.200 269.185 C 117.200 269.554,116.517 271.117,113.521 277.600 C 112.861 279.030,111.991 280.920,111.589 281.800 C 109.335 286.735,106.452 292.493,103.578 297.800 C 101.790 301.100,99.341 305.690,98.135 308.000 C 93.911 316.089,90.412 318.123,85.258 315.486 C 80.318 312.959,79.597 308.083,83.174 301.400 C 84.351 299.200,85.982 296.140,86.797 294.600 C 87.612 293.060,88.691 291.080,89.194 290.200 C 90.804 287.382,94.604 279.884,95.782 277.200 C 96.409 275.770,97.578 273.250,98.380 271.600 C 99.182 269.950,100.794 266.170,101.963 263.200 C 103.132 260.230,104.429 257.037,104.844 256.104 C 105.260 255.172,105.600 254.224,105.600 253.999 C 105.600 253.774,105.759 253.277,105.953 252.895 C 106.148 252.513,106.484 251.750,106.700 251.200 C 106.916 250.650,107.277 249.750,107.501 249.200 C 107.726 248.650,108.394 246.670,108.986 244.800 C 109.578 242.930,110.778 239.156,111.652 236.413 C 113.188 231.600,114.424 227.103,116.770 217.800 C 117.835 213.576,118.206 211.873,119.209 206.600 C 119.460 205.280,119.820 203.480,120.009 202.600 C 120.198 201.720,120.464 200.370,120.600 199.600 C 120.736 198.830,121.030 197.210,121.253 196.000 C 122.257 190.556,123.903 175.738,124.785 164.200 C 125.021 161.120,125.210 156.730,125.207 154.445 C 125.196 148.020,126.580 137.214,128.465 129.000 C 130.566 119.846,135.496 106.675,138.422 102.400 C 138.798 101.850,139.506 100.680,139.995 99.800 C 142.763 94.814,149.933 86.337,154.800 82.297 C 157.184 80.318,164.512 75.200,164.961 75.200 C 165.066 75.200,167.046 74.300,169.361 73.200 C 171.676 72.100,173.712 71.201,173.885 71.202 C 174.058 71.203,175.910 70.677,178.000 70.033 C 180.090 69.389,183.150 68.647,184.800 68.383 C 186.450 68.120,188.433 67.750,189.207 67.562 C 193.134 66.606,202.301 67.023,204.053 68.237 C 209.431 71.964,208.733 80.827,202.926 82.544 C 201.409 82.993,195.833 83.600,193.231 83.600 C 191.739 83.600,189.998 83.761,189.360 83.957 C 188.722 84.153,187.120 84.527,185.800 84.788 C 165.933 88.718,151.150 104.996,144.831 129.900 C 143.798 133.974,143.634 134.748,143.249 137.400 C 143.025 138.940,142.659 141.370,142.435 142.800 C 142.211 144.230,141.843 149.000,141.617 153.400 C 140.721 170.860,140.152 177.607,138.572 189.546 C 137.531 197.415,137.431 198.702,137.898 198.235 C 138.062 198.071,138.320 196.736,138.472 195.268 C 138.737 192.694,139.181 189.121,140.022 182.800 C 140.469 179.434,140.949 173.460,141.578 163.400 C 142.817 143.617,143.229 139.388,144.444 134.000 C 145.259 130.390,146.372 126.119,146.790 125.000 C 146.955 124.560,147.310 123.480,147.580 122.600 C 149.428 116.574,154.275 107.266,157.957 102.674 C 160.520 99.477,168.211 92.400,169.122 92.400 C 169.348 92.400,169.593 92.265,169.667 92.100 C 169.892 91.592,174.946 88.898,177.400 87.978 C 181.608 86.400,183.131 85.945,186.600 85.233 C 188.800 84.781,192.940 84.219,195.800 83.985 C 202.342 83.448,206.396 82.186,206.399 80.683 C 206.400 80.509,206.742 79.999,207.160 79.551 C 208.969 77.609,208.799 72.567,206.841 70.095 C 204.119 66.659,200.725 65.924,191.600 66.793 " stroke="none" fill="#fccc23" fill-rule="evenodd"></path></g></svg>