<?xml version="1.0" standalone="no"?>
<!DOCTYPE svg PUBLIC "-//W3C//DTD SVG 20010904//EN"
 "http://www.w3.org/TR/2001/REC-SVG-20010904/DTD/svg10.dtd">
<svg version="1.0" xmlns="http://www.w3.org/2000/svg"
 width="512.000000pt" height="512.000000pt" viewBox="0 0 512.000000 512.000000"
 preserveAspectRatio="xMidYMid meet">

<g transform="translate(0.000000,512.000000) scale(0.100000,-0.100000)"
fill="#FFFFFF" stroke="none">
<path d="M190 3951 c-149 -30 -232 -198 -165 -333 26 -51 2392 -2411 2439
-2433 50 -22 142 -22 192 0 47 22 2413 2382 2439 2433 74 148 -35 331 -199
335 -110 2 -40 65 -1233 -1126 l-1103 -1102 -1102 1102 c-860 858 -1111 1103
-1138 1111 -56 17 -93 20 -130 13z"/>
</g>
</svg>
