<svg id="svg" version="1.1" xmlns="http://www.w3.org/2000/svg" xmlns:xlink="http://www.w3.org/1999/xlink" width="400" height="400" viewBox="0, 0, 400,400"><g id="svgg"><path id="path0" d="M361.200 159.405 C 361.200 160.178,361.042 161.123,360.848 161.505 C 360.655 161.887,360.177 163.190,359.787 164.400 C 357.521 171.425,355.973 173.203,333.832 194.200 C 327.800 199.920,322.851 204.759,322.833 204.953 C 322.815 205.147,322.426 205.630,321.970 206.026 C 321.258 206.643,310.506 216.935,303.192 224.000 C 301.285 225.842,296.039 230.876,283.186 243.200 C 282.153 244.190,279.529 246.699,277.354 248.775 C 275.179 250.852,270.790 255.084,267.600 258.180 C 264.410 261.276,258.605 266.849,254.700 270.563 C 246.725 278.149,247.021 277.653,249.245 279.687 C 250.715 281.030,258.435 288.432,274.806 304.195 C 277.779 307.058,282.549 311.642,285.406 314.382 C 288.263 317.122,292.855 321.532,295.610 324.182 C 298.366 326.832,304.936 333.136,310.210 338.190 C 319.567 347.157,322.047 349.538,333.997 361.027 C 337.186 364.092,341.776 368.499,344.197 370.819 C 346.619 373.139,350.996 377.369,353.925 380.217 C 356.854 383.066,359.509 385.541,359.825 385.718 C 360.141 385.895,360.400 386.211,360.400 386.420 C 360.400 386.659,305.018 386.799,210.700 386.796 L 61.000 386.792 59.000 385.817 C 55.370 384.047,52.899 381.016,52.001 377.230 L 51.487 375.061 55.249 371.430 C 57.318 369.434,63.328 363.663,68.605 358.606 C 73.882 353.550,80.540 347.148,83.400 344.381 C 86.260 341.613,90.575 337.470,92.988 335.174 C 95.402 332.878,99.722 328.723,102.588 325.940 C 105.455 323.158,108.430 320.303,109.200 319.597 C 110.640 318.276,114.957 314.140,124.415 305.021 C 135.904 293.943,147.429 282.890,150.090 280.400 L 152.867 277.800 148.326 273.400 C 143.756 268.973,130.339 256.096,122.238 248.364 C 119.839 246.074,116.854 243.210,115.605 242.000 C 114.355 240.790,109.763 236.380,105.401 232.200 C 101.039 228.020,96.268 223.430,94.799 222.000 C 91.069 218.369,78.896 206.777,77.967 205.972 C 77.545 205.606,77.200 205.210,77.200 205.093 C 77.200 204.623,54.778 183.097,50.600 179.556 C 46.443 176.033,43.130 171.872,41.241 167.800 C 40.730 166.700,40.152 165.487,39.956 165.105 C 39.760 164.723,39.600 163.958,39.600 163.405 C 39.600 162.852,39.420 162.400,39.200 162.400 C 38.980 162.400,38.800 161.579,38.800 160.576 C 38.800 159.463,38.644 158.849,38.400 159.000 C 37.845 159.343,37.845 390.000,38.400 390.000 C 38.620 390.000,38.800 390.540,38.800 391.200 C 38.800 391.860,38.980 392.400,39.200 392.400 C 39.420 392.400,39.600 392.760,39.600 393.200 C 39.600 393.640,39.780 394.000,40.000 394.000 C 40.220 394.000,40.400 394.268,40.400 394.597 C 40.400 395.456,43.102 397.956,45.483 399.300 C 47.331 400.343,353.521 400.196,355.312 399.151 C 357.474 397.890,360.400 394.356,360.400 393.005 C 360.400 392.672,360.580 392.400,360.800 392.400 C 361.020 392.400,361.200 391.860,361.200 391.200 C 361.200 390.540,361.380 390.000,361.600 390.000 C 361.866 390.000,362.000 351.067,362.000 274.000 C 362.000 196.933,361.866 158.000,361.600 158.000 C 361.380 158.000,361.200 158.632,361.200 159.405 M264.146 183.800 C 264.147 186.000,264.214 186.849,264.295 185.687 C 264.376 184.524,264.376 182.724,264.293 181.687 C 264.211 180.649,264.145 181.600,264.146 183.800 M135.744 184.000 C 135.744 186.090,135.812 186.945,135.894 185.900 C 135.976 184.855,135.976 183.145,135.894 182.100 C 135.812 181.055,135.744 181.910,135.744 184.000 M170.700 193.500 C 186.815 193.558,213.185 193.558,229.300 193.500 C 245.415 193.442,232.230 193.395,200.000 193.395 C 167.770 193.395,154.585 193.442,170.700 193.500 M153.800 207.088 C 148.663 207.851,147.190 214.947,151.559 217.886 L 152.918 218.800 200.000 218.800 L 247.082 218.800 248.441 217.886 C 252.025 215.475,252.041 210.410,248.471 207.995 L 247.000 207.000 201.000 206.955 C 175.700 206.930,154.460 206.990,153.800 207.088 " stroke="none" fill="#fcd265" fill-rule="evenodd"></path><path id="path1" d="M117.921 92.005 C 114.481 94.840,114.801 97.586,119.367 104.441 L 122.798 109.592 121.532 111.696 C 120.836 112.853,119.997 114.116,119.669 114.503 C 119.340 114.889,118.875 115.540,118.636 115.948 C 118.396 116.356,117.617 117.660,116.904 118.845 C 114.789 122.361,115.443 125.826,118.613 127.900 C 119.974 128.791,120.137 128.800,134.194 128.800 L 148.400 128.800 148.400 132.938 C 148.400 139.624,150.309 143.753,154.600 146.346 C 158.122 148.474,157.253 148.438,201.000 148.315 L 241.800 148.200 244.079 147.081 C 249.268 144.533,251.303 140.940,251.600 133.800 L 251.800 129.000 266.000 128.800 C 281.790 128.578,281.653 128.601,283.506 125.775 C 285.396 122.891,284.864 121.124,279.816 113.519 L 277.240 109.639 280.820 104.170 C 285.408 97.161,285.617 94.684,281.863 91.821 L 280.524 90.800 264.457 90.800 C 255.620 90.800,248.077 90.959,247.695 91.153 C 247.313 91.348,246.460 91.753,245.800 92.053 C 241.520 94.003,239.462 97.853,239.200 104.400 L 239.000 109.400 200.000 109.400 L 161.000 109.400 160.800 104.400 C 160.536 97.797,158.534 94.061,154.184 92.053 C 153.533 91.753,152.687 91.348,152.305 91.153 C 151.923 90.959,144.359 90.800,135.497 90.800 L 119.382 90.800 117.921 92.005 M57.854 122.655 C 57.223 123.197,56.781 123.715,56.871 123.804 C 56.961 123.894,57.551 123.524,58.182 122.982 C 58.813 122.440,59.255 121.922,59.165 121.832 C 59.074 121.742,58.484 122.112,57.854 122.655 " stroke="none" fill="#ee7176" fill-rule="evenodd"></path><path id="path2" d="M81.400 38.400 C 81.264 38.620,80.895 38.800,80.581 38.800 C 79.784 38.800,78.448 39.988,77.748 41.319 C 77.233 42.299,77.195 52.556,77.444 123.630 L 77.729 204.821 86.310 213.111 C 91.029 217.670,95.455 221.926,96.145 222.568 C 96.835 223.211,101.626 227.801,106.791 232.768 C 111.956 237.736,118.166 243.702,120.591 246.027 C 124.983 250.238,131.797 256.779,140.187 264.840 C 149.666 273.948,152.494 276.605,152.847 276.736 C 153.355 276.924,154.876 275.552,165.400 265.418 C 180.527 250.852,181.823 249.760,186.517 247.621 C 193.760 244.322,204.128 243.794,210.600 246.396 C 217.531 249.181,219.349 250.589,232.800 263.590 C 244.937 275.322,246.506 276.775,247.055 276.788 C 247.305 276.795,250.635 273.779,254.455 270.087 C 258.275 266.394,266.170 258.798,272.000 253.206 C 277.830 247.615,284.310 241.387,286.400 239.367 C 293.837 232.179,294.672 231.378,312.166 214.655 C 313.285 213.586,316.044 210.904,318.297 208.696 L 322.394 204.681 322.598 155.041 C 322.710 127.738,322.889 91.135,322.996 73.700 C 323.123 52.955,323.054 42.000,322.795 42.000 C 322.578 42.000,322.400 41.724,322.400 41.387 C 322.400 41.051,322.131 40.672,321.802 40.546 C 321.474 40.419,321.286 40.184,321.386 40.022 C 321.486 39.860,320.708 39.339,319.656 38.864 C 317.521 37.899,253.200 37.450,253.200 38.400 C 253.200 38.665,235.200 38.800,200.000 38.800 C 164.800 38.800,146.800 38.665,146.800 38.400 C 146.800 37.847,81.742 37.847,81.400 38.400 M154.086 91.722 C 158.999 94.135,161.200 98.234,161.200 104.972 C 161.200 108.380,161.312 109.157,161.833 109.357 C 162.660 109.675,237.340 109.675,238.167 109.357 C 238.684 109.159,238.800 108.403,238.800 105.230 C 238.800 98.385,240.959 94.256,245.824 91.800 L 248.200 90.600 263.903 90.483 C 281.414 90.352,281.406 90.351,283.486 93.078 C 285.643 95.906,285.159 98.117,281.030 104.287 L 277.492 109.575 280.773 114.582 C 285.420 121.677,285.748 123.591,282.867 126.811 C 280.828 129.091,280.161 129.180,264.900 129.190 L 251.600 129.200 251.600 133.843 C 251.600 140.687,249.536 144.497,244.318 147.283 L 242.600 148.200 200.000 148.200 L 157.400 148.200 155.682 147.283 C 150.471 144.500,148.400 140.685,148.400 133.866 L 148.400 129.246 134.100 129.123 C 118.131 128.986,118.584 129.067,116.360 125.944 C 114.339 123.105,114.978 120.904,119.924 113.680 C 121.324 111.634,122.373 109.707,122.254 109.397 C 122.135 109.086,120.563 106.632,118.762 103.943 C 114.537 97.637,114.294 94.209,117.894 91.689 C 119.687 90.433,119.547 90.442,136.000 90.523 L 151.800 90.600 154.086 91.722 M260.073 174.469 C 266.060 176.263,266.817 190.213,261.075 192.937 C 259.448 193.710,141.455 193.981,139.446 193.218 C 133.439 190.934,133.626 176.445,139.687 174.502 C 141.658 173.871,257.969 173.839,260.073 174.469 M248.671 207.437 C 252.336 210.153,252.652 215.620,249.276 217.910 C 246.719 219.643,247.987 219.600,199.977 219.600 L 153.991 219.600 152.183 218.750 C 147.122 216.371,147.132 209.682,152.201 207.027 C 154.361 205.896,247.123 206.290,248.671 207.437 " stroke="none" fill="#fcf3d2" fill-rule="evenodd"></path><path id="path3" d="M146.800 38.500 C 146.800 38.665,170.740 38.800,200.000 38.800 C 229.260 38.800,253.200 38.665,253.200 38.500 C 253.200 38.335,229.260 38.200,200.000 38.200 C 170.740 38.200,146.800 38.335,146.800 38.500 M77.298 155.353 C 77.202 204.162,77.218 205.321,77.967 205.972 C 78.896 206.777,91.069 218.369,94.799 222.000 C 96.268 223.430,101.039 228.020,105.401 232.200 C 109.763 236.380,114.355 240.790,115.605 242.000 C 116.854 243.210,119.839 246.074,122.238 248.364 C 130.339 256.096,143.756 268.973,148.326 273.400 L 152.867 277.800 150.090 280.400 C 147.429 282.890,135.904 293.943,124.415 305.021 C 114.957 314.140,110.640 318.276,109.200 319.597 C 108.430 320.303,105.455 323.158,102.588 325.940 C 99.722 328.723,95.402 332.878,92.988 335.174 C 90.575 337.470,86.260 341.613,83.400 344.381 C 80.540 347.148,73.882 353.550,68.605 358.606 C 63.328 363.663,57.318 369.434,55.249 371.430 L 51.487 375.061 52.001 377.230 C 52.899 381.016,55.370 384.047,59.000 385.817 L 61.000 386.792 210.700 386.796 C 305.018 386.799,360.400 386.659,360.400 386.420 C 360.400 386.211,360.141 385.895,359.825 385.718 C 359.509 385.541,356.854 383.066,353.925 380.217 C 350.996 377.369,346.619 373.139,344.197 370.819 C 341.776 368.499,337.186 364.092,333.997 361.027 C 322.047 349.538,319.567 347.157,310.210 338.190 C 304.936 333.136,298.366 326.832,295.610 324.182 C 292.855 321.532,288.263 317.122,285.406 314.382 C 282.549 311.642,277.779 307.058,274.806 304.195 C 258.435 288.432,250.715 281.030,249.245 279.687 C 247.021 277.653,246.725 278.149,254.700 270.563 C 258.605 266.849,264.410 261.276,267.600 258.180 C 270.790 255.084,275.179 250.852,277.354 248.775 C 279.529 246.699,282.153 244.190,283.186 243.200 C 296.039 230.876,301.285 225.842,303.192 224.000 C 310.506 216.935,321.258 206.643,321.970 206.026 L 322.800 205.306 322.702 155.553 L 322.603 105.800 322.500 155.239 L 322.397 204.678 318.298 208.695 C 316.044 210.904,313.285 213.586,312.166 214.655 C 294.672 231.378,293.837 232.179,286.400 239.367 C 284.310 241.387,277.830 247.615,272.000 253.206 C 266.170 258.798,258.275 266.394,254.455 270.087 C 250.635 273.779,247.305 276.795,247.055 276.788 C 246.506 276.775,244.937 275.322,232.800 263.590 C 219.349 250.589,217.531 249.181,210.600 246.396 C 204.128 243.794,193.760 244.322,186.517 247.621 C 181.823 249.760,180.527 250.852,165.400 265.418 C 154.876 275.552,153.355 276.924,152.847 276.736 C 152.494 276.605,149.666 273.948,140.187 264.840 C 131.797 256.779,124.983 250.238,120.591 246.027 C 118.166 243.702,111.956 237.736,106.791 232.768 C 101.626 227.801,96.835 223.211,96.145 222.568 C 95.455 221.926,91.001 217.642,86.247 213.050 L 77.603 204.700 77.500 155.050 L 77.397 105.400 77.298 155.353 M127.674 129.099 C 131.345 129.165,137.465 129.165,141.274 129.099 C 145.083 129.034,142.080 128.980,134.600 128.980 C 127.120 128.979,124.003 129.033,127.674 129.099 M258.474 129.099 C 262.145 129.165,268.265 129.165,272.074 129.099 C 275.883 129.034,272.880 128.980,265.400 128.980 C 257.920 128.979,254.803 129.033,258.474 129.099 M170.300 174.300 C 186.635 174.358,213.365 174.358,229.700 174.300 C 246.035 174.242,232.670 174.195,200.000 174.195 C 167.330 174.195,153.965 174.242,170.300 174.300 M139.200 174.682 C 138.343 174.996,136.795 176.462,136.331 177.400 C 136.113 177.840,136.418 177.608,137.009 176.884 C 137.599 176.161,138.649 175.320,139.341 175.017 C 140.549 174.487,140.440 174.229,139.200 174.682 M260.659 174.988 C 261.351 175.308,262.401 176.161,262.991 176.884 C 263.582 177.608,263.887 177.840,263.669 177.400 C 263.088 176.226,261.544 174.927,260.400 174.650 C 259.644 174.467,259.707 174.550,260.659 174.988 M135.450 179.650 C 135.123 181.285,135.179 187.606,135.528 188.484 C 135.678 188.859,135.800 186.744,135.800 183.783 C 135.800 177.837,135.804 177.881,135.450 179.650 M264.200 183.676 C 264.200 187.410,264.039 189.283,263.660 189.948 C 263.363 190.470,263.311 190.778,263.545 190.634 C 264.617 189.972,265.252 182.087,264.460 179.276 C 264.317 178.768,264.200 180.748,264.200 183.676 M261.837 192.018 C 261.417 192.441,260.463 192.902,259.718 193.042 C 258.973 193.182,258.448 193.382,258.553 193.486 C 258.948 193.881,261.062 193.139,262.208 192.203 C 262.864 191.667,263.220 191.233,263.000 191.238 C 262.780 191.243,262.256 191.594,261.837 192.018 M138.286 192.605 C 138.761 192.938,139.746 193.297,140.475 193.404 L 141.800 193.597 140.400 193.167 C 139.630 192.931,138.829 192.571,138.620 192.369 C 138.411 192.166,138.056 192.000,137.831 192.000 C 137.606 192.000,137.811 192.272,138.286 192.605 M152.201 207.027 C 147.132 209.682,147.122 216.371,152.183 218.750 L 153.991 219.600 199.977 219.600 C 247.987 219.600,246.719 219.643,249.276 217.910 C 252.652 215.620,252.336 210.153,248.671 207.437 C 247.123 206.290,154.361 205.896,152.201 207.027 M248.471 207.995 C 252.041 210.410,252.025 215.475,248.441 217.886 L 247.082 218.800 200.000 218.800 L 152.918 218.800 151.559 217.886 C 148.133 215.581,148.001 210.759,151.295 208.257 C 153.157 206.844,150.778 206.906,201.000 206.955 L 247.000 207.000 248.471 207.995 " stroke="none" fill="#fce47c" fill-rule="evenodd"></path><path id="path4" d="M191.800 0.254 C 191.140 0.350,190.240 0.578,189.800 0.761 C 187.223 1.831,186.540 2.121,186.000 2.376 C 184.874 2.906,181.800 4.600,181.600 4.800 C 181.490 4.910,180.590 5.623,179.600 6.385 C 178.610 7.147,177.733 7.932,177.652 8.130 C 177.570 8.327,177.046 8.874,176.487 9.345 C 171.742 13.338,166.120 18.660,160.115 24.842 C 158.748 26.249,156.588 28.351,155.315 29.514 C 154.042 30.677,151.494 33.049,149.653 34.787 L 146.307 37.946 147.653 38.188 C 149.473 38.515,253.064 38.270,253.396 37.938 C 253.628 37.705,249.897 33.899,247.200 31.617 C 244.465 29.303,242.252 27.305,241.469 26.443 C 239.605 24.389,231.564 16.467,228.840 14.000 C 227.261 12.570,224.717 10.185,223.187 8.700 C 221.657 7.215,220.224 6.000,220.003 6.000 C 219.781 6.000,219.600 5.820,219.600 5.600 C 219.600 5.380,219.330 5.200,219.000 5.200 C 218.670 5.200,218.400 5.020,218.400 4.800 C 218.400 4.580,218.130 4.400,217.800 4.400 C 217.470 4.400,217.200 4.254,217.200 4.075 C 217.200 3.896,216.570 3.502,215.800 3.200 C 215.030 2.898,214.400 2.504,214.400 2.325 C 214.400 2.146,213.860 2.000,213.200 2.000 C 212.540 2.000,212.000 1.864,212.000 1.698 C 212.000 0.579,196.969 -0.495,191.800 0.254 M127.874 90.699 C 131.655 90.765,137.955 90.765,141.874 90.699 C 145.793 90.634,142.700 90.580,135.000 90.580 C 127.300 90.580,124.093 90.634,127.874 90.699 M257.874 90.699 C 261.655 90.765,267.955 90.765,271.874 90.699 C 275.793 90.634,272.700 90.580,265.000 90.580 C 257.300 90.580,254.093 90.634,257.874 90.699 M160.864 105.476 C 160.829 107.498,160.935 109.237,161.100 109.339 C 161.265 109.442,161.350 108.328,161.290 106.863 C 161.097 102.223,160.930 101.679,160.864 105.476 M238.797 105.882 C 238.689 107.907,238.743 109.420,238.917 109.245 C 239.092 109.069,239.180 107.412,239.114 105.563 L 238.994 102.200 238.797 105.882 M76.432 105.500 C 76.208 105.885,76.019 106.066,76.012 105.903 C 76.005 105.739,75.534 106.009,74.965 106.503 C 73.237 108.000,62.176 118.698,60.657 120.342 C 58.968 122.168,57.520 123.592,56.314 124.610 C 52.251 128.042,46.895 133.273,45.265 135.400 C 44.254 136.720,43.286 137.860,43.113 137.933 C 42.941 138.007,42.800 138.335,42.800 138.662 C 42.800 138.989,42.521 139.536,42.180 139.877 C 41.840 140.218,41.457 141.015,41.330 141.648 C 41.204 142.282,40.943 142.800,40.750 142.800 C 40.558 142.800,40.400 143.160,40.400 143.600 C 40.400 144.040,40.220 144.400,40.000 144.400 C 39.780 144.400,39.600 144.940,39.600 145.600 C 39.600 146.260,39.420 146.800,39.200 146.800 C 38.980 146.800,38.800 147.599,38.800 148.576 C 38.800 149.553,38.620 150.464,38.400 150.600 C 38.174 150.739,38.000 152.679,38.000 155.047 C 38.000 157.745,38.143 159.159,38.400 159.000 C 38.644 158.849,38.800 159.463,38.800 160.576 C 38.800 161.579,38.980 162.400,39.200 162.400 C 39.420 162.400,39.600 162.852,39.600 163.405 C 39.600 163.958,39.760 164.723,39.956 165.105 C 40.152 165.487,40.730 166.700,41.241 167.800 C 43.130 171.872,46.443 176.033,50.600 179.556 C 53.013 181.601,56.872 185.238,66.953 194.967 C 71.986 199.825,76.351 203.944,76.653 204.120 C 77.115 204.390,77.200 196.668,77.200 154.620 C 77.200 127.219,77.119 104.800,77.020 104.800 C 76.921 104.800,76.656 105.115,76.432 105.500 M323.067 105.067 C 322.736 105.397,322.708 204.400,323.038 204.400 C 323.323 204.400,338.722 189.696,347.932 180.630 C 356.286 172.407,357.933 170.151,359.787 164.400 C 360.177 163.190,360.655 161.887,360.848 161.505 C 361.042 161.123,361.200 160.178,361.200 159.405 C 361.200 158.632,361.356 158.000,361.547 158.000 C 362.057 158.000,362.126 150.925,361.620 150.612 C 361.389 150.469,361.200 149.553,361.200 148.576 C 361.200 147.599,361.020 146.800,360.800 146.800 C 360.580 146.800,360.400 146.260,360.400 145.600 C 360.400 144.940,360.220 144.400,360.000 144.400 C 359.780 144.400,359.600 144.044,359.600 143.609 C 359.600 140.874,347.181 125.600,344.958 125.600 C 344.843 125.600,344.294 125.060,343.739 124.400 C 343.183 123.740,342.487 123.200,342.191 123.200 C 341.896 123.200,341.540 122.840,341.400 122.400 C 341.260 121.960,340.858 121.600,340.506 121.600 C 340.155 121.600,339.975 121.491,340.108 121.359 C 340.358 121.109,336.816 117.545,328.424 109.600 C 325.751 107.070,323.512 104.955,323.449 104.900 C 323.385 104.845,323.213 104.920,323.067 105.067 M139.512 175.175 C 136.322 176.769,136.000 177.594,136.000 184.174 L 136.000 189.600 137.537 191.138 C 139.716 193.316,136.200 193.200,200.000 193.200 C 263.800 193.200,260.284 193.316,262.463 191.138 L 264.000 189.600 264.000 184.174 C 264.000 177.548,263.366 176.088,259.972 174.900 C 257.288 173.961,141.413 174.226,139.512 175.175 " stroke="none" fill="#fcac5c" fill-rule="evenodd"></path></g></svg>