<svg id="svg" version="1.1" xmlns="http://www.w3.org/2000/svg" xmlns:xlink="http://www.w3.org/1999/xlink" width="400" height="400" viewBox="0, 0, 400,400"><g id="svgg"><path id="path0" d="M195.400 86.638 C 193.860 87.855,192.150 89.247,191.600 89.732 C 191.050 90.218,189.970 91.053,189.200 91.588 C 188.430 92.123,187.710 92.670,187.600 92.803 C 187.490 92.936,184.970 94.988,182.000 97.363 C 179.030 99.739,176.239 101.979,175.799 102.341 C 175.358 102.704,174.189 103.630,173.200 104.400 C 171.348 105.843,170.453 106.562,169.220 107.600 C 168.827 107.930,167.919 108.650,167.200 109.200 C 166.481 109.750,165.512 110.535,165.047 110.945 C 164.581 111.355,163.574 112.165,162.808 112.745 C 162.042 113.325,161.052 114.100,160.608 114.466 C 160.164 114.832,153.140 120.464,145.000 126.981 C 136.860 133.498,129.930 139.051,129.600 139.321 C 129.270 139.590,128.194 140.439,127.210 141.206 C 126.225 141.972,125.175 142.828,124.875 143.106 C 124.576 143.384,123.674 144.104,122.871 144.706 C 122.068 145.308,120.959 146.186,120.406 146.657 C 119.548 147.388,93.904 167.874,89.432 171.400 C 88.595 172.060,87.525 172.935,87.055 173.345 C 86.585 173.755,85.570 174.565,84.800 175.145 C 84.030 175.725,83.204 176.380,82.963 176.600 C 82.723 176.820,81.930 177.450,81.200 178.000 C 80.470 178.550,79.677 179.183,79.437 179.406 C 79.196 179.629,78.190 180.434,77.200 181.195 C 76.210 181.957,75.310 182.676,75.200 182.795 C 75.090 182.913,70.275 186.782,64.500 191.392 C 58.725 196.002,54.000 199.884,54.000 200.019 C 54.000 200.154,55.935 201.812,58.300 203.703 C 60.665 205.594,63.121 207.560,63.758 208.071 C 74.823 216.946,80.127 221.183,81.197 222.000 C 81.917 222.550,82.827 223.270,83.220 223.600 C 84.699 224.845,85.451 225.451,87.200 226.806 C 88.190 227.572,89.090 228.295,89.200 228.410 C 89.310 228.526,90.210 229.241,91.200 230.000 C 92.190 230.759,93.090 231.480,93.200 231.603 C 93.310 231.726,96.100 233.968,99.400 236.586 C 102.700 239.204,105.490 241.448,105.600 241.573 C 105.710 241.698,106.610 242.428,107.600 243.194 C 108.590 243.961,109.670 244.807,110.000 245.072 C 111.844 246.558,123.669 255.985,124.962 257.000 C 125.802 257.660,126.806 258.470,127.192 258.800 C 127.578 259.130,128.481 259.850,129.200 260.400 C 129.919 260.950,130.819 261.670,131.200 262.000 C 131.581 262.330,132.485 263.050,133.209 263.600 C 133.932 264.150,135.711 265.568,137.162 266.750 C 140.347 269.347,141.588 270.346,146.000 273.870 C 147.870 275.364,149.670 276.805,150.000 277.073 C 150.330 277.341,154.110 280.366,158.400 283.795 C 162.690 287.224,166.470 290.250,166.800 290.520 C 167.130 290.790,168.206 291.639,169.190 292.406 C 170.175 293.172,171.224 294.026,171.521 294.303 C 171.819 294.579,173.624 296.014,175.531 297.492 C 177.439 298.969,179.090 300.274,179.200 300.392 C 179.310 300.509,181.200 302.033,183.400 303.779 C 185.600 305.524,187.490 307.054,187.600 307.178 C 187.710 307.303,188.459 307.896,189.265 308.496 C 190.071 309.097,190.971 309.816,191.265 310.094 C 191.559 310.372,192.459 311.092,193.265 311.694 C 194.071 312.296,194.971 313.026,195.265 313.316 C 195.559 313.607,196.517 314.329,197.393 314.922 L 198.986 316.000 207.850 316.000 C 215.564 316.000,216.746 315.918,216.957 315.367 C 217.091 315.019,217.200 303.951,217.200 290.771 L 217.200 266.807 196.500 266.704 L 175.800 266.600 175.800 249.800 L 175.800 233.000 271.102 232.899 L 366.405 232.798 366.302 200.099 L 366.200 167.400 271.000 167.200 L 175.800 167.000 175.800 150.200 L 175.800 133.400 196.503 133.296 L 217.206 133.193 217.103 108.896 L 217.000 84.600 207.600 84.513 L 198.200 84.425 195.400 86.638 " stroke="none" fill="#cbe3fc" fill-rule="evenodd"></path><path id="path1" d="M185.800 50.084 C 185.360 50.336,184.523 51.051,183.940 51.672 C 183.356 52.292,182.773 52.800,182.644 52.800 C 182.369 52.800,181.089 53.824,179.768 55.100 C 179.256 55.595,178.724 56.000,178.587 56.000 C 178.450 56.000,177.646 56.720,176.800 57.600 C 175.954 58.480,175.061 59.200,174.814 59.200 C 174.360 59.200,173.868 59.551,172.281 61.009 C 171.796 61.453,170.770 62.255,170.000 62.790 C 169.230 63.325,168.330 64.049,168.000 64.400 C 167.670 64.751,166.770 65.475,166.000 66.010 C 165.230 66.545,164.200 67.378,163.711 67.862 C 163.222 68.346,162.277 69.064,161.610 69.458 C 160.944 69.851,160.300 70.485,160.179 70.866 C 160.058 71.247,159.599 71.673,159.160 71.813 C 158.720 71.952,157.745 72.682,156.993 73.433 C 156.242 74.185,155.441 74.800,155.213 74.800 C 154.986 74.800,154.800 74.980,154.800 75.200 C 154.800 75.420,154.596 75.600,154.347 75.600 C 154.098 75.600,153.603 75.924,153.247 76.321 C 152.891 76.717,151.908 77.462,151.062 77.977 C 150.216 78.491,149.135 79.292,148.659 79.756 C 148.184 80.220,147.117 81.107,146.288 81.727 C 145.460 82.347,144.344 83.292,143.809 83.827 C 143.274 84.362,142.720 84.800,142.579 84.800 C 142.437 84.800,141.817 85.340,141.200 86.000 C 140.583 86.660,139.903 87.200,139.688 87.200 C 139.473 87.200,138.555 87.920,137.648 88.800 C 136.741 89.680,135.841 90.400,135.648 90.400 C 135.455 90.400,134.565 91.110,133.670 91.979 C 132.775 92.847,131.539 93.827,130.922 94.156 C 130.305 94.485,129.225 95.305,128.522 95.977 C 127.819 96.650,127.138 97.200,127.008 97.200 C 126.879 97.200,126.143 97.830,125.373 98.600 C 124.603 99.370,123.805 100.000,123.600 100.000 C 123.395 100.000,122.597 100.630,121.827 101.400 C 121.057 102.170,120.262 102.800,120.062 102.800 C 119.861 102.800,118.955 103.520,118.048 104.400 C 117.141 105.280,116.219 106.000,116.000 106.000 C 115.780 106.000,115.600 106.180,115.600 106.400 C 115.600 106.620,115.402 106.800,115.160 106.800 C 114.919 106.800,114.217 107.340,113.600 108.000 C 112.983 108.660,112.364 109.200,112.223 109.200 C 111.952 109.200,111.552 109.514,109.549 111.300 C 108.871 111.905,108.169 112.400,107.990 112.400 C 107.812 112.400,106.916 113.120,106.000 114.000 C 105.084 114.880,104.188 115.600,104.009 115.600 C 103.830 115.600,102.826 116.410,101.778 117.400 C 100.730 118.390,99.704 119.200,99.497 119.200 C 99.290 119.200,98.617 119.740,98.000 120.400 C 97.383 121.060,96.681 121.600,96.440 121.600 C 96.198 121.600,96.000 121.750,96.000 121.932 C 96.000 122.115,95.553 122.504,95.007 122.796 C 94.460 123.089,93.908 123.659,93.780 124.064 C 93.651 124.469,93.270 124.800,92.934 124.800 C 92.597 124.800,91.842 125.313,91.255 125.941 C 90.669 126.568,89.652 127.363,88.995 127.708 C 88.338 128.053,87.102 128.979,86.250 129.767 C 85.397 130.555,84.548 131.200,84.363 131.200 C 84.178 131.200,83.436 131.788,82.713 132.507 C 81.991 133.225,80.772 134.258,80.004 134.802 C 78.491 135.874,77.093 137.070,74.980 139.100 C 74.236 139.815,73.462 140.400,73.262 140.400 C 73.061 140.400,72.173 141.102,71.289 141.960 C 70.405 142.818,69.348 143.628,68.941 143.759 C 68.533 143.890,67.660 144.499,67.000 145.112 C 66.340 145.724,65.172 146.668,64.404 147.208 C 62.897 148.270,61.506 149.457,59.380 151.500 C 58.636 152.215,57.862 152.800,57.662 152.800 C 57.461 152.800,56.555 153.520,55.648 154.400 C 54.741 155.280,53.841 156.000,53.648 156.000 C 53.455 156.000,52.555 156.720,51.648 157.600 C 50.741 158.480,49.854 159.200,49.676 159.200 C 49.327 159.200,45.807 162.028,43.711 163.992 C 43.003 164.657,42.259 165.200,42.060 165.200 C 41.860 165.200,40.955 165.920,40.048 166.800 C 39.141 167.680,38.241 168.400,38.048 168.400 C 37.855 168.400,36.955 169.120,36.048 170.000 C 35.141 170.880,34.241 171.600,34.048 171.600 C 33.855 171.600,32.955 172.320,32.048 173.200 C 31.141 174.080,30.311 174.800,30.204 174.800 C 29.995 174.800,28.944 175.646,27.347 177.100 C 26.804 177.595,26.233 178.000,26.079 178.000 C 25.925 178.000,25.012 178.720,24.049 179.600 C 23.087 180.480,22.148 181.200,21.963 181.200 C 21.778 181.200,20.997 181.830,20.227 182.600 C 19.457 183.370,18.662 184.000,18.462 184.000 C 18.261 184.000,17.355 184.720,16.448 185.600 C 15.541 186.480,14.619 187.200,14.400 187.200 C 14.180 187.200,14.000 187.380,14.000 187.600 C 14.000 187.820,13.802 188.000,13.560 188.000 C 13.319 188.000,12.617 188.540,12.000 189.200 C 11.383 189.860,10.757 190.400,10.608 190.400 C 10.459 190.400,9.646 191.120,8.800 192.000 C 7.954 192.880,7.024 193.600,6.731 193.600 C 6.439 193.600,5.412 194.320,4.449 195.200 C 3.487 196.080,2.585 196.800,2.445 196.800 C 1.648 196.800,0.000 198.955,0.000 199.998 C 0.000 201.104,1.562 203.200,2.386 203.200 C 2.578 203.200,3.484 203.920,4.400 204.800 C 5.316 205.680,6.212 206.400,6.390 206.400 C 6.569 206.400,7.271 206.895,7.949 207.500 C 9.952 209.286,10.352 209.600,10.623 209.600 C 10.764 209.600,11.383 210.140,12.000 210.800 C 12.617 211.460,13.319 212.000,13.560 212.000 C 13.802 212.000,14.000 212.180,14.000 212.400 C 14.000 212.620,14.180 212.800,14.400 212.800 C 14.619 212.800,15.541 213.520,16.448 214.400 C 17.355 215.280,18.261 216.000,18.462 216.000 C 18.662 216.000,19.457 216.630,20.227 217.400 C 20.997 218.170,21.786 218.800,21.981 218.800 C 22.175 218.800,23.084 219.520,24.000 220.400 C 24.916 221.280,25.793 222.000,25.949 222.000 C 26.105 222.000,27.028 222.720,28.000 223.600 C 28.972 224.480,29.910 225.200,30.084 225.200 C 30.257 225.200,31.141 225.920,32.048 226.800 C 32.955 227.680,33.855 228.400,34.048 228.400 C 34.241 228.400,35.141 229.120,36.048 230.000 C 36.955 230.880,37.855 231.600,38.048 231.600 C 38.241 231.600,39.141 232.320,40.048 233.200 C 40.955 234.080,41.858 234.800,42.055 234.800 C 42.253 234.800,43.005 235.385,43.727 236.100 C 45.324 237.682,48.078 239.919,49.758 240.998 C 50.441 241.437,51.522 242.292,52.159 242.898 C 52.797 243.504,53.472 244.000,53.659 244.000 C 53.846 244.000,54.741 244.720,55.648 245.600 C 56.555 246.480,57.461 247.200,57.662 247.200 C 57.862 247.200,58.636 247.785,59.380 248.500 C 61.519 250.555,62.902 251.734,64.404 252.786 C 65.172 253.323,66.070 254.049,66.400 254.400 C 66.730 254.751,67.630 255.475,68.400 256.010 C 69.170 256.545,70.196 257.347,70.681 257.791 C 72.268 259.249,72.760 259.600,73.214 259.600 C 73.461 259.600,74.354 260.320,75.200 261.200 C 76.046 262.080,76.850 262.800,76.987 262.800 C 77.124 262.800,77.656 263.205,78.168 263.700 C 79.444 264.933,80.766 266.000,81.018 266.000 C 81.133 266.000,81.857 266.630,82.627 267.400 C 83.397 268.170,84.178 268.800,84.363 268.800 C 84.548 268.800,85.487 269.520,86.449 270.400 C 87.412 271.280,88.312 272.000,88.449 272.000 C 88.587 272.000,89.487 272.720,90.449 273.600 C 91.412 274.480,92.503 275.200,92.873 275.200 C 93.243 275.200,93.651 275.531,93.780 275.936 C 93.908 276.341,94.460 276.911,95.007 277.204 C 95.553 277.496,96.000 277.885,96.000 278.068 C 96.000 278.250,96.198 278.400,96.440 278.400 C 96.681 278.400,97.383 278.940,98.000 279.600 C 98.617 280.260,99.319 280.800,99.560 280.800 C 99.802 280.800,100.000 280.980,100.000 281.200 C 100.000 281.420,100.180 281.600,100.400 281.600 C 100.619 281.600,101.541 282.320,102.448 283.200 C 103.355 284.080,104.261 284.800,104.462 284.800 C 104.662 284.800,105.457 285.430,106.227 286.200 C 106.997 286.970,107.792 287.600,107.995 287.600 C 108.198 287.600,108.777 288.009,109.282 288.510 C 109.787 289.010,110.920 289.953,111.800 290.605 C 112.680 291.258,113.691 292.108,114.047 292.496 C 114.403 292.883,114.898 293.200,115.147 293.200 C 115.396 293.200,115.600 293.380,115.600 293.600 C 115.600 293.820,115.780 294.000,116.000 294.000 C 116.219 294.000,117.141 294.720,118.048 295.600 C 118.955 296.480,119.873 297.200,120.088 297.200 C 120.303 297.200,120.983 297.740,121.600 298.400 C 122.217 299.060,122.919 299.600,123.160 299.600 C 123.402 299.600,123.600 299.780,123.600 300.000 C 123.600 300.220,123.798 300.400,124.040 300.400 C 124.281 300.400,124.983 300.940,125.600 301.600 C 126.217 302.260,126.837 302.800,126.978 302.800 C 127.119 302.800,127.943 303.455,128.809 304.256 C 129.675 305.057,130.792 305.996,131.291 306.342 C 131.791 306.689,132.560 307.309,133.000 307.720 C 133.440 308.131,134.338 308.749,134.995 309.093 C 135.652 309.437,136.669 310.232,137.255 310.859 C 137.842 311.487,138.519 312.000,138.760 312.000 C 139.002 312.000,139.200 312.180,139.200 312.400 C 139.200 312.620,139.386 312.800,139.613 312.800 C 139.841 312.800,140.627 313.385,141.360 314.100 C 142.781 315.485,143.182 315.822,146.000 318.006 C 146.989 318.772,148.069 319.679,148.400 320.019 C 148.730 320.359,149.630 321.077,150.400 321.615 C 151.170 322.152,152.316 323.083,152.947 323.683 C 153.577 324.284,154.469 324.895,154.929 325.041 C 155.389 325.187,156.434 326.002,157.251 326.853 C 158.068 327.704,159.009 328.400,159.342 328.400 C 159.674 328.400,160.048 328.721,160.173 329.113 C 160.297 329.506,160.949 330.152,161.622 330.549 C 162.295 330.947,163.459 331.886,164.209 332.636 C 164.960 333.386,165.731 334.000,165.923 334.000 C 166.115 334.000,167.130 334.810,168.178 335.800 C 169.226 336.790,170.222 337.600,170.392 337.600 C 170.561 337.600,171.397 338.245,172.250 339.033 C 173.102 339.821,174.338 340.747,174.995 341.092 C 175.652 341.437,176.669 342.232,177.255 342.859 C 177.842 343.487,178.447 344.000,178.600 344.000 C 178.753 344.000,179.383 344.540,180.000 345.200 C 180.617 345.860,181.319 346.400,181.560 346.400 C 181.802 346.400,182.000 346.580,182.000 346.800 C 182.000 347.020,182.180 347.200,182.400 347.200 C 182.619 347.200,183.541 347.920,184.448 348.800 L 186.096 350.400 218.648 350.400 L 251.200 350.400 251.200 308.600 L 251.200 266.800 325.600 266.800 L 400.000 266.800 400.000 200.000 L 400.000 133.200 325.600 133.200 L 251.200 133.200 251.200 91.400 L 251.200 49.600 218.900 49.612 C 195.331 49.621,186.384 49.749,185.800 50.084 M217.226 83.614 C 218.183 84.126,218.468 132.572,217.520 133.520 C 217.159 133.881,211.990 134.000,196.715 134.000 L 176.391 134.000 176.495 150.100 L 176.600 166.200 271.800 166.400 L 367.000 166.600 367.000 200.000 L 367.000 233.400 271.800 233.600 L 176.600 233.800 176.495 249.900 L 176.391 266.000 196.422 266.000 C 209.465 266.000,216.723 266.144,217.226 266.414 C 218.183 266.926,218.468 315.372,217.520 316.320 C 217.174 316.666,214.450 316.800,207.786 316.800 L 198.531 316.800 196.150 314.900 C 194.840 313.855,193.080 312.460,192.239 311.800 C 191.398 311.140,190.394 310.330,190.008 310.000 C 189.622 309.670,188.714 308.950,187.990 308.400 C 187.266 307.850,186.473 307.204,186.229 306.964 C 185.984 306.724,184.869 305.824,183.751 304.964 C 181.037 302.877,167.916 292.354,167.363 291.821 C 167.123 291.589,166.331 290.950,165.603 290.400 C 164.874 289.850,161.915 287.510,159.027 285.200 C 156.138 282.890,153.085 280.460,152.242 279.800 C 151.399 279.140,150.394 278.330,150.008 278.000 C 149.622 277.670,148.719 276.950,148.000 276.400 C 147.281 275.850,146.312 275.065,145.847 274.655 C 145.381 274.245,144.374 273.435,143.608 272.855 C 142.842 272.275,141.852 271.504,141.408 271.141 C 140.964 270.779,138.170 268.539,135.200 266.163 C 132.230 263.788,129.710 261.744,129.600 261.622 C 129.490 261.500,128.590 260.772,127.600 260.006 C 126.610 259.239,125.530 258.395,125.200 258.130 C 111.369 247.041,107.087 243.620,106.008 242.800 C 105.285 242.250,104.381 241.530,104.000 241.200 C 103.619 240.870,102.719 240.150,102.000 239.600 C 101.281 239.050,100.312 238.265,99.847 237.855 C 99.381 237.445,98.370 236.636,97.600 236.057 C 96.830 235.478,96.110 234.913,96.000 234.801 C 95.890 234.688,94.450 233.527,92.800 232.219 C 91.150 230.911,89.710 229.742,89.600 229.621 C 89.490 229.499,88.590 228.772,87.600 228.006 C 86.610 227.239,85.530 226.393,85.200 226.128 C 84.870 225.862,81.630 223.276,78.000 220.382 C 74.370 217.488,70.605 214.463,69.633 213.660 C 68.662 212.857,67.042 211.570,66.034 210.800 C 65.027 210.030,63.961 209.172,63.666 208.894 C 63.372 208.616,62.471 207.896,61.666 207.294 C 60.860 206.692,59.841 205.871,59.400 205.470 C 58.960 205.068,57.385 203.810,55.900 202.674 C 52.585 200.137,52.583 199.892,55.858 197.400 C 57.304 196.300,58.692 195.213,58.943 194.984 C 59.194 194.755,62.730 191.902,66.800 188.645 C 70.870 185.388,74.561 182.425,75.001 182.061 C 75.442 181.698,76.611 180.770,77.600 180.000 C 79.452 178.557,80.347 177.838,81.580 176.800 C 81.973 176.470,82.881 175.750,83.600 175.200 C 84.319 174.650,85.288 173.865,85.753 173.455 C 86.219 173.045,87.230 172.236,88.000 171.657 C 88.770 171.078,89.490 170.509,89.600 170.392 C 89.710 170.275,90.609 169.554,91.599 168.790 C 92.588 168.025,93.758 167.099,94.199 166.732 C 95.646 165.526,120.259 145.824,121.599 144.800 C 122.318 144.250,123.227 143.530,123.620 143.200 C 125.037 142.007,125.831 141.365,127.581 139.994 C 128.560 139.228,129.820 138.212,130.381 137.738 C 130.941 137.264,134.280 134.602,137.800 131.823 C 141.320 129.044,144.830 126.245,145.600 125.604 C 146.370 124.962,149.070 122.796,151.600 120.791 C 154.130 118.785,156.561 116.842,157.001 116.472 C 157.442 116.102,158.612 115.175,159.601 114.410 C 160.591 113.646,161.490 112.923,161.600 112.804 C 161.880 112.500,164.006 110.790,165.582 109.600 C 166.311 109.050,167.288 108.265,167.753 107.855 C 168.219 107.445,169.226 106.635,169.992 106.055 C 170.758 105.475,171.748 104.704,172.192 104.343 C 172.636 103.981,173.990 102.894,175.200 101.927 C 176.410 100.960,181.982 96.486,187.582 91.984 C 193.182 87.483,198.042 83.678,198.382 83.528 C 199.407 83.077,216.368 83.154,217.226 83.614 " stroke="none" fill="#047cfc" fill-rule="evenodd"></path><path id="path2" d="M203.123 83.899 C 205.831 83.968,210.151 83.968,212.723 83.899 C 215.295 83.829,213.080 83.772,207.800 83.773 C 202.520 83.773,200.415 83.830,203.123 83.899 M217.388 108.800 C 217.388 122.330,217.438 127.865,217.500 121.100 C 217.561 114.335,217.561 103.265,217.500 96.500 C 217.438 89.735,217.388 95.270,217.388 108.800 M217.388 291.200 C 217.388 304.730,217.438 310.265,217.500 303.500 C 217.561 296.735,217.561 285.665,217.500 278.900 C 217.438 272.135,217.388 277.670,217.388 291.200 " stroke="none" fill="#64acfc" fill-rule="evenodd"></path><path id="path3" d="M203.323 83.499 C 205.920 83.569,210.060 83.568,212.523 83.498 C 214.985 83.428,212.860 83.371,207.800 83.372 C 202.740 83.372,200.725 83.429,203.323 83.499 M194.310 86.539 C 191.224 89.087,188.372 91.707,190.600 89.947 C 199.321 83.061,198.686 83.590,198.180 83.629 C 197.971 83.645,196.229 84.955,194.310 86.539 M217.400 108.538 L 217.400 133.400 196.800 133.600 L 176.200 133.800 176.200 150.200 L 176.200 166.600 271.500 166.701 L 366.800 166.802 366.800 200.001 L 366.800 233.200 272.033 233.200 C 219.911 233.200,176.981 233.309,176.633 233.443 C 176.070 233.659,176.000 235.496,176.000 250.043 L 176.000 266.400 196.500 266.304 L 217.000 266.207 196.695 266.100 L 176.391 265.993 176.495 249.896 L 176.600 233.800 271.800 233.600 L 367.000 233.400 367.000 200.000 L 367.000 166.600 271.800 166.400 L 176.600 166.200 176.495 150.100 L 176.391 134.000 196.715 134.000 C 211.990 134.000,217.159 133.881,217.520 133.520 C 218.064 132.976,218.241 84.196,217.700 83.862 C 217.535 83.760,217.400 94.864,217.400 108.538 M170.376 105.713 C 168.090 107.498,167.497 108.029,167.639 108.165 C 167.728 108.250,168.610 107.618,169.600 106.761 C 171.270 105.315,171.797 104.603,170.376 105.713 M163.244 111.404 C 162.278 112.172,161.648 112.797,161.844 112.794 C 162.219 112.788,165.545 110.038,165.200 110.019 C 165.090 110.013,164.210 110.636,163.244 111.404 M160.000 114.060 C 159.450 114.518,158.651 115.138,158.224 115.437 C 157.797 115.737,157.528 116.061,157.625 116.158 C 157.722 116.255,158.611 115.634,159.600 114.779 C 161.451 113.180,161.791 112.568,160.000 114.060 M155.600 117.649 C 154.206 118.871,154.205 118.872,155.488 118.019 C 156.196 117.548,156.882 116.991,157.012 116.781 C 157.397 116.157,157.077 116.354,155.600 117.649 M149.600 122.454 L 147.800 124.085 149.494 122.813 C 150.968 121.707,151.914 120.774,151.524 120.812 C 151.456 120.819,150.590 121.558,149.600 122.454 M135.600 133.634 L 133.800 135.265 135.700 133.784 C 137.366 132.486,137.859 131.997,137.500 132.001 C 137.445 132.002,136.590 132.736,135.600 133.634 M131.453 136.814 C 130.382 137.686,129.662 138.395,129.853 138.388 C 130.214 138.376,133.952 135.222,133.600 135.226 C 133.490 135.227,132.524 135.942,131.453 136.814 M127.244 140.204 C 126.278 140.972,125.648 141.593,125.844 141.585 C 126.216 141.569,129.549 138.813,129.200 138.810 C 129.090 138.809,128.210 139.436,127.244 140.204 M113.000 151.632 C 106.091 157.182,101.620 160.971,104.819 158.566 C 107.444 156.592,121.200 145.503,121.200 145.361 C 121.200 145.055,120.966 145.234,113.000 151.632 M87.244 172.204 C 86.278 172.972,85.648 173.593,85.844 173.585 C 86.216 173.569,89.549 170.813,89.200 170.810 C 89.090 170.809,88.210 171.436,87.244 172.204 M77.600 180.049 C 76.206 181.271,76.205 181.272,77.488 180.419 C 78.196 179.948,78.882 179.391,79.012 179.181 C 79.397 178.557,79.077 178.754,77.600 180.049 M72.000 184.431 C 70.350 185.756,68.730 187.130,68.400 187.485 C 67.727 188.207,71.836 185.087,74.000 183.232 C 76.458 181.125,75.108 181.935,72.000 184.431 M63.600 191.254 L 61.800 192.885 63.494 191.613 C 64.968 190.507,65.914 189.574,65.524 189.612 C 65.456 189.619,64.590 190.358,63.600 191.254 M53.246 199.825 C 53.218 200.336,53.695 200.994,54.500 201.554 L 55.800 202.458 54.740 201.482 C 54.156 200.946,53.592 200.168,53.486 199.753 C 53.311 199.071,53.288 199.077,53.246 199.825 M70.013 213.900 C 70.019 214.065,70.514 214.546,71.113 214.968 L 72.200 215.736 71.230 214.668 C 70.211 213.546,69.992 213.407,70.013 213.900 M82.544 223.909 C 82.860 224.421,85.200 226.153,85.200 225.875 C 85.200 225.776,84.539 225.191,83.732 224.575 C 82.924 223.959,82.389 223.659,82.544 223.909 M90.669 230.521 C 94.321 233.495,95.600 234.474,95.600 234.293 C 95.600 234.028,90.119 229.600,89.791 229.600 C 89.652 229.600,90.047 230.014,90.669 230.521 M110.400 246.133 C 110.400 246.243,111.120 246.903,112.000 247.600 C 112.880 248.297,113.600 248.777,113.600 248.667 C 113.600 248.557,112.880 247.897,112.000 247.200 C 111.120 246.503,110.400 246.023,110.400 246.133 M114.400 249.318 C 114.400 249.420,115.247 250.197,116.281 251.045 C 117.316 251.893,118.034 252.378,117.876 252.123 C 117.540 251.579,114.400 249.045,114.400 249.318 M125.633 258.500 C 125.725 258.555,126.340 259.050,127.000 259.600 L 128.200 260.600 127.230 259.500 C 126.697 258.895,126.082 258.400,125.864 258.400 C 125.645 258.400,125.542 258.445,125.633 258.500 M133.870 265.100 C 140.064 270.106,141.600 271.293,141.600 271.076 C 141.600 270.825,130.093 261.600,129.780 261.600 C 129.647 261.600,131.488 263.175,133.870 265.100 M217.512 290.538 C 217.574 303.772,217.525 315.005,217.404 315.500 L 217.185 316.400 207.846 316.400 C 198.996 316.400,198.448 316.356,197.354 315.561 L 196.200 314.722 197.322 315.761 L 198.445 316.800 207.742 316.800 C 214.441 316.800,217.174 316.666,217.520 316.320 C 218.064 315.776,218.241 266.996,217.700 266.662 C 217.535 266.560,217.450 277.304,217.512 290.538 M152.013 279.500 C 152.019 279.665,152.514 280.146,153.113 280.568 L 154.200 281.336 153.230 280.268 C 152.211 279.146,151.992 279.007,152.013 279.500 M167.618 291.911 C 167.629 292.070,168.934 293.216,170.518 294.458 C 172.103 295.699,174.345 297.470,175.500 298.392 C 176.655 299.314,177.600 299.986,177.600 299.885 C 177.600 299.785,175.350 297.885,172.600 295.663 C 169.850 293.441,167.608 291.753,167.618 291.911 M179.600 301.595 C 181.563 303.394,183.600 304.961,183.600 304.672 C 183.600 304.572,182.295 303.467,180.700 302.218 C 178.754 300.693,178.392 300.488,179.600 301.595 M192.033 311.723 C 192.125 311.790,193.010 312.437,194.000 313.161 L 195.800 314.476 194.200 313.044 C 193.320 312.256,192.435 311.609,192.233 311.606 C 192.032 311.603,191.942 311.655,192.033 311.723 " stroke="none" fill="#419dfc" fill-rule="evenodd"></path><path id="path4" d="M196.600 85.444 L 195.000 86.876 196.675 85.624 L 198.351 84.372 207.776 84.486 C 212.959 84.549,217.201 84.465,217.200 84.300 C 217.200 84.135,212.925 84.003,207.700 84.006 L 198.200 84.012 196.600 85.444 M176.785 101.229 L 175.400 102.458 176.900 101.381 C 178.226 100.430,178.657 100.000,178.285 100.000 C 178.222 100.000,177.547 100.553,176.785 101.229 M173.200 104.075 L 171.400 105.685 173.200 104.365 C 174.190 103.639,175.075 102.990,175.167 102.923 C 175.258 102.855,175.258 102.725,175.166 102.633 C 175.074 102.541,174.189 103.190,173.200 104.075 M163.200 112.092 C 162.210 112.978,161.940 113.322,162.600 112.858 C 164.657 111.409,165.348 110.814,165.171 110.645 C 165.077 110.555,164.190 111.206,163.200 112.092 M137.728 132.313 C 135.048 134.451,132.843 136.340,132.828 136.511 C 132.813 136.682,135.050 134.998,137.800 132.769 C 142.147 129.244,143.149 128.354,142.700 128.413 C 142.645 128.421,140.408 130.176,137.728 132.313 M175.783 133.700 C 175.677 133.976,175.638 141.581,175.695 150.600 L 175.800 167.000 271.000 167.200 L 366.200 167.400 366.302 200.099 L 366.405 232.798 271.102 232.899 L 175.800 233.000 175.800 249.800 L 175.800 266.600 196.500 266.605 L 217.200 266.611 196.600 266.502 L 176.000 266.393 176.000 249.797 L 176.000 233.202 271.300 233.101 L 366.600 233.000 366.600 200.000 L 366.600 167.000 271.300 166.899 L 176.000 166.798 176.000 150.203 L 176.000 133.607 196.700 133.500 L 217.400 133.393 196.687 133.296 C 180.406 133.221,175.934 133.307,175.783 133.700 M130.785 138.032 L 129.400 139.263 130.688 138.413 C 131.830 137.659,132.693 136.800,132.308 136.800 C 132.232 136.800,131.547 137.354,130.785 138.032 M127.000 141.052 C 125.386 142.505,126.040 142.191,128.131 140.509 C 128.753 140.009,129.113 139.603,128.931 139.606 C 128.749 139.609,127.880 140.260,127.000 141.052 M123.200 144.070 C 122.210 144.953,121.940 145.301,122.600 144.844 C 124.610 143.451,125.350 142.816,125.170 142.637 C 125.076 142.543,124.189 143.188,123.200 144.070 M117.280 148.764 C 113.641 151.741,111.931 153.391,114.800 151.159 C 118.920 147.953,121.253 146.002,120.937 146.025 C 120.752 146.038,119.106 147.271,117.280 148.764 M96.928 165.005 C 94.909 166.644,93.131 168.189,92.977 168.437 C 92.823 168.686,94.521 167.410,96.749 165.602 C 100.270 162.745,101.134 161.960,100.700 162.012 C 100.645 162.018,98.948 163.365,96.928 165.005 M90.785 170.029 L 89.400 171.258 90.900 170.181 C 92.226 169.230,92.657 168.800,92.285 168.800 C 92.222 168.800,91.547 169.353,90.785 170.029 M85.200 174.492 C 84.210 175.378,83.940 175.722,84.600 175.258 C 86.657 173.809,87.348 173.214,87.171 173.045 C 87.077 172.955,86.190 173.606,85.200 174.492 M60.800 194.034 L 59.000 195.665 60.900 194.184 C 62.566 192.886,63.059 192.397,62.700 192.401 C 62.645 192.402,61.790 193.136,60.800 194.034 M56.100 197.664 C 54.725 198.770,53.600 199.818,53.600 199.994 C 53.600 200.346,63.011 208.000,63.443 208.000 C 63.591 208.000,61.526 206.259,58.856 204.130 C 53.238 199.652,53.446 200.075,55.947 198.239 C 57.641 196.996,59.196 195.546,58.749 195.627 C 58.667 195.642,57.475 196.559,56.100 197.664 M65.200 209.571 C 65.970 210.258,67.140 211.189,67.800 211.641 C 68.835 212.350,68.808 212.290,67.600 211.202 C 66.830 210.509,65.660 209.578,65.000 209.133 C 63.960 208.432,63.987 208.491,65.200 209.571 M69.329 212.680 C 69.588 213.103,74.802 217.422,76.400 218.537 C 76.933 218.910,76.933 218.887,76.400 218.336 C 75.324 217.224,69.027 212.187,69.329 212.680 M82.056 223.166 C 82.575 223.587,83.077 223.855,83.171 223.761 C 83.376 223.557,81.944 222.431,81.456 222.413 C 81.266 222.406,81.536 222.745,82.056 223.166 M89.600 228.939 C 89.600 229.030,90.410 229.767,91.400 230.579 C 92.390 231.390,93.193 231.907,93.184 231.727 C 93.169 231.401,89.600 228.626,89.600 228.939 M93.600 232.118 C 93.600 232.220,94.447 232.997,95.481 233.845 C 96.516 234.693,97.234 235.178,97.076 234.923 C 96.740 234.379,93.600 231.845,93.600 232.118 M97.600 235.308 C 97.600 235.574,105.090 241.600,105.421 241.600 C 105.560 241.600,104.622 240.754,103.337 239.721 C 102.052 238.687,100.235 237.225,99.300 236.472 C 98.365 235.720,97.600 235.196,97.600 235.308 M107.400 243.348 C 108.280 244.140,109.149 244.791,109.331 244.794 C 109.513 244.797,109.153 244.391,108.531 243.891 C 106.440 242.209,105.786 241.895,107.400 243.348 M110.200 245.474 C 110.545 245.850,113.913 248.633,116.100 250.349 C 116.485 250.651,116.800 250.806,116.800 250.694 C 116.800 250.582,115.495 249.450,113.900 248.179 C 110.598 245.547,109.591 244.811,110.200 245.474 M117.216 251.073 C 117.231 251.399,120.800 254.174,120.800 253.861 C 120.800 253.770,119.990 253.033,119.000 252.221 C 118.010 251.410,117.207 250.893,117.216 251.073 M121.600 254.539 C 121.600 254.630,122.410 255.367,123.400 256.179 C 124.390 256.990,125.193 257.507,125.184 257.327 C 125.169 257.001,121.600 254.226,121.600 254.539 M133.600 264.107 C 133.600 264.369,141.086 270.400,141.411 270.400 C 141.544 270.400,140.066 269.114,138.127 267.541 C 133.529 263.815,133.600 263.869,133.600 264.107 M142.000 270.914 C 142.000 271.006,143.125 271.933,144.500 272.973 C 145.875 274.014,146.370 274.297,145.600 273.603 C 143.993 272.155,142.000 270.666,142.000 270.914 M148.171 275.897 C 148.815 276.609,149.430 277.104,149.538 276.996 C 149.645 276.888,149.658 276.755,149.567 276.700 C 149.475 276.645,148.860 276.151,148.200 275.601 L 147.000 274.603 148.171 275.897 M150.000 277.325 C 150.000 277.424,150.661 278.009,151.468 278.625 C 152.276 279.241,152.811 279.541,152.656 279.291 C 152.340 278.779,150.000 277.047,150.000 277.325 M155.800 281.966 C 156.578 282.861,158.800 284.598,158.800 284.312 C 158.800 284.234,157.945 283.467,156.900 282.608 C 155.855 281.749,155.360 281.460,155.800 281.966 M159.800 285.166 C 160.578 286.061,162.800 287.798,162.800 287.512 C 162.800 287.434,161.945 286.667,160.900 285.808 C 159.855 284.949,159.360 284.660,159.800 285.166 M175.600 297.739 C 175.600 297.830,176.410 298.567,177.400 299.379 C 178.390 300.190,179.193 300.707,179.184 300.527 C 179.169 300.201,175.600 297.426,175.600 297.739 M179.600 300.908 C 179.600 301.174,187.090 307.200,187.421 307.200 C 187.560 307.200,186.622 306.354,185.337 305.321 C 184.052 304.287,182.235 302.825,181.300 302.072 C 180.365 301.320,179.600 300.796,179.600 300.908 M190.088 309.413 C 190.686 310.043,191.247 310.477,191.335 310.379 C 191.423 310.280,190.933 309.765,190.247 309.234 L 189.000 308.269 190.088 309.413 M192.140 311.103 C 192.296 311.356,192.991 311.967,193.684 312.460 C 194.377 312.954,194.817 313.150,194.660 312.897 C 194.504 312.644,193.809 312.033,193.116 311.540 C 192.423 311.046,191.983 310.850,192.140 311.103 M197.953 315.575 C 199.121 316.603,216.831 316.710,217.037 315.690 C 217.094 315.410,217.049 315.365,216.937 315.590 C 216.570 316.330,199.175 316.126,197.989 315.368 L 197.000 314.736 197.953 315.575 " stroke="none" fill="#7cbcfc" fill-rule="evenodd"></path></g></svg>