<svg id="svg" version="1.1" xmlns="http://www.w3.org/2000/svg" xmlns:xlink="http://www.w3.org/1999/xlink" width="400" height="400" viewBox="0, 0, 400,400"><g id="svgg"><path id="path0" d="M29.400 50.000 C 29.264 50.220,28.713 50.400,28.176 50.400 C 27.639 50.400,27.200 50.580,27.200 50.800 C 27.200 51.020,26.660 51.200,26.000 51.200 C 25.340 51.200,24.800 51.380,24.800 51.600 C 24.800 51.820,24.260 52.000,23.600 52.000 C 22.940 52.000,22.400 52.180,22.400 52.400 C 22.400 52.620,22.040 52.800,21.600 52.800 C 21.160 52.800,20.800 52.980,20.800 53.200 C 20.800 53.420,20.440 53.600,20.000 53.600 C 19.560 53.600,19.200 53.780,19.200 54.000 C 19.200 54.220,18.840 54.400,18.400 54.400 C 17.960 54.400,17.600 54.580,17.600 54.800 C 17.600 55.020,17.312 55.200,16.960 55.200 C 16.609 55.200,15.817 55.740,15.200 56.400 C 14.583 57.060,13.973 57.600,13.844 57.600 C 13.093 57.600,7.600 63.093,7.600 63.844 C 7.600 63.973,7.060 64.583,6.400 65.200 C 5.740 65.817,5.200 66.609,5.200 66.960 C 5.200 67.312,5.020 67.600,4.800 67.600 C 4.580 67.600,4.400 67.960,4.400 68.400 C 4.400 68.840,4.220 69.200,4.000 69.200 C 3.780 69.200,3.600 69.560,3.600 70.000 C 3.600 70.440,3.420 70.800,3.200 70.800 C 2.980 70.800,2.800 71.160,2.800 71.600 C 2.800 72.040,2.620 72.400,2.400 72.400 C 2.180 72.400,2.000 72.940,2.000 73.600 C 2.000 74.260,1.820 74.800,1.600 74.800 C 1.380 74.800,1.200 75.325,1.200 75.967 C 1.200 76.608,0.975 77.208,0.700 77.300 C -0.035 77.545,-0.035 322.125,0.700 322.860 C 0.975 323.135,1.200 323.774,1.200 324.280 C 1.200 324.786,1.380 325.200,1.600 325.200 C 1.820 325.200,2.000 325.740,2.000 326.400 C 2.000 327.060,2.180 327.600,2.400 327.600 C 2.620 327.600,2.800 327.960,2.800 328.400 C 2.800 328.840,2.980 329.200,3.200 329.200 C 3.420 329.200,3.600 329.560,3.600 330.000 C 3.600 330.440,3.780 330.800,4.000 330.800 C 4.220 330.800,4.400 331.160,4.400 331.600 C 4.400 332.040,4.580 332.400,4.800 332.400 C 5.020 332.400,5.200 332.688,5.200 333.040 C 5.200 333.391,5.740 334.183,6.400 334.800 C 7.060 335.417,7.600 336.100,7.600 336.320 C 7.600 336.971,13.156 342.400,13.823 342.400 C 13.964 342.400,14.583 342.940,15.200 343.600 C 15.817 344.260,16.609 344.800,16.960 344.800 C 17.312 344.800,17.600 344.980,17.600 345.200 C 17.600 345.420,17.960 345.600,18.400 345.600 C 18.840 345.600,19.200 345.780,19.200 346.000 C 19.200 346.220,19.560 346.400,20.000 346.400 C 20.440 346.400,20.800 346.580,20.800 346.800 C 20.800 347.020,21.160 347.200,21.600 347.200 C 22.040 347.200,22.400 347.380,22.400 347.600 C 22.400 347.820,22.940 348.000,23.600 348.000 C 24.260 348.000,24.800 348.180,24.800 348.400 C 24.800 348.620,25.340 348.800,26.000 348.800 C 26.660 348.800,27.200 348.980,27.200 349.200 C 27.200 349.420,27.639 349.600,28.176 349.600 C 28.713 349.600,29.264 349.780,29.400 350.000 C 29.554 350.250,33.471 350.400,39.824 350.400 L 50.000 350.400 50.000 233.400 C 50.000 152.730,50.129 116.400,50.416 116.400 C 50.757 116.400,60.533 123.635,61.200 124.381 C 61.310 124.504,62.840 125.696,64.600 127.029 C 67.379 129.135,76.969 136.463,81.800 140.172 C 82.680 140.847,83.490 141.499,83.600 141.619 C 83.710 141.740,84.430 142.274,85.200 142.806 C 85.970 143.338,86.841 144.007,87.135 144.293 C 87.429 144.578,88.329 145.303,89.135 145.904 C 89.941 146.504,90.690 147.093,90.800 147.211 C 90.910 147.330,92.710 148.708,94.800 150.273 C 96.890 151.839,100.040 154.225,101.800 155.577 C 103.560 156.928,105.524 158.431,106.163 158.917 C 106.803 159.403,107.523 159.986,107.763 160.213 C 108.004 160.440,108.830 161.064,109.600 161.600 C 110.370 162.136,111.203 162.760,111.452 162.987 C 111.701 163.214,113.566 164.660,115.598 166.200 C 118.858 168.671,123.035 171.902,124.800 173.319 C 125.130 173.583,126.750 174.819,128.400 176.065 C 130.050 177.310,133.290 179.789,135.600 181.572 C 137.910 183.356,141.510 186.113,143.600 187.699 C 146.740 190.082,151.511 193.806,154.400 196.129 C 154.730 196.394,155.630 197.050,156.400 197.586 C 157.170 198.123,157.890 198.670,158.000 198.802 C 158.110 198.934,160.540 200.818,163.400 202.989 C 169.907 207.927,171.747 209.344,172.000 209.611 C 172.110 209.727,173.550 210.830,175.200 212.062 C 176.850 213.294,180.900 216.394,184.200 218.950 C 187.500 221.506,191.435 224.543,192.945 225.699 C 194.455 226.855,195.895 227.980,196.145 228.200 C 197.456 229.353,199.603 230.800,200.003 230.800 C 200.394 230.800,206.227 226.667,206.800 225.984 C 206.910 225.853,208.871 224.318,211.158 222.573 C 215.999 218.879,218.478 216.976,221.800 214.403 C 223.120 213.380,225.726 211.386,227.592 209.972 C 231.390 207.092,231.355 207.120,234.400 204.705 C 235.610 203.745,238.488 201.529,240.795 199.780 C 243.102 198.031,245.262 196.383,245.595 196.119 C 247.749 194.405,251.951 191.161,257.404 187.000 C 260.864 184.360,264.725 181.390,265.984 180.400 C 267.243 179.410,268.869 178.150,269.598 177.600 C 270.327 177.050,271.498 176.150,272.200 175.600 C 272.902 175.050,274.071 174.150,274.797 173.600 C 275.523 173.050,278.569 170.710,281.566 168.400 C 284.563 166.090,288.091 163.390,289.407 162.401 C 290.723 161.412,291.890 160.503,292.000 160.382 C 292.110 160.261,292.830 159.729,293.600 159.200 C 294.370 158.671,295.090 158.135,295.200 158.009 C 295.420 157.756,302.823 152.038,306.603 149.201 C 307.921 148.212,309.090 147.303,309.200 147.182 C 309.310 147.061,310.030 146.526,310.800 145.994 C 311.570 145.462,312.436 144.797,312.725 144.517 C 313.013 144.237,314.543 143.020,316.125 141.812 C 317.706 140.605,321.993 137.318,325.650 134.508 C 329.308 131.699,332.891 128.950,333.612 128.400 C 334.334 127.850,335.498 126.950,336.200 126.400 C 336.902 125.850,338.068 124.950,338.791 124.400 C 339.515 123.850,342.157 121.825,344.664 119.900 C 349.499 116.186,349.777 116.041,350.157 117.033 C 350.291 117.381,350.400 170.031,350.400 234.033 L 350.400 350.400 360.376 350.400 C 366.596 350.400,370.446 350.249,370.600 350.000 C 370.736 349.780,371.276 349.600,371.800 349.600 C 372.324 349.600,372.864 349.420,373.000 349.200 C 373.136 348.980,373.687 348.800,374.224 348.800 C 374.761 348.800,375.200 348.620,375.200 348.400 C 375.200 348.180,375.740 348.000,376.400 348.000 C 377.060 348.000,377.600 347.820,377.600 347.600 C 377.600 347.380,377.960 347.200,378.400 347.200 C 378.840 347.200,379.200 347.020,379.200 346.800 C 379.200 346.580,379.560 346.400,380.000 346.400 C 380.440 346.400,380.800 346.220,380.800 346.000 C 380.800 345.780,381.160 345.600,381.600 345.600 C 382.040 345.600,382.400 345.420,382.400 345.200 C 382.400 344.980,382.688 344.800,383.040 344.800 C 383.391 344.800,384.156 344.305,384.740 343.700 C 385.323 343.095,386.312 342.335,386.939 342.012 C 388.199 341.361,392.400 336.996,392.400 336.338 C 392.400 336.108,392.940 335.417,393.600 334.800 C 394.260 334.183,394.800 333.391,394.800 333.040 C 394.800 332.688,394.980 332.400,395.200 332.400 C 395.420 332.400,395.600 332.040,395.600 331.600 C 395.600 331.160,395.780 330.800,396.000 330.800 C 396.220 330.800,396.400 330.440,396.400 330.000 C 396.400 329.560,396.580 329.200,396.800 329.200 C 397.020 329.200,397.200 328.840,397.200 328.400 C 397.200 327.960,397.380 327.600,397.600 327.600 C 397.820 327.600,398.000 327.060,398.000 326.400 C 398.000 325.740,398.180 325.200,398.400 325.200 C 398.620 325.200,398.800 324.786,398.800 324.280 C 398.800 323.774,399.025 323.135,399.300 322.860 C 400.035 322.125,400.035 77.545,399.300 77.300 C 399.025 77.208,398.800 76.608,398.800 75.967 C 398.800 75.325,398.620 74.800,398.400 74.800 C 398.180 74.800,398.000 74.260,398.000 73.600 C 398.000 72.940,397.820 72.400,397.600 72.400 C 397.380 72.400,397.200 72.040,397.200 71.600 C 397.200 71.160,397.020 70.800,396.800 70.800 C 396.580 70.800,396.400 70.440,396.400 70.000 C 396.400 69.560,396.220 69.200,396.000 69.200 C 395.780 69.200,395.600 68.840,395.600 68.400 C 395.600 67.960,395.420 67.600,395.200 67.600 C 394.980 67.600,394.800 67.312,394.800 66.960 C 394.800 66.609,394.260 65.817,393.600 65.200 C 392.940 64.583,392.400 63.964,392.400 63.823 C 392.400 63.156,386.971 57.600,386.320 57.600 C 386.100 57.600,385.417 57.060,384.800 56.400 C 384.183 55.740,383.391 55.200,383.040 55.200 C 382.688 55.200,382.400 55.020,382.400 54.800 C 382.400 54.580,382.040 54.400,381.600 54.400 C 381.160 54.400,380.800 54.220,380.800 54.000 C 380.800 53.780,380.440 53.600,380.000 53.600 C 379.560 53.600,379.200 53.420,379.200 53.200 C 379.200 52.980,378.840 52.800,378.400 52.800 C 377.960 52.800,377.600 52.620,377.600 52.400 C 377.600 52.180,377.060 52.000,376.400 52.000 C 375.740 52.000,375.200 51.820,375.200 51.600 C 375.200 51.380,374.761 51.200,374.224 51.200 C 373.687 51.200,373.136 51.020,373.000 50.800 C 372.864 50.580,372.324 50.400,371.800 50.400 C 371.276 50.400,370.736 50.220,370.600 50.000 C 370.208 49.365,350.004 49.463,349.985 50.100 C 349.977 50.375,348.797 51.500,347.363 52.600 C 343.712 55.400,343.921 55.237,334.600 62.608 C 329.980 66.262,325.929 69.465,325.599 69.726 C 325.268 69.987,324.188 70.825,323.199 71.590 C 322.209 72.354,321.310 73.074,321.200 73.190 C 321.090 73.305,320.190 74.028,319.200 74.794 C 318.210 75.561,317.130 76.409,316.800 76.679 C 316.470 76.948,313.320 79.431,309.800 82.197 C 306.280 84.962,303.129 87.445,302.799 87.713 C 302.468 87.981,301.388 88.827,300.399 89.594 C 299.409 90.361,298.404 91.171,298.163 91.394 C 297.923 91.617,297.133 92.250,296.407 92.800 C 295.682 93.350,291.452 96.680,287.009 100.200 C 282.566 103.720,278.329 107.050,277.594 107.600 C 276.371 108.515,275.177 109.469,273.005 111.267 C 272.562 111.633,269.410 114.116,266.000 116.784 C 262.590 119.453,259.530 121.855,259.200 122.123 C 258.870 122.392,257.790 123.239,256.800 124.006 C 255.810 124.772,254.910 125.495,254.800 125.610 C 254.690 125.726,253.791 126.446,252.801 127.210 C 251.812 127.975,250.732 128.819,250.401 129.087 C 250.071 129.355,248.630 130.497,247.200 131.625 C 245.770 132.753,244.239 133.973,243.799 134.338 C 243.358 134.702,242.189 135.630,241.200 136.400 C 240.211 137.170,239.132 138.016,238.801 138.281 C 237.544 139.287,231.244 144.252,229.767 145.400 C 228.919 146.060,226.415 148.040,224.203 149.800 C 217.836 154.866,217.562 155.081,214.400 157.496 C 212.750 158.756,211.159 160.018,210.865 160.299 C 210.571 160.581,209.671 161.303,208.865 161.904 C 208.059 162.504,207.310 163.090,207.200 163.206 C 206.056 164.411,200.538 168.400,200.014 168.400 C 199.638 168.400,198.259 167.545,196.950 166.500 C 195.640 165.455,193.872 164.060,193.022 163.400 C 192.171 162.740,190.921 161.750,190.243 161.200 C 189.565 160.650,188.738 159.984,188.405 159.719 C 186.603 158.287,180.699 153.636,179.369 152.600 C 178.521 151.940,176.365 150.230,174.577 148.800 C 172.790 147.370,170.735 145.750,170.010 145.200 C 169.286 144.650,168.381 143.930,168.000 143.600 C 167.619 143.270,166.788 142.601,166.153 142.114 C 165.519 141.626,164.550 140.869,164.000 140.431 C 163.450 139.992,160.120 137.369,156.600 134.601 C 153.080 131.833,149.930 129.348,149.600 129.079 C 149.270 128.809,148.190 127.961,147.200 127.194 C 146.210 126.428,145.310 125.710,145.200 125.600 C 145.090 125.490,144.190 124.772,143.200 124.006 C 142.210 123.239,141.130 122.395,140.800 122.131 C 137.528 119.514,123.412 108.371,122.392 107.600 C 121.664 107.050,120.243 105.926,119.234 105.102 C 118.225 104.277,114.070 100.987,110.000 97.789 C 105.930 94.592,102.330 91.754,102.000 91.482 C 101.670 91.211,100.594 90.361,99.610 89.594 C 98.625 88.828,97.615 88.020,97.365 87.800 C 97.116 87.580,95.407 86.230,93.568 84.800 C 91.729 83.370,87.051 79.680,83.173 76.600 C 79.294 73.520,75.526 70.550,74.799 70.000 C 72.462 68.231,63.407 61.073,63.200 60.830 C 63.090 60.701,62.370 60.122,61.600 59.543 C 60.830 58.964,59.811 58.155,59.336 57.745 C 58.861 57.335,56.574 55.560,54.255 53.800 C 51.936 52.040,50.030 50.375,50.020 50.100 C 49.995 49.463,29.792 49.365,29.400 50.000 " stroke="none" fill="#f34434" fill-rule="evenodd"></path><path id="path1" d="M51.200 49.964 C 51.200 50.336,52.390 51.405,54.800 53.200 C 56.236 54.270,58.471 56.054,58.800 56.394 C 58.910 56.507,59.810 57.228,60.800 57.994 C 61.790 58.761,62.870 59.611,63.200 59.883 C 63.530 60.155,66.590 62.557,70.000 65.222 C 73.410 67.887,76.561 70.367,77.001 70.734 C 77.442 71.100,78.612 72.027,79.601 72.794 C 80.591 73.561,81.596 74.371,81.837 74.594 C 82.077 74.817,82.869 75.450,83.597 76.000 C 84.325 76.550,88.558 79.880,93.003 83.400 C 97.449 86.920,101.676 90.250,102.396 90.800 C 103.117 91.350,104.019 92.070,104.400 92.400 C 104.781 92.730,105.689 93.450,106.418 94.000 C 107.147 94.550,108.296 95.450,108.971 96.000 C 109.647 96.549,110.380 97.140,110.600 97.311 C 115.885 101.429,124.461 108.245,125.264 108.965 C 125.849 109.490,126.589 110.073,126.910 110.260 C 127.230 110.447,128.101 111.086,128.846 111.681 C 129.591 112.276,132.180 114.319,134.600 116.222 C 137.020 118.125,139.453 120.069,140.006 120.541 C 140.559 121.013,141.668 121.892,142.471 122.494 C 143.274 123.096,144.171 123.822,144.465 124.107 C 144.759 124.393,145.630 125.068,146.400 125.607 C 147.722 126.534,148.281 126.970,149.980 128.400 C 150.373 128.730,151.282 129.450,152.003 130.000 C 153.429 131.090,157.715 134.478,159.008 135.538 C 159.452 135.902,160.472 136.692,161.273 137.294 C 162.075 137.896,162.971 138.616,163.265 138.894 C 163.559 139.172,164.880 140.210,166.200 141.200 C 167.520 142.190,168.841 143.228,169.135 143.506 C 169.429 143.784,170.329 144.503,171.135 145.104 C 171.941 145.704,172.690 146.291,172.800 146.408 C 172.910 146.525,173.810 147.241,174.800 148.000 C 175.790 148.759,176.690 149.483,176.800 149.611 C 176.910 149.738,177.720 150.370,178.600 151.014 C 180.473 152.386,188.108 158.452,188.400 158.800 C 188.510 158.931,189.230 159.471,190.000 160.000 C 190.770 160.529,191.670 161.249,192.000 161.600 C 192.330 161.951,193.230 162.671,194.000 163.200 C 194.770 163.729,195.490 164.270,195.600 164.403 C 196.068 164.969,199.745 167.600,200.068 167.600 C 200.354 167.600,203.514 165.244,207.201 162.283 C 207.532 162.017,208.611 161.170,209.600 160.400 C 211.452 158.957,212.347 158.238,213.580 157.200 C 213.973 156.870,214.886 156.150,215.610 155.600 C 218.272 153.578,223.028 149.780,223.996 148.903 C 224.544 148.406,225.120 148.000,225.278 148.000 C 225.435 148.000,225.979 147.595,226.486 147.100 C 226.993 146.605,228.486 145.390,229.804 144.400 C 231.122 143.410,232.396 142.420,232.637 142.200 C 232.877 141.980,233.670 141.350,234.400 140.800 C 235.130 140.250,235.923 139.617,236.163 139.394 C 236.404 139.171,237.410 138.366,238.400 137.605 C 239.390 136.843,240.290 136.118,240.400 135.992 C 240.510 135.866,241.770 134.873,243.200 133.786 C 244.630 132.699,246.070 131.591,246.400 131.324 C 246.730 131.057,248.620 129.561,250.600 128.000 C 252.580 126.439,254.470 124.943,254.800 124.676 C 255.130 124.408,256.206 123.561,257.190 122.794 C 258.175 122.028,259.225 121.172,259.525 120.894 C 259.824 120.616,260.727 119.896,261.532 119.294 C 262.336 118.692,264.526 116.972,266.397 115.471 C 268.269 113.970,270.070 112.528,270.400 112.265 C 270.730 112.003,271.630 111.350,272.400 110.813 C 273.170 110.277,274.070 109.551,274.400 109.200 C 274.730 108.849,275.630 108.129,276.400 107.600 C 277.170 107.071,277.890 106.524,278.000 106.384 C 278.110 106.244,280.540 104.291,283.400 102.043 C 286.260 99.795,288.870 97.738,289.200 97.472 C 289.530 97.206,290.428 96.543,291.196 95.999 C 291.963 95.455,293.043 94.603,293.596 94.107 C 294.553 93.247,309.613 81.299,312.386 79.200 C 313.112 78.650,314.019 77.930,314.400 77.600 C 314.781 77.270,315.683 76.550,316.403 76.000 C 317.123 75.450,321.800 71.760,326.795 67.800 C 331.789 63.840,336.476 60.150,337.209 59.600 C 338.762 58.436,340.912 56.709,341.200 56.395 C 341.310 56.276,342.935 54.989,344.812 53.536 C 346.689 52.083,348.466 50.603,348.761 50.247 C 349.255 49.651,337.501 49.600,200.249 49.600 C 110.844 49.600,51.200 49.746,51.200 49.964 M50.400 233.751 L 50.400 350.400 200.000 350.400 C 289.553 350.400,349.600 350.254,349.600 350.036 C 349.600 349.836,347.485 347.999,344.900 345.955 C 342.315 343.910,338.496 340.878,336.413 339.218 C 334.329 337.558,331.989 335.726,331.213 335.146 C 330.436 334.566,325.296 330.516,319.790 326.146 C 314.285 321.776,309.155 317.722,308.390 317.137 C 307.626 316.552,302.320 312.361,296.600 307.823 C 290.880 303.285,285.800 299.264,285.312 298.886 C 284.065 297.922,265.444 283.227,250.867 271.702 C 244.120 266.369,236.890 260.660,234.800 259.016 C 229.183 254.598,219.914 247.256,219.029 246.524 C 218.606 246.174,217.453 245.272,216.469 244.521 C 215.485 243.769,213.941 242.564,213.040 241.843 C 205.627 235.912,201.445 232.715,199.400 231.417 C 198.080 230.579,196.910 229.774,196.800 229.628 C 196.690 229.481,195.970 228.929,195.200 228.400 C 194.430 227.871,193.509 227.114,193.153 226.719 C 192.797 226.324,192.394 226.000,192.258 226.000 C 192.030 226.000,190.983 225.210,189.855 224.187 C 189.605 223.960,188.770 223.338,188.000 222.806 C 187.230 222.274,186.510 221.735,186.400 221.608 C 186.290 221.481,184.760 220.312,183.000 219.009 C 181.240 217.706,179.710 216.533,179.600 216.401 C 179.490 216.269,178.770 215.729,178.000 215.200 C 177.230 214.671,176.510 214.135,176.400 214.009 C 176.290 213.883,175.390 213.159,174.400 212.400 C 173.410 211.641,172.510 210.917,172.400 210.791 C 172.290 210.665,171.570 210.129,170.800 209.600 C 170.030 209.071,169.310 208.539,169.200 208.418 C 169.090 208.297,167.920 207.389,166.600 206.400 C 165.280 205.411,164.110 204.506,164.000 204.388 C 163.890 204.270,161.910 202.753,159.600 201.017 C 157.290 199.282,154.937 197.488,154.371 197.031 C 153.806 196.574,152.742 195.750,152.008 195.200 C 151.274 194.650,150.477 194.014,150.237 193.787 C 149.996 193.560,149.170 192.938,148.400 192.406 C 147.630 191.874,146.910 191.335,146.800 191.209 C 146.634 191.018,144.097 189.025,142.600 187.909 C 141.211 186.873,133.694 181.099,133.200 180.688 C 132.870 180.413,131.970 179.750,131.200 179.213 C 130.430 178.677,129.509 177.914,129.153 177.519 C 128.797 177.124,128.394 176.800,128.258 176.800 C 128.030 176.800,126.983 176.010,125.855 174.987 C 125.605 174.760,124.770 174.138,124.000 173.606 C 123.230 173.074,122.510 172.540,122.400 172.419 C 122.155 172.150,120.499 170.878,113.800 165.809 C 110.940 163.645,108.510 161.759,108.400 161.618 C 108.290 161.477,107.570 160.929,106.800 160.400 C 106.030 159.871,105.310 159.339,105.200 159.218 C 105.090 159.097,103.920 158.189,102.600 157.200 C 101.280 156.211,100.110 155.309,100.000 155.196 C 99.890 155.082,97.910 153.560,95.600 151.814 C 93.290 150.067,91.310 148.539,91.200 148.418 C 91.090 148.297,89.920 147.389,88.600 146.400 C 87.280 145.411,86.110 144.512,86.000 144.401 C 85.743 144.143,83.480 142.401,79.200 139.168 C 77.330 137.756,75.581 136.420,75.314 136.200 C 74.116 135.214,73.660 134.863,71.400 133.186 C 70.080 132.206,68.910 131.305,68.800 131.183 C 68.690 131.061,67.970 130.526,67.200 129.994 C 66.430 129.462,65.559 128.793,65.265 128.507 C 64.971 128.222,64.071 127.497,63.265 126.896 C 62.459 126.296,61.710 125.705,61.600 125.583 C 61.490 125.461,60.770 124.929,60.000 124.400 C 59.230 123.871,58.510 123.340,58.400 123.219 C 58.290 123.099,56.670 121.844,54.800 120.431 C 52.930 119.017,51.175 117.690,50.900 117.482 C 50.500 117.178,50.400 140.496,50.400 233.751 " stroke="none" fill="#ebebf3" fill-rule="evenodd"></path><path id="path2" d="M347.954 118.113 C 346.288 119.525,345.494 120.145,344.000 121.200 C 343.230 121.744,342.330 122.408,342.000 122.676 C 340.917 123.555,336.555 126.979,335.216 128.000 C 334.496 128.550,332.968 129.720,331.821 130.600 C 327.595 133.843,320.109 139.589,317.000 141.977 C 315.240 143.328,313.276 144.831,312.636 145.317 C 311.996 145.803,310.442 147.010,309.182 148.000 C 307.923 148.990,305.230 151.060,303.198 152.600 C 301.166 154.140,299.301 155.586,299.052 155.813 C 298.803 156.040,297.970 156.668,297.200 157.207 C 295.681 158.272,294.609 159.117,293.784 159.900 C 293.494 160.175,293.130 160.400,292.975 160.400 C 292.821 160.400,292.403 160.724,292.047 161.119 C 291.691 161.514,290.770 162.277,290.000 162.813 C 289.230 163.350,288.330 164.005,288.000 164.270 C 284.660 166.947,282.365 168.725,278.800 171.399 C 276.490 173.132,274.510 174.659,274.400 174.794 C 274.290 174.928,273.570 175.477,272.800 176.014 C 272.030 176.550,271.130 177.205,270.800 177.470 C 267.460 180.147,265.165 181.925,261.600 184.599 C 259.290 186.332,257.310 187.859,257.200 187.994 C 257.090 188.128,256.370 188.674,255.600 189.206 C 254.830 189.738,254.004 190.360,253.763 190.587 C 253.523 190.814,252.734 191.450,252.009 192.000 C 250.598 193.071,243.854 198.242,240.658 200.704 C 238.596 202.292,234.205 205.714,233.197 206.519 C 232.865 206.783,230.796 208.350,228.600 210.000 C 226.404 211.650,224.245 213.302,223.803 213.671 C 223.362 214.039,220.390 216.337,217.200 218.777 C 214.010 221.216,211.130 223.437,210.800 223.712 C 210.470 223.987,209.570 224.654,208.800 225.194 C 208.030 225.735,206.989 226.553,206.487 227.012 C 205.985 227.471,204.356 228.730,202.867 229.809 L 200.160 231.771 203.032 233.986 C 204.612 235.204,207.843 237.730,210.213 239.600 C 212.583 241.470,215.350 243.638,216.361 244.418 C 217.373 245.198,218.560 246.135,219.000 246.499 C 219.901 247.246,229.037 254.483,234.800 259.016 C 236.890 260.660,244.120 266.369,250.867 271.702 C 265.444 283.227,284.065 297.922,285.312 298.886 C 285.800 299.264,290.880 303.285,296.600 307.823 C 302.320 312.361,307.626 316.552,308.390 317.137 C 309.155 317.722,314.285 321.776,319.790 326.146 C 325.296 330.516,330.436 334.566,331.213 335.146 C 331.989 335.726,334.329 337.558,336.413 339.218 C 338.496 340.878,342.302 343.899,344.871 345.931 C 347.440 347.963,349.647 349.845,349.775 350.113 C 349.904 350.381,349.919 350.150,349.810 349.600 C 349.700 349.050,349.608 296.535,349.605 232.900 C 349.602 169.265,349.465 117.206,349.300 117.213 C 349.135 117.220,348.529 117.625,347.954 118.113 " stroke="none" fill="#ccdbdc" fill-rule="evenodd"></path><path id="path3" d="M53.600 52.772 C 55.574 54.549,59.600 57.692,59.600 57.456 C 59.600 57.257,53.925 52.618,52.800 51.896 C 52.470 51.685,52.830 52.079,53.600 52.772 M342.400 55.644 C 340.750 56.972,339.130 58.344,338.800 58.694 C 338.117 59.417,342.283 56.247,344.400 54.432 C 346.861 52.323,345.506 53.144,342.400 55.644 M61.600 59.108 C 62.590 59.994,63.477 60.645,63.571 60.555 C 63.748 60.386,63.057 59.791,61.000 58.342 C 60.340 57.878,60.610 58.222,61.600 59.108 M66.140 62.703 C 66.296 62.956,66.991 63.567,67.684 64.060 C 68.377 64.554,68.817 64.750,68.660 64.497 C 68.504 64.244,67.809 63.633,67.116 63.140 C 66.423 62.646,65.983 62.450,66.140 62.703 M330.800 64.834 C 327.771 67.269,326.317 68.596,327.811 67.562 C 329.266 66.555,334.000 62.731,334.000 62.563 C 334.000 62.275,333.849 62.382,330.800 64.834 M74.400 69.184 C 75.170 69.870,76.880 71.250,78.200 72.249 C 79.520 73.248,79.970 73.503,79.200 72.816 C 78.430 72.130,76.720 70.750,75.400 69.751 C 74.080 68.752,73.630 68.497,74.400 69.184 M322.600 71.244 C 320.400 73.012,318.330 74.750,318.000 75.106 C 317.369 75.788,319.081 74.490,323.900 70.632 C 326.406 68.625,327.127 67.952,326.700 68.015 C 326.645 68.023,324.800 69.476,322.600 71.244 M88.940 80.703 C 89.096 80.956,89.791 81.567,90.484 82.060 C 91.177 82.554,91.617 82.750,91.460 82.497 C 91.304 82.244,90.609 81.633,89.916 81.140 C 89.223 80.646,88.783 80.450,88.940 80.703 M308.200 82.638 C 305.308 84.915,303.369 86.691,305.011 85.559 C 306.444 84.571,311.200 80.733,311.200 80.563 C 311.200 80.287,311.085 80.367,308.200 82.638 M92.000 82.972 C 92.000 83.076,94.205 84.905,96.900 87.037 C 102.610 91.556,103.494 92.210,101.822 90.685 C 100.066 89.083,92.000 82.749,92.000 82.972 M297.644 91.004 C 296.678 91.772,296.048 92.393,296.244 92.385 C 296.616 92.369,299.949 89.613,299.600 89.610 C 299.490 89.609,298.610 90.236,297.644 91.004 M107.600 95.339 C 107.600 95.430,108.410 96.167,109.400 96.979 C 110.390 97.790,111.193 98.307,111.184 98.127 C 111.169 97.801,107.600 95.026,107.600 95.339 M111.740 98.703 C 111.896 98.956,112.591 99.567,113.284 100.060 C 113.977 100.554,114.417 100.750,114.260 100.497 C 114.104 100.244,113.409 99.633,112.716 99.140 C 112.023 98.646,111.583 98.450,111.740 98.703 M286.200 100.047 C 283.754 102.025,282.981 102.821,284.600 101.694 C 286.069 100.671,288.675 98.433,288.400 98.431 C 288.290 98.429,287.300 99.157,286.200 100.047 M114.825 101.066 C 114.838 101.250,115.665 101.995,116.663 102.723 C 117.660 103.451,118.366 103.869,118.232 103.652 C 117.834 103.008,114.798 100.704,114.825 101.066 M120.582 105.688 C 121.472 106.506,122.349 107.181,122.531 107.188 C 122.713 107.195,122.263 106.716,121.531 106.124 C 119.287 104.311,118.883 104.125,120.582 105.688 M278.844 105.804 C 277.878 106.572,277.248 107.193,277.444 107.185 C 277.816 107.169,281.149 104.413,280.800 104.410 C 280.690 104.409,279.810 105.036,278.844 105.804 M274.300 109.435 C 273.035 110.442,272.000 111.352,272.000 111.459 C 272.000 111.566,273.080 110.805,274.400 109.768 C 276.515 108.106,277.061 107.592,276.700 107.603 C 276.645 107.605,275.565 108.429,274.300 109.435 M124.524 108.677 C 124.860 109.221,128.000 111.755,128.000 111.482 C 128.000 111.380,127.153 110.603,126.119 109.755 C 125.084 108.907,124.366 108.422,124.524 108.677 M130.400 113.325 C 130.400 113.423,131.255 114.191,132.300 115.032 C 133.345 115.872,133.840 116.145,133.400 115.637 C 132.574 114.683,130.400 113.008,130.400 113.325 M134.540 116.703 C 134.696 116.956,135.391 117.567,136.084 118.060 C 136.777 118.554,137.217 118.750,137.060 118.497 C 136.904 118.244,136.209 117.633,135.516 117.140 C 134.823 116.646,134.383 116.450,134.540 116.703 M50.197 233.600 C 50.197 297.950,50.244 324.275,50.300 292.100 C 50.356 259.925,50.356 207.275,50.300 175.100 C 50.244 142.925,50.197 169.250,50.197 233.600 M50.800 116.933 C 50.800 117.043,51.520 117.703,52.400 118.400 C 53.280 119.097,54.000 119.577,54.000 119.467 C 54.000 119.357,53.280 118.697,52.400 118.000 C 51.520 117.303,50.800 116.823,50.800 116.933 M349.500 191.100 C 349.555 231.965,349.646 284.300,349.702 307.400 C 349.758 330.500,349.848 297.065,349.902 233.100 C 349.956 169.135,349.865 116.800,349.700 116.800 C 349.535 116.800,349.445 150.235,349.500 191.100 M347.185 118.432 L 345.800 119.663 347.088 118.813 C 348.230 118.059,349.093 117.200,348.708 117.200 C 348.632 117.200,347.947 117.754,347.185 118.432 M260.800 120.044 C 260.250 120.493,259.440 121.166,259.000 121.539 C 258.560 121.912,257.755 122.529,257.211 122.909 C 256.667 123.289,256.397 123.598,256.611 123.595 C 256.825 123.592,258.227 122.602,259.727 121.395 C 261.227 120.188,262.307 119.206,262.127 119.213 C 261.947 119.221,261.350 119.594,260.800 120.044 M54.544 119.909 C 54.860 120.421,57.200 122.153,57.200 121.875 C 57.200 121.776,56.539 121.191,55.732 120.575 C 54.924 119.959,54.389 119.659,54.544 119.909 M344.000 120.835 L 342.600 122.048 344.095 121.124 C 344.917 120.616,345.592 120.065,345.595 119.900 C 345.602 119.464,345.538 119.502,344.000 120.835 M57.744 122.309 C 58.060 122.821,60.400 124.553,60.400 124.275 C 60.400 124.176,59.739 123.591,58.932 122.975 C 58.124 122.359,57.589 122.059,57.744 122.309 M143.181 123.507 C 144.883 125.022,148.800 128.065,148.800 127.872 C 148.800 127.684,143.324 123.248,142.581 122.834 C 142.351 122.705,142.621 123.008,143.181 123.507 M338.400 125.046 C 336.184 126.777,334.963 128.028,336.600 126.892 C 338.044 125.889,340.681 123.631,340.400 123.637 C 340.290 123.639,339.390 124.274,338.400 125.046 M251.500 127.435 C 250.235 128.442,249.200 129.352,249.200 129.459 C 249.200 129.566,250.280 128.805,251.600 127.768 C 253.715 126.106,254.261 125.592,253.900 125.603 C 253.845 125.605,252.765 126.429,251.500 127.435 M64.000 127.197 C 65.607 128.645,67.600 130.134,67.600 129.886 C 67.600 129.794,66.475 128.867,65.100 127.827 C 63.725 126.786,63.230 126.503,64.000 127.197 M332.600 129.559 C 331.280 130.581,328.265 132.912,325.900 134.739 C 323.535 136.566,321.600 138.144,321.600 138.245 C 321.600 138.408,324.501 136.234,331.966 130.478 C 333.195 129.530,334.469 128.599,334.797 128.408 C 335.125 128.216,335.305 127.979,335.197 127.880 C 335.089 127.781,333.920 128.537,332.600 129.559 M68.400 130.525 C 68.400 130.624,69.061 131.209,69.868 131.825 C 70.676 132.441,71.211 132.741,71.056 132.491 C 70.740 131.979,68.400 130.247,68.400 130.525 M71.744 133.109 C 72.060 133.621,74.400 135.353,74.400 135.075 C 74.400 134.976,73.739 134.391,72.932 133.775 C 72.124 133.159,71.589 132.859,71.744 133.109 M155.200 132.940 C 155.200 133.142,160.063 137.064,161.389 137.930 C 161.835 138.222,161.660 137.986,161.000 137.406 C 159.111 135.745,155.200 132.734,155.200 132.940 M241.600 135.246 C 238.717 137.570,237.055 139.076,238.400 138.147 C 239.634 137.295,244.800 133.104,244.800 132.955 C 244.800 132.682,244.649 132.789,241.600 135.246 M78.033 138.123 C 78.125 138.190,79.010 138.837,80.000 139.561 L 81.800 140.876 80.200 139.444 C 79.320 138.656,78.435 138.009,78.233 138.006 C 78.032 138.003,77.942 138.055,78.033 138.123 M318.700 140.235 C 316.352 142.103,315.510 143.100,317.500 141.656 C 319.026 140.550,321.442 138.435,321.200 138.419 C 321.090 138.412,319.965 139.229,318.700 140.235 M236.229 139.409 C 235.805 139.729,235.535 140.068,235.629 140.161 C 235.723 140.255,236.225 139.987,236.744 139.566 C 237.838 138.679,237.379 138.539,236.229 139.409 M164.800 140.514 C 164.800 140.606,165.925 141.533,167.300 142.573 C 168.675 143.614,169.170 143.897,168.400 143.203 C 166.793 141.755,164.800 140.266,164.800 140.514 M82.144 141.109 C 82.460 141.621,84.800 143.353,84.800 143.075 C 84.800 142.976,84.139 142.391,83.332 141.775 C 82.524 141.159,81.989 140.859,82.144 141.109 M231.244 143.404 C 230.278 144.172,229.648 144.797,229.844 144.794 C 230.219 144.788,233.545 142.038,233.200 142.019 C 233.090 142.013,232.210 142.636,231.244 143.404 M314.400 143.649 C 313.006 144.871,313.005 144.872,314.288 144.019 C 314.996 143.548,315.682 142.991,315.812 142.781 C 316.197 142.157,315.877 142.354,314.400 143.649 M86.600 144.587 C 87.260 145.167,88.340 146.006,89.000 146.453 L 90.200 147.266 89.000 146.213 C 88.340 145.633,87.260 144.794,86.600 144.347 L 85.400 143.534 86.600 144.587 M309.764 147.136 C 308.205 148.381,305.918 150.120,304.683 151.000 C 303.449 151.880,302.430 152.743,302.419 152.918 C 302.409 153.093,303.975 152.025,305.900 150.545 C 310.772 146.800,312.573 145.425,312.767 145.304 C 312.858 145.247,312.858 145.126,312.767 145.036 C 312.675 144.946,311.324 145.891,309.764 147.136 M227.585 146.429 L 226.200 147.658 227.700 146.581 C 229.026 145.630,229.457 145.200,229.085 145.200 C 229.022 145.200,228.347 145.753,227.585 146.429 M90.433 147.729 C 93.365 150.005,95.686 151.663,95.485 151.337 C 95.123 150.752,91.000 147.600,90.596 147.600 C 90.415 147.600,90.342 147.658,90.433 147.729 M178.144 151.109 C 178.460 151.621,180.800 153.353,180.800 153.075 C 180.800 152.976,180.139 152.391,179.332 151.775 C 178.524 151.159,177.989 150.859,178.144 151.109 M218.800 153.246 C 215.917 155.570,214.255 157.076,215.600 156.147 C 216.834 155.295,222.000 151.104,222.000 150.955 C 222.000 150.682,221.849 150.789,218.800 153.246 M96.000 151.725 C 96.000 151.824,96.661 152.409,97.468 153.025 C 98.276 153.641,98.811 153.941,98.656 153.691 C 98.340 153.179,96.000 151.447,96.000 151.725 M300.385 154.432 L 299.000 155.663 300.288 154.813 C 301.430 154.059,302.293 153.200,301.908 153.200 C 301.832 153.200,301.147 153.754,300.385 154.432 M182.269 154.509 C 184.387 156.213,185.005 156.521,183.400 155.073 C 182.520 154.280,181.651 153.623,181.469 153.615 C 181.287 153.607,181.647 154.009,182.269 154.509 M101.344 155.909 C 101.660 156.421,104.000 158.153,104.000 157.875 C 104.000 157.776,103.339 157.191,102.532 156.575 C 101.724 155.959,101.189 155.659,101.344 155.909 M297.200 156.835 L 295.800 158.048 297.295 157.124 C 298.117 156.616,298.792 156.065,298.795 155.900 C 298.802 155.464,298.738 155.502,297.200 156.835 M186.973 158.099 C 187.868 158.923,188.749 159.598,188.931 159.599 C 189.113 159.600,188.663 159.116,187.931 158.524 C 185.688 156.712,185.263 156.523,186.973 158.099 M104.544 158.309 C 104.860 158.821,107.200 160.553,107.200 160.275 C 107.200 160.176,106.539 159.591,105.732 158.975 C 104.924 158.359,104.389 158.059,104.544 158.309 M189.600 160.125 C 189.600 160.224,190.261 160.809,191.068 161.425 C 191.876 162.041,192.411 162.341,192.256 162.091 C 191.940 161.579,189.600 159.847,189.600 160.125 M208.785 161.232 L 207.400 162.463 208.688 161.613 C 209.830 160.859,210.693 160.000,210.308 160.000 C 210.232 160.000,209.547 160.554,208.785 161.232 M107.616 160.693 C 107.633 161.012,112.800 164.951,112.800 164.646 C 112.800 164.551,111.630 163.554,110.200 162.430 C 108.770 161.306,107.607 160.525,107.616 160.693 M290.200 162.260 C 288.649 163.645,288.643 163.661,290.000 162.758 C 291.636 161.669,292.595 160.794,292.129 160.815 C 291.948 160.823,291.080 161.473,290.200 162.260 M192.924 162.677 C 193.260 163.221,196.400 165.755,196.400 165.482 C 196.400 165.380,195.553 164.603,194.519 163.755 C 193.484 162.907,192.766 162.422,192.924 162.677 M204.785 164.429 L 203.400 165.658 204.900 164.581 C 206.226 163.630,206.657 163.200,206.285 163.200 C 206.222 163.200,205.547 163.753,204.785 164.429 M284.697 166.400 C 279.916 170.087,276.898 172.718,280.400 170.148 C 281.830 169.098,283.963 167.465,285.139 166.518 C 286.316 165.571,287.574 164.630,287.936 164.428 C 288.297 164.226,288.505 163.979,288.397 163.880 C 288.289 163.781,286.624 164.915,284.697 166.400 M196.944 165.909 C 197.260 166.421,199.600 168.153,199.600 167.875 C 199.600 167.776,198.939 167.191,198.132 166.575 C 197.324 165.959,196.789 165.659,196.944 165.909 M115.200 166.525 C 115.200 166.624,115.861 167.209,116.668 167.825 C 117.476 168.441,118.011 168.741,117.856 168.491 C 117.540 167.979,115.200 166.247,115.200 166.525 M118.544 169.109 C 118.860 169.621,121.200 171.353,121.200 171.075 C 121.200 170.976,120.539 170.391,119.732 169.775 C 118.924 169.159,118.389 168.859,118.544 169.109 M275.985 173.229 L 274.600 174.458 276.100 173.381 C 277.426 172.430,277.857 172.000,277.485 172.000 C 277.422 172.000,276.747 172.553,275.985 173.229 M272.785 175.618 L 271.400 176.835 272.895 175.918 C 273.717 175.413,274.392 174.865,274.395 174.700 C 274.403 174.237,274.269 174.313,272.785 175.618 M128.944 177.109 C 129.260 177.621,131.600 179.353,131.600 179.075 C 131.600 178.976,130.939 178.391,130.132 177.775 C 129.324 177.159,128.789 176.859,128.944 177.109 M265.300 181.346 C 263.264 182.938,261.374 184.486,261.100 184.785 C 260.825 185.084,262.447 183.929,264.705 182.217 C 268.202 179.568,269.660 178.316,269.124 178.425 C 269.056 178.439,267.335 179.753,265.300 181.346 M136.800 183.199 C 138.503 184.731,140.400 186.129,140.400 185.851 C 140.400 185.738,139.275 184.812,137.900 183.793 C 136.525 182.773,136.030 182.506,136.800 183.199 M258.785 186.429 L 257.400 187.658 258.900 186.581 C 260.226 185.630,260.657 185.200,260.285 185.200 C 260.222 185.200,259.547 185.753,258.785 186.429 M142.940 187.903 C 143.096 188.156,143.791 188.767,144.484 189.260 C 145.177 189.754,145.617 189.950,145.460 189.697 C 145.304 189.444,144.609 188.833,143.916 188.340 C 143.223 187.846,142.783 187.650,142.940 187.903 M146.144 190.309 C 146.460 190.821,148.800 192.553,148.800 192.275 C 148.800 192.176,148.139 191.591,147.332 190.975 C 146.524 190.359,145.989 190.059,146.144 190.309 M249.400 193.556 C 248.080 194.594,245.774 196.378,244.276 197.522 C 242.778 198.665,241.698 199.596,241.876 199.591 C 242.054 199.585,244.180 198.042,246.600 196.161 C 249.020 194.280,251.269 192.588,251.597 192.401 C 251.925 192.213,252.105 191.972,251.997 191.865 C 251.889 191.757,250.720 192.518,249.400 193.556 M152.400 195.197 C 154.007 196.645,156.000 198.134,156.000 197.886 C 156.000 197.794,154.875 196.867,153.500 195.827 C 152.125 194.786,151.630 194.503,152.400 195.197 M156.800 198.525 C 156.800 198.624,157.461 199.209,158.268 199.825 C 159.076 200.441,159.611 200.741,159.456 200.491 C 159.140 199.979,156.800 198.247,156.800 198.525 M239.585 201.232 L 238.200 202.463 239.488 201.613 C 240.630 200.859,241.493 200.000,241.108 200.000 C 241.032 200.000,240.347 200.554,239.585 201.232 M160.000 200.925 C 160.000 201.024,160.661 201.609,161.468 202.225 C 162.276 202.841,162.811 203.141,162.656 202.891 C 162.340 202.379,160.000 200.647,160.000 200.925 M234.385 205.232 L 233.000 206.463 234.288 205.613 C 235.430 204.859,236.293 204.000,235.908 204.000 C 235.832 204.000,235.147 204.554,234.385 205.232 M231.829 207.029 C 231.405 207.338,231.136 207.669,231.230 207.763 C 231.324 207.857,231.748 207.681,232.171 207.371 C 232.595 207.062,232.864 206.731,232.770 206.637 C 232.676 206.543,232.252 206.719,231.829 207.029 M168.497 207.434 C 168.636 207.659,169.876 208.728,171.253 209.809 C 172.629 210.890,173.642 211.591,173.503 211.366 C 173.364 211.141,172.124 210.072,170.747 208.991 C 169.371 207.910,168.358 207.209,168.497 207.434 M229.185 209.232 L 227.800 210.463 229.088 209.613 C 230.230 208.859,231.093 208.000,230.708 208.000 C 230.632 208.000,229.947 208.554,229.185 209.232 M226.000 211.649 C 224.606 212.871,224.605 212.872,225.888 212.019 C 226.596 211.548,227.282 210.991,227.412 210.781 C 227.797 210.157,227.477 210.354,226.000 211.649 M174.000 211.729 C 174.000 211.824,175.825 213.298,178.056 215.003 C 180.286 216.709,181.995 217.915,181.853 217.685 C 181.710 217.455,180.209 216.216,178.517 214.933 C 174.387 211.801,174.000 211.526,174.000 211.729 M221.200 215.263 C 219.770 216.372,218.251 217.528,217.824 217.831 C 217.397 218.134,217.127 218.446,217.224 218.525 C 217.321 218.604,218.996 217.438,220.947 215.934 C 222.897 214.430,224.337 213.210,224.147 213.223 C 223.956 213.236,222.630 214.154,221.200 215.263 M182.400 218.153 C 182.400 218.263,183.480 219.184,184.800 220.200 C 186.120 221.216,187.200 221.957,187.200 221.847 C 187.200 221.737,186.120 220.816,184.800 219.800 C 183.480 218.784,182.400 218.043,182.400 218.153 M215.185 220.029 L 213.800 221.258 215.300 220.181 C 216.626 219.230,217.057 218.800,216.685 218.800 C 216.622 218.800,215.947 219.353,215.185 220.029 M211.985 222.432 L 210.600 223.663 211.888 222.813 C 213.030 222.059,213.893 221.200,213.508 221.200 C 213.432 221.200,212.747 221.754,211.985 222.432 M188.816 223.073 C 188.831 223.399,192.400 226.174,192.400 225.861 C 192.400 225.770,191.590 225.033,190.600 224.221 C 189.610 223.410,188.807 222.893,188.816 223.073 M208.800 224.835 L 207.400 226.048 208.895 225.124 C 209.717 224.616,210.392 224.065,210.395 223.900 C 210.402 223.464,210.338 223.502,208.800 224.835 M192.944 226.309 C 193.260 226.821,195.600 228.553,195.600 228.275 C 195.600 228.176,194.939 227.591,194.132 226.975 C 193.324 226.359,192.789 226.059,192.944 226.309 M205.000 227.852 C 203.386 229.305,204.040 228.991,206.131 227.309 C 206.753 226.809,207.113 226.403,206.931 226.406 C 206.749 226.409,205.880 227.060,205.000 227.852 M197.773 230.200 C 200.011 231.908,200.271 231.919,202.015 230.371 L 203.400 229.142 201.962 230.171 C 200.154 231.465,199.725 231.445,198.015 229.984 C 197.253 229.333,196.475 228.800,196.284 228.800 C 196.094 228.800,196.764 229.430,197.773 230.200 " stroke="none" fill="#eca4a1" fill-rule="evenodd"></path><path id="path4" d="M50.022 50.131 C 50.034 50.389,51.339 51.557,52.922 52.727 C 54.505 53.896,54.991 54.166,54.002 53.327 C 53.013 52.487,51.708 51.319,51.102 50.731 C 50.496 50.143,50.010 49.873,50.022 50.131 M348.796 50.800 C 348.244 51.350,347.061 52.430,346.167 53.200 C 344.149 54.939,345.119 54.363,347.800 52.230 C 348.900 51.355,349.864 50.596,349.942 50.544 C 350.020 50.492,350.020 50.304,349.942 50.125 C 349.864 49.946,349.348 50.250,348.796 50.800 M60.269 58.509 C 62.360 60.191,63.014 60.505,61.400 59.052 C 60.520 58.260,59.651 57.609,59.469 57.606 C 59.287 57.603,59.647 58.009,60.269 58.509 M334.808 62.025 C 332.063 64.218,329.543 66.314,329.208 66.683 C 328.549 67.411,330.061 66.259,336.100 61.431 C 339.456 58.748,340.369 57.928,339.900 58.019 C 339.845 58.030,337.554 59.833,334.808 62.025 M68.243 64.858 C 71.079 67.090,73.670 69.090,74.000 69.302 C 75.078 69.996,71.855 67.200,69.600 65.485 C 68.390 64.564,66.578 63.134,65.574 62.306 C 64.570 61.478,63.600 60.800,63.417 60.800 C 63.235 60.800,65.407 62.626,68.243 64.858 M326.785 68.432 L 325.400 69.663 326.688 68.813 C 327.830 68.059,328.693 67.200,328.308 67.200 C 328.232 67.200,327.547 67.754,326.785 68.432 M323.200 71.275 L 321.400 72.885 323.200 71.565 C 324.190 70.839,325.075 70.190,325.167 70.123 C 325.258 70.055,325.258 69.925,325.166 69.833 C 325.074 69.741,324.189 70.390,323.200 71.275 M78.800 72.894 C 78.800 73.014,80.555 74.516,82.700 76.231 C 84.845 77.946,87.365 79.967,88.300 80.722 C 89.235 81.478,90.000 81.994,90.000 81.868 C 90.000 81.742,87.795 79.895,85.100 77.763 C 82.405 75.630,79.885 73.613,79.500 73.281 C 79.115 72.948,78.800 72.774,78.800 72.894 M315.000 77.644 C 312.800 79.412,310.730 81.150,310.400 81.506 C 310.070 81.863,310.610 81.525,311.600 80.755 C 312.590 79.985,314.205 78.735,315.189 77.977 C 317.246 76.393,319.494 74.398,319.200 74.417 C 319.090 74.424,317.200 75.876,315.000 77.644 M91.400 82.994 C 93.289 84.655,97.200 87.666,97.200 87.460 C 97.200 87.258,92.337 83.336,91.011 82.470 C 90.565 82.178,90.740 82.414,91.400 82.994 M307.600 83.634 L 305.800 85.265 307.700 83.784 C 309.366 82.486,309.859 81.997,309.500 82.001 C 309.445 82.002,308.590 82.736,307.600 83.634 M303.985 86.432 L 302.600 87.663 303.888 86.813 C 305.030 86.059,305.893 85.200,305.508 85.200 C 305.432 85.200,304.747 85.754,303.985 86.432 M300.400 89.275 L 298.600 90.885 300.400 89.565 C 301.390 88.839,302.275 88.190,302.367 88.123 C 302.458 88.055,302.458 87.925,302.366 87.833 C 302.274 87.741,301.389 88.390,300.400 89.275 M101.600 91.109 C 101.600 91.332,101.825 91.601,102.100 91.707 C 102.538 91.876,104.818 93.654,111.100 98.724 C 112.035 99.479,112.800 100.004,112.800 99.892 C 112.800 99.779,111.045 98.284,108.900 96.569 C 106.755 94.854,104.235 92.833,103.300 92.078 C 102.365 91.322,101.600 90.886,101.600 91.109 M292.000 95.854 C 289.690 97.713,286.180 100.475,284.200 101.992 C 280.596 104.755,277.434 107.430,278.216 107.055 C 278.445 106.946,282.405 103.859,287.016 100.196 C 291.627 96.533,295.669 93.384,295.997 93.198 C 296.325 93.012,296.505 92.773,296.397 92.667 C 296.289 92.561,294.310 93.995,292.000 95.854 M115.340 101.903 C 115.496 102.156,116.191 102.767,116.884 103.260 C 117.577 103.754,118.017 103.950,117.860 103.697 C 117.704 103.444,117.009 102.833,116.316 102.340 C 115.623 101.846,115.183 101.650,115.340 101.903 M119.000 104.763 C 119.826 105.717,122.000 107.392,122.000 107.075 C 122.000 106.977,121.145 106.209,120.100 105.368 C 119.055 104.528,118.560 104.255,119.000 104.763 M122.425 107.466 C 122.438 107.650,123.265 108.395,124.263 109.123 C 125.260 109.851,125.966 110.269,125.832 110.052 C 125.434 109.408,122.398 107.104,122.425 107.466 M126.800 110.894 C 127.952 112.138,137.402 119.525,137.597 119.334 C 137.705 119.227,137.502 118.977,137.147 118.778 C 136.791 118.579,134.993 117.208,133.150 115.732 C 127.888 111.516,126.152 110.193,126.800 110.894 M268.420 114.461 C 265.681 116.655,263.163 118.605,262.823 118.795 C 262.484 118.985,262.295 119.224,262.403 119.327 C 262.511 119.430,264.850 117.722,267.600 115.531 C 270.350 113.341,272.869 111.394,273.197 111.204 C 273.525 111.015,273.705 110.773,273.597 110.666 C 273.489 110.560,271.159 112.268,268.420 114.461 M50.400 116.698 C 50.730 116.827,53.295 118.701,56.100 120.863 C 58.905 123.024,61.191 124.659,61.180 124.496 C 61.147 124.022,50.865 116.397,50.306 116.432 C 49.984 116.452,50.018 116.548,50.400 116.698 M348.162 117.262 L 347.400 118.124 348.600 117.383 C 350.234 116.374,350.209 116.400,349.529 116.400 C 349.196 116.400,348.581 116.788,348.162 117.262 M350.197 233.800 C 350.197 298.040,350.244 324.260,350.300 292.068 C 350.356 259.875,350.356 207.315,350.300 175.268 C 350.244 143.220,350.197 169.560,350.197 233.800 M342.927 121.124 C 340.686 122.816,338.841 124.345,338.827 124.522 C 338.801 124.834,344.998 120.213,346.589 118.733 C 348.090 117.338,346.983 118.061,342.927 121.124 M138.140 119.903 C 138.296 120.156,138.991 120.767,139.684 121.260 C 140.377 121.754,140.817 121.950,140.660 121.697 C 140.504 121.444,139.809 120.833,139.116 120.340 C 138.423 119.846,137.983 119.650,138.140 119.903 M260.400 120.849 C 259.006 122.071,259.005 122.072,260.288 121.219 C 260.996 120.748,261.682 120.191,261.812 119.981 C 262.197 119.357,261.877 119.554,260.400 120.849 M141.200 122.229 C 141.200 122.511,141.617 122.879,143.700 124.433 C 145.463 125.749,144.968 125.034,143.000 123.421 C 142.010 122.610,141.200 122.074,141.200 122.229 M256.385 124.032 L 255.000 125.263 256.288 124.413 C 257.430 123.659,258.293 122.800,257.908 122.800 C 257.832 122.800,257.147 123.354,256.385 124.032 M61.600 124.925 C 61.600 125.024,62.261 125.609,63.068 126.225 C 63.876 126.841,64.411 127.141,64.256 126.891 C 63.940 126.379,61.600 124.647,61.600 124.925 M335.924 126.515 C 334.672 127.442,333.637 128.347,333.624 128.527 C 333.611 128.706,334.680 128.005,336.000 126.968 C 338.085 125.330,338.697 124.757,338.300 124.815 C 338.245 124.823,337.176 125.588,335.924 126.515 M252.800 126.875 L 251.000 128.485 252.800 127.165 C 253.790 126.439,254.675 125.790,254.767 125.723 C 254.858 125.655,254.858 125.525,254.766 125.433 C 254.674 125.341,253.789 125.990,252.800 126.875 M148.211 127.834 C 148.878 128.475,150.228 129.620,151.211 130.377 C 152.195 131.135,153.765 132.372,154.700 133.126 C 155.635 133.879,156.400 134.405,156.400 134.293 C 156.400 134.101,152.755 131.111,148.800 128.057 C 147.337 126.927,147.227 126.886,148.211 127.834 M66.000 128.398 C 66.770 129.091,67.940 130.019,68.600 130.461 C 69.659 131.169,69.636 131.115,68.400 130.002 C 67.630 129.309,66.460 128.381,65.800 127.939 C 64.741 127.231,64.764 127.285,66.000 128.398 M247.600 130.865 C 245.950 132.182,244.330 133.546,244.000 133.898 C 243.321 134.621,246.333 132.406,248.276 130.752 C 248.978 130.155,249.876 129.485,250.273 129.263 C 250.669 129.042,250.905 128.773,250.797 128.666 C 250.689 128.560,249.250 129.549,247.600 130.865 M331.585 130.032 L 330.200 131.263 331.488 130.413 C 332.630 129.659,333.493 128.800,333.108 128.800 C 333.032 128.800,332.347 129.354,331.585 130.032 M70.000 131.346 C 70.000 131.457,71.935 133.033,74.300 134.848 C 76.665 136.664,79.725 139.031,81.100 140.109 C 82.475 141.187,83.589 141.918,83.575 141.734 C 83.562 141.550,82.797 140.851,81.875 140.181 C 80.954 139.511,77.905 137.203,75.100 135.053 C 72.295 132.904,70.000 131.235,70.000 131.346 M323.600 136.050 C 320.190 138.699,316.290 141.707,314.932 142.733 C 313.575 143.759,312.534 144.668,312.619 144.753 C 312.704 144.838,314.355 143.666,316.287 142.150 C 318.219 140.633,321.510 138.096,323.600 136.512 C 327.644 133.446,330.329 131.232,330.000 131.233 C 329.890 131.233,327.010 133.401,323.600 136.050 M156.800 134.518 C 156.800 134.620,157.647 135.397,158.681 136.245 C 159.716 137.093,160.434 137.578,160.276 137.323 C 159.940 136.779,156.800 134.245,156.800 134.518 M241.200 136.075 L 239.400 137.685 241.200 136.365 C 242.190 135.639,243.075 134.990,243.167 134.923 C 243.258 134.855,243.258 134.725,243.166 134.633 C 243.074 134.541,242.189 135.190,241.200 136.075 M160.940 137.903 C 161.096 138.156,161.791 138.767,162.484 139.260 C 163.177 139.754,163.617 139.950,163.460 139.697 C 163.304 139.444,162.609 138.833,161.916 138.340 C 161.223 137.846,160.783 137.650,160.940 137.903 M238.229 138.229 C 237.805 138.538,237.536 138.869,237.630 138.963 C 237.724 139.057,238.148 138.881,238.571 138.571 C 238.995 138.262,239.264 137.931,239.170 137.837 C 239.076 137.743,238.652 137.919,238.229 138.229 M234.000 141.634 C 231.142 143.931,229.417 145.502,230.800 144.547 C 232.034 143.695,237.200 139.504,237.200 139.355 C 237.200 139.076,237.032 139.196,234.000 141.634 M84.169 142.349 C 84.559 142.982,86.801 144.499,86.795 144.127 C 86.792 143.947,86.143 143.381,85.352 142.868 C 84.560 142.355,84.028 142.122,84.169 142.349 M168.000 143.552 C 168.000 143.798,168.135 144.003,168.300 144.007 C 168.594 144.014,169.031 144.347,173.562 148.009 C 177.411 151.119,179.200 152.474,179.200 152.277 C 179.200 152.173,177.445 150.684,175.300 148.969 C 173.155 147.254,170.635 145.233,169.700 144.478 C 168.765 143.722,168.000 143.305,168.000 143.552 M224.717 148.950 C 220.292 152.476,217.210 155.149,219.200 153.735 C 219.530 153.501,221.703 151.787,224.029 149.927 C 226.355 148.066,228.685 146.246,229.205 145.881 C 229.726 145.517,230.073 145.147,229.976 145.059 C 229.879 144.972,227.513 146.723,224.717 148.950 M307.185 148.832 L 305.800 150.063 307.088 149.213 C 308.230 148.459,309.093 147.600,308.708 147.600 C 308.632 147.600,307.947 148.154,307.185 148.832 M94.400 150.133 C 94.400 150.248,95.435 151.132,96.700 152.096 C 97.965 153.060,100.575 155.066,102.500 156.553 C 104.425 158.041,105.989 159.111,105.975 158.929 C 105.962 158.748,104.142 157.250,101.932 155.600 C 99.721 153.950,97.123 151.998,96.157 151.262 C 95.190 150.526,94.400 150.018,94.400 150.133 M303.985 151.232 L 302.600 152.463 303.888 151.613 C 305.030 150.859,305.893 150.000,305.508 150.000 C 305.432 150.000,304.747 150.554,303.985 151.232 M179.600 152.700 C 179.600 152.869,179.960 153.232,180.400 153.507 C 180.840 153.782,181.200 153.869,181.200 153.700 C 181.200 153.531,180.840 153.168,180.400 152.893 C 179.960 152.618,179.600 152.531,179.600 152.700 M298.723 155.151 C 296.811 156.608,295.236 157.939,295.223 158.108 C 295.211 158.278,296.595 157.317,298.300 155.972 C 300.005 154.628,301.669 153.378,301.997 153.194 C 302.325 153.010,302.505 152.779,302.397 152.681 C 302.289 152.582,300.636 153.694,298.723 155.151 M216.400 155.482 C 214.266 157.166,211.142 159.884,212.000 159.309 C 214.735 157.479,219.060 153.884,218.349 154.031 C 218.267 154.048,217.390 154.701,216.400 155.482 M184.800 156.798 C 185.570 157.491,186.740 158.422,187.400 158.867 C 188.440 159.568,188.413 159.509,187.200 158.429 C 186.430 157.742,185.260 156.811,184.600 156.359 C 183.565 155.650,183.592 155.710,184.800 156.798 M293.305 159.325 C 292.593 159.806,292.008 160.344,292.005 160.520 C 292.002 160.697,292.630 160.360,293.400 159.773 C 294.170 159.186,294.800 158.636,294.800 158.553 C 294.800 158.327,294.719 158.369,293.305 159.325 M188.812 159.873 C 188.819 160.053,189.671 160.830,190.705 161.600 C 191.739 162.370,192.948 163.298,193.392 163.662 C 200.105 169.167,199.836 169.088,203.077 166.500 C 204.385 165.455,206.073 164.115,206.828 163.522 C 207.583 162.929,208.900 161.894,209.755 161.222 C 210.610 160.550,211.185 160.000,211.032 160.000 C 210.746 160.000,210.393 160.266,204.204 165.158 C 199.529 168.852,200.793 169.243,190.500 160.921 C 189.565 160.165,188.806 159.693,188.812 159.873 M108.400 160.949 C 108.400 161.035,109.030 161.586,109.800 162.173 C 110.570 162.760,111.198 163.097,111.195 162.920 C 111.192 162.744,110.562 162.193,109.795 161.696 C 109.028 161.199,108.400 160.863,108.400 160.949 M289.400 162.360 C 285.073 165.706,276.047 172.653,274.797 173.600 C 274.071 174.150,272.902 175.050,272.200 175.600 C 271.498 176.150,270.327 177.050,269.598 177.600 C 268.869 178.150,267.243 179.410,265.984 180.400 C 264.725 181.390,260.865 184.360,257.405 187.000 C 253.946 189.640,249.919 192.744,248.458 193.898 C 246.996 195.052,245.665 195.997,245.500 195.998 C 245.335 195.999,245.200 196.182,245.200 196.404 C 245.200 196.757,251.221 192.338,257.446 187.418 C 258.572 186.528,262.426 183.550,266.011 180.800 C 269.596 178.050,274.287 174.450,276.435 172.800 C 278.583 171.150,282.792 167.925,285.788 165.633 C 290.560 161.983,291.988 160.781,291.524 160.807 C 291.456 160.811,290.500 161.510,289.400 162.360 M111.716 163.463 C 111.859 163.695,113.826 165.290,116.088 167.008 C 118.350 168.726,121.325 171.017,122.700 172.100 C 124.075 173.183,125.198 173.918,125.195 173.734 C 125.192 173.550,124.607 173.004,123.895 172.519 C 123.183 172.034,120.620 170.094,118.200 168.206 C 112.468 163.735,111.401 162.955,111.716 163.463 M126.781 175.113 C 127.341 175.615,130.590 178.162,134.000 180.773 C 137.410 183.385,141.550 186.559,143.200 187.828 C 149.855 192.945,152.927 195.206,151.600 194.010 C 150.830 193.315,147.860 190.964,145.000 188.783 C 142.140 186.603,137.910 183.360,135.600 181.577 C 127.028 174.960,124.734 173.279,126.781 175.113 M155.369 197.149 C 155.759 197.782,158.001 199.299,157.995 198.927 C 157.992 198.747,157.343 198.181,156.552 197.668 C 155.760 197.155,155.228 196.922,155.369 197.149 M243.185 198.032 L 241.800 199.263 243.088 198.413 C 244.230 197.659,245.093 196.800,244.708 196.800 C 244.632 196.800,243.947 197.354,243.185 198.032 M158.544 199.509 C 158.860 200.021,161.200 201.753,161.200 201.475 C 161.200 201.376,160.539 200.791,159.732 200.175 C 158.924 199.559,158.389 199.259,158.544 199.509 M237.800 202.086 C 235.820 203.627,233.498 205.408,232.640 206.044 C 231.782 206.680,231.225 207.200,231.403 207.200 C 231.734 207.200,234.546 205.134,238.339 202.105 C 239.516 201.165,240.774 200.230,241.136 200.028 C 241.497 199.826,241.705 199.575,241.597 199.472 C 241.489 199.369,239.780 200.545,237.800 202.086 M161.600 201.746 C 161.600 201.918,165.888 205.384,168.568 207.378 C 169.431 208.020,170.022 208.359,169.881 208.130 C 169.586 207.654,161.600 201.496,161.600 201.746 M227.200 210.247 C 225.330 211.690,222.496 213.860,220.903 215.069 C 219.310 216.277,217.880 217.470,217.726 217.720 C 217.572 217.970,219.685 216.458,222.423 214.360 C 225.160 212.262,228.269 209.883,229.331 209.073 C 230.392 208.263,231.112 207.605,230.931 207.611 C 230.749 207.617,229.070 208.803,227.200 210.247 M172.540 210.303 C 172.696 210.556,173.391 211.167,174.084 211.660 C 174.777 212.154,175.217 212.350,175.060 212.097 C 174.904 211.844,174.209 211.233,173.516 210.740 C 172.823 210.246,172.383 210.050,172.540 210.303 M175.740 212.703 C 175.896 212.956,176.591 213.567,177.284 214.060 C 177.977 214.554,178.417 214.750,178.260 214.497 C 178.104 214.244,177.409 213.633,176.716 213.140 C 176.023 212.646,175.583 212.450,175.740 212.703 M178.800 214.973 C 178.800 215.152,187.348 221.853,188.219 222.357 C 189.087 222.860,186.462 220.687,182.700 217.790 C 180.555 216.138,178.800 214.871,178.800 214.973 M215.135 219.512 C 214.132 220.330,211.855 222.080,210.074 223.400 C 208.293 224.720,206.828 225.943,206.818 226.117 C 206.808 226.291,208.015 225.479,209.500 224.312 C 211.629 222.638,216.179 219.198,217.167 218.515 C 217.258 218.452,217.249 218.315,217.145 218.212 C 217.042 218.108,216.137 218.693,215.135 219.512 M189.600 223.314 C 189.600 223.406,190.725 224.333,192.100 225.373 C 193.475 226.414,193.970 226.697,193.200 226.003 C 191.593 224.555,189.600 223.066,189.600 223.314 M203.400 228.595 C 200.319 230.982,199.854 231.129,198.631 230.100 C 197.801 229.401,197.801 229.401,198.562 230.300 C 198.981 230.795,199.599 231.200,199.934 231.200 C 200.479 231.200,206.400 226.948,206.400 226.558 C 206.400 226.284,206.259 226.379,203.400 228.595 " stroke="none" fill="#f28c84" fill-rule="evenodd"></path></g></svg>