<svg id="svg" version="1.1" xmlns="http://www.w3.org/2000/svg" xmlns:xlink="http://www.w3.org/1999/xlink" width="400" height="400" viewBox="0, 0, 400,400"><g id="svgg"><path id="path0" d="M217.600 136.282 C 216.610 136.634,215.667 137.144,215.505 137.416 C 215.343 137.688,214.758 138.024,214.205 138.163 C 213.652 138.302,213.200 138.568,213.200 138.756 C 213.200 138.943,212.345 139.331,211.300 139.618 C 210.255 139.906,209.292 140.301,209.160 140.498 C 209.027 140.694,207.047 141.149,204.760 141.510 C 202.472 141.870,200.510 142.282,200.400 142.425 C 200.290 142.567,198.791 142.891,197.069 143.144 C 195.347 143.397,193.691 143.852,193.389 144.154 C 193.087 144.456,192.200 144.823,191.420 144.970 C 190.639 145.116,190.000 145.395,190.000 145.589 C 190.000 145.952,187.762 147.200,187.110 147.200 C 186.908 147.200,186.489 147.454,186.179 147.764 C 185.869 148.073,184.892 148.449,184.008 148.599 C 183.124 148.748,182.400 149.016,182.400 149.194 C 182.400 149.372,180.870 149.735,179.000 150.000 C 177.130 150.265,175.600 150.619,175.600 150.786 C 175.600 150.954,174.250 151.308,172.600 151.574 C 170.950 151.840,169.600 152.192,169.600 152.356 C 169.600 152.520,168.610 152.966,167.400 153.347 C 166.190 153.729,165.200 154.200,165.200 154.395 C 165.200 154.589,164.570 154.976,163.800 155.254 C 163.030 155.533,162.400 155.876,162.400 156.017 C 162.400 156.157,161.410 156.494,160.200 156.765 C 158.990 157.036,158.000 157.424,158.000 157.629 C 158.000 157.833,157.472 158.000,156.826 158.000 C 154.625 158.000,151.625 159.789,151.607 161.113 C 151.603 161.394,151.330 161.729,151.000 161.855 C 150.492 162.050,150.399 163.445,150.390 170.943 C 150.381 179.453,150.091 182.641,149.279 183.159 C 149.071 183.291,148.773 183.986,148.618 184.703 C 148.462 185.420,147.990 186.191,147.567 186.417 C 147.145 186.643,146.800 187.081,146.800 187.390 C 146.800 188.652,145.932 188.296,143.627 186.089 C 142.292 184.811,141.200 183.598,141.200 183.395 C 141.200 182.786,139.131 181.200,138.338 181.200 C 137.932 181.200,137.600 181.470,137.600 181.800 C 137.600 182.130,137.437 182.400,137.238 182.400 C 136.835 182.400,135.600 185.747,135.600 186.838 C 135.600 187.220,135.375 187.625,135.100 187.736 C 134.730 187.886,134.719 188.025,135.059 188.270 C 135.311 188.451,135.718 189.349,135.964 190.264 C 136.389 191.846,138.313 194.400,139.080 194.400 C 139.725 194.400,142.693 197.510,143.251 198.770 C 143.550 199.446,143.924 200.000,144.082 200.000 C 144.240 200.000,144.592 201.080,144.864 202.400 C 145.137 203.720,145.504 204.800,145.680 204.800 C 145.856 204.800,146.001 205.115,146.002 205.500 C 146.003 205.885,146.633 206.885,147.402 207.722 C 148.171 208.560,148.800 209.505,148.800 209.822 C 148.800 210.140,148.944 210.400,149.120 210.400 C 149.295 210.400,149.681 211.075,149.976 211.900 C 150.271 212.725,150.659 213.495,150.838 213.612 C 151.016 213.729,151.392 215.034,151.673 216.512 C 151.953 217.990,152.321 219.200,152.491 219.200 C 152.661 219.200,152.800 219.578,152.800 220.040 C 152.800 221.688,154.007 223.538,155.261 223.813 C 155.917 223.958,156.551 224.328,156.670 224.638 C 156.788 224.947,157.098 225.200,157.357 225.200 C 157.860 225.200,159.200 227.220,159.200 227.979 C 159.200 228.826,162.415 232.224,163.561 232.588 C 164.707 232.951,167.163 235.515,167.447 236.643 C 167.579 237.169,167.892 237.603,168.143 237.606 C 168.460 237.610,168.451 237.707,168.113 237.922 C 167.322 238.424,166.899 254.437,167.655 255.212 C 167.972 255.535,168.547 256.474,168.933 257.298 C 169.525 258.560,169.885 258.836,171.218 259.049 C 172.088 259.188,172.800 259.459,172.800 259.651 C 172.800 259.843,173.550 260.000,174.467 260.000 C 176.690 260.000,181.200 260.802,181.200 261.197 C 181.200 261.369,181.824 261.628,182.587 261.771 C 183.350 261.914,184.207 262.264,184.491 262.548 C 184.775 262.833,186.086 263.399,187.404 263.808 C 188.722 264.216,189.890 264.662,190.000 264.798 C 190.110 264.934,190.830 265.295,191.600 265.599 C 192.370 265.904,193.136 266.375,193.302 266.645 C 193.469 266.916,194.144 267.256,194.802 267.401 C 195.461 267.545,196.000 267.829,196.000 268.032 C 196.000 268.235,198.065 268.400,200.600 268.400 C 203.130 268.400,205.200 268.264,205.200 268.098 C 205.200 267.931,205.785 267.537,206.500 267.222 C 207.215 266.907,208.038 266.413,208.329 266.125 C 208.619 265.836,209.105 265.600,209.409 265.600 C 209.712 265.600,210.104 265.366,210.280 265.080 C 210.456 264.794,211.725 264.226,213.100 263.817 C 214.475 263.408,215.600 262.951,215.600 262.801 C 215.600 262.651,216.365 262.282,217.300 261.981 C 218.235 261.680,219.094 261.302,219.209 261.140 C 219.472 260.771,224.103 260.007,226.100 260.003 C 226.925 260.001,227.600 259.843,227.600 259.651 C 227.600 259.459,228.326 259.186,229.212 259.044 C 230.436 258.849,230.916 258.547,231.203 257.793 C 231.410 257.247,231.728 256.800,231.910 256.800 C 233.004 256.800,233.300 253.714,233.019 245.227 C 232.742 236.848,232.757 236.571,233.567 235.638 C 234.025 235.110,234.400 234.525,234.400 234.339 C 234.400 234.152,234.670 234.000,235.000 234.000 C 235.330 234.000,235.600 233.816,235.600 233.591 C 235.600 233.367,236.093 232.962,236.696 232.691 C 238.399 231.928,240.761 229.434,241.325 227.804 C 241.635 226.909,242.302 226.066,243.018 225.664 C 243.668 225.299,244.264 224.853,244.342 224.674 C 244.420 224.495,244.874 224.200,245.350 224.019 C 245.827 223.838,246.483 223.174,246.808 222.545 C 247.133 221.915,247.502 221.310,247.627 221.200 C 247.753 221.090,248.084 219.695,248.364 218.100 C 248.644 216.505,249.008 215.200,249.172 215.200 C 249.337 215.200,249.710 214.210,250.000 213.000 C 250.290 211.790,250.661 210.800,250.825 210.800 C 250.988 210.800,251.310 210.260,251.540 209.600 C 251.770 208.940,252.127 208.400,252.333 208.400 C 252.538 208.400,252.804 208.027,252.924 207.570 C 253.043 207.114,253.494 206.648,253.925 206.535 C 254.517 206.381,254.824 205.750,255.175 203.965 C 255.431 202.664,255.791 201.600,255.976 201.600 C 256.160 201.600,256.429 200.970,256.574 200.199 C 256.850 198.729,260.518 194.400,261.488 194.400 C 261.770 194.400,262.000 194.220,262.000 194.000 C 262.000 193.780,262.237 193.600,262.526 193.600 C 263.069 193.600,264.400 191.199,264.400 190.220 C 264.400 189.916,264.598 189.601,264.840 189.520 C 265.356 189.348,265.439 186.412,264.938 186.048 C 264.750 185.912,264.253 184.765,263.833 183.500 C 262.761 180.268,262.167 180.409,258.142 184.853 C 255.205 188.096,253.600 188.996,253.600 187.399 C 253.600 187.095,253.258 186.606,252.840 186.313 C 252.422 186.020,251.878 185.034,251.633 184.121 C 251.387 183.209,250.964 182.388,250.693 182.298 C 250.325 182.175,250.149 179.371,250.000 171.252 C 249.873 164.330,249.647 160.266,249.381 160.085 C 249.150 159.928,248.738 159.035,248.464 158.100 C 248.191 157.165,247.795 156.400,247.584 156.400 C 247.373 156.400,247.200 156.149,247.200 155.843 C 247.200 155.536,245.580 153.656,243.600 151.665 C 241.620 149.674,240.000 147.925,240.000 147.779 C 240.000 147.359,235.661 143.200,235.223 143.200 C 235.006 143.200,234.622 142.814,234.369 142.343 C 234.117 141.871,233.432 141.016,232.847 140.443 C 232.261 139.869,231.473 138.746,231.095 137.948 C 230.258 136.178,229.830 136.050,224.000 135.822 C 220.443 135.683,218.992 135.787,217.600 136.282 M180.668 178.132 C 181.529 178.994,181.293 187.761,180.382 188.732 C 179.478 189.697,170.640 189.975,169.732 189.068 C 169.002 188.337,169.085 178.972,169.829 178.229 C 170.572 177.485,179.937 177.402,180.668 178.132 M230.668 178.132 C 231.529 178.994,231.293 187.761,230.382 188.732 C 229.478 189.697,220.640 189.975,219.732 189.068 C 219.002 188.337,219.085 178.972,219.829 178.229 C 220.572 177.485,229.937 177.402,230.668 178.132 M195.000 276.559 C 193.269 278.464,192.926 279.248,193.233 280.600 C 193.383 281.260,193.527 282.475,193.553 283.300 C 193.579 284.125,193.780 284.800,194.000 284.800 C 194.237 284.800,194.400 286.267,194.400 288.400 C 194.400 290.380,194.252 292.000,194.072 292.000 C 193.721 292.000,192.566 306.300,192.891 306.625 C 193.776 307.509,195.193 304.852,195.198 302.300 C 195.199 301.695,195.380 301.200,195.600 301.200 C 195.841 301.200,196.000 299.533,196.000 297.000 L 196.000 292.800 200.400 292.800 L 204.800 292.800 204.803 296.500 C 204.808 302.907,205.823 306.800,207.489 306.800 C 207.847 306.800,208.000 306.081,208.000 304.400 C 208.000 303.080,207.846 302.000,207.659 302.000 C 206.399 302.000,206.320 281.996,207.576 281.213 C 208.297 280.763,208.154 279.332,207.296 278.411 C 206.803 277.882,206.400 277.287,206.400 277.089 C 206.400 275.796,204.561 275.227,200.400 275.232 L 196.200 275.238 195.000 276.559 M204.800 280.800 L 204.800 282.800 200.400 282.800 L 196.000 282.800 196.000 280.800 L 196.000 278.800 200.400 278.800 L 204.800 278.800 204.800 280.800 " stroke="none" fill="#fcb348" fill-rule="evenodd"></path><path id="path1" d="M50.093 38.291 C 47.774 38.576,46.885 39.834,46.573 43.273 L 46.299 46.299 43.273 46.573 C 40.704 46.806,40.094 47.009,39.224 47.924 L 38.200 49.000 38.100 199.700 C 38.011 333.421,38.068 350.400,38.600 350.400 C 38.930 350.400,39.200 350.580,39.200 350.800 C 39.200 351.020,39.020 351.200,38.800 351.200 C 38.580 351.200,38.400 351.530,38.400 351.932 C 38.400 352.804,40.084 353.807,40.973 353.466 C 41.318 353.333,41.600 353.417,41.600 353.652 C 41.600 353.920,42.451 354.027,43.900 353.939 L 46.200 353.800 46.323 355.500 C 46.391 356.435,46.604 357.200,46.798 357.200 C 46.991 357.200,47.052 357.803,46.932 358.539 C 46.625 360.431,48.311 362.145,50.255 361.918 C 50.995 361.831,51.600 361.898,51.600 362.067 C 51.600 362.235,60.465 362.334,71.300 362.286 L 91.000 362.200 91.088 358.000 C 91.308 347.539,92.044 334.190,92.407 334.067 C 92.623 333.993,92.800 333.398,92.800 332.744 C 92.800 330.821,93.689 326.000,94.043 326.000 C 94.222 326.000,94.573 325.242,94.823 324.316 C 95.072 323.390,95.499 322.445,95.772 322.216 C 96.045 321.987,96.486 321.035,96.750 320.100 C 97.015 319.165,97.392 318.400,97.587 318.400 C 97.782 318.400,98.160 317.050,98.426 315.400 C 98.692 313.750,99.036 312.400,99.191 312.400 C 99.345 312.400,99.697 311.140,99.972 309.600 C 100.247 308.060,100.614 306.800,100.786 306.800 C 100.959 306.800,101.214 306.228,101.354 305.530 C 101.622 304.190,101.687 304.099,104.534 301.099 C 105.527 300.054,106.546 298.569,106.800 297.799 C 107.054 297.030,107.391 296.400,107.548 296.400 C 107.705 296.400,108.051 295.589,108.316 294.598 C 108.592 293.568,109.254 292.412,109.864 291.898 C 110.450 291.404,111.293 290.595,111.737 290.100 C 112.181 289.605,112.738 289.200,112.974 289.200 C 113.211 289.200,113.661 288.615,113.973 287.900 C 114.286 287.185,114.870 286.365,115.271 286.077 C 115.672 285.790,116.000 285.385,116.000 285.177 C 116.000 284.688,117.488 283.200,117.977 283.200 C 118.185 283.200,118.590 282.876,118.877 282.480 C 119.165 282.084,119.992 281.519,120.715 281.225 C 121.439 280.931,122.227 280.322,122.468 279.873 C 123.113 278.668,126.515 275.200,127.052 275.200 C 127.306 275.200,127.609 274.953,127.725 274.651 C 127.841 274.350,128.403 273.986,128.974 273.842 C 130.095 273.561,130.640 273.154,133.591 270.400 C 136.456 267.725,136.606 267.631,138.788 267.127 C 139.894 266.872,140.800 266.537,140.800 266.383 C 140.800 266.230,141.655 265.869,142.700 265.582 C 143.745 265.294,144.690 264.954,144.800 264.826 C 144.910 264.698,145.990 264.248,147.200 263.827 C 148.410 263.405,149.635 262.731,149.923 262.330 C 150.210 261.928,150.686 261.600,150.980 261.600 C 151.274 261.600,151.609 261.353,151.725 261.051 C 151.841 260.748,152.567 260.383,153.339 260.238 C 154.111 260.093,154.800 259.819,154.871 259.629 C 154.942 259.438,156.875 259.039,159.166 258.741 L 163.331 258.200 163.835 256.800 C 164.974 253.636,164.144 238.571,162.804 238.079 C 162.622 238.012,162.070 237.607,161.576 237.179 C 161.082 236.751,160.522 236.400,160.332 236.400 C 159.900 236.400,156.400 232.776,156.400 232.328 C 156.400 232.148,156.040 231.640,155.600 231.200 C 155.160 230.760,154.800 230.130,154.800 229.800 C 154.800 229.470,154.524 229.200,154.187 229.200 C 153.851 229.200,153.478 228.948,153.360 228.639 C 153.241 228.331,152.784 227.984,152.343 227.869 C 151.902 227.754,151.443 227.286,151.324 226.830 C 151.204 226.373,150.938 226.000,150.733 226.000 C 150.527 226.000,150.170 225.460,149.940 224.800 C 149.710 224.140,149.388 223.600,149.225 223.600 C 149.061 223.600,148.706 222.610,148.435 221.400 C 148.164 220.190,147.793 219.200,147.610 219.200 C 147.428 219.200,147.102 218.705,146.886 218.100 C 146.671 217.495,145.762 216.236,144.866 215.303 C 143.874 214.269,143.134 213.057,142.974 212.203 C 142.829 211.431,142.570 210.800,142.397 210.800 C 142.224 210.800,141.852 209.251,141.571 207.358 C 141.289 205.465,140.820 203.678,140.529 203.386 C 140.238 203.095,139.998 202.709,139.996 202.529 C 139.991 202.147,137.438 199.600,137.061 199.600 C 136.585 199.600,134.425 197.110,134.158 196.253 C 134.012 195.784,133.745 195.305,133.565 195.188 C 133.385 195.071,133.008 193.766,132.727 192.288 C 132.447 190.810,132.079 189.600,131.909 189.600 C 131.739 189.600,131.600 188.070,131.600 186.200 C 131.600 184.200,131.765 182.800,132.000 182.800 C 132.603 182.800,132.508 178.103,131.900 177.900 C 131.268 177.689,131.214 145.302,131.845 144.869 C 132.061 144.721,132.442 142.934,132.693 140.898 C 132.976 138.588,133.383 136.960,133.774 136.569 C 134.118 136.225,134.400 135.767,134.400 135.552 C 134.400 134.997,136.988 132.400,137.540 132.400 C 137.793 132.400,138.000 132.143,138.000 131.829 C 138.000 131.514,138.235 131.019,138.522 130.729 C 138.809 130.438,139.275 128.895,139.558 127.300 C 139.841 125.705,140.191 124.400,140.336 124.400 C 140.481 124.400,140.935 123.353,141.343 122.074 C 141.865 120.441,142.430 119.518,143.242 118.974 C 143.878 118.548,144.398 118.061,144.399 117.890 C 144.399 117.720,144.809 117.425,145.308 117.235 C 145.808 117.045,146.483 116.380,146.808 115.757 C 147.134 115.134,147.715 114.304,148.100 113.912 C 148.485 113.520,148.800 112.930,148.800 112.600 C 148.800 112.270,148.946 112.000,149.125 112.000 C 149.304 112.000,149.692 111.385,149.987 110.633 C 150.361 109.681,150.991 109.055,152.062 108.572 C 152.908 108.191,153.600 107.770,153.600 107.637 C 153.600 107.504,154.162 107.146,154.850 106.842 C 156.367 106.171,158.191 104.322,158.886 102.750 C 159.168 102.112,159.715 101.491,160.100 101.368 C 160.485 101.246,160.800 100.990,160.800 100.799 C 160.800 100.608,161.430 100.224,162.200 99.946 C 162.970 99.667,163.600 99.328,163.600 99.192 C 163.600 99.056,164.500 98.700,165.600 98.400 C 166.700 98.100,167.600 97.744,167.600 97.608 C 167.600 97.472,168.647 97.144,169.926 96.880 C 172.084 96.434,174.000 95.039,174.000 93.913 C 174.000 93.741,174.236 93.600,174.525 93.600 C 174.813 93.600,175.436 93.240,175.909 92.799 C 176.914 91.862,180.994 90.814,183.667 90.806 C 184.725 90.803,185.600 90.599,185.688 90.335 C 185.921 89.636,218.466 89.602,218.700 90.300 C 218.791 90.575,219.275 90.800,219.774 90.800 C 222.446 90.800,225.125 92.750,225.970 95.308 C 226.240 96.128,226.599 96.800,226.767 96.800 C 226.935 96.800,227.310 97.520,227.600 98.400 C 227.890 99.280,228.260 100.000,228.421 100.000 C 228.582 100.000,228.826 100.450,228.964 101.000 C 229.102 101.550,229.383 102.000,229.588 102.000 C 229.794 102.000,230.555 102.605,231.281 103.344 C 232.186 104.266,233.259 104.843,234.700 105.184 C 235.855 105.456,236.800 105.807,236.800 105.962 C 236.800 106.117,238.150 106.471,239.800 106.748 C 241.450 107.025,242.800 107.413,242.800 107.610 C 242.800 107.807,243.531 108.187,244.424 108.454 C 245.317 108.722,246.223 109.269,246.438 109.670 C 246.652 110.072,247.097 110.400,247.427 110.400 C 247.756 110.400,248.142 110.715,248.286 111.100 C 248.619 111.995,250.479 114.000,250.976 114.000 C 251.184 114.000,252.379 115.080,253.631 116.400 C 254.883 117.720,256.096 118.800,256.327 118.800 C 256.557 118.800,256.860 119.160,257.000 119.600 C 257.140 120.040,257.413 120.400,257.608 120.400 C 257.803 120.400,258.279 121.075,258.666 121.900 C 259.053 122.725,259.591 123.627,259.861 123.905 C 260.131 124.182,260.474 125.217,260.622 126.205 C 260.770 127.192,261.022 128.000,261.182 128.000 C 261.342 128.000,261.694 128.990,261.965 130.200 C 262.236 131.410,262.606 132.400,262.788 132.400 C 263.335 132.400,265.600 134.543,265.600 135.061 C 265.600 135.326,265.880 135.823,266.223 136.166 C 266.566 136.509,267.051 137.917,267.301 139.295 C 267.551 140.673,267.912 141.908,268.103 142.039 C 268.618 142.394,269.301 166.945,268.970 173.200 C 268.813 176.170,268.666 181.532,268.642 185.115 C 268.615 189.322,268.446 191.730,268.165 191.915 C 267.925 192.072,267.514 193.069,267.251 194.132 C 266.988 195.194,266.554 196.333,266.286 196.663 C 265.594 197.518,263.452 199.596,261.815 201.000 C 261.046 201.660,260.413 202.412,260.408 202.671 C 260.404 202.931,260.168 203.381,259.884 203.671 C 259.600 203.962,259.053 205.994,258.668 208.186 C 258.283 210.379,257.840 212.269,257.683 212.386 C 257.527 212.504,257.129 213.133,256.799 213.785 C 256.470 214.437,255.637 215.517,254.948 216.185 C 254.260 216.853,253.459 218.075,253.168 218.900 C 252.877 219.725,252.511 220.400,252.355 220.400 C 252.198 220.400,251.948 221.124,251.799 222.008 C 251.649 222.892,251.297 223.846,251.016 224.127 C 250.735 224.407,250.388 225.007,250.245 225.459 C 250.101 225.910,248.863 227.474,247.492 228.934 C 246.121 230.393,244.010 232.665,242.800 233.983 C 241.590 235.301,240.384 236.384,240.120 236.389 C 239.856 236.395,239.496 236.639,239.320 236.930 C 239.144 237.222,238.685 237.576,238.300 237.718 C 237.915 237.859,237.600 238.251,237.600 238.587 C 237.600 238.924,237.438 239.200,237.241 239.200 C 236.139 239.200,235.492 253.596,236.466 256.440 C 237.082 258.240,237.102 258.249,241.747 258.818 C 243.982 259.092,246.010 259.552,246.312 259.855 C 246.612 260.155,247.210 260.400,247.641 260.400 C 248.072 260.400,248.529 260.670,248.655 261.000 C 248.782 261.330,249.091 261.600,249.343 261.600 C 249.594 261.601,250.302 262.033,250.917 262.561 C 251.531 263.089,252.836 263.758,253.817 264.048 C 254.797 264.338,255.600 264.687,255.600 264.823 C 255.600 264.960,256.590 265.310,257.800 265.600 C 259.010 265.890,260.000 266.263,260.000 266.429 C 260.000 266.594,260.724 266.852,261.608 267.001 C 262.492 267.151,263.469 267.527,263.779 267.836 C 264.089 268.146,264.511 268.400,264.716 268.400 C 264.922 268.400,266.060 269.386,267.245 270.591 C 268.430 271.796,269.625 272.786,269.900 272.791 C 270.175 272.796,270.400 272.973,270.400 273.184 C 270.400 273.395,271.120 273.784,272.000 274.047 C 272.880 274.311,273.600 274.683,273.600 274.873 C 273.600 275.064,274.052 275.392,274.605 275.602 C 275.158 275.812,275.817 276.438,276.069 276.992 C 276.322 277.546,276.658 278.000,276.816 278.000 C 276.974 278.000,277.318 278.518,277.580 279.152 C 277.876 279.867,278.644 280.569,279.605 281.002 C 280.456 281.386,281.248 281.948,281.364 282.250 C 281.480 282.553,281.806 282.803,282.087 282.807 C 282.700 282.815,284.400 284.532,284.400 285.142 C 284.400 285.379,284.721 285.743,285.112 285.953 C 285.504 286.163,286.077 286.978,286.386 287.764 C 286.694 288.549,287.260 289.292,287.643 289.414 C 288.761 289.768,291.557 292.688,291.833 293.790 C 291.973 294.345,292.208 294.800,292.356 294.800 C 292.504 294.800,292.865 295.610,293.157 296.600 C 293.449 297.590,293.848 298.400,294.044 298.400 C 294.240 298.400,294.400 298.638,294.400 298.928 C 294.400 299.218,294.805 299.816,295.300 300.256 C 296.718 301.516,298.789 304.150,298.795 304.700 C 298.798 304.975,298.960 305.200,299.157 305.200 C 299.353 305.200,299.746 306.370,300.030 307.800 C 300.314 309.230,300.672 310.400,300.825 310.400 C 300.978 310.400,301.309 311.787,301.561 313.482 C 301.813 315.178,302.159 316.663,302.329 316.782 C 302.499 316.902,302.973 318.125,303.383 319.500 C 303.792 320.875,304.264 322.000,304.432 322.000 C 304.600 322.000,304.958 322.675,305.227 323.500 C 305.496 324.325,305.872 325.102,306.064 325.227 C 306.255 325.352,306.629 326.522,306.895 327.827 C 307.160 329.132,307.497 330.290,307.643 330.400 C 308.098 330.742,308.764 340.936,309.049 351.906 L 309.322 362.411 329.302 362.392 C 355.512 362.367,353.605 362.766,353.851 357.257 C 354.011 353.666,353.666 354.011,357.257 353.851 C 361.185 353.676,361.823 353.299,362.143 350.965 C 362.517 348.232,362.453 51.600,362.078 51.600 C 361.904 51.600,361.831 50.995,361.918 50.255 C 362.145 48.311,360.431 46.625,358.539 46.932 C 357.803 47.052,357.200 46.981,357.200 46.775 C 357.200 46.569,356.486 46.400,355.614 46.400 C 354.438 46.400,353.918 46.193,353.600 45.600 C 353.310 45.058,353.305 44.800,353.586 44.800 C 354.859 44.800,353.989 41.600,352.700 41.540 C 351.490 41.484,351.476 41.469,352.500 41.313 C 353.712 41.130,353.925 40.262,353.043 39.100 C 352.174 37.955,351.200 38.220,351.200 39.600 C 351.200 40.260,351.020 40.800,350.800 40.800 C 350.580 40.800,350.400 40.170,350.400 39.400 C 350.400 38.033,350.362 38.000,348.800 38.000 C 347.547 38.000,347.197 38.152,347.188 38.700 C 347.176 39.366,347.156 39.366,346.767 38.699 C 346.386 38.045,55.360 37.646,50.093 38.291 M179.232 264.655 C 179.214 264.906,178.612 265.221,177.894 265.356 C 176.542 265.610,175.200 267.726,175.200 269.603 C 175.200 270.041,175.020 270.400,174.800 270.400 C 174.580 270.400,174.400 270.760,174.400 271.200 C 174.400 271.640,174.557 272.000,174.748 272.000 C 174.940 272.000,175.216 273.665,175.362 275.700 C 175.635 279.503,176.350 283.200,176.812 283.200 C 176.956 283.200,177.284 283.901,177.540 284.759 C 177.797 285.616,178.276 286.420,178.604 286.546 C 178.932 286.672,179.200 287.042,179.200 287.368 C 179.200 287.694,179.435 288.104,179.722 288.280 C 180.008 288.456,180.557 289.275,180.940 290.100 C 181.324 290.925,181.773 291.600,181.938 291.600 C 182.104 291.600,182.467 292.230,182.746 293.000 C 183.024 293.770,183.408 294.400,183.599 294.400 C 183.790 294.400,184.072 294.798,184.227 295.285 C 184.965 297.610,187.855 299.331,188.258 297.686 C 188.404 297.089,188.655 296.510,188.817 296.400 C 189.996 295.598,189.944 284.000,188.762 284.000 C 188.612 284.000,188.367 283.350,188.218 282.556 C 188.046 281.637,187.679 281.041,187.211 280.919 C 185.951 280.589,185.963 279.303,187.237 278.100 C 187.877 277.496,188.400 276.777,188.400 276.501 C 188.400 276.226,188.568 276.000,188.773 276.000 C 188.978 276.000,189.253 275.662,189.384 275.249 C 189.516 274.836,190.055 273.995,190.583 273.381 C 192.224 271.471,191.256 268.400,189.012 268.400 C 188.722 268.400,188.389 268.149,188.271 267.841 C 188.150 267.524,187.181 267.162,186.028 267.004 C 184.913 266.850,184.000 266.590,184.000 266.426 C 184.000 266.262,183.022 265.908,181.826 265.641 C 180.630 265.373,179.564 264.939,179.457 264.677 C 179.322 264.345,179.254 264.338,179.232 264.655 M220.806 264.663 C 220.803 264.918,219.900 265.357,218.800 265.639 C 217.700 265.921,216.800 266.276,216.800 266.430 C 216.800 266.583,215.799 266.833,214.575 266.986 C 213.230 267.154,212.264 267.488,212.132 267.832 C 212.013 268.144,211.698 268.400,211.433 268.400 C 209.531 268.400,208.110 271.602,209.647 272.425 C 210.061 272.647,210.400 273.032,210.400 273.281 C 210.400 273.529,210.658 274.018,210.974 274.366 C 211.871 275.356,213.831 277.308,214.947 278.323 C 216.090 279.364,215.776 280.963,214.339 281.419 C 213.933 281.548,213.600 281.822,213.600 282.027 C 213.600 282.232,213.337 282.400,213.016 282.400 C 212.674 282.400,212.224 283.105,211.930 284.100 C 211.655 285.035,211.192 286.044,210.902 286.341 C 210.315 286.944,210.627 292.887,211.258 293.133 C 211.446 293.207,211.601 293.837,211.602 294.533 C 211.605 296.059,212.325 298.800,212.723 298.800 C 213.257 298.800,216.005 296.202,216.003 295.700 C 216.001 295.425,216.162 295.200,216.361 295.200 C 216.559 295.200,216.910 294.660,217.140 294.000 C 217.370 293.340,217.728 292.800,217.936 292.800 C 218.143 292.800,218.427 292.345,218.567 291.790 C 218.706 291.234,219.131 290.464,219.510 290.078 C 219.890 289.692,220.470 288.847,220.800 288.200 C 221.130 287.553,221.715 286.704,222.100 286.312 C 222.485 285.920,222.800 285.330,222.800 285.000 C 222.800 284.670,222.951 284.400,223.136 284.400 C 223.321 284.400,223.718 283.635,224.019 282.700 C 224.320 281.765,224.689 280.910,224.839 280.800 C 226.061 279.902,225.829 267.784,224.576 267.083 C 224.259 266.905,224.000 266.513,224.000 266.212 C 224.000 265.910,223.415 265.537,222.700 265.382 C 221.985 265.226,221.268 264.897,221.106 264.650 C 220.891 264.321,220.811 264.324,220.806 264.663 " stroke="none" fill="#ece4f4" fill-rule="evenodd"></path><path id="path2" d="M190.642 93.228 C 188.246 93.399,186.176 93.707,186.042 93.912 C 185.909 94.116,184.814 94.518,183.610 94.803 C 182.405 95.089,181.178 95.565,180.881 95.862 C 180.585 96.158,180.131 96.400,179.871 96.400 C 179.612 96.401,178.890 96.840,178.266 97.376 C 177.642 97.912,176.573 98.474,175.889 98.624 C 175.205 98.775,174.422 99.121,174.149 99.394 C 173.876 99.667,172.741 100.011,171.626 100.159 C 170.512 100.307,169.600 100.587,169.600 100.783 C 169.600 100.978,168.970 101.346,168.200 101.600 C 167.430 101.854,166.800 102.184,166.800 102.333 C 166.800 102.483,166.215 102.860,165.500 103.173 C 164.785 103.486,163.185 104.790,161.944 106.071 C 160.703 107.352,159.498 108.400,159.267 108.400 C 159.035 108.400,158.610 108.728,158.323 109.129 C 158.035 109.530,157.215 110.114,156.500 110.427 C 155.785 110.739,155.200 111.131,155.200 111.298 C 155.200 111.464,154.938 111.600,154.619 111.600 C 154.299 111.600,153.739 112.230,153.373 113.000 C 153.008 113.770,152.583 114.400,152.429 114.400 C 152.275 114.400,151.905 115.023,151.607 115.783 C 151.308 116.544,150.824 117.259,150.532 117.371 C 150.239 117.483,150.000 117.844,150.000 118.173 C 150.000 118.503,149.640 118.965,149.200 119.200 C 148.760 119.435,148.400 119.852,148.400 120.125 C 148.400 120.399,148.085 120.910,147.700 121.261 C 146.288 122.550,144.800 124.339,144.800 124.748 C 144.800 124.980,144.465 125.491,144.056 125.884 C 143.647 126.278,143.183 127.138,143.025 127.796 C 142.866 128.454,142.608 129.084,142.452 129.196 C 142.295 129.308,141.844 130.795,141.449 132.500 C 141.055 134.205,140.585 135.600,140.405 135.600 C 140.225 135.600,139.890 136.140,139.660 136.800 C 139.430 137.460,139.088 138.000,138.901 138.000 C 138.714 138.000,138.319 138.668,138.024 139.485 C 137.728 140.302,137.262 141.195,136.987 141.470 C 136.508 141.949,135.600 146.159,135.600 147.899 C 135.600 148.358,135.390 148.803,135.133 148.889 C 134.793 149.002,134.648 152.203,134.600 160.622 C 134.552 168.877,134.574 169.531,134.674 162.900 C 134.751 157.785,134.966 153.600,135.152 153.600 C 135.338 153.600,135.616 152.025,135.769 150.100 C 136.083 146.167,136.719 143.200,137.247 143.200 C 137.441 143.200,137.600 142.928,137.600 142.595 C 137.600 141.852,138.437 140.306,139.055 139.905 C 139.306 139.743,139.624 139.158,139.763 138.605 C 139.902 138.052,140.176 137.600,140.374 137.600 C 140.571 137.600,141.050 136.250,141.439 134.600 C 141.828 132.950,142.293 131.600,142.473 131.600 C 142.653 131.600,142.800 131.177,142.800 130.660 C 142.800 129.535,143.570 127.200,143.941 127.200 C 144.086 127.200,144.455 126.634,144.761 125.942 C 145.068 125.250,146.012 124.011,146.859 123.189 C 147.707 122.367,148.400 121.533,148.400 121.336 C 148.400 121.139,148.715 120.694,149.100 120.346 C 150.175 119.376,151.200 118.038,151.687 116.969 C 151.930 116.436,152.255 116.000,152.410 116.000 C 152.565 116.000,152.994 115.209,153.363 114.241 C 153.861 112.936,154.365 112.349,155.317 111.965 C 156.023 111.680,156.744 111.211,156.920 110.923 C 157.096 110.636,157.494 110.400,157.806 110.400 C 158.117 110.400,158.565 110.040,158.800 109.600 C 159.035 109.160,159.463 108.800,159.750 108.800 C 160.261 108.800,163.098 106.225,164.096 104.854 C 164.607 104.154,167.154 102.800,167.960 102.800 C 168.202 102.800,168.400 102.619,168.400 102.398 C 168.400 102.178,169.210 101.780,170.200 101.516 C 171.190 101.251,172.000 100.912,172.000 100.762 C 172.000 100.613,172.808 100.370,173.795 100.222 C 174.783 100.074,175.823 99.720,176.106 99.437 C 176.390 99.153,177.292 98.700,178.111 98.429 C 178.930 98.159,179.601 97.817,179.603 97.669 C 179.606 97.290,181.948 96.000,182.632 96.000 C 182.945 96.000,183.200 95.851,183.200 95.669 C 183.200 95.299,186.742 94.400,188.197 94.400 C 188.712 94.400,189.206 94.182,189.294 93.917 C 189.513 93.262,215.483 93.182,215.913 93.835 C 216.071 94.075,217.069 94.486,218.132 94.749 C 220.319 95.291,221.569 96.362,222.390 98.400 C 222.701 99.170,223.065 99.890,223.200 100.000 C 223.335 100.110,223.682 100.785,223.971 101.500 C 224.260 102.215,224.641 102.800,224.818 102.800 C 224.994 102.800,225.340 103.412,225.586 104.159 C 226.569 107.137,230.170 109.171,234.500 109.194 C 235.105 109.197,235.600 109.380,235.600 109.600 C 235.600 109.820,236.023 110.000,236.540 110.000 C 237.798 110.000,240.000 110.789,240.000 111.239 C 240.000 111.438,240.237 111.600,240.526 111.600 C 240.816 111.600,241.611 112.230,242.292 113.000 C 242.974 113.770,243.684 114.400,243.870 114.400 C 244.056 114.400,244.432 114.760,244.707 115.200 C 244.982 115.640,245.432 116.000,245.707 116.000 C 245.982 116.000,246.432 116.360,246.707 116.800 C 246.982 117.240,247.396 117.600,247.627 117.600 C 247.857 117.600,248.845 118.455,249.822 119.500 C 252.410 122.269,252.800 122.755,252.800 123.209 C 252.800 123.433,253.250 123.822,253.800 124.073 C 254.350 124.323,254.800 124.646,254.800 124.789 C 254.800 124.932,255.125 125.398,255.522 125.825 C 255.920 126.251,256.503 127.185,256.820 127.900 C 257.136 128.615,257.531 129.200,257.698 129.200 C 257.864 129.200,258.000 129.500,258.000 129.867 C 258.000 131.509,258.937 135.680,259.412 136.155 C 259.701 136.443,260.138 137.427,260.384 138.340 C 260.630 139.253,260.984 140.000,261.172 140.000 C 261.360 140.000,261.623 140.437,261.757 140.972 C 261.891 141.507,262.238 142.182,262.528 142.472 C 263.279 143.224,263.991 146.348,264.276 150.139 C 264.411 151.932,264.665 153.495,264.841 153.612 C 265.017 153.728,265.322 158.048,265.519 163.212 C 265.771 169.841,265.895 171.252,265.938 168.013 C 266.021 161.881,265.216 148.234,264.762 148.067 C 264.563 147.993,264.398 147.453,264.395 146.867 C 264.389 145.446,263.333 141.532,262.876 141.235 C 262.676 141.106,262.271 140.325,261.976 139.500 C 261.681 138.675,261.315 138.000,261.164 138.000 C 261.012 138.000,260.649 137.190,260.357 136.200 C 260.065 135.210,259.711 134.400,259.571 134.400 C 259.430 134.400,259.005 132.960,258.624 131.200 C 258.244 129.440,257.786 128.000,257.606 128.000 C 257.426 128.000,257.090 127.460,256.860 126.800 C 256.630 126.140,256.252 125.600,256.021 125.600 C 255.789 125.600,255.600 125.374,255.600 125.097 C 255.600 124.821,255.015 124.025,254.300 123.329 C 253.585 122.633,252.431 121.464,251.734 120.732 C 251.038 119.999,249.418 118.449,248.134 117.286 C 246.851 116.124,245.515 114.909,245.166 114.586 C 244.818 114.264,244.352 114.000,244.131 114.000 C 243.909 114.000,243.523 113.550,243.273 113.000 C 243.022 112.450,242.552 112.000,242.228 112.000 C 241.905 112.000,241.496 111.764,241.320 111.477 C 241.144 111.189,240.370 110.704,239.600 110.399 C 238.830 110.095,238.110 109.726,238.000 109.580 C 237.890 109.435,236.038 109.020,233.885 108.660 C 231.732 108.299,229.697 107.778,229.363 107.502 C 227.449 105.920,226.514 104.818,225.800 103.305 C 225.360 102.372,224.894 101.607,224.764 101.605 C 224.634 101.602,224.290 100.880,224.000 100.000 C 223.710 99.120,223.321 98.400,223.136 98.400 C 222.951 98.400,222.800 98.149,222.800 97.841 C 222.800 97.007,220.724 94.800,219.939 94.800 C 219.564 94.800,219.001 94.544,218.688 94.231 C 217.321 92.864,202.922 92.349,190.642 93.228 M162.000 259.512 C 162.000 259.683,160.517 260.057,158.705 260.342 C 156.893 260.627,155.318 260.992,155.205 261.153 C 155.092 261.314,154.370 261.696,153.600 262.003 C 152.830 262.309,151.975 262.870,151.700 263.248 C 151.424 263.627,150.659 264.055,150.000 264.200 C 149.340 264.345,148.800 264.597,148.800 264.759 C 148.800 264.922,147.900 265.300,146.800 265.600 C 145.700 265.900,144.800 266.267,144.800 266.418 C 144.800 266.568,143.720 266.920,142.400 267.200 C 141.080 267.480,140.000 267.821,140.000 267.957 C 140.000 268.094,139.256 268.437,138.347 268.721 C 137.309 269.045,135.934 270.010,134.646 271.318 C 133.519 272.463,132.103 273.655,131.499 273.968 C 130.894 274.280,130.400 274.685,130.400 274.868 C 130.400 275.050,130.202 275.200,129.960 275.200 C 128.589 275.200,125.257 277.516,125.213 278.500 C 125.202 278.766,124.737 279.352,123.400 280.790 C 122.673 281.572,121.082 282.800,120.797 282.800 C 120.643 282.800,119.996 283.255,119.358 283.811 C 118.721 284.368,118.020 284.976,117.800 285.162 C 117.174 285.694,116.102 287.061,115.651 287.905 C 115.036 289.053,113.134 290.931,111.989 291.520 C 111.433 291.806,110.725 292.616,110.416 293.320 C 110.107 294.024,109.643 294.780,109.383 295.000 C 109.124 295.220,108.676 296.300,108.387 297.400 C 108.098 298.500,107.622 299.544,107.331 299.720 C 107.039 299.896,106.800 300.238,106.800 300.481 C 106.800 300.724,106.113 301.570,105.273 302.361 C 104.433 303.153,103.498 304.430,103.196 305.200 C 102.893 305.970,102.544 306.690,102.421 306.800 C 102.030 307.147,101.200 309.820,101.200 310.728 C 101.200 311.208,101.045 311.600,100.857 311.600 C 100.668 311.600,100.282 312.950,100.000 314.600 C 99.718 316.250,99.369 317.600,99.226 317.600 C 99.082 317.600,98.725 318.680,98.433 320.000 C 98.140 321.320,97.788 322.402,97.650 322.403 C 97.513 322.405,97.064 323.485,96.653 324.803 C 96.242 326.122,95.763 327.200,95.589 327.200 C 95.415 327.200,95.044 328.505,94.764 330.100 C 94.484 331.695,94.125 333.090,93.965 333.200 C 93.535 333.498,92.800 342.970,92.800 348.222 C 92.800 351.007,92.643 352.800,92.400 352.800 C 92.156 352.800,92.000 354.667,92.000 357.600 L 92.000 362.400 200.241 362.400 L 308.482 362.400 308.191 352.100 C 308.030 346.435,307.742 341.740,307.550 341.667 C 307.357 341.593,307.200 340.677,307.200 339.630 C 307.200 337.231,306.388 331.066,306.037 330.800 C 305.892 330.690,305.527 329.610,305.225 328.400 C 304.923 327.190,304.459 326.020,304.194 325.800 C 303.929 325.580,303.475 324.500,303.186 323.400 C 302.896 322.300,302.547 321.310,302.410 321.200 C 302.050 320.911,301.200 317.857,301.200 316.854 C 301.200 316.384,301.055 316.000,300.878 316.000 C 300.701 316.000,300.329 314.650,300.052 313.000 C 299.775 311.350,299.410 310.000,299.243 310.000 C 299.075 310.000,298.728 309.094,298.473 307.988 C 297.989 305.890,297.720 305.430,295.900 303.591 C 295.295 302.979,294.800 302.290,294.800 302.059 C 294.800 301.829,294.575 301.496,294.299 301.320 C 294.024 301.144,293.529 300.460,293.200 299.800 C 292.871 299.140,292.510 298.510,292.397 298.400 C 292.285 298.290,291.848 297.210,291.427 296.000 C 291.005 294.790,290.331 293.565,289.930 293.277 C 289.528 292.990,289.200 292.495,289.200 292.177 C 289.200 291.860,288.945 291.600,288.634 291.600 C 287.929 291.600,284.400 287.897,284.400 287.158 C 284.400 286.737,280.457 282.800,280.035 282.800 C 279.855 282.800,279.099 282.263,278.354 281.606 C 277.609 280.950,276.865 280.410,276.700 280.406 C 276.535 280.403,276.400 280.160,276.400 279.867 C 276.400 278.915,273.441 276.126,271.900 275.625 C 271.075 275.357,270.400 275.016,270.400 274.867 C 270.400 274.717,269.865 274.358,269.211 274.069 C 268.556 273.779,266.960 272.488,265.663 271.199 C 263.983 269.529,262.888 268.778,261.853 268.584 C 261.054 268.434,260.400 268.176,260.400 268.010 C 260.400 267.845,259.320 267.480,258.000 267.200 C 256.680 266.920,255.600 266.568,255.600 266.418 C 255.600 266.267,254.700 265.900,253.600 265.600 C 252.500 265.300,251.600 264.927,251.600 264.771 C 251.600 264.615,251.145 264.373,250.590 264.233 C 250.034 264.094,249.262 263.662,248.873 263.273 C 248.484 262.884,247.543 262.314,246.783 262.006 C 246.022 261.697,245.310 261.319,245.200 261.165 C 245.090 261.010,243.560 260.648,241.800 260.360 C 240.040 260.071,238.451 259.647,238.270 259.418 C 238.046 259.135,237.873 259.162,237.736 259.500 C 237.625 259.775,237.323 260.002,237.067 260.004 C 236.367 260.011,234.000 262.588,234.000 263.343 C 234.000 263.704,233.849 264.000,233.664 264.000 C 233.479 264.000,233.090 264.720,232.800 265.600 C 232.510 266.480,232.142 267.200,231.983 267.200 C 231.824 267.200,231.588 267.515,231.458 267.900 C 231.108 268.943,230.289 270.120,229.500 270.717 C 229.115 271.007,228.800 271.595,228.800 272.023 C 228.800 272.450,228.633 272.800,228.429 272.800 C 228.224 272.800,227.836 273.790,227.565 275.000 C 227.294 276.210,226.938 277.200,226.773 277.200 C 226.609 277.200,226.166 278.910,225.790 281.000 C 225.413 283.090,224.984 284.800,224.836 284.800 C 224.687 284.800,224.349 285.610,224.084 286.600 C 223.820 287.590,223.422 288.400,223.202 288.400 C 222.981 288.400,222.800 288.630,222.800 288.911 C 222.800 289.192,222.260 290.013,221.600 290.736 C 220.940 291.458,220.400 292.289,220.400 292.582 C 220.400 292.875,220.163 293.205,219.874 293.316 C 219.584 293.427,219.105 294.527,218.810 295.759 C 218.514 296.992,218.146 298.000,217.991 298.000 C 217.836 298.000,217.480 299.080,217.200 300.400 C 216.920 301.720,216.559 302.800,216.397 302.800 C 216.236 302.800,215.877 303.610,215.600 304.600 C 215.323 305.590,214.943 306.400,214.756 306.400 C 214.568 306.400,214.307 306.830,214.175 307.356 C 214.043 307.882,213.481 308.707,212.925 309.191 C 212.111 309.898,211.961 310.307,212.157 311.287 C 212.384 312.419,211.746 315.547,211.196 316.000 C 210.895 316.248,210.000 321.122,210.000 322.513 C 210.000 323.074,209.857 323.593,209.683 323.667 C 209.509 323.740,209.067 325.200,208.700 326.912 C 208.333 328.623,207.756 330.301,207.417 330.640 C 207.078 330.980,206.800 331.449,206.800 331.683 C 206.800 333.310,204.835 334.000,200.198 334.000 C 195.106 334.000,194.369 333.659,193.193 330.752 C 192.892 330.008,192.501 329.300,192.325 329.178 C 192.149 329.056,191.700 327.076,191.329 324.778 C 190.957 322.480,190.530 320.510,190.380 320.400 C 190.231 320.290,189.891 318.943,189.626 317.406 C 189.361 315.870,188.940 314.486,188.691 314.332 C 188.441 314.178,188.227 313.039,188.214 311.800 C 188.195 309.998,188.020 309.412,187.340 308.873 C 186.872 308.503,186.253 307.525,185.964 306.700 C 185.676 305.875,185.312 305.200,185.157 305.200 C 185.001 305.200,184.643 304.300,184.361 303.200 C 184.079 302.100,183.727 301.200,183.579 301.200 C 183.431 301.200,183.080 300.120,182.800 298.800 C 182.520 297.480,182.150 296.400,181.977 296.400 C 181.805 296.400,181.536 295.821,181.381 295.113 C 180.984 293.305,179.863 291.465,178.300 290.054 C 177.915 289.706,177.600 289.205,177.600 288.940 C 177.600 288.674,177.354 288.211,177.054 287.911 C 176.518 287.375,175.200 282.799,175.200 281.474 C 175.200 281.103,175.020 280.800,174.800 280.800 C 174.580 280.800,174.400 280.340,174.400 279.777 C 174.400 278.361,173.571 275.200,173.200 275.200 C 173.032 275.200,172.682 274.354,172.421 273.319 C 172.161 272.285,171.600 271.195,171.174 270.897 C 170.748 270.599,170.400 270.138,170.400 269.874 C 170.400 269.609,170.056 269.178,169.636 268.915 C 169.216 268.653,168.751 267.890,168.604 267.219 C 168.457 266.549,168.178 266.000,167.984 266.000 C 167.791 266.000,167.406 265.244,167.129 264.320 C 166.667 262.779,165.891 261.800,163.626 259.900 C 162.748 259.164,162.000 258.985,162.000 259.512 M38.000 350.800 C 38.000 351.020,38.270 351.200,38.600 351.200 C 38.930 351.200,39.200 351.020,39.200 350.800 C 39.200 350.580,38.930 350.400,38.600 350.400 C 38.270 350.400,38.000 350.580,38.000 350.800 " stroke="none" fill="#3c54b4" fill-rule="evenodd"></path><path id="path3" d="M350.400 38.600 C 350.400 38.930,350.580 39.200,350.800 39.200 C 351.020 39.200,351.200 38.930,351.200 38.600 C 351.200 38.270,351.020 38.000,350.800 38.000 C 350.580 38.000,350.400 38.270,350.400 38.600 M192.100 93.485 C 190.505 93.568,189.200 93.807,189.200 94.018 C 189.200 94.228,188.764 94.400,188.231 94.400 C 186.749 94.400,183.200 95.295,183.200 95.669 C 183.200 95.851,182.945 96.000,182.632 96.000 C 181.948 96.000,179.606 97.290,179.603 97.669 C 179.601 97.817,178.930 98.159,178.111 98.429 C 177.292 98.700,176.390 99.153,176.106 99.437 C 175.823 99.720,174.783 100.074,173.795 100.222 C 172.808 100.370,172.000 100.613,172.000 100.762 C 172.000 100.912,171.190 101.251,170.200 101.516 C 169.210 101.780,168.400 102.178,168.400 102.398 C 168.400 102.619,168.202 102.800,167.960 102.800 C 167.154 102.800,164.607 104.154,164.096 104.854 C 163.098 106.225,160.261 108.800,159.750 108.800 C 159.463 108.800,159.035 109.160,158.800 109.600 C 158.565 110.040,158.117 110.400,157.806 110.400 C 157.494 110.400,157.096 110.636,156.920 110.923 C 156.744 111.211,156.023 111.680,155.317 111.965 C 154.365 112.349,153.861 112.936,153.363 114.241 C 152.994 115.209,152.565 116.000,152.410 116.000 C 152.255 116.000,151.930 116.436,151.687 116.969 C 151.200 118.038,150.175 119.376,149.100 120.346 C 148.715 120.694,148.400 121.139,148.400 121.336 C 148.400 121.533,147.707 122.367,146.859 123.189 C 146.012 124.011,145.068 125.250,144.761 125.942 C 144.455 126.634,144.086 127.200,143.941 127.200 C 143.570 127.200,142.800 129.535,142.800 130.660 C 142.800 131.177,142.653 131.600,142.473 131.600 C 142.293 131.600,141.828 132.950,141.439 134.600 C 141.050 136.250,140.571 137.600,140.374 137.600 C 140.176 137.600,139.902 138.052,139.763 138.605 C 139.624 139.158,139.306 139.743,139.055 139.905 C 138.437 140.306,137.600 141.852,137.600 142.595 C 137.600 142.928,137.441 143.200,137.247 143.200 C 136.719 143.200,136.083 146.167,135.769 150.100 C 135.616 152.025,135.335 153.600,135.145 153.600 C 134.955 153.600,134.800 158.100,134.800 163.600 C 134.800 169.100,134.941 173.600,135.113 173.600 C 135.285 173.600,135.662 174.403,135.952 175.383 C 136.242 176.364,136.911 177.669,137.439 178.283 C 137.967 178.898,138.399 179.533,138.400 179.695 C 138.400 180.048,139.522 181.463,140.500 182.346 C 140.885 182.694,141.200 183.155,141.200 183.371 C 141.200 183.588,142.292 184.811,143.627 186.089 C 145.932 188.296,146.800 188.652,146.800 187.390 C 146.800 187.081,147.145 186.643,147.567 186.417 C 147.990 186.191,148.462 185.420,148.618 184.703 C 148.773 183.986,149.071 183.291,149.279 183.159 C 150.091 182.641,150.381 179.453,150.390 170.943 C 150.399 163.445,150.492 162.050,151.000 161.855 C 151.330 161.729,151.603 161.394,151.607 161.113 C 151.625 159.789,154.625 158.000,156.826 158.000 C 157.472 158.000,158.000 157.833,158.000 157.629 C 158.000 157.424,158.990 157.036,160.200 156.765 C 161.410 156.494,162.400 156.157,162.400 156.017 C 162.400 155.876,163.030 155.533,163.800 155.254 C 164.570 154.976,165.200 154.589,165.200 154.395 C 165.200 154.200,166.190 153.729,167.400 153.347 C 168.610 152.966,169.600 152.520,169.600 152.356 C 169.600 152.192,170.950 151.840,172.600 151.574 C 174.250 151.308,175.600 150.954,175.600 150.786 C 175.600 150.619,177.130 150.265,179.000 150.000 C 180.870 149.735,182.400 149.372,182.400 149.194 C 182.400 149.016,183.124 148.748,184.008 148.599 C 184.892 148.449,185.869 148.073,186.179 147.764 C 186.489 147.454,186.908 147.200,187.110 147.200 C 187.762 147.200,190.000 145.952,190.000 145.589 C 190.000 145.395,190.639 145.116,191.420 144.970 C 192.200 144.823,193.087 144.456,193.389 144.154 C 193.691 143.852,195.347 143.397,197.069 143.144 C 198.791 142.891,200.290 142.567,200.400 142.425 C 200.510 142.282,202.472 141.870,204.760 141.510 C 207.047 141.149,209.027 140.694,209.160 140.498 C 209.292 140.301,210.255 139.906,211.300 139.618 C 212.345 139.331,213.200 138.957,213.200 138.787 C 213.200 138.617,213.740 138.290,214.400 138.060 C 215.060 137.830,215.600 137.486,215.600 137.297 C 215.600 136.339,220.500 135.486,224.498 135.748 C 229.892 136.102,230.283 136.232,231.093 137.944 C 231.472 138.745,232.261 139.869,232.847 140.443 C 233.432 141.016,234.117 141.871,234.369 142.343 C 234.622 142.814,235.006 143.200,235.223 143.200 C 235.661 143.200,240.000 147.359,240.000 147.779 C 240.000 147.925,241.620 149.674,243.600 151.665 C 245.580 153.656,247.200 155.536,247.200 155.843 C 247.200 156.149,247.373 156.400,247.584 156.400 C 247.795 156.400,248.191 157.165,248.464 158.100 C 248.738 159.035,249.150 159.928,249.381 160.085 C 249.647 160.266,249.873 164.330,250.000 171.252 C 250.149 179.371,250.325 182.175,250.693 182.298 C 250.964 182.388,251.387 183.209,251.633 184.121 C 251.878 185.034,252.422 186.020,252.840 186.313 C 253.258 186.606,253.600 187.095,253.600 187.399 C 253.600 188.988,255.123 188.145,258.116 184.899 C 258.573 184.403,259.724 183.163,260.673 182.143 C 261.623 181.123,262.400 180.063,262.400 179.787 C 262.400 179.511,262.636 179.195,262.924 179.084 C 263.213 178.974,263.682 178.100,263.968 177.142 C 264.254 176.184,264.694 175.270,264.944 175.111 C 265.504 174.757,265.446 154.007,264.884 153.638 C 264.685 153.507,264.411 151.932,264.276 150.139 C 263.991 146.348,263.279 143.224,262.528 142.472 C 262.238 142.182,261.891 141.507,261.757 140.972 C 261.623 140.437,261.360 140.000,261.172 140.000 C 260.984 140.000,260.630 139.253,260.384 138.340 C 260.138 137.427,259.701 136.443,259.412 136.155 C 258.937 135.680,258.000 131.509,258.000 129.867 C 258.000 129.500,257.864 129.200,257.698 129.200 C 257.531 129.200,257.136 128.615,256.820 127.900 C 256.503 127.185,255.920 126.251,255.522 125.825 C 255.125 125.398,254.800 124.932,254.800 124.789 C 254.800 124.646,254.350 124.323,253.800 124.073 C 253.250 123.822,252.800 123.433,252.800 123.209 C 252.800 122.755,252.410 122.269,249.822 119.500 C 248.845 118.455,247.857 117.600,247.627 117.600 C 247.396 117.600,246.982 117.240,246.707 116.800 C 246.432 116.360,245.982 116.000,245.707 116.000 C 245.432 116.000,244.982 115.640,244.707 115.200 C 244.432 114.760,244.056 114.400,243.870 114.400 C 243.684 114.400,242.974 113.770,242.292 113.000 C 241.611 112.230,240.816 111.600,240.526 111.600 C 240.237 111.600,240.000 111.438,240.000 111.239 C 240.000 110.789,237.798 110.000,236.540 110.000 C 236.023 110.000,235.600 109.820,235.600 109.600 C 235.600 109.380,235.105 109.197,234.500 109.194 C 230.170 109.171,226.569 107.137,225.586 104.159 C 225.340 103.412,224.994 102.800,224.818 102.800 C 224.641 102.800,224.260 102.215,223.971 101.500 C 223.682 100.785,223.335 100.110,223.200 100.000 C 223.065 99.890,222.701 99.170,222.390 98.400 C 221.569 96.362,220.319 95.291,218.132 94.749 C 217.069 94.486,216.072 94.075,215.915 93.835 C 215.632 93.403,198.548 93.152,192.100 93.485 M169.829 178.229 C 169.085 178.972,169.002 188.337,169.732 189.068 C 170.640 189.975,179.478 189.697,180.382 188.732 C 181.293 187.761,181.529 178.994,180.668 178.132 C 179.937 177.402,170.572 177.485,169.829 178.229 M219.829 178.229 C 219.085 178.972,219.002 188.337,219.732 189.068 C 220.640 189.975,229.478 189.697,230.382 188.732 C 231.293 187.761,231.529 178.994,230.668 178.132 C 229.937 177.402,220.572 177.485,219.829 178.229 M196.000 280.800 L 196.000 282.800 200.400 282.800 L 204.800 282.800 204.800 280.800 L 204.800 278.800 200.400 278.800 L 196.000 278.800 196.000 280.800 M196.000 297.000 C 196.000 299.533,195.841 301.200,195.600 301.200 C 195.380 301.200,195.199 301.695,195.198 302.300 C 195.193 304.461,194.438 306.254,193.316 306.765 C 192.721 307.036,191.992 307.605,191.695 308.029 C 191.398 308.453,190.922 308.800,190.639 308.800 C 188.833 308.800,187.193 313.406,188.672 314.321 C 188.932 314.481,189.361 315.870,189.626 317.406 C 189.891 318.943,190.231 320.290,190.380 320.400 C 190.530 320.510,190.957 322.480,191.329 324.778 C 191.700 327.076,192.149 329.056,192.325 329.178 C 192.501 329.300,192.892 330.008,193.193 330.752 C 194.369 333.659,195.106 334.000,200.198 334.000 C 204.835 334.000,206.800 333.310,206.800 331.683 C 206.800 331.449,207.078 330.980,207.417 330.640 C 207.756 330.301,208.333 328.623,208.700 326.912 C 209.067 325.200,209.509 323.740,209.683 323.667 C 209.857 323.593,210.000 323.074,210.000 322.513 C 210.000 321.122,210.895 316.248,211.196 316.000 C 212.920 314.580,212.319 309.421,210.379 308.995 C 209.716 308.850,208.888 308.296,208.540 307.765 C 208.193 307.234,207.699 306.800,207.443 306.800 C 205.825 306.800,204.808 302.834,204.803 296.500 L 204.800 292.800 200.400 292.800 L 196.000 292.800 196.000 297.000 " stroke="none" fill="#544546" fill-rule="evenodd"></path><path id="path4" d="M350.400 40.000 C 350.400 40.440,350.580 40.800,350.800 40.800 C 351.020 40.800,351.200 40.440,351.200 40.000 C 351.200 39.560,351.020 39.200,350.800 39.200 C 350.580 39.200,350.400 39.560,350.400 40.000 M190.500 89.873 C 187.708 89.959,185.600 90.191,185.600 90.412 C 185.600 90.626,184.745 90.803,183.700 90.806 C 180.998 90.814,176.919 91.858,175.909 92.799 C 175.436 93.240,174.813 93.600,174.525 93.600 C 174.236 93.600,174.000 93.741,174.000 93.913 C 174.000 95.039,172.084 96.434,169.926 96.880 C 168.647 97.144,167.600 97.472,167.600 97.608 C 167.600 97.744,166.700 98.100,165.600 98.400 C 164.500 98.700,163.600 99.056,163.600 99.192 C 163.600 99.328,162.970 99.667,162.200 99.946 C 161.430 100.224,160.800 100.608,160.800 100.799 C 160.800 100.990,160.485 101.246,160.100 101.368 C 159.715 101.491,159.168 102.112,158.886 102.750 C 158.191 104.322,156.367 106.171,154.850 106.842 C 154.162 107.146,153.600 107.504,153.600 107.637 C 153.600 107.770,152.908 108.191,152.062 108.572 C 150.991 109.055,150.361 109.681,149.987 110.633 C 149.692 111.385,149.304 112.000,149.125 112.000 C 148.946 112.000,148.800 112.270,148.800 112.600 C 148.800 112.930,148.485 113.520,148.100 113.912 C 147.715 114.304,147.134 115.134,146.808 115.757 C 146.483 116.380,145.808 117.045,145.308 117.235 C 144.809 117.425,144.399 117.720,144.399 117.890 C 144.398 118.061,143.878 118.548,143.242 118.974 C 142.430 119.518,141.865 120.441,141.343 122.074 C 140.935 123.353,140.481 124.400,140.336 124.400 C 140.191 124.400,139.841 125.705,139.558 127.300 C 139.275 128.895,138.809 130.438,138.522 130.729 C 138.235 131.019,138.000 131.514,138.000 131.829 C 138.000 132.143,137.793 132.400,137.540 132.400 C 136.988 132.400,134.400 134.997,134.400 135.552 C 134.400 135.767,134.118 136.225,133.774 136.569 C 133.383 136.960,132.976 138.588,132.693 140.898 C 132.442 142.934,132.061 144.721,131.845 144.869 C 131.214 145.302,131.268 177.689,131.900 177.900 C 132.508 178.103,132.603 182.800,132.000 182.800 C 131.765 182.800,131.600 184.200,131.600 186.200 C 131.600 188.070,131.739 189.600,131.909 189.600 C 132.079 189.600,132.447 190.810,132.727 192.288 C 133.008 193.766,133.385 195.071,133.565 195.188 C 133.745 195.305,134.012 195.784,134.158 196.253 C 134.437 197.146,136.591 199.597,137.103 199.604 C 137.481 199.610,140.000 202.190,140.000 202.571 C 140.000 202.728,140.238 203.095,140.529 203.386 C 140.820 203.678,141.289 205.465,141.571 207.358 C 141.852 209.251,142.224 210.800,142.397 210.800 C 142.570 210.800,142.829 211.431,142.974 212.203 C 143.134 213.057,143.874 214.269,144.866 215.303 C 145.762 216.236,146.671 217.495,146.886 218.100 C 147.102 218.705,147.428 219.200,147.610 219.200 C 147.793 219.200,148.164 220.190,148.435 221.400 C 148.706 222.610,149.061 223.600,149.225 223.600 C 149.388 223.600,149.710 224.140,149.940 224.800 C 150.170 225.460,150.527 226.000,150.733 226.000 C 150.938 226.000,151.201 226.359,151.315 226.798 C 151.430 227.237,151.856 227.718,152.262 227.868 C 152.668 228.017,153.144 228.378,153.320 228.670 C 153.496 228.961,153.901 229.200,154.220 229.200 C 154.539 229.200,154.800 229.470,154.800 229.800 C 154.800 230.130,155.160 230.760,155.600 231.200 C 156.040 231.640,156.400 232.148,156.400 232.328 C 156.400 232.776,159.900 236.400,160.332 236.400 C 160.522 236.400,161.082 236.751,161.576 237.179 C 162.070 237.607,162.622 238.012,162.804 238.079 C 164.144 238.571,164.974 253.636,163.835 256.800 L 163.331 258.200 159.166 258.741 C 156.875 259.039,154.942 259.438,154.871 259.629 C 154.800 259.819,154.111 260.093,153.339 260.238 C 152.567 260.383,151.841 260.748,151.725 261.051 C 151.609 261.353,151.274 261.600,150.980 261.600 C 150.686 261.600,150.210 261.928,149.923 262.330 C 149.635 262.731,148.410 263.405,147.200 263.827 C 145.990 264.248,144.910 264.698,144.800 264.826 C 144.690 264.954,143.745 265.294,142.700 265.582 C 141.655 265.869,140.800 266.230,140.800 266.383 C 140.800 266.537,139.894 266.872,138.788 267.127 C 136.606 267.631,136.456 267.725,133.591 270.400 C 130.640 273.154,130.095 273.561,128.974 273.842 C 128.403 273.986,127.841 274.350,127.725 274.651 C 127.609 274.953,127.306 275.200,127.052 275.200 C 126.515 275.200,123.113 278.668,122.468 279.873 C 122.227 280.322,121.439 280.931,120.715 281.225 C 119.992 281.519,119.165 282.084,118.877 282.480 C 118.590 282.876,118.185 283.200,117.977 283.200 C 117.488 283.200,116.000 284.688,116.000 285.177 C 116.000 285.385,115.672 285.790,115.271 286.077 C 114.870 286.365,114.286 287.185,113.973 287.900 C 113.661 288.615,113.211 289.200,112.974 289.200 C 112.738 289.200,112.181 289.605,111.737 290.100 C 111.293 290.595,110.450 291.404,109.864 291.898 C 109.254 292.412,108.592 293.568,108.316 294.598 C 108.051 295.589,107.705 296.400,107.548 296.400 C 107.391 296.400,107.054 297.030,106.800 297.799 C 106.546 298.569,105.527 300.054,104.534 301.099 C 101.687 304.099,101.622 304.190,101.354 305.530 C 101.214 306.228,100.959 306.800,100.786 306.800 C 100.614 306.800,100.247 308.060,99.972 309.600 C 99.697 311.140,99.345 312.400,99.191 312.400 C 99.036 312.400,98.692 313.750,98.426 315.400 C 98.160 317.050,97.782 318.400,97.587 318.400 C 97.392 318.400,97.015 319.165,96.750 320.100 C 96.486 321.035,96.045 321.987,95.772 322.216 C 95.499 322.445,95.072 323.390,94.823 324.316 C 94.573 325.242,94.222 326.000,94.043 326.000 C 93.689 326.000,92.800 330.821,92.800 332.744 C 92.800 333.398,92.624 333.993,92.408 334.067 C 92.183 334.143,91.842 338.278,91.605 343.800 C 90.945 359.220,90.927 362.402,91.500 362.401 C 91.872 362.400,92.000 361.173,92.000 357.600 C 92.000 354.667,92.156 352.800,92.400 352.800 C 92.643 352.800,92.800 351.007,92.800 348.222 C 92.800 342.970,93.535 333.498,93.965 333.200 C 94.125 333.090,94.484 331.695,94.764 330.100 C 95.044 328.505,95.415 327.200,95.589 327.200 C 95.763 327.200,96.242 326.122,96.653 324.803 C 97.064 323.485,97.513 322.405,97.650 322.403 C 97.788 322.402,98.140 321.320,98.433 320.000 C 98.725 318.680,99.082 317.600,99.226 317.600 C 99.369 317.600,99.718 316.250,100.000 314.600 C 100.282 312.950,100.668 311.600,100.857 311.600 C 101.045 311.600,101.200 311.208,101.200 310.728 C 101.200 309.820,102.030 307.147,102.421 306.800 C 102.544 306.690,102.893 305.970,103.196 305.200 C 103.498 304.430,104.433 303.153,105.273 302.361 C 106.113 301.570,106.800 300.724,106.800 300.481 C 106.800 300.238,107.039 299.896,107.331 299.720 C 107.622 299.544,108.098 298.500,108.387 297.400 C 108.676 296.300,109.124 295.220,109.383 295.000 C 109.643 294.780,110.107 294.024,110.416 293.320 C 110.725 292.616,111.433 291.806,111.989 291.520 C 113.134 290.931,115.036 289.053,115.651 287.905 C 116.102 287.061,117.174 285.694,117.800 285.162 C 118.020 284.976,118.721 284.368,119.358 283.811 C 119.996 283.255,120.643 282.800,120.797 282.800 C 121.074 282.800,122.680 281.568,123.340 280.850 C 124.828 279.231,125.202 278.762,125.213 278.500 C 125.257 277.516,128.589 275.200,129.960 275.200 C 130.202 275.200,130.400 275.050,130.400 274.868 C 130.400 274.685,130.894 274.280,131.499 273.968 C 132.103 273.655,133.519 272.463,134.646 271.318 C 135.934 270.010,137.309 269.045,138.347 268.721 C 139.256 268.437,140.000 268.094,140.000 267.957 C 140.000 267.821,141.080 267.480,142.400 267.200 C 143.720 266.920,144.800 266.568,144.800 266.418 C 144.800 266.267,145.700 265.900,146.800 265.600 C 147.900 265.300,148.800 264.922,148.800 264.759 C 148.800 264.597,149.340 264.345,150.000 264.200 C 150.659 264.055,151.424 263.627,151.700 263.248 C 151.975 262.870,152.830 262.309,153.600 262.003 C 154.370 261.696,155.092 261.314,155.205 261.153 C 155.318 260.992,156.893 260.627,158.705 260.342 C 160.517 260.057,162.000 259.683,162.000 259.512 C 162.000 258.985,162.748 259.164,163.626 259.900 C 165.891 261.800,166.667 262.779,167.129 264.320 C 167.406 265.244,167.791 266.000,167.984 266.000 C 168.178 266.000,168.457 266.549,168.604 267.219 C 168.751 267.890,169.216 268.653,169.636 268.915 C 170.056 269.178,170.400 269.609,170.400 269.874 C 170.400 270.138,170.748 270.599,171.174 270.897 C 171.600 271.195,172.161 272.285,172.421 273.319 C 172.682 274.354,173.032 275.200,173.200 275.200 C 173.571 275.200,174.400 278.361,174.400 279.777 C 174.400 280.340,174.580 280.800,174.800 280.800 C 175.020 280.800,175.200 281.103,175.200 281.474 C 175.200 282.799,176.518 287.375,177.054 287.911 C 177.354 288.211,177.600 288.674,177.600 288.940 C 177.600 289.205,177.915 289.706,178.300 290.054 C 179.863 291.465,180.984 293.305,181.381 295.113 C 181.536 295.821,181.805 296.400,181.977 296.400 C 182.150 296.400,182.520 297.480,182.800 298.800 C 183.080 300.120,183.431 301.200,183.579 301.200 C 183.727 301.200,184.079 302.100,184.361 303.200 C 184.643 304.300,185.001 305.200,185.157 305.200 C 185.312 305.200,185.681 305.875,185.977 306.700 C 186.714 308.753,189.200 310.996,189.200 309.608 C 189.200 309.392,189.630 309.107,190.156 308.975 C 192.339 308.427,192.633 307.514,193.206 299.470 C 193.498 295.361,193.887 292.000,194.069 292.000 C 194.251 292.000,194.400 290.380,194.400 288.400 C 194.400 286.267,194.237 284.800,194.000 284.800 C 193.780 284.800,193.579 284.125,193.553 283.300 C 193.527 282.475,193.383 281.260,193.233 280.600 C 192.921 279.225,193.285 278.418,195.067 276.537 L 196.333 275.200 200.467 275.213 C 204.555 275.226,206.400 275.810,206.400 277.089 C 206.400 277.287,206.803 277.882,207.296 278.411 C 208.154 279.332,208.297 280.763,207.576 281.213 C 206.320 281.996,206.399 302.000,207.659 302.000 C 207.846 302.000,208.000 303.130,208.000 304.511 C 208.000 307.366,208.613 308.566,210.287 308.986 C 210.895 309.139,211.506 309.448,211.645 309.673 C 212.003 310.252,213.880 308.532,214.175 307.356 C 214.307 306.830,214.568 306.400,214.756 306.400 C 214.943 306.400,215.323 305.590,215.600 304.600 C 215.877 303.610,216.236 302.800,216.397 302.800 C 216.559 302.800,216.920 301.720,217.200 300.400 C 217.480 299.080,217.836 298.000,217.991 298.000 C 218.146 298.000,218.514 296.992,218.810 295.759 C 219.105 294.527,219.584 293.427,219.874 293.316 C 220.163 293.205,220.400 292.875,220.400 292.582 C 220.400 292.289,220.940 291.458,221.600 290.736 C 222.260 290.013,222.800 289.192,222.800 288.911 C 222.800 288.630,222.981 288.400,223.202 288.400 C 223.422 288.400,223.820 287.590,224.084 286.600 C 224.349 285.610,224.687 284.800,224.836 284.800 C 224.984 284.800,225.413 283.090,225.790 281.000 C 226.166 278.910,226.609 277.200,226.773 277.200 C 226.938 277.200,227.294 276.210,227.565 275.000 C 227.836 273.790,228.224 272.800,228.429 272.800 C 228.633 272.800,228.800 272.450,228.800 272.023 C 228.800 271.595,229.115 271.007,229.500 270.717 C 230.289 270.120,231.108 268.943,231.458 267.900 C 231.588 267.515,231.824 267.200,231.983 267.200 C 232.142 267.200,232.510 266.480,232.800 265.600 C 233.090 264.720,233.479 264.000,233.664 264.000 C 233.849 264.000,234.002 263.685,234.004 263.300 C 234.009 262.549,236.407 260.000,237.109 260.000 C 237.342 260.000,237.625 259.775,237.736 259.500 C 237.873 259.162,238.046 259.135,238.270 259.418 C 238.451 259.647,240.040 260.071,241.800 260.360 C 243.560 260.648,245.090 261.010,245.200 261.165 C 245.310 261.319,246.022 261.697,246.783 262.006 C 247.543 262.314,248.484 262.884,248.873 263.273 C 249.262 263.662,250.034 264.094,250.590 264.233 C 251.145 264.373,251.600 264.615,251.600 264.771 C 251.600 264.927,252.500 265.300,253.600 265.600 C 254.700 265.900,255.600 266.267,255.600 266.418 C 255.600 266.568,256.680 266.920,258.000 267.200 C 259.320 267.480,260.400 267.845,260.400 268.010 C 260.400 268.176,261.054 268.434,261.853 268.584 C 262.888 268.778,263.983 269.529,265.663 271.199 C 266.960 272.488,268.556 273.779,269.211 274.069 C 269.865 274.358,270.400 274.717,270.400 274.867 C 270.400 275.016,271.075 275.357,271.900 275.625 C 273.441 276.126,276.400 278.915,276.400 279.867 C 276.400 280.160,276.535 280.403,276.700 280.406 C 276.865 280.410,277.609 280.950,278.354 281.606 C 279.099 282.263,279.855 282.800,280.035 282.800 C 280.457 282.800,284.400 286.737,284.400 287.158 C 284.400 287.897,287.929 291.600,288.634 291.600 C 288.945 291.600,289.200 291.860,289.200 292.177 C 289.200 292.495,289.528 292.990,289.930 293.277 C 290.331 293.565,291.005 294.790,291.427 296.000 C 291.848 297.210,292.285 298.290,292.397 298.400 C 292.510 298.510,292.871 299.140,293.200 299.800 C 293.529 300.460,294.024 301.144,294.299 301.320 C 294.575 301.496,294.800 301.829,294.800 302.059 C 294.800 302.290,295.295 302.979,295.900 303.591 C 297.720 305.430,297.989 305.890,298.473 307.988 C 298.728 309.094,299.075 310.000,299.243 310.000 C 299.410 310.000,299.775 311.350,300.052 313.000 C 300.329 314.650,300.701 316.000,300.878 316.000 C 301.055 316.000,301.200 316.384,301.200 316.854 C 301.200 317.857,302.050 320.911,302.410 321.200 C 302.547 321.310,302.896 322.300,303.186 323.400 C 303.475 324.500,303.929 325.580,304.194 325.800 C 304.459 326.020,304.923 327.190,305.225 328.400 C 305.527 329.610,305.892 330.690,306.037 330.800 C 306.391 331.068,307.200 337.238,307.200 339.664 C 307.200 340.729,307.380 341.600,307.600 341.600 C 307.833 341.600,308.000 342.912,308.000 344.736 C 308.000 351.975,308.545 362.400,308.924 362.400 C 309.706 362.400,308.449 331.007,307.643 330.400 C 307.497 330.290,307.160 329.132,306.895 327.827 C 306.629 326.522,306.255 325.352,306.064 325.227 C 305.872 325.102,305.496 324.325,305.227 323.500 C 304.958 322.675,304.600 322.000,304.432 322.000 C 304.264 322.000,303.792 320.875,303.383 319.500 C 302.973 318.125,302.499 316.902,302.329 316.782 C 302.159 316.663,301.813 315.178,301.561 313.482 C 301.309 311.787,300.978 310.400,300.825 310.400 C 300.672 310.400,300.314 309.230,300.030 307.800 C 299.746 306.370,299.353 305.200,299.157 305.200 C 298.960 305.200,298.798 304.975,298.795 304.700 C 298.789 304.150,296.718 301.516,295.300 300.256 C 294.805 299.816,294.400 299.218,294.400 298.928 C 294.400 298.638,294.240 298.400,294.044 298.400 C 293.848 298.400,293.449 297.590,293.157 296.600 C 292.865 295.610,292.504 294.800,292.356 294.800 C 292.208 294.800,291.973 294.345,291.833 293.790 C 291.557 292.688,288.761 289.768,287.643 289.414 C 287.260 289.292,286.694 288.549,286.386 287.764 C 286.077 286.978,285.504 286.163,285.112 285.953 C 284.721 285.743,284.400 285.379,284.400 285.142 C 284.400 284.532,282.700 282.815,282.087 282.807 C 281.806 282.803,281.480 282.553,281.364 282.250 C 281.248 281.948,280.456 281.386,279.605 281.002 C 278.644 280.569,277.876 279.867,277.580 279.152 C 277.318 278.518,276.974 278.000,276.816 278.000 C 276.658 278.000,276.322 277.546,276.069 276.992 C 275.817 276.438,275.158 275.812,274.605 275.602 C 274.052 275.392,273.600 275.064,273.600 274.873 C 273.600 274.683,272.880 274.311,272.000 274.047 C 271.120 273.784,270.400 273.395,270.400 273.184 C 270.400 272.973,270.175 272.796,269.900 272.791 C 269.625 272.786,268.430 271.796,267.245 270.591 C 266.060 269.386,264.922 268.400,264.716 268.400 C 264.511 268.400,264.089 268.146,263.779 267.836 C 263.469 267.527,262.492 267.151,261.608 267.001 C 260.724 266.852,260.000 266.594,260.000 266.429 C 260.000 266.263,259.010 265.890,257.800 265.600 C 256.590 265.310,255.600 264.960,255.600 264.823 C 255.600 264.687,254.797 264.338,253.817 264.048 C 252.836 263.758,251.531 263.089,250.917 262.561 C 250.302 262.033,249.594 261.601,249.343 261.600 C 249.091 261.600,248.782 261.330,248.655 261.000 C 248.529 260.670,248.072 260.400,247.641 260.400 C 247.210 260.400,246.612 260.155,246.312 259.855 C 246.010 259.552,243.982 259.092,241.747 258.818 C 237.102 258.249,237.082 258.240,236.466 256.440 C 235.492 253.596,236.139 239.200,237.241 239.200 C 237.438 239.200,237.600 238.924,237.600 238.587 C 237.600 238.251,237.915 237.859,238.300 237.718 C 238.685 237.576,239.144 237.222,239.320 236.930 C 239.496 236.639,239.856 236.395,240.120 236.389 C 240.384 236.384,241.590 235.301,242.800 233.983 C 244.010 232.665,246.121 230.393,247.492 228.934 C 248.863 227.474,250.101 225.910,250.245 225.459 C 250.388 225.007,250.735 224.407,251.016 224.127 C 251.297 223.846,251.649 222.892,251.799 222.008 C 251.948 221.124,252.198 220.400,252.355 220.400 C 252.511 220.400,252.877 219.725,253.168 218.900 C 253.459 218.075,254.260 216.853,254.948 216.185 C 255.637 215.517,256.470 214.437,256.799 213.785 C 257.129 213.133,257.527 212.504,257.683 212.386 C 257.840 212.269,258.283 210.379,258.668 208.186 C 259.053 205.994,259.600 203.962,259.884 203.671 C 260.168 203.381,260.404 202.931,260.408 202.671 C 260.413 202.412,261.046 201.660,261.815 201.000 C 263.452 199.596,265.594 197.518,266.286 196.663 C 266.554 196.333,266.988 195.194,267.251 194.132 C 267.514 193.069,267.925 192.072,268.165 191.915 C 268.446 191.730,268.615 189.322,268.642 185.115 C 268.666 181.532,268.813 176.170,268.970 173.200 C 269.301 166.945,268.618 142.394,268.103 142.039 C 267.912 141.908,267.551 140.673,267.301 139.295 C 267.051 137.917,266.566 136.509,266.223 136.166 C 265.880 135.823,265.600 135.326,265.600 135.061 C 265.600 134.543,263.335 132.400,262.788 132.400 C 262.606 132.400,262.236 131.410,261.965 130.200 C 261.694 128.990,261.342 128.000,261.182 128.000 C 261.022 128.000,260.770 127.192,260.622 126.205 C 260.474 125.217,260.131 124.182,259.861 123.905 C 259.591 123.627,259.053 122.725,258.666 121.900 C 258.279 121.075,257.803 120.400,257.608 120.400 C 257.413 120.400,257.140 120.040,257.000 119.600 C 256.860 119.160,256.557 118.800,256.327 118.800 C 256.096 118.800,254.883 117.720,253.631 116.400 C 252.379 115.080,251.184 114.000,250.976 114.000 C 250.479 114.000,248.619 111.995,248.286 111.100 C 248.142 110.715,247.756 110.400,247.427 110.400 C 247.097 110.400,246.652 110.072,246.438 109.670 C 246.223 109.269,245.317 108.722,244.424 108.454 C 243.531 108.187,242.800 107.807,242.800 107.610 C 242.800 107.413,241.450 107.025,239.800 106.748 C 238.150 106.471,236.800 106.117,236.800 105.962 C 236.800 105.807,235.855 105.456,234.700 105.184 C 233.259 104.843,232.186 104.266,231.281 103.344 C 230.555 102.605,229.794 102.000,229.588 102.000 C 229.383 102.000,229.102 101.550,228.964 101.000 C 228.826 100.450,228.582 100.000,228.421 100.000 C 228.260 100.000,227.890 99.280,227.600 98.400 C 227.310 97.520,226.935 96.800,226.767 96.800 C 226.599 96.800,226.240 96.128,225.970 95.308 C 225.125 92.750,222.446 90.800,219.774 90.800 C 219.275 90.800,218.797 90.590,218.711 90.333 C 218.549 89.846,200.733 89.556,190.500 89.873 M215.786 93.231 C 217.070 93.469,218.376 93.919,218.688 94.231 C 219.001 94.544,219.564 94.800,219.939 94.800 C 220.724 94.800,222.800 97.007,222.800 97.841 C 222.800 98.149,222.951 98.400,223.136 98.400 C 223.321 98.400,223.710 99.120,224.000 100.000 C 224.290 100.880,224.634 101.602,224.764 101.605 C 224.894 101.607,225.360 102.372,225.800 103.305 C 226.514 104.818,227.449 105.920,229.363 107.502 C 229.697 107.778,231.732 108.299,233.885 108.660 C 236.038 109.020,237.890 109.435,238.000 109.580 C 238.110 109.726,238.830 110.095,239.600 110.399 C 240.370 110.704,241.144 111.189,241.320 111.477 C 241.496 111.764,241.905 112.000,242.228 112.000 C 242.552 112.000,243.022 112.450,243.273 113.000 C 243.523 113.550,243.909 114.000,244.131 114.000 C 244.352 114.000,244.818 114.264,245.166 114.586 C 245.515 114.909,246.851 116.124,248.134 117.286 C 249.418 118.449,251.038 119.999,251.734 120.732 C 252.431 121.464,253.585 122.633,254.300 123.329 C 255.015 124.025,255.600 124.821,255.600 125.097 C 255.600 125.374,255.789 125.600,256.021 125.600 C 256.252 125.600,256.630 126.140,256.860 126.800 C 257.090 127.460,257.426 128.000,257.606 128.000 C 257.786 128.000,258.244 129.440,258.624 131.200 C 259.005 132.960,259.430 134.400,259.571 134.400 C 259.711 134.400,260.065 135.210,260.357 136.200 C 260.649 137.190,261.012 138.000,261.164 138.000 C 261.315 138.000,261.681 138.675,261.976 139.500 C 262.271 140.325,262.676 141.106,262.876 141.235 C 263.333 141.532,264.389 145.446,264.395 146.867 C 264.398 147.453,264.563 147.993,264.762 148.067 C 265.170 148.217,266.000 161.267,266.000 167.536 C 266.000 171.507,265.424 175.200,264.804 175.200 C 264.639 175.200,264.276 176.015,263.997 177.011 C 263.718 178.007,263.290 178.952,263.045 179.111 C 262.029 179.771,261.541 181.200,262.332 181.200 C 262.875 181.200,263.271 181.806,263.833 183.500 C 264.253 184.765,264.750 185.912,264.938 186.048 C 265.439 186.412,265.356 189.348,264.840 189.520 C 264.598 189.601,264.400 189.916,264.400 190.220 C 264.400 191.199,263.069 193.600,262.526 193.600 C 262.237 193.600,262.000 193.780,262.000 194.000 C 262.000 194.220,261.770 194.400,261.488 194.400 C 260.518 194.400,256.850 198.729,256.574 200.199 C 256.429 200.970,256.160 201.600,255.976 201.600 C 255.791 201.600,255.431 202.664,255.175 203.965 C 254.824 205.750,254.517 206.381,253.925 206.535 C 253.494 206.648,253.043 207.114,252.924 207.570 C 252.804 208.027,252.538 208.400,252.333 208.400 C 252.127 208.400,251.770 208.940,251.540 209.600 C 251.310 210.260,250.988 210.800,250.825 210.800 C 250.661 210.800,250.290 211.790,250.000 213.000 C 249.710 214.210,249.337 215.200,249.172 215.200 C 249.008 215.200,248.644 216.505,248.364 218.100 C 248.084 219.695,247.753 221.090,247.627 221.200 C 247.502 221.310,247.133 221.915,246.808 222.545 C 246.483 223.174,245.827 223.838,245.350 224.019 C 244.874 224.200,244.420 224.495,244.342 224.674 C 244.264 224.853,243.668 225.299,243.018 225.664 C 242.302 226.066,241.635 226.909,241.325 227.804 C 240.761 229.434,238.399 231.928,236.696 232.691 C 236.093 232.962,235.600 233.367,235.600 233.591 C 235.600 233.816,235.330 234.000,235.000 234.000 C 234.670 234.000,234.400 234.152,234.400 234.339 C 234.400 234.525,234.025 235.110,233.567 235.638 C 232.757 236.571,232.742 236.848,233.019 245.227 C 233.300 253.714,233.004 256.800,231.910 256.800 C 231.728 256.800,231.410 257.247,231.203 257.793 C 230.916 258.547,230.436 258.849,229.212 259.044 C 228.326 259.186,227.600 259.459,227.600 259.651 C 227.600 259.843,226.925 260.001,226.100 260.003 C 224.103 260.007,219.472 260.771,219.209 261.140 C 219.094 261.302,218.235 261.680,217.300 261.981 C 216.365 262.282,215.600 262.651,215.600 262.801 C 215.600 262.951,214.475 263.408,213.100 263.817 C 211.725 264.226,210.456 264.794,210.280 265.080 C 210.104 265.366,209.712 265.600,209.409 265.600 C 209.105 265.600,208.619 265.836,208.329 266.125 C 208.038 266.413,207.215 266.907,206.500 267.222 C 205.785 267.537,205.200 267.931,205.200 268.098 C 205.200 268.264,203.130 268.400,200.600 268.400 C 198.065 268.400,196.000 268.235,196.000 268.032 C 196.000 267.829,195.461 267.545,194.802 267.401 C 194.144 267.256,193.469 266.916,193.302 266.645 C 193.136 266.375,192.370 265.904,191.600 265.599 C 190.830 265.295,190.110 264.934,190.000 264.798 C 189.890 264.662,188.722 264.216,187.404 263.808 C 186.086 263.399,184.775 262.833,184.491 262.548 C 184.207 262.264,183.350 261.914,182.587 261.771 C 181.824 261.628,181.200 261.369,181.200 261.197 C 181.200 260.802,176.690 260.000,174.467 260.000 C 173.550 260.000,172.800 259.843,172.800 259.651 C 172.800 259.459,172.088 259.188,171.218 259.049 C 169.885 258.836,169.525 258.560,168.933 257.298 C 168.547 256.474,167.972 255.535,167.655 255.212 C 166.899 254.437,167.322 238.424,168.113 237.922 C 168.451 237.707,168.460 237.610,168.143 237.606 C 167.892 237.603,167.579 237.169,167.447 236.643 C 167.163 235.515,164.707 232.951,163.561 232.588 C 162.415 232.224,159.200 228.826,159.200 227.979 C 159.200 227.220,157.860 225.200,157.357 225.200 C 157.098 225.200,156.788 224.947,156.670 224.638 C 156.551 224.328,155.917 223.958,155.261 223.813 C 154.007 223.538,152.800 221.688,152.800 220.040 C 152.800 219.578,152.661 219.200,152.491 219.200 C 152.321 219.200,151.953 217.990,151.673 216.512 C 151.392 215.034,151.016 213.729,150.838 213.612 C 150.659 213.495,150.271 212.725,149.976 211.900 C 149.681 211.075,149.295 210.400,149.120 210.400 C 148.944 210.400,148.800 210.140,148.800 209.822 C 148.800 209.505,148.171 208.560,147.402 207.722 C 146.633 206.885,146.003 205.885,146.002 205.500 C 146.001 205.115,145.856 204.800,145.680 204.800 C 145.504 204.800,145.137 203.720,144.864 202.400 C 144.592 201.080,144.240 200.000,144.082 200.000 C 143.924 200.000,143.550 199.446,143.251 198.770 C 142.693 197.510,139.725 194.400,139.080 194.400 C 138.313 194.400,136.389 191.846,135.964 190.264 C 135.718 189.349,135.311 188.451,135.059 188.270 C 134.719 188.025,134.730 187.886,135.100 187.736 C 135.375 187.625,135.600 187.220,135.600 186.838 C 135.600 185.747,136.835 182.400,137.238 182.400 C 137.437 182.400,137.600 182.109,137.600 181.753 C 137.600 181.286,137.867 181.158,138.563 181.291 C 139.254 181.423,139.468 181.323,139.321 180.938 C 139.207 180.642,138.954 180.400,138.757 180.400 C 138.561 180.400,138.400 180.175,138.400 179.900 C 138.399 179.625,137.981 178.914,137.470 178.320 C 136.959 177.726,136.292 176.466,135.987 175.520 C 135.683 174.574,135.246 173.671,135.017 173.513 C 134.377 173.072,134.469 149.110,135.111 148.896 C 135.380 148.807,135.600 148.358,135.600 147.899 C 135.600 146.159,136.508 141.949,136.987 141.470 C 137.262 141.195,137.728 140.302,138.024 139.485 C 138.319 138.668,138.714 138.000,138.901 138.000 C 139.088 138.000,139.430 137.460,139.660 136.800 C 139.890 136.140,140.225 135.600,140.405 135.600 C 140.585 135.600,141.055 134.205,141.449 132.500 C 141.844 130.795,142.295 129.308,142.452 129.196 C 142.608 129.084,142.866 128.454,143.025 127.796 C 143.183 127.138,143.647 126.278,144.056 125.884 C 144.465 125.491,144.800 124.980,144.800 124.748 C 144.800 124.339,146.288 122.550,147.700 121.261 C 148.085 120.910,148.400 120.399,148.400 120.125 C 148.400 119.852,148.760 119.435,149.200 119.200 C 149.640 118.965,150.000 118.503,150.000 118.173 C 150.000 117.844,150.239 117.483,150.532 117.371 C 150.824 117.259,151.308 116.544,151.607 115.783 C 151.905 115.023,152.275 114.400,152.429 114.400 C 152.583 114.400,153.008 113.770,153.373 113.000 C 153.739 112.230,154.299 111.600,154.619 111.600 C 154.938 111.600,155.200 111.464,155.200 111.298 C 155.200 111.131,155.785 110.739,156.500 110.427 C 157.215 110.114,158.035 109.530,158.323 109.129 C 158.610 108.728,159.035 108.400,159.267 108.400 C 159.498 108.400,160.703 107.352,161.944 106.071 C 163.185 104.790,164.785 103.486,165.500 103.173 C 166.215 102.860,166.800 102.483,166.800 102.333 C 166.800 102.184,167.430 101.854,168.200 101.600 C 168.970 101.346,169.600 100.978,169.600 100.783 C 169.600 100.587,170.512 100.307,171.626 100.159 C 172.741 100.011,173.876 99.667,174.149 99.394 C 174.422 99.121,175.205 98.775,175.889 98.624 C 176.573 98.474,177.642 97.912,178.266 97.376 C 178.890 96.840,179.612 96.401,179.871 96.400 C 180.131 96.400,180.585 96.158,180.881 95.862 C 181.178 95.565,182.405 95.089,183.610 94.803 C 184.814 94.518,185.909 94.116,186.042 93.912 C 186.648 92.982,211.377 92.416,215.786 93.231 M181.826 265.641 C 183.022 265.908,184.000 266.262,184.000 266.426 C 184.000 266.590,184.913 266.850,186.028 267.004 C 187.181 267.162,188.150 267.524,188.271 267.841 C 188.389 268.149,188.722 268.400,189.012 268.400 C 191.256 268.400,192.224 271.471,190.583 273.381 C 190.055 273.995,189.516 274.836,189.384 275.249 C 189.253 275.662,188.978 276.000,188.773 276.000 C 188.568 276.000,188.400 276.226,188.400 276.501 C 188.400 276.777,187.877 277.496,187.237 278.100 C 185.963 279.303,185.951 280.589,187.211 280.919 C 187.679 281.041,188.046 281.637,188.218 282.556 C 188.367 283.350,188.612 284.000,188.762 284.000 C 189.944 284.000,189.996 295.598,188.817 296.400 C 188.655 296.510,188.404 297.089,188.258 297.686 C 187.855 299.331,184.965 297.610,184.227 295.285 C 184.072 294.798,183.790 294.400,183.599 294.400 C 183.408 294.400,183.024 293.770,182.746 293.000 C 182.467 292.230,182.104 291.600,181.938 291.600 C 181.773 291.600,181.324 290.925,180.940 290.100 C 180.557 289.275,180.008 288.456,179.722 288.280 C 179.435 288.104,179.200 287.694,179.200 287.368 C 179.200 287.042,178.932 286.672,178.604 286.546 C 178.276 286.420,177.797 285.616,177.540 284.759 C 177.284 283.901,176.956 283.200,176.812 283.200 C 176.350 283.200,175.635 279.503,175.362 275.700 C 175.216 273.665,174.940 272.000,174.748 272.000 C 174.557 272.000,174.400 271.640,174.400 271.200 C 174.400 270.760,174.580 270.400,174.800 270.400 C 175.020 270.400,175.200 270.041,175.200 269.603 C 175.200 267.726,176.542 265.610,177.894 265.356 C 178.612 265.221,179.214 264.906,179.232 264.655 C 179.254 264.338,179.322 264.345,179.457 264.677 C 179.564 264.939,180.630 265.373,181.826 265.641 M222.700 265.382 C 223.415 265.537,224.000 265.910,224.000 266.212 C 224.000 266.513,224.259 266.905,224.576 267.083 C 225.829 267.784,226.061 279.902,224.839 280.800 C 224.689 280.910,224.320 281.765,224.019 282.700 C 223.718 283.635,223.321 284.400,223.136 284.400 C 222.951 284.400,222.800 284.670,222.800 285.000 C 222.800 285.330,222.485 285.920,222.100 286.312 C 221.715 286.704,221.130 287.553,220.800 288.200 C 220.470 288.847,219.890 289.692,219.510 290.078 C 219.131 290.464,218.706 291.234,218.567 291.790 C 218.427 292.345,218.143 292.800,217.936 292.800 C 217.728 292.800,217.370 293.340,217.140 294.000 C 216.910 294.660,216.559 295.200,216.361 295.200 C 216.162 295.200,216.001 295.425,216.003 295.700 C 216.005 296.202,213.257 298.800,212.723 298.800 C 212.325 298.800,211.605 296.059,211.602 294.533 C 211.601 293.837,211.446 293.207,211.258 293.133 C 210.627 292.887,210.315 286.944,210.902 286.341 C 211.192 286.044,211.655 285.035,211.930 284.100 C 212.224 283.105,212.674 282.400,213.016 282.400 C 213.337 282.400,213.600 282.232,213.600 282.027 C 213.600 281.822,213.933 281.548,214.339 281.419 C 215.776 280.963,216.090 279.364,214.947 278.323 C 213.831 277.308,211.871 275.356,210.974 274.366 C 210.658 274.018,210.400 273.529,210.400 273.281 C 210.400 273.032,210.061 272.647,209.647 272.425 C 208.110 271.602,209.531 268.400,211.433 268.400 C 211.698 268.400,212.013 268.144,212.132 267.832 C 212.264 267.488,213.230 267.154,214.575 266.986 C 215.799 266.833,216.800 266.583,216.800 266.430 C 216.800 266.276,217.700 265.921,218.800 265.639 C 219.900 265.357,220.803 264.918,220.806 264.663 C 220.811 264.324,220.891 264.321,221.106 264.650 C 221.268 264.897,221.985 265.226,222.700 265.382 " stroke="none" fill="#e6ac96" fill-rule="evenodd"></path></g></svg>