<svg id="svg" version="1.1" xmlns="http://www.w3.org/2000/svg" xmlns:xlink="http://www.w3.org/1999/xlink" width="400" height="400" viewBox="0, 0, 400,400"><g id="svgg"><path id="path0" d="M108.400 338.600 C 108.400 341.667,108.555 343.600,108.800 343.600 C 109.020 343.600,109.200 344.590,109.200 345.800 C 109.200 347.010,109.355 348.000,109.544 348.000 C 109.733 348.000,109.990 348.985,110.114 350.189 C 110.340 352.377,111.780 357.063,112.447 357.780 C 112.641 357.989,112.800 358.484,112.800 358.880 C 112.800 359.276,112.980 359.600,113.200 359.600 C 113.420 359.600,113.600 359.943,113.600 360.362 C 113.600 361.178,115.201 364.512,115.700 364.733 C 115.865 364.807,116.000 365.197,116.000 365.600 C 116.000 366.003,116.135 366.393,116.300 366.467 C 116.676 366.634,117.975 368.764,118.271 369.700 C 118.393 370.085,118.652 370.400,118.847 370.400 C 119.041 370.400,119.200 370.578,119.200 370.795 C 119.200 371.151,119.844 372.056,121.013 373.345 C 121.240 373.595,121.868 374.430,122.409 375.200 C 122.949 375.970,124.293 377.523,125.395 378.651 C 126.498 379.778,128.210 381.557,129.200 382.603 C 130.190 383.649,132.350 385.511,134.000 386.741 C 135.650 387.971,137.090 389.094,137.200 389.237 C 137.310 389.380,138.390 390.008,139.600 390.632 C 140.810 391.256,141.860 391.910,141.933 392.084 C 142.007 392.258,142.412 392.400,142.833 392.400 C 143.255 392.400,143.600 392.580,143.600 392.800 C 143.600 393.020,143.960 393.200,144.400 393.200 C 144.840 393.200,145.200 393.380,145.200 393.600 C 145.200 393.820,145.560 394.000,146.000 394.000 C 146.440 394.000,146.800 394.180,146.800 394.400 C 146.800 394.620,147.149 394.800,147.576 394.800 C 148.003 394.800,148.464 394.980,148.600 395.200 C 148.736 395.420,149.197 395.600,149.624 395.600 C 150.051 395.600,150.400 395.780,150.400 396.000 C 150.400 396.220,150.762 396.400,151.205 396.400 C 151.648 396.400,152.413 396.608,152.905 396.862 C 154.884 397.885,155.236 398.000,156.395 398.000 C 157.058 398.000,157.600 398.180,157.600 398.400 C 157.600 398.620,158.305 398.800,159.167 398.800 C 160.064 398.800,160.804 399.013,160.900 399.300 C 161.029 399.687,164.232 399.800,175.113 399.800 C 185.817 399.800,189.279 399.681,189.660 399.300 C 189.935 399.025,190.743 398.800,191.456 398.800 C 192.169 398.800,192.864 398.620,193.000 398.400 C 193.136 398.180,193.777 398.000,194.424 398.000 C 195.071 398.000,195.600 397.820,195.600 397.600 C 195.600 397.380,196.140 397.200,196.800 397.200 C 197.460 397.200,198.000 397.020,198.000 396.800 C 198.000 396.580,198.439 396.400,198.976 396.400 C 199.513 396.400,200.064 396.220,200.200 396.000 C 200.336 395.780,200.797 395.600,201.224 395.600 C 201.651 395.600,202.000 395.420,202.000 395.200 C 202.000 394.980,202.349 394.800,202.776 394.800 C 203.203 394.800,203.664 394.620,203.800 394.400 C 203.936 394.180,204.407 394.000,204.847 394.000 C 205.287 394.000,205.536 393.820,205.400 393.600 C 205.258 393.371,205.618 393.200,206.243 393.200 C 206.843 393.200,207.211 393.078,207.062 392.929 C 206.913 392.780,207.917 392.135,209.293 391.495 C 210.669 390.855,211.886 390.212,211.998 390.066 C 212.109 389.920,212.560 389.572,213.000 389.294 C 215.351 387.808,216.380 387.054,218.167 385.505 C 220.340 383.622,226.000 378.036,226.000 377.775 C 226.000 377.592,226.872 376.511,228.400 374.800 C 230.246 372.733,230.800 371.993,230.800 371.595 C 230.800 371.378,230.980 371.200,231.200 371.200 C 231.420 371.200,231.600 370.945,231.600 370.633 C 231.600 370.322,231.735 370.007,231.900 369.933 C 232.276 369.766,233.575 367.636,233.871 366.700 C 233.993 366.315,234.252 366.000,234.447 366.000 C 234.641 366.000,234.800 365.640,234.800 365.200 C 234.800 364.760,234.980 364.400,235.200 364.400 C 235.420 364.400,235.600 364.040,235.600 363.600 C 235.600 363.160,235.780 362.800,236.000 362.800 C 236.220 362.800,236.400 362.440,236.400 362.000 C 236.400 361.560,236.580 361.200,236.800 361.200 C 237.020 361.200,237.200 360.928,237.200 360.595 C 237.200 360.262,237.359 359.677,237.553 359.295 C 238.297 357.833,239.095 355.716,239.624 353.800 C 239.806 353.140,240.156 351.880,240.401 351.000 C 241.066 348.619,241.220 347.687,241.474 344.500 C 241.601 342.905,241.862 341.600,242.053 341.600 C 242.244 341.600,242.400 339.800,242.400 337.600 L 242.400 333.600 175.400 333.600 L 108.400 333.600 108.400 338.600 " stroke="none" fill="#fca404" fill-rule="evenodd"></path><path id="path1" d="M294.800 0.275 C 293.590 0.369,292.429 0.616,292.220 0.823 C 292.011 1.030,291.156 1.200,290.320 1.200 C 289.484 1.200,288.800 1.380,288.800 1.600 C 288.800 1.820,288.080 2.000,287.200 2.000 C 286.320 2.000,285.600 2.180,285.600 2.400 C 285.600 2.620,284.970 2.800,284.200 2.800 C 283.430 2.800,282.800 2.980,282.800 3.200 C 282.800 3.420,282.361 3.600,281.824 3.600 C 281.287 3.600,280.736 3.780,280.600 4.000 C 280.464 4.220,279.913 4.400,279.376 4.400 C 278.839 4.400,278.400 4.580,278.400 4.800 C 278.400 5.020,277.950 5.200,277.400 5.200 C 276.850 5.200,276.400 5.380,276.400 5.600 C 276.400 5.820,276.040 6.000,275.600 6.000 C 275.160 6.000,274.800 6.180,274.800 6.400 C 274.800 6.620,274.440 6.800,274.000 6.800 C 273.560 6.800,273.200 6.980,273.200 7.200 C 273.200 7.420,272.784 7.600,272.275 7.600 C 271.767 7.600,270.964 7.960,270.492 8.400 C 270.020 8.840,269.356 9.200,269.017 9.200 C 268.678 9.200,268.400 9.357,268.400 9.550 C 268.400 9.742,267.903 9.999,267.296 10.121 C 265.975 10.385,260.000 14.210,260.000 14.792 C 260.000 15.016,259.712 15.200,259.360 15.200 C 259.009 15.200,258.217 15.740,257.600 16.400 C 256.983 17.060,256.277 17.600,256.029 17.600 C 255.423 17.600,242.800 30.195,242.800 30.800 C 242.800 31.064,242.260 31.783,241.600 32.400 C 240.940 33.017,240.400 33.769,240.400 34.072 C 240.400 34.375,240.040 34.883,239.600 35.200 C 239.160 35.517,238.800 36.057,238.800 36.400 C 238.800 36.743,238.440 37.283,238.000 37.600 C 237.560 37.917,237.200 38.414,237.200 38.705 C 237.200 38.996,236.840 39.620,236.400 40.092 C 235.960 40.564,235.600 41.187,235.600 41.475 C 235.600 41.764,235.420 42.000,235.200 42.000 C 234.980 42.000,234.800 42.360,234.800 42.800 C 234.800 43.240,234.654 43.600,234.475 43.600 C 234.296 43.600,233.902 44.230,233.600 45.000 C 233.298 45.770,232.904 46.400,232.725 46.400 C 232.546 46.400,232.400 46.665,232.400 46.988 C 232.400 47.311,232.040 48.217,231.600 49.000 C 231.160 49.783,230.800 50.779,230.800 51.212 C 230.800 51.645,230.620 52.000,230.400 52.000 C 230.180 52.000,230.000 52.272,230.000 52.605 C 230.000 52.938,229.841 53.523,229.646 53.905 C 228.856 55.456,227.518 60.238,227.310 62.253 C 227.188 63.434,226.933 64.400,226.744 64.400 C 226.555 64.400,226.400 65.300,226.400 66.400 C 226.400 67.500,226.220 68.400,226.000 68.400 C 225.771 68.400,225.600 69.600,225.600 71.200 C 225.600 72.800,225.429 74.000,225.200 74.000 C 224.944 74.000,224.800 77.467,224.800 83.600 C 224.800 89.733,224.944 93.200,225.200 93.200 C 225.426 93.200,225.600 94.333,225.600 95.800 C 225.600 97.267,225.774 98.400,226.000 98.400 C 226.220 98.400,226.400 99.300,226.400 100.400 C 226.400 101.500,226.557 102.400,226.748 102.400 C 226.940 102.400,227.220 103.656,227.372 105.191 C 227.523 106.726,227.816 108.086,228.023 108.214 C 228.230 108.342,228.400 108.887,228.400 109.424 C 228.400 109.961,228.580 110.400,228.800 110.400 C 229.020 110.400,229.200 110.940,229.200 111.600 C 229.200 112.260,229.347 112.800,229.528 112.800 C 229.708 112.800,230.100 113.700,230.400 114.800 C 230.700 115.900,231.092 116.800,231.272 116.800 C 231.453 116.800,231.600 117.160,231.600 117.600 C 231.600 118.040,231.780 118.400,232.000 118.400 C 232.220 118.400,232.400 118.634,232.400 118.920 C 232.400 119.656,233.341 121.593,233.700 121.597 C 233.865 121.599,234.000 121.960,234.000 122.400 C 234.000 122.840,234.146 123.200,234.325 123.200 C 234.504 123.200,234.898 123.830,235.200 124.600 C 235.502 125.370,235.896 126.000,236.075 126.000 C 236.254 126.000,236.400 126.236,236.400 126.525 C 236.400 126.813,236.760 127.436,237.200 127.908 C 237.640 128.380,238.000 129.004,238.000 129.295 C 238.000 129.586,238.360 130.083,238.800 130.400 C 239.240 130.717,239.600 131.225,239.600 131.528 C 239.600 131.831,240.140 132.583,240.800 133.200 C 241.460 133.817,242.000 134.543,242.000 134.814 C 242.000 135.084,242.316 135.597,242.702 135.953 C 243.088 136.309,244.120 137.500,244.995 138.600 C 246.903 140.997,252.336 146.400,252.839 146.400 C 253.035 146.400,254.115 147.300,255.239 148.400 C 256.362 149.500,257.467 150.400,257.694 150.400 C 257.921 150.400,258.397 150.728,258.753 151.128 C 259.584 152.064,264.225 155.200,264.778 155.200 C 265.010 155.200,265.200 155.343,265.200 155.519 C 265.200 155.950,270.861 158.800,271.718 158.800 C 272.093 158.800,272.400 158.980,272.400 159.200 C 272.400 159.420,272.760 159.600,273.200 159.600 C 273.640 159.600,274.000 159.780,274.000 160.000 C 274.000 160.220,274.360 160.400,274.800 160.400 C 275.240 160.400,275.600 160.580,275.600 160.800 C 275.600 161.020,276.039 161.200,276.576 161.200 C 277.113 161.200,277.664 161.380,277.800 161.600 C 277.936 161.820,278.487 162.000,279.024 162.000 C 279.561 162.000,280.000 162.180,280.000 162.400 C 280.000 162.620,280.439 162.800,280.976 162.800 C 281.513 162.800,282.064 162.980,282.200 163.200 C 282.336 163.420,282.977 163.600,283.624 163.600 C 284.271 163.600,284.800 163.780,284.800 164.000 C 284.800 164.220,285.329 164.400,285.976 164.400 C 286.623 164.400,287.264 164.580,287.400 164.800 C 287.536 165.020,288.447 165.200,289.424 165.200 C 290.401 165.200,291.200 165.380,291.200 165.600 C 291.200 165.820,292.100 166.000,293.200 166.000 C 294.300 166.000,295.200 166.180,295.200 166.400 C 295.200 166.635,296.592 166.800,298.576 166.800 C 300.433 166.800,302.064 166.980,302.200 167.200 C 302.347 167.439,304.930 167.600,308.600 167.600 C 312.270 167.600,314.853 167.439,315.000 167.200 C 315.136 166.980,316.756 166.800,318.600 166.800 C 320.444 166.800,322.064 166.620,322.200 166.400 C 322.336 166.180,323.247 166.000,324.224 166.000 C 325.201 166.000,326.000 165.820,326.000 165.600 C 326.000 165.380,326.799 165.200,327.776 165.200 C 328.753 165.200,329.664 165.020,329.800 164.800 C 329.936 164.580,330.577 164.400,331.224 164.400 C 331.871 164.400,332.400 164.220,332.400 164.000 C 332.400 163.780,332.929 163.600,333.576 163.600 C 334.223 163.600,334.864 163.420,335.000 163.200 C 335.136 162.980,335.777 162.800,336.424 162.800 C 337.071 162.800,337.600 162.620,337.600 162.400 C 337.600 162.180,338.050 162.000,338.600 162.000 C 339.150 162.000,339.600 161.820,339.600 161.600 C 339.600 161.380,340.050 161.200,340.600 161.200 C 341.150 161.200,341.600 161.020,341.600 160.800 C 341.600 160.580,341.960 160.400,342.400 160.400 C 342.840 160.400,343.200 160.220,343.200 160.000 C 343.200 159.780,343.560 159.600,344.000 159.600 C 344.440 159.600,344.800 159.420,344.800 159.200 C 344.800 158.980,345.122 158.800,345.516 158.800 C 346.194 158.800,351.574 156.188,352.000 155.652 C 352.110 155.513,352.605 155.175,353.100 154.900 C 355.939 153.323,356.750 152.760,358.288 151.300 C 358.810 150.805,359.390 150.400,359.578 150.400 C 359.765 150.400,360.838 149.500,361.961 148.400 C 363.085 147.300,364.191 146.400,364.419 146.400 C 365.278 146.400,375.200 135.712,375.200 134.787 C 375.200 134.531,375.740 133.817,376.400 133.200 C 377.060 132.583,377.600 131.831,377.600 131.528 C 377.600 131.225,377.960 130.717,378.400 130.400 C 378.840 130.083,379.200 129.543,379.200 129.200 C 379.200 128.857,379.560 128.317,380.000 128.000 C 380.440 127.683,380.800 127.103,380.800 126.712 C 380.800 126.320,380.980 126.000,381.200 126.000 C 381.420 126.000,381.600 125.730,381.600 125.400 C 381.600 125.070,381.780 124.800,382.000 124.800 C 382.220 124.800,382.400 124.440,382.400 124.000 C 382.400 123.560,382.580 123.200,382.800 123.200 C 383.020 123.200,383.200 122.840,383.200 122.400 C 383.200 121.960,383.380 121.600,383.600 121.600 C 383.820 121.600,384.000 121.240,384.000 120.800 C 384.000 120.360,384.180 120.000,384.400 120.000 C 384.620 120.000,384.800 119.640,384.800 119.200 C 384.800 118.760,384.980 118.400,385.200 118.400 C 385.420 118.400,385.600 118.040,385.600 117.600 C 385.600 117.160,385.780 116.800,386.000 116.800 C 386.220 116.800,386.400 116.451,386.400 116.024 C 386.400 115.597,386.580 115.136,386.800 115.000 C 387.020 114.864,387.200 114.313,387.200 113.776 C 387.200 113.239,387.380 112.800,387.600 112.800 C 387.820 112.800,388.000 112.260,388.000 111.600 C 388.000 110.940,388.180 110.400,388.400 110.400 C 388.620 110.400,388.800 109.961,388.800 109.424 C 388.800 108.887,388.960 108.348,389.156 108.227 C 389.351 108.106,389.608 107.421,389.727 106.704 C 389.845 105.987,390.153 104.590,390.410 103.600 C 390.667 102.610,391.054 100.000,391.270 97.800 C 391.486 95.600,391.828 93.487,392.031 93.105 C 392.495 92.233,392.522 74.000,392.060 74.000 C 391.873 74.000,391.597 71.978,391.447 69.507 C 391.297 67.036,391.000 64.840,390.787 64.627 C 390.574 64.414,390.400 63.657,390.400 62.944 C 390.400 62.231,390.220 61.536,390.000 61.400 C 389.780 61.264,389.600 60.634,389.600 60.000 C 389.600 59.366,389.420 58.736,389.200 58.600 C 388.980 58.464,388.800 57.924,388.800 57.400 C 388.800 56.876,388.620 56.336,388.400 56.200 C 388.180 56.064,388.000 55.524,388.000 55.000 C 388.000 54.476,387.820 53.936,387.600 53.800 C 387.380 53.664,387.200 53.203,387.200 52.776 C 387.200 52.349,387.020 52.000,386.800 52.000 C 386.580 52.000,386.400 51.561,386.400 51.024 C 386.400 50.487,386.220 49.936,386.000 49.800 C 385.780 49.664,385.600 49.203,385.600 48.776 C 385.600 48.349,385.420 48.000,385.200 48.000 C 384.980 48.000,384.800 47.640,384.800 47.200 C 384.800 46.760,384.654 46.400,384.475 46.400 C 384.296 46.400,383.902 45.770,383.600 45.000 C 383.298 44.230,382.904 43.600,382.725 43.600 C 382.546 43.600,382.400 43.240,382.400 42.800 C 382.400 42.360,382.220 42.000,382.000 42.000 C 381.780 42.000,381.600 41.764,381.600 41.475 C 381.600 41.187,381.240 40.564,380.800 40.092 C 380.360 39.620,380.000 38.996,380.000 38.705 C 380.000 38.414,379.640 37.917,379.200 37.600 C 378.760 37.283,378.400 36.743,378.400 36.400 C 378.400 36.057,378.040 35.517,377.600 35.200 C 377.160 34.883,376.800 34.369,376.800 34.059 C 376.800 33.748,376.476 33.203,376.079 32.847 C 375.683 32.491,374.969 31.570,374.493 30.800 C 374.017 30.030,372.361 28.174,370.814 26.676 C 369.266 25.178,368.000 23.783,368.000 23.576 C 368.000 23.369,367.811 23.200,367.581 23.200 C 367.350 23.200,365.919 21.940,364.400 20.400 C 362.881 18.860,361.432 17.600,361.180 17.600 C 360.927 17.600,360.244 17.093,359.660 16.472 C 358.104 14.817,351.394 10.419,350.001 10.140 C 349.340 10.008,348.800 9.742,348.800 9.550 C 348.800 9.357,348.440 9.200,348.000 9.200 C 347.560 9.200,347.200 9.020,347.200 8.800 C 347.200 8.580,346.840 8.400,346.400 8.400 C 345.960 8.400,345.600 8.220,345.600 8.000 C 345.600 7.780,345.240 7.600,344.800 7.600 C 344.360 7.600,344.000 7.420,344.000 7.200 C 344.000 6.980,343.640 6.800,343.200 6.800 C 342.760 6.800,342.399 6.665,342.397 6.500 C 342.393 6.094,340.414 5.200,339.520 5.200 C 339.124 5.200,338.800 5.020,338.800 4.800 C 338.800 4.580,338.350 4.400,337.800 4.400 C 337.250 4.400,336.800 4.220,336.800 4.000 C 336.800 3.780,336.361 3.600,335.824 3.600 C 335.287 3.600,334.736 3.420,334.600 3.200 C 334.464 2.980,333.733 2.800,332.976 2.800 C 332.219 2.800,331.600 2.620,331.600 2.400 C 331.600 2.180,330.880 2.000,330.000 2.000 C 329.120 2.000,328.400 1.820,328.400 1.600 C 328.400 1.380,327.716 1.200,326.880 1.200 C 326.044 1.200,325.138 0.978,324.866 0.706 C 324.373 0.213,300.074 -0.136,294.800 0.275 " stroke="none" fill="#f44434" fill-rule="evenodd"></path><path id="path2" d="M168.000 32.751 C 168.000 33.043,166.958 33.200,165.024 33.200 C 163.387 33.200,161.948 33.361,161.827 33.557 C 161.705 33.753,160.480 33.951,159.103 33.995 C 154.947 34.130,154.467 34.185,154.661 34.499 C 154.834 34.779,152.692 35.002,151.100 34.868 C 150.715 34.836,150.400 34.950,150.400 35.122 C 150.400 35.431,146.615 36.388,144.928 36.505 C 144.448 36.539,144.144 36.709,144.251 36.883 C 144.359 37.057,143.897 37.200,143.224 37.200 C 142.551 37.200,142.000 37.380,142.000 37.600 C 142.000 37.820,141.471 38.000,140.824 38.000 C 140.177 38.000,139.536 38.180,139.400 38.400 C 139.264 38.620,138.713 38.800,138.176 38.800 C 137.639 38.800,137.200 38.980,137.200 39.200 C 137.200 39.420,136.585 39.600,135.833 39.600 C 135.082 39.600,134.407 39.735,134.333 39.900 C 134.112 40.399,130.778 42.000,129.962 42.000 C 129.543 42.000,129.200 42.180,129.200 42.400 C 129.200 42.620,128.930 42.800,128.600 42.800 C 128.270 42.800,128.000 43.002,128.000 43.249 C 128.000 43.539,127.823 43.567,127.500 43.327 C 127.018 42.969,120.200 46.067,120.597 46.464 C 120.690 46.557,120.399 46.660,119.951 46.694 C 118.984 46.767,117.928 47.560,118.203 48.005 C 118.310 48.179,117.870 48.284,117.224 48.239 C 116.578 48.194,116.140 48.302,116.249 48.479 C 116.358 48.655,116.167 48.800,115.824 48.800 C 115.481 48.800,115.200 48.980,115.200 49.200 C 115.200 49.420,114.930 49.600,114.600 49.600 C 114.270 49.600,114.000 49.780,114.000 50.000 C 114.000 50.220,113.654 50.400,113.231 50.400 C 112.808 50.400,111.922 50.940,111.262 51.600 C 110.602 52.260,109.767 52.800,109.407 52.800 C 109.047 52.800,108.864 52.980,109.000 53.200 C 109.136 53.420,109.007 53.600,108.713 53.600 C 108.419 53.600,107.463 54.303,106.589 55.161 C 105.715 56.020,104.865 56.640,104.700 56.538 C 104.535 56.436,104.397 56.678,104.394 57.076 C 104.389 57.690,104.329 57.709,104.000 57.200 C 103.742 56.800,103.610 56.767,103.606 57.100 C 103.603 57.375,103.300 57.600,102.933 57.600 C 102.567 57.600,102.383 57.717,102.526 57.859 C 102.883 58.216,101.240 59.609,99.900 60.086 C 99.295 60.302,98.800 60.731,98.800 61.039 C 98.800 61.348,98.549 61.600,98.243 61.600 C 97.936 61.600,97.572 61.896,97.433 62.257 C 97.295 62.619,97.067 62.800,96.927 62.661 C 96.542 62.275,95.572 63.231,95.866 63.707 C 96.008 63.936,95.943 64.012,95.722 63.875 C 95.271 63.597,93.533 65.400,93.899 65.766 C 94.028 65.895,93.833 66.000,93.467 66.000 C 93.100 66.000,92.800 66.276,92.800 66.613 C 92.800 66.949,92.541 67.324,92.225 67.446 C 91.909 67.567,91.749 67.923,91.870 68.238 C 92.014 68.613,91.894 68.734,91.522 68.592 C 90.951 68.372,88.800 70.431,88.800 71.197 C 88.800 71.418,88.622 71.600,88.405 71.600 C 87.808 71.600,86.400 72.910,86.400 73.466 C 86.400 73.735,86.016 74.223,85.547 74.552 C 84.995 74.939,84.785 75.385,84.952 75.819 C 85.133 76.290,85.042 76.425,84.647 76.273 C 84.043 76.042,82.400 77.543,82.400 78.326 C 82.400 78.587,82.220 78.800,82.000 78.800 C 81.780 78.800,81.600 79.070,81.600 79.400 C 81.600 79.730,81.449 80.000,81.264 80.000 C 81.080 80.000,80.719 80.460,80.463 81.023 C 80.184 81.633,79.811 81.931,79.536 81.761 C 79.283 81.604,79.184 81.650,79.315 81.863 C 79.630 82.373,78.229 84.496,77.837 84.103 C 77.670 83.936,77.577 83.980,77.631 84.200 C 77.797 84.876,76.882 86.715,76.186 87.104 C 75.824 87.306,75.544 87.591,75.564 87.736 C 75.694 88.690,75.543 89.212,75.200 89.000 C 74.980 88.864,74.800 89.123,74.800 89.576 C 74.800 90.029,74.620 90.400,74.400 90.400 C 74.180 90.400,74.000 90.670,74.000 91.000 C 74.000 91.330,73.809 91.600,73.576 91.600 C 73.343 91.600,73.255 91.765,73.380 91.968 C 73.505 92.170,73.336 92.607,73.004 92.939 C 72.672 93.271,72.400 93.746,72.400 93.995 C 72.400 94.244,72.192 94.319,71.938 94.162 C 71.666 93.994,71.584 94.051,71.739 94.302 C 72.087 94.865,71.616 96.057,71.158 95.774 C 70.961 95.652,70.800 95.851,70.800 96.215 C 70.800 96.579,70.405 97.432,69.921 98.110 C 69.438 98.789,69.293 99.189,69.600 99.000 C 69.907 98.811,69.751 99.227,69.253 99.925 C 68.756 100.623,68.450 101.357,68.572 101.555 C 68.695 101.754,68.526 102.019,68.198 102.146 C 67.869 102.272,67.596 102.876,67.591 103.487 C 67.586 104.099,67.230 105.050,66.800 105.600 C 66.370 106.150,66.014 107.005,66.009 107.500 C 66.004 107.995,65.790 108.400,65.533 108.400 C 65.277 108.400,65.180 108.514,65.319 108.653 C 65.458 108.792,65.360 109.287,65.101 109.753 C 64.842 110.219,64.664 110.722,64.706 110.872 C 64.747 111.022,64.525 111.639,64.211 112.243 C 63.898 112.848,63.733 113.492,63.846 113.674 C 63.959 113.856,63.765 114.115,63.415 114.250 C 62.924 114.438,62.884 114.619,63.239 115.047 C 63.520 115.385,63.541 115.600,63.292 115.600 C 62.795 115.600,62.250 117.413,62.304 118.891 C 62.325 119.490,62.145 119.940,61.904 119.891 C 61.662 119.841,61.443 120.340,61.418 121.000 C 61.393 121.660,61.203 122.470,60.995 122.800 C 60.788 123.130,60.588 123.940,60.551 124.600 C 60.513 125.260,60.269 126.970,60.008 128.400 C 59.747 129.830,59.442 132.260,59.331 133.800 C 59.220 135.340,58.967 136.796,58.769 137.035 C 58.564 137.284,58.403 150.338,58.395 167.478 C 58.387 183.983,58.256 197.610,58.104 197.762 C 57.752 198.115,57.687 199.070,57.595 205.299 C 57.553 208.200,57.365 210.302,57.160 210.175 C 56.960 210.052,56.800 211.133,56.800 212.603 C 56.800 214.060,56.609 215.610,56.375 216.047 C 56.141 216.485,55.940 217.550,55.928 218.416 C 55.916 219.281,55.747 219.891,55.553 219.771 C 55.359 219.651,55.200 220.193,55.200 220.976 C 55.200 221.759,55.020 222.400,54.800 222.400 C 54.580 222.400,54.400 223.120,54.400 224.000 C 54.400 224.880,54.220 225.600,54.000 225.600 C 53.780 225.600,53.600 226.241,53.600 227.024 C 53.600 227.807,53.465 228.364,53.300 228.262 C 53.135 228.160,52.974 228.510,52.942 229.040 C 52.910 229.570,52.746 230.317,52.577 230.701 C 52.160 231.648,52.109 231.858,52.044 232.900 C 51.998 233.641,51.916 233.694,51.582 233.200 C 51.261 232.724,51.192 232.807,51.251 233.600 C 51.375 235.292,51.218 236.058,50.800 235.800 C 50.580 235.664,50.400 235.903,50.400 236.331 C 50.400 237.197,49.421 239.288,49.144 239.011 C 49.047 238.914,48.924 239.404,48.871 240.101 C 48.818 240.798,48.555 241.508,48.287 241.678 C 48.019 241.848,47.947 241.991,48.127 241.994 C 48.307 241.997,48.070 242.540,47.600 243.200 C 47.130 243.860,46.846 244.400,46.969 244.400 C 47.092 244.400,46.881 244.764,46.500 245.208 C 46.120 245.652,45.789 246.237,45.765 246.508 C 45.645 247.866,45.565 248.026,45.138 247.762 C 44.844 247.580,44.785 247.653,44.977 247.963 C 45.147 248.239,44.957 248.817,44.539 249.294 C 44.026 249.880,43.983 250.046,44.400 249.839 C 44.883 249.599,44.878 249.644,44.373 250.070 C 44.028 250.362,43.489 251.185,43.175 251.900 C 42.861 252.615,42.469 253.200,42.302 253.200 C 42.136 253.200,41.994 253.515,41.987 253.900 C 41.969 254.923,40.940 256.191,40.672 255.521 C 40.540 255.191,40.452 255.263,40.432 255.717 C 40.414 256.111,40.040 256.820,39.600 257.292 C 39.160 257.764,38.800 258.387,38.800 258.675 C 38.800 258.964,38.620 259.200,38.400 259.200 C 38.180 259.200,38.045 259.425,38.100 259.700 C 38.155 259.975,37.975 260.155,37.700 260.100 C 37.425 260.045,37.221 260.135,37.247 260.300 C 37.363 261.034,37.173 261.630,36.880 261.449 C 36.704 261.341,36.331 261.619,36.051 262.068 C 35.769 262.518,35.733 262.765,35.970 262.618 C 36.794 262.110,36.392 262.801,35.205 263.935 C 34.548 264.563,34.128 265.195,34.272 265.338 C 34.416 265.482,34.223 265.600,33.843 265.600 C 33.463 265.600,33.256 265.768,33.383 265.973 C 33.510 266.178,33.210 266.628,32.718 266.973 C 32.225 267.318,31.986 267.600,32.186 267.600 C 32.387 267.600,32.164 267.960,31.692 268.400 C 31.220 268.840,30.616 269.200,30.350 269.200 C 30.084 269.200,29.974 269.307,30.105 269.438 C 30.236 269.570,29.644 270.320,28.790 271.106 C 27.935 271.891,27.328 272.684,27.441 272.867 C 27.555 273.050,27.367 273.200,27.024 273.200 C 26.681 273.200,26.421 273.335,26.447 273.500 C 26.586 274.378,26.319 274.800,25.627 274.800 C 25.202 274.800,24.746 275.139,24.615 275.552 C 24.249 276.707,23.061 277.896,22.474 277.695 C 22.181 277.596,21.849 277.890,21.727 278.358 C 21.606 278.821,21.301 279.200,21.049 279.200 C 20.797 279.200,20.145 279.740,19.600 280.400 C 19.055 281.060,18.382 281.600,18.104 281.600 C 17.827 281.600,17.645 281.825,17.700 282.100 C 17.755 282.375,17.613 282.568,17.384 282.528 C 17.156 282.489,16.616 282.983,16.184 283.627 C 15.753 284.271,15.156 284.798,14.857 284.799 C 14.531 284.800,14.410 285.048,14.553 285.421 C 14.684 285.762,14.633 285.944,14.439 285.824 C 13.922 285.504,12.769 287.454,13.047 288.179 C 13.216 288.619,13.040 288.800,12.443 288.800 C 11.810 288.800,11.600 289.050,11.600 289.800 C 11.600 290.350,11.390 290.800,11.133 290.800 C 10.877 290.800,10.785 290.918,10.930 291.063 C 11.075 291.208,10.978 291.586,10.714 291.904 C 10.196 292.528,9.940 293.394,9.946 294.500 C 9.948 294.885,9.781 295.200,9.575 295.200 C 9.369 295.200,9.200 295.740,9.200 296.400 C 9.200 297.060,9.020 297.600,8.800 297.600 C 8.549 297.600,8.400 300.067,8.400 304.200 C 8.400 308.333,8.549 310.800,8.800 310.800 C 9.020 310.800,9.200 311.509,9.200 312.376 C 9.200 313.243,9.366 314.055,9.569 314.181 C 9.772 314.306,10.057 314.947,10.201 315.605 C 10.345 316.262,10.640 316.800,10.855 316.800 C 11.071 316.800,11.136 316.980,11.000 317.200 C 10.864 317.420,10.943 317.600,11.176 317.600 C 11.409 317.600,11.600 317.883,11.600 318.229 C 11.600 319.036,12.603 320.048,13.039 319.681 C 13.223 319.526,13.110 319.750,12.787 320.177 C 12.300 320.822,12.296 320.895,12.768 320.611 C 13.197 320.352,13.272 320.436,13.073 320.955 C 12.928 321.333,12.960 321.548,13.144 321.434 C 13.329 321.321,13.720 321.677,14.015 322.228 C 14.343 322.841,14.775 323.142,15.132 323.005 C 15.596 322.827,15.617 322.897,15.237 323.355 C 14.869 323.799,14.870 323.996,15.242 324.226 C 15.576 324.432,15.620 324.351,15.385 323.962 C 15.097 323.484,15.148 323.482,15.719 323.945 C 16.089 324.245,16.302 324.635,16.193 324.811 C 16.085 324.987,16.527 325.366,17.178 325.654 C 17.965 326.003,18.200 326.279,17.880 326.483 C 17.558 326.687,17.640 326.790,18.129 326.794 C 18.953 326.801,20.091 327.776,19.714 328.152 C 19.578 328.289,19.684 328.400,19.950 328.400 C 20.216 328.400,20.816 328.757,21.284 329.193 C 21.976 329.837,22.249 329.894,22.744 329.493 C 23.229 329.101,23.292 329.102,23.053 329.500 C 22.884 329.781,22.949 330.000,23.200 330.000 C 23.446 330.000,23.536 330.180,23.400 330.400 C 23.264 330.620,23.513 330.800,23.953 330.800 C 24.393 330.800,24.864 330.980,25.000 331.200 C 25.136 331.420,25.787 331.600,26.447 331.600 C 27.145 331.600,27.544 331.767,27.400 332.000 C 27.190 332.340,28.309 332.604,29.300 332.447 C 29.465 332.421,29.600 332.580,29.600 332.800 C 29.600 333.020,30.140 333.200,30.800 333.200 C 31.460 333.200,32.000 333.366,32.000 333.569 C 32.000 334.286,108.264 334.132,108.539 333.414 C 108.894 332.489,241.900 332.475,242.255 333.400 C 242.571 334.223,316.603 334.322,316.935 333.500 C 317.096 333.100,317.143 333.100,317.168 333.500 C 317.206 334.089,318.400 334.186,318.400 333.600 C 318.400 333.380,318.929 333.200,319.576 333.200 C 320.223 333.200,320.864 333.020,321.000 332.800 C 321.136 332.580,321.877 332.400,322.647 332.400 C 323.479 332.400,323.947 332.238,323.800 332.000 C 323.664 331.780,323.908 331.600,324.343 331.600 C 324.778 331.600,325.193 331.422,325.267 331.203 C 325.340 330.985,325.882 330.767,326.471 330.719 C 327.060 330.670,327.455 330.488,327.348 330.315 C 327.240 330.142,327.433 330.000,327.776 330.000 C 328.119 330.000,328.400 329.850,328.400 329.668 C 328.400 329.485,328.895 329.080,329.500 328.768 C 330.105 328.455,330.835 327.885,331.123 327.500 C 331.410 327.115,331.905 326.800,332.223 326.800 C 332.540 326.800,332.800 326.620,332.800 326.400 C 332.800 326.180,333.026 326.000,333.302 326.000 C 333.579 326.000,334.052 325.442,334.354 324.760 C 334.763 323.835,334.990 323.657,335.245 324.060 C 335.498 324.459,335.589 324.470,335.594 324.100 C 335.597 323.825,335.972 323.228,336.427 322.773 C 336.882 322.318,337.280 321.598,337.312 321.173 C 337.344 320.748,337.512 320.400,337.685 320.400 C 337.858 320.400,338.000 320.130,338.000 319.800 C 338.000 319.470,338.159 319.200,338.354 319.200 C 338.683 319.200,340.179 316.449,340.095 316.000 C 340.074 315.890,340.343 315.484,340.693 315.098 C 341.042 314.711,341.211 314.278,341.068 314.134 C 340.924 313.991,340.983 313.662,341.197 313.403 C 341.412 313.144,341.636 311.840,341.694 310.505 C 341.752 309.170,341.932 308.285,342.094 308.539 C 342.256 308.792,342.391 306.630,342.394 303.733 C 342.397 300.807,342.233 298.407,342.025 298.333 C 341.818 298.260,341.563 297.660,341.457 297.000 C 341.352 296.340,341.228 295.755,341.183 295.700 C 341.137 295.645,341.078 295.233,341.050 294.785 C 341.023 294.337,340.730 293.800,340.400 293.592 C 339.867 293.254,339.867 293.211,340.400 293.200 C 340.933 293.189,340.933 293.145,340.400 292.800 C 340.070 292.587,339.980 292.407,340.200 292.400 C 340.420 292.393,340.357 292.234,340.061 292.046 C 339.764 291.858,339.494 291.248,339.461 290.691 C 339.427 290.133,339.310 289.731,339.200 289.797 C 339.090 289.863,338.654 289.456,338.232 288.893 C 337.763 288.268,337.685 287.996,338.032 288.196 C 338.344 288.376,338.071 287.956,337.425 287.262 C 336.779 286.568,336.414 286.000,336.614 286.000 C 336.814 286.000,336.575 285.718,336.082 285.373 C 335.583 285.023,335.306 284.536,335.457 284.273 C 335.606 284.013,335.587 283.928,335.414 284.084 C 335.241 284.240,334.632 283.835,334.061 283.184 C 333.051 282.033,332.064 281.532,332.638 282.462 C 332.806 282.733,332.749 282.816,332.499 282.661 C 332.266 282.517,332.171 282.032,332.289 281.583 C 332.406 281.133,332.344 280.793,332.151 280.826 C 331.205 280.989,330.000 280.238,330.000 279.487 C 330.000 279.036,329.891 278.776,329.757 278.909 C 329.461 279.205,329.106 278.916,325.581 275.519 C 324.052 274.045,322.800 272.650,322.800 272.419 C 322.800 272.189,322.620 272.000,322.400 272.000 C 322.180 272.000,322.000 271.730,322.000 271.400 C 322.000 271.061,321.642 270.800,321.176 270.800 C 320.723 270.800,320.451 270.640,320.572 270.445 C 320.693 270.250,320.525 269.870,320.200 269.600 C 319.875 269.330,319.719 268.930,319.854 268.712 C 320.005 268.468,319.773 268.418,319.253 268.583 C 318.615 268.786,318.460 268.710,318.626 268.278 C 318.851 267.690,318.352 267.053,316.849 266.012 C 316.019 265.437,315.608 264.511,316.400 265.000 C 316.620 265.136,316.800 265.057,316.800 264.824 C 316.800 264.591,316.625 264.400,316.411 264.400 C 316.196 264.400,315.416 263.501,314.676 262.402 C 313.935 261.303,313.211 260.523,313.065 260.668 C 312.919 260.814,312.800 260.625,312.800 260.248 C 312.800 259.872,312.347 259.110,311.792 258.556 C 311.238 258.002,310.906 257.352,311.054 257.112 C 311.215 256.851,311.138 256.791,310.862 256.962 C 310.592 257.128,310.400 257.001,310.400 256.657 C 310.400 256.332,310.233 256.007,310.030 255.933 C 309.826 255.860,309.601 255.530,309.530 255.200 C 309.458 254.870,309.093 254.370,308.717 254.089 C 308.341 253.808,308.135 253.315,308.258 252.992 C 308.384 252.664,308.201 252.299,307.842 252.161 C 307.489 252.025,307.200 251.664,307.200 251.357 C 307.200 251.051,307.026 250.800,306.813 250.800 C 306.599 250.800,306.529 250.530,306.655 250.200 C 306.794 249.838,306.657 249.600,306.309 249.600 C 305.993 249.600,305.733 249.350,305.733 249.044 C 305.733 248.154,304.739 246.000,304.328 246.000 C 304.122 246.000,304.055 245.835,304.180 245.632 C 304.305 245.430,304.124 244.981,303.778 244.635 C 303.432 244.289,303.278 243.797,303.436 243.541 C 303.615 243.252,303.549 243.184,303.262 243.362 C 302.831 243.628,302.639 243.061,302.695 241.686 C 302.710 241.306,302.578 241.286,302.190 241.608 C 301.786 241.944,301.689 241.878,301.771 241.322 C 301.830 240.925,301.698 240.240,301.477 239.800 C 300.329 237.515,300.327 237.508,300.870 237.827 C 301.162 237.998,301.057 237.747,300.638 237.269 C 300.219 236.791,300.022 236.400,300.200 236.400 C 300.378 236.400,300.208 236.051,299.823 235.625 C 299.437 235.199,299.243 234.655,299.391 234.415 C 299.540 234.174,299.424 234.029,299.130 234.090 C 298.804 234.158,298.651 233.905,298.733 233.435 C 298.853 232.740,298.577 231.916,297.550 229.900 C 297.333 229.474,297.342 229.200,297.573 229.200 C 297.782 229.200,297.702 228.718,297.397 228.129 C 297.091 227.539,296.932 226.909,297.044 226.729 C 297.156 226.548,297.076 226.400,296.867 226.400 C 296.658 226.400,296.391 225.815,296.272 225.100 C 295.966 223.249,295.572 221.498,295.306 220.800 C 294.972 219.923,294.928 219.599,294.861 217.476 C 294.824 216.309,294.643 215.650,294.400 215.800 C 294.154 215.952,293.989 215.231,293.972 213.924 C 293.951 212.368,293.852 212.014,293.600 212.600 C 293.377 213.118,293.230 211.781,293.181 208.800 C 293.088 203.140,293.012 201.965,292.688 201.200 C 292.549 200.870,292.382 200.062,292.317 199.403 C 292.236 198.577,291.953 198.161,291.400 198.057 C 290.960 197.975,290.465 197.703,290.300 197.454 C 290.084 197.127,289.902 197.152,289.650 197.543 C 289.441 197.867,289.202 197.927,289.057 197.693 C 288.924 197.477,288.341 197.300,287.762 197.300 C 287.183 197.300,286.594 197.114,286.453 196.886 C 286.312 196.658,285.177 196.501,283.931 196.537 C 282.156 196.589,281.756 196.494,282.082 196.102 C 282.406 195.711,282.222 195.656,281.249 195.850 C 280.424 196.015,280.000 195.942,280.000 195.636 C 280.000 195.289,279.789 195.285,279.166 195.618 C 278.707 195.864,278.227 195.960,278.099 195.832 C 277.971 195.705,278.077 195.600,278.333 195.600 C 278.590 195.600,278.800 195.437,278.800 195.237 C 278.800 195.038,278.467 194.962,278.060 195.069 C 277.652 195.175,277.065 195.008,276.754 194.696 C 276.442 194.385,275.682 194.153,275.065 194.180 C 274.447 194.207,273.854 194.087,273.747 193.914 C 273.640 193.742,273.057 193.600,272.452 193.600 C 271.846 193.600,270.987 193.261,270.542 192.847 C 269.930 192.276,269.559 192.191,269.012 192.497 C 268.493 192.788,268.368 192.775,268.569 192.451 C 268.741 192.171,268.528 192.000,268.007 192.000 C 267.545 192.000,266.780 191.640,266.308 191.200 C 265.836 190.760,264.977 190.400,264.400 190.400 C 263.823 190.400,262.960 190.036,262.483 189.592 C 262.006 189.147,261.522 188.787,261.408 188.792 C 260.286 188.837,259.990 188.740,260.200 188.400 C 260.343 188.169,259.960 188.000,259.290 188.000 C 258.654 188.000,257.998 187.865,257.833 187.700 C 257.668 187.535,257.323 187.392,257.067 187.382 C 256.810 187.372,256.649 187.133,256.710 186.852 C 256.770 186.571,256.662 186.438,256.469 186.557 C 256.276 186.677,255.776 186.516,255.359 186.200 C 254.942 185.884,254.365 185.620,254.079 185.613 C 253.281 185.593,250.766 183.768,251.090 183.443 C 251.247 183.286,251.111 183.259,250.788 183.383 C 250.465 183.507,249.724 183.167,249.143 182.628 C 248.562 182.089,248.006 181.728,247.907 181.826 C 247.809 181.924,247.402 181.644,247.002 181.202 C 246.603 180.761,245.944 180.400,245.538 180.400 C 245.104 180.400,244.797 180.112,244.794 179.700 C 244.789 179.113,244.728 179.095,244.415 179.589 C 244.093 180.098,244.009 180.090,243.794 179.528 C 243.657 179.171,243.179 178.783,242.732 178.666 C 242.285 178.549,242.037 178.264,242.181 178.032 C 242.333 177.785,242.210 177.698,241.887 177.822 C 241.578 177.940,240.637 177.360,239.766 176.515 C 238.905 175.679,238.020 174.949,237.800 174.893 C 237.580 174.838,236.649 174.119,235.732 173.296 C 233.673 171.450,233.260 171.120,231.890 170.222 C 231.290 169.829,230.800 169.274,230.800 168.987 C 230.800 168.701,230.645 168.407,230.456 168.333 C 229.565 167.989,225.642 164.255,225.838 163.939 C 225.960 163.741,225.821 163.630,225.530 163.690 C 225.238 163.751,225.049 163.562,225.110 163.270 C 225.170 162.979,225.035 162.855,224.809 162.994 C 224.583 163.134,224.225 162.791,224.012 162.232 C 223.734 161.501,223.435 161.288,222.947 161.476 C 222.561 161.624,222.370 161.572,222.503 161.356 C 222.633 161.147,221.876 160.043,220.821 158.903 C 219.767 157.762,218.977 156.756,219.066 156.668 C 219.154 156.579,218.577 155.857,217.783 155.063 C 216.930 154.210,216.459 153.427,216.632 153.148 C 216.792 152.889,216.761 152.777,216.562 152.899 C 216.363 153.021,215.750 152.514,215.200 151.772 C 214.650 151.029,213.991 150.417,213.735 150.411 C 213.480 150.405,213.315 150.097,213.369 149.728 C 213.460 149.109,213.001 148.354,211.700 146.984 C 211.425 146.694,211.200 146.264,211.200 146.029 C 211.200 145.793,211.020 145.600,210.800 145.600 C 210.580 145.600,210.400 145.396,210.400 145.147 C 210.400 144.898,210.058 144.397,209.640 144.035 C 209.222 143.672,208.817 142.931,208.740 142.388 C 208.663 141.845,208.330 141.130,208.000 140.800 C 207.670 140.470,207.341 139.932,207.268 139.604 C 207.195 139.276,206.947 138.891,206.717 138.749 C 206.486 138.606,206.440 138.259,206.614 137.977 C 206.834 137.621,206.745 137.536,206.322 137.698 C 205.882 137.867,205.731 137.691,205.780 137.066 C 205.817 136.590,205.584 135.885,205.262 135.500 C 204.940 135.115,204.815 134.800,204.985 134.800 C 205.156 134.800,204.814 134.169,204.225 133.398 C 203.637 132.626,203.266 131.816,203.401 131.598 C 203.537 131.379,203.457 131.200,203.224 131.200 C 202.991 131.200,202.800 130.739,202.800 130.176 C 202.800 129.596,202.627 129.260,202.400 129.400 C 202.166 129.545,202.000 129.130,202.000 128.400 C 202.000 127.670,201.834 127.255,201.600 127.400 C 201.380 127.536,201.200 127.372,201.200 127.036 C 201.200 126.699,200.840 125.783,200.400 125.000 C 199.960 124.217,199.600 123.221,199.600 122.788 C 199.600 122.355,199.420 122.000,199.200 122.000 C 198.980 122.000,198.800 121.550,198.800 121.000 C 198.800 120.450,198.575 119.997,198.300 119.994 C 197.934 119.989,197.946 119.895,198.345 119.642 C 198.715 119.408,198.744 119.248,198.437 119.146 C 198.187 119.062,197.942 118.411,197.892 117.698 C 197.841 116.985,197.665 116.401,197.500 116.401 C 197.335 116.400,197.200 115.986,197.200 115.480 C 197.200 114.974,197.021 114.381,196.802 114.162 C 196.584 113.944,196.364 113.278,196.315 112.682 C 196.266 112.087,196.085 111.600,195.913 111.600 C 195.741 111.600,195.600 110.715,195.600 109.633 C 195.600 108.552,195.426 107.607,195.213 107.533 C 195.000 107.460,194.780 106.801,194.725 106.070 C 194.670 105.338,194.485 104.652,194.313 104.546 C 194.141 104.440,194.000 103.114,194.000 101.600 C 194.000 100.086,193.820 98.736,193.600 98.600 C 193.380 98.464,193.200 98.018,193.200 97.610 C 193.200 97.201,192.975 96.776,192.700 96.665 C 192.300 96.504,192.300 96.457,192.700 96.432 C 193.035 96.410,193.200 95.683,193.200 94.233 C 193.200 92.874,193.014 91.991,192.700 91.865 C 192.300 91.704,192.300 91.657,192.700 91.632 C 193.301 91.594,193.380 90.400,192.782 90.400 C 192.259 90.400,192.319 74.097,192.843 73.773 C 193.039 73.652,193.200 72.472,193.200 71.150 C 193.200 69.829,193.398 68.378,193.640 67.925 C 193.960 67.328,193.960 67.178,193.640 67.375 C 193.398 67.525,193.200 67.457,193.200 67.224 C 193.200 66.991,193.380 66.800,193.600 66.800 C 193.820 66.800,194.003 65.855,194.006 64.700 C 194.011 63.197,194.122 62.770,194.400 63.200 C 194.673 63.623,194.790 63.062,194.794 61.300 C 194.797 59.904,194.977 58.800,195.200 58.800 C 195.420 58.800,195.600 58.290,195.600 57.667 C 195.600 57.043,195.720 56.413,195.868 56.266 C 196.015 56.118,196.204 55.328,196.288 54.510 C 196.372 53.692,196.657 52.885,196.920 52.717 C 197.287 52.484,197.282 52.411,196.900 52.406 C 196.625 52.403,196.400 52.209,196.400 51.976 C 196.400 51.743,196.580 51.664,196.800 51.800 C 197.026 51.940,197.200 51.612,197.200 51.047 C 197.200 50.497,197.380 49.936,197.600 49.800 C 197.820 49.664,198.000 49.103,198.000 48.553 C 198.000 48.003,198.135 47.636,198.300 47.738 C 198.465 47.840,198.639 47.536,198.686 47.062 C 198.850 45.414,199.511 43.557,200.069 43.178 C 200.249 43.055,200.436 42.470,200.485 41.878 C 200.534 41.285,200.715 40.800,200.887 40.800 C 201.059 40.800,201.200 40.448,201.200 40.019 C 201.200 38.923,202.048 37.183,202.458 37.436 C 202.971 37.753,202.846 37.094,202.243 36.300 C 201.932 35.890,201.182 35.600,200.432 35.600 C 199.729 35.600,199.248 35.445,199.365 35.256 C 199.482 35.067,198.548 34.901,197.289 34.887 C 194.014 34.850,193.929 34.838,194.174 34.441 C 194.296 34.244,193.377 34.071,192.130 34.056 C 190.884 34.041,189.760 33.880,189.632 33.699 C 189.505 33.518,188.050 33.314,186.400 33.245 C 184.750 33.176,183.073 32.945,182.674 32.732 C 182.195 32.476,181.777 32.487,181.443 32.764 C 181.121 33.031,180.496 33.057,179.722 32.835 C 179.029 32.636,178.269 32.637,177.954 32.837 C 177.177 33.329,176.701 33.284,177.031 32.750 C 177.309 32.299,175.917 32.387,173.600 32.967 C 172.744 33.181,172.715 33.160,173.400 32.826 C 173.980 32.543,173.550 32.486,171.834 32.617 C 170.533 32.717,169.379 32.887,169.271 32.996 C 169.162 33.104,168.832 32.993,168.537 32.748 C 168.142 32.420,168.000 32.421,168.000 32.751 " stroke="none" fill="#fcc404" fill-rule="evenodd"></path><path id="path3" d="" stroke="none" fill="#fcc40c" fill-rule="evenodd"></path><path id="path4" d="M160.200 33.600 C 160.064 33.820,160.313 34.000,160.753 34.000 C 161.193 34.000,161.664 33.820,161.800 33.600 C 161.936 33.380,161.687 33.200,161.247 33.200 C 160.807 33.200,160.336 33.380,160.200 33.600 M100.887 59.209 C 100.419 59.959,100.441 59.981,101.191 59.513 C 101.997 59.009,102.274 58.400,101.696 58.400 C 101.529 58.400,101.165 58.764,100.887 59.209 M108.600 333.200 C 108.436 333.466,130.804 333.600,175.400 333.600 C 219.996 333.600,242.364 333.466,242.200 333.200 C 241.858 332.646,108.942 332.646,108.600 333.200 " stroke="none" fill="#fcb404" fill-rule="evenodd"></path></g></svg>