<svg id="svg" version="1.1" xmlns="http://www.w3.org/2000/svg" xmlns:xlink="http://www.w3.org/1999/xlink" width="400" height="400" viewBox="0, 0, 400,400"><g id="svgg"><path id="path0" d="M139.459 12.275 C 139.294 12.440,138.043 12.720,136.679 12.899 C 132.139 13.493,131.197 13.682,130.974 14.042 C 130.852 14.239,130.234 14.400,129.600 14.400 C 128.966 14.400,128.336 14.580,128.200 14.800 C 128.064 15.020,127.423 15.200,126.776 15.200 C 126.129 15.200,125.600 15.380,125.600 15.600 C 125.600 15.820,125.161 16.000,124.624 16.000 C 124.087 16.000,123.536 16.180,123.400 16.400 C 123.264 16.620,122.803 16.800,122.376 16.800 C 121.949 16.800,121.600 16.980,121.600 17.200 C 121.600 17.420,121.245 17.600,120.812 17.600 C 120.379 17.600,119.383 17.960,118.600 18.400 C 117.817 18.840,116.911 19.200,116.588 19.200 C 116.265 19.200,116.000 19.380,116.000 19.600 C 116.000 19.820,115.640 20.000,115.200 20.000 C 114.760 20.000,114.400 20.180,114.400 20.400 C 114.400 20.620,114.164 20.800,113.875 20.800 C 113.587 20.800,112.964 21.160,112.492 21.600 C 112.020 22.040,111.356 22.400,111.017 22.400 C 110.678 22.400,110.400 22.580,110.400 22.800 C 110.400 23.020,110.170 23.200,109.888 23.200 C 109.607 23.200,109.117 23.560,108.800 24.000 C 108.483 24.440,107.943 24.800,107.600 24.800 C 107.257 24.800,106.717 25.160,106.400 25.600 C 106.083 26.040,105.586 26.400,105.295 26.400 C 104.731 26.400,104.543 26.532,102.458 28.399 C 101.719 29.059,100.999 29.600,100.856 29.600 C 100.181 29.600,92.000 38.130,92.000 38.834 C 92.000 39.070,91.280 39.954,90.400 40.800 C 89.520 41.646,88.800 42.578,88.800 42.872 C 88.800 43.167,88.440 43.632,88.000 43.907 C 87.560 44.182,87.200 44.675,87.200 45.003 C 87.200 45.332,87.050 45.600,86.868 45.600 C 86.685 45.600,86.280 46.095,85.968 46.700 C 85.656 47.305,85.311 47.890,85.201 48.000 C 84.805 48.394,83.546 50.613,83.329 51.300 C 83.207 51.685,82.948 52.000,82.753 52.000 C 82.559 52.000,82.400 52.360,82.400 52.800 C 82.400 53.240,82.220 53.600,82.000 53.600 C 81.780 53.600,81.600 53.836,81.600 54.125 C 81.600 54.414,81.240 55.395,80.800 56.306 C 80.360 57.216,80.000 58.240,80.000 58.581 C 80.000 58.921,79.853 59.200,79.672 59.200 C 79.492 59.200,79.096 60.111,78.793 61.225 C 78.490 62.339,78.106 63.335,77.939 63.438 C 77.773 63.540,77.515 64.699,77.367 66.012 C 77.218 67.325,76.940 68.400,76.748 68.400 C 76.557 68.400,76.400 69.120,76.400 70.000 C 76.400 70.880,76.220 71.600,76.000 71.600 C 75.778 71.600,75.600 72.656,75.600 73.967 C 75.600 75.268,75.413 76.396,75.185 76.472 C 74.614 76.662,74.618 100.139,75.189 100.330 C 75.418 100.406,75.600 101.695,75.600 103.233 C 75.600 104.811,75.772 106.000,76.000 106.000 C 76.220 106.000,76.400 106.990,76.400 108.200 C 76.400 109.410,76.571 110.400,76.779 110.400 C 76.988 110.400,77.213 111.343,77.279 112.496 C 77.421 114.949,78.000 115.271,80.307 114.176 C 83.757 112.539,90.045 111.828,92.574 112.790 L 93.600 113.180 93.600 109.174 C 93.600 104.013,94.401 102.229,97.495 100.500 C 98.178 100.118,103.250 100.000,118.975 100.000 C 136.029 100.000,139.959 99.897,141.880 99.397 C 148.251 97.740,152.519 94.010,155.658 87.355 C 159.152 79.948,165.500 78.860,168.266 85.194 C 173.361 96.863,178.730 100.000,193.603 100.000 C 201.897 100.000,202.522 100.102,204.335 101.750 C 205.878 103.153,206.400 104.986,206.400 108.999 L 206.400 112.700 209.948 112.497 C 213.731 112.282,216.664 112.765,219.375 114.052 C 222.138 115.364,223.200 114.768,223.200 111.906 C 223.200 111.166,223.363 110.389,223.563 110.180 C 223.763 109.971,224.026 108.900,224.148 107.800 C 224.271 106.700,224.544 104.360,224.757 102.600 C 224.969 100.840,225.156 97.103,225.172 94.295 C 225.190 90.971,225.373 88.912,225.696 88.395 C 226.091 87.762,226.091 87.438,225.696 86.805 C 225.385 86.307,225.192 84.404,225.179 81.705 C 225.161 77.882,224.968 75.759,224.143 70.297 C 224.018 69.471,223.755 68.695,223.558 68.574 C 223.361 68.452,223.200 67.834,223.200 67.200 C 223.200 66.566,223.020 65.936,222.800 65.800 C 222.580 65.664,222.400 65.111,222.400 64.571 C 222.400 63.625,222.272 63.259,221.262 61.305 C 221.008 60.813,220.800 60.138,220.800 59.805 C 220.800 59.472,220.620 59.200,220.400 59.200 C 220.180 59.200,220.000 58.761,220.000 58.224 C 220.000 57.687,219.820 57.136,219.600 57.000 C 219.380 56.864,219.200 56.403,219.200 55.976 C 219.200 55.549,219.020 55.200,218.800 55.200 C 218.580 55.200,218.400 54.840,218.400 54.400 C 218.400 53.960,218.220 53.600,218.000 53.600 C 217.780 53.600,217.600 53.240,217.600 52.800 C 217.600 52.360,217.420 52.000,217.200 52.000 C 216.980 52.000,216.800 51.722,216.800 51.383 C 216.800 51.044,216.440 50.380,216.000 49.908 C 215.560 49.436,215.200 48.813,215.200 48.525 C 215.200 48.236,215.020 48.000,214.800 48.000 C 214.580 48.000,214.400 47.764,214.400 47.475 C 214.400 47.187,214.040 46.564,213.600 46.092 C 213.160 45.620,212.800 45.047,212.800 44.820 C 212.800 44.593,212.440 44.182,212.000 43.907 C 211.560 43.632,211.200 43.163,211.200 42.864 C 211.200 42.565,210.690 41.844,210.067 41.260 C 209.443 40.677,208.709 39.780,208.434 39.266 C 207.512 37.539,199.926 29.600,199.198 29.600 C 199.026 29.600,198.305 29.082,197.596 28.449 C 195.479 26.557,195.257 26.400,194.705 26.400 C 194.414 26.400,193.917 26.040,193.600 25.600 C 193.283 25.160,192.746 24.800,192.408 24.800 C 192.069 24.800,191.568 24.440,191.293 24.000 C 191.018 23.560,190.540 23.200,190.230 23.200 C 189.920 23.200,189.607 23.065,189.533 22.900 C 189.366 22.524,187.236 21.225,186.300 20.929 C 185.915 20.807,185.600 20.548,185.600 20.353 C 185.600 20.159,185.240 20.000,184.800 20.000 C 184.360 20.000,184.000 19.820,184.000 19.600 C 184.000 19.380,183.640 19.200,183.200 19.200 C 182.760 19.200,182.400 19.020,182.400 18.800 C 182.400 18.580,182.051 18.400,181.624 18.400 C 181.197 18.400,180.736 18.220,180.600 18.000 C 180.464 17.780,179.913 17.600,179.376 17.600 C 178.839 17.600,178.400 17.420,178.400 17.200 C 178.400 16.980,178.051 16.800,177.624 16.800 C 177.197 16.800,176.736 16.620,176.600 16.400 C 176.464 16.180,175.913 16.000,175.376 16.000 C 174.839 16.000,174.400 15.820,174.400 15.600 C 174.400 15.380,173.871 15.200,173.224 15.200 C 172.577 15.200,171.936 15.020,171.800 14.800 C 171.664 14.580,171.034 14.400,170.400 14.400 C 169.766 14.400,169.148 14.239,169.026 14.042 C 168.905 13.845,168.129 13.581,167.303 13.454 C 166.476 13.327,164.630 13.016,163.200 12.762 C 160.235 12.236,139.914 11.819,139.459 12.275 " stroke="none" fill="#34648c" fill-rule="evenodd"></path><path id="path1" d="M159.822 82.507 C 158.531 83.238,157.913 84.061,156.422 87.032 C 153.497 92.860,150.465 96.275,146.470 98.240 C 142.166 100.358,141.764 100.390,119.726 100.395 C 106.244 100.398,98.868 100.545,98.126 100.825 C 96.679 101.372,94.800 103.163,94.800 103.995 C 94.800 104.350,94.627 104.813,94.416 105.024 C 94.204 105.236,93.979 107.207,93.916 109.404 L 93.800 113.400 92.800 113.248 C 91.059 112.984,85.448 113.061,84.200 113.367 C 82.939 113.675,82.387 113.883,79.832 115.010 C 78.412 115.637,78.221 115.643,77.804 115.073 C 77.393 114.511,77.285 114.527,76.784 115.222 C 76.476 115.650,76.011 116.000,75.752 116.000 C 75.138 116.000,72.400 118.738,72.400 119.352 C 72.400 119.611,72.040 120.083,71.600 120.400 C 71.160 120.717,70.800 121.297,70.800 121.688 C 70.800 122.080,70.620 122.400,70.400 122.400 C 70.180 122.400,70.000 122.760,70.000 123.200 C 70.000 123.640,69.864 124.000,69.697 124.000 C 68.581 124.000,67.725 137.935,68.800 138.600 C 69.020 138.736,69.200 139.366,69.200 140.000 C 69.200 140.634,69.344 141.242,69.521 141.351 C 69.697 141.460,70.090 142.461,70.393 143.575 C 70.696 144.689,71.092 145.600,71.272 145.600 C 71.453 145.600,71.600 145.836,71.600 146.125 C 71.600 146.413,71.960 147.036,72.400 147.508 C 72.840 147.980,73.200 148.604,73.200 148.895 C 73.200 149.186,73.560 149.683,74.000 150.000 C 74.440 150.317,74.800 150.787,74.800 151.045 C 74.800 151.676,78.589 155.449,80.479 156.700 C 81.316 157.253,82.000 157.848,82.000 158.021 C 82.000 158.195,82.540 158.455,83.200 158.600 C 83.860 158.745,84.400 159.029,84.400 159.232 C 84.400 159.434,84.760 159.600,85.200 159.600 C 85.640 159.600,86.000 159.780,86.000 160.000 C 86.000 160.220,86.450 160.400,87.000 160.400 C 87.550 160.400,88.000 160.580,88.000 160.800 C 88.000 161.020,88.540 161.200,89.200 161.200 C 89.860 161.200,90.400 161.380,90.400 161.600 C 90.400 161.820,90.929 162.000,91.576 162.000 C 92.223 162.000,92.864 162.180,93.000 162.400 C 93.136 162.620,93.957 162.800,94.824 162.800 C 96.110 162.800,96.400 162.941,96.400 163.567 C 96.400 163.988,96.578 164.393,96.797 164.467 C 97.015 164.540,97.234 165.095,97.284 165.700 C 97.334 166.305,97.515 166.800,97.687 166.800 C 97.859 166.800,98.000 167.160,98.000 167.600 C 98.000 168.040,98.136 168.400,98.302 168.400 C 98.469 168.400,98.859 168.985,99.170 169.700 C 99.481 170.415,99.850 171.090,99.989 171.200 C 100.128 171.310,100.556 172.076,100.940 172.901 C 101.324 173.727,102.035 174.807,102.519 175.301 C 103.004 175.796,103.655 176.695,103.968 177.300 C 104.280 177.905,104.685 178.400,104.868 178.400 C 105.050 178.400,105.200 178.634,105.200 178.920 C 105.200 179.206,106.725 181.032,108.589 182.977 L 111.979 186.515 112.155 199.357 C 112.397 216.976,112.695 220.342,114.285 223.400 C 128.230 250.228,171.867 250.336,185.638 223.576 C 187.315 220.315,187.601 217.182,187.841 199.400 L 188.015 186.600 189.608 185.000 C 192.784 181.810,194.000 180.418,194.000 179.974 C 194.000 179.725,194.495 179.044,195.100 178.460 C 195.705 177.877,196.455 176.905,196.768 176.300 C 197.080 175.695,197.463 175.200,197.619 175.200 C 197.775 175.200,198.127 174.660,198.400 174.000 C 198.673 173.340,199.055 172.800,199.249 172.800 C 199.442 172.800,199.600 172.429,199.600 171.976 C 199.600 171.523,199.780 171.264,200.000 171.400 C 200.220 171.536,200.400 171.277,200.400 170.824 C 200.400 170.371,200.580 170.000,200.800 170.000 C 201.020 170.000,201.200 169.747,201.200 169.438 C 201.200 168.953,201.752 167.680,203.250 164.705 C 203.443 164.323,203.600 163.738,203.600 163.405 C 203.600 162.955,204.059 162.800,205.400 162.800 C 206.390 162.800,207.200 162.620,207.200 162.400 C 207.200 162.180,207.740 162.000,208.400 162.000 C 209.060 162.000,209.600 161.820,209.600 161.600 C 209.600 161.380,210.140 161.200,210.800 161.200 C 211.460 161.200,212.000 161.020,212.000 160.800 C 212.000 160.580,212.450 160.400,213.000 160.400 C 213.550 160.400,214.000 160.220,214.000 160.000 C 214.000 159.780,214.360 159.600,214.800 159.600 C 215.240 159.600,215.600 159.440,215.600 159.243 C 215.600 159.047,216.080 158.766,216.666 158.619 C 218.554 158.145,225.200 152.311,225.200 151.128 C 225.200 150.825,225.560 150.317,226.000 150.000 C 226.440 149.683,226.800 149.193,226.800 148.912 C 226.800 148.630,226.980 148.400,227.200 148.400 C 227.420 148.400,227.600 148.130,227.600 147.800 C 227.600 147.470,227.780 147.200,228.000 147.200 C 228.220 147.200,228.400 146.840,228.400 146.400 C 228.400 145.960,228.580 145.600,228.800 145.600 C 229.020 145.600,229.200 145.060,229.200 144.400 C 229.200 143.740,229.380 143.200,229.600 143.200 C 229.820 143.200,230.000 142.840,230.000 142.400 C 230.000 141.960,230.180 141.600,230.400 141.600 C 230.620 141.600,230.800 140.869,230.800 139.976 C 230.800 138.996,230.958 138.451,231.200 138.600 C 231.460 138.761,231.600 136.612,231.600 132.447 C 231.600 128.612,231.440 125.948,231.200 125.800 C 230.980 125.664,230.800 125.203,230.800 124.776 C 230.800 124.349,230.620 124.000,230.400 124.000 C 230.180 124.000,230.000 123.640,230.000 123.200 C 230.000 122.760,229.820 122.400,229.600 122.400 C 229.380 122.400,229.200 122.080,229.200 121.688 C 229.200 121.297,228.840 120.717,228.400 120.400 C 227.960 120.083,227.600 119.588,227.600 119.299 C 227.600 118.095,222.958 114.687,222.009 115.195 C 221.599 115.414,220.856 115.316,219.981 114.927 C 217.710 113.918,217.058 113.675,215.800 113.367 C 214.552 113.061,208.941 112.984,207.200 113.248 L 206.200 113.400 205.985 109.200 C 205.567 101.029,204.619 100.400,192.720 100.400 C 179.048 100.400,173.732 97.535,168.844 87.534 C 166.049 81.816,163.525 80.410,159.822 82.507 M12.000 366.121 L 12.000 382.243 13.036 384.321 C 13.605 385.465,14.325 386.400,14.636 386.400 C 14.946 386.400,15.200 386.580,15.200 386.800 C 15.200 387.020,15.560 387.200,16.000 387.200 C 16.440 387.200,16.800 387.380,16.800 387.600 C 16.800 387.861,23.600 388.000,36.400 388.000 L 56.000 388.000 56.000 369.000 L 56.000 350.000 34.000 350.000 L 12.000 350.000 12.000 366.121 M244.000 369.000 L 244.000 388.000 263.600 388.000 C 274.533 388.000,283.200 387.845,283.200 387.650 C 283.200 387.457,283.726 387.195,284.369 387.066 C 285.716 386.797,287.200 385.372,287.200 384.348 C 287.200 383.963,287.380 383.536,287.600 383.400 C 287.856 383.242,288.000 377.196,288.000 366.576 L 288.000 350.000 266.000 350.000 L 244.000 350.000 244.000 369.000 " stroke="none" fill="#fbd19f" fill-rule="evenodd"></path><path id="path2" d="M279.800 36.800 C 279.664 37.020,279.103 37.200,278.553 37.200 C 277.988 37.200,277.660 37.374,277.800 37.600 C 277.936 37.820,277.707 38.000,277.291 38.000 C 276.871 38.000,276.284 38.488,275.968 39.100 C 275.656 39.705,275.264 40.302,275.095 40.427 C 274.927 40.552,274.674 42.667,274.534 45.127 L 274.278 49.600 268.762 49.600 C 265.517 49.600,263.145 49.765,263.000 50.000 C 262.864 50.220,262.313 50.400,261.776 50.400 C 261.239 50.400,260.800 50.580,260.800 50.800 C 260.800 51.020,260.440 51.200,260.000 51.200 C 259.560 51.200,259.200 51.350,259.200 51.532 C 259.200 51.715,258.705 52.120,258.100 52.432 C 256.670 53.170,252.533 57.351,252.202 58.393 C 252.061 58.837,251.778 59.200,251.573 59.200 C 251.368 59.200,251.200 59.560,251.200 60.000 C 251.200 60.440,251.020 60.800,250.800 60.800 C 250.580 60.800,250.400 61.214,250.400 61.720 C 250.400 62.226,250.175 62.865,249.900 63.140 C 249.196 63.845,249.181 121.791,249.884 123.033 C 250.144 123.491,250.400 124.706,250.453 125.733 C 250.506 126.760,250.696 127.600,250.875 127.600 C 251.054 127.600,251.200 128.320,251.200 129.200 C 251.200 130.080,251.380 130.800,251.600 130.800 C 251.820 130.800,252.000 131.329,252.000 131.976 C 252.000 132.623,252.180 133.264,252.400 133.400 C 252.620 133.536,252.800 134.076,252.800 134.600 C 252.800 135.124,252.980 135.664,253.200 135.800 C 253.420 135.936,253.600 136.487,253.600 137.024 C 253.600 137.561,253.780 138.000,254.000 138.000 C 254.220 138.000,254.400 138.450,254.400 139.000 C 254.400 139.550,254.580 140.000,254.800 140.000 C 255.020 140.000,255.200 140.360,255.200 140.800 C 255.200 141.240,255.380 141.600,255.600 141.600 C 255.820 141.600,256.000 141.960,256.000 142.400 C 256.000 142.840,256.180 143.200,256.400 143.200 C 256.620 143.200,256.800 143.560,256.800 144.000 C 256.800 144.440,256.980 144.800,257.200 144.800 C 257.420 144.800,257.600 145.160,257.600 145.600 C 257.600 146.040,257.780 146.400,258.000 146.400 C 258.220 146.400,258.400 146.694,258.400 147.053 C 258.400 147.412,258.731 147.997,259.136 148.353 C 259.541 148.709,259.984 149.454,260.121 150.008 C 260.257 150.562,260.698 151.372,261.101 151.808 C 261.504 152.244,262.399 153.410,263.091 154.400 C 263.783 155.390,264.900 156.830,265.573 157.600 C 266.247 158.370,266.799 159.135,266.799 159.300 C 266.800 159.465,267.070 159.600,267.400 159.600 C 267.730 159.600,268.000 159.765,268.000 159.967 C 268.000 160.446,271.031 163.600,271.491 163.600 C 271.685 163.600,272.965 164.680,274.335 166.000 C 275.705 167.320,277.000 168.400,277.213 168.400 C 277.426 168.400,277.947 168.715,278.371 169.100 C 279.821 170.416,280.366 170.800,280.783 170.800 C 281.012 170.800,281.200 170.980,281.200 171.200 C 281.200 171.420,281.411 171.600,281.669 171.600 C 281.926 171.600,282.421 171.854,282.769 172.165 C 283.753 173.046,288.097 175.200,288.889 175.200 C 289.280 175.200,289.600 175.380,289.600 175.600 C 289.600 175.820,289.960 176.000,290.400 176.000 C 290.840 176.000,291.200 176.180,291.200 176.400 C 291.200 176.620,291.740 176.800,292.400 176.800 C 293.060 176.800,293.600 176.980,293.600 177.200 C 293.600 177.420,293.949 177.600,294.376 177.600 C 294.803 177.600,295.264 177.780,295.400 178.000 C 295.536 178.220,296.076 178.400,296.600 178.400 C 297.124 178.400,297.664 178.580,297.800 178.800 C 297.936 179.020,298.566 179.200,299.200 179.200 C 299.834 179.200,300.464 179.380,300.600 179.600 C 300.736 179.820,301.467 180.000,302.224 180.000 C 302.981 180.000,303.600 180.180,303.600 180.400 C 303.600 180.622,304.667 180.800,306.000 180.800 C 307.333 180.800,308.400 180.978,308.400 181.200 C 308.400 181.420,309.212 181.600,310.203 181.600 L 312.007 181.600 311.865 225.500 C 311.721 269.715,311.645 272.656,310.586 274.686 C 310.266 275.299,310.004 276.115,310.002 276.500 C 310.001 276.885,309.864 277.200,309.698 277.200 C 309.531 277.200,309.141 277.776,308.829 278.479 C 308.219 279.858,305.299 282.921,304.401 283.125 C 304.098 283.194,303.548 283.599,303.178 284.025 C 302.809 284.451,302.223 284.800,301.877 284.800 C 301.530 284.800,301.136 284.980,301.000 285.200 C 300.864 285.420,300.328 285.600,299.810 285.600 C 299.291 285.600,298.807 285.770,298.733 285.978 C 298.660 286.185,297.520 286.395,296.200 286.443 C 294.880 286.491,293.672 286.726,293.515 286.965 C 293.312 287.274,281.346 287.400,252.332 287.400 L 211.435 287.400 210.617 285.158 C 210.168 283.925,209.485 282.447,209.100 281.872 C 208.715 281.298,208.400 280.637,208.400 280.403 C 208.400 279.834,201.344 272.800,200.773 272.800 C 200.526 272.800,199.846 272.464,199.262 272.054 C 189.352 265.092,172.220 270.218,165.825 282.058 C 153.569 304.747,180.115 328.372,201.653 313.944 C 205.616 311.289,209.029 306.674,211.184 301.056 L 211.623 299.912 256.178 300.056 C 280.684 300.135,300.868 300.065,301.033 299.900 C 301.198 299.735,301.944 299.600,302.690 299.600 C 303.493 299.600,303.946 299.437,303.800 299.200 C 303.656 298.967,304.063 298.800,304.776 298.800 C 305.449 298.800,306.000 298.620,306.000 298.400 C 306.000 298.180,306.450 298.000,307.000 298.000 C 307.550 298.000,308.000 297.820,308.000 297.600 C 308.000 297.380,308.236 297.200,308.525 297.200 C 308.813 297.200,309.436 296.840,309.908 296.400 C 310.380 295.960,311.004 295.600,311.295 295.600 C 311.586 295.600,312.083 295.240,312.400 294.800 C 312.717 294.360,313.178 294.000,313.425 294.000 C 314.028 294.000,320.000 288.028,320.000 287.425 C 320.000 287.310,320.621 286.245,321.380 285.059 C 322.138 283.873,322.878 282.429,323.023 281.851 C 323.168 281.273,323.477 280.800,323.710 280.800 C 323.943 280.800,324.035 280.702,323.914 280.581 C 323.794 280.461,324.034 279.275,324.448 277.946 C 324.931 276.393,325.200 274.334,325.200 272.188 C 325.200 270.351,325.380 268.736,325.600 268.600 C 325.863 268.438,326.000 253.463,326.000 224.976 L 326.000 181.600 327.600 181.600 C 328.480 181.600,329.200 181.420,329.200 181.200 C 329.200 180.980,330.179 180.800,331.376 180.800 C 332.573 180.800,333.664 180.620,333.800 180.400 C 333.936 180.180,334.757 180.000,335.624 180.000 C 336.491 180.000,337.200 179.820,337.200 179.600 C 337.200 179.380,337.729 179.200,338.376 179.200 C 339.023 179.200,339.664 179.020,339.800 178.800 C 339.936 178.580,340.397 178.400,340.824 178.400 C 341.251 178.400,341.600 178.220,341.600 178.000 C 341.600 177.780,342.140 177.600,342.800 177.600 C 343.460 177.600,344.000 177.420,344.000 177.200 C 344.000 176.980,344.551 176.800,345.224 176.800 C 345.937 176.800,346.344 176.633,346.200 176.400 C 346.060 176.173,346.396 176.000,346.976 176.000 C 347.539 176.000,348.000 175.820,348.000 175.600 C 348.000 175.380,348.324 175.200,348.720 175.200 C 349.116 175.200,349.656 174.984,349.920 174.720 C 350.184 174.456,350.400 174.361,350.400 174.510 C 350.400 174.658,351.308 174.244,352.418 173.590 C 353.527 172.935,354.607 172.400,354.818 172.400 C 355.028 172.400,355.200 172.220,355.200 172.000 C 355.200 171.780,355.470 171.600,355.800 171.600 C 356.130 171.600,356.400 171.420,356.400 171.200 C 356.400 170.980,356.670 170.800,357.000 170.800 C 357.330 170.800,357.600 170.620,357.600 170.400 C 357.600 170.180,357.830 170.000,358.112 170.000 C 358.393 170.000,358.883 169.640,359.200 169.200 C 359.517 168.760,359.975 168.400,360.218 168.400 C 360.460 168.400,361.622 167.500,362.800 166.400 C 363.978 165.300,365.103 164.400,365.299 164.400 C 365.838 164.400,366.798 163.331,366.514 163.048 C 366.378 162.911,366.491 162.800,366.765 162.800 C 367.493 162.800,372.953 156.824,374.585 154.242 C 375.016 153.559,375.466 152.910,375.585 152.800 C 375.703 152.690,376.025 152.195,376.300 151.700 C 376.575 151.205,377.025 150.397,377.300 149.904 C 377.575 149.412,378.115 148.716,378.500 148.357 C 378.885 147.999,379.200 147.538,379.200 147.333 C 379.200 146.712,380.179 144.806,380.500 144.803 C 380.665 144.801,380.800 144.440,380.800 144.000 C 380.800 143.560,380.980 143.200,381.200 143.200 C 381.420 143.200,381.600 142.840,381.600 142.400 C 381.600 141.960,381.780 141.600,382.000 141.600 C 382.220 141.600,382.400 141.240,382.400 140.800 C 382.400 140.360,382.580 140.000,382.800 140.000 C 383.020 140.000,383.200 139.550,383.200 139.000 C 383.200 138.450,383.380 138.000,383.600 138.000 C 383.820 138.000,384.000 137.561,384.000 137.024 C 384.000 136.487,384.180 135.936,384.400 135.800 C 384.620 135.664,384.800 135.124,384.800 134.600 C 384.800 134.076,384.980 133.536,385.200 133.400 C 385.420 133.264,385.600 132.623,385.600 131.976 C 385.600 131.329,385.780 130.800,386.000 130.800 C 386.220 130.800,386.400 130.080,386.400 129.200 C 386.400 128.320,386.546 127.600,386.725 127.600 C 386.904 127.600,387.094 126.760,387.147 125.733 C 387.200 124.706,387.457 123.491,387.718 123.033 C 388.575 121.527,388.387 64.123,387.520 62.629 C 387.147 61.984,386.932 61.309,387.044 61.129 C 387.156 60.948,387.057 60.800,386.824 60.800 C 386.591 60.800,386.400 60.440,386.400 60.000 C 386.400 59.560,386.250 59.200,386.068 59.200 C 385.885 59.200,385.480 58.708,385.168 58.106 C 384.435 56.694,380.906 53.165,379.494 52.432 C 378.892 52.120,378.400 51.715,378.400 51.532 C 378.400 51.350,378.040 51.200,377.600 51.200 C 377.160 51.200,376.800 51.020,376.800 50.800 C 376.800 50.580,376.260 50.400,375.600 50.400 C 374.940 50.400,374.400 50.220,374.400 50.000 C 374.400 49.753,372.333 49.600,369.000 49.600 L 363.600 49.600 363.600 46.600 C 363.600 44.867,363.431 43.600,363.200 43.600 C 362.980 43.600,362.800 42.880,362.800 42.000 C 362.800 41.120,362.620 40.400,362.400 40.400 C 362.180 40.400,362.000 40.055,362.000 39.634 C 362.000 39.167,361.531 38.659,360.800 38.336 C 360.140 38.044,359.600 37.669,359.600 37.502 C 359.600 37.336,359.150 37.200,358.600 37.200 C 358.050 37.200,357.600 37.020,357.600 36.800 C 357.600 36.279,355.322 36.279,355.000 36.800 C 354.864 37.020,354.391 37.200,353.948 37.200 C 353.505 37.200,352.871 37.472,352.539 37.804 C 352.207 38.136,351.770 38.305,351.568 38.180 C 351.365 38.055,351.200 38.244,351.200 38.600 C 351.200 38.987,351.015 39.133,350.738 38.962 C 350.476 38.800,350.384 38.851,350.525 39.079 C 350.662 39.301,350.516 39.824,350.200 40.241 C 349.724 40.870,349.623 43.662,349.613 56.500 L 349.600 72.000 351.200 73.600 L 352.800 75.200 356.171 75.200 C 358.586 75.200,359.708 75.035,360.124 74.619 C 360.443 74.300,360.816 74.150,360.952 74.286 C 361.089 74.422,361.200 74.203,361.200 73.800 C 361.200 73.397,361.317 73.184,361.461 73.327 C 362.170 74.036,362.805 71.216,362.873 67.054 L 362.947 62.600 363.200 65.800 L 363.453 69.000 363.527 65.900 L 363.600 62.800 365.976 62.800 C 367.283 62.800,368.464 62.980,368.600 63.200 C 368.736 63.420,369.383 63.600,370.037 63.600 C 371.674 63.600,374.000 65.926,374.000 67.563 C 374.000 68.217,374.180 68.864,374.400 69.000 C 374.659 69.160,374.800 76.996,374.800 91.200 C 374.800 105.404,374.659 113.240,374.400 113.400 C 374.177 113.538,374.000 115.404,374.000 117.624 C 374.000 120.008,373.840 121.600,373.600 121.600 C 373.380 121.600,373.200 122.500,373.200 123.600 C 373.200 124.700,373.020 125.600,372.800 125.600 C 372.580 125.600,372.400 126.230,372.400 127.000 C 372.400 127.770,372.220 128.400,372.000 128.400 C 371.780 128.400,371.600 128.940,371.600 129.600 C 371.600 130.260,371.420 130.800,371.200 130.800 C 370.980 130.800,370.800 131.149,370.800 131.576 C 370.800 132.003,370.620 132.464,370.400 132.600 C 370.180 132.736,370.000 133.287,370.000 133.824 C 370.000 134.361,369.820 134.800,369.600 134.800 C 369.380 134.800,369.200 135.053,369.200 135.362 C 369.200 135.880,367.661 139.140,367.199 139.600 C 367.089 139.710,366.744 140.295,366.432 140.900 C 366.120 141.505,365.715 142.000,365.532 142.000 C 365.350 142.000,365.200 142.320,365.200 142.712 C 365.200 143.103,364.840 143.683,364.400 144.000 C 363.960 144.317,363.600 144.729,363.600 144.915 C 363.600 145.101,362.979 145.912,362.219 146.717 C 361.460 147.522,360.605 148.632,360.319 149.185 C 359.740 150.306,356.597 153.600,356.107 153.600 C 355.934 153.600,354.824 154.500,353.640 155.600 C 352.456 156.700,351.282 157.600,351.032 157.600 C 350.781 157.600,350.317 157.960,350.000 158.400 C 349.683 158.840,349.103 159.200,348.712 159.200 C 348.320 159.200,348.000 159.341,348.000 159.514 C 348.000 159.686,346.830 160.361,345.401 161.014 C 343.971 161.666,342.801 162.335,342.801 162.500 C 342.800 162.665,342.440 162.800,342.000 162.800 C 341.560 162.800,341.200 162.980,341.200 163.200 C 341.200 163.420,340.874 163.600,340.475 163.600 C 340.076 163.600,339.005 163.960,338.094 164.400 C 337.184 164.840,336.081 165.200,335.643 165.200 C 335.205 165.200,334.736 165.380,334.600 165.600 C 334.464 165.820,333.733 166.000,332.976 166.000 C 332.219 166.000,331.600 166.180,331.600 166.400 C 331.600 166.620,330.826 166.800,329.880 166.800 C 328.934 166.800,327.977 166.983,327.752 167.208 C 327.196 167.764,309.856 167.767,309.670 167.210 C 309.595 166.984,308.749 166.800,307.790 166.800 C 306.832 166.800,305.936 166.620,305.800 166.400 C 305.664 166.180,305.034 166.000,304.400 166.000 C 303.766 166.000,303.136 165.820,303.000 165.600 C 302.864 165.380,302.223 165.200,301.576 165.200 C 300.929 165.200,300.400 165.020,300.400 164.800 C 300.400 164.580,300.051 164.400,299.624 164.400 C 299.197 164.400,298.736 164.220,298.600 164.000 C 298.464 163.780,297.913 163.600,297.376 163.600 C 296.839 163.600,296.400 163.420,296.400 163.200 C 296.400 162.980,296.166 162.800,295.880 162.800 C 295.144 162.800,293.207 161.859,293.203 161.500 C 293.201 161.335,292.840 161.200,292.400 161.200 C 291.960 161.200,291.600 161.040,291.600 160.843 C 291.600 160.647,291.150 160.374,290.600 160.236 C 290.050 160.098,289.600 159.808,289.600 159.592 C 289.600 159.377,289.280 159.200,288.888 159.200 C 288.497 159.200,287.917 158.840,287.600 158.400 C 287.283 157.960,286.820 157.600,286.571 157.600 C 286.322 157.600,285.554 157.060,284.863 156.400 C 284.172 155.740,283.415 155.200,283.180 155.200 C 282.945 155.200,282.864 155.020,283.000 154.800 C 283.136 154.580,282.977 154.400,282.646 154.400 C 281.995 154.400,276.800 149.401,276.800 148.774 C 276.800 148.564,276.245 147.812,275.567 147.103 C 274.890 146.394,274.041 145.315,273.681 144.707 C 273.322 144.098,272.886 143.600,272.714 143.600 C 272.541 143.600,272.400 143.322,272.400 142.983 C 272.400 142.644,272.040 141.980,271.600 141.508 C 271.160 141.036,270.800 140.413,270.800 140.125 C 270.800 139.836,270.620 139.600,270.400 139.600 C 270.180 139.600,270.000 139.240,270.000 138.800 C 270.000 138.360,269.865 137.999,269.700 137.997 C 269.341 137.993,268.400 136.056,268.400 135.320 C 268.400 135.034,268.220 134.800,268.000 134.800 C 267.780 134.800,267.600 134.361,267.600 133.824 C 267.600 133.287,267.420 132.736,267.200 132.600 C 266.980 132.464,266.800 132.003,266.800 131.576 C 266.800 131.149,266.620 130.800,266.400 130.800 C 266.180 130.800,266.000 130.260,266.000 129.600 C 266.000 128.940,265.820 128.400,265.600 128.400 C 265.380 128.400,265.200 127.871,265.200 127.224 C 265.200 126.577,265.020 125.936,264.800 125.800 C 264.580 125.664,264.400 124.663,264.400 123.576 C 264.400 122.489,264.220 121.600,264.000 121.600 C 263.759 121.600,263.600 119.941,263.600 117.424 C 263.600 115.071,263.425 113.139,263.200 113.000 C 262.941 112.840,262.800 105.070,262.800 91.000 C 262.800 76.930,262.941 69.160,263.200 69.000 C 263.420 68.864,263.600 68.217,263.600 67.563 C 263.600 64.897,266.335 63.321,271.637 62.933 L 274.275 62.739 274.544 67.470 C 274.692 70.071,274.991 72.260,275.207 72.333 C 275.423 72.407,275.600 72.656,275.600 72.887 C 275.600 75.115,283.363 76.245,285.754 74.365 C 287.989 72.607,288.000 72.518,288.000 56.212 L 288.000 41.184 286.995 39.592 C 286.442 38.716,285.722 38.000,285.395 38.000 C 285.068 38.000,284.800 37.820,284.800 37.600 C 284.800 37.380,284.361 37.200,283.824 37.200 C 283.287 37.200,282.736 37.020,282.600 36.800 C 282.464 36.580,281.834 36.400,281.200 36.400 C 280.566 36.400,279.936 36.580,279.800 36.800 M363.091 48.300 C 363.005 49.125,362.934 48.450,362.934 46.800 C 362.934 45.150,363.005 44.475,363.091 45.300 C 363.178 46.125,363.178 47.475,363.091 48.300 M111.779 199.200 C 111.779 206.350,111.833 209.275,111.899 205.700 C 111.966 202.125,111.966 196.275,111.899 192.700 C 111.833 189.125,111.779 192.050,111.779 199.200 " stroke="none" fill="#d5e1e5" fill-rule="evenodd"></path><path id="path3" d="M187.946 203.000 L 187.693 219.800 186.430 222.547 C 178.488 239.816,156.371 248.110,135.686 241.575 C 122.868 237.525,112.892 226.740,112.400 216.400 L 112.200 212.200 97.625 212.095 C 88.179 212.027,82.908 212.132,82.645 212.395 C 82.422 212.618,81.297 212.800,80.144 212.800 C 78.991 212.800,77.936 212.980,77.800 213.200 C 77.664 213.420,76.753 213.600,75.776 213.600 C 74.799 213.600,74.000 213.780,74.000 214.000 C 74.000 214.220,73.381 214.400,72.624 214.400 C 71.867 214.400,71.136 214.580,71.000 214.800 C 70.864 215.020,70.223 215.200,69.576 215.200 C 68.929 215.200,68.400 215.380,68.400 215.600 C 68.400 215.820,67.860 216.000,67.200 216.000 C 66.540 216.000,66.000 216.180,66.000 216.400 C 66.000 216.620,65.657 216.800,65.238 216.800 C 64.579 216.800,63.411 217.286,60.305 218.850 C 59.923 219.043,59.338 219.200,59.005 219.200 C 58.672 219.200,58.400 219.380,58.400 219.600 C 58.400 219.820,58.040 220.000,57.600 220.000 C 57.160 220.000,56.800 220.180,56.800 220.400 C 56.800 220.620,56.440 220.800,56.000 220.800 C 55.560 220.800,55.200 220.980,55.200 221.200 C 55.200 221.420,54.880 221.600,54.488 221.600 C 54.097 221.600,53.517 221.960,53.200 222.400 C 52.883 222.840,52.303 223.200,51.912 223.200 C 51.520 223.200,51.200 223.380,51.200 223.600 C 51.200 223.820,50.880 224.000,50.488 224.000 C 50.097 224.000,49.517 224.360,49.200 224.800 C 48.883 225.240,48.343 225.600,48.000 225.600 C 47.657 225.600,47.117 225.960,46.800 226.400 C 46.483 226.840,45.991 227.200,45.708 227.200 C 45.425 227.200,44.628 227.740,43.937 228.400 C 43.246 229.060,42.529 229.600,42.344 229.600 C 41.903 229.600,29.600 241.903,29.600 242.344 C 29.600 242.529,29.060 243.246,28.400 243.937 C 27.740 244.628,27.200 245.425,27.200 245.708 C 27.200 245.991,26.840 246.483,26.400 246.800 C 25.960 247.117,25.600 247.657,25.600 248.000 C 25.600 248.343,25.240 248.883,24.800 249.200 C 24.360 249.517,24.000 250.097,24.000 250.488 C 24.000 250.880,23.820 251.200,23.600 251.200 C 23.380 251.200,23.200 251.520,23.200 251.912 C 23.200 252.303,22.840 252.883,22.400 253.200 C 21.960 253.517,21.600 254.097,21.600 254.488 C 21.600 254.880,21.420 255.200,21.200 255.200 C 20.980 255.200,20.800 255.560,20.800 256.000 C 20.800 256.440,20.620 256.800,20.400 256.800 C 20.180 256.800,20.000 257.160,20.000 257.600 C 20.000 258.040,19.820 258.400,19.600 258.400 C 19.380 258.400,19.200 258.672,19.200 259.005 C 19.200 259.338,19.043 259.923,18.850 260.305 C 17.286 263.411,16.800 264.579,16.800 265.238 C 16.800 265.657,16.620 266.000,16.400 266.000 C 16.180 266.000,16.000 266.540,16.000 267.200 C 16.000 267.860,15.820 268.400,15.600 268.400 C 15.380 268.400,15.200 268.929,15.200 269.576 C 15.200 270.223,15.020 270.864,14.800 271.000 C 14.580 271.136,14.400 271.867,14.400 272.624 C 14.400 273.381,14.220 274.000,14.000 274.000 C 13.780 274.000,13.600 274.799,13.600 275.776 C 13.600 276.753,13.420 277.664,13.200 277.800 C 12.980 277.936,12.800 279.016,12.800 280.200 C 12.800 281.384,12.620 282.464,12.400 282.600 C 12.138 282.762,12.000 294.471,12.000 316.424 L 12.000 350.000 34.200 350.000 L 56.400 350.000 56.400 369.000 L 56.400 388.000 150.000 388.000 L 243.600 388.000 243.600 369.000 L 243.600 350.000 265.800 350.000 L 288.000 350.000 288.000 325.243 C 288.000 303.036,287.935 300.461,287.367 300.243 C 287.019 300.109,269.963 300.000,249.465 300.000 L 212.195 300.000 211.748 301.100 C 211.503 301.705,211.065 302.813,210.776 303.563 C 202.619 324.726,172.233 323.591,163.578 301.800 C 162.082 298.033,162.081 289.756,163.577 285.800 C 165.128 281.697,168.226 277.019,170.683 275.069 C 171.190 274.667,171.853 274.089,172.158 273.785 C 177.887 268.055,191.011 267.081,199.788 271.734 C 202.467 273.155,208.800 279.134,208.800 280.243 C 208.800 280.371,209.129 280.954,209.532 281.538 C 209.934 282.122,210.675 283.635,211.178 284.900 L 212.093 287.200 250.046 287.200 L 288.000 287.200 288.000 285.024 C 288.000 283.827,287.820 282.736,287.600 282.600 C 287.380 282.464,287.200 281.384,287.200 280.200 C 287.200 279.016,287.020 277.936,286.800 277.800 C 286.580 277.664,286.400 276.753,286.400 275.776 C 286.400 274.799,286.220 274.000,286.000 274.000 C 285.780 274.000,285.600 273.381,285.600 272.624 C 285.600 271.867,285.420 271.136,285.200 271.000 C 284.980 270.864,284.800 270.223,284.800 269.576 C 284.800 268.929,284.620 268.400,284.400 268.400 C 284.180 268.400,284.000 267.860,284.000 267.200 C 284.000 266.540,283.820 266.000,283.600 266.000 C 283.380 266.000,283.200 265.561,283.200 265.024 C 283.200 264.487,283.020 263.936,282.800 263.800 C 282.580 263.664,282.400 263.203,282.400 262.776 C 282.400 262.349,282.220 262.000,282.000 262.000 C 281.780 262.000,281.600 261.651,281.600 261.224 C 281.600 260.797,281.420 260.336,281.200 260.200 C 280.980 260.064,280.800 259.603,280.800 259.176 C 280.800 258.749,280.620 258.400,280.400 258.400 C 280.180 258.400,280.000 258.040,280.000 257.600 C 280.000 257.160,279.820 256.800,279.600 256.800 C 279.380 256.800,279.200 256.440,279.200 256.000 C 279.200 255.560,279.020 255.200,278.800 255.200 C 278.580 255.200,278.400 254.880,278.400 254.488 C 278.400 254.097,278.040 253.517,277.600 253.200 C 277.160 252.883,276.800 252.303,276.800 251.912 C 276.800 251.520,276.620 251.200,276.400 251.200 C 276.180 251.200,276.000 250.922,276.000 250.583 C 276.000 250.244,275.816 249.749,275.592 249.483 C 275.367 249.217,274.430 247.855,273.508 246.455 C 272.587 245.056,271.601 243.822,271.317 243.713 C 271.032 243.604,270.800 243.273,270.800 242.978 C 270.800 241.873,255.988 227.600,254.842 227.600 C 254.619 227.600,253.986 227.150,253.436 226.600 C 252.886 226.050,252.198 225.600,251.906 225.600 C 251.615 225.600,251.117 225.240,250.800 224.800 C 250.483 224.360,249.903 224.000,249.512 224.000 C 249.120 224.000,248.800 223.820,248.800 223.600 C 248.800 223.380,248.480 223.200,248.088 223.200 C 247.697 223.200,247.117 222.840,246.800 222.400 C 246.483 221.960,245.903 221.600,245.512 221.600 C 245.120 221.600,244.800 221.420,244.800 221.200 C 244.800 220.980,244.440 220.800,244.000 220.800 C 243.560 220.800,243.200 220.620,243.200 220.400 C 243.200 220.180,242.840 220.000,242.400 220.000 C 241.960 220.000,241.600 219.820,241.600 219.600 C 241.600 219.380,241.251 219.200,240.824 219.200 C 240.397 219.200,239.936 219.020,239.800 218.800 C 239.664 218.580,239.203 218.400,238.776 218.400 C 238.349 218.400,238.000 218.220,238.000 218.000 C 238.000 217.780,237.651 217.600,237.224 217.600 C 236.797 217.600,236.336 217.420,236.200 217.200 C 236.064 216.980,235.513 216.800,234.976 216.800 C 234.439 216.800,234.000 216.620,234.000 216.400 C 234.000 216.180,233.460 216.000,232.800 216.000 C 232.140 216.000,231.600 215.840,231.600 215.644 C 231.600 215.448,230.970 215.178,230.200 215.044 C 229.430 214.910,228.170 214.690,227.400 214.556 C 226.630 214.422,226.000 214.152,226.000 213.956 C 226.000 213.760,225.100 213.600,224.000 213.600 C 222.900 213.600,222.000 213.420,222.000 213.200 C 222.000 212.980,221.021 212.800,219.824 212.800 C 218.627 212.800,217.536 212.620,217.400 212.400 C 217.243 212.145,211.931 212.000,202.782 212.000 L 188.411 212.000 188.306 199.100 L 188.200 186.200 187.946 203.000 M286.060 386.242 C 285.762 386.578,285.599 386.932,285.695 387.029 C 285.792 387.126,286.198 386.844,286.598 386.402 C 286.997 385.961,287.161 385.607,286.962 385.615 C 286.763 385.624,286.357 385.905,286.060 386.242 " stroke="none" fill="#fc6c6c" fill-rule="evenodd"></path><path id="path4" d="M362.934 46.800 C 362.934 48.450,363.005 49.125,363.091 48.300 C 363.178 47.475,363.178 46.125,363.091 45.300 C 363.005 44.475,362.934 45.150,362.934 46.800 M362.937 65.800 C 362.939 67.560,363.009 68.230,363.093 67.289 C 363.178 66.349,363.177 64.909,363.091 64.089 C 363.005 63.270,362.936 64.040,362.937 65.800 M159.298 82.228 C 157.821 83.113,157.338 83.794,155.654 87.363 C 152.519 94.009,148.248 97.741,141.880 99.397 C 139.959 99.897,136.029 100.000,118.975 100.000 C 103.250 100.000,98.178 100.118,97.495 100.500 C 94.401 102.229,93.600 104.013,93.600 109.174 L 93.600 113.180 92.574 112.790 C 90.067 111.837,83.556 112.566,80.368 114.156 C 79.658 114.510,78.709 114.800,78.259 114.800 C 77.665 114.800,77.561 114.921,77.878 115.238 C 78.196 115.556,78.741 115.490,79.858 114.998 C 82.392 113.881,82.944 113.674,84.200 113.367 C 85.448 113.061,91.059 112.984,92.800 113.248 L 93.800 113.400 93.916 109.404 C 93.979 107.207,94.204 105.236,94.416 105.024 C 94.627 104.813,94.800 104.350,94.800 103.995 C 94.800 103.163,96.679 101.372,98.126 100.825 C 98.868 100.545,106.244 100.398,119.726 100.395 C 141.764 100.390,142.166 100.358,146.470 98.240 C 150.465 96.275,153.497 92.860,156.422 87.032 C 160.252 79.400,164.961 79.591,168.844 87.534 C 173.732 97.535,179.048 100.400,192.720 100.400 C 204.619 100.400,205.567 101.029,205.985 109.200 L 206.200 113.400 207.200 113.248 C 208.941 112.984,214.552 113.061,215.800 113.367 C 217.055 113.674,217.706 113.916,219.965 114.919 C 220.715 115.253,221.615 115.412,221.965 115.274 C 222.487 115.068,222.457 114.999,221.800 114.884 C 221.360 114.807,220.280 114.422,219.400 114.027 C 216.548 112.749,213.680 112.284,209.948 112.497 L 206.400 112.700 206.400 108.999 C 206.400 104.986,205.878 103.153,204.335 101.750 C 202.522 100.102,201.897 100.000,193.603 100.000 C 178.730 100.000,173.361 96.863,168.266 85.194 C 166.644 81.480,162.714 80.180,159.298 82.228 M112.466 216.400 C 112.436 218.490,112.545 220.409,112.707 220.664 C 112.870 220.919,112.950 219.659,112.886 217.864 C 112.707 212.835,112.525 212.203,112.466 216.400 M187.283 216.267 C 187.237 218.284,187.096 220.264,186.970 220.667 C 186.757 221.345,186.773 221.348,187.185 220.708 C 187.458 220.285,187.579 218.579,187.498 216.308 L 187.366 212.600 187.283 216.267 M185.078 224.605 C 184.712 225.372,184.495 226.000,184.596 226.000 C 184.870 226.000,186.084 223.551,185.901 223.368 C 185.814 223.281,185.444 223.838,185.078 224.605 M114.800 224.961 C 114.800 225.378,117.123 228.705,117.634 229.021 C 117.958 229.221,116.465 226.915,114.923 224.833 C 114.856 224.742,114.800 224.799,114.800 224.961 M181.270 230.022 C 180.758 230.670,180.488 231.190,180.670 231.178 C 180.851 231.166,181.419 230.626,181.930 229.978 C 182.442 229.330,182.712 228.810,182.530 228.822 C 182.349 228.834,181.781 229.374,181.270 230.022 M119.225 231.031 C 119.981 231.928,120.681 232.597,120.780 232.517 C 120.879 232.438,120.260 231.704,119.405 230.887 L 117.850 229.400 119.225 231.031 M177.767 233.829 L 176.200 235.258 177.900 233.962 C 179.453 232.778,179.832 232.400,179.467 232.400 C 179.393 232.400,178.628 233.043,177.767 233.829 M121.200 232.925 C 121.200 232.994,121.785 233.579,122.500 234.225 L 123.800 235.400 122.625 234.100 C 121.530 232.888,121.200 232.616,121.200 232.925 M124.000 235.403 C 124.000 235.713,126.826 237.707,127.008 237.525 C 127.111 237.423,126.476 236.868,125.597 236.293 C 124.719 235.718,124.000 235.317,124.000 235.403 M174.214 236.446 C 172.113 238.026,171.916 238.287,173.527 237.362 C 174.662 236.710,176.447 235.145,175.962 235.227 C 175.873 235.242,175.086 235.791,174.214 236.446 M133.946 241.016 C 134.686 241.337,135.496 241.593,135.746 241.584 C 135.996 241.576,135.594 241.306,134.854 240.984 C 134.114 240.663,133.304 240.407,133.054 240.416 C 132.804 240.424,133.206 240.694,133.946 241.016 M160.400 242.418 C 159.962 242.715,160.124 242.752,161.000 242.556 C 162.471 242.227,162.790 241.998,161.767 242.006 C 161.345 242.009,160.730 242.195,160.400 242.418 M142.600 243.223 C 144.626 243.642,146.263 243.623,144.600 243.200 C 143.940 243.032,142.860 242.894,142.200 242.893 C 141.191 242.892,141.255 242.945,142.600 243.223 M155.400 243.220 C 154.611 243.435,155.022 243.470,156.600 243.323 C 157.920 243.200,159.075 243.032,159.167 242.950 C 159.464 242.682,156.634 242.885,155.400 243.220 M179.748 269.792 C 176.950 270.746,173.252 272.691,172.158 273.785 C 171.853 274.089,171.190 274.667,170.683 275.069 C 168.226 277.019,165.128 281.697,163.577 285.800 C 162.081 289.756,162.082 298.033,163.578 301.800 C 172.226 323.573,202.774 324.715,210.766 303.563 C 211.049 302.813,211.473 301.795,211.708 301.301 C 211.942 300.806,212.021 300.288,211.882 300.149 C 211.743 300.010,211.431 300.415,211.188 301.048 C 204.123 319.441,183.382 324.362,170.000 310.820 C 155.928 296.579,163.328 273.710,183.400 269.410 C 185.652 268.927,185.701 268.893,184.200 268.858 C 183.320 268.837,181.317 269.258,179.748 269.792 M191.000 269.259 C 193.920 269.792,198.040 271.182,199.262 272.048 C 199.846 272.462,200.526 272.800,200.773 272.800 C 201.344 272.800,208.400 279.834,208.400 280.403 C 208.400 280.637,208.715 281.298,209.100 281.872 C 209.485 282.447,210.168 283.925,210.617 285.158 L 211.434 287.400 249.617 287.403 L 287.800 287.406 249.946 287.301 L 212.091 287.196 211.177 284.898 C 210.675 283.634,209.934 282.122,209.532 281.538 C 209.129 280.954,208.800 280.371,208.800 280.243 C 208.800 276.827,195.907 268.704,190.713 268.847 L 189.000 268.895 191.000 269.259 M56.185 369.000 C 56.185 379.560,56.237 383.823,56.300 378.472 C 56.363 373.122,56.363 364.482,56.300 359.272 C 56.236 354.063,56.185 358.440,56.185 369.000 M243.785 369.000 C 243.785 379.560,243.837 383.823,243.900 378.472 C 243.963 373.122,243.963 364.482,243.900 359.272 C 243.836 354.063,243.785 358.440,243.785 369.000 M12.000 382.940 C 12.000 383.555,12.953 385.600,13.239 385.600 C 13.716 385.600,13.705 385.533,12.971 384.061 C 12.425 382.969,12.000 382.477,12.000 382.940 M15.144 387.213 C 16.179 388.075,16.800 388.220,16.800 387.600 C 16.800 387.380,16.440 387.200,16.000 387.200 C 15.560 387.200,15.200 387.020,15.200 386.800 C 15.200 386.580,14.975 386.406,14.700 386.413 C 14.425 386.421,14.625 386.781,15.144 387.213 M284.100 387.082 C 283.605 387.178,283.200 387.423,283.200 387.628 C 283.200 388.135,283.618 388.076,284.800 387.400 C 285.815 386.820,285.710 386.772,284.100 387.082 " stroke="none" fill="#eca6a8" fill-rule="evenodd"></path></g></svg>