<?xml version="1.0" standalone="no"?>
<!DOCTYPE svg PUBLIC "-//W3C//DTD SVG 20010904//EN"
 "http://www.w3.org/TR/2001/REC-SVG-20010904/DTD/svg10.dtd">
<svg version="1.0" xmlns="http://www.w3.org/2000/svg"
 width="512.000000pt" height="512.000000pt" viewBox="0 0 512.000000 512.000000"
 preserveAspectRatio="xMidYMid meet">

<g transform="translate(0.000000,512.000000) scale(0.100000,-0.100000)"
fill="#FFFFFF" stroke="none">
<path d="M2471 5103 c-24 -9 -63 -35 -86 -58 -80 -79 -75 -8 -75 -1187 l0
-1048 -1048 0 c-1179 0 -1108 4 -1187 -75 -98 -98 -98 -252 0 -350 79 -79 8
-75 1187 -75 l1048 0 0 -1048 c0 -1179 -4 -1108 75 -1187 98 -98 252 -98 350
0 79 79 75 8 75 1187 l0 1048 1048 0 c1179 0 1108 -4 1187 75 98 98 98 252 0
350 -79 79 -8 75 -1187 75 l-1048 0 0 1048 c0 1179 4 1108 -75 1187 -69 70
-169 91 -264 58z"/>
</g>
</svg>
