<svg id="svg" version="1.1" xmlns="http://www.w3.org/2000/svg" xmlns:xlink="http://www.w3.org/1999/xlink" width="400" height="400" viewBox="0, 0, 400,400"><g id="svgg"><path id="path0" d="M119.000 0.453 C 117.460 0.655,115.165 0.922,113.900 1.046 C 112.635 1.170,111.600 1.435,111.600 1.636 C 111.600 1.836,110.621 2.000,109.424 2.000 C 108.227 2.000,107.136 2.180,107.000 2.400 C 106.864 2.620,106.144 2.800,105.400 2.800 C 104.656 2.800,103.936 2.980,103.800 3.200 C 103.664 3.420,103.034 3.600,102.400 3.600 C 101.766 3.600,101.136 3.780,101.000 4.000 C 100.864 4.220,100.133 4.400,99.376 4.400 C 98.619 4.400,98.000 4.580,98.000 4.800 C 98.000 5.020,97.269 5.200,96.376 5.200 C 95.396 5.200,94.851 5.358,95.000 5.600 C 95.144 5.833,94.737 6.000,94.024 6.000 C 93.351 6.000,92.800 6.180,92.800 6.400 C 92.800 6.620,92.260 6.800,91.600 6.800 C 90.940 6.800,90.400 6.980,90.400 7.200 C 90.400 7.420,90.040 7.600,89.600 7.600 C 89.160 7.600,88.800 7.780,88.800 8.000 C 88.800 8.220,88.260 8.400,87.600 8.400 C 86.940 8.400,86.400 8.580,86.400 8.800 C 86.400 9.020,85.860 9.200,85.200 9.200 C 84.540 9.200,84.000 9.360,84.000 9.555 C 84.000 9.751,83.374 10.028,82.610 10.172 C 81.845 10.315,80.207 10.965,78.969 11.616 C 77.731 12.267,76.467 12.800,76.159 12.800 C 75.852 12.800,75.600 12.980,75.600 13.200 C 75.600 13.420,75.240 13.600,74.800 13.600 C 74.360 13.600,74.000 13.780,74.000 14.000 C 74.000 14.220,73.640 14.400,73.200 14.400 C 72.760 14.400,72.400 14.580,72.400 14.800 C 72.400 15.020,72.122 15.200,71.783 15.200 C 71.444 15.200,70.780 15.560,70.308 16.000 C 69.836 16.440,69.213 16.800,68.925 16.800 C 68.636 16.800,68.400 16.980,68.400 17.200 C 68.400 17.420,68.040 17.600,67.600 17.600 C 67.160 17.600,66.800 17.780,66.800 18.000 C 66.800 18.220,66.564 18.400,66.275 18.400 C 65.987 18.400,65.364 18.760,64.892 19.200 C 64.420 19.640,63.756 20.000,63.417 20.000 C 63.078 20.000,62.800 20.180,62.800 20.400 C 62.800 20.620,62.530 20.800,62.200 20.800 C 61.870 20.800,61.600 20.980,61.600 21.200 C 61.600 21.420,61.330 21.600,61.000 21.600 C 60.670 21.600,60.400 21.780,60.400 22.000 C 60.400 22.220,60.218 22.400,59.996 22.400 C 59.774 22.400,59.028 22.940,58.337 23.600 C 57.646 24.260,56.926 24.800,56.737 24.800 C 56.548 24.800,55.828 25.340,55.137 26.000 C 54.446 26.660,53.669 27.200,53.410 27.200 C 53.151 27.200,52.517 27.650,52.000 28.200 C 51.483 28.750,50.855 29.200,50.603 29.200 C 49.376 29.200,29.200 49.376,29.200 50.603 C 29.200 50.855,28.750 51.483,28.200 52.000 C 27.650 52.517,27.200 53.151,27.200 53.410 C 27.200 53.669,26.660 54.446,26.000 55.137 C 25.340 55.828,24.800 56.548,24.800 56.737 C 24.800 56.926,24.260 57.646,23.600 58.337 C 22.940 59.028,22.400 59.774,22.400 59.996 C 22.400 60.218,22.220 60.400,22.000 60.400 C 21.780 60.400,21.600 60.670,21.600 61.000 C 21.600 61.330,21.420 61.600,21.200 61.600 C 20.980 61.600,20.800 61.870,20.800 62.200 C 20.800 62.530,20.620 62.800,20.400 62.800 C 20.180 62.800,20.000 63.078,20.000 63.417 C 20.000 63.756,19.640 64.420,19.200 64.892 C 18.760 65.364,18.400 65.987,18.400 66.275 C 18.400 66.564,18.220 66.800,18.000 66.800 C 17.780 66.800,17.600 67.160,17.600 67.600 C 17.600 68.040,17.420 68.400,17.200 68.400 C 16.980 68.400,16.800 68.636,16.800 68.925 C 16.800 69.213,16.440 69.836,16.000 70.308 C 15.560 70.780,15.200 71.444,15.200 71.783 C 15.200 72.122,15.020 72.400,14.800 72.400 C 14.580 72.400,14.400 72.760,14.400 73.200 C 14.400 73.640,14.220 74.000,14.000 74.000 C 13.780 74.000,13.600 74.360,13.600 74.800 C 13.600 75.240,13.420 75.600,13.200 75.600 C 12.980 75.600,12.800 75.852,12.800 76.159 C 12.800 76.467,12.267 77.731,11.616 78.969 C 10.965 80.207,10.315 81.845,10.172 82.610 C 10.028 83.374,9.751 84.000,9.555 84.000 C 9.360 84.000,9.200 84.540,9.200 85.200 C 9.200 85.860,9.020 86.400,8.800 86.400 C 8.580 86.400,8.400 86.940,8.400 87.600 C 8.400 88.260,8.220 88.800,8.000 88.800 C 7.780 88.800,7.600 89.160,7.600 89.600 C 7.600 90.040,7.420 90.400,7.200 90.400 C 6.980 90.400,6.800 90.940,6.800 91.600 C 6.800 92.260,6.620 92.800,6.400 92.800 C 6.180 92.800,6.000 93.351,6.000 94.024 C 6.000 94.737,5.833 95.144,5.600 95.000 C 5.358 94.851,5.200 95.396,5.200 96.376 C 5.200 97.269,5.020 98.000,4.800 98.000 C 4.580 98.000,4.400 98.619,4.400 99.376 C 4.400 100.133,4.220 100.864,4.000 101.000 C 3.780 101.136,3.600 101.766,3.600 102.400 C 3.600 103.034,3.420 103.664,3.200 103.800 C 2.980 103.936,2.800 104.656,2.800 105.400 C 2.800 106.144,2.620 106.864,2.400 107.000 C 2.180 107.136,2.000 108.227,2.000 109.424 C 2.000 110.621,1.836 111.600,1.636 111.600 C 1.435 111.600,1.175 112.635,1.058 113.900 C 0.941 115.165,0.644 117.910,0.398 120.000 C -0.260 125.589,0.137 156.400,0.867 156.400 C 1.050 156.400,1.200 157.379,1.200 158.576 C 1.200 159.773,1.380 160.864,1.600 161.000 C 1.820 161.136,2.000 162.216,2.000 163.400 C 2.000 164.584,2.180 165.664,2.400 165.800 C 2.620 165.936,2.800 166.667,2.800 167.424 C 2.800 168.181,2.980 168.800,3.200 168.800 C 3.420 168.800,3.600 169.419,3.600 170.176 C 3.600 170.933,3.780 171.664,4.000 171.800 C 4.220 171.936,4.400 172.667,4.400 173.424 C 4.400 174.181,4.580 174.800,4.800 174.800 C 5.020 174.800,5.200 175.430,5.200 176.200 C 5.200 176.970,5.380 177.600,5.600 177.600 C 5.820 177.600,6.000 178.039,6.000 178.576 C 6.000 179.113,6.144 179.642,6.321 179.751 C 6.497 179.860,6.890 180.861,7.193 181.975 C 7.496 183.089,7.892 184.000,8.072 184.000 C 8.253 184.000,8.400 184.540,8.400 185.200 C 8.400 185.860,8.580 186.400,8.800 186.400 C 9.020 186.400,9.200 186.940,9.200 187.600 C 9.200 188.260,9.380 188.800,9.600 188.800 C 9.820 188.800,10.000 189.136,10.000 189.546 C 10.000 190.229,10.770 191.940,14.042 198.534 C 14.679 199.818,15.200 201.123,15.200 201.434 C 15.200 201.746,15.380 202.000,15.600 202.000 C 15.820 202.000,16.000 202.236,16.000 202.525 C 16.000 202.813,16.325 203.398,16.722 203.825 C 17.120 204.251,17.703 205.185,18.020 205.900 C 18.336 206.615,18.731 207.200,18.898 207.200 C 19.064 207.200,19.200 207.470,19.200 207.800 C 19.200 208.130,19.380 208.400,19.600 208.400 C 19.820 208.400,20.000 208.670,20.000 209.000 C 20.000 209.330,20.180 209.600,20.400 209.600 C 20.620 209.600,20.800 209.971,20.800 210.424 C 20.800 210.877,20.980 211.136,21.200 211.000 C 21.420 210.864,21.600 211.033,21.600 211.376 C 21.600 211.719,21.780 212.000,22.000 212.000 C 22.220 212.000,22.400 212.320,22.400 212.712 C 22.400 213.103,22.760 213.683,23.200 214.000 C 23.640 214.317,24.000 214.780,24.000 215.029 C 24.000 215.278,24.540 216.046,25.200 216.737 C 25.860 217.428,26.400 218.174,26.400 218.396 C 26.400 218.618,26.547 218.800,26.726 218.800 C 26.906 218.800,27.435 219.475,27.902 220.300 C 28.368 221.125,29.617 222.735,30.675 223.878 C 31.734 225.021,32.870 226.356,33.200 226.845 C 34.089 228.162,44.375 238.402,46.640 240.225 C 47.716 241.091,49.138 242.294,49.798 242.898 C 50.459 243.502,51.137 243.997,51.304 243.998 C 51.471 243.999,52.172 244.540,52.863 245.200 C 53.554 245.860,54.322 246.400,54.571 246.400 C 54.820 246.400,55.283 246.760,55.600 247.200 C 55.917 247.640,56.407 248.000,56.688 248.000 C 56.970 248.000,57.200 248.180,57.200 248.400 C 57.200 248.620,57.430 248.800,57.712 248.800 C 57.993 248.800,58.483 249.160,58.800 249.600 C 59.117 250.040,59.607 250.400,59.888 250.400 C 60.170 250.400,60.400 250.580,60.400 250.800 C 60.400 251.020,60.670 251.200,61.000 251.200 C 61.330 251.200,61.600 251.336,61.600 251.502 C 61.600 251.669,62.185 252.061,62.900 252.373 C 64.358 253.011,66.530 254.443,66.733 254.900 C 66.807 255.065,67.139 255.200,67.472 255.200 C 67.804 255.200,68.554 255.537,69.138 255.949 C 70.713 257.059,74.284 258.800,74.987 258.800 C 75.324 258.800,75.600 258.980,75.600 259.200 C 75.600 259.420,75.845 259.600,76.144 259.600 C 76.801 259.600,81.745 262.076,81.933 262.500 C 82.007 262.665,82.491 262.800,83.010 262.800 C 83.528 262.800,84.064 262.980,84.200 263.200 C 84.336 263.420,84.887 263.600,85.424 263.600 C 85.961 263.600,86.400 263.780,86.400 264.000 C 86.400 264.220,86.749 264.400,87.176 264.400 C 87.603 264.400,88.064 264.580,88.200 264.800 C 88.336 265.020,88.876 265.200,89.400 265.200 C 89.924 265.200,90.464 265.380,90.600 265.600 C 90.736 265.820,91.287 266.000,91.824 266.000 C 92.361 266.000,92.800 266.180,92.800 266.400 C 92.800 266.620,93.239 266.800,93.776 266.800 C 94.313 266.800,94.864 266.980,95.000 267.200 C 95.136 267.420,95.777 267.600,96.424 267.600 C 97.071 267.600,97.600 267.780,97.600 268.000 C 97.600 268.220,98.320 268.400,99.200 268.400 C 100.080 268.400,100.800 268.580,100.800 268.800 C 100.800 269.020,101.419 269.200,102.176 269.200 C 102.933 269.200,103.664 269.380,103.800 269.600 C 103.936 269.820,104.656 270.000,105.400 270.000 C 106.144 270.000,106.864 270.180,107.000 270.400 C 107.136 270.620,108.036 270.800,109.000 270.800 C 109.964 270.800,110.864 270.980,111.000 271.200 C 111.136 271.420,112.371 271.600,113.744 271.600 C 115.117 271.600,116.411 271.763,116.620 271.963 C 117.137 272.457,120.119 272.752,128.400 273.130 C 132.250 273.306,135.701 273.588,136.069 273.756 C 136.437 273.924,137.083 273.877,137.505 273.651 C 137.928 273.425,141.187 273.205,144.748 273.163 C 148.309 273.121,151.318 272.932,151.435 272.743 C 151.552 272.555,152.702 272.400,153.990 272.400 C 155.279 272.400,156.393 272.230,156.467 272.022 C 156.540 271.814,157.815 271.606,159.300 271.559 C 160.785 271.512,162.000 271.322,162.000 271.137 C 162.000 270.952,162.799 270.800,163.776 270.800 C 164.753 270.800,165.664 270.620,165.800 270.400 C 165.936 270.180,166.757 270.000,167.624 270.000 C 168.491 270.000,169.200 269.820,169.200 269.600 C 169.200 269.380,169.830 269.200,170.600 269.200 C 171.370 269.200,172.000 269.020,172.000 268.800 C 172.000 268.580,172.720 268.400,173.600 268.400 C 174.480 268.400,175.200 268.220,175.200 268.000 C 175.200 267.780,175.729 267.600,176.376 267.600 C 177.023 267.600,177.664 267.420,177.800 267.200 C 177.936 266.980,178.487 266.800,179.024 266.800 C 179.561 266.800,180.000 266.620,180.000 266.400 C 180.000 266.180,180.540 266.000,181.200 266.000 C 181.860 266.000,182.400 265.820,182.400 265.600 C 182.400 265.380,182.940 265.200,183.600 265.200 C 184.260 265.200,184.800 265.020,184.800 264.800 C 184.800 264.580,185.149 264.400,185.576 264.400 C 186.003 264.400,186.464 264.220,186.600 264.000 C 186.736 263.780,187.197 263.600,187.624 263.600 C 188.051 263.600,188.400 263.420,188.400 263.200 C 188.400 262.980,188.940 262.800,189.600 262.800 C 190.260 262.800,190.800 262.620,190.800 262.400 C 190.800 262.180,191.160 262.000,191.600 262.000 C 192.040 262.000,192.400 261.820,192.400 261.600 C 192.400 261.380,192.760 261.200,193.200 261.200 C 193.640 261.200,194.000 261.020,194.000 260.800 C 194.000 260.580,194.360 260.400,194.800 260.400 C 195.240 260.400,195.600 260.220,195.600 260.000 C 195.600 259.780,195.960 259.600,196.400 259.600 C 196.840 259.600,197.200 259.420,197.200 259.200 C 197.200 258.980,197.549 258.800,197.976 258.800 C 198.403 258.800,198.866 258.617,199.004 258.393 C 199.142 258.170,199.402 258.078,199.582 258.189 C 199.762 258.300,200.123 258.134,200.384 257.819 C 200.645 257.505,201.092 257.337,201.378 257.447 C 201.663 257.556,202.004 257.366,202.136 257.023 C 202.267 256.680,202.573 256.400,202.814 256.400 C 203.056 256.400,203.843 255.950,204.564 255.400 C 205.286 254.850,206.091 254.400,206.354 254.400 C 206.874 254.400,209.317 252.787,209.533 252.300 C 209.607 252.135,210.012 252.000,210.433 252.000 C 210.855 252.000,211.200 251.850,211.200 251.668 C 211.200 251.485,211.695 251.081,212.300 250.770 C 212.905 250.460,213.691 249.889,214.047 249.503 C 214.403 249.116,214.871 248.800,215.088 248.800 C 215.304 248.800,216.046 248.260,216.737 247.600 C 217.428 246.940,218.275 246.400,218.620 246.400 C 218.965 246.400,219.136 246.220,219.000 246.000 C 218.864 245.780,218.994 245.600,219.288 245.600 C 219.583 245.600,220.083 245.240,220.400 244.800 C 220.717 244.360,221.115 244.000,221.284 244.000 C 222.073 244.000,244.000 222.073,244.000 221.284 C 244.000 221.115,244.360 220.717,244.800 220.400 C 245.240 220.083,245.600 219.583,245.600 219.288 C 245.600 218.994,245.780 218.864,246.000 219.000 C 246.220 219.136,246.400 218.965,246.400 218.620 C 246.400 218.275,246.940 217.428,247.600 216.737 C 248.260 216.046,248.800 215.304,248.800 215.088 C 248.800 214.871,249.116 214.403,249.503 214.047 C 249.889 213.691,250.460 212.905,250.770 212.300 C 251.081 211.695,251.485 211.200,251.668 211.200 C 251.850 211.200,252.000 210.855,252.000 210.433 C 252.000 210.012,252.135 209.607,252.300 209.533 C 252.787 209.317,254.400 206.874,254.400 206.354 C 254.400 206.091,254.818 205.319,255.329 204.638 C 255.841 203.957,256.375 203.085,256.517 202.700 C 256.659 202.315,256.980 202.000,257.230 202.000 C 257.481 202.000,257.587 201.743,257.467 201.429 C 257.346 201.115,257.505 200.645,257.819 200.384 C 258.134 200.123,258.300 199.762,258.189 199.582 C 258.078 199.402,258.170 199.142,258.393 199.004 C 258.617 198.866,258.800 198.403,258.800 197.976 C 258.800 197.549,258.980 197.200,259.200 197.200 C 259.420 197.200,259.600 196.840,259.600 196.400 C 259.600 195.960,259.780 195.600,260.000 195.600 C 260.220 195.600,260.400 195.240,260.400 194.800 C 260.400 194.360,260.580 194.000,260.800 194.000 C 261.020 194.000,261.200 193.640,261.200 193.200 C 261.200 192.760,261.380 192.400,261.600 192.400 C 261.820 192.400,262.000 192.040,262.000 191.600 C 262.000 191.160,262.180 190.800,262.400 190.800 C 262.620 190.800,262.800 190.260,262.800 189.600 C 262.800 188.940,262.980 188.400,263.200 188.400 C 263.420 188.400,263.600 188.051,263.600 187.624 C 263.600 187.197,263.780 186.736,264.000 186.600 C 264.220 186.464,264.400 186.003,264.400 185.576 C 264.400 185.149,264.580 184.800,264.800 184.800 C 265.020 184.800,265.200 184.260,265.200 183.600 C 265.200 182.940,265.380 182.400,265.600 182.400 C 265.820 182.400,266.000 181.860,266.000 181.200 C 266.000 180.540,266.180 180.000,266.400 180.000 C 266.620 180.000,266.800 179.561,266.800 179.024 C 266.800 178.487,266.980 177.936,267.200 177.800 C 267.420 177.664,267.600 177.023,267.600 176.376 C 267.600 175.729,267.780 175.200,268.000 175.200 C 268.220 175.200,268.400 174.480,268.400 173.600 C 268.400 172.720,268.580 172.000,268.800 172.000 C 269.020 172.000,269.200 171.370,269.200 170.600 C 269.200 169.830,269.380 169.200,269.600 169.200 C 269.820 169.200,270.000 168.491,270.000 167.624 C 270.000 166.757,270.180 165.936,270.400 165.800 C 270.620 165.664,270.800 164.753,270.800 163.776 C 270.800 162.799,270.952 162.000,271.137 162.000 C 271.322 162.000,271.512 160.785,271.559 159.300 C 271.606 157.815,271.814 156.540,272.022 156.467 C 272.230 156.393,272.400 155.279,272.400 153.990 C 272.400 152.702,272.555 151.552,272.743 151.435 C 272.932 151.318,273.121 148.309,273.163 144.748 C 273.205 141.187,273.425 137.928,273.651 137.505 C 273.877 137.083,273.924 136.437,273.756 136.069 C 273.588 135.701,273.306 132.250,273.130 128.400 C 272.752 120.119,272.457 117.137,271.963 116.620 C 271.763 116.411,271.600 115.117,271.600 113.744 C 271.600 112.371,271.420 111.136,271.200 111.000 C 270.980 110.864,270.800 109.964,270.800 109.000 C 270.800 108.036,270.620 107.136,270.400 107.000 C 270.180 106.864,270.000 106.144,270.000 105.400 C 270.000 104.656,269.820 103.936,269.600 103.800 C 269.380 103.664,269.200 102.933,269.200 102.176 C 269.200 101.419,269.020 100.800,268.800 100.800 C 268.580 100.800,268.400 100.080,268.400 99.200 C 268.400 98.320,268.220 97.600,268.000 97.600 C 267.780 97.600,267.600 97.071,267.600 96.424 C 267.600 95.777,267.420 95.136,267.200 95.000 C 266.980 94.864,266.800 94.313,266.800 93.776 C 266.800 93.239,266.620 92.800,266.400 92.800 C 266.180 92.800,266.000 92.361,266.000 91.824 C 266.000 91.287,265.820 90.736,265.600 90.600 C 265.380 90.464,265.200 89.924,265.200 89.400 C 265.200 88.876,265.020 88.336,264.800 88.200 C 264.580 88.064,264.400 87.603,264.400 87.176 C 264.400 86.749,264.220 86.400,264.000 86.400 C 263.780 86.400,263.600 85.961,263.600 85.424 C 263.600 84.887,263.420 84.336,263.200 84.200 C 262.980 84.064,262.800 83.528,262.800 83.010 C 262.800 82.491,262.665 82.007,262.500 81.933 C 262.076 81.745,259.600 76.801,259.600 76.144 C 259.600 75.845,259.420 75.600,259.200 75.600 C 258.980 75.600,258.800 75.324,258.800 74.987 C 258.800 74.284,257.059 70.713,255.949 69.138 C 255.537 68.554,255.200 67.804,255.200 67.472 C 255.200 67.139,255.065 66.807,254.900 66.733 C 254.443 66.530,253.011 64.358,252.373 62.900 C 252.061 62.185,251.669 61.600,251.502 61.600 C 251.336 61.600,251.200 61.330,251.200 61.000 C 251.200 60.670,251.020 60.400,250.800 60.400 C 250.580 60.400,250.400 60.170,250.400 59.888 C 250.400 59.607,250.040 59.117,249.600 58.800 C 249.160 58.483,248.800 57.993,248.800 57.712 C 248.800 57.430,248.620 57.200,248.400 57.200 C 248.180 57.200,248.000 56.970,248.000 56.688 C 248.000 56.407,247.640 55.917,247.200 55.600 C 246.760 55.283,246.400 54.820,246.400 54.571 C 246.400 54.322,245.860 53.554,245.200 52.863 C 244.540 52.172,243.999 51.471,243.998 51.304 C 243.997 51.137,243.502 50.459,242.898 49.798 C 242.294 49.138,241.091 47.716,240.225 46.640 C 238.402 44.375,228.162 34.089,226.845 33.200 C 226.356 32.870,225.021 31.734,223.878 30.675 C 222.735 29.617,221.125 28.368,220.300 27.902 C 219.475 27.435,218.800 26.906,218.800 26.726 C 218.800 26.547,218.618 26.400,218.396 26.400 C 218.174 26.400,217.428 25.860,216.737 25.200 C 216.046 24.540,215.278 24.000,215.029 24.000 C 214.780 24.000,214.317 23.640,214.000 23.200 C 213.683 22.760,213.103 22.400,212.712 22.400 C 212.320 22.400,212.000 22.220,212.000 22.000 C 212.000 21.780,211.719 21.600,211.376 21.600 C 211.033 21.600,210.864 21.420,211.000 21.200 C 211.136 20.980,210.877 20.800,210.424 20.800 C 209.971 20.800,209.600 20.620,209.600 20.400 C 209.600 20.180,209.330 20.000,209.000 20.000 C 208.670 20.000,208.400 19.820,208.400 19.600 C 208.400 19.380,208.130 19.200,207.800 19.200 C 207.470 19.200,207.200 19.064,207.200 18.898 C 207.200 18.731,206.615 18.336,205.900 18.020 C 205.185 17.703,204.251 17.120,203.825 16.722 C 203.398 16.325,202.813 16.000,202.525 16.000 C 202.236 16.000,202.000 15.820,202.000 15.600 C 202.000 15.380,201.746 15.200,201.434 15.200 C 201.123 15.200,199.818 14.679,198.534 14.042 C 191.940 10.770,190.229 10.000,189.546 10.000 C 189.136 10.000,188.800 9.820,188.800 9.600 C 188.800 9.380,188.260 9.200,187.600 9.200 C 186.940 9.200,186.400 9.020,186.400 8.800 C 186.400 8.580,185.860 8.400,185.200 8.400 C 184.540 8.400,184.000 8.253,184.000 8.072 C 184.000 7.892,183.089 7.496,181.975 7.193 C 180.861 6.890,179.860 6.497,179.751 6.321 C 179.642 6.144,179.113 6.000,178.576 6.000 C 178.039 6.000,177.600 5.820,177.600 5.600 C 177.600 5.380,176.970 5.200,176.200 5.200 C 175.430 5.200,174.800 5.020,174.800 4.800 C 174.800 4.580,174.181 4.400,173.424 4.400 C 172.667 4.400,171.936 4.220,171.800 4.000 C 171.664 3.780,170.933 3.600,170.176 3.600 C 169.419 3.600,168.800 3.420,168.800 3.200 C 168.800 2.980,168.181 2.800,167.424 2.800 C 166.667 2.800,165.936 2.620,165.800 2.400 C 165.664 2.180,164.584 2.000,163.400 2.000 C 162.216 2.000,161.136 1.820,161.000 1.600 C 160.864 1.380,159.773 1.200,158.576 1.200 C 157.379 1.200,156.400 1.050,156.400 0.867 C 156.400 0.210,123.622 -0.152,119.000 0.453 M150.600 27.934 C 152.959 28.339,157.143 29.010,160.103 29.457 C 160.929 29.582,161.705 29.845,161.826 30.042 C 161.948 30.239,162.429 30.400,162.895 30.400 C 163.362 30.400,164.296 30.568,164.972 30.773 C 165.647 30.978,167.010 31.356,168.000 31.612 C 168.990 31.868,170.113 32.240,170.495 32.439 C 170.877 32.638,171.464 32.800,171.800 32.800 C 172.136 32.800,172.723 32.959,173.105 33.153 C 174.310 33.766,176.586 34.687,179.200 35.618 C 180.610 36.121,186.518 39.010,191.038 41.406 C 193.282 42.596,201.938 48.210,202.400 48.775 C 202.510 48.910,204.490 50.566,206.800 52.455 C 211.060 55.939,217.200 62.049,217.200 62.805 C 217.200 63.032,217.892 63.979,218.739 64.909 C 231.164 78.564,241.456 100.604,243.996 119.000 C 244.269 120.980,244.667 123.305,244.880 124.166 C 245.386 126.215,245.389 146.575,244.883 148.620 C 244.669 149.489,244.269 151.820,243.996 153.800 C 243.347 158.493,240.827 168.492,239.207 172.800 C 238.504 174.670,237.788 176.650,237.616 177.200 C 234.102 188.447,219.873 208.318,207.773 218.878 C 200.080 225.591,183.739 235.609,177.200 237.621 C 176.650 237.790,174.670 238.504,172.800 239.207 C 168.492 240.827,158.493 243.347,153.800 243.996 C 151.820 244.269,149.489 244.669,148.620 244.883 C 146.575 245.389,126.215 245.386,124.166 244.880 C 123.305 244.667,120.980 244.269,119.000 243.996 C 100.604 241.456,78.564 231.164,64.909 218.739 C 63.979 217.892,63.063 217.200,62.873 217.200 C 62.465 217.200,55.031 209.707,53.127 207.376 C 52.397 206.483,51.260 205.060,50.600 204.214 C 49.940 203.367,49.024 202.208,48.565 201.637 C 47.549 200.374,43.600 194.506,43.600 194.259 C 43.600 194.161,42.849 192.848,41.931 191.341 C 40.082 188.303,35.200 178.374,35.200 177.650 C 35.200 177.397,35.041 176.877,34.847 176.495 C 34.371 175.560,33.782 174.093,33.200 172.400 C 32.936 171.630,32.578 170.640,32.405 170.200 C 32.115 169.461,31.607 167.658,30.995 165.200 C 30.858 164.650,30.565 163.570,30.343 162.800 C 29.557 160.071,29.208 158.258,27.917 150.200 C 27.247 146.018,27.263 126.096,27.940 122.200 C 28.207 120.660,28.584 118.410,28.778 117.200 C 29.556 112.331,29.722 111.572,30.054 111.367 C 30.244 111.249,30.400 110.771,30.400 110.305 C 30.400 109.838,30.568 108.904,30.773 108.228 C 30.978 107.553,31.359 106.190,31.618 105.200 C 31.878 104.210,32.233 103.040,32.407 102.600 C 32.580 102.160,33.114 100.720,33.593 99.400 C 34.072 98.080,34.630 96.687,34.832 96.305 C 35.034 95.923,35.200 95.428,35.200 95.204 C 35.200 94.686,40.445 83.922,41.731 81.800 C 45.135 76.186,46.225 74.534,48.623 71.353 C 54.838 63.107,63.120 54.824,71.353 48.621 C 74.534 46.225,76.187 45.134,81.800 41.731 C 83.922 40.445,94.686 35.200,95.204 35.200 C 95.428 35.200,95.923 35.034,96.305 34.832 C 96.687 34.630,98.080 34.072,99.400 33.593 C 100.720 33.114,102.160 32.580,102.600 32.407 C 103.040 32.233,104.210 31.878,105.200 31.618 C 106.190 31.359,107.553 30.978,108.228 30.773 C 108.904 30.568,109.838 30.400,110.305 30.400 C 110.771 30.400,111.249 30.244,111.367 30.054 C 111.484 29.864,112.350 29.578,113.290 29.419 C 116.689 28.843,119.451 28.419,122.117 28.063 C 123.611 27.863,124.956 27.577,125.105 27.428 C 125.516 27.018,147.845 27.461,150.600 27.934 M236.969 246.548 C 235.223 247.189,232.506 249.054,232.035 249.934 C 231.566 250.810,244.315 263.763,245.278 263.389 C 245.565 263.278,247.780 261.194,250.200 258.757 L 254.600 254.327 251.278 251.165 C 246.233 246.364,241.568 244.858,236.969 246.548 " stroke="none" fill="#c5d4e4" fill-rule="evenodd"></path><path id="path1" d="M278.400 241.500 C 278.400 241.669,278.760 242.032,279.200 242.307 C 279.640 242.582,280.000 242.669,280.000 242.500 C 280.000 242.331,279.640 241.968,279.200 241.693 C 278.760 241.418,278.400 241.331,278.400 241.500 M264.795 242.807 C 264.492 243.227,263.964 243.627,263.622 243.695 C 263.238 243.771,263.163 243.921,263.425 244.087 C 263.659 244.234,264.343 243.931,264.945 243.413 C 265.548 242.896,265.884 242.376,265.693 242.258 C 265.502 242.139,265.098 242.387,264.795 242.807 M281.200 243.819 C 281.200 244.144,283.344 245.973,283.742 245.987 C 283.931 245.994,283.507 245.460,282.800 244.800 C 281.516 243.601,281.200 243.407,281.200 243.819 M286.000 248.093 C 286.000 248.459,287.817 250.214,289.800 251.764 L 291.800 253.326 289.600 251.159 C 287.262 248.856,286.000 247.781,286.000 248.093 M296.800 258.197 C 297.130 258.636,297.760 259.291,298.200 259.652 C 298.640 260.014,300.529 261.756,302.399 263.523 C 304.268 265.290,305.864 266.669,305.946 266.588 C 306.148 266.385,299.037 259.571,296.984 258.000 C 296.239 257.430,296.230 257.440,296.800 258.197 M242.926 264.584 C 242.445 265.098,242.152 265.618,242.274 265.740 C 242.497 265.964,242.939 265.583,243.949 264.298 C 244.759 263.269,243.943 263.496,242.926 264.584 M307.200 267.760 C 307.200 268.150,311.703 272.430,311.903 272.230 C 311.999 272.134,311.290 271.279,310.327 270.328 C 308.228 268.255,307.200 267.411,307.200 267.760 M257.680 269.795 C 256.174 270.496,253.945 272.359,249.992 276.222 C 246.930 279.214,244.256 281.558,244.049 281.431 C 243.839 281.300,243.771 281.567,243.894 282.040 C 244.119 282.899,246.747 285.766,254.700 293.829 C 257.175 296.338,259.200 298.481,259.200 298.591 C 259.200 299.315,267.248 307.896,269.139 309.188 C 269.613 309.512,270.000 309.998,270.000 310.268 C 270.000 310.539,270.315 310.944,270.700 311.168 C 271.085 311.392,271.262 311.581,271.094 311.588 C 270.926 311.595,272.276 313.121,274.094 314.979 C 275.912 316.838,278.030 319.080,278.800 319.961 C 279.570 320.842,280.436 321.571,280.724 321.582 C 281.012 321.592,281.143 321.768,281.016 321.974 C 280.889 322.179,282.909 324.480,285.504 327.087 C 288.099 329.694,290.666 332.450,291.208 333.213 C 292.833 335.497,297.970 340.911,299.518 341.971 C 299.977 342.285,300.318 342.735,300.276 342.971 C 300.234 343.207,300.438 343.351,300.730 343.290 C 301.021 343.230,301.153 343.353,301.022 343.565 C 300.891 343.776,302.215 345.395,303.963 347.162 C 305.834 349.054,307.223 350.175,307.339 349.888 C 307.448 349.619,307.551 349.790,307.568 350.267 C 307.586 350.743,307.735 351.193,307.900 351.267 C 308.065 351.340,308.733 352.120,309.385 353.000 C 311.703 356.128,314.517 358.857,314.863 358.312 C 315.098 357.941,315.189 358.001,315.194 358.529 C 315.201 359.426,316.127 360.400,316.971 360.400 C 317.353 360.400,317.605 360.754,317.613 361.300 C 317.627 362.329,318.657 363.876,319.060 363.473 C 319.208 363.326,319.030 362.875,318.664 362.471 C 318.299 362.067,318.000 361.592,318.000 361.415 C 318.000 361.237,318.372 361.565,318.826 362.142 C 319.280 362.720,319.539 363.375,319.400 363.599 C 319.262 363.823,319.418 364.275,319.746 364.603 C 320.419 365.276,320.975 365.407,320.603 364.805 C 320.460 364.573,320.630 364.514,321.013 364.660 C 321.503 364.848,321.542 364.988,321.169 365.219 C 320.784 365.457,320.816 365.673,321.307 366.164 C 322.136 366.993,322.431 366.970,322.145 366.100 C 322.019 365.715,322.263 365.896,322.688 366.503 C 323.113 367.110,323.582 367.485,323.730 367.337 C 323.879 367.188,324.000 367.262,324.000 367.500 C 324.000 367.738,323.775 368.024,323.500 368.135 C 323.225 368.246,323.383 368.351,323.852 368.368 C 324.734 368.401,331.421 375.112,330.996 375.537 C 330.659 375.874,328.804 373.734,329.124 373.379 C 329.276 373.210,329.186 373.194,328.925 373.344 C 328.663 373.494,328.272 373.300,328.055 372.912 C 327.838 372.524,327.566 372.301,327.451 372.416 C 327.336 372.531,328.312 373.764,329.621 375.156 C 330.929 376.548,332.000 377.524,332.000 377.324 C 332.000 377.124,331.784 376.744,331.520 376.480 C 331.237 376.197,331.209 376.000,331.450 376.000 C 332.272 376.000,333.628 377.859,333.374 378.638 C 333.200 379.170,333.237 379.244,333.496 378.883 C 333.885 378.342,342.000 386.369,342.000 387.295 C 342.000 387.540,341.583 387.348,341.074 386.870 C 339.789 385.662,339.337 385.773,340.560 386.996 C 341.152 387.588,341.808 387.895,342.178 387.753 C 342.914 387.471,343.028 388.229,342.300 388.563 C 342.025 388.689,342.205 388.692,342.700 388.569 C 343.644 388.335,343.962 388.967,343.100 389.363 C 342.825 389.489,342.993 389.496,343.474 389.378 C 344.324 389.168,344.627 389.346,347.134 391.528 C 354.397 397.850,365.542 401.034,372.768 398.851 C 373.555 398.613,375.190 398.167,376.400 397.861 C 379.047 397.190,384.298 394.873,385.375 393.900 C 385.802 393.515,386.298 393.200,386.479 393.200 C 387.300 393.200,393.200 387.300,393.200 386.479 C 393.200 386.298,393.515 385.802,393.900 385.375 C 394.878 384.292,397.194 379.036,397.855 376.400 C 398.158 375.190,398.591 373.631,398.816 372.936 C 399.439 371.016,399.819 358.400,399.254 358.400 C 399.004 358.400,398.800 357.860,398.800 357.200 C 398.800 356.540,398.620 356.000,398.400 356.000 C 398.180 356.000,398.000 355.640,398.000 355.200 C 398.000 354.760,397.820 354.400,397.600 354.400 C 397.380 354.400,397.200 354.040,397.200 353.600 C 397.200 353.160,397.020 352.800,396.800 352.800 C 396.580 352.800,396.400 352.536,396.400 352.214 C 396.400 351.892,396.040 351.435,395.600 351.200 C 395.160 350.965,394.800 350.412,394.800 349.973 C 394.800 349.518,394.412 349.018,393.900 348.812 C 393.333 348.584,393.222 348.427,393.600 348.385 C 393.930 348.350,393.750 348.187,393.200 348.025 C 392.650 347.862,392.252 347.498,392.317 347.215 C 392.453 346.613,387.816 341.918,387.448 342.285 C 387.312 342.422,387.200 342.223,387.200 341.843 C 387.200 341.463,387.020 341.264,386.800 341.400 C 386.580 341.536,386.400 341.448,386.400 341.205 C 386.400 340.605,384.546 338.788,384.242 339.091 C 384.109 339.224,384.000 339.115,384.000 338.847 C 384.000 338.580,383.505 337.926,382.900 337.393 C 381.001 335.722,381.067 336.316,382.992 338.213 C 384.004 339.210,384.732 340.186,384.611 340.382 C 384.490 340.578,385.366 342.597,386.559 344.869 C 394.353 359.719,390.630 371.703,378.200 371.778 C 371.638 371.818,376.208 375.894,321.000 320.770 C 294.160 293.971,271.724 271.676,271.141 271.226 C 267.720 268.579,261.672 267.936,257.680 269.795 M317.602 277.425 C 317.604 277.631,318.633 278.700,319.890 279.800 C 321.147 280.900,322.553 282.160,323.015 282.600 C 324.662 284.169,325.248 284.577,324.962 283.957 C 324.821 283.650,323.475 282.320,321.971 281.000 C 320.466 279.680,318.867 278.251,318.418 277.825 C 317.968 277.398,317.601 277.218,317.602 277.425 M328.400 287.317 C 328.400 287.627,332.964 291.969,333.123 291.810 C 333.196 291.737,332.468 290.895,331.505 289.939 C 329.466 287.914,328.400 287.014,328.400 287.317 M335.200 293.760 C 335.200 294.104,338.103 296.800,338.473 296.800 C 338.689 296.800,338.116 296.080,337.200 295.200 C 335.632 293.693,335.200 293.382,335.200 293.760 M339.580 298.071 C 340.026 298.550,340.515 298.818,340.667 298.667 C 340.818 298.515,340.595 298.129,340.171 297.809 C 339.010 296.930,338.662 297.085,339.580 298.071 M341.200 299.124 C 341.200 299.548,342.745 300.997,342.949 300.764 C 343.028 300.674,342.667 300.189,342.146 299.686 C 341.626 299.183,341.200 298.930,341.200 299.124 M351.600 308.779 C 351.600 309.007,352.174 309.690,352.876 310.297 C 353.579 310.904,354.894 312.120,355.800 313.000 C 357.782 314.926,358.800 315.771,358.800 315.489 C 358.800 315.374,357.604 314.137,356.143 312.740 C 354.682 311.343,353.062 309.787,352.543 309.282 C 352.024 308.777,351.600 308.550,351.600 308.779 M360.400 317.102 C 360.400 317.322,360.670 317.726,361.000 318.000 C 361.335 318.278,361.600 318.321,361.600 318.098 C 361.600 317.878,361.330 317.474,361.000 317.200 C 360.665 316.922,360.400 316.879,360.400 317.102 M362.000 318.623 C 362.000 318.942,365.771 322.363,365.938 322.195 C 366.098 322.035,362.528 318.400,362.211 318.400 C 362.095 318.400,362.000 318.500,362.000 318.623 M372.626 328.524 C 372.893 329.219,375.200 330.954,375.200 330.459 C 375.200 330.259,374.573 329.617,373.807 329.032 C 373.040 328.448,372.509 328.219,372.626 328.524 M379.002 334.802 C 379.402 335.244,379.811 335.522,379.912 335.421 C 380.128 335.205,378.988 334.000,378.567 334.000 C 378.407 334.000,378.603 334.361,379.002 334.802 M336.051 382.293 C 337.088 383.602,338.449 384.885,338.619 384.715 C 338.831 384.502,336.201 381.600,335.797 381.600 C 335.635 381.600,335.749 381.912,336.051 382.293 M392.667 388.867 C 392.103 389.587,391.714 390.248,391.802 390.335 C 392.031 390.565,393.200 389.333,393.200 388.862 C 393.200 388.645,393.425 388.386,393.700 388.288 C 393.975 388.190,394.085 387.985,393.946 387.834 C 393.806 387.682,393.230 388.147,392.667 388.867 M388.775 392.792 C 388.019 393.439,387.625 393.975,387.900 393.984 C 388.175 393.993,388.400 393.820,388.400 393.600 C 388.400 393.380,388.593 393.200,388.829 393.200 C 389.339 393.200,390.570 392.037,390.323 391.789 C 390.228 391.694,389.531 392.146,388.775 392.792 M347.211 393.477 C 347.755 393.849,348.325 394.339,348.478 394.565 C 348.631 394.792,348.866 394.868,348.999 394.734 C 349.286 394.448,347.290 392.800,346.657 392.800 C 346.418 392.800,346.667 393.105,347.211 393.477 " stroke="none" fill="#a45424" fill-rule="evenodd"></path><path id="path2" d="M268.146 240.875 C 267.171 241.494,266.188 242.000,265.963 242.000 C 265.737 242.000,265.640 242.141,265.747 242.313 C 265.853 242.486,265.414 243.046,264.770 243.558 C 264.127 244.071,263.600 244.700,263.600 244.957 C 263.600 245.213,259.415 249.523,254.300 254.534 C 243.206 265.403,242.547 266.013,242.239 265.705 C 242.107 265.574,242.000 265.681,242.000 265.942 C 242.000 266.203,241.511 267.156,240.913 268.059 C 239.842 269.679,239.078 275.600,239.940 275.600 C 240.111 275.600,240.498 276.230,240.800 277.000 C 241.102 277.770,241.496 278.400,241.675 278.400 C 241.854 278.400,242.000 278.626,242.000 278.901 C 242.000 279.177,242.542 279.914,243.205 280.540 L 244.410 281.677 249.984 276.229 C 257.724 268.666,262.214 267.034,268.208 269.604 C 271.027 270.812,268.909 268.759,321.000 320.770 C 376.208 375.894,371.638 371.818,378.200 371.778 C 390.617 371.703,394.352 359.718,386.576 344.901 C 385.393 342.646,384.528 340.531,384.655 340.201 C 384.782 339.870,384.676 339.600,384.419 339.600 C 384.163 339.600,384.067 339.416,384.206 339.190 C 384.345 338.965,384.311 338.818,384.130 338.864 C 383.506 339.023,375.730 331.729,375.900 331.144 C 375.955 330.955,375.770 330.800,375.489 330.800 C 374.852 330.800,372.400 328.596,372.400 328.023 C 372.400 327.790,372.265 327.645,372.100 327.700 C 371.935 327.755,371.423 327.440,370.962 327.000 C 369.761 325.853,363.965 320.588,362.900 319.676 C 362.405 319.253,362.000 318.702,362.000 318.453 C 362.000 318.204,361.838 318.045,361.640 318.100 C 361.442 318.155,360.947 317.881,360.540 317.491 C 356.607 313.725,353.942 311.224,352.919 310.338 C 352.244 309.754,351.626 309.107,351.546 308.901 C 351.466 308.696,350.590 307.909,349.600 307.153 C 348.610 306.397,346.200 304.209,344.244 302.290 C 342.288 300.370,340.558 298.800,340.400 298.800 C 340.242 298.800,339.774 298.350,339.361 297.800 C 338.948 297.250,338.509 296.800,338.384 296.800 C 337.904 296.800,331.406 290.313,331.510 289.938 C 331.570 289.719,331.469 289.634,331.285 289.748 C 331.100 289.862,329.922 288.975,328.665 287.777 C 327.409 286.580,326.315 285.600,326.234 285.600 C 326.153 285.600,325.199 284.745,324.114 283.700 C 323.030 282.655,320.187 280.000,317.797 277.800 C 315.407 275.600,313.175 273.485,312.837 273.100 C 312.499 272.715,312.109 272.400,311.970 272.400 C 311.832 272.400,310.372 271.095,308.727 269.500 C 306.177 267.028,301.841 262.978,296.668 258.238 C 295.971 257.599,294.127 255.889,292.572 254.438 C 279.390 242.143,278.781 241.613,276.872 240.768 C 276.172 240.458,275.600 240.082,275.600 239.933 C 275.600 239.069,269.848 239.796,268.146 240.875 M318.000 361.383 C 318.000 361.543,318.360 362.131,318.800 362.691 C 319.240 363.250,319.600 363.577,319.600 363.417 C 319.600 363.257,319.240 362.669,318.800 362.109 C 318.360 361.550,318.000 361.223,318.000 361.383 M399.624 363.400 C 399.357 369.581,399.193 371.502,398.820 372.800 C 398.599 373.570,398.167 375.190,397.861 376.400 C 397.190 379.047,394.873 384.298,393.900 385.375 C 393.515 385.802,393.200 386.298,393.200 386.479 C 393.200 387.300,387.300 393.200,386.479 393.200 C 386.298 393.200,385.802 393.515,385.375 393.900 C 384.298 394.873,379.047 397.190,376.400 397.861 C 375.190 398.167,373.555 398.613,372.768 398.851 C 365.542 401.034,354.397 397.850,347.134 391.528 C 345.012 389.682,344.386 389.200,344.095 389.191 C 343.933 389.187,343.260 388.531,342.600 387.735 C 341.940 386.939,339.763 384.558,337.762 382.444 C 335.761 380.330,333.571 377.970,332.895 377.200 C 332.219 376.430,331.555 375.911,331.420 376.047 C 331.285 376.182,332.080 377.218,333.187 378.348 C 334.294 379.479,335.200 380.506,335.200 380.630 C 335.200 381.607,348.946 394.800,349.963 394.800 C 350.203 394.800,350.400 394.947,350.400 395.126 C 350.400 395.305,351.075 395.814,351.900 396.256 C 352.725 396.698,353.760 397.260,354.200 397.504 C 354.640 397.747,355.843 398.175,356.874 398.453 C 357.905 398.732,358.688 399.059,358.614 399.180 C 357.387 401.181,377.720 399.676,381.800 397.464 C 382.240 397.225,382.735 397.068,382.900 397.115 C 383.065 397.162,383.200 397.020,383.200 396.800 C 383.200 396.580,383.470 396.400,383.800 396.400 C 384.130 396.400,384.400 396.220,384.400 396.000 C 384.400 395.780,384.633 395.600,384.917 395.600 C 386.471 395.600,395.600 386.471,395.600 384.917 C 395.600 384.633,395.780 384.400,396.000 384.400 C 396.220 384.400,396.400 384.130,396.400 383.800 C 396.400 383.470,396.610 383.200,396.867 383.200 C 397.123 383.200,397.215 383.082,397.070 382.937 C 396.925 382.792,396.985 382.459,397.203 382.196 C 399.214 379.774,400.698 368.881,399.900 362.400 C 399.776 361.386,399.699 361.662,399.624 363.400 M322.003 365.811 C 321.999 366.406,323.179 368.000,323.623 368.000 C 323.830 368.000,324.000 367.790,324.000 367.533 C 324.000 367.277,323.879 367.188,323.730 367.337 C 323.582 367.485,323.133 367.110,322.733 366.503 C 322.333 365.896,322.004 365.585,322.003 365.811 M325.557 370.052 C 328.718 373.673,330.780 375.753,330.994 375.539 C 331.242 375.291,324.885 368.400,324.409 368.400 C 324.247 368.400,324.764 369.144,325.557 370.052 " stroke="none" fill="#b5642b" fill-rule="evenodd"></path><path id="path3" d="M125.400 28.057 C 123.860 28.249,121.832 28.585,120.894 28.803 C 119.956 29.021,118.606 29.206,117.894 29.214 C 117.182 29.222,115.520 29.506,114.200 29.844 C 112.880 30.183,111.170 30.609,110.400 30.791 C 108.002 31.359,104.246 32.398,103.200 32.784 C 102.650 32.986,100.400 33.812,98.200 34.619 C 93.555 36.323,83.359 41.183,80.928 42.852 C 80.008 43.483,79.063 44.000,78.828 44.000 C 78.593 44.000,78.400 44.168,78.400 44.373 C 78.400 44.578,78.041 44.860,77.603 44.999 C 76.635 45.306,68.707 51.253,65.437 54.125 C 64.137 55.266,62.440 56.740,61.666 57.400 C 59.524 59.226,58.575 60.246,53.094 66.610 C 50.858 69.208,45.245 76.830,44.999 77.603 C 44.860 78.041,44.578 78.400,44.373 78.400 C 44.168 78.400,44.000 78.593,44.000 78.828 C 44.000 79.063,43.483 80.008,42.852 80.928 C 41.495 82.904,36.397 93.324,35.267 96.430 C 34.832 97.623,34.016 99.860,33.452 101.400 C 32.490 104.028,31.561 107.168,30.788 110.400 C 30.604 111.170,30.259 112.520,30.021 113.400 C 29.599 114.958,29.427 116.051,28.218 124.800 C 27.134 132.653,27.514 144.316,29.191 154.600 C 29.370 155.700,29.651 157.550,29.816 158.712 C 29.980 159.873,30.269 160.919,30.457 161.035 C 30.646 161.152,30.800 161.678,30.800 162.205 C 30.800 162.731,30.961 163.576,31.158 164.081 C 31.355 164.587,31.739 165.810,32.010 166.800 C 32.470 168.478,33.340 171.039,35.269 176.400 C 36.221 179.048,39.899 187.002,40.818 188.400 C 41.179 188.950,41.727 189.985,42.035 190.700 C 42.343 191.415,42.731 192.000,42.898 192.000 C 43.064 192.000,43.200 192.187,43.200 192.415 C 43.200 192.864,47.292 199.065,49.476 201.927 C 53.454 207.139,60.000 214.541,60.000 213.827 C 60.000 213.723,58.491 211.424,56.646 208.719 C 52.775 203.043,52.391 202.388,48.820 195.400 C 43.218 184.436,39.560 173.548,38.002 163.200 C 37.753 161.550,37.359 159.120,37.125 157.800 C 36.575 154.688,36.574 136.115,37.125 133.000 C 37.358 131.680,37.756 129.250,38.009 127.600 C 44.863 82.906,82.906 44.863,127.600 38.009 C 129.250 37.756,131.680 37.358,133.000 37.125 C 136.115 36.574,154.688 36.575,157.800 37.125 C 159.120 37.359,161.550 37.753,163.200 38.002 C 179.007 40.381,198.286 48.621,211.558 58.669 C 216.964 62.763,210.508 55.972,204.400 51.141 C 200.232 47.844,192.269 42.400,191.613 42.400 C 191.386 42.400,191.200 42.220,191.200 42.000 C 191.200 41.780,190.855 41.600,190.433 41.600 C 190.012 41.600,189.607 41.457,189.533 41.282 C 189.400 40.963,182.056 37.267,179.800 36.383 C 174.644 34.364,169.582 32.599,166.600 31.781 C 159.230 29.760,157.266 29.386,148.000 28.237 C 142.574 27.564,130.151 27.466,125.400 28.057 " stroke="none" fill="#4c9cd4" fill-rule="evenodd"></path><path id="path4" d="M125.105 27.428 C 124.956 27.577,123.611 27.863,122.117 28.063 C 119.451 28.419,116.689 28.843,113.290 29.419 C 112.350 29.578,111.484 29.864,111.367 30.054 C 111.249 30.244,110.771 30.400,110.305 30.400 C 109.838 30.400,108.904 30.568,108.228 30.773 C 107.553 30.978,106.190 31.359,105.200 31.618 C 104.210 31.878,103.040 32.233,102.600 32.407 C 102.160 32.580,100.720 33.114,99.400 33.593 C 98.080 34.072,96.687 34.630,96.305 34.832 C 95.923 35.034,95.428 35.200,95.204 35.200 C 94.686 35.200,83.922 40.445,81.800 41.731 C 76.187 45.134,74.534 46.225,71.353 48.621 C 63.120 54.824,54.838 63.107,48.623 71.353 C 46.225 74.534,45.135 76.186,41.731 81.800 C 40.445 83.922,35.200 94.686,35.200 95.204 C 35.200 95.428,35.034 95.923,34.832 96.305 C 34.630 96.687,34.072 98.080,33.593 99.400 C 33.114 100.720,32.580 102.160,32.407 102.600 C 32.233 103.040,31.878 104.210,31.618 105.200 C 31.359 106.190,30.978 107.553,30.773 108.228 C 30.568 108.904,30.400 109.838,30.400 110.305 C 30.400 110.771,30.244 111.249,30.054 111.367 C 29.722 111.572,29.556 112.331,28.778 117.200 C 28.584 118.410,28.207 120.660,27.940 122.200 C 27.263 126.096,27.247 146.018,27.917 150.200 C 29.208 158.258,29.557 160.071,30.343 162.800 C 30.565 163.570,30.858 164.650,30.995 165.200 C 31.607 167.658,32.115 169.461,32.405 170.200 C 32.578 170.640,32.936 171.630,33.200 172.400 C 33.782 174.093,34.371 175.560,34.847 176.495 C 35.041 176.877,35.200 177.397,35.200 177.650 C 35.200 178.374,40.082 188.303,41.931 191.341 C 42.849 192.848,43.600 194.161,43.600 194.259 C 43.600 194.506,47.549 200.374,48.565 201.637 C 49.024 202.208,49.940 203.367,50.600 204.214 C 51.260 205.060,52.397 206.483,53.127 207.376 C 55.031 209.707,62.465 217.200,62.873 217.200 C 63.063 217.200,63.979 217.892,64.909 218.739 C 78.564 231.164,100.604 241.456,119.000 243.996 C 120.980 244.269,123.305 244.667,124.166 244.880 C 126.215 245.386,146.575 245.389,148.620 244.883 C 149.489 244.669,151.820 244.269,153.800 243.996 C 158.493 243.347,168.492 240.827,172.800 239.207 C 174.670 238.504,176.650 237.790,177.200 237.621 C 183.739 235.609,200.080 225.591,207.773 218.878 C 219.873 208.318,234.102 188.447,237.616 177.200 C 237.788 176.650,238.504 174.670,239.207 172.800 C 240.827 168.492,243.347 158.493,243.996 153.800 C 244.269 151.820,244.669 149.489,244.883 148.620 C 245.389 146.575,245.386 126.215,244.880 124.166 C 244.667 123.305,244.269 120.980,243.996 119.000 C 241.456 100.604,231.164 78.564,218.739 64.909 C 217.892 63.979,217.200 63.032,217.200 62.805 C 217.200 62.049,211.060 55.939,206.800 52.455 C 204.490 50.566,202.510 48.910,202.400 48.775 C 201.938 48.210,193.282 42.596,191.038 41.406 C 186.518 39.010,180.610 36.121,179.200 35.618 C 176.586 34.687,174.310 33.766,173.105 33.153 C 172.723 32.959,172.136 32.800,171.800 32.800 C 171.464 32.800,170.877 32.638,170.495 32.439 C 170.113 32.240,168.990 31.868,168.000 31.612 C 167.010 31.356,165.647 30.978,164.972 30.773 C 164.296 30.568,163.362 30.400,162.895 30.400 C 162.429 30.400,161.948 30.239,161.826 30.042 C 161.705 29.845,160.929 29.582,160.103 29.457 C 157.143 29.010,152.959 28.339,150.600 27.934 C 147.845 27.461,125.516 27.018,125.105 27.428 M148.000 28.237 C 157.266 29.386,159.230 29.760,166.600 31.781 C 169.582 32.599,174.644 34.364,179.800 36.383 C 182.056 37.267,189.400 40.963,189.533 41.282 C 189.607 41.457,190.012 41.600,190.433 41.600 C 190.855 41.600,191.200 41.780,191.200 42.000 C 191.200 42.220,191.386 42.400,191.613 42.400 C 192.269 42.400,200.232 47.844,204.400 51.141 C 210.508 55.972,216.964 62.763,211.558 58.669 C 198.286 48.621,179.007 40.381,163.200 38.002 C 161.550 37.753,159.120 37.359,157.800 37.125 C 154.688 36.575,136.115 36.574,133.000 37.125 C 131.680 37.358,129.250 37.756,127.600 38.009 C 82.906 44.863,44.863 82.906,38.009 127.600 C 37.756 129.250,37.358 131.680,37.125 133.000 C 36.574 136.115,36.575 154.688,37.125 157.800 C 37.359 159.120,37.753 161.550,38.002 163.200 C 39.560 173.548,43.218 184.436,48.820 195.400 C 52.391 202.388,52.775 203.043,56.646 208.719 C 58.491 211.424,60.000 213.723,60.000 213.827 C 60.000 214.541,53.454 207.139,49.476 201.927 C 47.292 199.065,43.200 192.864,43.200 192.415 C 43.200 192.187,43.064 192.000,42.898 192.000 C 42.731 192.000,42.343 191.415,42.035 190.700 C 41.727 189.985,41.179 188.950,40.818 188.400 C 39.899 187.002,36.221 179.048,35.269 176.400 C 33.340 171.039,32.470 168.478,32.010 166.800 C 31.739 165.810,31.355 164.587,31.158 164.081 C 30.961 163.576,30.800 162.731,30.800 162.205 C 30.800 161.678,30.646 161.152,30.457 161.035 C 30.269 160.919,29.980 159.873,29.816 158.712 C 29.651 157.550,29.370 155.700,29.191 154.600 C 27.514 144.316,27.134 132.653,28.218 124.800 C 29.427 116.051,29.599 114.958,30.021 113.400 C 30.259 112.520,30.604 111.170,30.788 110.400 C 31.561 107.168,32.490 104.028,33.452 101.400 C 34.016 99.860,34.832 97.623,35.267 96.430 C 36.397 93.324,41.495 82.904,42.852 80.928 C 43.483 80.008,44.000 79.063,44.000 78.828 C 44.000 78.593,44.168 78.400,44.373 78.400 C 44.578 78.400,44.860 78.041,44.999 77.603 C 45.245 76.830,50.858 69.208,53.094 66.610 C 58.575 60.246,59.524 59.226,61.666 57.400 C 62.440 56.740,64.137 55.266,65.437 54.125 C 68.707 51.253,76.635 45.306,77.603 44.999 C 78.041 44.860,78.400 44.578,78.400 44.373 C 78.400 44.168,78.593 44.000,78.828 44.000 C 79.063 44.000,80.008 43.483,80.928 42.852 C 83.359 41.183,93.555 36.323,98.200 34.619 C 100.400 33.812,102.650 32.986,103.200 32.784 C 104.246 32.398,108.002 31.359,110.400 30.791 C 111.170 30.609,112.880 30.183,114.200 29.844 C 115.520 29.506,117.182 29.222,117.894 29.214 C 118.606 29.206,119.956 29.021,120.894 28.803 C 126.384 27.526,139.973 27.242,148.000 28.237 M239.400 226.281 C 237.640 228.190,234.749 231.203,232.976 232.976 C 231.203 234.749,228.190 237.640,226.281 239.400 C 223.314 242.134,221.858 243.829,223.174 243.016 C 223.380 242.889,224.398 243.643,225.436 244.692 C 226.474 245.742,227.476 246.555,227.662 246.500 C 227.848 246.445,227.955 246.625,227.900 246.900 C 227.845 247.175,228.025 247.355,228.300 247.300 C 228.575 247.245,228.755 247.346,228.700 247.525 C 228.645 247.703,229.139 248.423,229.799 249.125 C 230.983 250.384,232.000 250.785,232.000 249.992 C 232.000 248.456,237.568 246.015,241.088 246.006 C 245.102 245.996,255.208 252.601,254.146 254.540 C 254.007 254.793,256.078 252.843,258.747 250.206 C 261.416 247.570,263.600 245.169,263.600 244.872 C 263.600 244.257,259.004 239.600,258.397 239.600 C 258.179 239.600,258.045 239.375,258.100 239.100 C 258.155 238.825,257.975 238.645,257.700 238.700 C 257.425 238.755,257.245 238.663,257.300 238.496 C 257.355 238.329,254.160 234.899,250.200 230.874 C 246.240 226.849,243.045 223.386,243.100 223.178 C 243.349 222.238,242.371 223.058,239.400 226.281 " stroke="none" fill="#73b4e3" fill-rule="evenodd"></path></g></svg>