<?xml version="1.0" standalone="no"?>
<!DOCTYPE svg PUBLIC "-//W3C//DTD SVG 20010904//EN"
 "http://www.w3.org/TR/2001/REC-SVG-20010904/DTD/svg10.dtd">
<svg version="1.0" xmlns="http://www.w3.org/2000/svg"
 width="50.000000pt" height="50.000000pt" viewBox="0 0 50.000000 50.000000"
 preserveAspectRatio="xMidYMid meet">

<g transform="translate(0.000000,50.000000) scale(0.100000,-0.100000)"
fill="#FFFFFF" stroke="none">
<path d="M242 372 c-111 -47 -202 -90 -202 -94 0 -4 35 -25 78 -47 76 -38 77
-40 114 -115 21 -42 41 -76 46 -76 4 0 44 87 89 193 98 230 97 227 87 227 -5
-1 -100 -40 -212 -88z m56 -59 l-97 -97 -60 29 c-34 16 -59 31 -56 34 7 7 288
129 300 130 5 1 -34 -43 -87 -96z m51 -74 c-34 -79 -65 -147 -69 -152 -3 -4
-19 20 -35 53 l-29 61 94 94 c52 52 96 93 97 91 2 -2 -24 -68 -58 -147z"/>
</g>
</svg>
