<?xml version="1.0" standalone="no"?>
<!DOCTYPE svg PUBLIC "-//W3C//DTD SVG 20010904//EN"
 "http://www.w3.org/TR/2001/REC-SVG-20010904/DTD/svg10.dtd">
<svg version="1.0" xmlns="http://www.w3.org/2000/svg"
 width="512.000000pt" height="512.000000pt" viewBox="0 0 512.000000 512.000000"
 preserveAspectRatio="xMidYMid meet">

<g transform="translate(0.000000,512.000000) scale(0.100000,-0.100000)"
fill="#FFFFFF" stroke="none">
<path d="M3364 5100 c-110 -44 -173 -131 -195 -270 -6 -41 -17 -80 -23 -87 -6
-6 -39 -23 -74 -37 l-63 -27 -63 46 c-91 65 -140 85 -212 85 -106 0 -146 -20
-271 -142 -130 -128 -156 -174 -157 -278 0 -75 21 -130 83 -217 23 -31 41 -61
41 -67 0 -6 -12 -40 -26 -77 l-26 -67 -77 -12 c-140 -23 -214 -67 -266 -161
-29 -52 -30 -59 -33 -211 -4 -185 6 -230 69 -302 51 -57 123 -92 223 -108 l79
-12 29 -63 c15 -34 28 -70 28 -78 0 -9 -20 -44 -44 -78 -61 -86 -78 -131 -79
-207 -1 -99 32 -162 146 -275 97 -98 145 -128 226 -146 78 -17 146 2 243 67
45 30 87 54 94 54 6 0 41 -13 76 -29 l64 -28 12 -79 c16 -100 51 -172 108
-223 69 -60 113 -71 289 -71 149 0 153 0 213 31 102 51 148 124 172 270 l12
76 72 30 73 30 54 -39 c90 -66 155 -92 229 -92 104 1 150 27 278 157 122 125
142 165 142 271 0 71 -20 119 -84 212 l-45 63 25 63 c14 35 30 67 35 72 5 6
50 18 100 28 50 10 105 26 121 34 55 28 114 98 138 160 19 53 21 74 18 209 -3
134 -6 155 -27 199 -49 100 -119 146 -260 173 l-90 17 -27 63 c-15 35 -27 69
-27 76 0 7 22 46 50 87 28 41 56 92 63 113 16 52 9 162 -15 212 -24 52 -218
246 -270 270 -50 24 -160 31 -212 15 -21 -7 -72 -35 -113 -63 -41 -28 -80 -50
-87 -50 -7 0 -41 12 -76 27 l-63 27 -17 90 c-27 141 -73 211 -173 260 -44 22
-64 24 -204 26 -135 3 -162 0 -206 -17z m304 -249 c7 -4 22 -57 33 -117 33
-185 40 -196 157 -235 37 -12 103 -39 146 -61 125 -60 134 -57 330 84 21 15
46 28 55 28 21 0 161 -140 161 -161 0 -9 -13 -34 -28 -55 -141 -196 -144 -205
-84 -330 22 -43 49 -109 61 -146 39 -117 52 -126 230 -157 63 -11 118 -26 122
-33 5 -7 9 -59 9 -115 0 -121 6 -115 -131 -138 -116 -19 -173 -39 -192 -68 -8
-12 -29 -62 -47 -112 -18 -49 -46 -116 -61 -147 -45 -89 -41 -110 47 -239 55
-82 74 -117 70 -133 -3 -12 -37 -52 -75 -89 -52 -51 -74 -65 -88 -60 -10 3
-56 33 -103 66 -87 62 -136 87 -168 87 -10 0 -54 -17 -98 -38 -43 -22 -104
-47 -134 -57 -82 -26 -128 -55 -144 -89 -7 -17 -21 -76 -31 -131 -26 -155 -15
-145 -144 -145 -75 0 -112 4 -119 13 -5 6 -17 57 -26 112 -9 55 -21 114 -27
132 -14 43 -56 77 -121 98 -29 9 -97 37 -151 62 -121 56 -135 54 -260 -31
-146 -100 -127 -98 -208 -19 -39 37 -75 76 -80 85 -7 12 9 43 66 127 41 62 77
127 81 146 5 28 -2 53 -39 132 -25 54 -53 122 -62 151 -21 65 -55 107 -98 121
-18 6 -77 18 -132 27 -55 9 -106 21 -112 26 -9 7 -13 44 -13 119 0 129 -10
118 145 144 55 10 114 24 131 31 34 16 63 62 89 144 10 30 35 91 57 134 21 44
38 88 38 98 0 32 -25 81 -87 168 -33 47 -63 93 -66 103 -5 14 9 36 60 88 77
80 102 91 143 60 16 -11 65 -46 110 -76 96 -66 123 -69 211 -25 33 17 92 42
132 56 157 56 160 60 187 217 30 167 21 157 142 157 57 0 109 -4 116 -9z"/>
<path d="M3435 4165 c-140 -30 -239 -88 -335 -193 -222 -241 -212 -617 22
-850 189 -189 478 -236 717 -116 84 42 187 134 241 217 82 126 117 310 86 457
-71 336 -404 557 -731 485z m206 -259 c224 -52 339 -294 240 -502 -85 -176
-295 -253 -472 -172 -268 123 -278 510 -17 644 86 44 156 52 249 30z"/>
<path d="M1563 3700 c-48 -29 -60 -55 -80 -170 -21 -118 -9 -105 -152 -165
l-85 -35 -56 40 c-169 118 -216 136 -326 128 -101 -7 -161 -43 -294 -175 -133
-132 -168 -190 -177 -292 -9 -94 11 -152 94 -275 l75 -110 -35 -81 c-20 -44
-39 -93 -42 -108 -4 -15 -8 -27 -9 -27 -37 0 -245 -48 -282 -64 -67 -31 -129
-94 -163 -165 -25 -55 -26 -61 -26 -256 0 -199 0 -200 28 -257 35 -71 116
-147 183 -171 27 -9 95 -25 152 -36 57 -10 104 -20 106 -22 1 -2 17 -40 35
-84 18 -44 37 -91 43 -105 9 -23 4 -35 -55 -118 -85 -120 -102 -165 -101 -267
0 -119 20 -154 172 -307 156 -159 197 -182 317 -183 102 0 147 17 267 102 l92
65 51 -22 c27 -12 75 -31 105 -43 30 -11 57 -22 59 -23 2 -2 11 -48 21 -104
10 -55 26 -123 35 -150 22 -67 100 -151 173 -187 57 -28 58 -28 257 -28 195 0
201 1 256 26 71 34 134 96 165 163 12 28 32 102 43 165 12 63 22 115 23 115 2
1 51 21 109 44 l107 43 110 -74 c121 -83 183 -104 279 -94 96 10 153 46 283
174 140 141 171 192 178 300 7 102 -10 151 -95 276 l-73 107 16 33 c10 17 30
63 44 102 15 38 33 72 41 77 8 4 59 14 114 24 88 15 104 21 132 49 55 55 56
129 2 181 -28 27 -36 29 -102 29 -40 0 -127 -11 -195 -24 -154 -29 -166 -39
-211 -177 -18 -54 -53 -137 -77 -186 -66 -131 -65 -134 66 -321 110 -157 110
-154 -24 -285 -83 -82 -109 -102 -132 -102 -20 0 -61 23 -129 71 -139 98 -180
121 -218 121 -19 0 -78 -22 -137 -50 -58 -27 -141 -61 -185 -76 -129 -43 -135
-52 -170 -251 -15 -82 -31 -157 -36 -167 -17 -32 -47 -38 -186 -38 -125 0
-141 2 -160 20 -27 24 -27 25 -57 197 -14 79 -29 151 -35 161 -18 33 -46 50
-139 81 -52 18 -135 52 -184 77 -95 48 -146 57 -189 34 -13 -8 -78 -51 -143
-97 -85 -59 -128 -83 -149 -83 -25 0 -48 18 -134 103 -85 86 -103 109 -103
134 0 21 24 64 83 149 46 65 89 130 97 143 23 43 14 94 -34 189 -25 49 -59
132 -77 184 -47 141 -49 142 -259 178 -154 26 -156 27 -180 53 -18 19 -20 35
-20 160 0 139 6 169 38 186 10 5 84 21 166 36 82 14 162 33 177 41 33 17 48
43 79 139 12 39 45 117 72 174 73 150 73 151 -61 341 -58 81 -81 123 -81 144
0 25 18 48 103 133 134 134 125 133 304 8 162 -113 173 -115 291 -57 70 36
132 60 264 107 70 24 85 52 113 212 37 208 33 245 -34 290 -42 28 -86 29 -128
3z"/>
<path d="M1863 2810 c-365 -39 -660 -290 -758 -645 -26 -94 -31 -284 -11 -386
35 -171 113 -316 241 -444 170 -170 374 -255 610 -255 411 0 768 288 850 686
22 109 23 213 1 246 -54 82 -178 82 -221 -1 -7 -15 -18 -67 -24 -117 -16 -139
-56 -238 -137 -335 -115 -139 -284 -219 -466 -219 -105 0 -168 15 -268 62 -67
32 -101 57 -161 117 -121 121 -179 261 -179 429 0 182 80 351 219 466 97 81
196 121 335 137 50 6 102 17 117 24 80 42 84 167 6 218 -32 21 -73 25 -154 17z"/>
</g>
</svg>
