<svg id="svg" version="1.1" xmlns="http://www.w3.org/2000/svg" xmlns:xlink="http://www.w3.org/1999/xlink" width="400" height="400" viewBox="0, 0, 400,400"><g id="svgg"><path id="path0" d="M104.400 35.400 L 104.400 70.800 122.100 70.800 L 139.800 70.800 139.696 35.400 L 139.591 -0.000 121.996 -0.000 L 104.400 0.000 104.400 35.400 M330.000 57.829 C 330.000 57.954,330.270 58.327,330.600 58.657 C 331.251 59.308,331.333 59.211,330.957 58.233 C 330.729 57.638,330.000 57.330,330.000 57.829 M10.584 70.500 C 10.479 70.775,10.440 86.750,10.497 106.000 L 10.600 141.000 28.400 141.104 L 46.200 141.208 46.096 105.604 L 45.991 70.000 28.383 70.000 C 14.665 70.000,10.733 70.110,10.584 70.500 M104.400 140.198 L 104.400 163.600 81.000 163.600 C 64.797 163.600,57.600 163.730,57.600 164.024 C 57.600 164.257,57.375 164.312,57.100 164.147 C 56.715 163.915,56.705 163.979,57.059 164.423 C 57.494 164.971,57.735 166.442,58.247 171.700 C 58.370 172.965,58.635 174.000,58.836 174.000 C 59.036 174.000,59.200 174.864,59.200 175.920 C 59.200 176.976,59.363 178.011,59.563 178.220 C 59.763 178.429,60.024 179.590,60.144 180.800 C 60.264 182.010,60.430 183.270,60.512 183.600 C 60.791 184.727,61.277 188.199,61.204 188.555 C 61.164 188.751,61.358 189.050,61.635 189.221 C 61.911 189.392,62.172 190.042,62.215 190.666 C 62.258 191.290,62.401 192.070,62.534 192.400 C 62.667 192.730,62.834 193.450,62.906 194.000 C 62.978 194.550,63.229 195.360,63.464 195.800 C 63.699 196.240,63.811 196.825,63.713 197.100 C 63.614 197.375,63.728 197.600,63.967 197.600 C 64.205 197.600,64.400 198.241,64.400 199.024 C 64.400 199.871,64.562 200.347,64.800 200.200 C 65.143 199.988,65.422 201.469,65.237 202.530 C 65.206 202.711,65.333 202.765,65.520 202.650 C 65.839 202.452,67.056 206.252,66.881 206.900 C 66.836 207.065,66.980 207.200,67.200 207.200 C 67.420 207.200,67.600 207.560,67.600 208.000 C 67.600 208.440,67.747 208.800,67.928 208.800 C 68.108 208.800,68.498 209.692,68.795 210.782 C 69.092 211.872,69.484 212.671,69.667 212.558 C 69.850 212.445,70.000 212.628,70.000 212.964 C 70.000 213.301,70.364 214.225,70.810 215.018 C 71.255 215.811,71.455 216.357,71.253 216.233 C 71.052 216.108,71.272 216.796,71.743 217.761 C 72.215 218.726,72.735 219.433,72.900 219.334 C 73.065 219.234,73.200 219.443,73.200 219.798 C 73.200 220.614,75.642 225.200,76.077 225.200 C 76.254 225.200,76.400 225.560,76.400 226.000 C 76.400 226.440,76.580 226.800,76.800 226.800 C 77.020 226.800,77.200 227.149,77.200 227.576 C 77.200 228.003,77.383 228.466,77.607 228.604 C 77.830 228.742,77.916 229.012,77.798 229.203 C 77.680 229.394,77.902 229.736,78.292 229.963 C 78.681 230.190,78.856 230.381,78.680 230.388 C 78.503 230.395,78.818 231.002,79.380 231.738 C 79.941 232.474,80.400 233.185,80.400 233.319 C 80.400 233.452,81.210 234.720,82.200 236.137 C 83.190 237.553,84.000 238.821,84.000 238.956 C 84.000 239.090,84.315 239.547,84.700 239.971 C 85.835 241.222,86.263 241.797,86.782 242.767 C 87.052 243.271,87.796 244.231,88.436 244.901 C 89.076 245.571,89.600 246.290,89.600 246.499 C 89.600 246.708,90.140 247.383,90.800 248.000 C 91.460 248.617,92.000 249.275,92.000 249.464 C 92.000 249.653,92.360 250.032,92.800 250.307 C 93.240 250.582,93.600 250.991,93.600 251.217 C 93.600 251.442,94.185 252.244,94.900 252.999 C 97.870 256.133,98.434 256.801,98.125 256.814 C 97.946 256.822,98.193 257.047,98.674 257.314 C 99.154 257.581,99.556 257.938,99.567 258.106 C 99.579 258.275,100.670 259.456,101.994 260.731 L 104.400 263.049 104.400 331.525 L 104.400 400.000 151.401 400.000 L 198.401 400.000 198.301 281.900 L 198.200 163.800 187.103 163.694 L 176.006 163.587 175.903 140.294 L 175.800 117.000 140.100 116.898 L 104.400 116.796 104.400 140.198 " stroke="none" fill="#fcdcb4" fill-rule="evenodd"></path><path id="path1" d="M140.498 35.300 L 140.600 70.600 157.900 70.704 L 175.200 70.808 175.200 35.404 L 175.200 0.000 157.798 0.000 L 140.396 0.000 140.498 35.300 M199.200 46.963 L 199.200 94.000 222.600 94.000 L 246.000 94.000 246.000 105.400 L 246.000 116.800 222.176 116.800 C 203.212 116.800,198.419 116.902,198.676 117.300 C 198.854 117.575,198.933 181.295,198.851 258.900 L 198.701 400.000 233.747 400.000 L 268.794 400.000 268.897 375.991 L 269.000 351.983 304.100 351.996 L 339.200 352.008 339.200 316.804 C 339.200 293.731,339.337 281.600,339.598 281.600 C 339.858 281.600,340.032 293.632,340.101 316.300 L 340.207 351.000 340.203 316.200 L 340.200 281.400 310.400 281.279 C 275.493 281.136,276.686 281.026,272.667 284.771 C 269.581 287.648,268.811 290.424,268.805 298.706 L 268.800 304.812 257.100 304.706 L 245.400 304.600 245.267 299.600 C 244.804 282.259,250.849 269.182,262.200 262.964 C 262.640 262.723,263.681 262.137,264.513 261.662 C 271.139 257.882,275.294 257.525,310.800 257.686 C 326.750 257.758,350.937 257.866,364.549 257.926 C 378.161 257.986,389.411 257.909,389.549 257.754 C 389.687 257.599,389.498 257.581,389.129 257.713 C 388.553 257.919,388.471 257.675,388.549 255.976 C 388.610 254.656,388.481 254.000,388.160 254.000 C 387.671 254.000,387.201 251.593,387.085 248.500 C 387.042 247.351,386.842 246.800,386.469 246.800 C 386.068 246.800,385.957 246.374,386.063 245.256 C 386.149 244.356,386.002 243.518,385.711 243.246 C 385.383 242.939,385.275 242.061,385.398 240.690 C 385.522 239.298,385.467 238.867,385.235 239.400 C 384.758 240.493,384.236 239.299,384.476 237.665 C 384.570 237.024,384.402 236.317,384.084 236.021 C 383.726 235.686,383.576 234.889,383.664 233.788 C 383.739 232.847,383.664 232.161,383.497 232.264 C 382.929 232.615,382.694 231.152,383.155 230.139 C 383.557 229.258,383.514 229.103,382.820 228.921 C 382.155 228.747,382.050 228.446,382.180 227.096 C 382.283 226.029,382.135 225.278,381.746 224.889 C 381.421 224.564,381.205 223.917,381.266 223.449 C 381.326 222.982,381.223 222.356,381.038 222.057 C 380.852 221.759,380.716 220.741,380.735 219.794 C 380.758 218.621,380.581 218.002,380.178 217.847 C 379.729 217.675,379.649 217.234,379.845 216.010 C 380.018 214.930,379.954 214.400,379.651 214.400 C 379.383 214.400,379.200 213.669,379.200 212.600 C 379.200 211.610,379.041 210.800,378.847 210.800 C 378.439 210.800,378.066 209.203,378.306 208.482 C 378.395 208.214,378.678 208.094,378.934 208.216 C 379.190 208.338,378.995 208.137,378.500 207.770 C 377.778 207.235,377.600 206.711,377.600 205.128 C 377.600 204.041,377.439 203.252,377.242 203.374 C 376.736 203.687,376.447 202.735,376.679 201.522 C 376.787 200.956,376.678 200.372,376.438 200.223 C 376.197 200.075,376.000 199.153,376.000 198.176 C 376.000 197.199,375.820 196.400,375.600 196.400 C 375.380 196.400,375.200 195.691,375.200 194.824 C 375.200 193.957,374.997 193.122,374.749 192.969 C 374.459 192.789,374.366 191.819,374.488 190.245 C 374.592 188.900,374.602 188.115,374.509 188.500 C 374.195 189.810,373.600 189.206,373.600 187.576 C 373.600 186.683,373.754 186.048,373.942 186.164 C 374.130 186.281,374.192 185.891,374.079 185.299 C 373.894 184.336,373.842 184.306,373.579 185.011 C 373.094 186.316,372.663 184.715,372.898 182.481 C 373.008 181.447,373.015 180.825,372.915 181.100 C 372.500 182.243,371.925 181.503,372.068 180.008 C 372.173 178.901,372.048 178.351,371.658 178.201 C 371.255 178.046,371.156 177.544,371.307 176.420 C 371.464 175.243,371.364 174.795,370.904 174.618 C 370.415 174.431,370.340 173.958,370.535 172.292 C 370.692 170.951,370.647 170.412,370.411 170.789 C 369.870 171.655,369.477 170.432,369.719 168.635 C 369.842 167.717,369.751 167.260,369.454 167.315 C 369.155 167.371,369.020 166.662,369.059 165.242 C 369.092 164.055,368.982 163.305,368.815 163.576 C 368.325 164.369,367.946 162.892,368.239 161.330 C 368.434 160.295,368.364 159.996,367.947 160.084 C 367.276 160.226,366.963 158.168,367.548 157.462 C 367.823 157.131,367.821 156.784,367.539 156.387 C 367.211 155.922,367.174 155.966,367.363 156.600 L 367.602 157.400 366.983 156.600 C 366.643 156.160,366.460 155.418,366.577 154.951 C 366.694 154.484,366.519 153.559,366.188 152.896 C 365.741 152.000,365.688 151.420,365.983 150.645 C 366.300 149.811,366.261 149.600,365.790 149.600 C 365.466 149.600,365.200 149.435,365.200 149.233 C 365.200 149.031,365.100 148.604,364.977 148.284 C 364.854 147.965,365.042 147.415,365.394 147.063 C 365.980 146.477,365.951 146.403,365.048 146.176 C 364.144 145.949,364.077 145.778,364.242 144.095 C 364.341 143.086,364.247 142.153,364.034 142.021 C 363.821 141.889,363.603 140.940,363.550 139.913 C 363.496 138.885,363.306 138.135,363.126 138.245 C 362.862 138.409,362.628 136.654,362.868 136.300 C 362.905 136.245,362.692 135.750,362.394 135.200 C 362.097 134.650,361.888 133.728,361.929 133.151 C 361.971 132.573,361.754 131.617,361.447 131.025 C 360.845 129.866,361.025 128.244,361.707 128.666 C 361.949 128.816,362.004 128.730,361.838 128.462 C 361.681 128.208,361.293 128.000,360.976 128.000 C 360.544 128.000,360.400 127.446,360.400 125.776 C 360.400 124.396,360.248 123.647,360.000 123.800 C 359.573 124.064,359.426 123.284,359.565 121.500 C 359.613 120.895,359.460 120.400,359.226 120.400 C 358.992 120.400,358.800 119.680,358.800 118.800 C 358.800 117.920,358.620 117.200,358.400 117.200 C 358.180 117.200,358.000 116.581,358.000 115.824 C 358.000 115.067,357.803 114.326,357.562 114.177 C 357.322 114.028,357.189 113.229,357.268 112.402 C 357.379 111.238,357.285 110.946,356.851 111.112 C 356.423 111.277,356.334 111.033,356.474 110.079 C 356.592 109.273,356.470 108.759,356.128 108.628 C 355.457 108.370,355.432 106.409,356.100 106.375 C 356.375 106.361,356.195 106.187,355.700 105.988 C 355.107 105.749,354.800 105.289,354.800 104.636 C 354.800 104.092,354.605 103.527,354.368 103.380 C 354.130 103.233,354.043 102.682,354.175 102.156 C 354.355 101.440,354.251 101.200,353.761 101.200 C 353.303 101.200,353.170 100.959,353.316 100.399 C 353.443 99.915,353.279 99.460,352.903 99.250 C 352.510 99.030,352.362 98.587,352.503 98.051 C 352.658 97.458,352.540 97.200,352.116 97.200 C 351.698 97.200,351.574 96.942,351.722 96.376 C 351.854 95.871,351.717 95.466,351.369 95.333 C 351.019 95.199,350.867 94.745,350.973 94.157 C 351.090 93.512,350.960 93.200,350.574 93.200 C 350.258 93.200,350.000 92.851,350.000 92.424 C 350.000 91.997,349.837 91.546,349.638 91.423 C 349.438 91.300,349.369 90.839,349.484 90.400 C 349.599 89.960,349.517 89.600,349.302 89.600 C 348.887 89.600,346.400 84.830,346.400 84.034 C 346.400 83.777,346.028 83.169,345.574 82.683 C 345.063 82.137,344.815 81.448,344.923 80.877 C 345.048 80.215,344.942 80.013,344.549 80.164 C 344.237 80.284,344.000 80.121,344.000 79.787 C 344.000 79.464,343.820 79.200,343.600 79.200 C 343.380 79.200,343.196 78.885,343.191 78.500 C 343.186 78.115,342.830 77.350,342.400 76.800 C 341.970 76.250,341.614 75.575,341.609 75.300 C 341.604 75.025,341.420 74.800,341.200 74.800 C 340.980 74.800,340.800 74.530,340.800 74.200 C 340.800 73.870,340.641 73.600,340.447 73.600 C 340.252 73.600,339.993 73.285,339.871 72.900 C 339.563 71.927,338.355 70.006,337.400 68.969 C 336.647 68.152,335.234 65.824,335.223 65.383 C 335.220 65.272,334.764 64.728,334.209 64.173 C 333.654 63.618,333.200 63.035,333.200 62.878 C 333.200 62.720,332.790 62.144,332.289 61.596 C 331.787 61.048,330.945 59.970,330.416 59.200 C 329.887 58.430,328.812 57.064,328.027 56.165 C 323.923 51.463,321.151 48.384,318.900 46.024 C 317.525 44.583,316.400 43.268,316.400 43.102 C 316.400 42.936,316.212 42.800,315.981 42.800 C 315.590 42.800,314.122 41.515,310.383 37.900 C 309.529 37.075,308.680 36.400,308.495 36.400 C 307.675 36.400,304.441 32.755,304.670 32.089 C 304.865 31.524,304.799 31.539,304.307 32.171 C 303.719 32.926,303.686 32.922,302.722 31.971 C 302.181 31.437,301.139 30.550,300.406 30.000 C 299.673 29.450,298.845 28.775,298.565 28.500 C 298.286 28.225,297.864 28.000,297.629 28.000 C 297.393 28.000,297.200 27.820,297.200 27.600 C 297.200 27.380,296.992 27.200,296.738 27.200 C 296.484 27.200,295.631 26.705,294.844 26.100 C 293.215 24.848,292.761 24.558,290.440 23.285 C 289.523 22.781,288.871 22.209,288.992 22.012 C 289.114 21.816,289.030 21.542,288.807 21.404 C 288.583 21.266,288.400 21.371,288.400 21.638 C 288.400 21.940,288.096 21.849,287.600 21.400 C 287.160 21.002,286.800 20.806,286.800 20.965 C 286.800 21.124,286.277 20.882,285.638 20.427 C 284.999 19.972,284.279 19.600,284.038 19.600 C 283.797 19.600,283.600 19.347,283.600 19.037 C 283.600 18.672,283.320 18.548,282.800 18.684 C 282.353 18.801,282.000 18.696,282.000 18.447 C 282.000 18.201,281.724 18.000,281.387 18.000 C 281.051 18.000,280.671 17.730,280.545 17.400 C 280.418 17.070,280.044 16.800,279.714 16.800 C 278.701 16.800,273.969 14.375,274.212 13.980 C 274.338 13.776,274.167 13.714,273.832 13.843 C 273.176 14.095,270.800 13.201,270.800 12.702 C 270.800 12.536,270.350 12.400,269.800 12.400 C 269.250 12.400,268.800 12.220,268.800 12.000 C 268.800 11.780,268.528 11.600,268.195 11.600 C 267.862 11.600,267.232 11.420,266.795 11.200 C 266.358 10.980,265.642 10.620,265.205 10.400 C 264.768 10.180,264.048 10.000,263.605 10.000 C 263.162 10.000,262.800 9.820,262.800 9.600 C 262.800 9.380,262.339 9.200,261.776 9.200 C 261.196 9.200,260.860 9.027,261.000 8.800 C 261.148 8.561,260.657 8.400,259.781 8.400 C 258.735 8.400,258.372 8.249,258.516 7.875 C 258.661 7.496,258.397 7.398,257.562 7.520 C 256.638 7.656,256.332 7.501,256.029 6.745 C 255.821 6.225,255.639 6.025,255.625 6.300 C 255.596 6.881,254.158 6.980,253.815 6.425 C 253.688 6.218,253.229 6.117,252.796 6.201 C 252.363 6.284,251.745 6.088,251.421 5.764 C 251.045 5.387,250.470 5.268,249.820 5.431 C 249.094 5.613,248.738 5.503,248.561 5.042 C 248.387 4.589,247.804 4.400,246.581 4.400 C 245.627 4.400,244.746 4.237,244.623 4.038 C 244.500 3.838,244.038 3.769,243.597 3.885 C 243.157 4.000,242.499 3.848,242.137 3.548 C 241.775 3.247,240.789 3.001,239.947 3.001 C 239.105 3.000,238.426 2.827,238.438 2.616 C 238.473 1.994,237.079 1.678,236.031 2.070 C 234.935 2.480,232.800 2.137,232.800 1.551 C 232.800 1.321,231.743 1.250,230.185 1.375 C 228.139 1.540,227.521 1.461,227.349 1.012 C 227.169 0.544,226.401 0.482,223.177 0.679 C 220.834 0.821,219.017 0.761,218.713 0.530 C 218.424 0.311,214.057 0.094,208.700 0.034 L 199.200 -0.074 199.200 46.963 M46.600 105.400 L 46.600 140.800 63.600 140.831 C 72.950 140.847,80.925 140.923,81.322 140.998 C 81.871 141.103,81.942 141.012,81.618 140.622 C 81.321 140.264,81.223 129.441,81.296 105.054 L 81.400 70.000 64.000 70.000 L 46.600 70.000 46.600 105.400 " stroke="none" fill="#fcc49c" fill-rule="evenodd"></path><path id="path2" d="M276.400 258.047 C 273.075 258.428,266.888 260.308,264.527 261.654 C 263.687 262.133,262.640 262.723,262.200 262.964 C 250.849 269.182,244.804 282.259,245.267 299.600 L 245.400 304.600 257.100 304.706 L 268.800 304.812 268.805 298.706 C 268.811 290.424,269.581 287.648,272.667 284.771 C 276.690 281.022,275.482 281.134,310.500 281.277 L 340.400 281.400 340.400 269.890 L 340.400 258.380 339.374 257.990 C 338.096 257.504,280.687 257.556,276.400 258.047 " stroke="none" fill="#fca484" fill-rule="evenodd"></path><path id="path3" d="M140.094 35.300 C 140.042 54.825,140.135 70.800,140.300 70.800 C 140.572 70.800,140.569 45.348,140.294 12.400 C 140.236 5.470,140.146 15.775,140.094 35.300 M198.098 46.867 C 198.179 83.932,198.305 93.768,198.700 93.900 C 199.098 94.033,199.200 84.482,199.200 47.033 C 199.200 5.435,199.130 0.000,198.598 0.000 C 198.066 0.000,198.008 5.372,198.098 46.867 M218.602 0.403 C 218.737 0.621,220.217 0.800,221.890 0.800 C 223.564 0.800,224.858 0.735,224.767 0.656 C 224.334 0.282,218.376 0.038,218.602 0.403 M227.327 0.982 C 227.402 1.205,228.169 1.418,229.031 1.455 C 229.894 1.492,230.285 1.436,229.900 1.332 C 229.515 1.227,229.200 0.977,229.200 0.775 C 229.200 0.574,228.748 0.446,228.196 0.492 C 227.644 0.538,227.253 0.758,227.327 0.982 M232.800 1.618 C 232.800 2.016,235.172 2.562,235.495 2.238 C 235.626 2.107,235.298 1.997,234.767 1.994 C 234.072 1.989,233.953 1.891,234.343 1.644 C 234.726 1.401,234.579 1.300,233.843 1.300 C 233.269 1.300,232.800 1.443,232.800 1.618 M238.198 2.403 C 237.871 2.933,238.902 3.309,240.071 3.086 C 240.766 2.954,240.666 2.895,239.676 2.854 C 238.907 2.823,238.456 2.633,238.600 2.400 C 238.736 2.180,238.757 2.000,238.647 2.000 C 238.537 2.000,238.335 2.181,238.198 2.403 M242.000 3.400 C 242.274 3.730,242.881 3.975,243.349 3.946 C 244.164 3.893,244.162 3.884,243.300 3.718 C 242.805 3.622,242.400 3.377,242.400 3.172 C 242.400 2.967,242.198 2.800,241.951 2.800 C 241.641 2.800,241.656 2.985,242.000 3.400 M248.500 4.900 C 248.591 5.175,249.011 5.455,249.433 5.522 C 250.015 5.614,250.069 5.553,249.655 5.270 C 249.194 4.955,249.194 4.863,249.655 4.680 C 249.960 4.558,249.790 4.449,249.267 4.432 C 248.689 4.412,248.397 4.590,248.500 4.900 M261.000 8.800 C 260.864 9.020,261.113 9.200,261.553 9.200 C 261.993 9.200,262.464 9.020,262.600 8.800 C 262.736 8.580,262.487 8.400,262.047 8.400 C 261.607 8.400,261.136 8.580,261.000 8.800 M266.818 10.834 C 267.064 11.293,267.344 11.589,267.442 11.492 C 267.722 11.212,267.154 10.000,266.743 10.000 C 266.539 10.000,266.573 10.375,266.818 10.834 M268.800 11.800 C 268.800 12.130,268.961 12.400,269.157 12.400 C 269.354 12.400,269.618 12.130,269.745 11.800 C 269.885 11.435,269.745 11.200,269.387 11.200 C 269.064 11.200,268.800 11.470,268.800 11.800 M271.535 12.499 C 270.940 12.904,270.976 13.006,271.881 13.476 C 273.182 14.151,273.467 14.136,273.467 13.394 C 273.467 12.990,273.224 12.865,272.736 13.020 C 272.190 13.193,272.066 13.093,272.245 12.626 C 272.524 11.900,272.439 11.885,271.535 12.499 M274.133 13.810 C 274.133 14.444,279.074 17.060,279.488 16.645 C 279.794 16.339,278.814 15.198,278.251 15.206 C 278.003 15.209,278.070 15.387,278.400 15.600 C 278.913 15.931,278.898 15.989,278.300 15.994 C 277.915 15.997,277.600 15.820,277.600 15.600 C 277.600 15.380,277.319 15.200,276.976 15.200 C 276.633 15.200,276.464 15.020,276.600 14.800 C 276.736 14.580,276.536 14.400,276.155 14.400 C 275.774 14.400,275.164 14.129,274.798 13.798 C 274.206 13.262,274.133 13.264,274.133 13.810 M280.454 16.713 C 280.422 17.252,280.686 17.731,281.100 17.883 C 281.485 18.025,281.914 18.312,282.054 18.520 C 282.193 18.727,282.482 18.831,282.695 18.749 C 282.908 18.667,282.635 18.150,282.089 17.600 C 281.542 17.050,281.219 16.825,281.371 17.100 C 281.523 17.375,281.469 17.600,281.251 17.600 C 281.034 17.600,280.778 17.195,280.682 16.700 L 280.509 15.800 280.454 16.713 M284.200 19.222 C 283.760 19.399,283.642 19.556,283.938 19.572 C 284.234 19.587,284.999 19.972,285.638 20.427 C 286.608 21.118,286.800 21.151,286.800 20.627 C 286.800 20.261,286.458 20.000,285.976 20.000 C 285.523 20.000,285.256 19.832,285.383 19.628 C 285.727 19.070,285.106 18.857,284.200 19.222 M289.012 21.980 C 288.883 22.189,289.132 22.549,289.565 22.781 C 290.087 23.060,290.435 23.067,290.599 22.801 C 290.736 22.580,290.466 22.400,290.000 22.400 C 289.534 22.400,289.264 22.220,289.400 22.000 C 289.536 21.780,289.557 21.600,289.447 21.600 C 289.337 21.600,289.142 21.771,289.012 21.980 M292.170 24.352 C 292.570 24.998,294.000 25.163,294.000 24.563 C 294.000 24.226,293.589 24.000,292.976 24.000 C 292.413 24.000,292.051 24.158,292.170 24.352 M299.393 28.811 C 299.127 29.243,300.122 29.759,300.791 29.536 C 301.020 29.460,300.854 29.177,300.422 28.907 C 299.924 28.595,299.548 28.560,299.393 28.811 M301.517 30.027 C 301.222 30.879,303.590 33.063,304.034 32.348 C 304.242 32.013,304.198 31.739,303.920 31.644 C 303.670 31.559,303.072 31.031,302.591 30.471 C 301.927 29.700,301.667 29.592,301.517 30.027 M305.164 33.231 C 304.753 33.491,304.899 33.589,305.700 33.594 C 306.894 33.601,307.110 33.404,306.264 33.080 C 305.969 32.967,305.474 33.035,305.164 33.231 M306.000 34.122 C 306.000 34.444,308.113 36.400,308.461 36.400 C 308.608 36.400,308.676 36.085,308.611 35.700 C 308.547 35.315,308.270 35.053,307.997 35.117 C 307.723 35.181,307.162 34.928,306.750 34.555 C 306.337 34.181,306.000 33.987,306.000 34.122 M310.905 38.277 C 311.293 38.378,311.507 38.627,311.381 38.830 C 311.256 39.034,311.414 39.200,311.734 39.200 C 312.053 39.200,312.418 39.470,312.545 39.800 C 312.837 40.563,313.600 40.584,313.600 39.829 C 313.600 39.254,311.452 37.960,310.639 38.046 C 310.397 38.072,310.517 38.176,310.905 38.277 M313.837 40.740 C 313.552 41.201,315.319 42.694,315.915 42.495 C 316.571 42.276,315.482 41.200,314.605 41.200 C 314.246 41.200,314.064 41.020,314.200 40.800 C 314.336 40.580,314.357 40.400,314.247 40.400 C 314.137 40.400,313.953 40.553,313.837 40.740 M321.014 47.347 C 321.122 48.332,323.413 51.485,324.079 51.566 C 324.233 51.585,324.167 51.051,323.933 50.380 C 323.699 49.708,323.415 49.252,323.301 49.366 C 323.188 49.479,322.734 49.379,322.293 49.143 C 321.804 48.881,321.658 48.611,321.918 48.451 C 322.198 48.277,322.096 47.858,321.620 47.226 L 320.895 46.266 321.014 47.347 M324.800 52.600 C 325.074 52.930,325.501 53.197,325.749 53.194 C 326.013 53.190,325.974 53.045,325.655 52.842 C 325.194 52.551,325.194 52.463,325.655 52.280 C 325.957 52.160,325.776 52.049,325.251 52.032 C 324.452 52.005,324.381 52.095,324.800 52.600 M326.915 54.921 C 327.457 55.625,328.216 56.263,328.603 56.339 C 329.207 56.459,329.228 56.395,328.753 55.881 C 328.449 55.553,328.034 55.385,327.832 55.508 C 327.630 55.631,327.564 55.471,327.686 55.153 C 327.823 54.797,327.529 54.397,326.919 54.109 L 325.930 53.642 326.915 54.921 M330.413 59.051 C 330.439 59.760,331.600 61.007,331.600 60.325 C 331.600 59.980,331.330 59.474,331.000 59.200 C 330.670 58.926,330.406 58.859,330.413 59.051 M332.013 61.137 C 332.030 61.475,333.465 63.200,333.729 63.200 C 333.839 63.200,333.869 62.885,333.795 62.500 C 333.722 62.115,333.647 61.686,333.631 61.547 C 333.589 61.206,331.996 60.803,332.013 61.137 M335.817 66.663 C 336.358 67.460,336.800 68.267,336.800 68.456 C 336.800 68.645,336.950 68.800,337.133 68.800 C 337.317 68.800,337.467 68.530,337.467 68.200 C 337.467 67.870,337.329 67.600,337.160 67.600 C 336.992 67.600,336.754 67.285,336.631 66.899 C 336.509 66.513,336.055 65.977,335.621 65.706 C 334.939 65.280,334.966 65.409,335.817 66.663 M337.900 69.444 C 338.175 69.566,338.400 69.838,338.400 70.047 C 338.400 70.723,339.677 72.400,340.026 72.184 C 340.525 71.875,340.005 70.800,339.357 70.800 C 339.051 70.800,338.803 70.485,338.806 70.100 C 338.811 69.496,338.870 69.482,339.237 70.000 C 339.614 70.533,339.643 70.533,339.499 70.000 C 339.410 69.670,338.901 69.360,338.369 69.310 C 337.836 69.261,337.625 69.321,337.900 69.444 M46.591 105.400 C 46.591 124.760,46.640 132.739,46.700 123.130 C 46.760 113.522,46.760 97.682,46.700 87.930 C 46.640 78.179,46.591 86.040,46.591 105.400 M81.391 105.400 C 81.391 124.760,81.440 132.739,81.500 123.130 C 81.560 113.522,81.560 97.682,81.500 87.930 C 81.440 78.179,81.391 86.040,81.391 105.400 M343.700 78.074 C 343.840 78.445,343.745 78.818,343.488 78.904 C 343.231 78.990,343.421 79.164,343.910 79.292 C 344.968 79.569,345.066 79.006,344.122 78.071 C 343.488 77.443,343.461 77.443,343.700 78.074 M347.492 85.842 C 347.119 86.214,347.640 87.222,348.069 86.958 C 348.280 86.827,348.420 86.963,348.379 87.260 C 348.199 88.576,348.405 89.411,348.769 88.836 C 349.272 88.042,348.082 85.252,347.492 85.842 M349.500 91.256 C 349.775 91.533,350.000 92.084,350.000 92.480 C 350.000 92.876,350.266 93.200,350.591 93.200 C 351.378 93.200,350.586 91.356,349.646 90.998 C 349.128 90.801,349.099 90.853,349.500 91.256 M244.800 105.400 C 244.800 115.267,244.881 116.800,245.400 116.800 C 245.919 116.800,246.000 115.267,246.000 105.400 C 246.000 95.533,245.919 94.000,245.400 94.000 C 244.881 94.000,244.800 95.533,244.800 105.400 M351.600 96.603 C 351.600 96.931,351.845 97.200,352.145 97.200 C 352.501 97.200,352.627 97.526,352.509 98.143 C 352.391 98.759,352.549 99.172,352.964 99.331 C 353.314 99.465,353.600 99.401,353.600 99.187 C 353.600 98.974,353.398 98.800,353.151 98.800 C 352.822 98.800,352.821 98.657,353.145 98.267 C 353.483 97.859,353.353 97.529,352.594 96.869 C 351.831 96.206,351.600 96.144,351.600 96.603 M357.660 113.042 C 357.070 113.708,357.268 114.104,358.264 114.251 C 358.712 114.316,358.778 114.218,358.484 113.924 C 358.252 113.692,358.158 113.254,358.274 112.951 C 358.546 112.243,358.339 112.273,357.660 113.042 M358.000 116.376 C 358.000 116.829,358.180 117.200,358.400 117.200 C 358.620 117.200,358.800 116.941,358.800 116.624 C 358.800 116.307,358.620 115.936,358.400 115.800 C 358.180 115.664,358.000 115.923,358.000 116.376 M198.000 140.102 C 198.000 160.414,198.079 163.568,198.600 164.000 C 199.132 164.442,199.200 161.853,199.200 141.098 C 199.200 120.786,199.121 117.632,198.600 117.200 C 198.068 116.758,198.000 119.347,198.000 140.102 M362.179 134.760 C 362.503 135.386,362.685 135.981,362.584 136.083 C 362.483 136.184,362.640 136.267,362.933 136.267 C 363.227 136.267,363.467 136.027,363.467 135.733 C 363.467 135.440,363.317 135.200,363.133 135.200 C 362.950 135.200,362.800 134.949,362.800 134.643 C 362.800 134.336,362.528 133.981,362.195 133.854 C 361.659 133.648,361.657 133.749,362.179 134.760 M54.900 141.100 C 59.685 141.163,67.515 141.163,72.300 141.100 C 77.085 141.036,73.170 140.984,63.600 140.984 C 54.030 140.984,50.115 141.036,54.900 141.100 M364.132 144.900 C 364.170 145.889,365.200 146.564,365.200 145.600 C 365.200 145.380,365.033 145.200,364.829 145.200 C 364.625 145.200,364.376 144.885,364.274 144.500 C 364.172 144.115,364.108 144.295,364.132 144.900 M365.066 148.333 C 365.140 148.626,365.200 149.031,365.200 149.233 C 365.200 149.435,365.380 149.600,365.600 149.600 C 365.820 149.600,365.997 149.105,365.994 148.500 C 365.990 147.727,365.885 147.562,365.642 147.945 C 365.452 148.245,365.215 148.335,365.114 148.145 C 365.013 147.955,364.992 148.040,365.066 148.333 M365.847 152.000 C 366.235 153.621,367.107 154.311,366.889 152.823 C 366.791 152.155,366.566 151.697,366.389 151.807 C 366.213 151.916,365.965 151.779,365.838 151.502 C 365.711 151.226,365.715 151.450,365.847 152.000 M366.400 155.324 C 366.400 156.605,367.398 157.257,367.443 156.005 C 367.470 155.236,367.289 154.800,366.943 154.800 C 366.644 154.800,366.400 155.036,366.400 155.324 M367.232 159.076 C 367.190 160.228,367.851 160.615,368.117 159.595 C 368.232 159.157,368.178 158.890,367.997 159.002 C 367.816 159.114,367.577 158.979,367.466 158.702 C 367.354 158.426,367.249 158.594,367.232 159.076 M368.061 162.200 C 367.989 163.390,368.616 164.256,368.940 163.413 C 369.078 163.053,369.026 162.860,368.824 162.985 C 368.622 163.110,368.379 162.804,368.283 162.306 C 368.134 161.531,368.102 161.516,368.061 162.200 M368.846 165.651 C 368.820 166.468,369.048 167.308,369.368 167.573 C 369.966 168.070,370.002 167.711,369.484 166.400 C 369.353 166.070,369.167 165.440,369.070 165.000 C 368.972 164.560,368.872 164.853,368.846 165.651 M369.600 169.576 C 369.600 170.223,369.748 170.844,369.929 170.956 C 370.110 171.068,370.245 170.539,370.229 169.781 C 370.194 168.108,369.600 167.914,369.600 169.576 M370.549 172.969 C 370.596 174.403,371.467 175.599,371.467 174.229 C 371.467 173.902,371.328 173.721,371.159 173.825 C 370.990 173.930,370.772 173.427,370.675 172.708 C 370.526 171.605,370.506 171.646,370.549 172.969 M371.200 176.813 C 371.200 177.479,371.450 178.121,371.756 178.238 C 372.079 178.362,372.226 178.778,372.108 179.232 C 371.955 179.816,372.061 179.952,372.528 179.772 C 373.152 179.533,372.835 178.088,371.924 177.020 C 371.439 176.451,371.534 175.912,372.062 176.238 C 372.348 176.415,372.415 176.348,372.238 176.062 C 371.714 175.214,371.200 175.586,371.200 176.813 M374.400 192.111 C 374.400 192.474,374.760 192.965,375.200 193.200 C 375.640 193.435,376.000 193.524,376.000 193.397 C 376.000 193.270,375.640 192.780,375.200 192.308 C 374.535 191.595,374.400 191.561,374.400 192.111 M375.467 195.867 C 375.341 195.992,375.508 196.365,375.838 196.695 C 376.168 197.025,376.541 197.192,376.667 197.067 C 376.792 196.941,376.625 196.568,376.295 196.238 C 375.965 195.908,375.592 195.741,375.467 195.867 M376.277 199.084 C 375.952 199.601,376.758 201.200,377.345 201.200 C 377.539 201.200,377.515 200.975,377.292 200.700 C 377.069 200.425,376.817 199.840,376.734 199.400 C 376.630 198.853,376.485 198.753,376.277 199.084 M379.422 213.564 C 379.226 213.882,379.316 214.228,379.649 214.439 C 380.318 214.862,381.191 214.915,380.560 214.494 C 380.318 214.332,380.036 213.939,379.933 213.620 C 379.783 213.152,379.683 213.141,379.422 213.564 M380.394 216.700 C 380.389 217.303,380.330 217.317,379.972 216.800 C 379.626 216.300,379.577 216.328,379.678 216.967 C 379.862 218.123,380.613 218.150,380.708 217.004 C 380.754 216.452,380.703 216.000,380.596 216.000 C 380.488 216.000,380.397 216.315,380.394 216.700 M381.100 220.631 C 380.541 221.195,380.796 221.970,381.700 222.451 C 382.462 222.857,382.530 222.844,382.143 222.365 C 381.892 222.054,381.622 221.469,381.543 221.064 C 381.464 220.659,381.265 220.464,381.100 220.631 M381.246 223.267 C 381.183 224.173,381.606 225.200,382.043 225.200 C 382.239 225.200,382.400 224.829,382.400 224.376 C 382.400 223.923,382.234 223.656,382.030 223.781 C 381.827 223.907,381.578 223.693,381.477 223.305 C 381.316 222.689,381.287 222.684,381.246 223.267 M382.000 228.400 C 382.000 228.620,382.270 228.800,382.600 228.800 C 382.930 228.800,383.200 228.620,383.200 228.400 C 383.200 228.180,382.930 228.000,382.600 228.000 C 382.270 228.000,382.000 228.180,382.000 228.400 M382.846 231.076 C 382.821 231.558,382.980 232.064,383.200 232.200 C 383.420 232.336,383.600 233.149,383.600 234.008 C 383.600 234.866,383.827 235.781,384.105 236.040 C 384.398 236.313,384.550 237.143,384.468 238.009 C 384.386 238.861,384.524 239.630,384.788 239.793 C 385.125 240.001,385.174 239.670,384.970 238.582 C 384.768 237.506,384.818 237.164,385.145 237.366 C 385.902 237.834,385.655 236.855,384.800 236.000 C 383.959 235.159,383.660 233.342,384.441 233.826 C 384.684 233.976,384.579 233.634,384.207 233.067 C 383.835 232.499,383.664 231.819,383.827 231.556 C 384.007 231.264,383.954 231.181,383.692 231.343 C 383.455 231.490,383.178 231.293,383.077 230.905 C 382.933 230.355,382.883 230.392,382.846 231.076 M385.212 242.000 C 385.212 242.690,385.880 243.870,386.111 243.588 C 386.196 243.485,386.029 242.950,385.739 242.400 C 385.448 241.849,385.212 241.669,385.212 242.000 M386.000 245.400 C 386.000 246.378,386.181 246.800,386.600 246.800 C 386.930 246.800,387.200 246.620,387.200 246.400 C 387.200 246.180,386.999 246.000,386.753 246.000 C 386.493 246.000,386.386 245.584,386.498 245.000 C 386.603 244.450,386.534 244.000,386.345 244.000 C 386.155 244.000,386.000 244.630,386.000 245.400 M386.846 248.481 C 386.789 249.808,387.584 251.657,388.080 251.350 C 388.280 251.227,388.145 250.670,387.780 250.114 C 387.415 249.557,387.316 249.224,387.559 249.374 C 387.811 249.530,388.000 249.370,388.000 249.000 C 388.000 248.644,387.834 248.456,387.630 248.581 C 387.427 248.707,387.178 248.493,387.077 248.105 C 386.960 247.658,386.876 247.795,386.846 248.481 M388.961 254.713 C 388.354 255.109,388.392 257.978,389.000 257.745 C 389.257 257.646,389.467 257.311,389.467 257.000 C 389.467 256.690,389.317 256.528,389.133 256.641 C 388.642 256.945,388.728 256.232,389.245 255.715 C 389.799 255.161,389.560 254.321,388.961 254.713 M352.329 258.300 C 358.999 258.361,369.799 258.361,376.329 258.300 C 382.858 258.238,377.400 258.188,364.200 258.188 C 351.000 258.188,345.658 258.238,352.329 258.300 M339.391 316.800 C 339.391 336.270,339.440 344.235,339.500 334.500 C 339.560 324.765,339.560 308.835,339.500 299.100 C 339.440 289.365,339.391 297.330,339.391 316.800 " stroke="none" fill="#fccc9c" fill-rule="evenodd"></path><path id="path4" d="M139.791 35.200 C 139.791 54.670,139.840 62.635,139.900 52.900 C 139.960 43.165,139.960 27.235,139.900 17.500 C 139.840 7.765,139.791 15.730,139.791 35.200 M175.200 35.424 C 175.200 58.937,175.334 70.764,175.600 70.600 C 175.862 70.438,176.000 58.196,176.000 35.176 C 176.000 11.992,175.864 0.000,175.600 0.000 C 175.336 0.000,175.200 12.075,175.200 35.424 M221.507 0.290 C 222.226 0.379,223.306 0.377,223.907 0.286 C 224.508 0.195,223.920 0.122,222.600 0.124 C 221.280 0.126,220.788 0.201,221.507 0.290 M229.200 0.849 C 229.200 1.042,229.860 1.200,230.667 1.200 C 231.473 1.200,232.022 1.089,231.886 0.953 C 231.487 0.553,229.200 0.465,229.200 0.849 M233.835 1.657 C 233.952 1.845,234.697 2.000,235.490 2.000 C 236.284 2.000,236.830 1.896,236.703 1.770 C 236.325 1.391,233.605 1.284,233.835 1.657 M238.600 2.400 C 238.455 2.634,238.870 2.800,239.600 2.800 C 240.330 2.800,240.745 2.634,240.600 2.400 C 240.464 2.180,240.014 2.000,239.600 2.000 C 239.186 2.000,238.736 2.180,238.600 2.400 M242.400 3.250 C 242.400 3.442,242.749 3.600,243.176 3.600 C 243.603 3.600,244.050 3.442,244.169 3.250 C 244.288 3.058,243.939 2.900,243.393 2.900 C 242.847 2.900,242.400 3.058,242.400 3.250 M245.600 4.025 C 245.600 4.231,245.960 4.400,246.400 4.400 C 246.840 4.400,247.200 4.258,247.200 4.085 C 247.200 3.912,246.840 3.743,246.400 3.710 C 245.960 3.677,245.600 3.819,245.600 4.025 M254.000 6.400 C 254.000 6.620,254.360 6.800,254.800 6.800 C 255.240 6.800,255.600 6.620,255.600 6.400 C 255.600 6.180,255.240 6.000,254.800 6.000 C 254.360 6.000,254.000 6.180,254.000 6.400 M256.800 7.200 C 256.800 7.420,257.070 7.600,257.400 7.600 C 257.730 7.600,258.000 7.420,258.000 7.200 C 258.000 6.980,257.730 6.800,257.400 6.800 C 257.070 6.800,256.800 6.980,256.800 7.200 M265.400 10.400 C 265.536 10.620,265.917 10.800,266.247 10.800 C 266.577 10.800,266.736 10.620,266.600 10.400 C 266.464 10.180,266.083 10.000,265.753 10.000 C 265.423 10.000,265.264 10.180,265.400 10.400 M267.600 11.200 C 267.600 11.420,267.870 11.600,268.200 11.600 C 268.530 11.600,268.800 11.420,268.800 11.200 C 268.800 10.980,268.530 10.800,268.200 10.800 C 267.870 10.800,267.600 10.980,267.600 11.200 M286.800 20.167 C 286.800 20.588,288.005 21.728,288.221 21.512 C 288.322 21.411,288.044 21.002,287.602 20.602 C 287.161 20.203,286.800 20.007,286.800 20.167 M298.118 28.041 C 298.361 28.430,298.929 28.841,299.380 28.954 C 300.165 29.150,300.163 29.128,299.317 28.429 C 298.831 28.028,298.516 27.617,298.617 27.516 C 298.718 27.416,298.547 27.333,298.238 27.333 C 297.801 27.333,297.774 27.490,298.118 28.041 M300.842 29.572 C 300.418 29.836,300.610 30.078,301.642 30.579 C 302.389 30.942,302.714 31.005,302.365 30.719 C 302.016 30.434,301.656 29.981,301.565 29.713 C 301.460 29.404,301.196 29.353,300.842 29.572 M307.292 34.943 C 308.331 35.682,309.065 36.402,308.924 36.543 C 308.782 36.684,308.864 36.800,309.105 36.800 C 309.346 36.800,309.834 37.091,310.190 37.448 C 310.547 37.804,310.941 37.992,311.067 37.867 C 311.447 37.486,306.682 33.600,305.836 33.600 C 305.597 33.600,306.253 34.204,307.292 34.943 M316.143 42.274 C 315.724 42.424,320.892 48.000,321.452 48.000 C 321.769 48.000,320.913 46.899,319.507 45.497 C 318.898 44.890,318.400 44.215,318.400 43.997 C 318.400 43.778,318.158 43.600,317.861 43.600 C 317.565 43.600,317.160 43.265,316.961 42.855 C 316.763 42.445,316.395 42.183,316.143 42.274 M326.035 53.354 C 326.535 53.929,327.024 54.400,327.121 54.400 C 327.480 54.400,326.114 52.638,325.629 52.476 C 325.352 52.384,325.535 52.779,326.035 53.354 M328.640 56.670 C 328.882 56.851,329.294 57.405,329.554 57.900 C 329.815 58.395,330.247 58.797,330.514 58.794 C 330.818 58.790,330.850 58.677,330.600 58.494 C 330.380 58.332,330.007 57.851,329.771 57.424 C 329.536 56.997,329.086 56.578,328.771 56.493 C 328.397 56.392,328.352 56.453,328.640 56.670 M331.600 60.357 C 331.600 60.554,331.885 60.824,332.233 60.957 C 333.211 61.333,333.308 61.251,332.657 60.600 C 331.977 59.920,331.600 59.833,331.600 60.357 M333.776 63.562 C 333.925 63.803,334.337 64.000,334.690 64.000 C 335.044 64.000,335.220 64.114,335.081 64.253 C 334.756 64.577,335.509 66.000,336.006 66.000 C 336.660 66.000,334.967 63.407,334.219 63.262 C 333.781 63.177,333.610 63.292,333.776 63.562 M46.192 105.400 C 46.192 124.980,46.240 132.931,46.300 123.070 C 46.360 113.208,46.359 97.188,46.300 87.470 C 46.240 77.751,46.191 85.820,46.192 105.400 M81.600 105.400 C 81.600 128.930,81.734 140.764,82.000 140.600 C 82.552 140.259,82.552 70.541,82.000 70.200 C 81.734 70.036,81.600 81.870,81.600 105.400 M354.219 101.940 C 354.055 102.457,354.095 103.055,354.307 103.267 C 354.837 103.797,355.168 102.821,354.804 101.800 C 354.532 101.038,354.504 101.045,354.219 101.940 M354.967 104.656 C 355.024 105.041,355.265 105.422,355.503 105.501 C 355.741 105.580,355.890 105.330,355.833 104.944 C 355.776 104.559,355.535 104.178,355.297 104.099 C 355.059 104.020,354.910 104.270,354.967 104.656 M355.710 107.200 C 355.743 107.640,355.912 108.000,356.085 108.000 C 356.258 108.000,356.400 107.640,356.400 107.200 C 356.400 106.760,356.231 106.400,356.025 106.400 C 355.819 106.400,355.677 106.760,355.710 107.200 M356.400 109.976 C 356.400 110.772,356.921 111.345,357.301 110.966 C 357.614 110.652,357.164 109.200,356.753 109.200 C 356.559 109.200,356.400 109.549,356.400 109.976 M357.200 112.357 C 357.200 112.774,357.442 113.207,357.738 113.321 C 358.123 113.468,358.223 113.254,358.091 112.563 C 357.873 111.423,357.200 111.268,357.200 112.357 M358.028 114.676 C 358.013 115.158,358.180 115.664,358.400 115.800 C 358.873 116.092,358.873 115.701,358.400 114.600 C 358.069 113.829,358.055 113.831,358.028 114.676 M358.800 118.800 C 358.800 119.240,358.980 119.600,359.200 119.600 C 359.420 119.600,359.600 119.240,359.600 118.800 C 359.600 118.360,359.420 118.000,359.200 118.000 C 358.980 118.000,358.800 118.360,358.800 118.800 M359.600 122.576 C 359.600 123.139,359.780 123.600,360.000 123.600 C 360.220 123.600,360.400 123.251,360.400 122.824 C 360.400 122.397,360.220 121.936,360.000 121.800 C 359.773 121.660,359.600 121.996,359.600 122.576 M360.400 126.000 C 360.400 126.730,360.566 127.145,360.800 127.000 C 361.020 126.864,361.200 126.414,361.200 126.000 C 361.200 125.586,361.020 125.136,360.800 125.000 C 360.566 124.855,360.400 125.270,360.400 126.000 M361.200 129.600 C 361.200 130.040,361.380 130.400,361.600 130.400 C 361.820 130.400,362.000 130.040,362.000 129.600 C 362.000 129.160,361.820 128.800,361.600 128.800 C 361.380 128.800,361.200 129.160,361.200 129.600 M362.006 132.700 C 362.003 133.415,362.180 134.000,362.400 134.000 C 362.908 134.000,362.908 132.786,362.400 132.000 C 362.106 131.545,362.011 131.714,362.006 132.700 M362.800 136.776 C 362.800 137.229,362.980 137.600,363.200 137.600 C 363.420 137.600,363.600 137.341,363.600 137.024 C 363.600 136.707,363.420 136.336,363.200 136.200 C 362.980 136.064,362.800 136.323,362.800 136.776 M363.867 139.867 C 363.501 140.232,363.529 142.000,363.900 141.999 C 364.065 141.999,364.238 141.459,364.284 140.799 C 364.371 139.552,364.313 139.421,363.867 139.867 M364.400 144.400 C 364.400 144.840,364.542 145.200,364.715 145.200 C 364.888 145.200,365.057 144.840,365.090 144.400 C 365.123 143.960,364.981 143.600,364.775 143.600 C 364.569 143.600,364.400 143.960,364.400 144.400 M365.206 147.700 C 365.211 148.428,365.286 148.485,365.600 148.000 C 366.101 147.224,366.101 146.800,365.600 146.800 C 365.380 146.800,365.203 147.205,365.206 147.700 M367.459 157.905 C 367.355 158.073,367.496 158.633,367.773 159.149 C 368.272 160.081,368.276 160.079,368.311 158.844 C 368.344 157.689,367.897 157.196,367.459 157.905 M368.400 161.957 C 368.400 162.667,368.569 163.143,368.775 163.015 C 368.982 162.888,369.078 162.403,368.988 161.937 C 368.723 160.559,368.400 160.570,368.400 161.957 M198.400 281.920 L 198.600 400.200 198.701 282.221 C 198.756 217.332,198.666 164.106,198.501 163.941 C 198.335 163.775,198.290 216.866,198.400 281.920 M370.000 169.600 C 370.000 170.040,370.169 170.400,370.375 170.400 C 370.581 170.400,370.723 170.040,370.690 169.600 C 370.657 169.160,370.488 168.800,370.315 168.800 C 370.142 168.800,370.000 169.160,370.000 169.600 M372.178 180.035 C 372.031 180.274,372.110 180.670,372.355 180.915 C 372.682 181.242,372.800 181.126,372.800 180.480 C 372.800 179.514,372.592 179.365,372.178 180.035 M372.800 183.553 C 372.800 184.213,372.980 184.864,373.200 185.000 C 373.433 185.144,373.600 184.745,373.600 184.047 C 373.600 183.387,373.420 182.736,373.200 182.600 C 372.967 182.456,372.800 182.855,372.800 183.553 M373.600 187.600 C 373.600 188.260,373.780 188.800,374.000 188.800 C 374.220 188.800,374.400 188.260,374.400 187.600 C 374.400 186.940,374.220 186.400,374.000 186.400 C 373.780 186.400,373.600 186.940,373.600 187.600 M374.400 190.510 C 374.400 191.083,374.588 191.669,374.818 191.811 C 375.079 191.972,375.185 191.685,375.100 191.050 C 374.911 189.634,374.400 189.240,374.400 190.510 M375.200 194.824 C 375.200 195.537,375.367 195.944,375.600 195.800 C 375.820 195.664,376.000 195.113,376.000 194.576 C 376.000 194.039,375.820 193.600,375.600 193.600 C 375.380 193.600,375.200 194.151,375.200 194.824 M376.000 198.424 C 376.000 198.877,376.180 199.136,376.400 199.000 C 376.620 198.864,376.800 198.493,376.800 198.176 C 376.800 197.859,376.620 197.600,376.400 197.600 C 376.180 197.600,376.000 197.971,376.000 198.424 M376.800 201.976 C 376.800 202.403,376.980 202.864,377.200 203.000 C 377.427 203.140,377.600 202.804,377.600 202.224 C 377.600 201.661,377.420 201.200,377.200 201.200 C 376.980 201.200,376.800 201.549,376.800 201.976 M377.600 205.133 C 377.600 205.830,377.786 206.400,378.014 206.400 C 378.241 206.400,378.368 205.957,378.295 205.415 C 378.093 203.906,377.600 203.706,377.600 205.133 M378.400 209.400 C 378.400 209.950,378.541 210.400,378.713 210.400 C 378.885 210.400,379.063 209.950,379.108 209.400 C 379.154 208.850,379.013 208.400,378.796 208.400 C 378.578 208.400,378.400 208.850,378.400 209.400 M379.212 212.580 C 379.203 213.441,379.320 213.640,379.641 213.319 C 379.958 213.002,379.961 212.668,379.654 212.139 C 379.277 211.491,379.223 211.546,379.212 212.580 M380.267 215.467 C 379.905 215.828,379.928 217.109,380.300 217.337 C 380.465 217.438,380.619 216.999,380.643 216.361 C 380.689 215.109,380.670 215.064,380.267 215.467 M380.812 219.780 C 380.803 220.641,380.920 220.840,381.241 220.519 C 381.558 220.202,381.561 219.868,381.254 219.339 C 380.877 218.691,380.823 218.746,380.812 219.780 M381.600 223.200 C 381.600 223.947,381.707 224.053,382.080 223.680 C 382.453 223.307,382.453 223.093,382.080 222.720 C 381.707 222.347,381.600 222.453,381.600 223.200 M382.400 226.976 C 382.400 227.539,382.580 228.000,382.800 228.000 C 383.020 228.000,383.200 227.651,383.200 227.224 C 383.200 226.797,383.020 226.336,382.800 226.200 C 382.573 226.060,382.400 226.396,382.400 226.976 M383.200 230.510 C 383.200 231.083,383.369 231.657,383.575 231.785 C 383.790 231.917,383.865 231.547,383.751 230.917 C 383.482 229.437,383.200 229.228,383.200 230.510 M384.000 234.376 C 384.000 234.829,384.180 235.200,384.400 235.200 C 384.620 235.200,384.800 234.941,384.800 234.624 C 384.800 234.307,384.620 233.936,384.400 233.800 C 384.180 233.664,384.000 233.923,384.000 234.376 M384.800 237.976 C 384.800 238.429,384.980 238.800,385.200 238.800 C 385.420 238.800,385.600 238.541,385.600 238.224 C 385.600 237.907,385.420 237.536,385.200 237.400 C 384.980 237.264,384.800 237.523,384.800 237.976 M385.600 241.576 C 385.600 242.249,385.780 242.800,386.000 242.800 C 386.220 242.800,386.400 242.361,386.400 241.824 C 386.400 241.287,386.220 240.736,386.000 240.600 C 385.767 240.456,385.600 240.863,385.600 241.576 M386.400 245.200 C 386.400 245.640,386.542 246.000,386.715 246.000 C 386.888 246.000,387.057 245.640,387.090 245.200 C 387.123 244.760,386.981 244.400,386.775 244.400 C 386.569 244.400,386.400 244.760,386.400 245.200 M387.600 252.600 C 387.600 253.177,387.830 253.600,388.145 253.600 C 388.510 253.600,388.626 253.271,388.498 252.600 C 388.393 252.050,388.148 251.600,387.953 251.600 C 387.759 251.600,387.600 252.050,387.600 252.600 M388.636 255.541 C 388.520 255.729,388.660 256.202,388.946 256.594 C 389.404 257.219,389.467 257.227,389.467 256.653 C 389.467 256.294,389.306 256.000,389.110 256.000 C 388.913 256.000,388.864 255.820,389.000 255.600 C 389.136 255.380,389.157 255.200,389.047 255.200 C 388.937 255.200,388.752 255.353,388.636 255.541 M339.791 316.800 C 339.791 336.270,339.840 344.235,339.900 334.500 C 339.960 324.765,339.960 308.835,339.900 299.100 C 339.840 289.365,339.791 297.330,339.791 316.800 M268.800 376.000 C 268.800 397.067,268.873 400.000,269.400 400.000 C 269.927 400.000,270.000 397.067,270.000 376.000 C 270.000 354.933,269.927 352.000,269.400 352.000 C 268.873 352.000,268.800 354.933,268.800 376.000 " stroke="none" fill="#fccca4" fill-rule="evenodd"></path></g></svg>