<svg id="svg" version="1.1" xmlns="http://www.w3.org/2000/svg" xmlns:xlink="http://www.w3.org/1999/xlink" width="400" height="400" viewBox="0, 0, 400,400"><g id="svgg"><path id="path0" d="M181.503 65.700 L 181.400 93.800 153.300 93.903 L 125.200 94.005 125.200 112.603 L 125.200 131.200 153.400 131.200 L 181.600 131.200 181.600 159.200 L 181.600 187.200 199.997 187.200 L 218.395 187.200 218.497 159.300 L 218.600 131.400 246.700 131.297 L 274.800 131.195 274.800 112.600 L 274.800 94.005 246.700 93.903 L 218.600 93.800 218.497 65.700 L 218.395 37.600 200.000 37.600 L 181.605 37.600 181.503 65.700 " stroke="none" fill="#fcfcfc" fill-rule="evenodd"></path><path id="path1" d="M180.897 65.500 L 180.995 93.800 181.100 65.700 L 181.205 37.600 200.000 37.600 L 218.795 37.600 218.900 65.700 L 219.005 93.800 219.103 65.500 L 219.200 37.200 200.000 37.200 L 180.800 37.200 180.897 65.500 M124.800 131.300 C 124.800 131.465,137.400 131.600,152.800 131.600 L 180.800 131.600 180.800 159.800 L 180.800 188.000 200.000 188.000 L 219.200 188.000 219.200 159.800 L 219.200 131.600 247.200 131.600 C 262.600 131.600,275.200 131.465,275.200 131.300 C 275.200 131.135,262.510 131.047,247.000 131.105 L 218.800 131.211 218.800 159.405 L 218.800 187.600 200.000 187.600 L 181.200 187.600 181.200 159.405 L 181.200 131.211 153.000 131.105 C 137.490 131.047,124.800 131.135,124.800 131.300 M346.400 307.600 C 346.400 308.347,346.507 308.453,346.880 308.080 C 347.253 307.707,347.253 307.493,346.880 307.120 C 346.507 306.747,346.400 306.853,346.400 307.600 " stroke="none" fill="#c44c34" fill-rule="evenodd"></path><path id="path2" d="M187.822 12.534 C 187.421 12.828,186.647 12.983,186.103 12.879 C 185.517 12.767,184.972 12.916,184.764 13.245 C 184.511 13.644,184.411 13.660,184.406 13.300 C 184.403 13.025,184.209 12.800,183.976 12.800 C 183.743 12.800,183.651 12.959,183.771 13.153 C 183.891 13.347,183.407 13.529,182.695 13.557 C 181.983 13.586,180.819 13.630,180.109 13.657 C 179.399 13.684,178.902 13.841,179.005 14.008 C 179.107 14.174,178.968 14.302,178.696 14.292 C 177.191 14.238,174.704 14.520,175.305 14.677 C 175.693 14.778,175.912 15.019,175.792 15.213 C 175.672 15.407,175.292 15.457,174.947 15.324 C 174.602 15.192,174.164 15.335,173.974 15.642 C 173.575 16.288,172.802 16.399,172.136 15.905 C 171.863 15.703,171.560 15.741,171.402 15.997 C 171.254 16.236,170.823 16.334,170.444 16.214 C 170.055 16.091,169.381 16.344,168.895 16.798 C 168.421 17.239,167.675 17.600,167.237 17.600 C 166.798 17.600,166.237 17.915,165.990 18.300 C 165.561 18.967,165.550 18.967,165.757 18.300 C 165.899 17.844,165.762 17.600,165.364 17.600 C 165.028 17.600,164.852 17.761,164.974 17.958 C 165.325 18.526,163.972 19.048,161.800 19.182 C 160.755 19.247,160.703 19.301,161.400 19.600 C 162.109 19.905,162.075 19.947,161.100 19.972 C 160.495 19.987,160.000 20.180,160.000 20.400 C 160.000 20.620,159.865 20.779,159.700 20.753 C 158.505 20.564,157.447 20.843,158.000 21.200 C 158.452 21.492,158.254 21.592,157.200 21.607 C 155.683 21.627,154.701 22.198,154.288 23.300 C 154.143 23.685,153.680 24.000,153.258 24.000 C 152.313 24.000,150.351 24.984,150.358 25.455 C 150.361 25.645,149.946 25.745,149.435 25.678 C 148.800 25.595,148.185 25.940,147.485 26.772 C 146.899 27.469,146.395 27.786,146.305 27.515 C 146.204 27.212,145.547 27.467,144.480 28.221 C 143.500 28.914,142.894 29.625,143.011 29.945 C 143.141 30.302,143.001 30.409,142.605 30.257 C 142.272 30.129,142.000 30.199,142.000 30.413 C 142.000 30.626,141.865 30.779,141.700 30.753 C 140.899 30.626,140.400 30.851,140.400 31.338 C 140.400 31.634,140.009 32.219,139.531 32.638 C 139.053 33.057,138.794 33.175,138.955 32.900 C 139.116 32.625,139.048 32.400,138.805 32.400 C 138.205 32.400,136.388 34.254,136.691 34.558 C 136.824 34.691,136.588 34.806,136.167 34.813 C 135.275 34.827,133.502 36.289,132.813 37.576 C 132.550 38.067,132.238 38.372,132.120 38.253 C 131.823 37.957,130.800 39.030,130.800 39.638 C 130.800 39.910,130.699 40.032,130.576 39.909 C 130.213 39.546,128.430 41.542,128.161 42.611 C 128.026 43.152,127.781 43.512,127.617 43.411 C 127.095 43.088,124.964 44.974,125.102 45.637 C 125.175 45.987,124.922 46.527,124.540 46.837 C 123.990 47.283,123.914 47.288,124.172 46.859 C 124.387 46.501,124.141 46.551,123.449 47.005 C 122.483 47.638,121.893 48.361,122.800 47.800 C 123.020 47.664,123.197 47.698,123.194 47.876 C 123.182 48.503,122.591 49.095,121.700 49.373 C 121.205 49.528,120.800 49.816,120.800 50.014 C 120.800 50.213,121.092 50.263,121.449 50.126 C 122.000 49.914,121.990 50.003,121.377 50.718 C 120.981 51.181,120.509 51.468,120.329 51.356 C 120.148 51.244,120.000 51.356,120.000 51.605 C 120.000 52.249,118.950 53.216,118.614 52.881 C 118.460 52.726,118.393 52.870,118.467 53.200 C 118.540 53.530,118.381 53.757,118.114 53.705 C 117.847 53.652,117.723 53.856,117.839 54.157 C 117.954 54.458,117.618 55.042,117.092 55.456 C 116.566 55.870,116.219 56.456,116.320 56.760 C 116.423 57.069,116.322 57.199,116.089 57.055 C 115.838 56.900,115.752 57.097,115.872 57.554 C 115.981 57.970,115.846 58.448,115.573 58.617 C 115.255 58.813,115.178 58.759,115.359 58.466 C 115.543 58.169,115.421 58.094,115.014 58.250 C 114.668 58.383,114.410 58.696,114.440 58.946 C 114.562 59.958,114.363 60.358,113.620 60.594 C 113.133 60.748,112.927 61.067,113.072 61.443 C 113.202 61.781,112.926 62.396,112.443 62.846 C 111.969 63.287,111.687 63.817,111.815 64.024 C 111.943 64.231,111.862 64.400,111.636 64.400 C 111.410 64.400,111.329 64.672,111.457 65.005 C 111.620 65.430,111.505 65.539,111.069 65.371 C 110.604 65.193,110.382 65.491,110.180 66.567 C 110.032 67.355,109.751 68.000,109.555 68.000 C 109.360 68.000,109.200 68.450,109.200 69.000 C 109.200 69.550,109.020 70.000,108.800 70.000 C 108.580 70.000,108.400 70.360,108.400 70.800 C 108.400 71.240,108.220 71.600,108.000 71.600 C 107.780 71.600,107.600 71.791,107.600 72.024 C 107.600 72.257,107.780 72.336,108.000 72.200 C 108.220 72.064,108.400 72.143,108.400 72.376 C 108.400 72.609,108.212 72.800,107.982 72.800 C 107.753 72.800,107.618 73.115,107.682 73.500 C 107.748 73.891,107.579 74.156,107.300 74.100 C 106.987 74.037,106.800 74.458,106.800 75.224 C 106.800 75.937,106.633 76.344,106.400 76.200 C 106.180 76.064,106.000 76.218,106.000 76.543 C 106.000 76.868,105.775 77.225,105.500 77.336 C 105.116 77.492,105.132 77.631,105.565 77.933 C 106.047 78.270,106.040 78.417,105.512 78.945 C 105.173 79.284,104.784 79.450,104.648 79.314 C 104.511 79.178,104.400 79.367,104.400 79.733 C 104.400 80.100,104.587 80.400,104.816 80.400 C 105.044 80.400,104.849 80.805,104.382 81.300 C 103.730 81.991,103.578 82.544,103.726 83.684 C 103.854 84.668,103.731 85.325,103.360 85.633 C 103.052 85.889,102.800 86.331,102.800 86.616 C 102.800 86.900,102.575 87.224,102.300 87.335 C 102.010 87.452,102.104 87.550,102.524 87.568 C 102.922 87.586,103.134 87.783,102.996 88.007 C 102.858 88.230,102.532 88.286,102.272 88.130 C 102.013 87.974,102.070 88.186,102.400 88.600 C 102.750 89.039,102.791 89.228,102.500 89.053 C 102.152 88.844,102.000 89.064,102.000 89.776 C 102.000 90.339,101.820 90.800,101.600 90.800 C 101.380 90.800,101.200 90.991,101.200 91.224 C 101.200 91.457,101.350 91.555,101.533 91.441 C 101.717 91.328,101.867 91.489,101.867 91.800 C 101.867 92.111,101.717 92.272,101.533 92.159 C 101.350 92.045,101.200 92.133,101.200 92.353 C 101.200 92.573,101.381 92.865,101.603 93.002 C 101.853 93.156,101.777 93.480,101.403 93.854 C 100.675 94.583,100.601 95.367,101.300 94.947 C 101.681 94.718,101.694 94.783,101.355 95.223 C 100.864 95.858,100.817 96.121,100.688 98.915 C 100.640 99.968,100.398 100.958,100.152 101.115 C 99.563 101.490,99.415 122.400,100.001 122.400 C 100.221 122.400,100.400 122.591,100.400 122.824 C 100.400 123.057,100.220 123.136,100.000 123.000 C 99.774 122.860,99.600 123.188,99.600 123.753 C 99.600 124.303,99.780 124.864,100.000 125.000 C 100.220 125.136,100.400 126.047,100.400 127.024 C 100.400 128.175,100.576 128.802,100.900 128.806 C 101.234 128.810,101.201 128.943,100.800 129.206 C 100.308 129.529,100.297 129.662,100.734 129.945 C 101.028 130.134,101.253 130.404,101.234 130.545 C 101.215 130.685,101.218 130.935,101.239 131.100 C 101.261 131.265,101.280 132.030,101.283 132.800 C 101.286 133.570,101.461 134.414,101.673 134.676 C 101.885 134.938,102.109 135.658,102.171 136.276 C 102.330 137.863,103.132 139.689,103.555 139.428 C 103.752 139.306,103.852 139.831,103.778 140.593 C 103.704 141.356,103.814 142.085,104.022 142.213 C 104.230 142.342,104.400 142.897,104.400 143.447 C 104.400 144.103,104.559 144.349,104.863 144.161 C 105.180 143.965,105.255 144.146,105.101 144.737 C 104.977 145.211,105.041 145.702,105.244 145.827 C 105.447 145.953,105.504 146.232,105.370 146.449 C 105.042 146.979,107.135 151.198,107.729 151.206 C 108.004 151.210,107.950 151.374,107.600 151.600 C 107.052 151.954,107.320 152.177,108.127 152.038 C 108.306 152.008,108.421 152.301,108.381 152.691 C 108.193 154.520,108.415 155.200,109.200 155.200 C 109.658 155.200,110.000 155.467,110.000 155.824 C 110.000 156.167,109.820 156.336,109.600 156.200 C 109.380 156.064,109.200 156.131,109.200 156.349 C 109.200 156.568,109.578 156.866,110.039 157.012 C 110.659 157.209,110.831 157.524,110.698 158.219 C 110.588 158.796,110.738 159.244,111.085 159.377 C 111.396 159.497,111.538 159.777,111.400 160.000 C 111.262 160.223,111.441 160.518,111.798 160.654 C 112.154 160.791,112.351 161.150,112.236 161.451 C 111.969 162.147,113.554 164.875,114.049 164.570 C 114.253 164.444,114.370 164.579,114.310 164.870 C 114.249 165.162,114.408 165.361,114.662 165.313 C 114.916 165.265,115.233 165.510,115.367 165.857 C 115.548 166.329,115.431 166.427,114.905 166.244 C 114.238 166.011,114.237 166.027,114.894 166.539 C 115.275 166.836,115.455 167.225,115.294 167.403 C 115.132 167.582,115.295 167.622,115.655 167.494 C 116.151 167.316,116.260 167.448,116.107 168.036 C 115.948 168.643,116.054 168.754,116.598 168.545 C 117.165 168.328,117.242 168.436,117.020 169.137 C 116.815 169.784,116.889 169.941,117.322 169.774 C 117.639 169.653,118.008 169.843,118.144 170.198 C 118.287 170.572,118.225 170.739,117.995 170.597 C 117.778 170.463,117.600 170.543,117.600 170.776 C 117.600 171.009,117.859 171.200,118.176 171.200 C 118.493 171.200,118.881 171.408,119.038 171.662 C 119.230 171.972,119.146 172.014,118.783 171.790 C 118.486 171.606,118.677 172.073,119.207 172.828 C 120.175 174.206,120.607 174.571,120.982 174.330 C 121.229 174.172,122.573 176.040,122.615 176.599 C 122.677 177.415,123.300 178.400,123.754 178.400 C 124.208 178.400,125.600 179.782,125.600 180.233 C 125.600 180.671,126.709 181.558,126.952 181.314 C 127.089 181.178,127.200 181.287,127.200 181.557 C 127.200 181.827,127.378 181.937,127.595 181.803 C 127.821 181.664,127.890 181.821,127.757 182.169 C 127.509 182.815,128.531 184.136,128.952 183.714 C 129.089 183.578,129.200 183.761,129.200 184.121 C 129.200 184.540,129.417 184.692,129.805 184.543 C 130.228 184.381,130.339 184.495,130.174 184.924 C 130.011 185.349,130.223 185.577,130.869 185.668 C 131.528 185.761,131.762 186.020,131.670 186.554 C 131.579 187.083,131.717 187.241,132.132 187.081 C 132.465 186.953,133.048 187.233,133.462 187.720 C 134.101 188.470,134.106 188.514,133.500 188.044 C 132.629 187.370,132.581 187.724,133.429 188.571 C 134.177 189.320,134.970 189.411,134.555 188.700 C 134.394 188.425,134.653 188.543,135.131 188.962 C 136.065 189.781,136.292 190.228,135.538 189.762 C 135.246 189.582,135.185 189.652,135.372 189.954 C 135.534 190.217,135.997 190.328,136.400 190.200 C 136.803 190.072,137.247 190.153,137.387 190.379 C 137.538 190.624,137.390 190.694,137.021 190.553 C 136.679 190.422,136.400 190.518,136.400 190.767 C 136.400 191.016,136.940 191.328,137.600 191.460 C 138.264 191.593,138.800 191.956,138.800 192.274 C 138.800 192.589,138.980 192.736,139.200 192.600 C 139.420 192.464,139.600 192.500,139.600 192.680 C 139.600 192.860,139.979 193.244,140.442 193.533 C 141.058 193.918,141.202 193.927,140.980 193.568 C 140.779 193.243,140.842 193.179,141.165 193.379 C 141.434 193.545,141.543 193.972,141.406 194.328 C 141.270 194.684,141.282 194.851,141.435 194.698 C 141.765 194.369,144.000 195.615,144.000 196.129 C 144.000 196.325,144.264 196.384,144.587 196.260 C 144.910 196.136,145.271 196.192,145.390 196.383 C 145.508 196.575,145.379 196.823,145.102 196.934 C 144.826 197.046,145.005 197.151,145.500 197.168 C 145.995 197.186,146.400 197.380,146.400 197.600 C 146.400 197.820,146.895 198.013,147.500 198.028 C 148.475 198.053,148.509 198.095,147.800 198.400 C 147.094 198.703,147.131 198.747,148.113 198.772 C 148.724 198.787,149.324 199.059,149.446 199.375 C 149.573 199.706,149.935 199.846,150.299 199.707 C 150.717 199.546,150.833 199.622,150.642 199.932 C 150.467 200.216,150.608 200.400,151.000 200.400 C 151.356 200.400,151.533 200.584,151.394 200.810 C 151.255 201.035,151.289 201.194,151.470 201.163 C 152.378 201.005,153.219 201.245,153.000 201.599 C 152.858 201.830,153.144 201.957,153.677 201.899 C 154.267 201.836,154.560 201.991,154.490 202.330 C 154.429 202.624,154.574 202.740,154.815 202.591 C 155.055 202.443,155.593 202.632,156.012 203.011 C 156.462 203.418,157.116 203.611,157.610 203.482 C 158.297 203.302,158.362 203.364,157.974 203.831 C 157.592 204.292,157.659 204.400,158.327 204.400 C 158.781 204.400,159.266 204.583,159.404 204.807 C 159.542 205.030,159.824 205.109,160.030 204.981 C 160.237 204.854,160.499 204.992,160.612 205.288 C 160.792 205.757,161.591 205.982,163.500 206.102 C 163.775 206.119,164.000 206.283,164.000 206.467 C 164.000 206.650,164.371 206.800,164.824 206.800 C 165.336 206.800,165.541 206.972,165.367 207.254 C 165.173 207.567,165.467 207.652,166.319 207.527 C 166.997 207.427,167.517 207.517,167.476 207.727 C 167.434 207.937,167.895 208.249,168.500 208.420 C 169.105 208.591,169.600 208.605,169.600 208.451 C 169.600 208.297,169.947 208.171,170.371 208.171 C 170.794 208.171,171.054 208.313,170.947 208.486 C 170.840 208.659,171.033 208.800,171.376 208.800 C 171.719 208.800,172.000 208.980,172.000 209.200 C 172.000 209.420,172.630 209.600,173.400 209.600 C 174.170 209.600,174.800 209.780,174.800 210.000 C 174.800 210.220,174.991 210.400,175.224 210.400 C 175.457 210.400,175.536 210.220,175.400 210.000 C 175.264 209.780,175.433 209.600,175.776 209.600 C 176.119 209.600,176.400 209.780,176.400 210.000 C 176.400 210.220,176.749 210.400,177.176 210.400 C 177.603 210.400,178.064 210.580,178.200 210.800 C 178.336 211.020,178.662 211.197,178.924 211.194 C 179.210 211.190,179.161 211.033,178.800 210.800 C 178.317 210.488,178.381 210.411,179.124 210.406 C 179.639 210.403,179.938 210.577,179.800 210.800 C 179.653 211.039,180.137 211.200,181.000 211.200 C 181.796 211.200,182.353 211.353,182.237 211.541 C 182.121 211.728,183.135 211.914,184.490 211.955 C 185.844 211.996,187.143 212.182,187.376 212.369 C 187.967 212.842,191.600 212.857,191.600 212.385 C 191.600 212.173,191.791 212.000,192.024 212.000 C 192.257 212.000,192.333 212.185,192.193 212.411 C 192.021 212.689,194.685 212.810,200.369 212.784 C 205.983 212.758,208.800 212.604,208.800 212.323 C 208.800 212.049,208.995 212.064,209.359 212.366 C 209.974 212.876,212.868 212.834,212.551 212.320 C 212.442 212.144,213.073 212.000,213.953 212.000 C 214.833 212.000,215.664 211.820,215.800 211.600 C 215.936 211.380,216.352 211.213,216.724 211.228 C 217.275 211.251,217.252 211.320,216.600 211.600 C 215.896 211.902,215.935 211.947,216.924 211.972 C 217.576 211.988,217.944 211.832,217.800 211.600 C 217.653 211.361,218.137 211.200,219.000 211.200 C 219.863 211.200,220.347 211.039,220.200 210.800 C 220.064 210.580,220.143 210.400,220.376 210.400 C 220.609 210.400,220.803 210.625,220.806 210.900 C 220.811 211.274,220.898 211.265,221.151 210.866 C 221.337 210.572,221.604 210.347,221.745 210.366 C 221.885 210.385,222.135 210.379,222.300 210.354 C 222.465 210.329,222.899 210.337,223.265 210.373 C 223.630 210.409,224.046 210.250,224.188 210.019 C 224.331 209.789,225.077 209.600,225.847 209.600 C 226.679 209.600,227.147 209.438,227.000 209.200 C 226.864 208.980,226.928 208.800,227.143 208.800 C 227.358 208.800,227.625 209.025,227.736 209.300 C 227.868 209.624,228.055 209.659,228.270 209.400 C 228.990 208.528,230.333 208.004,230.540 208.514 C 230.678 208.856,230.746 208.863,230.768 208.537 C 230.786 208.275,231.148 208.166,231.606 208.286 C 232.261 208.457,232.359 208.356,232.131 207.748 C 231.883 207.088,231.930 207.065,232.525 207.549 C 232.899 207.853,233.200 207.914,233.200 207.686 C 233.200 207.460,233.588 207.376,234.063 207.500 C 234.610 207.644,234.830 207.572,234.665 207.305 C 234.522 207.073,234.683 206.777,235.023 206.646 C 235.377 206.511,235.537 206.578,235.397 206.805 C 235.009 207.433,235.479 207.264,236.245 206.500 C 236.631 206.115,237.409 205.800,237.973 205.800 C 238.591 205.800,238.959 205.597,238.897 205.292 C 238.828 204.952,239.129 204.844,239.805 204.967 C 240.376 205.070,240.715 204.987,240.585 204.775 C 240.357 204.407,240.904 204.240,241.906 204.372 C 242.185 204.408,242.365 204.204,242.306 203.919 C 242.243 203.611,242.562 203.413,243.092 203.431 C 243.744 203.453,243.876 203.332,243.583 202.979 C 243.292 202.629,243.455 202.444,244.179 202.306 C 244.727 202.201,245.081 202.270,244.964 202.458 C 244.617 203.019,245.211 202.846,245.861 202.196 C 246.193 201.864,246.658 201.712,246.894 201.858 C 247.149 202.015,247.207 201.936,247.038 201.662 C 246.764 201.218,247.240 201.032,248.300 201.170 C 248.575 201.206,248.800 201.047,248.800 200.818 C 248.800 200.588,249.160 200.400,249.600 200.400 C 250.040 200.400,250.400 200.220,250.400 200.000 C 250.400 199.780,250.805 199.587,251.300 199.572 C 252.159 199.545,252.163 199.528,251.400 199.200 C 250.604 198.858,251.111 198.616,252.300 198.770 C 252.575 198.806,252.800 198.563,252.800 198.230 C 252.800 197.858,253.030 197.713,253.397 197.854 C 253.737 197.985,254.099 197.808,254.239 197.444 C 254.373 197.092,254.645 196.904,254.842 197.026 C 255.039 197.148,255.200 197.057,255.200 196.824 C 255.200 196.591,255.605 196.387,256.100 196.372 C 256.959 196.345,256.963 196.328,256.200 196.000 C 255.488 195.694,255.520 195.653,256.487 195.628 C 257.332 195.606,257.518 195.451,257.319 194.934 C 257.157 194.511,257.222 194.366,257.498 194.537 C 257.736 194.684,258.023 194.579,258.134 194.302 C 258.282 193.935,258.345 193.951,258.368 194.361 C 258.391 194.766,258.595 194.702,259.100 194.133 C 259.485 193.700,260.112 193.229,260.493 193.087 C 260.875 192.946,261.097 192.598,260.989 192.314 C 260.880 192.031,261.171 191.560,261.637 191.270 C 262.268 190.876,262.405 190.868,262.176 191.238 C 261.958 191.591,262.072 191.658,262.567 191.468 C 262.951 191.321,263.351 191.200,263.456 191.200 C 263.561 191.200,263.549 191.040,263.428 190.845 C 263.307 190.650,263.511 190.245,263.881 189.945 C 264.456 189.479,264.503 189.484,264.205 189.979 C 264.013 190.297,264.430 190.148,265.132 189.648 C 265.835 189.148,266.323 188.599,266.218 188.428 C 266.112 188.258,266.290 187.776,266.614 187.359 C 267.119 186.707,267.168 186.699,266.958 187.300 C 266.822 187.692,266.909 188.000,267.157 188.000 C 267.401 188.000,267.600 187.730,267.600 187.400 C 267.600 187.070,267.774 186.800,267.987 186.800 C 268.201 186.800,268.274 186.485,268.150 186.100 C 267.971 185.545,268.007 185.517,268.326 185.965 C 268.669 186.448,268.817 186.440,269.345 185.912 C 269.684 185.573,269.850 185.184,269.714 185.048 C 269.578 184.911,269.690 184.800,269.962 184.800 C 270.581 184.800,271.600 183.808,271.600 183.205 C 271.600 182.956,271.811 182.883,272.068 183.042 C 272.385 183.238,272.451 183.111,272.273 182.645 C 272.115 182.233,272.169 182.057,272.409 182.205 C 272.890 182.503,275.000 180.094,275.000 179.246 C 275.000 178.722,276.098 177.502,278.211 175.676 C 278.545 175.388,278.696 174.955,278.547 174.714 C 278.385 174.452,278.461 174.391,278.738 174.562 C 279.012 174.731,279.200 174.593,279.200 174.224 C 279.200 173.881,279.481 173.600,279.824 173.600 C 280.167 173.600,280.344 173.433,280.218 173.229 C 280.092 173.025,280.375 172.735,280.847 172.585 C 281.521 172.371,281.587 172.237,281.153 171.962 C 280.741 171.702,280.830 171.611,281.500 171.606 C 282.131 171.602,282.400 171.361,282.400 170.800 C 282.400 170.360,282.625 169.997,282.900 169.994 C 283.233 169.990,283.200 169.858,282.800 169.600 C 282.207 169.217,282.665 168.989,283.700 169.153 C 283.865 169.179,284.000 168.793,284.000 168.296 C 284.000 167.799,284.360 167.168,284.800 166.893 C 285.240 166.618,285.586 166.170,285.568 165.897 C 285.544 165.505,285.494 165.505,285.335 165.900 C 285.096 166.492,284.400 166.572,284.400 166.008 C 284.400 165.792,284.823 165.509,285.341 165.379 C 286.249 165.151,288.263 162.130,287.810 161.677 C 287.695 161.561,287.600 161.677,287.600 161.933 C 287.600 162.190,287.392 162.400,287.138 162.400 C 286.862 162.400,286.943 162.105,287.339 161.668 C 287.703 161.265,287.866 160.786,287.701 160.604 C 287.535 160.422,287.715 160.386,288.100 160.524 C 288.563 160.690,288.800 160.576,288.800 160.187 C 288.800 159.864,289.001 159.600,289.247 159.600 C 289.496 159.600,289.601 159.247,289.484 158.799 C 289.369 158.359,289.438 158.100,289.638 158.224 C 290.036 158.469,290.978 156.503,290.847 155.700 C 290.802 155.425,290.947 155.200,291.170 155.200 C 291.393 155.200,291.472 154.932,291.346 154.603 C 291.215 154.263,291.392 153.901,291.758 153.761 C 292.111 153.625,292.400 153.184,292.400 152.781 C 292.400 152.377,292.580 151.936,292.800 151.800 C 293.020 151.664,293.200 151.113,293.200 150.576 C 293.200 150.039,293.380 149.600,293.600 149.600 C 293.820 149.600,294.000 149.270,294.000 148.867 C 294.000 148.463,294.125 148.009,294.277 147.856 C 294.429 147.704,294.615 147.179,294.689 146.690 C 294.763 146.200,294.998 145.740,295.212 145.667 C 295.724 145.491,295.714 144.400,295.200 144.400 C 294.980 144.400,294.800 144.209,294.800 143.976 C 294.800 143.743,294.980 143.664,295.200 143.800 C 295.422 143.937,295.603 143.636,295.606 143.124 C 295.611 142.381,295.688 142.317,296.000 142.800 C 296.213 143.130,296.391 143.211,296.394 142.980 C 296.397 142.749,296.175 142.318,295.900 142.021 C 295.495 141.585,295.508 141.544,295.968 141.807 C 296.390 142.048,296.470 141.960,296.281 141.466 C 296.114 141.031,296.229 140.800,296.613 140.800 C 297.010 140.800,297.200 140.374,297.200 139.480 C 297.200 138.754,297.425 137.918,297.700 137.621 C 298.100 137.190,298.100 137.139,297.700 137.365 C 297.425 137.520,297.200 137.472,297.200 137.257 C 297.200 137.042,297.380 136.807,297.599 136.733 C 297.819 136.660,298.028 135.842,298.064 134.917 C 298.100 133.991,298.252 133.309,298.402 133.401 C 298.552 133.494,298.638 133.082,298.592 132.485 C 298.547 131.888,298.755 131.001,299.055 130.514 C 299.733 129.412,299.748 129.069,299.100 129.435 C 298.700 129.661,298.700 129.610,299.100 129.179 C 299.375 128.882,299.600 127.866,299.600 126.920 C 299.600 125.974,299.780 125.200,300.000 125.200 C 300.220 125.200,300.400 124.750,300.400 124.200 C 300.400 123.650,300.175 123.197,299.900 123.194 C 299.558 123.190,299.538 123.095,299.836 122.894 C 300.397 122.515,300.632 103.809,300.071 104.156 C 299.565 104.469,299.687 103.085,300.200 102.700 C 300.466 102.500,300.465 102.300,300.197 102.100 C 299.975 101.935,299.767 101.029,299.735 100.087 C 299.702 99.144,299.515 98.154,299.318 97.887 C 299.121 97.619,298.906 96.230,298.841 94.800 C 298.776 93.370,298.560 92.140,298.361 92.067 C 298.163 91.993,298.000 91.758,298.000 91.543 C 298.000 91.328,298.180 91.264,298.400 91.400 C 298.620 91.536,298.800 91.356,298.800 91.000 C 298.800 90.644,298.620 90.464,298.400 90.600 C 298.173 90.740,298.000 90.404,298.000 89.824 C 298.000 89.261,297.820 88.800,297.600 88.800 C 297.380 88.800,297.203 88.485,297.206 88.100 C 297.211 87.502,297.269 87.487,297.600 88.000 C 297.931 88.513,297.989 88.498,297.994 87.900 C 297.997 87.515,297.820 87.200,297.600 87.200 C 297.380 87.200,297.200 86.829,297.200 86.376 C 297.200 85.923,297.020 85.664,296.800 85.800 C 296.555 85.951,296.400 85.330,296.400 84.200 C 296.400 82.993,296.252 82.444,295.973 82.617 C 295.739 82.762,295.580 82.637,295.621 82.340 C 295.821 80.882,295.587 79.802,295.200 80.400 C 294.903 80.860,294.811 80.715,294.806 79.780 C 294.803 79.109,294.575 78.318,294.300 78.021 C 293.900 77.590,293.900 77.539,294.300 77.765 C 294.575 77.920,294.800 77.857,294.800 77.624 C 294.800 77.391,294.620 77.200,294.400 77.200 C 294.180 77.200,294.000 76.840,294.000 76.400 C 294.000 75.960,293.820 75.600,293.600 75.600 C 293.380 75.600,293.197 75.015,293.194 74.300 C 293.190 73.539,293.060 73.201,292.880 73.484 C 292.660 73.831,292.426 73.734,292.057 73.142 C 291.773 72.688,291.734 72.436,291.970 72.582 C 292.209 72.729,292.400 72.559,292.400 72.200 C 292.400 71.844,292.220 71.664,292.000 71.800 C 291.780 71.936,291.600 71.666,291.600 71.200 C 291.600 70.734,291.459 70.440,291.287 70.547 C 291.114 70.653,290.979 70.259,290.987 69.670 C 290.994 69.082,290.807 68.634,290.571 68.676 C 290.335 68.718,290.155 68.358,290.171 67.876 C 290.188 67.370,289.986 67.043,289.692 67.103 C 289.338 67.174,289.260 66.901,289.435 66.203 C 289.621 65.463,289.528 65.200,289.081 65.200 C 288.672 65.200,288.543 64.940,288.684 64.400 C 288.846 63.781,288.696 63.600,288.023 63.600 C 287.510 63.600,287.261 63.425,287.416 63.175 C 287.560 62.941,287.346 62.370,286.939 61.906 C 286.533 61.442,286.438 61.202,286.730 61.373 C 287.727 61.958,286.353 60.161,285.238 59.423 C 284.667 59.044,284.515 58.834,284.900 58.955 C 285.285 59.076,285.600 59.001,285.600 58.787 C 285.600 58.574,285.420 58.400,285.200 58.400 C 284.980 58.400,284.800 58.158,284.800 57.861 C 284.800 57.565,284.395 57.127,283.900 56.888 C 283.405 56.649,283.232 56.442,283.516 56.427 C 283.854 56.409,283.751 56.099,283.216 55.525 C 282.767 55.043,282.400 54.402,282.400 54.101 C 282.400 53.799,282.220 53.664,282.000 53.800 C 281.780 53.936,281.600 53.844,281.600 53.595 C 281.600 53.346,281.330 52.873,281.000 52.543 C 280.670 52.213,280.400 52.068,280.400 52.220 C 280.400 52.373,280.130 52.274,279.800 52.000 C 279.470 51.726,279.200 51.055,279.200 50.508 C 279.200 49.733,279.049 49.572,278.512 49.778 C 278.134 49.924,277.938 49.929,278.076 49.790 C 278.215 49.652,277.778 49.012,277.105 48.369 C 276.432 47.726,276.101 47.200,276.369 47.200 C 276.703 47.200,276.668 47.011,276.257 46.600 C 275.927 46.270,275.475 46.000,275.252 46.000 C 275.029 46.000,274.719 45.792,274.562 45.538 C 274.385 45.252,274.452 45.185,274.738 45.362 C 274.992 45.519,275.200 45.517,275.200 45.358 C 275.200 45.084,268.233 38.218,267.667 37.934 C 267.520 37.860,267.443 37.671,267.495 37.514 C 267.548 37.357,267.291 37.344,266.926 37.484 C 266.409 37.682,266.323 37.578,266.540 37.013 C 266.781 36.383,266.733 36.358,266.174 36.822 C 265.616 37.285,265.547 37.253,265.664 36.588 C 265.747 36.120,265.565 35.806,265.200 35.787 C 264.097 35.727,263.152 35.103,263.357 34.569 C 263.486 34.232,263.348 34.122,262.975 34.265 C 262.562 34.423,262.464 34.299,262.640 33.840 C 262.822 33.366,262.719 33.256,262.260 33.432 C 261.651 33.666,259.600 31.900,259.600 31.142 C 259.600 30.954,259.465 30.821,259.300 30.847 C 258.265 31.011,257.807 30.783,258.400 30.400 C 258.993 30.017,258.535 29.789,257.500 29.953 C 257.335 29.979,257.200 29.820,257.200 29.600 C 257.200 29.380,256.850 29.200,256.423 29.200 C 255.995 29.200,255.410 28.874,255.123 28.476 C 254.433 27.519,253.362 26.857,253.769 27.638 C 253.929 27.947,253.703 27.795,253.266 27.300 C 252.468 26.395,251.739 26.054,252.200 26.800 C 252.660 27.544,251.781 27.206,251.215 26.421 C 250.907 25.993,250.530 25.719,250.379 25.813 C 249.961 26.071,248.371 24.562,248.707 24.226 C 248.868 24.065,248.820 23.970,248.600 24.014 C 247.655 24.205,246.371 23.971,246.572 23.645 C 246.842 23.209,245.681 22.186,245.323 22.544 C 245.181 22.686,244.704 22.486,244.264 22.101 C 243.684 21.594,243.553 21.566,243.790 22.000 C 244.056 22.488,244.017 22.506,243.579 22.100 C 243.282 21.825,242.722 21.600,242.334 21.600 C 241.946 21.600,241.435 21.240,241.200 20.800 C 240.965 20.360,240.408 20.000,239.962 20.000 C 239.472 20.000,239.261 19.825,239.426 19.557 C 239.609 19.263,239.430 19.200,238.892 19.371 C 238.408 19.525,237.846 19.389,237.490 19.033 C 237.163 18.706,236.769 18.564,236.615 18.718 C 236.461 18.873,236.088 18.661,235.787 18.249 C 235.475 17.823,234.976 17.600,234.631 17.733 C 234.297 17.861,233.783 17.726,233.490 17.433 C 233.197 17.140,232.434 16.900,231.795 16.900 C 231.156 16.900,230.563 16.690,230.478 16.433 C 230.362 16.086,230.154 16.095,229.661 16.470 C 229.297 16.747,229.132 16.817,229.294 16.626 C 229.741 16.098,227.849 15.280,226.180 15.280 C 225.364 15.280,224.543 15.037,224.354 14.740 C 224.131 14.388,224.010 14.363,224.006 14.669 C 224.002 15.001,223.649 14.963,222.805 14.543 C 222.148 14.215,221.400 14.076,221.143 14.235 C 220.850 14.417,220.784 14.350,220.966 14.055 C 221.175 13.717,220.841 13.637,219.776 13.769 C 218.850 13.884,218.095 13.752,217.759 13.417 C 217.413 13.070,216.443 12.915,215.012 12.979 C 213.795 13.033,212.800 12.925,212.800 12.739 C 212.800 12.320,211.729 12.288,211.499 12.700 C 211.407 12.865,211.386 12.775,211.453 12.500 C 211.526 12.202,211.176 12.000,210.587 12.000 C 209.960 12.000,209.600 12.227,209.600 12.624 C 209.600 12.967,209.417 13.134,209.193 12.996 C 208.970 12.858,208.875 12.602,208.983 12.427 C 209.301 11.913,191.892 12.040,191.235 12.556 C 190.815 12.886,190.627 12.872,190.502 12.500 C 190.280 11.841,188.743 11.861,187.822 12.534 M135.086 36.120 C 134.599 36.626,134.126 36.987,134.036 36.923 C 133.802 36.755,135.258 35.200,135.648 35.200 C 135.826 35.200,135.573 35.614,135.086 36.120 M219.200 65.400 L 219.200 93.600 247.200 93.600 L 275.200 93.600 275.200 112.600 L 275.200 131.600 247.200 131.600 L 219.200 131.600 219.200 159.800 L 219.200 188.000 200.000 188.000 L 180.800 188.000 180.800 159.800 L 180.800 131.600 152.800 131.600 L 124.800 131.600 124.800 112.600 L 124.800 93.600 152.800 93.600 L 180.800 93.600 180.800 65.400 L 180.800 37.200 200.000 37.200 L 219.200 37.200 219.200 65.400 M199.019 231.170 C 198.897 231.367,198.919 231.845,199.068 232.233 C 199.280 232.784,199.188 232.881,198.649 232.674 C 198.269 232.528,198.057 232.568,198.177 232.763 C 198.297 232.957,198.126 233.219,197.798 233.346 C 197.469 233.472,197.203 233.806,197.206 234.087 C 197.210 234.451,197.320 234.429,197.584 234.012 C 197.789 233.688,198.041 233.508,198.144 233.612 C 198.247 233.715,197.987 234.225,197.566 234.744 C 197.145 235.264,196.797 235.534,196.794 235.344 C 196.788 234.985,196.408 235.585,194.892 238.346 C 194.392 239.256,194.113 240.000,194.272 240.000 C 194.430 240.000,194.344 240.216,194.080 240.480 C 193.816 240.744,193.597 241.419,193.594 241.980 C 193.589 242.804,193.508 242.885,193.172 242.400 C 192.830 241.905,192.780 241.941,192.887 242.600 C 192.968 243.092,192.706 243.558,192.209 243.810 C 191.764 244.036,191.342 244.623,191.271 245.116 C 191.201 245.609,190.976 245.909,190.771 245.782 C 190.567 245.656,190.400 245.833,190.400 246.176 C 190.400 246.519,190.201 246.800,189.957 246.800 C 189.714 246.800,189.618 247.070,189.745 247.400 C 189.885 247.765,189.745 248.000,189.387 248.000 C 189.064 248.000,188.800 248.180,188.800 248.400 C 188.800 248.620,188.980 248.800,189.200 248.800 C 189.420 248.800,189.600 248.991,189.600 249.224 C 189.600 249.457,189.458 249.560,189.285 249.452 C 189.112 249.345,188.740 249.776,188.460 250.410 C 188.179 251.044,187.601 251.673,187.175 251.808 C 186.749 251.943,186.400 252.232,186.400 252.451 C 186.400 252.669,186.580 252.736,186.800 252.600 C 187.388 252.237,187.287 252.770,186.648 253.410 C 186.344 253.713,185.984 253.850,185.848 253.714 C 185.711 253.578,185.600 253.791,185.600 254.186 C 185.600 254.582,185.252 255.208,184.827 255.577 C 184.350 255.990,184.098 256.647,184.168 257.288 C 184.249 258.028,184.126 258.270,183.741 258.122 C 183.377 257.982,183.200 258.235,183.200 258.896 C 183.200 259.436,182.844 260.288,182.408 260.790 C 181.973 261.292,181.713 261.860,181.832 262.052 C 181.950 262.243,181.810 262.400,181.520 262.400 C 181.230 262.400,180.756 262.779,180.467 263.242 C 180.031 263.939,180.032 264.029,180.470 263.765 C 180.876 263.521,180.870 263.607,180.443 264.133 C 180.137 264.510,179.794 264.728,179.682 264.616 C 179.347 264.281,178.383 266.448,178.664 266.903 C 178.807 267.135,178.742 267.211,178.520 267.074 C 178.298 266.937,177.909 267.281,177.655 267.838 C 177.385 268.431,177.361 268.748,177.597 268.602 C 177.819 268.465,178.000 268.644,178.000 269.000 C 178.000 269.356,177.820 269.536,177.600 269.400 C 177.380 269.264,177.200 269.433,177.200 269.776 C 177.200 270.119,177.009 270.400,176.776 270.400 C 176.543 270.400,176.450 270.557,176.569 270.750 C 176.688 270.942,176.344 271.430,175.806 271.834 C 175.108 272.358,174.967 272.658,175.314 272.879 C 175.691 273.119,175.688 273.189,175.300 273.194 C 175.025 273.197,174.800 273.464,174.800 273.786 C 174.800 274.108,174.440 274.565,174.000 274.800 C 173.560 275.035,173.200 275.584,173.200 276.020 C 173.200 277.146,171.011 280.792,170.530 280.467 C 170.422 280.393,170.213 280.467,170.067 280.631 C 169.920 280.794,170.025 280.799,170.300 280.641 C 170.575 280.482,170.800 280.543,170.800 280.776 C 170.800 281.009,170.620 281.200,170.400 281.200 C 170.180 281.200,170.000 281.468,170.000 281.797 C 170.000 282.125,169.658 282.607,169.240 282.868 C 168.806 283.139,168.578 283.598,168.708 283.937 C 168.854 284.318,168.771 284.429,168.475 284.246 C 168.185 284.067,167.754 284.561,167.313 285.581 C 166.927 286.471,166.429 287.203,166.206 287.206 C 165.983 287.209,166.059 287.376,166.375 287.576 C 166.840 287.870,166.705 288.155,165.675 289.059 C 164.447 290.137,163.800 291.396,164.976 290.420 C 165.470 290.010,165.485 290.087,165.076 290.968 C 164.814 291.532,164.454 291.995,164.276 291.997 C 164.098 291.999,164.081 291.792,164.238 291.538 C 164.421 291.243,164.347 291.185,164.035 291.379 C 163.766 291.545,163.636 291.918,163.747 292.207 C 163.859 292.497,163.714 292.824,163.426 292.935 C 163.138 293.045,162.953 293.588,163.013 294.140 C 163.096 294.899,162.974 295.088,162.517 294.913 C 162.021 294.723,161.961 294.911,162.187 295.940 C 162.412 296.963,162.351 297.156,161.862 296.969 C 161.136 296.690,160.298 298.068,160.644 298.971 C 160.777 299.317,160.726 299.600,160.530 299.600 C 160.128 299.600,159.232 302.435,159.108 304.100 C 159.062 304.705,158.885 305.200,158.713 305.200 C 158.541 305.200,158.400 305.524,158.400 305.920 C 158.400 306.316,158.230 306.811,158.021 307.020 C 157.813 307.229,157.600 308.210,157.547 309.200 C 157.495 310.190,157.322 311.090,157.163 311.200 C 157.005 311.311,156.807 312.301,156.724 313.400 C 156.641 314.500,156.452 315.594,156.305 315.832 C 155.797 316.651,155.996 331.749,156.519 332.088 C 156.886 332.326,156.871 332.483,156.457 332.750 C 156.079 332.994,156.049 333.183,156.357 333.374 C 156.601 333.524,156.800 334.076,156.800 334.600 C 156.800 335.124,156.989 335.669,157.219 335.812 C 157.510 335.991,157.505 336.233,157.203 336.597 C 156.887 336.978,156.891 337.164,157.220 337.273 C 157.470 337.357,157.702 337.914,157.737 338.512 C 157.772 339.110,157.935 339.600,158.100 339.600 C 158.265 339.600,158.400 340.050,158.400 340.600 C 158.400 341.239,158.625 341.600,159.024 341.600 C 159.367 341.600,159.531 341.788,159.389 342.018 C 159.247 342.247,159.311 342.652,159.530 342.918 C 159.749 343.183,160.054 344.073,160.208 344.896 C 160.362 345.720,160.648 346.294,160.844 346.173 C 161.440 345.804,162.086 346.414,161.652 346.937 C 161.196 347.487,162.139 349.009,162.716 348.652 C 162.922 348.525,162.996 348.885,162.884 349.472 C 162.746 350.193,162.826 350.431,163.142 350.236 C 163.421 350.063,163.602 350.236,163.606 350.676 C 163.611 351.290,163.671 351.309,164.000 350.800 C 164.294 350.345,164.389 350.514,164.394 351.500 C 164.400 352.799,164.936 353.245,165.355 352.300 C 165.502 351.969,165.559 352.003,165.525 352.400 C 165.448 353.296,166.033 354.427,166.442 354.174 C 166.639 354.052,166.800 354.142,166.800 354.373 C 166.800 355.028,168.479 356.799,168.870 356.557 C 169.062 356.438,169.170 356.571,169.110 356.852 C 169.049 357.133,169.270 357.380,169.600 357.400 C 169.930 357.420,170.157 357.648,170.104 357.908 C 170.050 358.167,170.590 358.534,171.304 358.724 C 172.169 358.955,172.580 359.298,172.541 359.755 C 172.509 360.131,172.682 360.373,172.927 360.291 C 173.171 360.210,173.771 360.575,174.261 361.103 C 174.750 361.631,175.387 362.121,175.675 362.191 C 177.189 362.557,177.972 362.922,177.809 363.185 C 177.709 363.347,178.116 363.731,178.714 364.039 C 179.311 364.347,179.932 364.779,180.094 364.999 C 180.276 365.248,180.390 365.210,180.394 364.900 C 180.404 364.106,181.121 364.320,181.400 365.200 C 181.540 365.640,181.991 366.000,182.403 366.000 C 182.816 366.000,183.275 366.197,183.423 366.438 C 183.572 366.678,184.123 366.793,184.647 366.693 C 185.274 366.573,185.600 366.697,185.600 367.055 C 185.600 367.355,185.870 367.600,186.200 367.600 C 186.530 367.600,186.800 367.392,186.800 367.139 C 186.800 366.885,187.115 367.020,187.500 367.439 C 188.205 368.206,189.872 368.763,189.458 368.093 C 189.335 367.895,189.489 367.733,189.800 367.733 C 190.111 367.733,190.272 367.883,190.159 368.067 C 190.045 368.250,190.313 368.400,190.753 368.400 C 191.193 368.400,191.664 368.580,191.800 368.800 C 192.151 369.367,194.536 369.297,195.179 368.700 C 195.611 368.299,195.660 368.302,195.424 368.718 C 195.189 369.133,196.276 369.212,200.929 369.120 C 204.117 369.056,206.650 368.881,206.557 368.731 C 206.302 368.317,207.572 368.105,209.795 368.191 C 211.056 368.239,211.994 368.063,212.346 367.711 C 212.653 367.405,213.159 367.252,213.472 367.372 C 213.788 367.493,213.933 367.414,213.797 367.195 C 213.663 366.978,213.976 366.800,214.496 366.800 C 215.015 366.800,215.682 366.575,215.979 366.300 C 216.410 365.900,216.461 365.900,216.235 366.300 C 216.080 366.575,216.143 366.800,216.376 366.800 C 216.609 366.800,216.800 366.620,216.800 366.400 C 216.800 366.180,217.094 366.000,217.453 366.000 C 217.812 366.000,218.442 365.612,218.853 365.139 C 219.365 364.549,219.608 364.454,219.625 364.839 C 219.639 365.147,219.813 364.995,220.012 364.500 C 220.400 363.536,221.190 363.274,221.216 364.100 C 221.225 364.375,221.501 364.105,221.829 363.500 C 222.460 362.337,223.046 361.983,222.655 363.000 C 222.529 363.330,222.599 363.600,222.813 363.600 C 223.026 363.600,223.200 363.420,223.200 363.200 C 223.200 362.980,223.470 362.800,223.800 362.800 C 224.341 362.800,224.578 362.325,224.447 361.500 C 224.421 361.335,224.535 361.221,224.700 361.247 C 226.045 361.460,226.803 361.123,226.832 360.300 C 226.849 359.805,226.956 359.632,227.070 359.916 C 227.224 360.300,227.448 360.240,227.939 359.684 C 228.302 359.273,228.960 358.731,229.400 358.480 C 229.840 358.229,229.975 358.019,229.700 358.012 C 229.425 358.005,229.200 357.801,229.200 357.557 C 229.200 357.314,229.455 357.212,229.767 357.332 C 230.079 357.452,230.437 357.279,230.564 356.949 C 230.691 356.619,230.931 356.417,231.097 356.500 C 231.386 356.645,233.069 355.107,233.293 354.493 C 233.352 354.332,233.535 354.245,233.700 354.300 C 233.865 354.355,233.955 354.265,233.900 354.100 C 233.845 353.935,233.927 353.800,234.083 353.800 C 234.563 353.800,235.574 352.239,235.587 351.476 C 235.594 351.078,235.735 350.835,235.900 350.934 C 236.268 351.157,236.986 350.381,237.040 349.700 C 237.131 348.557,237.217 348.363,237.540 348.563 C 238.011 348.854,238.958 346.979,238.617 346.428 C 238.459 346.172,238.567 346.027,238.870 346.090 C 239.162 346.151,239.424 345.930,239.454 345.600 C 239.483 345.270,239.531 344.730,239.560 344.400 C 239.606 343.867,239.659 343.867,240.034 344.400 C 240.359 344.861,240.420 344.700,240.299 343.710 C 240.164 342.605,240.227 342.490,240.738 342.910 C 241.252 343.332,241.299 343.220,241.077 342.100 C 240.936 341.385,240.950 340.799,241.110 340.797 C 241.270 340.795,241.608 340.345,241.863 339.796 C 242.117 339.248,242.162 338.900,241.963 339.023 C 241.222 339.481,241.630 338.155,242.400 337.600 C 242.975 337.186,243.200 336.565,243.200 335.392 C 243.200 334.494,243.416 333.544,243.680 333.280 C 244.053 332.907,244.053 332.800,243.680 332.800 C 243.416 332.800,243.200 332.609,243.200 332.376 C 243.200 332.143,243.425 332.088,243.700 332.253 C 243.991 332.428,243.950 332.239,243.600 331.800 C 243.250 331.361,243.209 331.172,243.500 331.347 C 243.892 331.582,244.000 330.171,244.000 324.800 C 244.000 321.034,243.850 318.045,243.667 318.159 C 243.483 318.272,243.333 318.111,243.333 317.800 C 243.333 317.489,243.514 317.347,243.735 317.483 C 243.962 317.624,244.036 317.486,243.906 317.166 C 243.092 315.158,243.074 315.075,243.532 315.358 C 243.789 315.517,244.000 315.457,244.000 315.224 C 244.000 314.991,243.820 314.800,243.600 314.800 C 243.380 314.800,243.200 313.911,243.200 312.824 C 243.200 311.737,243.020 310.736,242.800 310.600 C 242.580 310.464,242.400 309.859,242.400 309.256 C 242.400 308.653,242.229 307.989,242.020 307.780 C 241.811 307.571,241.540 306.410,241.417 305.200 C 241.136 302.421,240.300 300.009,239.388 299.342 C 238.805 298.916,238.771 298.717,239.190 298.213 C 239.650 297.657,239.490 297.432,238.714 297.548 C 238.557 297.571,238.535 297.313,238.665 296.975 C 238.800 296.623,238.495 295.913,237.951 295.315 C 237.428 294.741,237.270 294.406,237.600 294.570 C 237.930 294.735,237.750 294.478,237.200 294.000 C 236.650 293.522,236.425 293.247,236.700 293.389 C 236.975 293.531,237.200 293.487,237.200 293.291 C 237.200 293.095,236.744 292.691,236.186 292.393 C 235.628 292.094,235.258 291.625,235.364 291.351 C 235.469 291.076,235.340 290.764,235.078 290.657 C 234.723 290.513,234.728 290.455,235.100 290.432 C 235.375 290.414,235.600 290.226,235.600 290.013 C 235.600 289.799,235.323 289.732,234.984 289.862 C 234.645 289.992,234.404 289.941,234.449 289.749 C 234.661 288.847,233.847 287.252,233.066 287.038 C 232.330 286.836,232.290 286.735,232.800 286.370 C 233.252 286.045,233.276 285.889,232.900 285.736 C 232.625 285.625,232.397 285.143,232.394 284.667 C 232.389 284.016,232.301 283.938,232.038 284.353 C 231.563 285.103,230.278 283.184,230.634 282.256 C 230.822 281.765,230.654 281.600,229.963 281.600 C 229.245 281.600,229.147 281.493,229.520 281.120 C 229.784 280.856,230.000 280.466,230.000 280.253 C 230.000 280.041,229.881 279.986,229.736 280.131 C 229.590 280.276,229.261 279.991,229.003 279.498 C 228.745 279.004,228.294 278.655,228.000 278.723 C 227.578 278.819,227.566 278.723,227.943 278.269 C 228.322 277.813,228.289 277.643,227.785 277.450 C 227.435 277.315,227.241 277.057,227.353 276.876 C 227.465 276.694,227.207 276.293,226.779 275.985 C 226.350 275.676,225.997 275.058,225.994 274.612 C 225.989 273.992,225.905 273.931,225.637 274.353 C 225.383 274.754,225.215 274.534,225.025 273.553 C 224.628 271.510,223.131 268.400,222.544 268.400 C 222.251 268.400,222.124 268.143,222.251 267.810 C 222.464 267.257,221.328 265.711,220.829 265.875 C 220.703 265.916,220.646 265.581,220.703 265.131 C 220.780 264.521,220.641 264.376,220.159 264.561 C 219.694 264.739,219.577 264.638,219.743 264.205 C 219.871 263.872,219.801 263.600,219.587 263.600 C 219.374 263.600,219.221 263.465,219.247 263.300 C 219.376 262.484,219.156 261.980,218.773 262.217 C 218.539 262.362,218.380 262.237,218.421 261.940 C 218.558 260.939,218.402 260.400,217.976 260.400 C 217.743 260.400,217.681 260.608,217.838 260.862 C 218.009 261.139,217.949 261.215,217.686 261.053 C 217.446 260.905,217.318 260.427,217.402 259.992 C 217.485 259.556,217.384 259.200,217.177 259.200 C 216.970 259.200,216.800 258.840,216.800 258.400 C 216.800 257.960,216.620 257.600,216.400 257.600 C 216.180 257.600,216.000 257.352,216.000 257.049 C 216.000 256.269,214.809 255.299,214.775 256.051 C 214.746 256.664,214.023 255.043,213.770 253.801 C 213.681 253.362,213.426 252.942,213.204 252.868 C 212.982 252.794,212.800 252.388,212.800 251.967 C 212.800 251.545,212.620 251.200,212.400 251.200 C 212.180 251.200,212.000 250.859,212.000 250.443 C 212.000 250.026,211.711 249.575,211.358 249.439 C 210.981 249.294,210.814 248.940,210.954 248.576 C 211.089 248.223,211.022 248.063,210.795 248.203 C 210.578 248.337,210.400 248.154,210.400 247.795 C 210.400 247.032,209.408 245.925,209.048 246.286 C 208.911 246.422,208.800 246.143,208.800 245.667 C 208.800 245.190,208.626 244.800,208.413 244.800 C 208.199 244.800,208.123 244.544,208.243 244.231 C 208.364 243.918,208.045 243.245,207.537 242.737 C 207.028 242.228,206.665 241.494,206.731 241.106 C 206.802 240.687,206.601 240.400,206.238 240.400 C 205.847 240.400,205.712 240.174,205.865 239.776 C 206.024 239.360,205.822 239.078,205.256 238.931 C 204.790 238.809,204.507 238.551,204.626 238.358 C 204.885 237.940,204.282 236.755,203.764 236.664 C 203.564 236.629,203.425 236.375,203.456 236.100 C 203.486 235.825,203.340 235.600,203.132 235.600 C 202.923 235.600,202.864 235.420,203.000 235.200 C 203.136 234.980,203.044 234.800,202.797 234.800 C 202.537 234.800,202.448 234.480,202.585 234.046 C 202.769 233.466,202.568 233.226,201.712 233.001 C 200.692 232.733,200.666 232.681,201.400 232.382 C 201.840 232.203,201.975 232.044,201.700 232.028 C 201.425 232.013,201.200 231.769,201.200 231.487 C 201.200 230.899,199.352 230.630,199.019 231.170 M86.436 250.300 C 86.551 251.228,86.002 252.449,85.586 252.191 C 85.404 252.079,85.142 252.170,85.004 252.393 C 84.866 252.617,84.971 252.800,85.238 252.800 C 85.504 252.800,85.335 253.136,84.861 253.547 C 84.388 253.958,84.000 254.406,84.000 254.542 C 84.000 254.679,83.685 255.160,83.300 255.612 C 82.915 256.063,82.600 256.831,82.600 257.316 C 82.600 257.810,82.379 258.156,82.100 258.100 C 81.825 258.045,81.600 258.270,81.600 258.600 C 81.600 258.930,81.417 259.200,81.192 259.200 C 80.951 259.200,80.894 259.634,81.052 260.266 C 81.276 261.159,81.209 261.289,80.639 261.070 C 80.239 260.917,80.058 260.971,80.201 261.201 C 80.479 261.652,79.906 262.840,79.364 262.936 C 79.164 262.971,79.045 263.135,79.100 263.300 C 79.155 263.465,79.001 263.600,78.757 263.600 C 78.514 263.600,78.426 263.890,78.562 264.245 C 78.735 264.696,78.636 264.823,78.231 264.667 C 77.835 264.515,77.572 264.816,77.395 265.623 C 77.253 266.270,76.971 266.800,76.768 266.800 C 76.566 266.800,76.400 267.160,76.400 267.600 C 76.400 268.040,76.226 268.400,76.013 268.400 C 75.799 268.400,75.722 268.652,75.840 268.959 C 75.958 269.267,75.637 269.923,75.127 270.418 C 74.617 270.913,74.423 271.192,74.695 271.038 C 75.027 270.851,75.113 270.962,74.954 271.377 C 74.823 271.717,74.555 271.896,74.358 271.774 C 74.161 271.652,74.000 271.844,74.000 272.200 C 74.000 272.611,73.818 272.738,73.500 272.547 C 73.209 272.372,73.250 272.561,73.600 273.000 C 73.950 273.439,73.991 273.628,73.700 273.453 C 73.389 273.266,73.200 273.379,73.200 273.749 C 73.200 274.078,72.832 274.463,72.383 274.605 C 71.813 274.786,71.637 275.087,71.801 275.603 C 71.930 276.009,71.802 276.489,71.518 276.670 C 70.740 277.165,69.627 278.658,70.368 278.211 C 70.799 277.951,70.872 278.037,70.668 278.567 C 70.521 278.951,70.400 279.441,70.400 279.656 C 70.400 279.871,70.247 279.952,70.059 279.836 C 69.871 279.720,69.376 279.903,68.959 280.242 C 68.542 280.582,68.425 280.745,68.700 280.606 C 68.975 280.467,69.200 280.531,69.200 280.749 C 69.200 280.968,68.840 281.260,68.400 281.400 C 67.889 281.562,67.600 282.005,67.600 282.627 C 67.600 283.162,67.226 283.974,66.769 284.431 C 66.312 284.888,66.036 285.518,66.157 285.831 C 66.425 286.531,65.759 286.594,65.429 285.900 C 65.298 285.625,65.266 285.805,65.358 286.300 C 65.475 286.931,65.327 287.209,64.863 287.232 C 64.452 287.251,64.389 287.340,64.697 287.464 C 65.061 287.611,65.082 287.873,64.777 288.443 C 64.547 288.872,64.198 289.123,64.001 289.001 C 63.803 288.878,63.713 289.146,63.799 289.594 C 63.902 290.131,63.621 290.630,62.978 291.051 C 62.440 291.404,62.000 291.926,62.000 292.213 C 62.000 292.499,61.833 292.793,61.630 292.867 C 61.426 292.940,61.201 293.269,61.130 293.599 C 61.058 293.928,60.730 294.417,60.400 294.686 C 59.982 295.026,59.952 295.178,60.300 295.187 C 61.127 295.208,60.863 296.000,59.900 296.388 C 59.405 296.587,59.225 296.761,59.500 296.775 C 59.775 296.789,60.000 296.991,60.000 297.224 C 60.000 297.457,59.820 297.536,59.600 297.400 C 59.380 297.264,59.200 297.424,59.200 297.757 C 59.200 298.089,58.885 298.544,58.500 298.768 C 58.068 299.020,58.000 299.180,58.324 299.188 C 58.612 299.195,58.734 299.383,58.596 299.607 C 58.458 299.830,58.177 299.909,57.972 299.783 C 57.768 299.656,57.600 299.923,57.600 300.376 C 57.600 300.829,57.420 301.200,57.200 301.200 C 56.980 301.200,56.800 301.549,56.800 301.976 C 56.800 302.403,56.592 302.881,56.338 303.038 C 56.035 303.226,55.976 303.131,56.168 302.762 C 56.328 302.453,56.176 302.549,55.830 302.976 C 55.483 303.404,55.200 304.079,55.200 304.476 C 55.200 304.874,55.042 305.200,54.850 305.200 C 54.658 305.200,54.392 305.742,54.259 306.404 C 54.108 307.162,53.645 307.779,53.012 308.067 C 52.231 308.423,52.106 308.646,52.452 309.063 C 52.782 309.461,52.776 309.600,52.425 309.600 C 52.165 309.600,52.056 309.768,52.183 309.973 C 52.310 310.178,52.031 310.613,51.563 310.941 C 51.026 311.317,50.826 311.732,51.021 312.068 C 51.190 312.361,51.188 312.474,51.017 312.319 C 50.845 312.165,50.456 312.287,50.152 312.590 C 49.513 313.230,49.412 313.763,50.000 313.400 C 50.220 313.264,50.400 313.324,50.400 313.534 C 50.400 313.743,50.127 314.019,49.794 314.147 C 49.124 314.404,48.321 316.073,48.149 317.565 C 48.088 318.095,47.855 318.643,47.630 318.781 C 47.406 318.920,47.310 319.516,47.417 320.106 C 47.573 320.963,47.484 321.130,46.978 320.936 C 46.443 320.731,46.386 320.920,46.616 322.146 C 46.844 323.360,46.775 323.600,46.202 323.600 C 45.731 323.600,45.593 323.805,45.764 324.251 C 45.901 324.609,45.786 325.183,45.507 325.527 C 45.090 326.043,45.098 326.095,45.552 325.821 C 45.936 325.590,46.042 325.658,45.902 326.044 C 45.791 326.350,45.481 326.549,45.213 326.488 C 44.862 326.407,44.790 326.840,44.957 328.028 C 45.139 329.331,45.071 329.636,44.637 329.469 C 44.210 329.306,44.088 329.737,44.099 331.375 C 44.107 332.540,44.017 333.652,43.899 333.846 C 43.465 334.563,43.543 351.283,43.979 351.013 C 44.211 350.870,44.400 351.044,44.400 351.400 C 44.400 351.756,44.220 351.936,44.000 351.800 C 43.780 351.664,43.600 351.733,43.600 351.953 C 43.600 352.173,43.756 352.449,43.946 352.567 C 44.137 352.685,44.223 353.280,44.138 353.890 C 43.993 354.925,44.010 354.939,44.379 354.100 C 44.946 352.810,45.204 352.990,44.802 354.395 C 44.613 355.052,44.609 355.682,44.792 355.795 C 44.975 355.908,45.031 356.358,44.917 356.796 C 44.790 357.283,44.941 357.679,45.310 357.821 C 45.656 357.954,45.831 358.361,45.721 358.779 C 45.602 359.235,45.876 359.748,46.455 360.153 C 46.962 360.509,47.145 360.800,46.860 360.800 C 46.471 360.800,46.490 360.947,46.936 361.393 C 47.270 361.727,47.442 362.382,47.330 362.893 C 47.170 363.620,47.215 363.681,47.559 363.200 C 47.989 362.598,48.166 363.080,48.108 364.696 C 48.098 364.968,48.250 365.093,48.445 364.972 C 48.640 364.851,48.800 364.943,48.800 365.176 C 48.800 365.409,49.070 365.600,49.400 365.600 C 49.730 365.600,50.000 365.780,50.000 366.000 C 50.000 366.220,49.706 366.400,49.346 366.400 C 48.866 366.400,48.967 366.616,49.728 367.215 C 50.353 367.706,50.672 368.268,50.533 368.631 C 50.388 369.008,50.506 369.189,50.851 369.116 C 51.153 369.052,51.348 369.247,51.284 369.549 C 51.214 369.876,51.392 370.012,51.721 369.886 C 52.131 369.728,52.224 369.939,52.080 370.696 C 51.945 371.398,52.028 371.630,52.342 371.436 C 52.608 371.271,52.800 371.404,52.800 371.753 C 52.800 372.155,53.089 372.298,53.671 372.186 C 54.286 372.068,54.417 372.143,54.115 372.445 C 53.691 372.869,56.144 376.000,56.902 376.000 C 57.086 376.000,57.690 376.453,58.244 377.008 C 58.798 377.562,59.400 377.924,59.581 377.812 C 59.761 377.700,60.155 377.922,60.455 378.304 C 60.956 378.943,60.935 378.955,60.200 378.441 C 59.760 378.134,60.206 378.618,61.192 379.517 C 62.340 380.564,63.082 380.990,63.260 380.704 C 63.436 380.417,64.067 380.787,65.008 381.728 C 65.866 382.586,66.871 383.200,67.417 383.200 C 67.933 383.200,68.607 383.560,68.914 383.999 C 69.222 384.439,69.953 384.838,70.537 384.887 C 71.122 384.935,71.600 385.127,71.600 385.312 C 71.600 385.498,72.005 385.594,72.500 385.525 C 73.055 385.448,73.362 385.591,73.300 385.900 C 73.245 386.175,73.470 386.400,73.800 386.400 C 74.130 386.400,74.400 386.192,74.400 385.939 C 74.400 385.685,74.726 385.854,75.126 386.314 C 75.584 386.843,76.299 387.138,77.068 387.116 C 77.737 387.097,78.536 387.243,78.842 387.441 C 79.149 387.638,82.864 387.810,87.099 387.823 C 91.333 387.835,94.578 387.710,94.310 387.544 C 93.610 387.112,94.972 386.647,96.085 386.938 C 96.565 387.064,97.206 386.961,97.510 386.709 C 97.931 386.360,98.147 386.387,98.424 386.826 C 98.624 387.142,98.791 387.213,98.794 386.985 C 98.797 386.757,99.178 386.542,99.640 386.507 C 100.102 386.472,100.747 386.119,101.073 385.722 C 101.554 385.136,101.628 385.122,101.466 385.647 C 101.296 386.195,101.408 386.226,102.199 385.853 C 102.712 385.611,103.058 385.294,102.968 385.148 C 102.878 385.003,103.074 384.781,103.402 384.654 C 103.731 384.528,104.000 384.583,104.000 384.775 C 104.000 385.249,105.671 384.784,106.329 384.128 C 106.619 383.837,106.709 383.595,106.529 383.588 C 106.348 383.581,106.516 383.391,106.903 383.166 C 107.290 382.941,107.805 382.880,108.048 383.030 C 108.291 383.180,108.604 383.144,108.745 382.951 C 108.885 382.758,109.360 382.392,109.800 382.137 C 110.240 381.883,110.545 381.447,110.477 381.170 C 110.387 380.797,110.492 380.778,110.879 381.099 C 111.260 381.416,111.598 381.391,112.122 381.007 C 112.660 380.614,112.710 380.428,112.321 380.272 C 111.927 380.114,111.922 380.055,112.300 380.032 C 112.575 380.014,112.849 380.045,112.910 380.100 C 113.143 380.313,114.306 378.984,114.134 378.700 C 114.035 378.535,114.143 378.400,114.376 378.400 C 114.609 378.400,114.800 378.593,114.800 378.829 C 114.800 379.064,115.070 378.987,115.400 378.657 C 115.730 378.327,116.000 377.854,116.000 377.605 C 116.000 377.356,116.180 377.264,116.400 377.400 C 116.620 377.536,116.800 377.337,116.800 376.957 C 116.800 376.577,116.909 376.376,117.043 376.509 C 117.390 376.857,118.360 375.872,118.096 375.438 C 117.975 375.239,118.084 375.205,118.337 375.361 C 118.606 375.527,119.376 375.016,120.182 374.136 C 120.943 373.305,121.413 372.530,121.227 372.413 C 121.041 372.296,121.173 371.936,121.520 371.613 C 122.080 371.093,122.122 371.104,121.889 371.713 C 121.744 372.091,121.769 372.400,121.945 372.400 C 122.413 372.400,123.273 370.649,123.126 369.996 C 123.057 369.688,123.248 369.428,123.551 369.418 C 123.854 369.408,124.394 368.958,124.751 368.417 C 125.128 367.846,125.191 367.562,124.900 367.741 C 124.146 368.203,124.299 367.675,125.200 366.708 C 125.640 366.236,126.000 365.613,126.000 365.325 C 126.000 365.036,126.180 364.800,126.400 364.800 C 126.620 364.800,126.800 364.474,126.800 364.075 C 126.800 363.677,127.160 362.964,127.600 362.492 C 128.501 361.525,128.653 361.001,127.900 361.453 C 127.543 361.667,127.553 361.564,127.934 361.094 C 128.228 360.732,128.353 360.247,128.211 360.018 C 128.069 359.788,128.233 359.600,128.576 359.600 C 128.919 359.600,129.200 359.330,129.200 359.000 C 129.200 358.670,129.353 358.400,129.539 358.400 C 129.726 358.400,129.894 357.833,129.914 357.139 C 129.934 356.446,130.175 355.739,130.449 355.570 C 130.841 355.327,130.825 355.109,130.374 354.554 C 130.015 354.112,129.988 353.959,130.300 354.147 C 130.656 354.361,130.800 354.096,130.800 353.224 C 130.800 352.551,131.002 352.000,131.249 352.000 C 131.542 352.000,131.507 351.764,131.149 351.323 C 130.780 350.869,130.763 350.745,131.098 350.946 C 131.489 351.181,131.586 349.525,131.551 343.222 C 131.526 338.810,131.347 335.200,131.153 335.200 C 130.959 335.200,130.800 334.919,130.800 334.576 C 130.800 334.233,130.980 334.064,131.200 334.200 C 131.775 334.556,131.670 333.925,131.007 333.051 C 130.648 332.577,130.529 331.855,130.682 331.089 C 130.855 330.226,130.791 329.958,130.462 330.161 C 130.185 330.333,130.000 330.188,130.000 329.800 C 130.000 329.444,130.180 329.264,130.400 329.400 C 130.620 329.536,130.800 329.457,130.800 329.224 C 130.800 328.991,130.620 328.800,130.400 328.800 C 130.180 328.800,130.000 328.451,130.000 328.024 C 130.000 327.597,129.820 327.136,129.600 327.000 C 129.380 326.864,129.200 325.953,129.200 324.976 C 129.200 323.999,129.020 323.200,128.800 323.200 C 128.580 323.200,128.400 322.855,128.400 322.433 C 128.400 322.012,128.237 321.607,128.037 321.533 C 127.837 321.460,127.615 320.770,127.542 320.000 C 127.470 319.230,127.173 318.352,126.882 318.048 C 126.592 317.745,126.452 317.241,126.572 316.928 C 126.693 316.612,126.614 316.467,126.395 316.603 C 126.178 316.737,126.000 316.556,126.000 316.200 C 126.000 315.844,125.832 315.657,125.627 315.784 C 125.421 315.911,125.267 315.515,125.285 314.905 C 125.329 313.354,124.840 311.999,124.276 312.108 C 124.014 312.159,123.845 311.975,123.900 311.700 C 123.955 311.425,123.710 311.200,123.357 311.200 C 122.891 311.200,122.774 310.951,122.933 310.300 C 123.153 309.401,122.556 308.204,121.800 308.027 C 121.193 307.885,121.007 307.600,121.521 307.600 C 121.954 307.600,121.739 306.439,121.224 306.000 C 121.095 305.890,120.565 304.959,120.047 303.931 C 119.434 302.712,118.913 302.135,118.553 302.273 C 118.219 302.402,118.000 302.222,118.000 301.819 C 118.000 301.417,117.817 301.266,117.538 301.438 C 117.250 301.616,117.185 301.548,117.366 301.255 C 117.525 300.998,117.823 300.891,118.028 301.017 C 118.232 301.144,118.400 301.057,118.400 300.824 C 118.400 300.591,118.220 300.400,118.000 300.400 C 117.780 300.400,117.600 300.040,117.600 299.600 C 117.600 299.160,117.420 298.800,117.200 298.800 C 116.980 298.800,116.800 298.545,116.800 298.233 C 116.800 297.922,116.658 297.607,116.486 297.533 C 115.932 297.299,114.400 294.898,114.400 294.265 C 114.400 293.929,114.040 293.540,113.600 293.400 C 112.696 293.113,111.689 291.600,112.402 291.600 C 112.667 291.600,112.634 291.387,112.316 291.042 C 112.032 290.735,111.665 290.566,111.500 290.666 C 111.335 290.765,111.200 290.466,111.200 290.000 C 111.200 289.534,111.020 289.264,110.800 289.400 C 110.572 289.541,110.400 289.195,110.400 288.595 C 110.400 288.016,110.128 287.271,109.796 286.939 C 109.464 286.607,109.295 286.170,109.420 285.968 C 109.545 285.765,109.457 285.600,109.224 285.600 C 108.991 285.600,108.800 285.319,108.800 284.976 C 108.800 284.633,108.608 284.471,108.373 284.617 C 108.117 284.775,107.997 284.584,108.073 284.140 C 108.150 283.692,107.991 283.443,107.670 283.510 C 107.317 283.583,107.220 283.368,107.379 282.867 C 107.519 282.424,107.363 281.901,107.000 281.600 C 106.472 281.162,106.421 281.197,106.655 281.843 C 106.947 282.655,106.891 282.619,105.987 281.423 C 105.500 280.778,105.496 280.705,105.968 280.989 C 106.399 281.249,106.472 281.163,106.268 280.633 C 106.121 280.249,106.000 279.759,106.000 279.544 C 106.000 279.329,105.820 279.264,105.600 279.400 C 105.240 279.622,105.027 279.097,105.153 278.300 C 105.179 278.135,105.020 278.000,104.800 278.000 C 104.580 278.000,104.400 277.680,104.400 277.288 C 104.400 276.897,104.050 276.324,103.621 276.015 C 103.193 275.707,102.934 275.307,103.045 275.127 C 103.156 274.947,103.046 274.800,102.800 274.800 C 102.554 274.800,102.463 274.622,102.597 274.405 C 102.743 274.169,102.551 274.114,102.121 274.268 C 101.724 274.411,101.518 274.396,101.662 274.235 C 101.805 274.075,101.685 273.484,101.393 272.922 C 101.102 272.360,100.958 271.653,101.074 271.350 C 101.191 271.048,101.076 270.800,100.819 270.800 C 100.563 270.800,100.464 270.980,100.600 271.200 C 100.736 271.420,100.636 271.600,100.377 271.600 C 100.099 271.600,99.995 271.263,100.122 270.776 C 100.257 270.261,100.115 269.866,99.746 269.724 C 99.420 269.599,99.249 269.250,99.364 268.948 C 99.480 268.647,99.401 268.400,99.187 268.400 C 98.974 268.400,98.787 267.995,98.772 267.500 C 98.745 266.641,98.728 266.637,98.400 267.400 C 98.037 268.246,97.908 267.905,97.898 266.067 C 97.894 265.345,97.720 265.180,97.124 265.336 C 96.496 265.500,96.441 265.432,96.826 264.969 C 97.200 264.518,97.167 264.400,96.667 264.400 C 96.263 264.400,95.942 263.897,95.774 263.000 C 95.629 262.230,95.351 261.600,95.155 261.600 C 94.960 261.600,94.800 261.357,94.800 261.059 C 94.800 260.762,94.258 259.952,93.597 259.259 C 92.935 258.567,92.620 257.993,92.897 257.984 C 93.173 257.975,92.905 257.699,92.300 257.371 C 91.059 256.698,90.845 256.311,91.900 256.650 C 92.449 256.826,92.416 256.716,91.746 256.137 C 91.276 255.732,90.950 255.052,91.021 254.626 C 91.093 254.200,90.790 253.538,90.349 253.156 C 89.908 252.774,89.559 252.357,89.574 252.230 C 89.653 251.539,89.533 251.245,88.853 250.461 C 87.930 249.396,86.311 249.288,86.436 250.300 M311.649 249.961 C 311.346 250.153,311.219 250.507,311.367 250.747 C 311.690 251.269,310.960 252.749,309.937 253.647 C 309.532 254.003,309.200 254.488,309.200 254.724 C 309.200 254.961,308.820 255.420,308.357 255.745 C 307.893 256.070,307.621 256.510,307.752 256.723 C 307.884 256.935,307.725 257.330,307.400 257.600 C 307.075 257.870,306.908 258.252,307.030 258.448 C 307.151 258.645,306.969 258.914,306.625 259.046 C 306.281 259.178,306.000 259.716,306.000 260.243 C 306.000 260.769,305.820 261.200,305.600 261.200 C 305.380 261.200,305.200 261.405,305.200 261.656 C 305.200 261.907,304.900 262.331,304.533 262.599 C 304.167 262.868,303.805 263.490,303.730 263.982 C 303.655 264.474,303.190 265.234,302.697 265.669 C 302.203 266.105,302.044 266.335,302.341 266.181 C 302.734 265.979,302.706 266.172,302.240 266.883 C 301.886 267.422,301.733 267.999,301.899 268.165 C 302.064 268.331,302.020 268.430,301.800 268.386 C 300.742 268.173,300.318 268.443,300.517 269.203 C 300.652 269.722,300.446 270.202,299.935 270.560 C 299.360 270.963,299.288 271.167,299.672 271.305 C 300.004 271.424,299.796 271.685,299.113 272.006 C 298.514 272.287,298.111 272.656,298.216 272.826 C 298.321 272.996,298.164 273.379,297.867 273.676 C 297.045 274.498,296.387 275.879,296.536 276.471 C 296.609 276.762,296.593 276.865,296.501 276.700 C 296.139 276.052,295.519 276.446,295.716 277.200 C 295.831 277.639,295.734 278.117,295.501 278.261 C 295.231 278.428,295.193 278.319,295.397 277.962 C 295.661 277.499,295.619 277.491,295.162 277.917 C 294.744 278.306,294.724 278.506,295.082 278.727 C 295.368 278.904,295.424 279.237,295.224 279.562 C 295.040 279.859,294.691 279.980,294.449 279.830 C 294.163 279.654,294.102 279.799,294.273 280.245 C 294.472 280.764,294.397 280.848,293.968 280.589 C 293.477 280.293,293.477 280.342,293.968 280.946 C 294.280 281.330,294.370 281.614,294.168 281.575 C 293.181 281.388,292.800 281.692,292.800 282.667 C 292.800 283.253,292.683 283.616,292.540 283.473 C 292.128 283.061,291.227 284.498,291.207 285.600 C 291.192 286.394,291.108 286.477,290.800 286.000 C 290.506 285.545,290.411 285.714,290.406 286.700 C 290.403 287.415,290.220 288.000,290.000 288.000 C 289.780 288.000,289.600 288.270,289.600 288.600 C 289.600 288.930,289.401 289.200,289.157 289.200 C 288.914 289.200,288.826 289.490,288.962 289.845 C 289.145 290.323,289.039 290.424,288.548 290.235 C 287.970 290.013,287.956 290.067,288.443 290.668 C 288.809 291.118,288.829 291.251,288.502 291.054 C 288.183 290.863,287.836 291.123,287.537 291.777 C 287.281 292.340,286.910 292.800,286.712 292.800 C 286.515 292.800,286.464 292.980,286.600 293.200 C 286.736 293.420,286.522 293.603,286.124 293.606 C 285.623 293.610,285.552 293.709,285.891 293.924 C 286.252 294.154,286.173 294.387,285.591 294.806 C 285.156 295.120,284.800 295.707,284.800 296.112 C 284.800 296.516,284.650 296.755,284.467 296.641 C 284.283 296.528,284.133 296.689,284.133 297.000 C 284.133 297.311,284.328 297.454,284.567 297.318 C 284.805 297.182,284.593 297.518,284.096 298.065 C 283.599 298.612,283.314 299.181,283.463 299.330 C 283.612 299.478,283.388 299.603,282.967 299.606 C 282.325 299.611,282.298 299.676,282.800 300.000 C 283.287 300.315,283.234 300.389,282.519 300.394 C 281.779 300.399,281.662 300.587,281.786 301.570 C 281.883 302.336,281.731 302.818,281.346 302.965 C 280.973 303.109,280.862 303.024,281.041 302.734 C 281.217 302.450,281.146 302.386,280.855 302.566 C 280.598 302.725,280.478 303.002,280.589 303.182 C 280.700 303.362,280.515 303.739,280.177 304.019 C 279.685 304.427,279.666 304.595,280.081 304.859 C 280.474 305.108,280.441 305.189,279.943 305.194 C 279.283 305.200,278.711 306.080,278.639 307.200 C 278.617 307.530,278.393 307.761,278.141 307.714 C 277.869 307.663,277.766 307.948,277.888 308.414 C 278.001 308.849,277.894 309.200,277.647 309.200 C 277.401 309.200,277.200 309.550,277.200 309.977 C 277.200 310.405,276.800 311.035,276.311 311.377 C 275.822 311.720,275.662 312.000,275.955 312.000 C 276.268 312.000,276.098 312.344,275.544 312.830 C 275.025 313.287,274.825 313.547,275.100 313.407 C 275.375 313.267,275.600 313.331,275.600 313.549 C 275.600 313.768,275.240 314.060,274.800 314.200 C 274.282 314.364,274.000 314.805,274.000 315.451 C 274.000 316.013,273.826 316.340,273.600 316.200 C 273.367 316.056,273.200 316.463,273.200 317.176 C 273.200 317.849,273.020 318.400,272.800 318.400 C 272.580 318.400,272.400 318.749,272.400 319.176 C 272.400 319.603,272.248 320.047,272.061 320.162 C 271.875 320.277,271.706 320.959,271.685 321.678 C 271.665 322.396,271.457 323.048,271.224 323.125 C 270.991 323.203,270.800 323.792,270.800 324.433 C 270.800 325.097,270.584 325.603,270.300 325.606 C 269.932 325.611,269.943 325.703,270.343 325.956 C 270.721 326.196,270.751 326.383,270.443 326.574 C 270.199 326.724,270.000 327.276,270.000 327.800 C 270.000 328.324,269.820 328.864,269.600 329.000 C 269.380 329.136,269.200 330.126,269.200 331.200 C 269.200 332.274,269.020 333.264,268.800 333.400 C 268.580 333.536,268.403 334.042,268.406 334.524 C 268.411 335.236,268.485 335.288,268.800 334.800 C 269.134 334.283,269.189 334.293,269.194 334.876 C 269.197 335.248,269.041 335.651,268.847 335.771 C 268.165 336.192,268.292 351.073,268.980 351.337 C 269.348 351.478,269.488 351.828,269.335 352.225 C 269.194 352.594,269.328 353.036,269.642 353.234 C 270.041 353.487,270.057 353.589,269.700 353.594 C 269.425 353.597,269.200 353.870,269.200 354.200 C 269.200 354.530,269.380 354.800,269.600 354.800 C 269.820 354.800,270.000 355.509,270.000 356.376 C 270.000 357.243,270.180 358.064,270.400 358.200 C 270.620 358.336,270.814 358.932,270.832 359.524 C 270.849 360.116,270.958 360.362,271.074 360.072 C 271.307 359.489,272.400 361.280,272.400 362.246 C 272.400 362.551,272.580 362.800,272.800 362.800 C 273.020 362.800,273.200 363.193,273.200 363.674 C 273.200 364.155,273.605 364.994,274.100 365.539 C 274.595 366.083,274.775 366.399,274.500 366.241 C 273.832 365.856,273.864 366.321,274.552 367.010 C 274.856 367.313,275.216 367.450,275.352 367.314 C 275.489 367.178,275.600 367.470,275.600 367.962 C 275.600 368.914,276.538 370.129,276.952 369.714 C 277.089 369.578,277.200 369.752,277.200 370.100 C 277.200 370.448,277.425 370.824,277.700 370.935 C 278.069 371.084,278.056 371.145,277.651 371.168 C 277.210 371.194,277.200 371.318,277.596 371.796 C 277.868 372.123,278.255 372.290,278.455 372.166 C 278.656 372.042,278.787 372.089,278.746 372.270 C 278.611 372.876,279.280 374.000,279.775 374.000 C 280.044 374.000,280.506 374.450,280.800 375.000 C 281.094 375.550,281.509 376.000,281.721 376.000 C 281.933 376.000,282.397 376.316,282.753 376.703 C 283.109 377.089,283.898 377.661,284.508 377.974 C 285.123 378.291,285.431 378.657,285.200 378.800 C 284.969 378.943,285.277 379.309,285.892 379.626 C 286.502 379.939,287.298 380.518,287.661 380.914 C 288.098 381.389,288.376 381.473,288.479 381.163 C 288.665 380.605,290.400 381.049,290.400 381.656 C 290.400 382.391,291.510 383.255,291.736 382.696 C 291.895 382.304,291.943 382.304,291.968 382.700 C 291.986 382.975,292.348 383.200,292.773 383.200 C 293.198 383.200,293.660 383.560,293.800 384.000 C 293.960 384.504,294.405 384.800,295.003 384.800 C 295.526 384.800,296.070 384.990,296.213 385.221 C 296.356 385.453,296.682 385.566,296.937 385.473 C 297.191 385.380,297.678 385.545,298.018 385.840 C 298.357 386.134,299.212 386.419,299.918 386.472 C 300.623 386.526,301.200 386.700,301.200 386.858 C 301.200 387.017,301.745 387.131,302.412 387.112 C 303.078 387.093,304.080 387.322,304.638 387.620 C 305.503 388.083,305.706 388.078,306.020 387.582 C 306.222 387.262,306.391 387.180,306.394 387.400 C 306.398 387.649,308.982 387.818,313.238 387.847 C 317.138 387.874,319.844 387.747,319.538 387.553 C 318.877 387.135,319.381 387.056,321.954 387.177 C 323.405 387.245,323.667 387.151,323.467 386.630 C 323.334 386.283,323.399 386.000,323.613 386.000 C 323.826 386.000,324.014 386.315,324.032 386.700 C 324.050 387.118,324.144 387.199,324.265 386.900 C 324.376 386.625,324.822 386.400,325.257 386.400 C 325.758 386.400,325.942 386.229,325.758 385.932 C 325.565 385.619,325.685 385.547,326.123 385.715 C 326.492 385.857,327.065 385.678,327.438 385.305 C 327.852 384.890,328.642 384.674,329.550 384.727 C 330.630 384.789,330.847 384.708,330.400 384.411 C 329.880 384.065,329.889 384.011,330.467 384.006 C 330.833 384.003,331.193 383.826,331.267 383.613 C 331.340 383.400,331.985 383.181,332.700 383.128 C 333.415 383.074,334.000 382.888,334.000 382.715 C 334.000 382.542,334.360 382.400,334.800 382.400 C 335.240 382.400,335.600 382.220,335.600 382.000 C 335.600 381.780,335.870 381.600,336.200 381.600 C 336.760 381.600,336.989 381.098,336.825 380.232 C 336.786 380.030,337.045 380.106,337.400 380.400 C 337.943 380.850,338.026 380.845,337.923 380.368 C 337.845 380.007,338.070 379.846,338.540 379.927 C 338.947 379.996,339.184 379.898,339.067 379.708 C 338.715 379.139,339.411 378.364,340.336 378.295 C 340.875 378.254,341.200 377.961,341.200 377.515 C 341.200 377.122,341.404 376.800,341.653 376.800 C 341.902 376.800,342.457 376.395,342.887 375.900 C 343.316 375.405,343.800 375.000,343.962 375.000 C 344.495 375.000,345.600 373.670,345.600 373.029 C 345.600 372.667,345.939 372.400,346.400 372.400 C 347.125 372.400,347.394 371.973,347.237 371.070 C 347.206 370.889,347.365 370.855,347.590 370.994 C 347.816 371.133,348.000 370.956,348.000 370.600 C 348.000 370.208,348.184 370.067,348.468 370.242 C 348.781 370.435,348.853 370.315,348.685 369.877 C 348.547 369.517,348.696 368.961,349.017 368.640 C 349.338 368.319,349.600 367.864,349.600 367.629 C 349.600 367.393,349.791 367.200,350.024 367.200 C 350.257 367.200,350.344 367.032,350.217 366.828 C 350.091 366.623,350.198 366.325,350.455 366.166 C 350.748 365.985,350.816 366.050,350.638 366.338 C 350.481 366.592,350.543 366.800,350.776 366.800 C 351.009 366.800,351.200 366.528,351.200 366.195 C 351.200 365.518,352.008 363.939,352.558 363.540 C 352.755 363.398,352.806 362.993,352.671 362.640 C 352.509 362.218,352.642 362.000,353.063 362.000 C 353.557 362.000,353.646 361.732,353.460 360.800 C 353.280 359.901,353.368 359.600,353.810 359.600 C 354.135 359.600,354.400 359.240,354.400 358.800 C 354.400 358.360,354.601 358.000,354.847 358.000 C 355.094 358.000,355.201 357.649,355.088 357.215 C 354.975 356.783,355.138 356.217,355.450 355.958 C 355.762 355.699,356.019 354.928,356.022 354.244 C 356.031 351.542,356.182 350.400,356.532 350.400 C 356.733 350.400,356.674 350.130,356.400 349.800 C 356.126 349.470,356.074 349.200,356.283 349.200 C 356.868 349.200,356.855 336.683,356.270 336.311 C 355.919 336.088,355.927 336.011,356.300 336.006 C 356.830 336.000,356.991 334.725,356.522 334.255 C 356.132 333.865,355.971 332.880,355.971 330.882 C 355.971 329.851,355.766 329.085,355.457 328.967 C 355.139 328.845,355.009 328.319,355.116 327.589 C 355.232 326.804,355.096 326.335,354.710 326.187 C 354.357 326.052,354.159 325.496,354.202 324.767 C 354.241 324.108,354.122 323.475,353.937 323.361 C 353.751 323.246,353.600 322.601,353.600 321.927 C 353.600 320.952,353.491 320.792,353.067 321.145 C 352.663 321.480,352.533 321.443,352.533 320.994 C 352.533 320.667,352.690 320.400,352.881 320.400 C 353.072 320.400,353.048 320.064,352.828 319.653 C 352.608 319.242,352.512 318.792,352.614 318.653 C 352.716 318.514,352.683 318.487,352.539 318.594 C 352.178 318.863,351.153 316.800,351.427 316.356 C 351.550 316.157,351.369 315.886,351.025 315.754 C 350.681 315.622,350.400 315.343,350.400 315.134 C 350.400 314.924,350.625 314.880,350.900 315.035 C 351.175 315.191,350.995 314.924,350.500 314.443 C 349.507 313.478,349.328 313.014,350.100 313.407 C 350.375 313.547,350.195 313.303,349.700 312.866 C 349.205 312.429,348.800 311.618,348.800 311.063 C 348.800 310.405,348.521 309.965,348.000 309.800 C 347.553 309.658,347.200 309.195,347.200 308.749 C 347.200 308.311,347.020 308.064,346.800 308.200 C 346.575 308.339,346.400 308.020,346.400 307.473 C 346.400 306.937,346.141 306.283,345.824 306.020 C 345.507 305.757,345.346 305.285,345.467 304.971 C 345.587 304.657,345.530 304.400,345.340 304.400 C 345.151 304.400,344.748 303.842,344.446 303.160 C 344.037 302.235,343.810 302.057,343.555 302.460 C 343.306 302.853,343.211 302.754,343.206 302.100 C 343.203 301.605,343.009 301.200,342.776 301.200 C 342.543 301.200,342.464 301.020,342.600 300.800 C 342.736 300.580,342.567 300.400,342.224 300.400 C 341.482 300.400,341.388 299.737,342.096 299.501 C 342.460 299.380,342.420 299.163,341.944 298.687 C 341.587 298.330,341.222 298.112,341.131 298.202 C 341.041 298.292,340.938 297.971,340.902 297.489 C 340.865 297.006,340.648 296.549,340.418 296.473 C 340.188 296.396,340.000 296.068,340.000 295.743 C 340.000 295.418,339.836 295.254,339.635 295.378 C 339.434 295.502,339.321 295.143,339.382 294.579 C 339.467 293.814,339.345 293.612,338.903 293.782 C 338.502 293.936,338.383 293.821,338.535 293.425 C 338.693 293.012,338.569 292.914,338.110 293.090 C 337.624 293.276,337.526 293.171,337.718 292.669 C 337.871 292.270,337.778 291.998,337.487 291.994 C 337.179 291.990,337.221 291.845,337.600 291.600 C 338.108 291.272,338.089 291.211,337.473 291.206 C 336.903 291.201,336.807 291.007,337.031 290.303 C 337.288 289.493,337.249 289.461,336.633 289.973 C 336.011 290.489,335.974 290.444,336.218 289.470 C 336.388 288.792,336.324 288.400,336.043 288.400 C 335.800 288.400,335.600 288.204,335.600 287.964 C 335.600 287.724,335.195 287.190,334.700 286.777 C 334.205 286.364,334.023 286.021,334.296 286.013 C 334.968 285.995,333.599 284.400,332.911 284.400 C 332.406 284.400,332.236 283.908,332.379 282.860 C 332.420 282.563,332.261 282.438,332.027 282.583 C 331.792 282.729,331.600 282.672,331.600 282.457 C 331.600 282.242,331.825 281.976,332.100 281.865 C 332.500 281.704,332.500 281.657,332.100 281.632 C 331.825 281.614,331.600 281.330,331.600 281.000 C 331.600 280.670,331.322 280.400,330.982 280.400 C 330.616 280.400,330.413 280.115,330.482 279.700 C 330.551 279.289,330.381 279.045,330.070 279.110 C 329.779 279.170,329.641 279.058,329.763 278.860 C 329.885 278.662,329.548 278.030,329.015 277.454 C 328.454 276.848,328.110 276.068,328.199 275.603 C 328.284 275.162,328.191 274.800,327.993 274.800 C 327.378 274.800,326.000 273.089,326.000 272.325 C 326.000 271.926,325.775 271.597,325.500 271.594 C 325.167 271.590,325.200 271.458,325.600 271.200 C 326.108 270.871,326.089 270.811,325.475 270.806 C 325.026 270.802,324.777 270.534,324.821 270.100 C 324.955 268.783,324.800 268.425,324.195 268.657 C 323.745 268.830,323.661 268.707,323.865 268.175 C 324.077 267.621,323.989 267.519,323.469 267.718 C 323.101 267.859,322.800 267.801,322.800 267.587 C 322.800 267.374,322.974 267.200,323.187 267.200 C 323.401 267.200,323.472 266.931,323.346 266.602 C 323.219 266.274,322.955 266.104,322.758 266.226 C 322.561 266.348,322.400 265.992,322.400 265.436 C 322.400 264.655,322.248 264.484,321.731 264.682 C 321.214 264.880,321.123 264.778,321.330 264.237 C 321.624 263.472,320.706 261.828,320.243 262.290 C 320.086 262.447,320.086 262.221,320.243 261.788 C 320.399 261.355,320.373 261.140,320.185 261.312 C 319.834 261.632,318.400 259.076,318.400 258.129 C 318.400 257.838,318.220 257.600,318.000 257.600 C 317.780 257.600,317.600 257.352,317.600 257.049 C 317.600 256.210,316.531 255.433,316.270 256.083 C 316.054 256.622,315.844 255.445,315.980 254.457 C 316.021 254.158,315.683 253.653,315.227 253.334 C 314.772 253.015,314.400 252.399,314.400 251.965 C 314.400 251.530,314.120 251.067,313.777 250.936 C 313.434 250.804,313.249 250.450,313.364 250.148 C 313.603 249.528,312.520 249.410,311.649 249.961 " stroke="none" fill="#c44434" fill-rule="evenodd"></path><path id="path3" d="M172.701 15.681 C 172.532 16.122,172.658 16.291,173.106 16.226 C 173.464 16.173,173.825 15.876,173.909 15.565 C 174.035 15.095,173.997 15.091,173.679 15.545 C 173.368 15.989,173.264 15.992,173.122 15.565 C 172.992 15.177,172.883 15.207,172.701 15.681 M166.800 17.225 C 166.800 17.680,167.875 17.727,168.149 17.283 C 168.256 17.109,167.997 16.940,167.572 16.908 C 167.148 16.876,166.800 17.019,166.800 17.225 M163.604 18.357 C 162.927 18.545,162.767 18.732,163.103 18.940 C 163.377 19.109,163.997 18.967,164.488 18.623 C 165.429 17.965,165.229 17.905,163.604 18.357 M254.813 27.820 C 254.794 28.422,255.659 29.200,256.347 29.200 C 256.669 29.200,256.858 29.125,256.767 29.033 C 256.675 28.942,256.473 28.897,256.317 28.933 C 256.162 28.970,255.762 28.640,255.430 28.200 C 255.097 27.760,254.820 27.589,254.813 27.820 M138.976 32.039 C 138.630 32.599,139.502 32.800,139.948 32.262 C 140.280 31.863,140.238 31.733,139.776 31.733 C 139.440 31.733,139.080 31.871,138.976 32.039 M260.418 32.222 C 261.237 33.209,262.434 33.755,262.149 33.012 C 262.021 32.678,261.754 32.505,261.555 32.628 C 261.357 32.750,261.086 32.569,260.954 32.225 C 260.822 31.881,260.532 31.600,260.308 31.600 C 260.080 31.600,260.129 31.873,260.418 32.222 M264.000 35.186 C 264.000 35.848,265.511 36.467,265.838 35.939 C 266.005 35.669,265.949 35.584,265.704 35.736 C 265.473 35.879,265.181 35.726,265.054 35.398 C 264.801 34.737,264.000 34.576,264.000 35.186 M134.996 35.607 C 134.858 35.830,134.615 35.933,134.455 35.834 C 134.296 35.736,134.139 36.048,134.105 36.528 C 134.052 37.290,134.093 37.313,134.435 36.713 C 134.650 36.335,135.135 35.845,135.513 35.625 C 135.891 35.405,135.986 35.219,135.724 35.212 C 135.462 35.205,135.134 35.383,134.996 35.607 M127.460 42.587 C 127.336 42.910,127.387 43.268,127.572 43.383 C 127.757 43.497,128.003 43.233,128.117 42.796 C 128.356 41.881,127.799 41.704,127.460 42.587 M123.700 46.265 C 123.015 46.541,123.069 47.067,123.782 47.067 C 124.103 47.067,124.282 46.932,124.180 46.767 C 124.078 46.603,124.221 46.377,124.498 46.266 C 124.774 46.154,124.820 46.063,124.600 46.063 C 124.380 46.063,123.975 46.154,123.700 46.265 M276.543 47.800 C 276.873 48.130,277.240 48.400,277.359 48.400 C 277.478 48.400,277.471 48.130,277.345 47.800 C 277.218 47.470,276.851 47.200,276.529 47.200 C 276.021 47.200,276.022 47.280,276.543 47.800 M120.800 50.296 C 119.697 50.725,118.742 52.400,119.600 52.400 C 119.820 52.400,120.000 52.119,120.000 51.776 C 120.000 51.433,120.148 51.244,120.329 51.356 C 120.509 51.468,120.958 51.208,121.325 50.780 C 122.002 49.988,121.880 49.876,120.800 50.296 M286.617 61.172 C 286.491 61.377,286.583 61.666,286.822 61.813 C 287.061 61.961,287.412 62.468,287.603 62.941 C 287.848 63.549,287.957 63.610,287.975 63.149 C 287.989 62.791,287.732 62.276,287.404 62.004 C 287.077 61.732,286.907 61.350,287.028 61.155 C 287.149 60.960,287.157 60.800,287.047 60.800 C 286.937 60.800,286.744 60.968,286.617 61.172 M112.481 62.018 C 112.172 62.513,112.146 62.800,112.409 62.800 C 112.638 62.800,112.932 62.522,113.062 62.183 C 113.422 61.245,113.033 61.134,112.481 62.018 M103.073 84.260 C 102.923 84.410,102.800 84.902,102.800 85.352 C 102.800 86.125,102.839 86.132,103.483 85.489 C 103.949 85.023,104.036 84.676,103.756 84.396 C 103.531 84.171,103.224 84.110,103.073 84.260 M296.400 84.776 C 296.400 85.229,296.580 85.600,296.800 85.600 C 297.020 85.600,297.200 85.341,297.200 85.024 C 297.200 84.707,297.020 84.336,296.800 84.200 C 296.580 84.064,296.400 84.323,296.400 84.776 M100.406 96.367 C 100.411 97.394,100.516 97.635,100.780 97.219 C 100.982 96.900,101.054 96.487,100.939 96.302 C 100.825 96.116,100.924 95.733,101.159 95.449 C 101.476 95.067,101.433 94.933,100.994 94.933 C 100.578 94.933,100.402 95.363,100.406 96.367 M99.764 100.150 C 99.425 101.033,99.876 101.484,100.487 100.873 C 100.847 100.513,100.849 100.289,100.493 99.933 C 100.137 99.577,99.964 99.629,99.764 100.150 M298.349 132.900 C 298.114 133.360,298.180 134.736,298.430 134.582 C 298.605 134.473,298.722 134.028,298.689 133.592 C 298.636 132.889,298.498 132.608,298.349 132.900 M102.915 140.072 C 102.981 140.937,103.689 140.838,103.820 139.945 C 103.869 139.609,103.673 139.333,103.385 139.333 C 103.096 139.333,102.885 139.666,102.915 140.072 M104.692 144.242 C 104.531 144.402,104.400 144.809,104.400 145.147 C 104.400 145.597,104.518 145.642,104.845 145.315 C 105.090 145.070,105.221 144.663,105.137 144.410 C 105.052 144.157,104.852 144.081,104.692 144.242 M107.892 152.242 C 107.731 152.402,107.600 152.809,107.600 153.147 C 107.600 153.597,107.718 153.642,108.045 153.315 C 108.290 153.070,108.421 152.663,108.337 152.410 C 108.252 152.157,108.052 152.081,107.892 152.242 M109.873 157.305 C 110.046 157.577,110.191 157.920,110.194 158.067 C 110.210 158.781,110.800 158.823,110.800 158.109 C 110.800 157.656,110.521 157.178,110.179 157.047 C 109.752 156.884,109.657 156.964,109.873 157.305 M287.734 160.668 C 287.881 160.815,287.724 161.242,287.384 161.618 C 286.840 162.219,286.837 162.329,287.362 162.530 C 287.766 162.685,287.888 162.573,287.738 162.183 C 287.616 161.865,287.804 161.497,288.156 161.361 C 288.835 161.101,288.655 160.400,287.910 160.400 C 287.666 160.400,287.587 160.520,287.734 160.668 M114.769 165.300 C 114.475 166.263,114.564 166.712,115.014 166.539 C 115.309 166.426,115.452 166.079,115.332 165.767 C 115.138 165.262,114.853 165.026,114.769 165.300 M279.078 174.423 C 278.902 175.098,278.965 175.161,279.431 174.774 C 280.068 174.246,280.186 173.600,279.647 173.600 C 279.452 173.600,279.196 173.970,279.078 174.423 M121.100 175.215 C 121.903 175.997,122.116 175.969,121.792 175.124 C 121.668 174.799,121.303 174.533,120.983 174.533 C 120.519 174.533,120.543 174.672,121.100 175.215 M276.000 177.603 C 275.063 178.641,274.573 179.600,274.980 179.600 C 275.273 179.600,277.596 177.027,277.598 176.700 C 277.602 176.150,277.010 176.484,276.000 177.603 M132.400 187.467 C 132.400 187.833,132.518 188.015,132.663 187.870 C 132.808 187.725,133.213 187.827,133.563 188.097 C 133.953 188.397,133.905 188.240,133.438 187.693 C 132.526 186.624,132.400 186.596,132.400 187.467 M265.900 188.157 C 265.515 188.449,265.200 188.825,265.200 188.993 C 265.200 189.161,265.442 189.097,265.737 188.852 C 266.032 188.607,266.392 188.525,266.537 188.670 C 266.682 188.815,266.800 188.633,266.800 188.267 C 266.800 187.477,266.796 187.476,265.900 188.157 M134.569 189.067 C 134.622 189.433,134.982 189.780,135.368 189.836 C 136.035 189.934,136.035 189.901,135.373 189.170 C 134.522 188.230,134.444 188.220,134.569 189.067 M153.633 201.730 C 153.725 201.801,154.430 202.266,155.200 202.763 L 156.600 203.666 155.400 202.635 C 154.740 202.068,154.035 201.603,153.833 201.602 C 153.632 201.601,153.542 201.658,153.633 201.730 M159.333 204.533 C 159.333 204.827,159.543 205.067,159.800 205.067 C 160.057 205.067,160.267 204.827,160.267 204.533 C 160.267 204.240,160.057 204.000,159.800 204.000 C 159.543 204.000,159.333 204.240,159.333 204.533 M178.242 210.732 C 177.999 211.125,179.460 211.073,179.859 210.675 C 180.010 210.524,179.754 210.400,179.290 210.400 C 178.827 210.400,178.355 210.549,178.242 210.732 M197.115 234.419 C 196.738 234.832,196.558 235.249,196.715 235.344 C 196.872 235.440,197.323 235.086,197.719 234.559 C 198.563 233.432,198.109 233.327,197.115 234.419 M192.806 241.500 C 192.824 242.377,193.588 242.959,193.594 242.100 C 193.597 241.605,193.420 241.200,193.200 241.200 C 192.980 241.200,192.803 241.335,192.806 241.500 M187.832 250.422 C 187.409 250.848,187.186 251.319,187.336 251.469 C 187.604 251.737,188.762 250.485,188.787 249.900 C 188.805 249.485,188.709 249.537,187.832 250.422 M85.759 250.961 C 85.371 251.975,85.767 252.465,86.293 251.622 C 86.605 251.124,86.640 250.748,86.389 250.593 C 86.172 250.459,85.889 250.625,85.759 250.961 M310.885 251.100 C 310.932 251.265,310.745 251.805,310.471 252.300 C 310.196 252.795,310.129 253.200,310.322 253.200 C 310.514 253.200,310.880 252.742,311.136 252.181 C 311.702 250.938,311.709 250.800,311.200 250.800 C 310.980 250.800,310.838 250.935,310.885 251.100 M181.968 260.300 C 181.656 260.905,181.226 261.525,181.012 261.678 C 180.797 261.832,180.777 262.100,180.966 262.278 C 181.155 262.455,181.384 262.392,181.476 262.137 C 181.567 261.882,181.993 261.270,182.421 260.776 C 183.243 259.828,183.421 259.200,182.868 259.200 C 182.685 259.200,182.280 259.695,181.968 260.300 M80.350 260.200 C 80.323 260.310,80.255 260.580,80.200 260.800 C 80.145 261.020,80.078 261.391,80.050 261.624 C 80.023 261.857,79.820 261.936,79.600 261.800 C 79.380 261.664,79.200 261.733,79.200 261.953 C 79.200 262.751,79.949 262.791,80.198 262.006 C 80.339 261.563,80.622 261.200,80.827 261.200 C 81.032 261.200,81.200 260.930,81.200 260.600 C 81.200 260.059,80.471 259.716,80.350 260.200 M305.046 260.700 C 304.911 261.085,304.695 261.625,304.566 261.900 C 304.438 262.175,304.528 262.400,304.767 262.400 C 305.005 262.400,305.200 262.130,305.200 261.800 C 305.200 261.470,305.380 261.200,305.600 261.200 C 305.820 261.200,306.000 260.930,306.000 260.600 C 306.000 259.775,305.348 259.844,305.046 260.700 M302.602 265.198 C 302.203 265.639,302.022 266.000,302.200 266.000 C 302.378 266.000,302.194 266.364,301.791 266.809 C 301.188 267.477,301.152 267.705,301.588 268.109 C 302.009 268.500,302.056 268.492,301.819 268.075 C 301.648 267.773,301.820 267.220,302.223 266.775 C 302.608 266.349,302.761 265.994,302.562 265.987 C 302.363 265.980,302.547 265.712,302.971 265.391 C 303.395 265.071,303.649 264.715,303.535 264.602 C 303.421 264.488,303.002 264.756,302.602 265.198 M220.460 265.580 C 220.632 266.096,221.181 266.188,221.230 265.710 C 221.247 265.550,221.044 265.348,220.780 265.260 C 220.516 265.172,220.372 265.316,220.460 265.580 M177.062 269.131 C 176.308 269.964,176.218 270.400,176.800 270.400 C 177.020 270.400,177.200 270.119,177.200 269.776 C 177.200 269.433,177.380 269.264,177.600 269.400 C 177.820 269.536,178.000 269.367,178.000 269.024 C 178.000 268.224,177.870 268.239,177.062 269.131 M75.273 269.287 C 74.713 269.847,74.655 270.400,75.157 270.400 C 75.524 270.400,76.127 269.194,75.883 268.949 C 75.808 268.875,75.534 269.026,75.273 269.287 M299.832 269.860 C 299.493 270.744,299.777 270.950,300.362 270.245 C 300.646 269.903,300.686 269.577,300.461 269.438 C 300.254 269.310,299.971 269.499,299.832 269.860 M298.800 271.413 C 298.800 272.060,299.425 272.207,299.774 271.642 C 299.896 271.445,299.726 271.181,299.398 271.054 C 299.035 270.915,298.800 271.056,298.800 271.413 M172.602 276.803 C 172.739 277.024,172.570 277.313,172.228 277.445 C 171.885 277.576,171.705 277.846,171.828 278.045 C 171.950 278.243,171.769 278.514,171.425 278.646 C 171.081 278.778,170.800 279.190,170.800 279.563 C 170.800 279.935,170.584 280.456,170.320 280.720 C 170.029 281.011,170.004 281.200,170.256 281.200 C 170.484 281.200,170.882 280.795,171.140 280.300 C 171.398 279.805,171.953 278.860,172.375 278.200 C 173.270 276.799,173.359 276.400,172.776 276.400 C 172.543 276.400,172.465 276.581,172.602 276.803 M70.167 277.903 C 70.331 278.193,70.187 278.507,69.825 278.646 C 69.085 278.930,68.974 280.045,69.700 279.900 C 70.456 279.749,70.903 278.336,70.354 277.832 C 70.009 277.516,69.959 277.535,70.167 277.903 M294.200 279.200 C 294.064 279.420,294.223 279.600,294.553 279.600 C 294.883 279.600,295.264 279.420,295.400 279.200 C 295.536 278.980,295.377 278.800,295.047 278.800 C 294.717 278.800,294.336 278.980,294.200 279.200 M289.464 287.929 C 288.708 288.764,288.618 289.200,289.200 289.200 C 289.420 289.200,289.600 288.945,289.600 288.633 C 289.600 288.322,289.825 287.986,290.100 287.888 C 290.375 287.790,290.494 287.594,290.364 287.452 C 290.235 287.311,289.830 287.525,289.464 287.929 M64.000 288.600 C 63.791 289.150,63.435 289.600,63.210 289.600 C 62.984 289.600,62.800 289.982,62.800 290.449 C 62.800 291.155,62.900 291.215,63.396 290.804 C 63.723 290.532,63.900 290.162,63.789 289.982 C 63.678 289.802,63.769 289.543,63.991 289.405 C 64.666 288.988,65.291 287.600,64.804 287.600 C 64.571 287.600,64.209 288.050,64.000 288.600 M165.600 288.400 C 165.325 288.915,165.315 289.200,165.572 289.200 C 165.792 289.200,166.165 288.840,166.400 288.400 C 166.675 287.885,166.685 287.600,166.428 287.600 C 166.208 287.600,165.835 287.960,165.600 288.400 M164.546 290.998 C 164.419 291.326,164.127 291.479,163.896 291.336 C 163.651 291.184,163.595 291.269,163.762 291.538 C 164.193 292.237,164.682 292.093,164.916 291.200 C 165.159 290.270,164.883 290.119,164.546 290.998 M235.200 291.351 C 235.200 291.434,235.470 291.726,235.800 292.000 C 236.291 292.408,236.400 292.380,236.400 291.849 C 236.400 291.492,236.130 291.200,235.800 291.200 C 235.470 291.200,235.200 291.268,235.200 291.351 M162.439 294.153 C 162.089 294.575,162.105 294.755,162.508 294.909 C 162.822 295.030,163.059 294.806,163.093 294.356 C 163.161 293.455,163.048 293.419,162.439 294.153 M339.303 294.712 C 339.338 295.170,339.509 295.456,339.683 295.349 C 339.857 295.241,340.014 295.478,340.032 295.876 C 340.049 296.278,340.151 296.382,340.261 296.110 C 340.371 295.841,340.185 295.229,339.850 294.750 C 339.247 293.890,339.241 293.889,339.303 294.712 M284.353 296.700 C 284.327 296.865,284.327 297.135,284.353 297.300 C 284.379 297.465,284.241 297.600,284.046 297.600 C 283.851 297.600,283.397 298.050,283.037 298.600 C 282.427 299.531,282.428 299.600,283.057 299.600 C 283.429 299.600,283.613 299.480,283.466 299.332 C 283.319 299.185,283.504 298.727,283.878 298.313 C 284.508 297.618,284.945 296.400,284.565 296.400 C 284.474 296.400,284.379 296.535,284.353 296.700 M281.324 301.773 C 281.062 302.071,280.953 302.420,281.081 302.548 C 281.210 302.676,281.019 302.895,280.657 303.033 C 280.296 303.172,280.000 303.455,280.000 303.661 C 280.000 304.348,281.840 302.662,281.896 301.924 C 281.960 301.072,281.943 301.067,281.324 301.773 M53.464 306.729 C 52.714 307.558,52.617 308.000,53.186 308.000 C 53.613 308.000,54.563 306.430,54.297 306.163 C 54.204 306.071,53.830 306.325,53.464 306.729 M278.603 306.405 C 278.737 306.622,278.696 306.800,278.511 306.800 C 278.327 306.800,277.961 307.385,277.700 308.100 C 277.265 309.287,277.276 309.331,277.820 308.600 C 278.147 308.160,278.668 307.499,278.977 307.131 C 279.461 306.555,279.457 306.431,278.949 306.236 C 278.617 306.108,278.465 306.182,278.603 306.405 M122.800 310.357 C 122.800 310.554,123.081 310.822,123.425 310.954 C 123.769 311.086,123.946 311.363,123.819 311.570 C 123.691 311.776,123.757 312.050,123.966 312.179 C 124.741 312.658,124.744 311.691,123.971 310.861 C 123.103 309.929,122.800 309.799,122.800 310.357 M276.283 310.812 C 275.911 311.245,275.764 311.600,275.955 311.600 C 276.395 311.600,277.374 310.441,277.136 310.202 C 277.038 310.104,276.654 310.379,276.283 310.812 M125.492 314.642 C 125.331 314.802,125.200 315.209,125.200 315.547 C 125.200 315.997,125.318 316.042,125.645 315.715 C 125.890 315.470,126.021 315.063,125.937 314.810 C 125.852 314.557,125.652 314.481,125.492 314.642 M46.400 322.567 C 46.400 322.878,46.175 323.224,45.900 323.335 C 45.601 323.456,45.682 323.550,46.100 323.568 C 46.544 323.588,46.800 323.307,46.800 322.800 C 46.800 322.360,46.710 322.000,46.600 322.000 C 46.490 322.000,46.400 322.255,46.400 322.567 M161.175 346.754 C 161.722 347.775,161.964 347.838,161.830 346.922 C 161.775 346.549,161.503 346.168,161.226 346.075 C 160.834 345.945,160.823 346.095,161.175 346.754 M353.200 360.000 C 353.200 360.220,353.470 360.400,353.800 360.400 C 354.130 360.400,354.400 360.220,354.400 360.000 C 354.400 359.780,354.130 359.600,353.800 359.600 C 353.470 359.600,353.200 359.780,353.200 360.000 M349.600 367.800 C 349.600 368.130,349.439 368.400,349.243 368.400 C 349.046 368.400,348.772 368.695,348.634 369.057 C 348.420 369.615,348.476 369.635,349.013 369.189 C 349.907 368.448,350.535 367.200,350.014 367.200 C 349.786 367.200,349.600 367.470,349.600 367.800 M207.347 368.314 C 207.489 368.544,207.379 368.834,207.102 368.959 C 206.826 369.084,206.947 369.144,207.372 369.093 C 208.216 368.991,208.348 368.316,207.574 368.058 C 207.307 367.969,207.205 368.084,207.347 368.314 M339.934 378.269 C 339.568 378.366,339.168 378.706,339.046 379.024 C 338.866 379.495,339.009 379.482,339.812 378.955 C 340.588 378.447,341.211 377.809,340.700 378.046 C 340.645 378.072,340.300 378.172,339.934 378.269 M114.200 378.800 C 114.336 379.020,114.257 379.200,114.024 379.200 C 113.791 379.200,113.600 379.402,113.600 379.649 C 113.600 379.959,113.785 379.944,114.200 379.600 C 114.897 379.022,114.988 378.400,114.376 378.400 C 114.143 378.400,114.064 378.580,114.200 378.800 M106.898 383.066 C 106.344 383.289,106.611 384.000,107.247 384.000 C 107.467 384.000,107.545 383.835,107.421 383.634 C 107.297 383.433,107.421 383.177,107.698 383.066 C 107.974 382.954,108.020 382.863,107.800 382.863 C 107.580 382.863,107.174 382.954,106.898 383.066 M94.466 387.150 C 94.041 387.420,94.068 387.540,94.599 387.744 C 95.530 388.101,95.600 388.077,95.600 387.400 C 95.600 386.727,95.255 386.651,94.466 387.150 " stroke="none" fill="#cc4434" fill-rule="evenodd"></path><path id="path4" d="" stroke="none" fill="#e0100cc" fill-rule="evenodd"></path></g></svg>