<svg id="svg" version="1.1" xmlns="http://www.w3.org/2000/svg" xmlns:xlink="http://www.w3.org/1999/xlink" width="400" height="400" viewBox="0, 0, 400,400"><g id="svgg"><path id="path0" d="M172.085 91.250 C 172.067 154.198,171.930 182.630,171.641 182.919 C 170.406 184.154,152.505 176.137,150.000 173.228 C 149.890 173.100,149.080 172.472,148.200 171.832 C 144.700 169.287,138.562 162.597,135.690 158.200 C 127.576 145.774,121.302 139.731,112.000 135.380 C 86.255 123.339,55.662 134.088,43.633 159.400 C 42.011 162.813,41.783 163.367,41.171 165.400 C 40.905 166.280,40.544 167.450,40.368 168.000 C 40.058 168.965,39.700 170.758,38.817 175.767 C 38.283 178.799,38.284 183.776,38.820 187.154 C 39.652 192.398,40.574 196.415,41.239 197.695 C 41.438 198.077,41.600 198.628,41.600 198.919 C 41.600 200.317,45.358 207.403,48.324 211.600 C 51.739 216.431,61.961 225.600,63.932 225.600 C 64.153 225.600,64.393 225.744,64.467 225.920 C 64.631 226.315,69.228 228.511,71.400 229.232 C 72.280 229.524,73.171 229.907,73.380 230.082 C 73.589 230.257,74.163 230.400,74.656 230.400 C 75.149 230.400,75.649 230.556,75.767 230.747 C 75.885 230.938,76.751 231.203,77.691 231.336 C 78.631 231.470,81.020 231.847,83.000 232.175 C 84.980 232.503,87.455 232.778,88.500 232.786 C 89.545 232.794,90.400 232.980,90.400 233.200 C 90.400 233.420,90.143 233.600,89.829 233.600 C 89.516 233.600,87.761 234.352,85.929 235.270 C 76.450 240.026,70.771 250.815,72.359 261.054 C 73.006 265.229,73.429 266.833,74.750 270.119 C 75.452 271.865,75.317 272.398,73.513 274.983 C 68.631 281.978,65.720 283.178,58.915 281.005 C 51.688 278.697,47.542 281.053,45.200 288.800 C 44.901 289.790,44.541 290.780,44.400 291.000 C 44.259 291.220,43.919 292.210,43.645 293.200 C 43.370 294.190,42.978 295.553,42.773 296.228 C 42.208 298.090,42.327 305.286,42.963 307.680 C 43.726 310.554,43.949 311.193,45.314 314.400 C 45.642 315.170,47.301 319.310,49.000 323.600 C 52.430 332.260,52.841 333.268,53.644 335.000 C 54.101 335.986,54.221 341.889,54.318 368.100 L 54.436 400.000 69.418 400.000 L 84.400 400.000 84.400 355.372 L 84.400 310.743 86.293 308.072 C 87.334 306.602,88.729 304.662,89.393 303.759 C 90.057 302.857,91.627 300.687,92.882 298.938 C 96.171 294.353,99.353 292.833,101.720 294.717 C 101.984 294.927,102.830 295.219,103.600 295.365 C 108.054 296.209,109.256 296.399,111.723 296.647 C 115.469 297.023,121.305 296.019,125.096 294.348 C 126.028 293.936,126.896 293.600,127.024 293.600 C 127.615 293.600,131.226 290.870,133.314 288.845 C 136.094 286.148,136.186 286.224,136.556 291.532 C 136.704 293.659,136.988 295.940,137.186 296.600 C 137.384 297.260,137.778 298.610,138.062 299.600 C 144.945 323.604,176.261 330.088,194.660 311.318 L 197.520 308.400 199.976 308.400 L 202.432 308.400 205.516 311.445 C 211.521 317.374,218.897 321.554,223.420 321.590 C 224.091 321.596,224.831 321.791,225.064 322.024 C 225.607 322.567,234.648 322.282,237.400 321.635 C 238.500 321.376,239.897 321.061,240.505 320.936 C 241.113 320.810,241.708 320.549,241.829 320.354 C 241.949 320.159,242.397 320.000,242.824 320.000 C 243.251 320.000,243.600 319.820,243.600 319.600 C 243.600 319.380,243.834 319.200,244.120 319.200 C 244.856 319.200,246.793 318.259,246.797 317.900 C 246.799 317.735,246.993 317.600,247.228 317.600 C 248.540 317.600,256.041 310.884,257.168 308.700 C 257.480 308.095,257.885 307.600,258.068 307.600 C 258.250 307.600,258.400 307.364,258.400 307.075 C 258.400 306.787,258.760 306.164,259.200 305.692 C 259.640 305.220,260.000 304.651,260.000 304.427 C 260.000 304.204,260.386 303.162,260.859 302.111 C 261.331 301.060,261.856 299.840,262.026 299.400 C 262.569 297.997,263.600 291.358,263.600 289.266 C 263.600 286.396,264.082 286.403,267.171 289.317 C 272.437 294.285,281.265 297.350,288.277 296.647 C 290.744 296.399,291.946 296.209,296.400 295.365 C 297.170 295.219,298.016 294.927,298.280 294.717 C 299.593 293.672,303.300 294.240,304.574 295.681 C 306.297 297.630,306.849 298.343,308.392 300.609 C 309.137 301.704,309.850 302.690,309.976 302.800 C 310.522 303.276,314.498 308.986,315.214 310.322 C 315.982 311.754,316.000 312.819,316.000 355.894 L 316.000 400.000 330.780 400.000 L 345.560 400.000 345.680 368.100 C 345.769 344.562,345.923 335.990,346.270 335.400 C 346.529 334.960,347.219 333.340,347.804 331.800 C 348.389 330.260,349.102 328.460,349.390 327.800 C 349.677 327.140,350.859 324.170,352.015 321.200 C 353.172 318.230,354.508 314.900,354.984 313.800 C 355.460 312.700,356.085 310.990,356.372 310.000 C 356.659 309.010,357.052 307.678,357.247 307.040 C 358.288 303.623,357.546 296.324,355.617 291.000 C 355.139 289.680,354.459 287.736,354.107 286.680 C 352.216 281.016,347.393 278.894,341.200 281.000 C 334.463 283.292,331.125 281.820,326.064 274.328 C 324.584 272.136,324.562 271.922,325.556 269.353 C 327.193 265.122,328.219 259.363,327.855 256.447 C 327.715 255.321,327.487 253.496,327.348 252.392 C 327.210 251.287,326.940 250.286,326.748 250.168 C 326.557 250.050,326.400 249.682,326.400 249.351 C 326.400 244.819,314.817 233.600,310.137 233.600 C 309.805 233.600,309.608 233.375,309.698 233.100 C 309.807 232.771,311.155 232.517,313.632 232.357 C 315.704 232.224,318.030 231.986,318.800 231.829 C 322.934 230.987,327.316 229.743,329.800 228.706 C 331.340 228.063,332.915 227.440,333.300 227.322 C 333.685 227.203,334.000 226.948,334.000 226.753 C 334.000 226.559,334.360 226.400,334.800 226.400 C 335.240 226.400,335.600 226.220,335.600 226.000 C 335.600 225.780,335.870 225.600,336.200 225.600 C 336.530 225.600,336.800 225.420,336.800 225.200 C 336.800 224.980,337.070 224.800,337.400 224.800 C 337.730 224.800,338.000 224.620,338.000 224.400 C 338.000 224.180,338.236 224.000,338.525 224.000 C 338.813 224.000,339.398 223.680,339.825 223.289 C 340.251 222.898,341.230 222.139,342.000 221.602 C 343.621 220.472,347.854 216.213,349.954 213.600 C 350.749 212.610,351.535 211.740,351.700 211.667 C 351.865 211.593,352.000 211.312,352.000 211.042 C 352.000 210.772,352.315 210.202,352.700 209.775 C 353.085 209.349,353.655 208.505,353.968 207.900 C 354.280 207.295,354.685 206.800,354.868 206.800 C 355.050 206.800,355.200 206.440,355.200 206.000 C 355.200 205.560,355.380 205.200,355.600 205.200 C 355.820 205.200,356.000 204.840,356.000 204.400 C 356.000 203.960,356.180 203.600,356.400 203.600 C 356.620 203.600,356.800 203.240,356.800 202.800 C 356.800 202.360,356.980 202.000,357.200 202.000 C 357.420 202.000,357.600 201.550,357.600 201.000 C 357.600 200.450,357.780 200.000,358.000 200.000 C 358.220 200.000,358.400 199.561,358.400 199.024 C 358.400 198.487,358.580 197.936,358.800 197.800 C 359.020 197.664,359.200 197.124,359.200 196.600 C 359.200 196.076,359.361 195.548,359.558 195.426 C 359.755 195.305,360.008 194.529,360.121 193.703 C 360.233 192.876,360.562 190.850,360.850 189.200 C 361.530 185.308,361.531 177.361,360.851 173.800 C 360.557 172.260,360.226 170.324,360.116 169.497 C 360.006 168.671,359.755 167.895,359.558 167.774 C 359.361 167.652,359.200 167.023,359.200 166.376 C 359.200 165.729,359.020 165.200,358.800 165.200 C 358.580 165.200,358.400 164.761,358.400 164.224 C 358.400 163.687,358.220 163.136,358.000 163.000 C 357.780 162.864,357.600 162.403,357.600 161.976 C 357.600 161.549,357.420 161.200,357.200 161.200 C 356.980 161.200,356.800 160.966,356.800 160.680 C 356.800 159.944,355.859 158.007,355.500 158.003 C 355.335 158.001,355.200 157.640,355.200 157.200 C 355.200 156.760,355.020 156.400,354.800 156.400 C 354.580 156.400,354.400 156.207,354.400 155.972 C 354.400 155.240,352.077 152.007,348.847 148.243 C 335.029 132.141,313.155 126.265,293.200 133.294 C 282.734 136.980,273.199 144.565,267.200 153.976 C 258.751 167.230,250.197 174.842,237.600 180.315 C 234.428 181.693,229.191 183.282,228.586 183.050 C 228.074 182.853,228.000 171.337,228.000 91.413 L 228.000 0.000 200.055 0.000 L 172.110 0.000 172.085 91.250 M154.260 206.819 C 158.300 208.667,159.433 209.166,160.700 209.654 C 161.195 209.844,162.005 210.162,162.500 210.360 C 162.995 210.557,164.030 210.936,164.800 211.200 C 165.570 211.464,166.560 211.828,167.000 212.007 C 167.440 212.186,168.250 212.450,168.800 212.594 C 169.350 212.737,170.385 213.022,171.100 213.227 C 171.815 213.432,173.075 213.794,173.900 214.030 C 179.566 215.655,186.052 216.704,193.600 217.215 C 204.218 217.935,214.717 216.984,224.800 214.389 C 227.360 213.730,232.189 212.323,233.000 212.000 C 233.440 211.824,234.430 211.464,235.200 211.200 C 236.809 210.648,237.750 210.292,239.300 209.654 C 239.905 209.404,240.805 209.038,241.300 208.839 C 241.795 208.641,243.778 207.741,245.707 206.839 C 250.482 204.608,252.406 204.587,254.834 206.741 C 256.713 208.409,257.290 211.629,256.141 214.037 C 255.888 214.567,255.415 215.630,255.089 216.400 C 248.316 232.400,243.010 241.023,235.016 249.015 C 225.027 259.002,214.878 263.024,199.800 262.972 C 175.568 262.887,158.470 249.061,146.411 219.800 C 145.668 217.997,144.760 215.914,144.100 214.500 C 140.797 207.421,146.368 203.209,154.260 206.819 " stroke="none" fill="#d8e9fc" fill-rule="evenodd"></path><path id="path1" d="M4.759 0.910 C 4.012 1.410,3.222 2.220,3.005 2.710 C 2.788 3.199,2.473 3.600,2.305 3.600 C 2.137 3.600,2.000 3.881,2.000 4.224 C 2.000 4.567,1.820 4.736,1.601 4.601 C 1.335 4.436,1.202 69.937,1.202 200.000 C 1.202 330.063,1.335 395.564,1.601 395.399 C 1.820 395.264,2.000 395.420,2.000 395.746 C 2.000 396.581,3.880 398.717,5.228 399.414 C 6.185 399.909,10.025 400.000,29.980 400.000 L 53.600 400.000 53.600 368.663 C 53.600 333.000,53.995 336.974,49.380 326.200 C 49.097 325.540,48.561 324.190,48.189 323.200 C 47.816 322.210,47.171 320.637,46.756 319.704 C 46.340 318.772,46.000 317.773,46.000 317.484 C 46.000 317.196,45.848 316.789,45.662 316.580 C 45.477 316.371,44.919 315.120,44.423 313.800 C 43.928 312.480,43.384 311.040,43.216 310.600 C 42.106 307.692,41.875 306.155,41.869 301.600 C 41.862 296.969,42.202 294.779,43.249 292.705 C 43.442 292.323,43.600 291.736,43.600 291.400 C 43.600 291.064,43.780 290.432,44.000 289.995 C 44.220 289.558,44.580 288.842,44.800 288.405 C 45.020 287.968,45.200 287.355,45.200 287.043 C 45.200 285.242,47.855 281.805,50.254 280.500 C 52.027 279.536,57.297 279.187,57.800 280.000 C 57.936 280.220,58.476 280.400,59.000 280.400 C 59.524 280.400,60.064 280.580,60.200 280.800 C 60.590 281.432,66.109 281.284,67.470 280.605 C 70.118 279.284,75.144 272.468,74.503 271.066 C 73.697 269.302,73.281 268.160,72.877 266.600 C 72.650 265.720,72.269 264.259,72.032 263.354 C 71.512 261.370,71.459 254.181,71.953 252.560 C 72.148 251.922,72.546 250.590,72.838 249.600 C 74.658 243.437,79.329 237.993,85.584 234.743 L 88.168 233.400 86.584 233.308 C 82.642 233.077,73.484 231.136,72.620 230.347 C 72.411 230.156,71.988 230.000,71.681 230.000 C 71.373 230.000,69.564 229.246,67.661 228.325 C 55.772 222.570,46.300 212.458,41.504 200.400 C 41.286 199.850,40.948 199.087,40.753 198.705 C 40.559 198.323,40.400 197.659,40.400 197.229 C 40.400 196.799,40.240 196.348,40.044 196.227 C 39.849 196.106,39.587 195.421,39.464 194.704 C 39.341 193.987,39.008 192.230,38.726 190.800 C 38.041 187.338,38.040 175.334,38.724 172.200 C 39.012 170.880,39.347 169.213,39.468 168.496 C 39.589 167.779,39.849 167.094,40.044 166.973 C 40.240 166.852,40.400 166.395,40.400 165.957 C 40.400 165.519,40.760 164.416,41.200 163.506 C 41.640 162.595,42.000 161.539,42.000 161.158 C 42.000 160.778,42.135 160.407,42.300 160.333 C 42.465 160.260,43.091 159.210,43.691 158.000 C 44.953 155.458,46.778 152.291,47.149 152.000 C 47.290 151.890,48.153 150.810,49.067 149.600 C 63.178 130.929,89.440 124.519,111.400 134.386 C 120.285 138.378,129.211 146.527,134.638 155.600 C 135.493 157.030,136.293 158.290,136.416 158.400 C 136.538 158.510,137.077 159.230,137.614 160.000 C 139.297 162.418,139.712 162.892,143.400 166.624 C 146.952 170.218,152.632 174.800,153.536 174.800 C 153.791 174.800,154.001 174.935,154.003 175.100 C 154.005 175.265,154.410 175.604,154.903 175.853 C 159.689 178.273,161.636 179.223,163.000 179.802 C 163.880 180.176,164.960 180.635,165.400 180.823 C 166.525 181.303,170.447 182.400,171.036 182.400 C 171.423 182.400,171.522 163.036,171.502 91.200 L 171.475 0.000 88.797 0.000 L 6.118 0.000 4.759 0.910 M228.499 91.238 L 228.471 182.476 229.810 182.224 C 239.375 180.430,254.459 170.687,260.813 162.200 C 261.142 161.760,261.850 160.770,262.386 160.000 C 262.923 159.230,263.462 158.510,263.584 158.400 C 263.707 158.290,264.514 157.030,265.378 155.600 C 268.916 149.744,278.168 139.600,279.971 139.600 C 280.170 139.600,280.393 139.443,280.467 139.250 C 281.070 137.668,292.622 132.318,297.958 131.151 C 304.482 129.724,313.422 129.345,318.200 130.292 C 319.520 130.554,321.410 130.930,322.400 131.128 C 326.612 131.971,338.194 136.956,339.200 138.360 C 339.310 138.513,340.030 139.077,340.800 139.614 C 348.227 144.786,354.916 153.400,358.496 162.400 C 358.714 162.950,359.052 163.713,359.247 164.095 C 359.441 164.477,359.600 165.141,359.600 165.571 C 359.600 166.001,359.780 166.464,360.000 166.600 C 360.220 166.736,360.400 167.341,360.400 167.944 C 360.400 168.547,360.563 169.211,360.761 169.420 C 361.766 170.478,362.138 187.499,361.246 191.600 C 360.982 192.810,360.664 194.387,360.539 195.104 C 360.414 195.821,360.151 196.506,359.956 196.627 C 359.760 196.748,359.600 197.199,359.600 197.629 C 359.600 198.059,359.441 198.723,359.247 199.105 C 359.052 199.487,358.716 200.250,358.499 200.800 C 358.283 201.350,357.517 202.970,356.798 204.400 C 356.080 205.830,355.291 207.404,355.046 207.897 C 354.801 208.390,354.465 208.795,354.300 208.797 C 354.135 208.799,354.000 209.036,354.000 209.325 C 354.000 209.613,353.685 210.205,353.300 210.640 C 352.915 211.074,352.157 212.053,351.616 212.815 C 349.400 215.935,344.632 220.690,341.600 222.803 C 340.830 223.339,339.851 224.098,339.425 224.489 C 338.998 224.880,338.413 225.200,338.125 225.200 C 337.836 225.200,337.599 225.335,337.597 225.500 C 337.595 225.665,337.190 226.001,336.697 226.246 C 336.204 226.491,334.630 227.280,333.200 227.998 C 329.671 229.772,328.045 230.423,325.200 231.201 C 324.210 231.471,322.950 231.834,322.400 232.006 C 320.990 232.447,316.139 233.199,314.000 233.308 L 312.200 233.400 314.400 234.552 C 321.484 238.263,325.815 243.961,327.999 252.446 C 328.713 255.220,328.070 266.063,327.158 266.626 C 326.961 266.748,326.800 267.199,326.800 267.629 C 326.800 268.059,326.641 268.723,326.447 269.105 C 325.026 271.898,325.026 271.807,326.454 273.808 C 327.194 274.846,327.980 275.979,328.200 276.327 C 329.121 277.779,331.421 280.051,332.530 280.605 C 334.615 281.645,340.966 281.168,342.259 279.874 C 342.410 279.723,343.769 279.600,345.280 279.600 C 351.230 279.600,353.537 282.117,356.641 292.000 C 356.952 292.990,357.417 294.430,357.675 295.200 C 358.254 296.928,358.289 306.862,357.721 308.103 C 357.496 308.596,357.094 309.720,356.829 310.600 C 356.337 312.233,356.143 312.742,355.071 315.200 C 354.193 317.216,347.641 333.874,346.974 335.787 C 346.510 337.119,346.411 342.858,346.406 368.700 L 346.400 400.000 355.725 400.000 C 367.031 400.000,369.834 398.996,371.094 394.493 C 371.803 391.959,371.451 5.892,370.738 4.600 C 369.912 3.103,368.641 1.923,366.688 0.839 L 365.176 0.000 296.852 0.000 L 228.528 0.000 228.499 91.238 M59.219 23.701 C 63.217 26.396,63.031 31.974,58.865 34.315 C 56.531 35.627,38.911 35.681,36.368 34.384 C 31.790 32.048,31.920 25.070,36.578 23.184 C 38.724 22.315,57.809 22.751,59.219 23.701 M93.982 49.191 C 97.334 50.901,98.496 54.601,96.663 57.728 C 94.749 60.995,96.520 60.830,64.649 60.708 L 36.452 60.600 35.177 59.400 C 31.798 56.221,32.209 51.758,36.095 49.429 L 37.800 48.408 65.116 48.404 C 91.542 48.400,92.482 48.426,93.982 49.191 M93.152 74.650 C 98.505 75.721,98.902 84.043,93.703 86.215 C 91.651 87.072,38.793 87.091,36.749 86.235 C 31.773 84.150,31.902 75.655,36.924 74.679 C 38.342 74.404,91.781 74.376,93.152 74.650 M146.583 206.345 C 144.291 207.743,143.194 211.284,144.366 213.505 C 144.709 214.156,145.060 214.960,146.630 218.700 C 150.263 227.356,157.278 239.723,160.900 243.856 C 165.939 249.608,170.814 253.886,174.720 255.988 C 175.754 256.545,176.690 257.090,176.800 257.201 C 177.010 257.411,178.442 258.088,180.300 258.854 C 182.205 259.639,182.950 259.895,184.800 260.401 C 185.790 260.671,187.050 261.037,187.600 261.214 C 190.937 262.287,205.791 262.581,210.200 261.662 C 211.520 261.386,213.187 261.060,213.904 260.936 C 214.621 260.813,215.306 260.551,215.427 260.356 C 215.548 260.160,215.999 260.000,216.429 260.000 C 216.859 260.000,217.523 259.841,217.905 259.647 C 218.287 259.452,219.140 259.068,219.800 258.793 C 223.696 257.169,226.525 255.467,230.429 252.398 C 234.403 249.273,239.830 243.549,241.520 240.700 C 241.879 240.095,242.314 239.600,242.486 239.600 C 242.659 239.600,242.800 239.407,242.800 239.172 C 242.800 238.937,243.318 237.992,243.950 237.072 C 246.284 233.678,253.600 219.372,253.600 218.200 C 253.600 218.101,254.140 216.841,254.800 215.400 C 258.091 208.214,254.101 203.676,247.275 206.840 C 245.804 207.522,243.790 208.445,242.800 208.891 C 241.149 209.634,240.541 209.890,238.200 210.827 C 237.760 211.003,236.230 211.531,234.800 212.000 C 233.370 212.469,231.840 213.006,231.400 213.193 C 230.960 213.380,230.150 213.649,229.600 213.790 C 229.050 213.932,227.250 214.399,225.600 214.828 C 206.954 219.676,186.459 218.979,167.797 212.861 C 162.678 211.182,160.415 210.304,155.800 208.204 C 150.750 205.906,149.940 205.600,148.904 205.601 C 148.297 205.602,147.252 205.937,146.583 206.345 M134.000 289.181 C 131.451 291.849,126.097 295.016,122.600 295.922 C 121.720 296.150,120.259 296.531,119.354 296.768 C 117.212 297.330,109.349 297.324,106.906 296.759 C 103.146 295.890,101.789 295.516,101.105 295.161 C 98.871 294.000,96.270 295.071,94.304 297.961 C 93.616 298.972,92.937 299.890,92.796 300.000 C 92.655 300.110,91.757 301.370,90.800 302.800 C 89.843 304.230,88.942 305.490,88.798 305.600 C 88.654 305.710,87.696 307.036,86.668 308.547 L 84.800 311.293 84.800 355.647 L 84.800 400.000 199.982 400.000 L 315.164 400.000 315.398 398.700 C 315.527 397.985,315.580 378.140,315.516 354.600 C 315.392 308.934,315.443 310.172,313.623 308.800 C 313.477 308.690,312.557 307.430,311.579 306.000 C 310.601 304.570,309.701 303.310,309.581 303.200 C 309.460 303.090,308.929 302.370,308.400 301.600 C 307.871 300.830,307.328 300.110,307.193 300.000 C 307.058 299.890,306.384 298.972,305.696 297.961 C 303.730 295.071,301.129 294.000,298.895 295.161 C 298.211 295.516,296.854 295.890,293.094 296.759 C 290.651 297.324,282.788 297.330,280.646 296.768 C 279.741 296.531,278.280 296.150,277.400 295.922 C 273.776 294.983,268.444 291.786,265.900 289.027 L 264.400 287.400 264.400 290.094 C 264.400 292.592,264.176 294.006,263.114 298.200 C 262.206 301.787,259.472 307.264,257.349 309.749 C 256.717 310.489,255.756 311.675,255.212 312.384 C 253.075 315.173,243.657 321.200,241.435 321.200 C 241.112 321.200,240.736 321.380,240.600 321.600 C 240.464 321.820,239.902 322.000,239.350 322.000 C 238.799 322.000,237.983 322.195,237.538 322.433 C 236.512 322.982,223.979 323.016,222.948 322.472 C 222.537 322.255,221.390 321.851,220.400 321.574 C 215.361 320.164,208.301 315.681,205.083 311.848 C 201.691 307.808,198.412 307.791,195.068 311.795 C 191.250 316.366,184.506 320.325,177.280 322.239 C 174.844 322.884,164.568 323.016,162.628 322.427 C 161.953 322.222,160.590 321.830,159.600 321.555 C 146.162 317.829,136.498 304.842,135.492 289.157 L 135.400 287.715 134.000 289.181 " stroke="none" fill="#5494fc" fill-rule="evenodd"></path><path id="path2" d="M228.193 44.600 C 228.193 69.240,228.241 79.261,228.300 66.869 C 228.359 54.477,228.359 34.317,228.300 22.069 C 228.241 9.821,228.193 19.960,228.193 44.600 M172.163 20.800 C 172.163 24.430,172.223 25.915,172.298 24.100 C 172.372 22.285,172.372 19.315,172.298 17.500 C 172.223 15.685,172.163 17.170,172.163 20.800 M37.315 23.480 C 33.415 24.235,32.212 30.197,35.373 33.100 L 36.788 34.400 47.594 34.400 L 58.400 34.400 60.000 32.800 C 63.068 29.732,61.603 24.261,57.493 23.439 C 56.168 23.174,38.713 23.210,37.315 23.480 M38.014 49.238 C 31.936 50.429,32.021 59.320,38.119 60.199 C 39.044 60.332,51.986 60.387,66.880 60.321 L 93.960 60.200 95.380 58.650 C 96.946 56.940,97.261 55.355,96.598 52.512 C 96.268 51.097,94.405 49.667,92.302 49.216 C 89.915 48.704,40.636 48.724,38.014 49.238 M37.535 75.083 C 32.243 75.894,32.267 84.355,37.566 85.943 C 39.616 86.557,90.717 86.585,92.920 85.974 C 98.323 84.473,98.229 76.146,92.796 75.059 C 91.419 74.784,39.341 74.806,37.535 75.083 M172.163 82.400 C 172.163 86.030,172.223 87.515,172.298 85.700 C 172.372 83.885,172.372 80.915,172.298 79.100 C 172.223 77.285,172.163 78.770,172.163 82.400 M228.197 136.200 L 228.200 183.000 229.200 183.066 C 230.078 183.123,230.090 183.107,229.302 182.938 L 228.403 182.745 228.299 136.072 L 228.195 89.400 228.197 136.200 M87.913 130.295 C 89.076 130.376,90.876 130.376,91.913 130.293 C 92.951 130.211,92.000 130.145,89.800 130.146 C 87.600 130.147,86.751 130.214,87.913 130.295 M308.500 130.294 C 309.545 130.376,311.255 130.376,312.300 130.294 C 313.345 130.212,312.490 130.144,310.400 130.144 C 308.310 130.144,307.455 130.212,308.500 130.294 M82.305 130.683 C 82.802 130.779,83.522 130.775,83.905 130.675 C 84.287 130.575,83.880 130.496,83.000 130.501 C 82.120 130.505,81.807 130.587,82.305 130.683 M95.500 130.682 C 95.995 130.778,96.805 130.778,97.300 130.682 C 97.795 130.587,97.390 130.509,96.400 130.509 C 95.410 130.509,95.005 130.587,95.500 130.682 M303.105 130.683 C 303.602 130.779,304.322 130.775,304.705 130.675 C 305.087 130.575,304.680 130.496,303.800 130.501 C 302.920 130.505,302.607 130.587,303.105 130.683 M316.305 130.683 C 316.802 130.779,317.522 130.775,317.905 130.675 C 318.287 130.575,317.880 130.496,317.000 130.501 C 316.120 130.505,315.807 130.587,316.305 130.683 M100.433 131.344 C 100.525 131.423,101.140 131.608,101.800 131.756 C 102.676 131.952,102.838 131.915,102.400 131.618 C 101.860 131.253,100.032 130.998,100.433 131.344 M297.600 131.618 C 297.162 131.915,297.324 131.952,298.200 131.756 C 299.671 131.427,299.990 131.198,298.967 131.206 C 298.545 131.209,297.930 131.395,297.600 131.618 M330.833 134.565 C 330.925 134.656,332.260 135.395,333.800 136.207 C 335.340 137.020,337.928 138.585,339.551 139.686 C 341.174 140.787,342.376 141.485,342.223 141.237 C 341.597 140.224,332.018 134.400,330.977 134.400 C 330.806 134.400,330.742 134.474,330.833 134.565 M281.295 139.011 C 280.143 139.786,279.200 140.508,279.200 140.615 C 279.200 140.721,280.190 140.151,281.400 139.347 C 283.322 138.071,283.887 137.600,283.495 137.600 C 283.437 137.600,282.447 138.235,281.295 139.011 M172.162 145.000 C 172.162 148.520,172.224 149.906,172.298 148.081 C 172.372 146.256,172.372 143.376,172.297 141.681 C 172.222 139.986,172.161 141.480,172.162 145.000 M342.800 141.764 C 342.800 141.941,343.770 143.011,344.955 144.143 C 348.926 147.934,354.400 154.790,354.400 155.972 C 354.400 156.207,354.591 156.400,354.824 156.400 C 355.305 156.400,355.245 156.283,353.073 153.000 C 351.516 150.646,348.213 146.582,346.572 145.000 C 343.890 142.414,342.800 141.480,342.800 141.764 M53.590 145.100 L 50.600 148.200 53.789 145.200 C 55.542 143.550,57.057 142.155,57.155 142.100 C 57.253 142.045,57.164 142.000,56.957 142.000 C 56.749 142.000,55.234 143.395,53.590 145.100 M125.800 145.200 C 127.328 146.740,128.669 148.000,128.779 148.000 C 128.889 148.000,127.728 146.740,126.200 145.200 C 124.672 143.660,123.331 142.400,123.221 142.400 C 123.111 142.400,124.272 143.660,125.800 145.200 M273.986 145.100 L 271.800 147.400 274.191 145.200 C 275.506 143.990,276.661 142.955,276.757 142.900 C 276.854 142.845,276.762 142.800,276.553 142.800 C 276.344 142.800,275.189 143.835,273.986 145.100 M47.287 152.500 C 45.827 154.656,45.512 155.200,45.720 155.200 C 45.812 155.200,46.544 154.210,47.347 153.000 C 48.151 151.790,48.725 150.800,48.623 150.800 C 48.522 150.800,47.920 151.565,47.287 152.500 M138.000 161.600 C 138.697 162.480,139.357 163.200,139.467 163.200 C 139.577 163.200,139.097 162.480,138.400 161.600 C 137.703 160.720,137.043 160.000,136.933 160.000 C 136.823 160.000,137.303 160.720,138.000 161.600 M139.600 163.710 C 139.600 163.771,140.995 165.166,142.700 166.810 L 145.800 169.800 142.810 166.700 C 140.033 163.821,139.600 163.417,139.600 163.710 M258.975 164.900 L 257.800 166.200 259.100 165.025 C 259.815 164.379,260.400 163.794,260.400 163.725 C 260.400 163.416,260.070 163.688,258.975 164.900 M254.183 169.510 C 253.294 170.330,251.854 171.596,250.983 172.324 C 250.113 173.052,250.480 172.847,251.800 171.868 C 253.935 170.285,256.423 167.983,255.970 168.010 C 255.876 168.016,255.073 168.691,254.183 169.510 M360.034 169.800 C 360.072 171.166,360.738 172.442,360.766 171.200 C 360.778 170.650,360.613 169.930,360.400 169.600 C 360.080 169.105,360.016 169.140,360.034 169.800 M38.618 175.018 C 38.465 176.039,38.422 176.955,38.522 177.055 C 38.622 177.155,38.829 176.402,38.982 175.382 C 39.135 174.361,39.178 173.445,39.078 173.345 C 38.978 173.245,38.771 173.998,38.618 175.018 M360.868 174.000 C 360.887 175.650,361.517 177.356,361.532 175.800 C 361.538 175.140,361.389 174.240,361.200 173.800 C 360.887 173.073,360.857 173.091,360.868 174.000 M152.000 174.501 C 152.000 174.755,155.096 176.800,155.480 176.800 C 155.644 176.800,155.423 176.558,154.989 176.261 C 153.081 174.959,152.000 174.322,152.000 174.501 M236.200 180.614 C 235.195 181.098,235.163 181.153,236.000 180.951 C 236.550 180.819,237.171 180.550,237.380 180.355 C 237.898 179.871,237.614 179.933,236.200 180.614 M38.495 186.400 C 38.495 186.950,38.632 187.940,38.800 188.600 C 39.072 189.670,39.105 189.692,39.105 188.800 C 39.105 188.250,38.968 187.260,38.800 186.600 C 38.528 185.530,38.495 185.508,38.495 186.400 M361.041 187.527 C 360.865 188.477,360.820 189.353,360.941 189.474 C 361.271 189.805,361.688 187.817,361.514 186.741 C 361.402 186.046,361.278 186.252,361.041 187.527 M39.268 191.600 C 39.288 192.639,39.918 194.346,39.932 193.400 C 39.938 192.960,39.789 192.240,39.600 191.800 C 39.389 191.310,39.261 191.232,39.268 191.600 M360.229 192.229 C 360.081 192.815,360.051 193.384,360.161 193.494 C 360.271 193.604,360.481 193.215,360.629 192.629 C 360.776 192.042,360.806 191.473,360.696 191.363 C 360.586 191.253,360.376 191.642,360.229 192.229 M44.360 205.800 C 45.034 207.105,45.588 207.828,45.585 207.400 C 45.583 207.180,45.214 206.550,44.764 206.000 C 44.221 205.336,44.085 205.269,44.360 205.800 M248.000 205.800 C 246.722 206.530,246.996 206.534,249.000 205.812 C 249.880 205.495,250.240 205.234,249.800 205.232 C 249.360 205.230,248.550 205.486,248.000 205.800 M144.604 207.196 C 143.974 207.854,143.535 208.456,143.629 208.534 C 143.723 208.612,144.313 208.074,144.939 207.338 C 146.354 205.677,146.145 205.588,144.604 207.196 M255.029 207.238 C 255.673 208.029,256.281 208.608,256.379 208.525 C 256.478 208.442,255.951 207.795,255.209 207.087 L 253.858 205.800 255.029 207.238 M353.968 207.900 C 353.655 208.505,353.085 209.349,352.700 209.775 C 352.315 210.202,352.000 210.772,352.000 211.042 C 352.000 211.312,351.865 211.593,351.700 211.667 C 351.535 211.740,350.743 212.619,349.939 213.619 C 349.136 214.620,347.562 216.375,346.441 217.519 C 345.321 218.664,344.553 219.600,344.736 219.600 C 345.203 219.600,349.480 215.009,351.450 212.392 C 353.664 209.452,355.287 206.800,354.873 206.800 C 354.687 206.800,354.280 207.295,353.968 207.900 M46.277 209.231 C 46.675 209.908,47.256 210.673,47.568 210.931 C 47.880 211.189,47.632 210.635,47.015 209.700 C 45.720 207.737,45.209 207.412,46.277 209.231 M143.301 211.000 C 143.305 211.880,143.387 212.193,143.483 211.695 C 143.579 211.198,143.575 210.478,143.475 210.095 C 143.375 209.713,143.296 210.120,143.301 211.000 M256.501 211.000 C 256.505 211.880,256.587 212.193,256.683 211.695 C 256.779 211.198,256.775 210.478,256.675 210.095 C 256.575 209.713,256.496 210.120,256.501 211.000 M50.034 214.247 C 50.565 214.933,51.080 215.423,51.179 215.335 C 51.277 215.247,50.843 214.686,50.213 214.088 L 49.069 213.000 50.034 214.247 M181.400 216.000 C 181.840 216.189,182.470 216.344,182.800 216.344 C 183.178 216.344,183.104 216.217,182.600 216.000 C 182.160 215.811,181.530 215.656,181.200 215.656 C 180.822 215.656,180.896 215.783,181.400 216.000 M217.400 216.000 C 216.896 216.217,216.822 216.344,217.200 216.344 C 217.530 216.344,218.160 216.189,218.600 216.000 C 219.104 215.783,219.178 215.656,218.800 215.656 C 218.470 215.656,217.840 215.811,217.400 216.000 M53.183 217.700 C 54.164 218.745,55.019 219.600,55.083 219.600 C 55.384 219.600,55.066 219.241,53.300 217.583 L 51.400 215.800 53.183 217.700 M193.507 217.490 C 194.226 217.579,195.306 217.577,195.907 217.486 C 196.508 217.395,195.920 217.322,194.600 217.324 C 193.280 217.326,192.788 217.401,193.507 217.490 M204.307 217.490 C 205.026 217.579,206.106 217.577,206.707 217.486 C 207.308 217.395,206.720 217.322,205.400 217.324 C 204.080 217.326,203.588 217.401,204.307 217.490 M198.900 217.887 C 199.505 217.978,200.495 217.978,201.100 217.887 C 201.705 217.795,201.210 217.720,200.000 217.720 C 198.790 217.720,198.295 217.795,198.900 217.887 M341.705 221.725 C 340.993 222.206,340.408 222.747,340.405 222.927 C 340.399 223.288,342.635 221.790,343.012 221.181 C 343.334 220.660,343.196 220.717,341.705 221.725 M338.900 223.744 C 338.405 223.989,338.000 224.333,338.000 224.509 C 338.000 224.894,339.455 224.159,339.801 223.598 C 339.937 223.379,339.992 223.222,339.924 223.249 C 339.856 223.276,339.395 223.499,338.900 223.744 M328.200 229.351 C 327.079 229.837,321.975 231.183,318.800 231.829 C 318.030 231.986,315.704 232.224,313.632 232.357 C 311.155 232.517,309.807 232.771,309.698 233.100 C 309.608 233.375,309.829 233.600,310.190 233.600 C 310.552 233.600,310.736 233.420,310.600 233.200 C 310.443 232.946,311.527 232.800,313.571 232.800 C 316.532 232.800,317.623 232.640,322.200 231.531 C 324.506 230.973,328.898 229.570,329.600 229.168 C 330.522 228.640,329.548 228.767,328.200 229.351 M78.200 231.600 C 78.640 231.789,79.270 231.944,79.600 231.944 C 79.978 231.944,79.904 231.817,79.400 231.600 C 78.960 231.411,78.330 231.256,78.000 231.256 C 77.622 231.256,77.696 231.383,78.200 231.600 M82.200 232.400 C 82.860 232.568,83.940 232.706,84.600 232.707 C 85.609 232.708,85.545 232.655,84.200 232.377 C 82.174 231.958,80.537 231.977,82.200 232.400 M79.186 239.900 L 77.000 242.200 79.300 240.014 C 80.565 238.811,81.600 237.776,81.600 237.714 C 81.600 237.417,81.218 237.763,79.186 239.900 M320.600 240.000 C 321.906 241.320,323.065 242.400,323.175 242.400 C 323.285 242.400,322.306 241.320,321.000 240.000 C 319.694 238.680,318.535 237.600,318.425 237.600 C 318.315 237.600,319.294 238.680,320.600 240.000 M237.426 246.300 C 236.121 247.785,235.643 248.460,236.364 247.800 C 237.618 246.651,240.212 243.600,239.934 243.600 C 239.860 243.600,238.732 244.815,237.426 246.300 M161.600 245.710 C 161.600 245.771,162.995 247.166,164.700 248.810 L 167.800 251.800 164.810 248.700 C 162.033 245.821,161.600 245.417,161.600 245.710 M168.000 251.725 C 168.000 251.794,168.585 252.379,169.300 253.025 L 170.600 254.200 169.425 252.900 C 168.330 251.688,168.000 251.416,168.000 251.725 M327.280 252.600 C 327.280 253.040,327.424 253.850,327.600 254.400 C 327.854 255.192,327.920 255.233,327.920 254.600 C 327.920 254.160,327.776 253.350,327.600 252.800 C 327.346 252.008,327.280 251.967,327.280 252.600 M72.087 260.800 C 72.083 261.350,72.224 262.250,72.400 262.800 C 72.831 264.144,72.831 262.692,72.400 261.000 C 72.126 259.922,72.094 259.902,72.087 260.800 M327.400 262.000 C 327.246 262.910,327.204 263.738,327.307 263.840 C 327.410 263.943,327.613 263.277,327.760 262.360 C 327.907 261.443,327.948 260.615,327.853 260.520 C 327.758 260.424,327.554 261.090,327.400 262.000 M192.305 262.683 C 192.802 262.779,193.522 262.775,193.905 262.675 C 194.287 262.575,193.880 262.496,193.000 262.501 C 192.120 262.505,191.807 262.587,192.305 262.683 M206.305 262.683 C 206.802 262.779,207.522 262.775,207.905 262.675 C 208.287 262.575,207.880 262.496,207.000 262.501 C 206.120 262.505,205.807 262.587,206.305 262.683 M197.700 263.096 C 198.965 263.175,201.035 263.175,202.300 263.096 C 203.565 263.016,202.530 262.951,200.000 262.951 C 197.470 262.951,196.435 263.016,197.700 263.096 M329.801 279.134 C 330.460 279.868,331.360 280.655,331.800 280.883 C 332.240 281.111,332.420 281.140,332.200 280.948 C 331.980 280.755,331.080 279.968,330.201 279.199 L 328.602 277.800 329.801 279.134 M68.600 280.250 C 67.881 280.862,67.734 281.105,68.233 280.857 C 68.966 280.493,70.341 279.176,69.949 279.214 C 69.867 279.222,69.260 279.688,68.600 280.250 M53.905 279.883 C 54.402 279.979,55.122 279.975,55.505 279.875 C 55.887 279.775,55.480 279.696,54.600 279.701 C 53.720 279.705,53.407 279.787,53.905 279.883 M344.705 279.883 C 345.202 279.979,345.922 279.975,346.305 279.875 C 346.687 279.775,346.280 279.696,345.400 279.701 C 344.520 279.705,344.207 279.787,344.705 279.883 M48.126 282.500 C 46.792 283.910,45.818 285.552,46.131 285.864 C 46.239 285.972,46.452 285.667,46.604 285.186 C 46.757 284.705,47.514 283.611,48.288 282.756 C 49.986 280.876,49.857 280.671,48.126 282.500 M65.400 281.600 C 64.896 281.817,64.822 281.944,65.200 281.944 C 65.530 281.944,66.160 281.789,66.600 281.600 C 67.104 281.383,67.178 281.256,66.800 281.256 C 66.470 281.256,65.840 281.411,65.400 281.600 M338.200 281.600 C 337.696 281.817,337.622 281.944,338.000 281.944 C 338.330 281.944,338.960 281.789,339.400 281.600 C 339.904 281.383,339.978 281.256,339.600 281.256 C 339.270 281.256,338.640 281.411,338.200 281.600 M351.599 282.601 C 352.368 283.480,353.155 284.380,353.348 284.600 C 353.540 284.820,353.511 284.640,353.283 284.200 C 353.055 283.760,352.268 282.860,351.534 282.201 L 350.200 281.002 351.599 282.601 M132.696 289.413 C 131.209 290.836,130.091 292.000,130.212 292.000 C 130.333 292.000,131.677 290.830,133.200 289.400 C 134.723 287.970,135.840 286.806,135.684 286.813 C 135.528 286.821,134.183 287.991,132.696 289.413 M263.867 287.067 C 263.720 287.213,263.600 288.248,263.600 289.367 C 263.600 290.485,263.328 292.823,262.995 294.562 C 262.465 297.331,262.446 299.141,262.963 297.557 C 263.337 296.413,264.413 286.795,264.167 286.799 C 264.148 286.800,264.013 286.920,263.867 287.067 M266.383 288.900 C 268.041 290.666,268.400 290.984,268.400 290.683 C 268.400 290.619,267.545 289.764,266.500 288.783 L 264.600 287.000 266.383 288.900 M354.416 287.454 C 354.407 287.704,354.663 288.514,354.984 289.254 C 355.306 289.994,355.576 290.396,355.584 290.146 C 355.593 289.896,355.337 289.086,355.016 288.346 C 354.694 287.606,354.424 287.204,354.416 287.454 M136.124 289.800 C 136.126 291.120,136.201 291.612,136.290 290.893 C 136.379 290.174,136.377 289.094,136.286 288.493 C 136.195 287.892,136.122 288.480,136.124 289.800 M42.846 294.867 C 42.821 295.234,42.696 295.864,42.570 296.267 C 42.352 296.962,42.363 296.963,42.797 296.287 C 43.048 295.896,43.173 295.266,43.073 294.887 C 42.911 294.268,42.888 294.266,42.846 294.867 M95.375 295.700 L 94.200 297.000 95.598 295.800 C 96.367 295.140,97.072 294.555,97.165 294.500 C 97.257 294.445,97.157 294.400,96.942 294.400 C 96.726 294.400,96.021 294.985,95.375 295.700 M302.835 294.500 C 302.928 294.555,303.633 295.140,304.402 295.800 L 305.800 297.000 304.625 295.700 C 303.979 294.985,303.274 294.400,303.058 294.400 C 302.843 294.400,302.743 294.445,302.835 294.500 M117.200 296.400 C 116.408 296.654,116.367 296.720,117.000 296.720 C 117.440 296.720,118.250 296.576,118.800 296.400 C 119.592 296.146,119.633 296.080,119.000 296.080 C 118.560 296.080,117.750 296.224,117.200 296.400 M281.200 296.400 C 281.750 296.576,282.560 296.720,283.000 296.720 C 283.633 296.720,283.592 296.654,282.800 296.400 C 282.250 296.224,281.440 296.080,281.000 296.080 C 280.367 296.080,280.408 296.146,281.200 296.400 M290.600 296.400 C 289.522 296.674,289.502 296.706,290.400 296.713 C 290.950 296.717,291.850 296.576,292.400 296.400 C 293.744 295.969,292.292 295.969,290.600 296.400 M357.746 301.800 C 357.747 304.000,357.814 304.849,357.895 303.687 C 357.976 302.524,357.976 300.724,357.893 299.687 C 357.811 298.649,357.745 299.600,357.746 301.800 M42.140 301.600 C 42.140 303.470,42.209 304.235,42.293 303.300 C 42.377 302.365,42.377 300.835,42.293 299.900 C 42.209 298.965,42.140 299.730,42.140 301.600 M91.600 300.600 C 90.919 301.590,90.452 302.400,90.562 302.400 C 90.672 302.400,91.319 301.590,92.000 300.600 C 92.681 299.610,93.148 298.800,93.038 298.800 C 92.928 298.800,92.281 299.610,91.600 300.600 M260.655 302.655 C 260.276 303.449,260.048 304.181,260.149 304.282 C 260.249 304.383,260.641 303.814,261.018 303.018 C 261.396 302.222,261.623 301.490,261.524 301.391 C 261.425 301.291,261.033 301.860,260.655 302.655 M310.002 303.033 C 310.003 303.235,310.468 303.940,311.035 304.600 L 312.066 305.800 311.163 304.400 C 310.004 302.604,310.000 302.599,310.002 303.033 M88.000 305.600 C 87.530 306.260,87.236 306.800,87.346 306.800 C 87.456 306.800,87.930 306.260,88.400 305.600 C 88.870 304.940,89.164 304.400,89.054 304.400 C 88.944 304.400,88.470 304.940,88.000 305.600 M258.869 306.039 C 258.110 307.254,258.566 307.416,259.355 306.212 C 259.720 305.656,259.878 305.200,259.705 305.200 C 259.533 305.200,259.157 305.578,258.869 306.039 M257.269 308.439 C 256.510 309.654,256.966 309.816,257.755 308.612 C 258.120 308.056,258.278 307.600,258.105 307.600 C 257.933 307.600,257.557 307.978,257.269 308.439 M195.206 310.594 C 194.463 311.361,193.932 312.050,194.027 312.125 C 194.122 312.200,194.806 311.573,195.546 310.731 C 197.229 308.818,197.012 308.731,195.206 310.594 M204.600 310.800 C 205.459 311.680,206.252 312.400,206.362 312.400 C 206.472 312.400,205.859 311.680,205.000 310.800 C 204.141 309.920,203.348 309.200,203.238 309.200 C 203.128 309.200,203.741 309.920,204.600 310.800 M253.600 312.718 C 250.956 315.338,248.003 317.600,247.228 317.600 C 246.993 317.600,246.799 317.735,246.797 317.900 C 246.793 318.259,244.856 319.200,244.120 319.200 C 243.834 319.200,243.600 319.380,243.600 319.600 C 243.600 319.820,243.251 320.000,242.824 320.000 C 242.397 320.000,241.936 320.180,241.800 320.400 C 241.179 321.405,245.575 319.385,248.943 317.118 C 251.426 315.446,256.742 310.576,256.390 310.295 C 256.286 310.212,255.030 311.302,253.600 312.718 M145.983 312.900 C 147.641 314.666,148.000 314.984,148.000 314.683 C 148.000 314.619,147.145 313.764,146.100 312.783 L 144.200 311.000 145.983 312.900 M315.793 355.800 C 315.793 380.220,315.841 390.151,315.900 377.869 C 315.959 365.587,315.959 345.607,315.900 333.469 C 315.841 321.331,315.793 331.380,315.793 355.800 M207.200 313.325 C 207.200 313.394,207.785 313.979,208.500 314.625 L 209.800 315.800 208.625 314.500 C 207.530 313.288,207.200 313.016,207.200 313.325 M354.379 315.055 C 354.158 315.636,354.052 316.185,354.143 316.276 C 354.233 316.367,354.499 315.892,354.733 315.220 C 355.253 313.728,354.939 313.582,354.379 315.055 M46.000 316.884 C 46.000 317.316,47.215 320.000,47.411 320.000 C 47.521 320.000,47.333 319.334,46.993 318.521 C 46.393 317.086,46.000 316.438,46.000 316.884 M180.000 320.800 C 179.176 321.064,179.141 321.126,179.800 321.154 C 180.240 321.173,180.870 321.013,181.200 320.800 C 181.901 320.347,181.414 320.347,180.000 320.800 M239.200 321.200 C 238.667 321.545,238.667 321.588,239.200 321.588 C 239.530 321.588,240.070 321.413,240.400 321.200 C 240.933 320.855,240.933 320.812,240.400 320.812 C 240.070 320.812,239.530 320.987,239.200 321.200 M223.200 322.000 C 224.636 322.460,225.284 322.460,225.000 322.000 C 224.864 321.780,224.178 321.618,223.476 321.640 C 222.257 321.678,222.245 321.694,223.200 322.000 M235.600 322.000 C 234.813 322.509,236.216 322.509,237.400 322.000 C 238.133 321.685,238.116 321.654,237.200 321.634 C 236.650 321.622,235.930 321.787,235.600 322.000 M167.715 322.696 C 168.988 322.776,170.968 322.775,172.115 322.694 C 173.262 322.614,172.220 322.549,169.800 322.550 C 167.380 322.551,166.442 322.616,167.715 322.696 M229.300 322.687 C 229.905 322.778,230.895 322.778,231.500 322.687 C 232.105 322.595,231.610 322.520,230.400 322.520 C 229.190 322.520,228.695 322.595,229.300 322.687 M54.190 369.400 C 54.190 386.340,54.240 393.212,54.300 384.670 C 54.360 376.129,54.360 362.269,54.300 353.870 C 54.240 345.472,54.190 352.460,54.190 369.400 M345.790 369.600 C 345.790 386.430,345.840 393.315,345.900 384.900 C 345.960 376.485,345.960 362.715,345.900 354.300 C 345.840 345.885,345.790 352.770,345.790 369.600 " stroke="none" fill="#91d9fc" fill-rule="evenodd"></path><path id="path3" d="M365.789 0.381 C 365.931 0.612,366.266 0.800,366.532 0.800 C 367.315 0.800,369.958 3.164,370.708 4.536 C 371.772 6.481,371.784 393.498,370.720 395.441 C 369.917 396.907,367.410 399.200,366.610 399.200 C 366.300 399.200,365.931 399.388,365.789 399.619 C 365.610 399.908,370.084 400.000,380.279 399.919 L 395.028 399.800 396.514 398.313 C 397.331 397.496,398.000 396.551,398.000 396.213 C 398.000 395.876,398.180 395.600,398.400 395.600 C 398.666 395.600,398.800 330.133,398.800 200.000 C 398.800 69.867,398.666 4.400,398.400 4.400 C 398.180 4.400,398.000 4.124,398.000 3.787 C 398.000 3.449,397.331 2.504,396.514 1.687 L 395.028 0.200 380.279 0.081 C 370.084 -0.000,365.610 0.092,365.789 0.381 " stroke="none" fill="#4474f4" fill-rule="evenodd"></path><path id="path4" d="M171.634 6.600 C 171.571 10.340,171.526 51.443,171.534 97.940 L 171.549 182.479 170.074 182.231 C 168.913 182.036,168.751 182.076,169.312 182.418 C 169.703 182.657,170.423 182.796,170.912 182.726 L 171.800 182.600 171.908 93.200 C 171.968 44.030,171.956 2.900,171.882 1.800 C 171.808 0.700,171.697 2.860,171.634 6.600 M228.567 20.200 C 228.567 24.380,228.626 26.036,228.698 23.879 C 228.771 21.723,228.770 18.303,228.698 16.279 C 228.625 14.256,228.566 16.020,228.567 20.200 M36.578 23.184 C 31.920 25.070,31.790 32.048,36.368 34.384 C 38.911 35.681,56.531 35.627,58.865 34.315 C 63.031 31.974,63.217 26.396,59.219 23.701 C 57.809 22.751,38.724 22.315,36.578 23.184 M57.493 23.439 C 61.603 24.261,63.068 29.732,60.000 32.800 L 58.400 34.400 47.594 34.400 L 36.788 34.400 35.373 33.100 C 32.212 30.197,33.415 24.235,37.315 23.480 C 38.713 23.210,56.168 23.174,57.493 23.439 M36.095 49.429 C 32.209 51.758,31.798 56.221,35.177 59.400 L 36.452 60.600 64.649 60.708 C 96.520 60.830,94.749 60.995,96.663 57.728 C 98.496 54.601,97.334 50.901,93.982 49.191 C 92.482 48.426,91.542 48.400,65.116 48.404 L 37.800 48.408 36.095 49.429 M92.302 49.216 C 94.405 49.667,96.268 51.097,96.598 52.512 C 97.261 55.355,96.946 56.940,95.380 58.650 L 93.960 60.200 66.880 60.321 C 51.986 60.387,39.044 60.332,38.119 60.199 C 32.021 59.320,31.936 50.429,38.014 49.238 C 40.636 48.724,89.915 48.704,92.302 49.216 M36.924 74.679 C 31.902 75.655,31.773 84.150,36.749 86.235 C 38.793 87.091,91.651 87.072,93.703 86.215 C 98.902 84.043,98.505 75.721,93.152 74.650 C 91.781 74.376,38.342 74.404,36.924 74.679 M92.796 75.059 C 98.229 76.146,98.323 84.473,92.920 85.974 C 90.717 86.585,39.616 86.557,37.566 85.943 C 32.267 84.355,32.243 75.894,37.535 75.083 C 39.341 74.806,91.419 74.784,92.796 75.059 M228.317 82.239 C 228.253 86.330,228.335 89.761,228.500 89.862 C 228.665 89.964,228.800 86.617,228.800 82.424 C 228.800 78.231,228.718 74.800,228.617 74.800 C 228.516 74.800,228.381 78.147,228.317 82.239 M84.076 129.940 C 83.568 130.083,86.144 130.200,89.800 130.200 C 93.456 130.200,96.032 130.083,95.524 129.940 C 95.016 129.797,92.440 129.680,89.800 129.680 C 87.160 129.680,84.584 129.797,84.076 129.940 M304.476 129.940 C 303.968 130.083,306.634 130.200,310.400 130.200 C 314.166 130.200,316.832 130.083,316.324 129.940 C 315.816 129.797,313.150 129.680,310.400 129.680 C 307.650 129.680,304.984 129.797,304.476 129.940 M79.200 130.800 C 78.436 131.294,79.258 131.294,80.800 130.800 L 81.800 130.480 80.800 130.446 C 80.250 130.427,79.530 130.587,79.200 130.800 M98.600 130.800 C 99.784 131.309,101.187 131.309,100.400 130.800 C 100.070 130.587,99.350 130.422,98.800 130.434 C 97.884 130.454,97.867 130.485,98.600 130.800 M299.600 130.800 C 298.842 131.290,300.070 131.290,301.600 130.800 C 302.580 130.486,302.576 130.479,301.400 130.446 C 300.740 130.427,299.930 130.587,299.600 130.800 M319.200 130.800 C 320.742 131.294,321.564 131.294,320.800 130.800 C 320.470 130.587,319.750 130.427,319.200 130.446 L 318.200 130.480 319.200 130.800 M75.800 131.600 C 75.296 131.817,75.222 131.944,75.600 131.944 C 75.930 131.944,76.560 131.789,77.000 131.600 C 77.504 131.383,77.578 131.256,77.200 131.256 C 76.870 131.256,76.240 131.411,75.800 131.600 M102.400 131.600 C 102.730 131.813,103.360 131.978,103.800 131.966 L 104.600 131.944 103.800 131.600 C 102.604 131.086,101.605 131.086,102.400 131.600 M296.200 131.600 L 295.400 131.944 296.200 131.966 C 296.640 131.978,297.270 131.813,297.600 131.600 C 298.395 131.086,297.396 131.086,296.200 131.600 M323.000 131.600 C 324.196 132.114,325.195 132.114,324.400 131.600 C 324.070 131.387,323.440 131.222,323.000 131.234 L 322.200 131.256 323.000 131.600 M73.200 132.400 C 72.667 132.745,72.667 132.788,73.200 132.788 C 73.530 132.788,74.070 132.613,74.400 132.400 C 74.933 132.055,74.933 132.012,74.400 132.012 C 74.070 132.012,73.530 132.187,73.200 132.400 M105.200 132.400 C 105.530 132.613,106.070 132.788,106.400 132.788 C 106.933 132.788,106.933 132.745,106.400 132.400 C 106.070 132.187,105.530 132.012,105.200 132.012 C 104.667 132.012,104.667 132.055,105.200 132.400 M293.600 132.400 C 293.067 132.745,293.067 132.788,293.600 132.788 C 293.930 132.788,294.470 132.613,294.800 132.400 C 295.333 132.055,295.333 132.012,294.800 132.012 C 294.470 132.012,293.930 132.187,293.600 132.400 M325.600 132.400 C 325.930 132.613,326.470 132.788,326.800 132.788 C 327.333 132.788,327.333 132.745,326.800 132.400 C 326.470 132.187,325.930 132.012,325.600 132.012 C 325.067 132.012,325.067 132.055,325.600 132.400 M69.600 133.766 C 64.797 135.802,56.800 140.791,56.800 141.751 C 56.800 141.896,58.066 141.050,59.614 139.870 C 61.963 138.081,67.202 135.204,71.600 133.290 C 72.150 133.050,72.420 132.850,72.200 132.844 C 71.980 132.838,70.810 133.253,69.600 133.766 M108.000 133.298 C 111.843 135.006,114.357 136.247,115.323 136.913 C 115.941 137.339,116.539 137.594,116.653 137.480 C 116.929 137.204,112.341 134.668,109.685 133.628 C 107.480 132.764,106.263 132.527,108.000 133.298 M290.600 133.578 C 289.720 133.995,289.193 134.350,289.429 134.368 C 289.664 134.385,290.564 134.047,291.429 133.616 C 293.446 132.610,292.717 132.576,290.600 133.578 M328.000 133.200 C 328.330 133.413,328.870 133.588,329.200 133.588 C 329.733 133.588,329.733 133.545,329.200 133.200 C 328.870 132.987,328.330 132.812,328.000 132.812 C 327.467 132.812,327.467 132.855,328.000 133.200 M330.000 133.739 C 330.000 133.816,331.395 134.564,333.100 135.402 C 344.240 140.877,353.486 150.848,358.042 162.300 C 358.239 162.795,358.559 163.605,358.754 164.100 C 358.949 164.595,359.330 165.810,359.601 166.800 C 359.871 167.790,360.237 169.050,360.414 169.600 C 361.438 172.785,361.753 187.033,360.887 191.000 C 359.490 197.397,358.752 199.541,356.172 204.700 C 355.045 206.955,354.229 208.799,354.361 208.797 C 354.492 208.795,354.801 208.390,355.046 207.897 C 355.291 207.404,356.080 205.830,356.798 204.400 C 357.517 202.970,358.283 201.350,358.499 200.800 C 358.716 200.250,359.052 199.487,359.247 199.105 C 359.441 198.723,359.600 198.059,359.600 197.629 C 359.600 197.199,359.760 196.748,359.956 196.627 C 360.151 196.506,360.414 195.821,360.539 195.104 C 360.664 194.387,360.982 192.810,361.246 191.600 C 362.138 187.499,361.766 170.478,360.761 169.420 C 360.563 169.211,360.400 168.547,360.400 167.944 C 360.400 167.341,360.220 166.736,360.000 166.600 C 359.780 166.464,359.600 166.001,359.600 165.571 C 359.600 165.141,359.441 164.477,359.247 164.095 C 359.052 163.713,358.714 162.950,358.496 162.400 C 354.916 153.400,348.227 144.786,340.800 139.614 C 340.030 139.077,339.310 138.513,339.200 138.360 C 338.718 137.688,330.000 133.309,330.000 133.739 M287.000 135.123 C 282.851 137.464,280.400 139.008,280.400 139.280 C 280.400 139.453,281.615 138.822,283.100 137.878 C 284.585 136.934,286.475 135.847,287.300 135.462 C 288.125 135.077,288.800 134.681,288.800 134.581 C 288.800 134.259,288.226 134.431,287.000 135.123 M228.567 144.600 C 228.567 148.780,228.626 150.436,228.698 148.279 C 228.771 146.123,228.770 142.703,228.698 140.679 C 228.625 138.656,228.566 140.420,228.567 144.600 M117.400 137.878 C 118.278 138.705,123.198 142.400,123.420 142.400 C 123.783 142.400,122.801 141.499,120.659 139.865 C 118.816 138.459,116.547 137.076,117.400 137.878 M278.958 140.115 C 278.715 140.382,278.006 141.001,277.383 141.491 C 276.759 141.981,276.328 142.458,276.424 142.551 C 276.521 142.643,277.410 142.018,278.400 141.161 C 279.390 140.303,280.020 139.609,279.800 139.616 C 279.580 139.624,279.201 139.849,278.958 140.115 M53.066 145.100 C 51.383 146.805,49.447 149.010,48.764 150.000 C 47.614 151.666,48.082 151.240,50.080 148.800 C 50.530 148.250,52.177 146.495,53.739 144.900 C 55.302 143.305,56.478 142.000,56.353 142.000 C 56.229 142.000,54.749 143.395,53.066 145.100 M126.445 145.400 C 127.873 146.940,129.571 148.916,130.220 149.792 C 130.869 150.668,131.622 151.658,131.892 151.992 C 133.694 154.217,133.694 154.217,132.981 153.000 C 131.736 150.876,129.907 148.670,126.844 145.600 L 123.850 142.600 126.445 145.400 M272.028 146.681 C 269.528 149.394,265.830 154.475,264.446 157.100 C 263.397 159.090,264.432 157.776,267.126 153.700 C 269.942 149.439,270.609 148.592,273.746 145.300 C 274.638 144.365,275.254 143.600,275.117 143.600 C 274.979 143.600,273.589 144.986,272.028 146.681 M46.469 152.839 C 45.710 154.054,46.166 154.216,46.955 153.012 C 47.320 152.456,47.478 152.000,47.305 152.000 C 47.133 152.000,46.757 152.378,46.469 152.839 M45.104 155.300 C 44.212 156.665,42.727 159.661,42.872 159.804 C 42.942 159.874,43.666 158.686,44.481 157.165 C 45.949 154.422,46.234 153.571,45.104 155.300 M133.613 154.509 C 133.598 154.859,135.623 158.000,135.863 158.000 C 136.085 158.000,134.982 155.956,134.243 155.000 C 133.903 154.560,133.620 154.339,133.613 154.509 M136.791 159.588 C 138.028 161.324,138.625 161.534,137.532 159.848 C 137.019 159.057,136.453 158.408,136.273 158.405 C 136.093 158.402,136.326 158.935,136.791 159.588 M262.711 159.500 C 259.877 164.213,250.333 173.063,245.284 175.659 C 244.333 176.149,243.449 176.721,243.319 176.931 C 242.303 178.575,251.767 171.896,255.561 168.291 C 259.673 164.385,264.601 158.400,263.705 158.400 C 263.522 158.400,263.075 158.895,262.711 159.500 M139.537 163.100 C 142.232 166.457,149.641 173.074,152.400 174.588 C 153.369 175.120,152.445 174.330,149.400 172.026 C 146.392 169.749,139.200 162.687,139.200 162.010 C 139.200 161.785,139.005 161.600,138.766 161.600 C 138.528 161.600,138.875 162.275,139.537 163.100 M40.992 163.881 C 40.651 164.696,40.424 165.591,40.486 165.869 C 40.549 166.147,40.898 165.480,41.261 164.387 C 42.038 162.055,41.879 161.758,40.992 163.881 M39.867 167.067 C 39.720 167.213,39.615 167.798,39.634 168.367 C 39.668 169.381,39.675 169.379,40.021 168.220 C 40.385 167.003,40.331 166.602,39.867 167.067 M39.056 170.453 C 38.956 170.974,38.677 172.359,38.437 173.531 C 37.871 176.292,37.874 186.258,38.442 189.376 C 38.685 190.709,38.964 192.226,39.061 192.747 C 39.159 193.268,39.321 193.612,39.422 193.512 C 39.522 193.411,39.337 191.815,39.010 189.964 C 38.233 185.573,38.231 177.085,39.005 173.038 C 39.338 171.300,39.527 169.793,39.425 169.691 C 39.322 169.589,39.157 169.932,39.056 170.453 M154.400 175.790 C 154.400 175.894,154.985 176.265,155.700 176.614 L 157.000 177.248 156.000 176.433 C 155.037 175.648,154.400 175.392,154.400 175.790 M157.200 177.393 C 157.200 177.769,163.234 180.500,163.493 180.241 C 163.613 180.121,163.235 179.842,162.654 179.621 C 162.073 179.400,160.743 178.811,159.699 178.313 C 158.654 177.815,157.665 177.346,157.500 177.271 C 157.335 177.195,157.200 177.250,157.200 177.393 M240.276 178.287 C 239.217 178.836,238.434 179.368,238.536 179.469 C 238.741 179.675,242.800 177.699,242.800 177.393 C 242.800 177.065,242.271 177.252,240.276 178.287 M232.200 181.600 C 231.429 181.931,231.431 181.945,232.276 181.972 C 232.758 181.987,233.264 181.820,233.400 181.600 C 233.692 181.127,233.301 181.127,232.200 181.600 M229.200 182.400 L 228.200 182.720 229.200 182.754 C 229.750 182.773,230.470 182.613,230.800 182.400 C 231.564 181.906,230.742 181.906,229.200 182.400 M39.600 194.910 C 39.600 195.483,39.787 196.068,40.016 196.210 C 40.289 196.379,40.338 196.077,40.160 195.334 C 39.792 193.801,39.600 193.656,39.600 194.910 M40.428 197.476 C 40.413 197.958,40.580 198.464,40.800 198.600 C 41.273 198.892,41.273 198.501,40.800 197.400 C 40.469 196.629,40.455 196.631,40.428 197.476 M145.153 207.153 C 143.729 208.577,143.601 208.884,143.614 210.853 C 143.627 212.782,144.749 216.105,144.786 214.324 C 144.794 213.952,144.620 213.536,144.400 213.400 C 142.892 212.468,144.369 207.695,146.583 206.345 C 147.252 205.937,147.554 205.602,147.253 205.601 C 146.952 205.601,146.007 206.299,145.153 207.153 M253.417 206.345 C 256.308 208.108,256.766 211.107,254.800 215.400 C 254.140 216.841,253.600 218.114,253.600 218.229 C 253.600 218.344,252.787 220.167,251.793 222.279 C 250.799 224.391,250.067 226.200,250.165 226.299 C 250.363 226.496,251.046 225.037,254.952 216.081 C 256.995 211.397,256.970 209.276,254.847 207.153 C 253.993 206.299,253.048 205.601,252.747 205.601 C 252.446 205.602,252.748 205.937,253.417 206.345 M44.409 206.700 C 44.414 206.865,44.785 207.450,45.233 208.000 L 46.048 209.000 45.414 207.700 C 44.811 206.465,44.389 206.045,44.409 206.700 M245.600 207.200 C 244.830 207.622,244.397 207.974,244.639 207.983 C 245.140 208.002,247.600 206.829,247.600 206.571 C 247.600 206.246,246.994 206.437,245.600 207.200 M156.197 208.395 C 156.335 208.618,156.625 208.800,156.843 208.800 C 157.061 208.800,157.984 209.160,158.894 209.600 C 160.536 210.393,161.967 210.708,160.785 210.015 C 159.489 209.257,155.959 208.010,156.197 208.395 M241.283 209.069 C 239.898 209.635,238.863 210.197,238.983 210.317 C 239.103 210.436,239.606 210.343,240.101 210.108 C 240.595 209.873,241.675 209.385,242.500 209.022 C 243.325 208.659,244.000 208.281,244.000 208.181 C 244.000 207.944,244.163 207.890,241.283 209.069 M353.045 210.188 C 352.680 210.744,352.522 211.200,352.695 211.200 C 353.084 211.200,354.119 209.586,353.882 209.349 C 353.786 209.253,353.410 209.631,353.045 210.188 M48.060 212.288 C 49.398 214.232,55.214 220.519,55.454 220.279 C 55.528 220.205,54.458 218.987,53.075 217.572 C 51.693 216.158,49.784 213.965,48.833 212.700 C 46.746 209.924,46.253 209.661,48.060 212.288 M162.000 210.731 C 164.520 212.376,179.639 216.429,185.200 216.950 L 187.400 217.156 185.400 216.771 C 176.705 215.099,172.315 213.989,166.200 211.917 C 161.309 210.259,161.252 210.243,162.000 210.731 M233.000 212.152 C 227.957 213.915,223.063 215.143,214.600 216.771 L 212.600 217.156 214.800 216.950 C 217.441 216.702,221.452 215.908,225.800 214.771 C 227.560 214.311,229.450 213.835,230.000 213.713 C 230.550 213.592,231.180 213.370,231.400 213.221 C 231.620 213.071,233.150 212.523,234.800 212.002 C 236.450 211.482,237.971 210.908,238.180 210.728 C 238.817 210.178,238.032 210.394,233.000 212.152 M351.050 212.888 C 350.496 213.596,350.125 214.258,350.225 214.359 C 350.415 214.548,351.310 213.522,352.021 212.300 C 352.679 211.169,352.140 211.496,351.050 212.888 M345.933 218.392 C 340.834 223.492,333.973 227.772,327.000 230.205 C 325.108 230.865,324.327 231.071,320.000 232.052 C 319.010 232.276,316.400 232.581,314.200 232.730 L 310.200 233.000 312.600 234.176 C 317.569 236.612,321.641 240.003,324.147 243.793 C 324.726 244.669,325.200 245.241,325.200 245.065 C 325.200 243.072,318.832 236.873,314.400 234.552 L 312.200 233.400 314.000 233.308 C 316.139 233.199,320.990 232.447,322.400 232.006 C 322.950 231.834,324.210 231.471,325.200 231.201 C 326.190 230.930,327.405 230.549,327.900 230.354 C 328.395 230.159,329.205 229.844,329.700 229.653 C 330.195 229.462,331.770 228.717,333.200 227.998 C 334.630 227.280,336.204 226.491,336.697 226.246 C 337.190 226.001,337.595 225.665,337.597 225.500 C 337.599 225.335,337.836 225.200,338.125 225.200 C 338.413 225.200,338.998 224.880,339.425 224.489 C 339.851 224.098,340.830 223.339,341.600 222.803 C 342.370 222.266,343.720 221.160,344.600 220.345 C 345.480 219.529,346.560 218.528,347.000 218.119 C 348.533 216.695,350.147 214.800,349.775 214.862 C 349.569 214.896,347.840 216.485,345.933 218.392 M145.616 217.241 C 147.449 221.891,152.306 231.895,152.913 232.270 C 153.094 232.382,152.179 230.342,150.878 227.737 C 149.578 225.132,148.239 222.370,147.903 221.600 C 147.568 220.830,146.912 219.347,146.447 218.304 C 145.981 217.262,145.600 216.237,145.600 216.028 C 145.600 215.819,145.418 215.535,145.195 215.397 C 144.973 215.260,145.162 216.090,145.616 217.241 M189.800 217.615 C 191.120 217.779,193.550 217.905,195.200 217.895 L 198.200 217.876 194.800 217.578 C 192.930 217.414,190.500 217.288,189.400 217.299 L 187.400 217.318 189.800 217.615 M204.800 217.600 L 201.800 217.856 204.800 217.885 C 206.450 217.900,208.880 217.779,210.200 217.615 L 212.600 217.318 210.200 217.331 C 208.880 217.338,206.450 217.459,204.800 217.600 M56.000 220.672 C 56.000 221.175,64.355 226.978,64.652 226.682 C 64.753 226.580,64.016 226.016,63.013 225.429 C 62.011 224.841,60.022 223.477,58.595 222.396 C 57.168 221.316,56.000 220.540,56.000 220.672 M66.800 227.801 C 66.800 228.063,71.144 230.000,71.732 230.000 C 72.011 230.000,72.411 230.156,72.620 230.347 C 73.484 231.136,82.642 233.077,86.584 233.308 L 88.168 233.400 85.584 234.743 C 82.336 236.430,79.031 239.020,77.597 241.000 C 77.278 241.440,78.093 240.798,79.409 239.573 C 81.872 237.280,85.593 234.888,88.119 233.975 C 90.149 233.241,89.578 232.800,86.596 232.800 C 82.338 232.800,70.761 229.978,68.600 228.414 C 68.044 228.011,66.800 227.588,66.800 227.801 M246.614 232.635 C 246.241 233.204,246.027 233.761,246.139 233.872 C 246.250 233.983,246.629 233.518,246.981 232.837 C 247.759 231.333,247.544 231.215,246.614 232.635 M154.211 234.800 C 155.027 236.293,158.951 242.046,159.300 242.262 C 159.712 242.517,154.980 235.283,154.288 234.600 C 154.015 234.331,153.990 234.396,154.211 234.800 M244.228 236.638 C 243.410 237.868,242.824 238.958,242.925 239.059 C 243.026 239.160,243.523 238.558,244.030 237.721 C 244.537 236.884,245.208 235.795,245.522 235.300 C 246.740 233.377,245.632 234.523,244.228 236.638 M241.520 240.700 C 238.915 245.091,230.399 253.135,225.300 256.019 C 223.012 257.313,222.397 258.032,224.500 256.954 C 227.003 255.671,232.229 251.762,234.602 249.400 C 237.456 246.558,243.068 239.600,242.507 239.600 C 242.323 239.600,241.879 240.095,241.520 240.700 M75.671 243.443 C 74.405 245.397,74.737 245.485,76.096 243.556 C 76.699 242.700,77.059 242.002,76.896 242.005 C 76.733 242.008,76.182 242.655,75.671 243.443 M161.461 245.051 C 163.805 247.795,169.215 252.878,171.413 254.401 C 173.768 256.033,176.801 257.674,176.794 257.313 C 176.790 257.141,175.930 256.579,174.883 256.066 C 171.297 254.307,164.459 248.329,161.200 244.104 C 160.650 243.391,160.051 242.806,159.869 242.804 C 159.687 242.802,160.403 243.813,161.461 245.051 M73.862 246.900 C 71.743 251.681,70.893 259.030,71.982 263.154 C 72.192 263.949,72.471 265.116,72.601 265.747 C 72.732 266.378,72.912 266.821,73.002 266.731 C 73.092 266.642,72.903 265.316,72.582 263.784 C 71.484 258.534,71.991 252.535,73.941 247.700 C 74.861 245.419,74.798 244.785,73.862 246.900 M326.922 249.800 C 327.831 253.087,328.088 255.583,327.916 259.453 C 327.810 261.839,327.863 263.432,328.033 262.995 C 328.911 260.747,328.094 250.304,326.956 249.239 C 326.816 249.108,326.800 249.360,326.922 249.800 M219.600 258.795 C 219.270 258.986,218.659 259.250,218.243 259.381 C 217.826 259.512,217.585 259.718,217.707 259.840 C 217.829 259.962,218.709 259.703,219.664 259.264 C 220.619 258.826,221.130 258.463,220.800 258.457 C 220.470 258.452,219.930 258.603,219.600 258.795 M183.400 260.400 C 184.596 260.914,185.595 260.914,184.800 260.400 C 184.470 260.187,183.840 260.022,183.400 260.034 L 182.600 260.056 183.400 260.400 M215.400 260.400 C 215.108 260.873,215.499 260.873,216.600 260.400 C 217.371 260.069,217.369 260.055,216.524 260.028 C 216.042 260.013,215.536 260.180,215.400 260.400 M186.200 261.200 C 187.396 261.714,188.395 261.714,187.600 261.200 C 187.270 260.987,186.640 260.822,186.200 260.834 L 185.400 260.856 186.200 261.200 M212.400 261.200 C 211.605 261.714,212.604 261.714,213.800 261.200 L 214.600 260.856 213.800 260.834 C 213.360 260.822,212.730 260.987,212.400 261.200 M189.600 262.000 C 191.067 262.470,192.894 262.470,191.800 262.000 C 191.360 261.811,190.460 261.662,189.800 261.668 C 188.630 261.679,188.625 261.688,189.600 262.000 M208.200 262.000 C 207.106 262.470,208.933 262.470,210.400 262.000 C 211.375 261.688,211.370 261.679,210.200 261.668 C 209.540 261.662,208.640 261.811,208.200 262.000 M197.100 262.697 C 198.695 262.773,201.305 262.773,202.900 262.697 C 204.495 262.621,203.190 262.559,200.000 262.559 C 196.810 262.559,195.505 262.621,197.100 262.697 M327.260 264.667 C 327.227 265.144,327.084 265.864,326.941 266.267 C 326.742 266.831,326.795 266.896,327.172 266.549 C 327.442 266.301,327.585 265.581,327.491 264.949 C 327.370 264.139,327.302 264.056,327.260 264.667 M73.222 267.705 C 73.210 268.093,73.367 268.723,73.571 269.105 C 73.775 269.487,74.049 270.141,74.180 270.557 C 74.311 270.974,74.511 271.222,74.623 271.110 C 74.736 270.997,74.472 270.027,74.036 268.953 C 73.600 267.879,73.234 267.317,73.222 267.705 M326.446 267.467 C 326.421 267.724,326.284 268.264,326.141 268.667 C 325.940 269.236,325.994 269.297,326.379 268.942 C 326.652 268.691,326.789 268.151,326.684 267.742 C 326.579 267.334,326.472 267.210,326.446 267.467 M73.209 274.341 C 72.224 275.803,71.324 277.094,71.209 277.208 C 69.890 278.523,68.404 280.419,69.185 279.791 C 70.839 278.462,75.537 272.192,75.152 271.826 C 75.069 271.747,74.194 272.878,73.209 274.341 M324.800 271.729 C 324.800 272.299,328.066 276.867,328.304 276.629 C 328.432 276.501,328.171 275.993,327.725 275.498 C 327.279 275.004,326.438 273.883,325.857 273.007 C 325.276 272.131,324.800 271.556,324.800 271.729 M328.800 277.455 C 328.800 277.668,329.475 278.463,330.300 279.222 L 331.800 280.600 330.400 279.004 C 329.630 278.127,328.955 277.332,328.900 277.238 C 328.845 277.144,328.800 277.241,328.800 277.455 M50.700 280.229 C 49.198 281.043,49.313 281.275,50.900 280.632 C 51.615 280.341,52.470 280.005,52.800 279.884 C 53.224 279.728,53.166 279.659,52.600 279.648 C 52.160 279.639,51.305 279.901,50.700 280.229 M56.600 280.000 C 57.701 280.473,58.092 280.473,57.800 280.000 C 57.664 279.780,57.158 279.613,56.676 279.628 C 55.831 279.655,55.829 279.669,56.600 280.000 M342.200 280.000 C 341.908 280.473,342.299 280.473,343.400 280.000 C 344.171 279.669,344.169 279.655,343.324 279.628 C 342.842 279.613,342.336 279.780,342.200 280.000 M348.555 280.401 C 350.717 281.245,352.123 282.383,353.252 284.200 C 353.662 284.860,353.998 285.230,353.999 285.022 C 354.005 283.318,349.362 279.565,347.313 279.619 C 346.921 279.629,347.480 279.981,348.555 280.401 M48.200 281.720 C 46.896 283.318,46.790 283.654,47.915 282.625 C 48.622 281.979,49.200 281.394,49.200 281.325 C 49.200 281.022,48.565 281.274,48.200 281.720 M62.300 281.699 C 63.202 281.988,63.998 281.988,64.900 281.699 C 66.084 281.319,65.969 281.282,63.600 281.282 C 61.231 281.282,61.116 281.319,62.300 281.699 M335.100 281.699 C 336.002 281.988,336.798 281.988,337.700 281.699 C 338.884 281.319,338.769 281.282,336.400 281.282 C 334.031 281.282,333.916 281.319,335.100 281.699 M45.467 285.867 C 45.320 286.013,45.211 286.508,45.225 286.967 C 45.249 287.733,45.282 287.723,45.634 286.842 C 46.026 285.863,45.944 285.389,45.467 285.867 M264.185 287.350 C 264.102 287.597,263.950 289.150,263.848 290.800 C 263.632 294.302,263.283 296.678,262.821 297.800 C 262.640 298.240,262.252 299.410,261.959 300.400 C 261.292 302.659,259.567 305.994,257.778 308.484 C 256.321 310.512,256.290 311.156,257.738 309.315 C 259.680 306.846,262.292 301.445,263.114 298.200 C 264.176 294.006,264.400 292.592,264.400 290.094 L 264.400 287.400 265.900 289.024 C 268.245 291.562,274.729 295.632,276.341 295.578 C 276.703 295.565,276.272 295.250,275.382 294.878 C 272.187 293.539,269.072 291.504,266.725 289.222 C 265.411 287.944,264.269 287.102,264.185 287.350 M133.186 289.478 C 131.984 290.731,131.359 291.496,131.798 291.178 C 132.238 290.860,133.273 289.910,134.098 289.067 L 135.600 287.535 135.608 289.467 C 135.625 293.659,137.394 300.762,139.380 304.615 C 140.280 306.362,143.016 310.393,143.303 310.397 C 143.470 310.398,142.889 309.350,142.013 308.066 C 140.187 305.391,138.076 301.050,137.545 298.882 C 136.746 295.616,136.001 290.896,136.001 289.100 C 136.000 286.694,135.838 286.716,133.186 289.478 M355.612 290.000 C 355.612 290.330,355.787 290.870,356.000 291.200 C 356.345 291.733,356.388 291.733,356.388 291.200 C 356.388 290.870,356.213 290.330,356.000 290.000 C 355.655 289.467,355.612 289.467,355.612 290.000 M129.400 292.418 C 128.329 293.144,125.211 294.698,123.600 295.309 C 123.093 295.502,123.100 295.542,123.644 295.568 C 124.382 295.605,128.513 293.539,130.000 292.390 C 131.321 291.370,130.920 291.388,129.400 292.418 M356.412 292.400 C 356.412 292.730,356.587 293.270,356.800 293.600 C 357.145 294.133,357.188 294.133,357.188 293.600 C 357.188 293.270,357.013 292.730,356.800 292.400 C 356.455 291.867,356.412 291.867,356.412 292.400 M43.067 292.667 C 42.920 292.813,42.811 293.308,42.825 293.767 C 42.849 294.533,42.882 294.523,43.234 293.642 C 43.626 292.663,43.544 292.189,43.067 292.667 M96.131 295.353 C 94.831 296.448,92.189 300.000,92.675 299.999 C 92.854 299.999,93.511 299.190,94.135 298.201 C 95.566 295.937,97.009 294.902,99.021 294.696 L 100.600 294.534 98.931 294.467 C 97.689 294.417,96.971 294.644,96.131 295.353 M300.956 294.695 C 302.990 294.904,304.166 295.713,305.704 297.961 C 306.396 298.972,307.189 300.032,307.467 300.315 C 307.745 300.598,308.287 301.363,308.672 302.015 C 309.057 302.667,309.516 303.200,309.691 303.200 C 310.173 303.200,305.164 296.452,303.869 295.356 C 303.027 294.644,302.313 294.417,301.069 294.467 L 299.400 294.534 300.956 294.695 M42.249 295.415 C 42.112 295.773,42.020 296.636,42.044 297.333 C 42.082 298.437,42.133 298.371,42.436 296.825 C 42.793 295.005,42.694 294.257,42.249 295.415 M100.971 295.154 C 101.092 295.349,101.687 295.610,102.295 295.736 C 102.903 295.861,104.300 296.171,105.400 296.423 C 108.221 297.070,116.999 297.351,118.964 296.857 C 119.864 296.630,121.116 296.336,121.747 296.203 C 122.378 296.070,122.821 295.888,122.731 295.798 C 122.642 295.708,121.316 295.897,119.784 296.218 C 114.889 297.242,107.889 296.837,102.403 295.214 C 100.709 294.712,100.698 294.712,100.971 295.154 M297.400 295.238 C 292.143 296.858,285.173 297.255,280.216 296.218 C 278.684 295.897,277.358 295.708,277.269 295.798 C 277.179 295.888,277.622 296.070,278.253 296.203 C 278.884 296.336,280.136 296.630,281.036 296.857 C 283.001 297.351,291.779 297.070,294.600 296.423 C 295.700 296.171,297.097 295.861,297.705 295.736 C 298.313 295.610,298.908 295.349,299.029 295.154 C 299.289 294.732,298.995 294.747,297.400 295.238 M357.438 296.200 C 357.770 298.184,358.002 298.504,357.994 296.967 C 357.991 296.325,357.804 295.530,357.579 295.200 C 357.286 294.770,357.246 295.054,357.438 296.200 M41.714 301.400 C 41.717 302.500,41.795 302.903,41.887 302.295 C 41.979 301.686,41.977 300.786,41.882 300.295 C 41.787 299.803,41.711 300.300,41.714 301.400 M358.120 301.600 C 358.120 302.810,358.195 303.305,358.287 302.700 C 358.378 302.095,358.378 301.105,358.287 300.500 C 358.195 299.895,358.120 300.390,358.120 301.600 M90.915 302.100 C 89.021 304.576,88.358 305.599,88.653 305.593 C 88.982 305.586,91.777 301.600,91.452 301.600 C 91.367 301.600,91.126 301.825,90.915 302.100 M310.539 304.400 C 312.655 307.720,313.436 308.799,313.725 308.799 C 314.044 308.800,312.395 306.369,310.742 304.400 L 309.902 303.400 310.539 304.400 M42.006 306.033 C 42.009 306.785,42.192 307.670,42.412 308.000 C 42.691 308.419,42.733 308.058,42.550 306.800 C 42.225 304.559,41.998 304.240,42.006 306.033 M357.654 306.000 C 357.619 306.330,357.477 307.050,357.340 307.600 C 357.148 308.372,357.202 308.497,357.577 308.149 C 357.844 307.901,357.985 307.181,357.891 306.549 C 357.797 305.917,357.690 305.670,357.654 306.000 M86.689 307.900 C 85.930 308.945,85.105 310.193,84.855 310.674 C 84.521 311.314,84.426 323.377,84.497 355.874 L 84.593 400.200 84.797 355.560 L 85.000 310.920 86.726 308.460 C 87.675 307.107,88.365 306.000,88.260 306.000 C 88.154 306.000,87.447 306.855,86.689 307.900 M199.300 308.676 C 199.685 308.776,200.315 308.776,200.700 308.676 C 201.085 308.575,200.770 308.493,200.000 308.493 C 199.230 308.493,198.915 308.575,199.300 308.676 M42.828 309.476 C 42.813 309.958,42.980 310.464,43.200 310.600 C 43.673 310.892,43.673 310.501,43.200 309.400 C 42.869 308.629,42.855 308.631,42.828 309.476 M194.713 311.605 C 193.194 313.148,190.972 315.150,189.776 316.054 C 188.579 316.957,187.600 317.776,187.600 317.873 C 187.600 318.386,191.773 315.029,194.276 312.503 C 195.858 310.906,197.332 309.600,197.552 309.600 C 197.773 309.600,198.064 309.420,198.200 309.200 C 199.026 307.863,197.064 309.217,194.713 311.605 M201.800 309.200 C 201.936 309.420,202.257 309.600,202.513 309.600 C 202.769 309.600,204.154 310.823,205.589 312.318 C 208.127 314.961,213.446 319.088,213.825 318.708 C 213.929 318.605,212.885 317.784,211.507 316.885 C 210.128 315.985,207.538 313.798,205.752 312.025 C 202.984 309.277,200.948 307.822,201.800 309.200 M314.441 310.077 C 314.699 310.559,315.050 311.414,315.221 311.977 C 315.427 312.657,315.543 312.759,315.566 312.280 C 315.601 311.544,314.543 309.200,314.176 309.200 C 314.064 309.200,314.183 309.594,314.441 310.077 M253.800 313.143 C 252.480 314.426,250.362 316.161,249.094 316.998 C 247.826 317.836,246.872 318.606,246.976 318.709 C 247.436 319.169,254.335 313.635,255.964 311.500 C 256.911 310.259,256.255 310.757,253.800 313.143 M146.000 313.361 C 147.817 315.294,153.200 319.271,153.200 318.680 C 153.200 318.588,152.255 317.886,151.100 317.119 C 149.945 316.352,147.920 314.762,146.600 313.585 L 144.200 311.445 146.000 313.361 M44.400 313.684 C 44.400 314.116,45.615 316.800,45.811 316.800 C 45.921 316.800,45.733 316.134,45.393 315.321 C 44.793 313.886,44.400 313.238,44.400 313.684 M184.053 319.453 C 183.313 319.776,182.801 320.134,182.916 320.250 C 183.137 320.471,185.600 319.315,185.600 318.990 C 185.600 318.763,185.713 318.729,184.053 319.453 M214.400 318.966 C 214.400 319.315,216.856 320.478,217.093 320.241 C 217.213 320.121,216.810 319.832,216.198 319.599 C 215.586 319.366,214.931 319.081,214.742 318.964 C 214.554 318.848,214.400 318.849,214.400 318.966 M157.200 320.800 C 157.530 321.013,158.070 321.188,158.400 321.188 C 158.933 321.188,158.933 321.145,158.400 320.800 C 158.070 320.587,157.530 320.412,157.200 320.412 C 156.667 320.412,156.667 320.455,157.200 320.800 M241.400 320.863 C 238.751 321.734,237.285 322.073,234.800 322.392 L 232.200 322.725 234.800 322.607 C 237.448 322.488,239.167 322.194,240.600 321.618 C 243.568 320.423,244.012 320.005,241.400 320.863 M47.612 321.600 C 47.612 321.930,47.787 322.470,48.000 322.800 C 48.345 323.333,48.388 323.333,48.388 322.800 C 48.388 322.470,48.213 321.930,48.000 321.600 C 47.655 321.067,47.612 321.067,47.612 321.600 M159.600 321.600 C 159.930 321.813,160.560 321.978,161.000 321.966 L 161.800 321.944 161.000 321.600 C 159.804 321.086,158.805 321.086,159.600 321.600 M178.400 321.600 C 177.867 321.945,177.867 321.988,178.400 321.988 C 178.730 321.988,179.270 321.813,179.600 321.600 C 180.133 321.255,180.133 321.212,179.600 321.212 C 179.270 321.212,178.730 321.387,178.400 321.600 M220.400 321.600 C 220.730 321.813,221.360 321.978,221.800 321.966 L 222.600 321.944 221.800 321.600 C 220.604 321.086,219.605 321.086,220.400 321.600 M351.467 323.267 C 351.105 324.188,350.874 325.007,350.954 325.088 C 351.034 325.168,351.400 324.483,351.767 323.567 C 352.133 322.650,352.364 321.831,352.279 321.746 C 352.194 321.661,351.829 322.345,351.467 323.267 M162.800 322.379 C 163.130 322.604,163.925 322.791,164.567 322.794 C 166.104 322.802,165.784 322.570,163.800 322.238 C 162.654 322.046,162.370 322.086,162.800 322.379 M174.800 322.400 L 173.800 322.720 174.800 322.732 C 175.350 322.738,176.160 322.589,176.600 322.400 L 177.400 322.056 176.600 322.068 C 176.160 322.074,175.350 322.224,174.800 322.400 M223.029 322.446 C 223.149 322.641,224.437 322.800,225.890 322.800 C 227.344 322.800,228.458 322.734,228.367 322.653 C 227.988 322.319,222.827 322.119,223.029 322.446 M48.400 323.751 C 48.400 324.218,49.677 326.857,49.829 326.705 C 50.038 326.495,48.888 323.600,48.595 323.600 C 48.488 323.600,48.400 323.668,48.400 323.751 M50.000 327.687 C 50.000 327.823,50.379 328.804,50.843 329.867 C 53.634 336.271,53.378 332.710,53.606 368.200 L 53.812 400.200 53.902 368.800 C 53.975 343.053,53.892 337.076,53.440 335.600 C 52.280 331.816,50.000 326.571,50.000 327.687 M349.095 329.107 C 348.736 329.928,347.893 332.097,347.221 333.927 L 346.000 337.255 346.095 368.727 L 346.190 400.200 346.397 368.400 C 346.541 346.219,346.740 336.237,347.055 335.400 C 347.304 334.740,348.075 332.782,348.770 331.049 C 350.046 327.863,350.299 326.353,349.095 329.107 " stroke="none" fill="#83b2fc" fill-rule="evenodd"></path></g></svg>