<svg id="svg" version="1.1" xmlns="http://www.w3.org/2000/svg" xmlns:xlink="http://www.w3.org/1999/xlink" width="400" height="400" viewBox="0, 0, 400,400"><g id="svgg"><path id="path0" d="M218.600 60.414 C 217.500 60.610,215.923 60.887,215.096 61.029 C 214.269 61.172,213.494 61.449,213.373 61.644 C 213.252 61.840,212.634 62.000,212.000 62.000 C 211.366 62.000,210.736 62.180,210.600 62.400 C 210.464 62.620,209.834 62.800,209.200 62.800 C 208.566 62.800,207.936 62.980,207.800 63.200 C 207.664 63.420,207.023 63.600,206.376 63.600 C 205.729 63.600,205.200 63.780,205.200 64.000 C 205.200 64.220,204.480 64.400,203.600 64.400 C 202.720 64.400,202.000 64.580,202.000 64.800 C 202.000 65.020,201.460 65.200,200.800 65.200 C 200.140 65.200,199.600 65.380,199.600 65.600 C 199.600 65.820,198.981 66.000,198.224 66.000 C 197.467 66.000,196.736 66.180,196.600 66.400 C 196.464 66.620,195.834 66.800,195.200 66.800 C 194.566 66.800,193.936 66.980,193.800 67.200 C 193.664 67.420,193.023 67.600,192.376 67.600 C 191.729 67.600,191.200 67.760,191.200 67.956 C 191.200 68.152,190.570 68.422,189.800 68.556 C 189.030 68.690,187.770 68.910,187.000 69.044 C 186.230 69.178,185.600 69.448,185.600 69.644 C 185.600 69.840,184.981 70.000,184.224 70.000 C 183.467 70.000,182.736 70.180,182.600 70.400 C 182.464 70.620,181.823 70.800,181.176 70.800 C 180.529 70.800,180.000 70.980,180.000 71.200 C 180.000 71.420,179.370 71.600,178.600 71.600 C 177.830 71.600,177.200 71.780,177.200 72.000 C 177.200 72.220,176.660 72.400,176.000 72.400 C 175.340 72.400,174.800 72.580,174.800 72.800 C 174.800 73.020,174.080 73.200,173.200 73.200 C 172.320 73.200,171.600 73.380,171.600 73.600 C 171.600 73.820,171.071 74.000,170.424 74.000 C 169.777 74.000,169.136 74.180,169.000 74.400 C 168.864 74.620,168.133 74.800,167.376 74.800 C 166.619 74.800,166.000 74.980,166.000 75.200 C 166.000 75.420,165.370 75.600,164.600 75.600 C 163.830 75.600,163.200 75.780,163.200 76.000 C 163.200 76.220,162.671 76.400,162.024 76.400 C 161.377 76.400,160.751 76.556,160.633 76.747 C 160.514 76.938,159.339 77.217,158.021 77.366 C 156.703 77.515,155.518 77.809,155.389 78.018 C 155.259 78.228,154.771 78.400,154.305 78.400 C 153.404 78.400,151.061 79.065,149.905 79.649 C 149.523 79.842,148.679 80.000,148.029 80.000 C 147.379 80.000,146.736 80.180,146.600 80.400 C 146.464 80.620,145.924 80.800,145.400 80.800 C 144.876 80.800,144.336 80.980,144.200 81.200 C 144.064 81.420,143.333 81.600,142.576 81.600 C 141.819 81.600,141.200 81.780,141.200 82.000 C 141.200 82.220,140.671 82.400,140.024 82.400 C 139.377 82.400,138.736 82.580,138.600 82.800 C 138.464 83.020,137.733 83.200,136.976 83.200 C 136.219 83.200,135.600 83.380,135.600 83.600 C 135.600 83.820,135.071 84.000,134.424 84.000 C 133.777 84.000,133.136 84.180,133.000 84.400 C 132.864 84.620,132.234 84.800,131.600 84.800 C 130.966 84.800,130.336 84.980,130.200 85.200 C 130.064 85.420,129.524 85.600,129.000 85.600 C 128.476 85.600,127.936 85.780,127.800 86.000 C 127.664 86.220,127.124 86.400,126.600 86.400 C 126.076 86.400,125.536 86.580,125.400 86.800 C 125.264 87.020,124.724 87.200,124.200 87.200 C 123.676 87.200,123.136 87.380,123.000 87.600 C 122.864 87.820,122.313 88.000,121.776 88.000 C 121.239 88.000,120.800 88.180,120.800 88.400 C 120.800 88.620,120.260 88.800,119.600 88.800 C 118.940 88.800,118.400 88.980,118.400 89.200 C 118.400 89.420,117.860 89.600,117.200 89.600 C 116.540 89.600,116.000 89.780,116.000 90.000 C 116.000 90.220,115.640 90.400,115.200 90.400 C 114.760 90.400,114.400 90.580,114.400 90.800 C 114.400 91.020,113.961 91.200,113.424 91.200 C 112.887 91.200,112.336 91.380,112.200 91.600 C 112.064 91.820,111.603 92.000,111.176 92.000 C 110.749 92.000,110.400 92.180,110.400 92.400 C 110.400 92.620,109.950 92.800,109.400 92.800 C 108.850 92.800,108.400 92.964,108.400 93.165 C 108.400 93.366,107.680 93.651,106.800 93.800 C 105.920 93.949,105.200 94.234,105.200 94.435 C 105.200 94.636,104.840 94.800,104.400 94.800 C 103.960 94.800,103.600 94.980,103.600 95.200 C 103.600 95.420,103.240 95.600,102.800 95.600 C 102.360 95.600,102.000 95.780,102.000 96.000 C 102.000 96.220,101.640 96.400,101.200 96.400 C 100.760 96.400,100.400 96.580,100.400 96.800 C 100.400 97.020,100.040 97.200,99.600 97.200 C 99.160 97.200,98.800 97.380,98.800 97.600 C 98.800 97.820,98.440 98.000,98.000 98.000 C 97.560 98.000,97.200 98.146,97.200 98.325 C 97.200 98.504,96.570 98.898,95.800 99.200 C 95.030 99.502,94.400 99.896,94.400 100.075 C 94.400 100.254,94.080 100.400,93.688 100.400 C 93.297 100.400,92.717 100.760,92.400 101.200 C 92.083 101.640,91.503 102.000,91.112 102.000 C 90.720 102.000,90.400 102.180,90.400 102.400 C 90.400 102.620,90.164 102.800,89.875 102.800 C 89.587 102.800,88.964 103.160,88.492 103.600 C 88.020 104.040,87.396 104.400,87.105 104.400 C 86.814 104.400,86.317 104.760,86.000 105.200 C 85.683 105.640,85.143 106.000,84.800 106.000 C 84.457 106.000,83.917 106.360,83.600 106.800 C 83.283 107.240,82.820 107.600,82.571 107.600 C 82.322 107.600,81.554 108.140,80.863 108.800 C 80.172 109.460,79.411 110.000,79.170 110.000 C 78.930 110.000,78.121 110.630,77.374 111.400 C 76.626 112.170,75.838 112.800,75.622 112.800 C 74.764 112.800,60.834 127.342,59.556 129.570 C 59.250 130.104,58.505 131.076,57.900 131.730 C 57.295 132.384,56.800 133.122,56.800 133.371 C 56.800 133.620,56.440 134.083,56.000 134.400 C 55.560 134.717,55.200 135.257,55.200 135.600 C 55.200 135.943,54.840 136.483,54.400 136.800 C 53.960 137.117,53.600 137.614,53.600 137.905 C 53.600 138.196,53.240 138.820,52.800 139.292 C 52.360 139.764,52.000 140.387,52.000 140.675 C 52.000 140.964,51.820 141.200,51.600 141.200 C 51.380 141.200,51.200 141.436,51.200 141.725 C 51.200 142.013,50.833 142.643,50.384 143.125 L 49.569 144.000 31.008 144.000 C 19.066 144.000,12.359 144.143,12.200 144.400 C 12.064 144.620,11.513 144.800,10.976 144.800 C 10.439 144.800,10.000 144.980,10.000 145.200 C 10.000 145.420,9.640 145.600,9.200 145.600 C 8.760 145.600,8.400 145.780,8.400 146.000 C 8.400 146.220,8.151 146.400,7.846 146.400 C 7.070 146.400,2.000 151.403,2.000 152.169 C 2.000 152.516,1.820 152.800,1.600 152.800 C 1.380 152.800,1.200 153.145,1.200 153.567 C 1.200 153.988,0.975 154.408,0.700 154.500 C 0.310 154.630,0.200 158.592,0.200 172.517 L 0.200 190.368 1.701 191.784 C 2.526 192.563,3.471 193.200,3.801 193.200 C 4.130 193.200,4.400 193.380,4.400 193.600 C 4.400 195.100,10.846 193.153,13.008 191.001 C 15.480 188.540,15.600 187.732,15.600 173.534 C 15.600 164.287,15.727 160.833,16.080 160.480 C 16.440 160.120,21.465 160.000,36.231 160.000 C 61.131 160.000,57.782 161.322,66.636 148.000 C 73.452 137.746,73.279 137.965,79.600 131.573 C 93.200 117.821,111.513 107.600,134.400 100.986 C 136.490 100.382,139.010 99.623,140.000 99.299 C 142.120 98.607,147.328 97.213,148.905 96.916 C 149.513 96.801,150.108 96.549,150.229 96.354 C 150.349 96.159,150.878 96.000,151.405 96.000 C 151.931 96.000,152.776 95.839,153.281 95.642 C 153.787 95.445,155.010 95.064,156.000 94.795 C 156.990 94.527,158.250 94.169,158.800 94.000 C 159.350 93.831,160.610 93.471,161.600 93.200 C 162.590 92.929,163.850 92.569,164.400 92.400 C 164.950 92.231,166.210 91.871,167.200 91.600 C 168.190 91.329,169.450 90.969,170.000 90.800 C 170.550 90.631,171.720 90.292,172.600 90.046 C 173.480 89.801,179.690 88.070,186.400 86.200 C 193.110 84.330,199.320 82.599,200.200 82.354 C 201.080 82.108,202.250 81.773,202.800 81.609 C 204.218 81.187,206.308 80.589,208.400 80.008 C 209.390 79.732,210.650 79.369,211.200 79.200 C 211.750 79.031,213.010 78.673,214.000 78.405 C 214.990 78.136,216.213 77.755,216.719 77.558 C 217.224 77.361,218.043 77.200,218.539 77.200 C 219.034 77.200,219.652 76.988,219.910 76.730 C 220.516 76.124,228.763 76.059,230.059 76.650 C 230.577 76.886,232.039 77.556,233.309 78.140 C 237.132 79.896,240.814 83.807,242.027 87.400 C 242.324 88.280,242.739 89.234,242.949 89.520 C 243.533 90.315,243.452 98.006,242.843 99.614 C 241.356 103.538,240.299 105.272,237.986 107.586 C 235.395 110.176,233.778 111.088,228.000 113.219 C 226.130 113.909,222.440 115.281,219.800 116.270 C 217.160 117.258,214.460 118.249,213.800 118.473 C 213.140 118.697,212.195 119.043,211.700 119.240 C 211.205 119.438,210.395 119.762,209.900 119.960 C 209.405 120.157,208.370 120.536,207.600 120.800 C 206.830 121.064,205.840 121.424,205.400 121.600 C 204.960 121.776,203.970 122.136,203.200 122.400 C 202.430 122.664,201.395 123.043,200.900 123.240 C 200.405 123.438,199.595 123.762,199.100 123.960 C 198.605 124.157,197.570 124.536,196.800 124.800 C 196.030 125.064,194.995 125.443,194.500 125.640 C 194.005 125.838,193.195 126.162,192.700 126.361 C 192.205 126.560,190.720 127.117,189.400 127.600 C 188.080 128.083,186.640 128.628,186.200 128.812 C 185.760 128.996,183.780 129.723,181.800 130.429 C 177.963 131.796,175.471 133.297,174.874 134.600 C 174.037 136.425,173.608 137.532,172.780 140.000 C 172.300 141.430,171.748 142.771,171.553 142.980 C 171.359 143.189,171.200 143.621,171.200 143.940 C 171.200 145.807,162.449 161.289,158.973 165.573 C 156.411 168.731,152.595 172.898,150.526 174.800 C 146.736 178.283,145.923 178.951,143.317 180.720 C 135.745 185.863,137.728 195.388,146.354 195.307 C 151.669 195.257,165.475 183.033,173.280 171.467 C 174.195 170.110,175.092 168.940,175.272 168.867 C 175.453 168.793,175.600 168.556,175.600 168.339 C 175.600 168.122,176.111 167.192,176.737 166.272 C 179.579 162.090,184.563 152.029,186.439 146.686 C 186.764 145.762,187.288 145.095,187.785 144.974 C 190.185 144.391,371.829 145.026,373.200 145.623 C 389.211 152.591,388.023 173.399,371.354 177.950 C 370.161 178.276,348.315 178.400,292.154 178.400 C 208.092 178.401,212.527 178.290,206.305 180.547 C 188.779 186.906,180.788 208.248,189.636 225.068 C 191.105 227.861,191.093 228.193,189.500 228.793 C 179.129 232.700,172.587 239.902,169.148 251.200 C 165.660 262.658,172.644 279.604,183.400 285.782 C 185.915 287.226,186.123 287.556,185.301 288.796 C 178.399 299.211,177.478 311.168,182.777 321.555 C 183.350 322.678,183.527 323.433,183.277 323.683 C 182.734 324.226,135.520 323.839,133.400 323.274 C 132.520 323.039,130.111 322.455,128.047 321.977 C 119.674 320.034,106.076 314.553,98.608 310.109 C 94.669 307.765,92.300 306.400,92.173 306.400 C 91.769 306.400,76.246 295.926,75.600 295.217 C 75.490 295.097,74.324 294.188,73.009 293.199 C 71.694 292.210,70.254 291.100,69.809 290.734 C 64.314 286.213,62.648 284.781,60.598 282.814 C 59.276 281.546,57.496 280.034,56.642 279.454 L 55.088 278.400 36.233 278.400 C 19.815 278.400,17.263 278.320,16.489 277.777 C 15.608 277.160,15.600 277.061,15.600 266.382 C 15.600 252.014,14.798 249.886,8.900 248.616 C 8.175 248.460,7.600 248.085,7.600 247.768 C 7.600 247.123,6.177 246.990,5.800 247.600 C 5.664 247.820,5.113 248.000,4.576 248.000 C 4.039 248.000,3.600 248.180,3.600 248.400 C 3.600 248.620,3.364 248.800,3.075 248.800 C 2.786 248.800,2.021 249.352,1.375 250.027 L 0.200 251.253 0.200 267.494 C 0.200 280.130,0.311 283.771,0.700 283.900 C 0.975 283.992,1.200 284.372,1.200 284.745 C 1.200 285.118,1.560 285.683,2.000 286.000 C 2.440 286.317,2.800 286.793,2.800 287.058 C 2.800 287.769,5.868 290.648,7.225 291.210 C 7.871 291.478,8.400 291.855,8.400 292.049 C 8.400 292.242,8.850 292.400,9.400 292.400 C 9.950 292.400,10.400 292.580,10.400 292.800 C 10.400 293.020,10.940 293.200,11.600 293.200 C 12.260 293.200,12.800 293.380,12.800 293.600 C 12.800 293.861,19.067 294.000,30.800 294.000 C 40.700 294.000,48.800 294.150,48.800 294.332 C 48.800 294.515,49.289 294.920,49.887 295.232 C 50.484 295.545,52.208 297.015,53.717 298.500 C 55.226 299.985,56.633 301.200,56.844 301.200 C 57.054 301.200,57.828 301.785,58.564 302.500 C 59.299 303.215,60.736 304.430,61.756 305.200 C 62.777 305.970,64.194 307.092,64.906 307.694 C 65.618 308.295,66.443 308.790,66.740 308.794 C 67.036 308.797,67.783 309.340,68.400 310.000 C 69.017 310.660,69.769 311.200,70.072 311.200 C 70.375 311.200,70.883 311.560,71.200 312.000 C 71.517 312.440,72.057 312.800,72.400 312.800 C 72.743 312.800,73.283 313.160,73.600 313.600 C 73.917 314.040,74.457 314.400,74.800 314.400 C 75.143 314.400,75.683 314.760,76.000 315.200 C 76.317 315.640,76.724 316.000,76.905 316.000 C 77.086 316.000,77.620 316.360,78.092 316.800 C 78.564 317.240,79.187 317.600,79.475 317.600 C 79.764 317.600,80.000 317.780,80.000 318.000 C 80.000 318.220,80.270 318.400,80.600 318.400 C 80.930 318.400,81.200 318.580,81.200 318.800 C 81.200 319.020,81.470 319.200,81.800 319.200 C 82.130 319.200,82.400 319.380,82.400 319.600 C 82.400 319.820,82.678 320.000,83.017 320.000 C 83.356 320.000,84.020 320.360,84.492 320.800 C 84.964 321.240,85.587 321.600,85.875 321.600 C 86.164 321.600,86.400 321.780,86.400 322.000 C 86.400 322.220,86.745 322.400,87.167 322.400 C 87.588 322.400,87.993 322.557,88.067 322.749 C 88.247 323.221,92.219 325.200,92.987 325.200 C 93.324 325.200,93.600 325.380,93.600 325.600 C 93.600 325.820,93.870 326.000,94.200 326.000 C 94.530 326.000,94.800 326.180,94.800 326.400 C 94.800 326.620,95.160 326.800,95.600 326.800 C 96.040 326.800,96.400 326.980,96.400 327.200 C 96.400 327.420,96.760 327.600,97.200 327.600 C 97.640 327.600,98.000 327.780,98.000 328.000 C 98.000 328.220,98.360 328.400,98.800 328.400 C 99.240 328.400,99.600 328.580,99.600 328.800 C 99.600 329.020,99.960 329.200,100.400 329.200 C 100.840 329.200,101.200 329.380,101.200 329.600 C 101.200 329.820,101.560 330.000,102.000 330.000 C 102.440 330.000,102.800 330.180,102.800 330.400 C 102.800 330.620,103.239 330.800,103.776 330.800 C 104.313 330.800,104.864 330.980,105.000 331.200 C 105.136 331.420,105.597 331.600,106.024 331.600 C 106.451 331.600,106.800 331.780,106.800 332.000 C 106.800 332.220,107.160 332.400,107.600 332.400 C 108.040 332.400,108.400 332.580,108.400 332.800 C 108.400 333.020,108.839 333.200,109.376 333.200 C 109.913 333.200,110.464 333.380,110.600 333.600 C 110.736 333.820,111.287 334.000,111.824 334.000 C 112.361 334.000,112.800 334.180,112.800 334.400 C 112.800 334.620,113.239 334.800,113.776 334.800 C 114.313 334.800,114.864 334.980,115.000 335.200 C 115.136 335.420,115.777 335.600,116.424 335.600 C 117.071 335.600,117.600 335.780,117.600 336.000 C 117.600 336.220,118.140 336.400,118.800 336.400 C 119.460 336.400,120.000 336.580,120.000 336.800 C 120.000 337.020,120.720 337.200,121.600 337.200 C 122.480 337.200,123.200 337.380,123.200 337.600 C 123.200 337.820,123.920 338.000,124.800 338.000 C 125.680 338.000,126.400 338.180,126.400 338.400 C 126.400 338.620,127.264 338.800,128.320 338.800 C 129.376 338.800,130.411 338.962,130.620 339.161 C 131.481 339.979,139.831 340.110,190.800 340.110 C 241.554 340.109,247.689 340.008,248.580 339.161 C 248.789 338.963,249.464 338.800,250.080 338.800 C 250.696 338.800,251.200 338.620,251.200 338.400 C 251.200 338.180,251.543 338.000,251.962 338.000 C 252.778 338.000,256.112 336.399,256.333 335.900 C 256.407 335.735,256.722 335.600,257.033 335.600 C 257.345 335.600,257.600 335.420,257.600 335.200 C 257.600 334.980,257.830 334.800,258.112 334.800 C 258.393 334.800,258.883 334.440,259.200 334.000 C 259.517 333.560,260.010 333.200,260.296 333.200 C 260.972 333.200,266.000 328.172,266.000 327.496 C 266.000 327.210,266.360 326.717,266.800 326.400 C 267.240 326.083,267.600 325.593,267.600 325.312 C 267.600 325.030,267.780 324.800,268.000 324.800 C 268.220 324.800,268.400 324.545,268.400 324.233 C 268.400 323.922,268.535 323.607,268.700 323.533 C 269.199 323.312,270.800 319.978,270.800 319.162 C 270.800 318.743,270.980 318.400,271.200 318.400 C 271.420 318.400,271.600 317.896,271.600 317.280 C 271.600 316.664,271.763 315.989,271.963 315.780 C 273.169 314.518,273.168 300.289,271.961 299.020 C 271.763 298.811,271.600 298.224,271.600 297.715 C 271.600 297.206,271.432 296.477,271.226 296.095 C 271.021 295.713,270.617 294.815,270.329 294.100 C 270.040 293.385,269.669 292.800,269.502 292.800 C 269.336 292.800,269.200 292.440,269.200 292.000 C 269.200 291.560,269.020 291.200,268.800 291.200 C 268.580 291.200,268.400 290.840,268.400 290.400 C 268.400 289.867,268.667 289.600,269.200 289.600 C 269.640 289.600,270.000 289.420,270.000 289.200 C 270.000 288.980,270.287 288.800,270.638 288.800 C 270.989 288.800,271.754 288.479,272.338 288.086 C 272.922 287.693,273.890 287.125,274.489 286.824 C 275.089 286.522,276.246 285.665,277.062 284.918 C 277.877 284.171,279.027 283.275,279.618 282.926 C 280.208 282.577,280.977 281.808,281.326 281.218 C 281.675 280.627,282.599 279.447,283.380 278.594 C 284.161 277.741,284.800 276.824,284.800 276.555 C 284.800 276.286,284.936 276.007,285.102 275.933 C 285.268 275.860,286.007 274.540,286.744 273.000 C 287.481 271.460,288.245 269.887,288.442 269.505 C 288.639 269.123,288.800 268.394,288.800 267.885 C 288.800 267.376,288.960 266.789,289.157 266.580 C 289.353 266.371,289.633 265.030,289.781 263.600 C 289.928 262.170,290.145 260.037,290.263 258.859 C 290.395 257.552,290.308 256.548,290.039 256.279 C 289.798 256.038,289.600 254.944,289.600 253.848 C 289.600 251.956,289.121 249.829,288.351 248.305 C 288.158 247.923,288.000 247.248,288.000 246.805 C 288.000 246.362,287.820 246.000,287.600 246.000 C 287.380 246.000,287.200 245.766,287.200 245.480 C 287.200 244.744,286.259 242.807,285.900 242.803 C 284.519 242.789,285.944 241.669,287.538 241.516 C 289.460 241.331,295.413 238.645,296.656 237.401 C 296.987 237.070,297.426 236.800,297.631 236.800 C 298.184 236.800,304.400 230.428,304.400 229.861 C 304.400 229.595,304.760 229.117,305.200 228.800 C 305.640 228.483,306.000 227.903,306.000 227.512 C 306.000 227.120,306.155 226.800,306.345 226.800 C 306.861 226.800,308.800 222.259,308.800 221.050 C 308.800 220.472,308.980 220.000,309.200 220.000 C 309.420 220.000,309.600 219.370,309.600 218.600 C 309.600 217.830,309.780 217.200,310.000 217.200 C 310.251 217.200,310.400 214.608,310.400 210.224 C 310.400 206.004,310.242 203.150,310.000 203.000 C 309.780 202.864,309.600 202.234,309.600 201.600 C 309.600 200.966,309.444 200.351,309.253 200.232 C 309.061 200.114,308.790 199.296,308.649 198.414 C 308.508 197.532,308.037 196.178,307.603 195.405 L 306.814 194.000 341.007 194.000 C 363.536 194.000,375.200 193.864,375.200 193.600 C 375.200 193.380,375.729 193.200,376.376 193.200 C 377.023 193.200,377.664 193.020,377.800 192.800 C 377.936 192.580,378.487 192.400,379.024 192.400 C 379.561 192.400,380.000 192.243,380.000 192.050 C 380.000 191.858,380.584 191.583,381.297 191.441 C 382.943 191.111,384.800 190.296,384.800 189.902 C 384.800 189.736,385.025 189.597,385.300 189.593 C 386.408 189.577,394.000 182.477,394.000 181.457 C 394.000 181.193,394.360 180.717,394.800 180.400 C 395.240 180.083,395.600 179.586,395.600 179.295 C 395.600 179.004,395.960 178.380,396.400 177.908 C 396.840 177.436,397.200 176.819,397.200 176.537 C 397.200 176.255,397.560 175.383,398.000 174.600 C 398.440 173.817,398.800 172.836,398.800 172.421 C 398.800 172.006,399.025 171.592,399.300 171.500 C 399.682 171.372,399.800 168.991,399.800 161.400 C 399.800 153.809,399.682 151.427,399.300 151.300 C 399.025 151.208,398.800 150.709,398.800 150.190 C 398.800 149.672,398.620 149.136,398.400 149.000 C 398.180 148.864,398.000 148.403,398.000 147.976 C 398.000 147.549,397.864 147.200,397.698 147.200 C 397.531 147.200,397.140 146.615,396.828 145.900 C 396.516 145.185,395.932 144.309,395.530 143.953 C 395.129 143.597,394.800 143.088,394.800 142.822 C 394.800 142.555,394.080 141.646,393.200 140.800 C 392.320 139.954,391.600 139.141,391.600 138.992 C 391.600 138.568,387.643 134.800,387.198 134.800 C 386.979 134.800,386.800 134.620,386.800 134.400 C 386.800 134.180,386.530 134.000,386.200 134.000 C 385.870 134.000,385.600 133.820,385.600 133.600 C 385.600 133.380,385.240 133.200,384.800 133.200 C 384.360 133.200,383.999 133.065,383.997 132.900 C 383.993 132.541,382.056 131.600,381.320 131.600 C 381.034 131.600,380.800 131.420,380.800 131.200 C 380.800 130.980,380.451 130.800,380.024 130.800 C 379.597 130.800,379.136 130.620,379.000 130.400 C 378.864 130.180,378.259 130.000,377.656 130.000 C 377.053 130.000,376.389 129.837,376.180 129.639 C 375.286 128.789,368.421 128.685,303.300 128.544 C 258.260 128.446,234.800 128.259,234.800 127.998 C 234.800 127.779,235.250 127.600,235.800 127.600 C 236.350 127.600,236.800 127.420,236.800 127.200 C 236.800 126.980,237.250 126.800,237.800 126.800 C 238.350 126.800,238.800 126.620,238.800 126.400 C 238.800 126.180,239.160 126.000,239.600 126.000 C 240.040 126.000,240.400 125.828,240.400 125.618 C 240.400 125.408,241.030 125.118,241.800 124.974 C 242.570 124.829,243.200 124.590,243.200 124.442 C 243.200 124.294,243.745 123.851,244.411 123.457 C 245.077 123.064,246.059 122.305,246.593 121.771 C 247.127 121.237,247.715 120.800,247.901 120.800 C 248.327 120.800,251.200 117.877,251.200 117.444 C 251.200 117.266,251.740 116.617,252.400 116.000 C 253.060 115.383,253.600 114.631,253.600 114.328 C 253.600 114.025,253.960 113.517,254.400 113.200 C 254.840 112.883,255.200 112.303,255.200 111.912 C 255.200 111.520,255.380 111.200,255.600 111.200 C 255.820 111.200,256.000 110.840,256.000 110.400 C 256.000 109.960,256.180 109.600,256.400 109.600 C 256.620 109.600,256.800 109.328,256.800 108.995 C 256.800 108.662,256.980 108.032,257.200 107.595 C 257.420 107.158,257.792 106.423,258.026 105.963 C 258.261 105.503,258.557 103.877,258.685 102.350 C 258.813 100.823,259.072 99.479,259.259 99.363 C 259.705 99.088,259.704 89.600,259.259 89.600 C 259.071 89.600,258.800 88.205,258.656 86.500 C 258.512 84.795,258.215 83.340,257.997 83.267 C 257.779 83.193,257.600 82.814,257.600 82.423 C 257.600 81.638,255.291 76.908,254.500 76.071 C 254.225 75.781,254.000 75.398,254.000 75.222 C 254.000 75.045,253.370 74.213,252.600 73.372 C 251.830 72.531,251.200 71.691,251.200 71.504 C 251.200 71.041,249.698 69.590,248.000 68.410 C 247.230 67.875,246.309 67.114,245.953 66.719 C 245.597 66.324,245.052 66.000,244.741 66.000 C 244.431 66.000,243.917 65.640,243.600 65.200 C 243.283 64.760,242.718 64.400,242.345 64.400 C 241.972 64.400,241.607 64.265,241.533 64.100 C 241.340 63.666,238.027 62.000,237.357 62.000 C 237.045 62.000,236.477 61.844,236.095 61.654 C 234.054 60.636,232.044 60.328,226.600 60.200 C 223.300 60.122,219.700 60.219,218.600 60.414 M282.681 194.051 C 298.723 200.511,298.758 220.604,282.737 226.183 C 280.486 226.967,215.217 227.118,213.319 226.343 C 210.357 225.135,208.733 224.340,207.912 223.700 C 197.030 215.211,199.456 199.353,212.400 194.369 C 214.634 193.509,280.594 193.210,282.681 194.051 M6.400 212.400 C 6.070 212.613,5.305 212.791,4.700 212.794 C 4.095 212.797,3.600 212.941,3.600 213.114 C 3.600 213.286,3.060 213.746,2.400 214.136 C 1.740 214.526,1.200 215.028,1.200 215.251 C 1.200 215.474,0.915 215.942,0.566 216.291 C 0.049 216.808,-0.043 217.704,0.066 221.177 L 0.200 225.429 1.687 226.914 C 2.504 227.731,3.449 228.400,3.787 228.400 C 4.124 228.400,4.400 228.580,4.400 228.800 C 4.400 229.301,7.471 229.332,7.778 228.835 C 7.903 228.634,8.748 228.344,9.657 228.190 C 17.404 226.881,16.546 213.600,8.714 213.600 C 8.262 213.600,7.836 213.259,7.716 212.800 C 7.482 211.904,7.268 211.839,6.400 212.400 M364.400 226.757 C 364.400 226.953,363.970 227.221,363.444 227.353 C 362.522 227.585,360.000 230.940,360.000 231.935 C 360.000 232.191,359.820 232.400,359.600 232.400 C 359.380 232.400,359.200 232.760,359.200 233.200 C 359.200 233.640,359.020 234.000,358.800 234.000 C 358.580 234.000,358.400 234.236,358.400 234.525 C 358.400 234.813,358.040 235.436,357.600 235.908 C 357.160 236.380,356.800 237.044,356.800 237.383 C 356.800 237.722,356.620 238.000,356.400 238.000 C 356.180 238.000,356.000 238.278,356.000 238.617 C 356.000 238.956,355.640 239.620,355.200 240.092 C 354.760 240.564,354.400 241.187,354.400 241.475 C 354.400 241.764,354.220 242.000,354.000 242.000 C 353.780 242.000,353.600 242.360,353.600 242.800 C 353.600 243.240,353.420 243.600,353.200 243.600 C 352.980 243.600,352.800 243.855,352.800 244.167 C 352.800 244.478,352.665 244.793,352.500 244.867 C 352.124 245.034,350.825 247.164,350.529 248.100 C 350.407 248.485,350.148 248.800,349.953 248.800 C 349.759 248.800,349.600 249.078,349.600 249.417 C 349.600 249.756,349.240 250.420,348.800 250.892 C 348.360 251.364,348.000 251.987,348.000 252.275 C 348.000 252.564,347.820 252.800,347.600 252.800 C 347.380 252.800,347.200 253.160,347.200 253.600 C 347.200 254.040,347.065 254.403,346.900 254.406 C 346.735 254.410,346.160 255.310,345.621 256.406 C 345.083 257.503,344.498 258.400,344.321 258.400 C 344.145 258.400,344.000 258.747,344.000 259.171 C 344.000 259.596,343.764 260.181,343.475 260.471 C 343.187 260.762,342.693 261.585,342.378 262.300 C 342.063 263.015,341.669 263.600,341.502 263.600 C 341.336 263.600,341.200 263.960,341.200 264.400 C 341.200 264.840,341.020 265.200,340.800 265.200 C 340.580 265.200,340.400 265.470,340.400 265.800 C 340.400 266.130,340.220 266.400,340.000 266.400 C 339.780 266.400,339.600 266.760,339.600 267.200 C 339.600 267.640,339.420 268.000,339.200 268.000 C 338.980 268.000,338.800 268.450,338.800 269.000 C 338.800 269.550,338.620 270.000,338.400 270.000 C 338.180 270.000,338.000 270.540,338.000 271.200 C 338.000 271.860,337.840 272.400,337.644 272.400 C 336.743 272.400,335.925 287.685,336.780 288.540 C 337.011 288.771,337.200 289.554,337.200 290.280 C 337.200 291.006,337.380 291.600,337.600 291.600 C 337.820 291.600,338.000 292.140,338.000 292.800 C 338.000 293.460,338.180 294.000,338.400 294.000 C 338.620 294.000,338.800 294.360,338.800 294.800 C 338.800 295.240,338.980 295.600,339.200 295.600 C 339.420 295.600,339.600 295.960,339.600 296.400 C 339.600 296.840,339.780 297.200,340.000 297.200 C 340.220 297.200,340.400 297.520,340.400 297.912 C 340.400 298.303,340.760 298.883,341.200 299.200 C 341.640 299.517,342.000 300.013,342.000 300.303 C 342.000 301.393,348.777 308.278,350.201 308.636 C 350.751 308.774,351.200 309.047,351.200 309.243 C 351.200 309.440,351.560 309.600,352.000 309.600 C 352.440 309.600,352.801 309.735,352.803 309.900 C 352.807 310.259,354.744 311.200,355.480 311.200 C 355.766 311.200,356.000 311.380,356.000 311.600 C 356.000 311.820,356.349 312.000,356.776 312.000 C 357.203 312.000,357.664 312.180,357.800 312.400 C 357.936 312.620,358.667 312.800,359.424 312.800 C 360.181 312.800,360.800 312.980,360.800 313.200 C 360.800 313.431,362.067 313.600,363.800 313.600 C 365.533 313.600,366.800 313.769,366.800 314.000 C 366.800 314.220,367.610 314.400,368.600 314.400 C 369.590 314.400,370.400 314.220,370.400 314.000 C 370.400 313.771,371.600 313.600,373.200 313.600 C 374.800 313.600,376.000 313.429,376.000 313.200 C 376.000 312.980,376.720 312.800,377.600 312.800 C 378.480 312.800,379.200 312.620,379.200 312.400 C 379.200 312.180,379.549 312.000,379.976 312.000 C 380.403 312.000,380.864 311.820,381.000 311.600 C 381.136 311.380,381.687 311.200,382.224 311.200 C 382.761 311.200,383.200 311.020,383.200 310.800 C 383.200 310.580,383.436 310.400,383.725 310.400 C 384.013 310.400,384.636 310.040,385.108 309.600 C 385.580 309.160,386.199 308.794,386.483 308.787 C 387.429 308.764,393.200 303.544,393.200 302.712 C 393.200 302.497,393.740 301.817,394.400 301.200 C 395.060 300.583,395.600 299.791,395.600 299.440 C 395.600 299.088,395.780 298.800,396.000 298.800 C 396.220 298.800,396.400 298.440,396.400 298.000 C 396.400 297.560,396.580 297.200,396.800 297.200 C 397.020 297.200,397.200 296.840,397.200 296.400 C 397.200 295.960,397.380 295.600,397.600 295.600 C 397.820 295.600,398.000 295.240,398.000 294.800 C 398.000 294.360,398.180 294.000,398.400 294.000 C 398.620 294.000,398.800 293.475,398.800 292.833 C 398.800 292.192,399.025 291.592,399.300 291.500 C 399.682 291.372,399.800 289.031,399.800 281.600 C 399.800 274.169,399.682 271.827,399.300 271.700 C 399.025 271.608,398.800 271.109,398.800 270.590 C 398.800 270.072,398.620 269.536,398.400 269.400 C 398.180 269.264,398.000 268.803,398.000 268.376 C 398.000 267.949,397.820 267.600,397.600 267.600 C 397.380 267.600,397.200 267.240,397.200 266.800 C 397.200 266.360,397.020 266.000,396.800 266.000 C 396.580 266.000,396.400 265.764,396.400 265.475 C 396.400 265.187,396.040 264.564,395.600 264.092 C 395.160 263.620,394.800 262.956,394.800 262.617 C 394.800 262.278,394.664 262.000,394.498 262.000 C 394.331 262.000,393.940 261.415,393.628 260.700 C 393.316 259.985,392.761 259.130,392.394 258.800 C 392.028 258.470,391.597 257.671,391.437 257.024 C 391.278 256.378,390.799 255.360,390.373 254.763 C 389.948 254.165,389.600 253.479,389.600 253.238 C 389.600 252.997,389.420 252.800,389.200 252.800 C 388.980 252.800,388.800 252.440,388.800 252.000 C 388.800 251.560,388.620 251.200,388.400 251.200 C 388.180 251.200,388.000 250.964,388.000 250.675 C 388.000 250.387,387.640 249.764,387.200 249.292 C 386.760 248.820,386.400 248.156,386.400 247.817 C 386.400 247.478,386.264 247.200,386.098 247.200 C 385.931 247.200,385.540 246.615,385.228 245.900 C 384.916 245.185,384.332 244.309,383.930 243.953 C 383.529 243.597,383.200 243.012,383.200 242.653 C 383.200 242.294,383.020 242.000,382.800 242.000 C 382.580 242.000,382.400 241.640,382.400 241.200 C 382.400 240.760,382.220 240.400,382.000 240.400 C 381.780 240.400,381.600 240.164,381.600 239.875 C 381.600 239.587,381.240 238.964,380.800 238.492 C 380.360 238.020,380.000 237.356,380.000 237.017 C 380.000 236.678,379.820 236.400,379.600 236.400 C 379.380 236.400,379.200 236.122,379.200 235.783 C 379.200 235.444,378.840 234.780,378.400 234.308 C 377.960 233.836,377.600 233.213,377.600 232.925 C 377.600 232.636,377.420 232.400,377.200 232.400 C 376.980 232.400,376.800 232.055,376.800 231.633 C 376.800 231.212,376.665 230.807,376.500 230.733 C 376.335 230.660,375.902 230.060,375.537 229.400 C 375.172 228.740,374.362 227.930,373.737 227.600 C 373.112 227.270,372.540 226.865,372.467 226.700 C 372.276 226.272,364.400 226.327,364.400 226.757 M262.173 242.856 C 270.631 245.841,276.108 256.133,273.149 263.481 C 270.766 269.401,267.801 272.366,261.881 274.749 C 261.084 275.071,251.518 275.200,228.600 275.200 C 205.682 275.200,196.116 275.071,195.319 274.749 C 179.709 268.463,179.524 248.099,195.028 242.859 C 198.863 241.563,258.502 241.561,262.173 242.856 M369.624 251.827 C 370.513 253.400,371.834 255.712,372.751 257.300 C 373.164 258.015,375.682 262.372,378.346 266.981 C 384.724 278.015,385.564 281.246,383.545 286.973 C 378.947 300.019,361.551 301.697,354.561 289.770 C 351.261 284.138,351.740 278.609,356.185 271.031 C 357.356 269.034,358.694 266.725,359.157 265.900 C 359.951 264.488,360.571 263.397,362.344 260.300 C 362.753 259.585,363.679 258.010,364.400 256.800 C 365.121 255.590,366.030 254.040,366.418 253.355 C 368.339 249.969,368.525 249.881,369.624 251.827 M243.123 290.827 C 244.155 291.061,245.313 291.421,245.695 291.627 C 246.077 291.832,246.584 292.000,246.823 292.000 C 248.260 292.000,253.159 296.458,254.514 299.000 C 259.208 307.800,255.908 318.079,246.989 322.437 L 244.200 323.800 225.761 323.800 C 212.955 323.800,207.028 323.663,206.361 323.351 C 205.832 323.104,204.500 322.475,203.400 321.954 C 196.207 318.549,192.277 308.181,195.649 301.505 C 195.842 301.123,196.000 300.616,196.000 300.377 C 196.000 297.628,202.406 292.394,207.477 291.000 C 209.945 290.322,240.251 290.174,243.123 290.827 " stroke="none" fill="#050505" fill-rule="evenodd"></path><path id="path1" d="M220.800 77.200 C 220.470 77.413,219.716 77.591,219.124 77.594 C 218.532 77.597,217.936 77.780,217.800 78.000 C 217.664 78.220,217.034 78.400,216.400 78.400 C 215.766 78.400,215.148 78.560,215.027 78.756 C 214.906 78.951,214.221 79.205,213.504 79.319 C 212.787 79.432,211.525 79.722,210.700 79.963 C 209.875 80.203,208.615 80.564,207.900 80.765 C 207.185 80.965,204.980 81.598,203.000 82.171 C 201.020 82.745,197.150 83.841,194.400 84.608 C 191.650 85.375,188.860 86.158,188.200 86.347 C 187.540 86.537,186.190 86.910,185.200 87.177 C 184.210 87.445,182.230 87.995,180.800 88.400 C 179.370 88.805,177.390 89.355,176.400 89.623 C 172.797 90.595,171.787 90.905,171.105 91.249 C 170.723 91.442,170.057 91.600,169.624 91.600 C 169.192 91.600,168.424 91.761,167.919 91.958 C 167.413 92.155,166.190 92.536,165.200 92.805 C 164.210 93.073,162.950 93.431,162.400 93.600 C 161.850 93.769,160.590 94.129,159.600 94.400 C 158.610 94.671,157.350 95.031,156.800 95.200 C 156.250 95.369,154.990 95.729,154.000 96.000 C 153.010 96.271,151.750 96.631,151.200 96.800 C 150.014 97.164,148.316 97.637,143.200 99.026 C 141.110 99.594,138.050 100.477,136.400 100.989 C 134.750 101.501,131.780 102.417,129.800 103.026 C 127.820 103.634,126.029 104.282,125.820 104.466 C 125.611 104.650,125.114 104.800,124.715 104.800 C 124.316 104.800,123.677 104.959,123.295 105.153 C 122.508 105.553,120.594 106.363,119.400 106.800 C 110.791 109.953,97.710 117.135,90.001 122.943 C 84.649 126.975,75.727 135.825,72.806 140.000 C 72.267 140.770,71.640 141.598,71.413 141.840 C 71.186 142.082,69.290 144.926,67.200 148.160 C 58.397 161.785,61.821 160.400,36.934 160.400 C 20.315 160.400,17.051 160.492,16.571 160.971 C 16.100 161.443,16.000 163.819,16.000 174.617 L 16.000 187.692 14.962 189.599 C 14.391 190.647,13.491 191.737,12.962 192.020 C 12.433 192.303,12.000 192.685,12.000 192.868 C 12.000 193.050,11.651 193.200,11.224 193.200 C 10.797 193.200,10.336 193.380,10.200 193.600 C 10.064 193.820,9.423 194.000,8.776 194.000 L 7.600 194.000 7.600 203.382 L 7.600 212.764 9.100 213.035 C 18.307 214.702,17.677 229.200,8.397 229.200 C 7.602 229.200,7.587 229.387,7.693 238.474 L 7.800 247.748 9.658 248.222 C 15.339 249.670,16.000 251.480,16.000 265.572 C 16.000 274.077,16.120 276.830,16.500 277.076 C 16.775 277.254,25.640 277.490,36.200 277.600 C 58.275 277.830,55.829 277.368,60.923 282.264 C 62.505 283.785,64.880 285.922,66.200 287.014 C 67.520 288.107,68.690 289.091,68.800 289.202 C 68.910 289.314,69.659 289.896,70.465 290.496 C 71.271 291.097,72.171 291.822,72.465 292.107 C 72.759 292.393,73.630 293.062,74.400 293.594 C 75.170 294.126,75.890 294.675,76.000 294.814 C 76.339 295.241,91.104 305.200,91.399 305.200 C 91.552 305.200,92.154 305.539,92.738 305.953 C 93.322 306.367,94.475 307.087,95.300 307.553 C 96.125 308.019,97.475 308.788,98.300 309.263 C 108.009 314.845,121.568 320.176,130.600 321.962 C 131.700 322.179,133.559 322.547,134.731 322.779 C 136.737 323.176,182.800 323.424,182.800 323.038 C 182.800 322.897,181.851 320.890,180.750 318.705 C 180.557 318.323,180.400 317.659,180.400 317.229 C 180.400 316.799,180.239 316.348,180.042 316.226 C 179.557 315.926,179.203 313.419,178.942 308.424 C 178.690 303.632,179.150 300.575,180.779 296.200 C 181.379 294.588,183.582 290.165,184.403 288.924 L 185.248 287.649 182.524 285.853 C 173.054 279.610,167.846 270.018,167.836 258.800 C 167.825 245.594,175.890 233.476,187.800 228.806 C 189.120 228.289,190.253 227.828,190.318 227.781 C 190.383 227.735,189.920 226.820,189.289 225.748 C 178.891 208.093,189.316 184.162,209.800 178.669 C 210.898 178.374,236.176 178.162,290.400 177.992 C 370.817 177.740,371.362 177.728,374.600 176.181 C 387.756 169.895,386.562 150.920,372.715 146.219 C 371.082 145.664,361.150 145.609,279.160 145.699 L 187.432 145.800 186.177 149.022 C 184.178 154.152,179.640 163.118,177.553 166.062 C 177.139 166.646,176.800 167.260,176.800 167.426 C 176.800 167.840,172.376 173.944,169.425 177.600 C 165.778 182.118,160.381 187.452,155.986 190.881 C 149.606 195.859,147.576 196.731,144.331 195.886 C 137.374 194.076,135.833 185.680,141.650 181.274 C 142.612 180.545,143.670 179.732,144.000 179.468 C 144.330 179.205,145.230 178.552,146.000 178.018 C 148.268 176.445,154.507 170.063,158.542 165.189 C 162.094 160.899,168.600 149.156,171.169 142.400 C 171.880 140.530,172.628 138.687,172.831 138.305 C 173.034 137.923,173.200 137.344,173.200 137.018 C 173.200 134.186,176.741 131.418,183.200 129.200 C 183.970 128.936,184.960 128.576,185.400 128.400 C 185.840 128.224,186.830 127.864,187.600 127.600 C 188.370 127.336,189.405 126.957,189.900 126.760 C 192.215 125.835,193.051 125.480,193.695 125.153 C 194.077 124.959,194.664 124.800,195.000 124.800 C 195.336 124.800,195.923 124.641,196.305 124.447 C 197.255 123.964,198.571 123.435,201.400 122.400 C 202.720 121.917,204.160 121.379,204.600 121.203 C 205.040 121.028,210.170 119.142,216.000 117.012 C 221.830 114.882,226.960 112.987,227.400 112.801 C 227.840 112.615,229.316 112.048,230.680 111.541 C 238.327 108.700,242.800 102.253,242.800 94.071 C 242.800 92.078,242.620 90.336,242.400 90.200 C 242.180 90.064,242.000 89.629,242.000 89.233 C 242.000 85.276,235.756 79.262,229.572 77.262 C 227.843 76.703,221.637 76.659,220.800 77.200 M213.800 194.566 C 197.794 199.180,197.650 220.910,213.594 225.754 C 215.263 226.261,279.905 226.347,281.800 225.845 C 286.348 224.639,292.800 219.045,292.800 216.308 C 292.800 216.007,293.022 215.538,293.292 215.268 C 293.625 214.935,293.785 213.289,293.785 210.200 C 293.785 207.111,293.625 205.465,293.292 205.132 C 293.022 204.862,292.800 204.396,292.800 204.098 C 292.800 201.101,286.613 195.886,281.354 194.450 C 279.011 193.810,216.046 193.918,213.800 194.566 M198.200 242.800 C 197.760 242.989,196.921 243.156,196.334 243.172 C 194.404 243.223,190.482 245.584,188.285 248.017 C 180.522 256.617,184.020 270.072,195.027 273.946 C 198.872 275.299,258.287 275.283,262.236 273.928 C 277.983 268.524,276.150 246.327,259.669 242.850 C 257.106 242.309,199.452 242.262,198.200 242.800 M208.400 291.462 C 207.630 291.551,206.640 291.776,206.200 291.962 C 198.613 295.158,195.449 299.721,195.432 307.491 C 195.426 310.507,195.583 312.143,195.911 312.471 C 196.180 312.740,196.400 313.204,196.400 313.502 C 196.400 316.095,202.258 321.333,206.760 322.767 C 208.632 323.363,242.572 323.362,244.440 322.766 C 258.616 318.243,260.163 299.333,246.897 292.740 L 244.200 291.400 227.000 291.349 C 217.540 291.321,209.170 291.372,208.400 291.462 " stroke="none" fill="#fbdbdb" fill-rule="evenodd"></path><path id="path2" d="M365.400 255.884 C 363.913 258.478,362.360 261.185,361.949 261.900 C 361.537 262.615,360.865 263.785,360.456 264.500 C 360.047 265.215,359.121 266.790,358.400 268.000 C 355.044 273.629,354.238 275.167,353.581 277.200 C 349.100 291.073,366.817 303.822,377.600 294.485 C 385.500 287.644,386.041 280.471,379.475 269.647 C 378.623 268.242,377.583 266.487,377.163 265.747 C 371.521 255.792,368.911 251.437,368.506 251.302 C 368.284 251.228,366.887 253.290,365.400 255.884 " stroke="none" fill="#f95b7b" fill-rule="evenodd"></path><path id="path3" d="M223.491 76.689 C 224.201 76.777,225.461 76.779,226.291 76.692 C 227.121 76.605,226.540 76.533,225.000 76.531 C 223.460 76.529,222.781 76.600,223.491 76.689 M219.600 77.200 C 218.776 77.464,218.741 77.526,219.400 77.554 C 219.840 77.573,220.470 77.413,220.800 77.200 C 221.501 76.747,221.014 76.747,219.600 77.200 M229.200 77.182 C 229.530 77.405,230.145 77.591,230.567 77.594 C 231.590 77.602,231.271 77.373,229.800 77.044 C 228.924 76.848,228.762 76.885,229.200 77.182 M216.600 78.000 C 215.829 78.331,215.831 78.345,216.676 78.372 C 217.158 78.387,217.664 78.220,217.800 78.000 C 218.092 77.527,217.701 77.527,216.600 78.000 M213.800 78.800 C 213.029 79.131,213.031 79.145,213.876 79.172 C 214.358 79.187,214.864 79.020,215.000 78.800 C 215.292 78.327,214.901 78.327,213.800 78.800 M210.800 79.600 C 209.976 79.864,209.941 79.926,210.600 79.954 C 211.040 79.973,211.670 79.813,212.000 79.600 C 212.701 79.147,212.214 79.147,210.800 79.600 M234.800 79.290 C 234.800 79.377,235.835 80.328,237.100 81.403 C 238.365 82.479,239.040 82.944,238.600 82.436 C 237.764 81.471,234.800 79.017,234.800 79.290 M208.000 80.400 C 207.176 80.664,207.141 80.726,207.800 80.754 C 208.240 80.773,208.870 80.613,209.200 80.400 C 209.901 79.947,209.414 79.947,208.000 80.400 M204.000 81.618 C 203.562 81.915,203.724 81.952,204.600 81.756 C 206.071 81.427,206.390 81.198,205.367 81.206 C 204.945 81.209,204.330 81.395,204.000 81.618 M200.200 82.611 C 199.320 82.901,198.870 83.150,199.200 83.163 C 199.530 83.177,200.610 82.933,201.600 82.621 C 202.590 82.309,203.040 82.060,202.600 82.069 C 202.160 82.077,201.080 82.321,200.200 82.611 M195.400 84.000 C 194.896 84.217,194.822 84.344,195.200 84.344 C 195.530 84.344,196.160 84.189,196.600 84.000 C 197.104 83.783,197.178 83.656,196.800 83.656 C 196.470 83.656,195.840 83.811,195.400 84.000 M192.600 84.800 C 192.096 85.017,192.022 85.144,192.400 85.144 C 192.730 85.144,193.360 84.989,193.800 84.800 C 194.304 84.583,194.378 84.456,194.000 84.456 C 193.670 84.456,193.040 84.611,192.600 84.800 M189.800 85.600 C 189.296 85.817,189.222 85.944,189.600 85.944 C 189.930 85.944,190.560 85.789,191.000 85.600 C 191.504 85.383,191.578 85.256,191.200 85.256 C 190.870 85.256,190.240 85.411,189.800 85.600 M240.400 85.250 C 240.400 85.598,241.637 88.000,241.817 88.000 C 241.904 88.000,241.861 87.685,241.721 87.300 C 241.433 86.506,240.400 84.903,240.400 85.250 M186.800 86.400 C 186.267 86.745,186.267 86.788,186.800 86.788 C 187.130 86.788,187.670 86.613,188.000 86.400 C 188.533 86.055,188.533 86.012,188.000 86.012 C 187.670 86.012,187.130 86.187,186.800 86.400 M169.800 91.200 C 169.029 91.531,169.031 91.545,169.876 91.572 C 170.358 91.587,170.864 91.420,171.000 91.200 C 171.292 90.727,170.901 90.727,169.800 91.200 M242.934 94.400 C 242.934 96.050,243.005 96.725,243.091 95.900 C 243.178 95.075,243.178 93.725,243.091 92.900 C 243.005 92.075,242.934 92.750,242.934 94.400 M161.200 93.600 C 160.376 93.864,160.341 93.926,161.000 93.954 C 161.440 93.973,162.070 93.813,162.400 93.600 C 163.101 93.147,162.614 93.147,161.200 93.600 M158.400 94.400 C 157.576 94.664,157.541 94.726,158.200 94.754 C 158.640 94.773,159.270 94.613,159.600 94.400 C 160.301 93.947,159.814 93.947,158.400 94.400 M155.600 95.200 C 154.776 95.464,154.741 95.526,155.400 95.554 C 155.840 95.573,156.470 95.413,156.800 95.200 C 157.501 94.747,157.014 94.747,155.600 95.200 M152.800 96.000 C 151.976 96.264,151.941 96.326,152.600 96.354 C 153.040 96.373,153.670 96.213,154.000 96.000 C 154.701 95.547,154.214 95.547,152.800 96.000 M150.000 96.800 C 149.176 97.064,149.141 97.126,149.800 97.154 C 150.240 97.173,150.870 97.013,151.200 96.800 C 151.901 96.347,151.414 96.347,150.000 96.800 M147.200 97.600 C 146.376 97.864,146.341 97.926,147.000 97.954 C 147.440 97.973,148.070 97.813,148.400 97.600 C 149.101 97.147,148.614 97.147,147.200 97.600 M142.800 98.818 C 142.362 99.115,142.524 99.152,143.400 98.956 C 144.871 98.627,145.190 98.398,144.167 98.406 C 143.745 98.409,143.130 98.595,142.800 98.818 M132.000 102.018 C 131.562 102.315,131.724 102.352,132.600 102.156 C 134.071 101.827,134.390 101.598,133.367 101.606 C 132.945 101.609,132.330 101.795,132.000 102.018 M239.853 104.391 C 239.274 105.267,238.800 106.117,238.800 106.280 C 238.800 106.444,239.042 106.223,239.339 105.789 C 240.641 103.881,241.278 102.800,241.099 102.800 C 240.993 102.800,240.432 103.516,239.853 104.391 M234.881 109.372 C 233.027 110.683,232.794 111.006,234.229 110.277 C 234.905 109.934,235.692 109.371,235.978 109.026 C 236.671 108.191,236.454 108.260,234.881 109.372 M104.200 113.600 C 103.540 114.037,103.180 114.392,103.400 114.388 C 103.801 114.382,105.976 112.823,105.600 112.812 C 105.490 112.808,104.860 113.163,104.200 113.600 M100.100 115.826 C 99.165 116.387,98.400 116.940,98.400 117.055 C 98.400 117.271,101.099 115.738,101.780 115.136 C 102.467 114.528,101.827 114.791,100.100 115.826 M94.162 119.662 L 93.400 120.524 94.500 119.816 C 95.634 119.086,95.849 118.800,95.262 118.800 C 95.076 118.800,94.581 119.188,94.162 119.662 M205.800 120.685 C 205.360 120.791,204.832 121.037,204.627 121.232 C 204.422 121.427,204.851 121.415,205.581 121.205 C 207.643 120.614,207.817 120.200,205.800 120.685 M201.400 122.429 C 200.520 122.852,200.238 123.086,200.774 122.949 C 202.239 122.573,204.286 121.629,203.600 121.645 C 203.270 121.653,202.280 122.006,201.400 122.429 M81.436 130.052 C 78.431 132.941,76.046 135.379,76.136 135.469 C 76.227 135.560,77.448 134.432,78.850 132.964 C 80.253 131.495,82.796 129.058,84.503 127.547 C 86.209 126.036,87.447 124.800,87.253 124.800 C 87.059 124.800,84.442 127.164,81.436 130.052 M175.276 133.247 C 174.574 133.934,174.000 134.684,174.000 134.914 C 174.000 135.145,174.045 135.256,174.100 135.162 C 174.155 135.068,174.820 134.318,175.578 133.496 C 177.249 131.683,177.047 131.516,175.276 133.247 M172.552 138.700 C 172.430 139.085,171.984 140.283,171.561 141.363 C 171.138 142.442,170.861 143.395,170.946 143.479 C 171.112 143.645,172.290 140.892,172.819 139.100 C 173.170 137.914,172.921 137.541,172.552 138.700 M170.067 145.180 C 169.833 145.851,169.727 146.400,169.831 146.400 C 170.101 146.400,170.856 144.322,170.657 144.124 C 170.567 144.033,170.301 144.508,170.067 145.180 M187.280 145.680 C 187.016 145.944,186.800 146.338,186.800 146.556 C 186.800 146.775,187.025 146.648,187.300 146.275 C 187.767 145.642,193.842 145.591,279.400 145.498 L 371.000 145.398 279.380 145.299 C 208.543 145.222,187.651 145.309,187.280 145.680 M371.646 145.780 C 371.781 145.914,372.489 146.196,373.219 146.405 C 373.949 146.615,374.378 146.632,374.173 146.445 C 373.748 146.056,371.271 145.404,371.646 145.780 M66.721 148.300 C 64.579 151.560,64.315 152.000,64.501 152.000 C 64.676 152.000,65.241 151.195,67.378 147.900 C 67.771 147.295,68.005 146.800,67.899 146.800 C 67.793 146.800,67.263 147.475,66.721 148.300 M167.084 151.414 C 166.271 153.056,165.693 154.400,165.798 154.400 C 166.065 154.400,168.885 148.751,168.706 148.573 C 168.627 148.493,167.897 149.772,167.084 151.414 M377.241 148.500 C 377.337 148.555,378.312 149.410,379.407 150.400 L 381.400 152.200 379.617 150.300 C 378.636 149.255,377.661 148.400,377.450 148.400 C 377.239 148.400,377.145 148.445,377.241 148.500 M185.000 151.061 C 184.664 151.865,184.482 152.615,184.595 152.728 C 184.708 152.841,184.800 152.835,184.800 152.716 C 184.800 152.596,185.072 151.846,185.405 151.049 C 185.738 150.252,185.921 149.600,185.811 149.600 C 185.701 149.600,185.336 150.258,185.000 151.061 M381.800 153.600 C 382.141 154.260,382.511 154.800,382.621 154.800 C 382.731 154.800,382.541 154.260,382.200 153.600 C 381.859 152.940,381.489 152.400,381.379 152.400 C 381.269 152.400,381.459 152.940,381.800 153.600 M164.600 156.000 C 164.259 156.660,164.069 157.200,164.179 157.200 C 164.289 157.200,164.659 156.660,165.000 156.000 C 165.341 155.340,165.531 154.800,165.421 154.800 C 165.311 154.800,164.941 155.340,164.600 156.000 M182.388 156.709 C 181.181 159.078,180.785 160.000,180.972 160.000 C 181.218 160.000,183.668 155.134,183.504 154.971 C 183.420 154.886,182.918 155.669,182.388 156.709 M60.800 157.091 C 60.328 157.691,59.460 158.500,58.871 158.889 C 58.282 159.277,57.941 159.596,58.114 159.597 C 58.739 159.603,60.439 158.269,61.238 157.147 C 62.277 155.688,61.938 155.644,60.800 157.091 M383.794 161.332 C 383.797 163.221,383.922 164.458,384.072 164.083 C 384.415 163.220,384.405 160.101,384.054 158.849 C 383.907 158.326,383.790 159.443,383.794 161.332 M179.853 161.700 L 179.133 163.000 179.958 162.000 C 180.689 161.113,181.014 160.400,180.686 160.400 C 180.624 160.400,180.249 160.985,179.853 161.700 M15.600 174.800 C 15.490 182.170,15.254 188.560,15.075 189.000 C 14.896 189.440,15.033 189.311,15.380 188.714 C 15.926 187.774,15.997 185.861,15.905 174.514 L 15.799 161.400 15.600 174.800 M178.253 164.500 L 177.533 165.800 178.358 164.800 C 179.089 163.913,179.414 163.200,179.086 163.200 C 179.024 163.200,178.649 163.785,178.253 164.500 M155.200 169.047 C 154.210 170.261,152.291 172.323,150.935 173.628 C 149.579 174.932,148.593 176.000,148.745 176.000 C 148.896 176.000,150.278 174.695,151.815 173.100 C 156.523 168.215,157.778 166.799,157.381 166.819 C 157.172 166.830,156.190 167.833,155.200 169.047 M174.692 170.030 C 173.645 171.554,172.873 172.800,172.974 172.800 C 173.263 172.800,176.915 167.582,176.745 167.412 C 176.662 167.329,175.738 168.507,174.692 170.030 M380.497 171.383 C 379.806 172.364,378.603 173.579,377.825 174.083 C 377.047 174.587,376.408 175.147,376.405 175.327 C 376.402 175.507,376.928 175.279,377.573 174.819 C 379.518 173.434,382.680 169.600,381.877 169.600 C 381.809 169.600,381.188 170.402,380.497 171.383 M171.944 173.900 C 170.675 175.432,170.219 176.142,170.681 175.865 C 171.193 175.558,172.969 173.200,172.689 173.200 C 172.598 173.200,172.263 173.515,171.944 173.900 M369.200 177.600 L 368.200 177.920 369.200 177.920 C 369.750 177.920,370.650 177.776,371.200 177.600 L 372.200 177.280 371.200 177.280 C 370.650 177.280,369.750 177.424,369.200 177.600 M211.200 178.421 C 210.770 178.714,211.054 178.754,212.200 178.562 C 214.184 178.230,214.504 177.998,212.967 178.006 C 212.325 178.009,211.530 178.196,211.200 178.421 M167.375 179.700 L 166.200 181.000 167.500 179.825 C 168.215 179.179,168.800 178.594,168.800 178.525 C 168.800 178.216,168.470 178.488,167.375 179.700 M208.000 179.218 C 207.562 179.515,207.724 179.552,208.600 179.356 C 210.071 179.027,210.390 178.798,209.367 178.806 C 208.945 178.809,208.330 178.995,208.000 179.218 M163.617 183.785 L 161.433 186.200 163.798 183.914 C 165.098 182.657,166.081 181.571,165.981 181.500 C 165.882 181.429,164.817 182.457,163.617 183.785 M201.900 181.829 C 200.405 182.640,200.496 182.978,202.000 182.200 C 202.660 181.859,203.200 181.494,203.200 181.390 C 203.200 181.132,203.157 181.147,201.900 181.829 M195.773 186.477 C 194.108 188.060,192.375 189.905,191.923 190.577 C 191.471 191.250,191.851 190.953,192.767 189.918 C 193.683 188.882,195.550 187.038,196.916 185.820 C 198.282 184.601,199.266 183.603,199.101 183.602 C 198.937 183.601,197.439 184.895,195.773 186.477 M138.164 185.751 C 138.047 186.054,138.011 187.179,138.084 188.251 L 138.215 190.200 138.408 187.699 C 138.602 185.173,138.549 184.747,138.164 185.751 M158.000 188.892 C 156.790 189.997,156.261 190.563,156.825 190.151 C 158.653 188.812,160.504 187.171,160.350 187.025 C 160.268 186.946,159.210 187.787,158.000 188.892 M13.375 191.250 C 12.552 192.125,12.452 192.347,13.041 191.991 C 13.767 191.551,15.043 190.000,14.678 190.000 C 14.608 190.000,14.021 190.563,13.375 191.250 M9.000 193.600 L 7.800 193.905 8.876 193.953 C 9.468 193.979,10.064 193.820,10.200 193.600 C 10.336 193.380,10.392 193.221,10.324 193.247 C 10.256 193.273,9.660 193.432,9.000 193.600 M151.200 194.000 C 150.650 194.430,150.397 194.786,150.638 194.791 C 150.879 194.796,151.402 194.440,151.800 194.000 C 152.712 192.992,152.488 192.992,151.200 194.000 M189.521 194.100 C 188.430 195.820,187.160 198.881,187.348 199.339 C 187.459 199.610,187.553 199.553,187.576 199.200 C 187.597 198.870,188.231 197.385,188.983 195.900 C 190.357 193.190,190.586 192.421,189.521 194.100 M231.870 193.900 C 240.489 193.960,254.709 193.960,263.470 193.900 C 272.232 193.840,265.180 193.791,247.800 193.790 C 230.420 193.790,223.252 193.840,231.870 193.900 M213.200 194.400 C 212.396 194.657,212.357 194.723,213.000 194.732 C 213.440 194.738,214.160 194.589,214.600 194.400 C 215.619 193.962,214.568 193.962,213.200 194.400 M281.000 194.400 C 281.440 194.589,282.160 194.738,282.600 194.732 C 283.243 194.723,283.204 194.657,282.400 194.400 C 281.032 193.962,279.981 193.962,281.000 194.400 M141.824 194.987 C 142.251 195.310,142.870 195.579,143.200 195.585 C 143.530 195.590,143.284 195.326,142.654 194.998 C 141.195 194.237,140.825 194.232,141.824 194.987 M207.000 197.809 C 206.120 198.568,205.547 199.191,205.727 199.194 C 205.906 199.197,206.716 198.572,207.527 197.803 C 209.417 196.012,209.081 196.016,207.000 197.809 M288.000 197.361 C 288.000 197.539,288.429 198.022,288.953 198.435 C 289.478 198.847,290.487 200.088,291.195 201.192 C 292.737 203.595,293.193 203.851,291.912 201.594 C 291.004 199.995,288.000 196.745,288.000 197.361 M186.250 202.050 C 185.917 203.717,186.240 204.040,186.600 202.400 C 186.752 201.709,186.793 201.059,186.691 200.958 C 186.589 200.856,186.391 201.347,186.250 202.050 M185.701 205.400 C 185.705 206.280,185.787 206.593,185.883 206.095 C 185.979 205.598,185.975 204.878,185.875 204.495 C 185.775 204.113,185.696 204.520,185.701 205.400 M201.849 205.815 C 201.712 206.173,201.618 206.856,201.641 207.333 C 201.667 207.881,201.803 207.686,202.010 206.803 C 202.360 205.316,202.265 204.733,201.849 205.815 M293.800 210.239 C 293.800 212.333,293.917 213.632,294.060 213.124 C 294.406 211.895,294.414 207.976,294.072 207.115 C 293.922 206.738,293.800 208.144,293.800 210.239 M185.337 210.200 C 185.339 211.960,185.409 212.630,185.493 211.689 C 185.578 210.749,185.577 209.309,185.491 208.489 C 185.405 207.670,185.336 208.440,185.337 210.200 M201.606 213.233 C 201.609 213.765,201.789 214.470,202.006 214.800 C 202.282 215.222,202.323 214.985,202.142 214.000 C 201.825 212.275,201.598 211.949,201.606 213.233 M185.701 215.000 C 185.705 215.880,185.787 216.193,185.883 215.695 C 185.979 215.198,185.975 214.478,185.875 214.095 C 185.775 213.713,185.696 214.120,185.701 215.000 M186.244 218.000 C 186.380 218.770,186.654 219.670,186.851 220.000 C 187.277 220.710,186.868 218.637,186.339 217.400 C 186.108 216.860,186.077 217.056,186.244 218.000 M15.039 217.800 C 15.202 218.240,15.458 219.590,15.608 220.800 L 15.882 223.000 15.927 221.000 C 15.953 219.830,15.717 218.585,15.358 218.000 C 14.973 217.372,14.854 217.298,15.039 217.800 M291.399 218.900 C 290.790 219.835,289.461 221.391,288.446 222.357 L 286.600 224.114 288.309 222.817 C 289.756 221.718,291.291 219.869,292.556 217.700 C 293.285 216.450,292.391 217.377,291.399 218.900 M204.801 220.200 C 205.351 220.860,205.845 221.475,205.900 221.567 C 205.955 221.658,206.088 221.645,206.196 221.538 C 206.304 221.430,205.809 220.815,205.097 220.171 L 203.803 219.000 204.801 220.200 M187.776 222.695 C 188.099 223.748,189.990 227.200,190.243 227.200 C 190.410 227.200,188.050 222.410,187.681 222.000 C 187.582 221.890,187.624 222.203,187.776 222.695 M207.309 222.800 C 207.869 223.240,208.457 223.600,208.617 223.600 C 208.777 223.600,208.450 223.240,207.891 222.800 C 207.331 222.360,206.743 222.000,206.583 222.000 C 206.423 222.000,206.750 222.360,207.309 222.800 M212.833 225.744 C 212.925 225.823,213.540 226.008,214.200 226.156 C 215.076 226.352,215.238 226.315,214.800 226.018 C 214.260 225.653,212.432 225.398,212.833 225.744 M280.800 226.000 C 280.005 226.514,281.004 226.514,282.200 226.000 L 283.000 225.656 282.200 225.634 C 281.760 225.622,281.130 225.787,280.800 226.000 M8.800 228.800 C 7.976 229.064,7.941 229.126,8.600 229.154 C 9.040 229.173,9.670 229.013,10.000 228.800 C 10.701 228.347,10.214 228.347,8.800 228.800 M177.578 235.496 C 176.388 236.788,176.362 236.856,177.382 235.996 C 179.339 234.346,179.673 234.000,179.307 234.000 C 179.114 234.000,178.337 234.673,177.578 235.496 M171.768 243.018 C 171.182 244.018,170.770 244.904,170.853 244.986 C 170.935 245.068,171.497 244.250,172.101 243.168 C 173.483 240.693,173.205 240.567,171.768 243.018 M196.400 242.800 L 195.400 243.120 196.400 243.132 C 196.950 243.138,197.760 242.989,198.200 242.800 L 199.000 242.456 198.200 242.468 C 197.760 242.474,196.950 242.624,196.400 242.800 M259.200 242.800 C 259.750 242.976,260.560 243.120,261.000 243.120 C 261.633 243.120,261.592 243.054,260.800 242.800 C 260.250 242.624,259.440 242.480,259.000 242.480 C 258.367 242.480,258.408 242.546,259.200 242.800 M193.300 243.796 C 192.585 244.107,192.000 244.456,192.000 244.572 C 192.000 244.819,194.026 243.996,194.580 243.524 C 195.105 243.076,194.814 243.138,193.300 243.796 M262.400 243.363 C 262.400 243.442,263.367 243.979,264.550 244.558 C 266.531 245.527,269.177 247.956,270.913 250.400 L 271.623 251.400 271.157 250.425 C 270.520 249.092,267.361 245.765,265.838 244.824 C 264.544 244.024,262.400 243.113,262.400 243.363 M169.871 246.900 C 169.260 248.371,168.634 250.701,168.931 250.399 C 169.223 250.102,170.766 245.600,170.575 245.600 C 170.485 245.600,170.168 246.185,169.871 246.900 M188.561 247.300 C 187.102 248.845,185.264 251.155,186.253 250.200 C 187.318 249.172,190.490 245.600,190.338 245.600 C 190.244 245.600,189.444 246.365,188.561 247.300 M10.433 248.521 C 10.525 248.588,11.140 248.958,11.800 249.345 L 13.000 250.047 12.056 249.224 C 11.536 248.771,10.921 248.400,10.689 248.400 C 10.457 248.400,10.342 248.454,10.433 248.521 M14.037 251.200 C 15.196 252.996,15.200 253.001,15.198 252.567 C 15.197 252.365,14.732 251.660,14.165 251.000 L 13.134 249.800 14.037 251.200 M168.240 252.840 C 168.093 253.757,168.052 254.585,168.147 254.680 C 168.242 254.776,168.446 254.110,168.600 253.200 C 168.754 252.290,168.796 251.462,168.693 251.360 C 168.590 251.257,168.387 251.923,168.240 252.840 M271.627 251.600 C 271.625 251.710,271.977 252.790,272.410 254.000 C 272.958 255.530,273.123 255.774,272.951 254.800 C 272.746 253.630,271.642 250.964,271.627 251.600 M15.776 265.200 C 15.776 271.470,15.832 274.035,15.899 270.900 C 15.967 267.765,15.967 262.635,15.899 259.500 C 15.832 256.365,15.776 258.930,15.776 265.200 M183.850 256.450 C 183.546 257.968,183.587 260.272,183.940 261.524 C 184.083 262.032,184.200 260.817,184.200 258.824 C 184.200 254.750,184.196 254.721,183.850 256.450 M167.728 258.800 C 167.728 260.230,167.801 260.815,167.889 260.100 C 167.978 259.385,167.978 258.215,167.889 257.500 C 167.801 256.785,167.728 257.370,167.728 258.800 M273.314 258.600 C 273.317 259.700,273.395 260.103,273.487 259.495 C 273.579 258.886,273.577 257.986,273.482 257.495 C 273.387 257.003,273.311 257.500,273.314 258.600 M168.080 263.400 C 168.080 263.840,168.224 264.650,168.400 265.200 C 168.654 265.992,168.720 266.033,168.720 265.400 C 168.720 264.960,168.576 264.150,168.400 263.600 C 168.146 262.808,168.080 262.767,168.080 263.400 M272.332 263.600 C 272.206 264.150,271.978 264.960,271.826 265.400 C 271.674 265.840,271.842 265.695,272.199 265.077 C 272.557 264.459,272.785 263.649,272.705 263.277 C 272.602 262.794,272.495 262.887,272.332 263.600 M270.614 267.435 C 270.241 268.004,270.005 268.538,270.089 268.622 C 270.173 268.707,270.558 268.241,270.944 267.588 C 271.806 266.128,271.548 266.009,270.614 267.435 M168.856 267.200 C 168.856 267.530,169.011 268.160,169.200 268.600 C 169.417 269.104,169.544 269.178,169.544 268.800 C 169.544 268.470,169.389 267.840,169.200 267.400 C 168.983 266.896,168.856 266.822,168.856 267.200 M188.571 270.297 C 189.215 271.009,189.830 271.504,189.938 271.396 C 190.045 271.288,190.058 271.155,189.967 271.100 C 189.875 271.045,189.260 270.551,188.600 270.001 L 187.400 269.003 188.571 270.297 M268.175 270.500 L 267.000 271.800 268.300 270.625 C 269.015 269.979,269.600 269.394,269.600 269.325 C 269.600 269.016,269.270 269.288,268.175 270.500 M170.800 272.511 C 170.800 273.203,174.060 278.388,174.499 278.395 C 174.664 278.398,174.169 277.524,173.399 276.452 C 172.630 275.381,171.994 274.346,171.987 274.152 C 171.972 273.740,170.800 272.120,170.800 272.511 M213.730 275.100 C 222.051 275.160,235.551 275.160,243.730 275.100 C 251.908 275.039,245.100 274.990,228.600 274.990 C 212.100 274.990,205.408 275.039,213.730 275.100 M16.576 277.370 C 17.262 277.926,19.521 277.989,35.776 277.910 L 54.200 277.819 35.600 277.610 C 25.370 277.494,16.730 277.252,16.400 277.070 C 16.070 276.889,16.149 277.024,16.576 277.370 M60.000 281.896 C 61.870 283.673,63.452 285.076,63.515 285.015 C 63.682 284.853,58.056 279.467,57.267 279.033 C 56.900 278.831,58.130 280.120,60.000 281.896 M175.634 279.847 C 176.165 280.533,176.680 281.023,176.779 280.935 C 176.877 280.847,176.443 280.286,175.813 279.688 L 174.669 278.600 175.634 279.847 M178.022 282.300 C 178.034 282.465,178.619 283.038,179.322 283.574 L 180.600 284.549 179.425 283.274 C 178.203 281.949,177.985 281.797,178.022 282.300 M66.176 287.296 C 67.289 288.338,68.349 289.193,68.531 289.196 C 68.713 289.198,68.263 288.717,67.531 288.127 C 66.799 287.537,65.739 286.682,65.176 286.227 C 64.612 285.772,65.062 286.253,66.176 287.296 M184.689 287.227 C 185.075 287.724,185.067 288.015,184.650 288.627 C 184.360 289.052,183.804 289.940,183.414 290.600 L 182.705 291.800 183.510 290.826 C 185.331 288.623,185.661 287.746,184.896 287.145 C 184.284 286.666,184.259 286.675,184.689 287.227 M69.200 289.725 C 69.200 289.824,69.861 290.409,70.668 291.025 C 71.476 291.641,72.011 291.941,71.856 291.691 C 71.540 291.179,69.200 289.447,69.200 289.725 M208.476 291.140 C 207.968 291.283,215.674 291.400,225.600 291.400 C 235.526 291.400,243.232 291.283,242.724 291.140 C 242.216 290.997,234.510 290.880,225.600 290.880 C 216.690 290.880,208.984 290.997,208.476 291.140 M199.600 295.800 C 198.628 296.790,197.923 297.600,198.033 297.600 C 198.143 297.600,199.028 296.790,200.000 295.800 C 200.972 294.810,201.677 294.000,201.567 294.000 C 201.457 294.000,200.572 294.810,199.600 295.800 M251.378 296.000 C 254.004 298.956,254.274 299.209,253.300 297.800 C 252.843 297.140,251.784 295.970,250.947 295.200 C 249.730 294.082,249.817 294.242,251.378 296.000 M78.956 297.129 C 79.094 297.353,81.321 298.959,83.904 300.700 C 88.813 304.008,90.091 304.804,89.400 304.124 C 88.644 303.380,78.706 296.724,78.956 297.129 M196.252 300.546 C 195.327 302.495,195.470 302.924,196.414 301.032 C 196.845 300.169,197.131 299.398,197.051 299.317 C 196.970 299.237,196.611 299.790,196.252 300.546 M179.053 302.436 C 178.914 303.131,178.824 304.532,178.854 305.550 C 178.897 307.009,178.975 306.766,179.222 304.401 C 179.553 301.231,179.475 300.325,179.053 302.436 M195.057 304.300 C 194.759 306.101,194.800 308.960,195.147 310.577 C 195.286 311.225,195.400 309.740,195.400 307.277 C 195.400 302.244,195.399 302.232,195.057 304.300 M256.140 307.200 C 256.140 309.070,256.209 309.835,256.293 308.900 C 256.377 307.965,256.377 306.435,256.293 305.500 C 256.209 304.565,256.140 305.330,256.140 307.200 M91.600 305.620 C 92.987 306.561,93.778 306.835,92.800 306.036 C 92.250 305.586,91.620 305.217,91.400 305.215 C 91.180 305.213,91.270 305.396,91.600 305.620 M178.828 309.633 C 178.844 310.825,179.002 312.160,179.180 312.600 C 179.365 313.058,179.416 312.202,179.299 310.600 C 179.050 307.200,178.790 306.665,178.828 309.633 M254.490 314.142 C 253.552 316.285,251.652 318.586,249.200 320.546 C 248.305 321.261,248.150 321.490,248.771 321.180 C 251.180 319.978,255.999 313.710,255.523 312.399 C 255.455 312.213,254.990 312.997,254.490 314.142 M179.628 315.076 C 179.613 315.558,179.780 316.064,180.000 316.200 C 180.473 316.492,180.473 316.101,180.000 315.000 C 179.669 314.229,179.655 314.231,179.628 315.076 M197.015 315.500 C 198.356 317.585,198.800 318.177,198.800 317.880 C 198.800 317.496,196.755 314.400,196.501 314.400 C 196.395 314.400,196.626 314.895,197.015 315.500 M201.400 320.400 C 202.231 321.060,203.013 321.600,203.140 321.600 C 203.509 321.600,200.636 319.234,200.245 319.216 C 200.050 319.207,200.569 319.740,201.400 320.400 M125.233 320.944 C 125.325 321.023,125.940 321.208,126.600 321.356 C 127.476 321.552,127.638 321.515,127.200 321.218 C 126.660 320.853,124.832 320.598,125.233 320.944 M128.033 321.747 C 128.125 321.828,128.920 322.004,129.800 322.138 C 130.915 322.307,131.158 322.271,130.600 322.019 C 129.832 321.671,127.690 321.444,128.033 321.747 M132.305 322.683 C 132.802 322.779,133.522 322.775,133.905 322.675 C 134.287 322.575,133.880 322.496,133.000 322.501 C 132.120 322.505,131.807 322.587,132.305 322.683 M160.200 323.200 L 137.400 323.410 160.076 323.505 C 174.866 323.567,182.839 323.461,183.000 323.200 C 183.136 322.980,183.192 322.843,183.124 322.895 C 183.056 322.947,172.740 323.085,160.200 323.200 M216.700 323.500 C 221.595 323.563,229.605 323.563,234.500 323.500 C 239.395 323.436,235.390 323.384,225.600 323.384 C 215.810 323.384,211.805 323.436,216.700 323.500 " stroke="none" fill="#9b8686" fill-rule="evenodd"></path><path id="path4" d="M224.105 76.287 C 224.714 76.379,225.614 76.377,226.105 76.282 C 226.597 76.187,226.100 76.111,225.000 76.114 C 223.900 76.117,223.497 76.195,224.105 76.287 M219.804 76.794 C 219.652 77.040,220.055 77.094,220.880 76.937 C 222.649 76.600,222.801 76.400,221.290 76.400 C 220.607 76.400,219.938 76.577,219.804 76.794 M227.633 76.543 C 228.076 76.922,230.417 77.151,230.196 76.794 C 230.062 76.577,229.393 76.400,228.710 76.400 C 228.026 76.400,227.542 76.464,227.633 76.543 M216.800 77.618 C 216.362 77.915,216.524 77.952,217.400 77.756 C 218.871 77.427,219.190 77.198,218.167 77.206 C 217.745 77.209,217.130 77.395,216.800 77.618 M233.200 78.384 C 236.104 79.895,238.470 81.978,240.048 84.415 C 240.756 85.506,241.411 86.322,241.506 86.228 C 242.601 85.133,233.496 77.085,231.313 77.219 C 231.141 77.230,231.990 77.754,233.200 78.384 M214.000 78.418 C 213.562 78.715,213.724 78.752,214.600 78.556 C 216.071 78.227,216.390 77.998,215.367 78.006 C 214.945 78.009,214.330 78.195,214.000 78.418 M211.200 79.218 C 210.762 79.515,210.924 79.552,211.800 79.356 C 213.271 79.027,213.590 78.798,212.567 78.806 C 212.145 78.809,211.530 78.995,211.200 79.218 M205.600 80.800 C 205.067 81.145,205.067 81.188,205.600 81.188 C 205.930 81.188,206.470 81.013,206.800 80.800 C 207.333 80.455,207.333 80.412,206.800 80.412 C 206.470 80.412,205.930 80.587,205.600 80.800 M202.800 81.600 C 202.267 81.945,202.267 81.988,202.800 81.988 C 203.130 81.988,203.670 81.813,204.000 81.600 C 204.533 81.255,204.533 81.212,204.000 81.212 C 203.670 81.212,203.130 81.387,202.800 81.600 M197.000 83.200 C 196.496 83.417,196.422 83.544,196.800 83.544 C 197.130 83.544,197.760 83.389,198.200 83.200 C 198.704 82.983,198.778 82.856,198.400 82.856 C 198.070 82.856,197.440 83.011,197.000 83.200 M194.200 84.000 C 193.696 84.217,193.622 84.344,194.000 84.344 C 194.330 84.344,194.960 84.189,195.400 84.000 C 195.904 83.783,195.978 83.656,195.600 83.656 C 195.270 83.656,194.640 83.811,194.200 84.000 M191.400 84.800 C 190.896 85.017,190.822 85.144,191.200 85.144 C 191.530 85.144,192.160 84.989,192.600 84.800 C 193.104 84.583,193.178 84.456,192.800 84.456 C 192.470 84.456,191.840 84.611,191.400 84.800 M188.400 85.600 C 187.596 85.857,187.557 85.923,188.200 85.932 C 188.640 85.938,189.360 85.789,189.800 85.600 C 190.819 85.162,189.768 85.162,188.400 85.600 M184.400 86.783 C 183.190 87.187,182.352 87.536,182.538 87.559 C 183.026 87.618,187.200 86.376,187.200 86.172 C 187.200 85.901,186.749 85.999,184.400 86.783 M178.600 88.400 C 177.280 88.804,176.442 89.150,176.738 89.167 C 177.411 89.208,181.600 88.005,181.600 87.772 C 181.600 87.517,181.234 87.593,178.600 88.400 M242.752 90.487 C 242.937 91.598,242.993 91.655,243.119 90.854 C 243.201 90.333,243.103 89.743,242.901 89.541 C 242.679 89.319,242.621 89.693,242.752 90.487 M172.800 90.018 C 172.362 90.315,172.524 90.352,173.400 90.156 C 174.871 89.827,175.190 89.598,174.167 89.606 C 173.745 89.609,173.130 89.795,172.800 90.018 M170.000 90.818 C 169.562 91.115,169.724 91.152,170.600 90.956 C 172.071 90.627,172.390 90.398,171.367 90.406 C 170.945 90.409,170.330 90.595,170.000 90.818 M167.200 91.618 C 166.762 91.915,166.924 91.952,167.800 91.756 C 169.271 91.427,169.590 91.198,168.567 91.206 C 168.145 91.209,167.530 91.395,167.200 91.618 M164.400 92.418 C 163.962 92.715,164.124 92.752,165.000 92.556 C 166.471 92.227,166.790 91.998,165.767 92.006 C 165.345 92.009,164.730 92.195,164.400 92.418 M161.600 93.218 C 161.162 93.515,161.324 93.552,162.200 93.356 C 163.671 93.027,163.990 92.798,162.967 92.806 C 162.545 92.809,161.930 92.995,161.600 93.218 M243.309 94.400 C 243.309 95.390,243.387 95.795,243.482 95.300 C 243.578 94.805,243.578 93.995,243.482 93.500 C 243.387 93.005,243.309 93.410,243.309 94.400 M150.200 96.400 C 149.908 96.873,150.299 96.873,151.400 96.400 C 152.171 96.069,152.169 96.055,151.324 96.028 C 150.842 96.013,150.336 96.180,150.200 96.400 M242.854 97.867 C 242.825 98.344,242.696 99.064,242.570 99.467 C 242.352 100.161,242.364 100.162,242.796 99.488 C 243.047 99.097,243.175 98.377,243.081 97.888 C 242.909 97.001,242.909 97.001,242.854 97.867 M144.600 98.000 C 144.096 98.217,144.022 98.344,144.400 98.344 C 144.730 98.344,145.360 98.189,145.800 98.000 C 146.304 97.783,146.378 97.656,146.000 97.656 C 145.670 97.656,145.040 97.811,144.600 98.000 M141.600 98.800 C 141.067 99.145,141.067 99.188,141.600 99.188 C 141.930 99.188,142.470 99.013,142.800 98.800 C 143.333 98.455,143.333 98.412,142.800 98.412 C 142.470 98.412,141.930 98.587,141.600 98.800 M129.894 102.285 C 128.845 102.635,128.060 102.994,128.150 103.083 C 128.332 103.265,132.400 101.994,132.400 101.754 C 132.400 101.507,131.921 101.609,129.894 102.285 M118.600 106.440 C 112.931 108.768,111.200 109.564,111.200 109.842 C 111.200 109.955,111.335 109.983,111.500 109.905 C 111.665 109.826,112.250 109.544,112.800 109.278 C 113.350 109.011,116.230 107.812,119.200 106.614 C 122.170 105.416,124.330 104.443,124.000 104.452 C 123.670 104.461,121.240 105.355,118.600 106.440 M237.000 108.124 C 235.692 109.435,235.619 109.578,236.600 108.907 C 237.958 107.978,239.511 106.369,238.962 106.460 C 238.763 106.493,237.880 107.241,237.000 108.124 M107.500 111.429 C 105.949 112.270,106.125 112.561,107.700 111.759 C 109.208 110.993,109.475 110.794,108.967 110.816 C 108.765 110.825,108.105 111.101,107.500 111.429 M231.000 111.814 C 229.995 112.298,229.963 112.353,230.800 112.151 C 231.350 112.019,231.971 111.750,232.180 111.555 C 232.698 111.071,232.414 111.133,231.000 111.814 M226.400 113.416 C 225.190 113.937,224.394 114.371,224.632 114.381 C 224.870 114.392,226.130 113.958,227.432 113.417 C 228.734 112.876,229.530 112.442,229.200 112.452 C 228.870 112.462,227.610 112.896,226.400 113.416 M102.311 114.160 C 99.987 115.541,99.982 115.806,102.300 114.641 C 103.455 114.061,104.400 113.500,104.400 113.393 C 104.400 113.049,103.829 113.258,102.311 114.160 M220.600 115.629 C 219.720 116.052,219.438 116.286,219.974 116.149 C 221.439 115.773,223.486 114.829,222.800 114.845 C 222.470 114.853,221.480 115.206,220.600 115.629 M96.872 117.443 C 95.922 118.012,95.231 118.564,95.336 118.669 C 95.520 118.853,98.800 116.844,98.800 116.547 C 98.800 116.305,98.672 116.365,96.872 117.443 M216.400 117.098 C 215.410 117.448,214.795 117.798,215.034 117.878 C 215.273 117.958,216.263 117.670,217.234 117.240 C 219.359 116.297,218.894 116.218,216.400 117.098 M92.468 120.409 C 91.295 121.256,89.585 122.600,88.668 123.396 C 87.059 124.792,91.104 121.960,93.800 119.803 C 95.646 118.326,94.849 118.688,92.468 120.409 M85.454 125.833 C 84.823 126.387,84.387 126.920,84.483 127.016 C 84.579 127.113,85.174 126.654,85.804 125.996 C 87.196 124.543,87.016 124.459,85.454 125.833 M188.400 127.600 C 187.410 128.015,186.870 128.352,187.200 128.348 C 187.872 128.340,191.228 126.863,190.600 126.852 C 190.380 126.848,189.390 127.185,188.400 127.600 M79.992 131.100 L 76.200 135.000 80.100 131.208 C 83.722 127.686,84.182 127.200,83.892 127.200 C 83.833 127.200,82.078 128.955,79.992 131.100 M184.043 129.205 C 182.133 129.892,181.115 130.400,181.649 130.400 C 182.058 130.400,186.022 128.911,186.268 128.665 C 186.643 128.290,186.465 128.334,184.043 129.205 M178.600 131.229 C 177.720 131.667,176.640 132.406,176.200 132.872 C 175.550 133.559,175.663 133.530,176.800 132.719 C 177.570 132.169,178.920 131.432,179.800 131.080 C 180.680 130.729,181.130 130.439,180.800 130.437 C 180.470 130.434,179.480 130.790,178.600 131.229 M75.009 136.240 C 74.593 136.794,73.829 137.732,73.311 138.324 C 72.411 139.353,67.289 146.747,66.609 148.000 C 65.853 149.391,67.211 147.619,69.214 144.600 C 70.382 142.840,72.406 140.085,73.713 138.477 C 75.019 136.870,76.016 135.482,75.927 135.394 C 75.838 135.305,75.425 135.686,75.009 136.240 M187.300 145.065 C 187.025 145.176,186.800 145.454,186.800 145.682 C 186.800 145.954,186.987 145.943,187.340 145.650 C 187.734 145.323,212.412 145.174,278.840 145.100 L 369.800 144.998 278.800 144.931 C 228.750 144.894,187.575 144.954,187.300 145.065 M370.833 145.344 C 370.925 145.423,371.540 145.608,372.200 145.756 C 373.076 145.952,373.238 145.915,372.800 145.618 C 372.260 145.253,370.432 144.998,370.833 145.344 M376.400 147.490 C 378.900 149.259,381.285 151.894,382.393 154.112 C 383.057 155.441,383.600 156.312,383.600 156.048 C 383.600 154.219,378.981 148.477,376.605 147.352 L 375.400 146.782 376.400 147.490 M167.878 150.605 C 167.512 151.372,167.295 152.000,167.396 152.000 C 167.670 152.000,168.884 149.551,168.701 149.368 C 168.614 149.281,168.244 149.838,167.878 150.605 M184.800 150.484 C 184.800 150.604,184.528 151.354,184.195 152.151 C 183.862 152.948,183.679 153.600,183.789 153.600 C 184.106 153.600,185.233 150.700,185.005 150.472 C 184.892 150.359,184.800 150.365,184.800 150.484 M62.837 153.744 C 61.925 155.142,60.509 156.973,59.690 157.811 C 58.856 158.664,58.617 159.054,59.147 158.697 C 60.155 158.018,63.243 154.131,64.228 152.300 C 65.267 150.371,64.549 151.116,62.837 153.744 M165.866 154.422 C 165.254 155.510,164.837 156.400,164.939 156.400 C 165.210 156.400,167.297 152.763,167.124 152.591 C 167.043 152.510,166.477 153.334,165.866 154.422 M181.800 157.200 C 181.459 157.860,181.269 158.400,181.379 158.400 C 181.489 158.400,181.859 157.860,182.200 157.200 C 182.541 156.540,182.731 156.000,182.621 156.000 C 182.511 156.000,182.141 156.540,181.800 157.200 M161.712 161.000 C 160.152 163.310,158.994 165.198,159.138 165.195 C 159.362 165.190,160.855 163.026,164.139 157.944 C 164.546 157.315,164.804 156.800,164.713 156.800 C 164.622 156.800,163.271 158.690,161.712 161.000 M383.668 157.200 C 383.688 158.239,384.318 159.946,384.332 159.000 C 384.338 158.560,384.189 157.840,384.000 157.400 C 383.789 156.910,383.661 156.832,383.668 157.200 M180.214 160.235 C 179.841 160.804,179.627 161.361,179.739 161.472 C 179.850 161.583,180.229 161.118,180.581 160.437 C 181.359 158.933,181.144 158.815,180.214 160.235 M16.080 160.480 C 15.816 160.744,15.600 161.138,15.600 161.356 C 15.600 161.575,15.825 161.449,16.100 161.077 C 16.556 160.462,18.343 160.393,36.200 160.297 L 55.800 160.192 36.180 160.096 C 21.344 160.023,16.443 160.117,16.080 160.480 M178.600 163.200 C 178.259 163.860,178.069 164.400,178.179 164.400 C 178.289 164.400,178.659 163.860,179.000 163.200 C 179.341 162.540,179.531 162.000,179.421 162.000 C 179.311 162.000,178.941 162.540,178.600 163.200 M383.800 164.800 C 383.648 165.491,383.614 166.147,383.724 166.257 C 383.834 166.367,384.048 165.891,384.200 165.200 C 384.352 164.509,384.386 163.853,384.276 163.743 C 384.166 163.633,383.952 164.109,383.800 164.800 M176.653 166.391 C 175.653 167.902,175.215 168.996,175.936 168.180 C 176.492 167.552,178.079 164.800,177.886 164.800 C 177.787 164.800,177.232 165.516,176.653 166.391 M156.989 167.500 C 156.120 168.545,154.057 170.859,152.404 172.642 C 150.205 175.015,150.441 174.825,153.281 171.930 C 156.692 168.456,159.142 165.600,158.712 165.600 C 158.634 165.600,157.858 166.455,156.989 167.500 M382.691 168.291 C 382.325 169.098,382.107 169.841,382.208 169.941 C 382.308 170.041,382.672 169.446,383.018 168.618 C 383.837 166.659,383.557 166.380,382.691 168.291 M173.083 171.708 C 172.028 173.258,171.409 174.325,171.706 174.078 C 172.442 173.467,175.351 169.215,175.156 169.034 C 175.070 168.954,174.137 170.157,173.083 171.708 M379.578 173.039 C 378.820 173.830,377.300 174.998,376.200 175.635 C 375.100 176.272,374.390 176.794,374.622 176.796 C 375.344 176.803,378.535 174.573,379.978 173.052 C 380.737 172.253,381.267 171.600,381.157 171.600 C 381.047 171.600,380.337 172.247,379.578 173.039 M168.880 177.338 C 164.290 182.995,156.896 189.826,151.500 193.393 C 149.515 194.705,148.242 195.809,149.700 194.954 C 153.537 192.703,158.935 188.329,163.425 183.830 C 166.719 180.532,171.601 174.800,171.119 174.800 C 171.020 174.800,170.013 175.942,168.880 177.338 M147.293 177.233 C 146.575 177.875,146.125 178.394,146.294 178.387 C 146.707 178.370,148.931 176.398,148.746 176.213 C 148.665 176.132,148.012 176.591,147.293 177.233 M292.200 178.000 L 213.800 178.203 292.000 178.273 C 335.010 178.312,370.560 178.189,371.000 178.000 C 371.440 177.811,371.530 177.688,371.200 177.727 C 370.870 177.765,335.320 177.888,292.200 178.000 M211.000 178.800 C 209.922 179.074,209.902 179.106,210.800 179.113 C 211.350 179.117,212.250 178.976,212.800 178.800 C 214.144 178.369,212.692 178.369,211.000 178.800 M142.795 180.700 C 141.408 181.745,140.012 183.050,139.693 183.600 C 139.202 184.446,139.251 184.426,140.009 183.473 C 140.503 182.853,142.096 181.548,143.549 180.573 C 145.002 179.598,145.995 178.800,145.755 178.800 C 145.514 178.800,144.183 179.655,142.795 180.700 M206.705 179.963 C 204.579 180.741,203.663 181.367,205.446 180.823 C 207.636 180.155,209.798 179.256,209.200 179.263 C 208.870 179.267,207.747 179.582,206.705 179.963 M200.378 183.141 C 199.400 183.768,197.790 185.040,196.800 185.969 C 195.246 187.425,195.345 187.378,197.522 185.627 C 198.909 184.511,200.574 183.323,201.222 182.988 C 201.870 182.654,202.400 182.294,202.400 182.190 C 202.400 181.874,202.225 181.956,200.378 183.141 M138.600 185.600 C 138.450 186.073,138.417 186.550,138.527 186.660 C 138.637 186.770,138.850 186.473,139.000 186.000 C 139.150 185.527,139.183 185.050,139.073 184.940 C 138.963 184.830,138.750 185.127,138.600 185.600 M192.957 189.774 C 192.141 190.750,191.130 192.145,190.710 192.874 C 190.055 194.012,190.049 194.061,190.673 193.218 C 191.073 192.678,192.175 191.283,193.122 190.118 C 194.069 188.953,194.753 188.000,194.642 188.000 C 194.531 188.000,193.772 188.798,192.957 189.774 M12.953 191.030 C 12.026 191.977,10.745 192.836,10.024 192.995 C 9.319 193.149,8.834 193.367,8.945 193.478 C 9.427 193.961,11.977 192.658,13.399 191.201 C 14.251 190.329,14.870 189.554,14.774 189.480 C 14.678 189.407,13.859 190.104,12.953 191.030 M138.412 189.600 C 138.412 189.930,138.587 190.470,138.800 190.800 C 139.145 191.333,139.188 191.333,139.188 190.800 C 139.188 190.470,139.013 189.930,138.800 189.600 C 138.455 189.067,138.412 189.067,138.412 189.600 M139.501 192.204 C 139.939 193.034,141.600 194.695,141.600 194.304 C 141.600 194.183,141.032 193.481,140.338 192.742 C 139.644 192.004,139.267 191.762,139.501 192.204 M213.600 193.995 C 213.191 194.255,213.510 194.299,214.600 194.132 C 216.577 193.829,216.914 193.598,215.367 193.606 C 214.725 193.609,213.930 193.784,213.600 193.995 M279.233 193.744 C 279.325 193.824,280.210 194.006,281.200 194.150 C 282.458 194.333,282.819 194.291,282.400 194.012 C 281.860 193.653,278.832 193.397,279.233 193.744 M209.846 195.454 C 207.750 196.544,204.413 199.640,203.620 201.229 C 203.310 201.850,203.539 201.695,204.254 200.800 C 206.132 198.451,208.093 196.787,210.400 195.585 C 211.610 194.954,212.420 194.438,212.200 194.438 C 211.980 194.438,210.921 194.895,209.846 195.454 M144.757 195.688 C 145.565 195.905,146.699 195.907,147.557 195.693 C 148.827 195.377,148.665 195.333,146.200 195.329 C 143.795 195.324,143.591 195.375,144.757 195.688 M285.200 195.390 C 285.200 195.494,285.751 195.864,286.424 196.212 C 287.097 196.560,288.402 197.505,289.324 198.311 C 290.508 199.347,290.706 199.445,290.000 198.646 C 288.548 197.003,285.200 194.732,285.200 195.390 M187.000 200.400 C 186.850 200.873,186.817 201.350,186.927 201.460 C 187.037 201.570,187.250 201.273,187.400 200.800 C 187.550 200.327,187.583 199.850,187.473 199.740 C 187.363 199.630,187.150 199.927,187.000 200.400 M291.200 200.247 C 291.200 200.467,291.464 200.996,291.787 201.424 C 292.110 201.851,292.375 202.020,292.375 201.800 C 292.375 201.580,292.110 201.051,291.787 200.624 C 291.464 200.196,291.200 200.027,291.200 200.247 M186.200 203.600 C 186.048 204.291,186.014 204.947,186.124 205.057 C 186.234 205.167,186.448 204.691,186.600 204.000 C 186.752 203.309,186.786 202.653,186.676 202.543 C 186.566 202.433,186.352 202.909,186.200 203.600 M293.874 206.000 C 294.255 207.830,294.269 212.177,293.900 214.200 C 293.663 215.502,293.718 215.428,294.197 213.800 C 294.950 211.238,294.946 208.673,294.185 206.400 C 293.740 205.070,293.659 204.966,293.874 206.000 M185.742 210.200 C 185.741 212.180,185.808 213.040,185.892 212.112 C 185.976 211.184,185.977 209.564,185.895 208.512 C 185.812 207.460,185.743 208.220,185.742 210.200 M201.049 208.700 C 200.924 209.745,200.977 211.320,201.165 212.200 C 201.458 213.566,201.515 213.289,201.554 210.300 C 201.605 206.436,201.397 205.777,201.049 208.700 M9.000 213.590 C 11.346 214.194,12.307 214.758,13.546 216.261 C 14.236 217.098,14.799 217.606,14.798 217.391 C 14.792 215.999,10.570 213.149,8.651 213.241 C 8.025 213.271,8.117 213.363,9.000 213.590 M186.056 215.800 C 186.056 216.240,186.211 216.960,186.400 217.400 L 186.744 218.200 186.744 217.400 C 186.744 216.960,186.589 216.240,186.400 215.800 L 186.056 215.000 186.056 215.800 M291.437 219.400 C 291.076 219.950,290.937 220.400,291.127 220.400 C 291.316 220.400,291.677 219.950,291.927 219.400 C 292.178 218.850,292.317 218.400,292.237 218.400 C 292.157 218.400,291.797 218.850,291.437 219.400 M204.779 220.684 C 205.248 221.390,206.210 222.361,206.916 222.840 L 208.200 223.712 207.001 222.556 C 206.342 221.920,205.381 220.950,204.865 220.400 L 203.927 219.400 204.779 220.684 M15.029 222.629 C 14.881 223.215,14.851 223.784,14.961 223.894 C 15.071 224.004,15.281 223.615,15.429 223.029 C 15.576 222.442,15.606 221.873,15.496 221.763 C 15.386 221.653,15.176 222.042,15.029 222.629 M287.775 223.240 C 287.626 223.482,286.400 224.202,285.052 224.839 C 283.703 225.477,282.845 226.000,283.144 226.000 C 283.910 226.000,288.400 223.561,288.400 223.144 C 288.400 222.668,288.101 222.714,287.775 223.240 M208.400 223.954 C 208.400 224.283,210.409 225.324,210.626 225.107 C 210.693 225.040,210.220 224.682,209.574 224.311 C 208.928 223.940,208.400 223.780,208.400 223.954 M12.862 226.285 C 11.149 228.068,11.311 228.278,13.137 226.640 C 13.924 225.934,15.083 224.316,14.714 224.438 C 14.651 224.458,13.818 225.289,12.862 226.285 M213.738 226.494 C 213.992 226.656,229.320 226.788,247.800 226.788 C 266.280 226.788,281.608 226.656,281.862 226.494 C 282.116 226.332,266.788 226.200,247.800 226.200 C 228.812 226.200,213.484 226.332,213.738 226.494 M9.000 228.285 C 8.560 228.391,8.035 228.634,7.834 228.825 C 7.633 229.016,8.173 228.979,9.034 228.744 C 11.355 228.110,11.327 227.726,9.000 228.285 M189.000 228.614 C 188.340 228.917,188.070 229.166,188.400 229.168 C 188.730 229.170,189.450 228.914,190.000 228.600 C 191.265 227.877,190.589 227.887,189.000 228.614 M185.973 229.914 C 183.989 230.868,179.608 233.739,179.603 234.088 C 179.602 234.246,180.635 233.647,181.900 232.757 C 183.165 231.868,184.965 230.789,185.900 230.360 C 186.835 229.931,187.600 229.495,187.600 229.390 C 187.600 229.132,187.593 229.134,185.973 229.914 M176.878 236.519 C 176.175 237.245,175.600 237.977,175.600 238.148 C 175.600 238.456,175.738 238.326,177.570 236.282 C 178.939 234.754,178.415 234.934,176.878 236.519 M174.093 239.900 C 173.057 241.396,172.721 242.000,172.923 242.000 C 173.017 242.000,173.570 241.280,174.153 240.400 C 175.336 238.612,175.284 238.179,174.093 239.900 M196.715 242.328 C 196.338 242.478,210.676 242.600,228.577 242.600 C 246.478 242.600,260.916 242.468,260.662 242.306 C 260.081 241.937,197.647 241.958,196.715 242.328 M191.400 244.480 C 188.665 246.428,185.200 250.261,185.200 251.338 C 185.200 251.568,185.717 250.956,186.348 249.978 C 187.643 247.973,189.448 246.208,191.793 244.655 C 192.669 244.075,193.209 243.606,192.993 243.613 C 192.777 243.620,192.060 244.010,191.400 244.480 M268.800 247.479 C 270.010 248.804,271.072 249.826,271.159 249.751 C 271.379 249.563,268.382 246.255,267.400 245.602 C 266.960 245.309,267.590 246.154,268.800 247.479 M10.104 248.972 C 11.588 249.501,12.735 250.230,13.278 250.988 C 13.431 251.202,13.677 251.256,13.824 251.109 C 14.209 250.724,10.402 248.397,9.422 248.418 C 8.906 248.429,9.160 248.635,10.104 248.972 M169.000 250.400 C 168.850 250.873,168.817 251.350,168.927 251.460 C 169.037 251.570,169.250 251.273,169.400 250.800 C 169.550 250.327,169.583 249.850,169.473 249.740 C 169.363 249.630,169.150 249.927,169.000 250.400 M271.878 251.795 C 272.244 252.562,272.614 253.119,272.701 253.032 C 272.884 252.849,271.670 250.400,271.396 250.400 C 271.295 250.400,271.512 251.028,271.878 251.795 M367.659 251.254 C 367.365 251.724,366.807 252.670,366.418 253.355 C 366.030 254.040,365.121 255.590,364.400 256.800 C 363.679 258.010,362.753 259.585,362.344 260.300 C 360.644 263.270,359.956 264.477,359.154 265.900 C 358.689 266.725,357.862 268.165,357.316 269.100 C 356.771 270.035,356.422 270.800,356.543 270.800 C 356.736 270.800,358.124 268.565,360.455 264.500 C 360.865 263.785,361.537 262.615,361.949 261.900 C 362.360 261.185,363.913 258.478,365.400 255.884 C 366.887 253.290,368.284 251.228,368.506 251.302 C 368.883 251.428,370.684 254.396,375.600 263.000 C 377.422 266.189,377.960 267.117,379.365 269.500 C 380.175 270.875,380.926 272.000,381.033 272.000 C 381.284 272.000,381.146 271.748,376.985 264.600 C 375.064 261.300,373.156 258.015,372.746 257.300 C 371.574 255.258,370.346 253.105,369.624 251.827 C 368.775 250.324,368.322 250.192,367.659 251.254 M14.750 253.424 C 15.107 254.427,15.456 254.979,15.524 254.651 C 15.636 254.112,14.578 251.600,14.239 251.600 C 14.162 251.600,14.392 252.421,14.750 253.424 M168.250 254.450 C 167.933 256.033,167.995 262.301,168.340 263.524 C 168.483 264.032,168.600 261.917,168.600 258.824 C 168.600 252.622,168.604 252.678,168.250 254.450 M183.800 255.200 C 183.648 255.891,183.607 256.541,183.709 256.642 C 183.811 256.744,184.009 256.253,184.150 255.550 C 184.483 253.883,184.160 253.560,183.800 255.200 M273.058 255.200 C 273.375 256.925,273.602 257.251,273.594 255.967 C 273.591 255.435,273.411 254.730,273.194 254.400 C 272.918 253.978,272.877 254.215,273.058 255.200 M273.254 261.000 C 273.219 261.440,273.089 262.250,272.967 262.800 C 272.775 263.663,272.807 263.703,273.198 263.090 C 273.447 262.699,273.577 261.889,273.486 261.290 C 273.378 260.579,273.297 260.479,273.254 261.000 M183.668 261.400 C 183.662 261.840,183.811 262.560,184.000 263.000 C 184.438 264.019,184.438 262.968,184.000 261.600 C 183.743 260.796,183.677 260.757,183.668 261.400 M168.856 266.000 C 168.856 266.330,169.011 266.960,169.200 267.400 C 169.417 267.904,169.544 267.978,169.544 267.600 C 169.544 267.270,169.389 266.640,169.200 266.200 C 168.983 265.696,168.856 265.622,168.856 266.000 M185.639 266.900 C 186.430 268.426,188.756 271.114,190.111 272.071 C 190.860 272.600,190.460 272.059,189.157 270.781 C 187.923 269.571,186.614 268.000,186.247 267.290 C 185.880 266.581,185.488 266.000,185.376 266.000 C 185.264 266.000,185.382 266.405,185.639 266.900 M169.612 268.800 C 169.612 269.130,169.787 269.670,170.000 270.000 C 170.345 270.533,170.388 270.533,170.388 270.000 C 170.388 269.670,170.213 269.130,170.000 268.800 C 169.655 268.267,169.612 268.267,169.612 268.800 M267.800 270.939 C 266.563 272.181,266.258 272.627,267.000 272.110 C 268.412 271.125,270.717 268.771,270.175 268.866 C 269.969 268.902,268.900 269.835,267.800 270.939 M170.400 270.940 C 170.400 271.359,171.581 273.600,171.802 273.600 C 172.027 273.600,171.165 271.538,170.724 271.020 C 170.546 270.811,170.400 270.775,170.400 270.940 M355.013 273.013 C 354.417 274.031,354.031 274.964,354.155 275.089 C 354.280 275.213,354.505 274.974,354.656 274.557 C 354.807 274.141,355.281 273.295,355.709 272.677 C 356.137 272.059,356.400 271.466,356.292 271.359 C 356.185 271.252,355.609 271.996,355.013 273.013 M381.200 272.510 C 381.200 272.933,383.578 277.291,383.587 276.887 C 383.602 276.307,381.691 272.400,381.393 272.400 C 381.287 272.400,381.200 272.450,381.200 272.510 M195.621 274.821 C 196.155 275.160,199.142 275.381,198.767 275.055 C 198.675 274.975,197.799 274.808,196.821 274.682 C 195.670 274.535,195.246 274.584,195.621 274.821 M259.800 274.800 L 258.200 275.086 259.600 275.137 C 260.370 275.165,261.270 275.013,261.600 274.800 C 262.255 274.377,262.162 274.377,259.800 274.800 M353.027 277.633 C 352.383 279.803,352.258 283.428,352.767 285.200 C 352.929 285.766,353.042 284.551,353.027 282.400 C 353.010 280.004,353.205 278.115,353.554 277.287 C 353.858 276.565,354.006 275.872,353.881 275.748 C 353.756 275.623,353.372 276.472,353.027 277.633 M15.600 276.777 C 15.600 278.309,16.753 278.400,36.233 278.400 L 55.088 278.400 56.544 279.388 C 57.345 279.931,58.000 280.234,58.000 280.062 C 58.000 278.208,55.788 278.000,36.046 278.000 C 17.733 278.000,17.177 277.977,16.400 277.200 C 15.960 276.760,15.600 276.570,15.600 276.777 M383.800 281.777 C 383.800 284.058,383.932 285.716,384.094 285.462 C 384.459 284.888,384.442 279.247,384.072 278.315 C 383.922 277.938,383.800 279.496,383.800 281.777 M174.800 278.252 C 174.800 278.799,179.260 283.314,180.933 284.461 C 181.630 284.938,180.804 284.024,179.098 282.429 C 177.392 280.834,175.727 279.145,175.398 278.676 C 175.069 278.206,174.800 278.015,174.800 278.252 M60.200 282.362 C 61.476 283.759,66.000 287.785,66.000 287.524 C 66.000 287.439,64.425 285.948,62.500 284.210 C 60.575 282.472,59.540 281.640,60.200 282.362 M183.178 285.888 C 185.826 287.814,185.766 287.583,184.210 289.884 C 183.434 291.031,182.801 292.111,182.801 292.284 C 182.802 292.458,183.507 291.541,184.368 290.246 C 186.181 287.518,186.157 287.307,183.893 286.088 C 182.955 285.584,182.636 285.494,183.178 285.888 M353.215 286.716 C 353.105 290.500,362.316 298.331,365.895 297.496 C 366.305 297.400,365.931 297.197,365.000 297.011 C 360.743 296.158,356.465 292.785,354.458 288.699 C 353.782 287.324,353.223 286.432,353.215 286.716 M382.324 288.718 C 381.395 290.688,380.080 292.298,377.600 294.498 C 377.270 294.791,376.310 295.354,375.468 295.749 C 374.625 296.145,374.022 296.556,374.129 296.662 C 375.488 298.022,384.235 288.817,383.520 286.779 C 383.454 286.590,382.916 287.462,382.324 288.718 M66.524 287.877 C 66.860 288.421,70.000 290.955,70.000 290.682 C 70.000 290.580,69.153 289.803,68.119 288.955 C 67.084 288.107,66.366 287.622,66.524 287.877 M207.600 291.033 C 206.610 291.337,206.340 291.470,207.000 291.327 C 209.818 290.717,240.933 290.747,243.568 291.362 C 244.969 291.689,245.955 291.816,245.758 291.645 C 244.208 290.299,211.681 289.776,207.600 291.033 M70.405 291.073 C 70.408 291.253,70.993 291.798,71.705 292.283 C 72.417 292.769,73.495 293.549,74.100 294.017 C 74.705 294.484,75.200 294.788,75.200 294.692 C 75.200 294.596,74.120 293.670,72.800 292.632 C 71.480 291.595,70.402 290.894,70.405 291.073 M202.378 293.161 C 199.481 295.052,195.463 299.596,196.113 300.246 C 196.217 300.351,196.760 299.663,197.319 298.718 C 198.598 296.553,200.877 294.350,203.200 293.032 C 204.190 292.469,204.810 292.007,204.578 292.005 C 204.346 292.002,203.356 292.522,202.378 293.161 M248.208 293.159 C 250.101 294.245,252.517 296.554,254.109 298.800 L 254.818 299.800 254.239 298.600 C 253.184 296.416,248.148 291.994,246.728 292.004 C 246.438 292.006,247.104 292.526,248.208 293.159 M75.617 295.096 C 75.635 295.413,81.200 299.344,81.200 299.039 C 81.200 298.943,79.940 297.948,78.400 296.828 C 76.860 295.708,75.608 294.928,75.617 295.096 M180.214 298.610 C 179.852 299.858,179.630 301.266,179.723 301.739 C 179.872 302.502,179.898 302.487,179.950 301.600 C 179.982 301.050,180.277 299.715,180.605 298.634 C 180.933 297.553,181.128 296.594,181.038 296.504 C 180.948 296.414,180.577 297.362,180.214 298.610 M371.400 297.200 L 370.600 297.544 371.400 297.544 C 371.840 297.544,372.560 297.389,373.000 297.200 L 373.800 296.856 373.000 296.856 C 372.560 296.856,371.840 297.011,371.400 297.200 M367.500 297.882 C 367.995 297.978,368.805 297.978,369.300 297.882 C 369.795 297.787,369.390 297.709,368.400 297.709 C 367.410 297.709,367.005 297.787,367.500 297.882 M83.069 300.432 C 83.566 301.033,86.000 302.564,86.000 302.276 C 86.000 302.183,85.235 301.602,84.300 300.985 C 83.365 300.368,82.811 300.120,83.069 300.432 M179.293 304.000 C 179.293 304.770,179.375 305.085,179.476 304.700 C 179.576 304.315,179.576 303.685,179.476 303.300 C 179.375 302.915,179.293 303.230,179.293 304.000 M194.643 304.233 C 194.321 305.071,194.383 309.616,194.728 310.485 C 194.878 310.862,195.000 309.467,195.000 307.386 C 195.000 303.289,195.001 303.299,194.643 304.233 M88.800 304.114 C 88.800 304.355,91.906 306.400,92.271 306.400 C 92.430 306.400,92.389 306.249,92.180 306.064 C 91.552 305.508,88.800 303.921,88.800 304.114 M256.501 307.400 C 256.505 308.280,256.587 308.593,256.683 308.095 C 256.779 307.598,256.775 306.878,256.675 306.495 C 256.575 306.113,256.496 306.520,256.501 307.400 M92.800 306.564 C 92.800 306.797,97.519 309.600,97.910 309.600 C 98.251 309.600,97.118 308.844,94.700 307.456 C 93.655 306.857,92.800 306.455,92.800 306.564 M99.000 310.232 C 99.647 310.729,102.317 312.096,107.800 314.736 C 108.020 314.842,108.090 314.804,107.955 314.652 C 107.820 314.500,105.570 313.305,102.955 311.997 C 100.340 310.688,98.560 309.894,99.000 310.232 M179.293 310.800 C 179.293 311.570,179.375 311.885,179.476 311.500 C 179.576 311.115,179.576 310.485,179.476 310.100 C 179.375 309.715,179.293 310.030,179.293 310.800 M255.829 311.429 C 255.681 312.015,255.651 312.584,255.761 312.694 C 255.871 312.804,256.081 312.415,256.229 311.829 C 256.376 311.242,256.406 310.673,256.296 310.563 C 256.186 310.453,255.976 310.842,255.829 311.429 M109.738 315.647 C 110.584 316.093,111.368 316.365,111.481 316.252 C 111.676 316.057,108.980 314.780,108.451 314.818 C 108.313 314.827,108.892 315.200,109.738 315.647 M196.800 315.938 C 196.800 316.124,197.188 316.619,197.662 317.038 L 198.524 317.800 197.816 316.700 C 197.086 315.566,196.800 315.351,196.800 315.938 M251.405 318.928 C 250.088 320.282,249.548 321.004,250.205 320.534 C 251.345 319.718,252.408 318.632,253.568 317.100 C 254.508 315.858,253.854 316.411,251.405 318.928 M199.038 318.843 C 199.457 319.307,200.340 320.052,201.000 320.499 C 201.889 321.101,201.759 320.882,200.499 319.656 C 198.736 317.939,197.701 317.363,199.038 318.843 M181.200 318.713 C 181.200 318.996,181.655 320.124,182.211 321.222 C 183.524 323.813,185.501 323.584,160.800 323.704 L 139.400 323.807 161.276 323.904 C 174.049 323.960,183.246 323.849,183.377 323.637 C 183.500 323.438,183.061 322.133,182.401 320.737 C 181.741 319.342,181.200 318.431,181.200 318.713 M118.400 319.200 C 118.730 319.413,119.270 319.588,119.600 319.588 C 120.133 319.588,120.133 319.545,119.600 319.200 C 119.270 318.987,118.730 318.812,118.400 318.812 C 117.867 318.812,117.867 318.855,118.400 319.200 M123.400 320.800 C 123.840 320.989,124.470 321.144,124.800 321.144 C 125.178 321.144,125.104 321.017,124.600 320.800 C 124.160 320.611,123.530 320.456,123.200 320.456 C 122.822 320.456,122.896 320.583,123.400 320.800 M126.200 321.600 C 126.640 321.789,127.270 321.944,127.600 321.944 C 127.978 321.944,127.904 321.817,127.400 321.600 C 126.960 321.411,126.330 321.256,126.000 321.256 C 125.622 321.256,125.696 321.383,126.200 321.600 M247.200 322.000 C 246.430 322.422,245.944 322.774,246.120 322.783 C 246.544 322.805,248.800 321.632,248.800 321.390 C 248.800 321.128,248.777 321.137,247.200 322.000 M129.400 322.400 C 129.840 322.589,130.560 322.738,131.000 322.732 C 131.643 322.723,131.604 322.657,130.800 322.400 C 129.432 321.962,128.381 321.962,129.400 322.400 M133.800 323.186 C 134.557 323.525,137.921 323.764,137.567 323.454 C 137.475 323.374,136.410 323.200,135.200 323.068 C 133.763 322.912,133.278 322.952,133.800 323.186 M206.200 323.200 C 206.336 323.420,206.842 323.587,207.324 323.572 C 208.169 323.545,208.171 323.531,207.400 323.200 C 206.299 322.727,205.908 322.727,206.200 323.200 M243.800 323.200 L 243.000 323.544 243.800 323.566 C 244.240 323.578,244.870 323.413,245.200 323.200 C 245.995 322.686,244.996 322.686,243.800 323.200 M217.300 323.900 C 221.865 323.964,229.335 323.964,233.900 323.900 C 238.465 323.835,234.730 323.783,225.600 323.783 C 216.470 323.783,212.735 323.835,217.300 323.900 " stroke="none" fill="#7c6c6c" fill-rule="evenodd"></path></g></svg>