<svg id="svg" version="1.1" xmlns="http://www.w3.org/2000/svg" xmlns:xlink="http://www.w3.org/1999/xlink" width="400" height="400" viewBox="0, 0, 400,400"><g id="svgg"><path id="path0" d="M315.200 120.299 C 315.200 120.469,316.122 121.596,317.248 122.804 C 318.375 124.012,319.950 125.810,320.748 126.800 C 321.547 127.790,322.310 128.690,322.444 128.800 C 325.107 130.979,333.479 144.912,336.145 151.600 C 336.539 152.590,337.019 153.760,337.210 154.200 C 338.051 156.137,340.000 162.371,340.000 163.124 C 340.000 163.580,340.161 164.052,340.358 164.174 C 340.555 164.295,340.815 165.071,340.937 165.897 C 341.059 166.724,341.359 168.390,341.602 169.600 C 342.599 174.548,342.889 177.803,343.056 185.900 L 343.230 194.400 353.243 194.400 L 363.256 194.400 363.128 205.500 L 363.000 216.600 361.937 218.600 C 359.751 222.715,355.770 225.181,351.294 225.194 C 349.124 225.200,346.000 224.438,346.000 223.903 C 346.000 223.736,345.744 223.600,345.432 223.600 C 344.525 223.600,341.398 220.225,340.357 218.124 C 339.437 216.266,339.400 215.833,339.273 205.500 L 339.142 194.800 321.009 194.800 L 302.877 194.800 302.718 205.500 C 302.548 216.928,302.547 216.937,300.306 220.289 C 295.858 226.943,285.514 226.759,280.923 219.942 C 278.984 217.063,278.800 215.757,278.800 204.854 L 278.800 194.800 260.600 194.800 L 242.400 194.800 242.400 204.394 C 242.400 214.915,242.147 216.707,240.253 219.600 C 237.286 224.132,231.187 226.484,226.919 224.744 C 223.926 223.523,223.296 223.142,221.934 221.725 C 218.710 218.371,218.615 217.931,218.477 205.752 L 218.354 194.904 200.826 194.609 C 191.186 194.447,182.930 194.432,182.478 194.575 C 181.681 194.828,181.653 195.151,181.528 205.718 C 181.406 216.117,181.360 216.675,180.498 218.289 C 175.753 227.167,163.882 227.372,159.284 218.655 L 158.200 216.600 158.000 205.600 L 157.800 194.600 139.600 194.600 L 121.400 194.600 121.195 205.200 C 121.083 211.030,120.841 216.160,120.658 216.600 C 116.834 225.807,107.023 228.112,100.606 221.313 C 97.854 218.397,97.600 217.052,97.600 205.396 L 97.600 194.815 96.700 194.597 C 96.205 194.476,87.970 194.428,78.400 194.489 L 61.000 194.600 60.776 205.400 C 60.568 215.448,60.492 216.325,59.676 218.000 C 55.955 225.641,46.449 227.502,40.653 221.724 C 37.251 218.334,36.811 216.294,36.805 203.900 L 36.800 194.000 22.475 194.000 C 8.664 194.000,8.087 194.031,6.375 194.855 C 4.050 195.975,0.583 199.586,0.254 201.230 C -0.182 203.409,-0.042 261.438,0.402 262.605 C 0.944 264.030,5.472 268.400,6.407 268.400 C 6.817 268.400,7.236 268.535,7.338 268.700 C 7.550 269.043,365.165 268.968,365.508 268.625 C 365.632 268.501,366.413 268.400,367.243 268.400 C 368.073 268.400,368.864 268.220,369.000 268.000 C 369.136 267.780,369.777 267.600,370.424 267.600 C 371.071 267.600,371.600 267.420,371.600 267.200 C 371.600 266.980,371.924 266.800,372.320 266.800 C 373.214 266.800,375.193 265.906,375.197 265.500 C 375.199 265.335,375.560 265.200,376.000 265.200 C 376.440 265.200,376.800 265.020,376.800 264.800 C 376.800 264.580,377.160 264.400,377.600 264.400 C 378.040 264.400,378.400 264.220,378.400 264.000 C 378.400 263.780,378.720 263.600,379.112 263.600 C 379.503 263.600,380.083 263.240,380.400 262.800 C 380.717 262.360,381.257 262.000,381.600 262.000 C 381.943 262.000,382.483 261.640,382.800 261.200 C 383.117 260.760,383.615 260.400,383.906 260.400 C 384.198 260.400,384.851 259.995,385.358 259.500 C 385.865 259.005,387.072 257.860,388.040 256.955 C 390.110 255.019,391.600 253.198,391.600 252.601 C 391.600 252.368,391.960 251.917,392.400 251.600 C 392.840 251.283,393.200 250.743,393.200 250.400 C 393.200 250.057,393.560 249.517,394.000 249.200 C 394.440 248.883,394.800 248.303,394.800 247.912 C 394.800 247.520,394.980 247.200,395.200 247.200 C 395.420 247.200,395.600 246.840,395.600 246.400 C 395.600 245.960,395.780 245.600,396.000 245.600 C 396.220 245.600,396.400 245.240,396.400 244.800 C 396.400 244.360,396.580 244.000,396.800 244.000 C 397.020 244.000,397.200 243.640,397.200 243.200 C 397.200 242.760,397.380 242.400,397.600 242.400 C 397.820 242.400,398.000 241.961,398.000 241.424 C 398.000 240.887,398.180 240.336,398.400 240.200 C 398.620 240.064,398.800 239.549,398.800 239.056 C 398.800 238.563,399.025 237.935,399.300 237.660 C 400.033 236.927,400.033 146.744,399.300 146.500 C 399.025 146.408,398.800 145.898,398.800 145.367 C 398.800 144.835,398.620 144.400,398.400 144.400 C 398.180 144.400,398.000 143.860,398.000 143.200 C 398.000 142.540,397.820 142.000,397.600 142.000 C 397.380 142.000,397.200 141.655,397.200 141.233 C 397.200 140.812,397.065 140.407,396.900 140.333 C 396.735 140.260,396.167 139.345,395.637 138.300 C 395.108 137.255,394.523 136.400,394.337 136.400 C 394.152 136.400,394.000 136.165,394.000 135.878 C 394.000 135.404,392.830 133.922,390.309 131.200 C 388.870 129.647,385.078 126.400,384.703 126.400 C 384.518 126.400,383.980 126.040,383.508 125.600 C 383.036 125.160,382.413 124.800,382.125 124.800 C 381.836 124.800,381.600 124.620,381.600 124.400 C 381.600 124.180,381.240 124.000,380.800 124.000 C 380.360 124.000,380.000 123.820,380.000 123.600 C 380.000 123.380,379.640 123.200,379.200 123.200 C 378.760 123.200,378.400 123.020,378.400 122.800 C 378.400 122.580,377.860 122.400,377.200 122.400 C 376.540 122.400,376.000 122.220,376.000 122.000 C 376.000 121.780,375.550 121.600,375.000 121.600 C 374.450 121.600,374.000 121.420,374.000 121.200 C 374.000 120.980,373.381 120.800,372.624 120.800 C 371.867 120.800,371.139 120.625,371.007 120.411 C 370.717 119.942,315.200 119.831,315.200 120.299 " stroke="none" fill="#e8e9fb" fill-rule="evenodd"></path><path id="path1" d="M232.600 38.400 C 232.464 38.620,232.070 38.800,231.723 38.800 C 231.377 38.800,230.803 39.116,230.447 39.503 C 230.091 39.889,229.305 40.460,228.700 40.770 C 228.095 41.081,227.600 41.485,227.600 41.668 C 227.600 41.850,227.412 42.000,227.182 42.000 C 226.952 42.000,226.314 42.450,225.764 43.000 C 225.214 43.550,224.537 44.000,224.260 44.000 C 223.983 44.000,223.069 44.630,222.228 45.400 C 221.387 46.170,220.552 46.800,220.372 46.800 C 220.192 46.800,218.980 47.835,217.678 49.100 C 216.377 50.365,214.432 52.225,213.356 53.233 C 212.280 54.241,211.130 55.483,210.800 55.994 C 210.470 56.504,209.255 57.880,208.100 59.052 C 206.945 60.224,206.000 61.278,206.000 61.395 C 206.000 61.512,205.460 62.172,204.800 62.863 C 204.140 63.554,203.600 64.322,203.600 64.571 C 203.600 64.820,203.240 65.283,202.800 65.600 C 202.360 65.917,202.000 66.457,202.000 66.800 C 202.000 67.143,201.640 67.683,201.200 68.000 C 200.760 68.317,200.400 68.897,200.400 69.288 C 200.400 69.680,200.263 70.000,200.096 70.000 C 199.928 70.000,199.163 71.215,198.396 72.700 C 197.628 74.185,196.865 75.460,196.700 75.533 C 196.535 75.607,196.400 75.905,196.400 76.196 C 196.400 76.486,196.057 77.416,195.637 78.262 C 194.136 81.290,193.600 82.737,193.600 83.760 C 193.600 84.332,193.420 84.800,193.200 84.800 C 192.980 84.800,192.800 85.340,192.800 86.000 C 192.800 86.660,192.620 87.200,192.400 87.200 C 192.180 87.200,192.000 87.740,192.000 88.400 C 192.000 89.060,191.820 89.600,191.600 89.600 C 191.380 89.600,191.200 90.129,191.200 90.776 C 191.200 91.423,191.020 92.064,190.800 92.200 C 190.580 92.336,190.400 93.146,190.400 94.000 C 190.400 94.854,190.220 95.664,190.000 95.800 C 189.780 95.936,189.600 96.847,189.600 97.824 C 189.600 98.806,189.411 99.600,189.177 99.600 C 187.758 99.600,189.037 103.012,190.800 103.931 C 192.768 104.957,196.652 107.084,198.697 108.257 L 199.995 109.000 199.997 151.700 L 200.000 194.400 271.439 194.400 L 342.878 194.400 342.646 187.300 C 342.519 183.395,342.243 178.760,342.033 177.000 C 341.824 175.240,341.528 172.762,341.376 171.493 C 341.224 170.224,340.942 169.088,340.750 168.969 C 340.557 168.850,340.400 168.281,340.400 167.705 C 340.400 167.128,340.232 166.104,340.027 165.428 C 339.822 164.753,339.441 163.390,339.182 162.400 C 338.922 161.410,338.558 160.240,338.375 159.800 C 338.191 159.360,337.779 158.190,337.459 157.200 C 335.585 151.400,330.877 141.663,327.953 137.538 C 327.539 136.954,327.200 136.279,327.200 136.038 C 327.200 135.797,327.059 135.600,326.886 135.600 C 326.714 135.600,326.257 135.067,325.872 134.415 C 325.487 133.763,324.947 132.998,324.673 132.715 C 324.398 132.432,323.736 131.578,323.202 130.819 C 322.162 129.341,320.381 127.304,316.700 123.382 C 314.395 120.926,314.007 120.198,314.855 119.915 C 315.105 119.832,314.811 119.437,314.203 119.039 C 313.594 118.640,312.154 117.388,311.003 116.257 C 308.641 113.935,308.234 113.596,305.299 111.500 C 304.144 110.675,302.968 110.000,302.687 110.000 C 302.406 110.000,301.917 109.640,301.600 109.200 C 301.283 108.760,300.743 108.400,300.400 108.400 C 300.057 108.400,299.517 108.040,299.200 107.600 C 298.883 107.160,298.303 106.800,297.912 106.800 C 297.520 106.800,297.200 106.620,297.200 106.400 C 297.200 106.180,296.840 106.000,296.400 106.000 C 295.960 106.000,295.600 105.820,295.600 105.600 C 295.600 105.380,295.240 105.200,294.800 105.200 C 294.360 105.200,294.000 105.020,294.000 104.800 C 294.000 104.580,293.640 104.400,293.200 104.400 C 292.760 104.400,292.400 104.220,292.400 104.000 C 292.400 103.780,292.130 103.600,291.800 103.600 C 291.470 103.600,291.200 103.420,291.200 103.200 C 291.200 102.980,290.840 102.800,290.400 102.800 C 289.960 102.800,289.600 102.620,289.600 102.400 C 289.600 102.180,289.240 102.000,288.800 102.000 C 288.360 102.000,288.000 101.820,288.000 101.600 C 288.000 101.380,287.651 101.200,287.224 101.200 C 286.797 101.200,286.336 101.020,286.200 100.800 C 286.064 100.580,285.528 100.400,285.010 100.400 C 284.491 100.400,284.007 100.265,283.933 100.099 C 283.751 99.688,278.697 98.000,277.647 98.000 C 277.181 98.000,276.800 97.820,276.800 97.600 C 276.800 97.380,276.260 97.200,275.600 97.200 C 274.940 97.200,274.400 97.020,274.400 96.800 C 274.400 96.580,273.716 96.400,272.880 96.400 C 272.044 96.400,271.189 96.238,270.980 96.041 C 270.562 95.646,268.336 95.269,264.500 94.944 C 263.125 94.827,262.000 94.562,262.000 94.355 C 262.000 93.511,233.527 94.364,232.620 95.235 C 232.411 95.436,231.477 95.600,230.544 95.600 C 229.611 95.600,228.736 95.780,228.600 96.000 C 228.464 96.220,227.733 96.400,226.976 96.400 C 226.219 96.400,225.600 96.580,225.600 96.800 C 225.600 97.020,225.060 97.200,224.400 97.200 C 223.740 97.200,223.200 97.343,223.200 97.518 C 223.200 97.693,222.525 97.881,221.700 97.936 C 220.875 97.990,220.140 98.207,220.067 98.418 C 219.993 98.628,219.509 98.800,218.990 98.800 C 218.472 98.800,217.936 98.980,217.800 99.200 C 217.664 99.420,217.203 99.600,216.776 99.600 C 216.349 99.600,216.000 99.780,216.000 100.000 C 216.000 100.220,215.640 100.400,215.200 100.400 C 214.760 100.400,214.400 100.220,214.400 100.000 C 214.400 99.780,214.580 99.600,214.800 99.600 C 215.020 99.600,215.200 98.880,215.200 98.000 C 215.200 97.120,215.380 96.400,215.600 96.400 C 215.820 96.400,216.000 95.860,216.000 95.200 C 216.000 94.540,216.180 94.000,216.400 94.000 C 216.620 94.000,216.800 93.728,216.800 93.395 C 216.800 93.062,216.960 92.477,217.156 92.095 C 217.352 91.713,217.937 90.500,218.456 89.400 C 218.975 88.300,219.535 87.340,219.700 87.267 C 219.865 87.193,220.000 86.788,220.000 86.367 C 220.000 85.945,220.180 85.600,220.400 85.600 C 220.620 85.600,220.800 85.240,220.800 84.800 C 220.800 84.360,220.959 84.000,221.153 84.000 C 221.348 84.000,221.607 83.685,221.729 83.300 C 222.058 82.263,223.277 80.365,224.300 79.301 C 224.795 78.785,225.205 78.057,225.212 77.682 C 225.219 77.307,225.774 76.550,226.446 76.000 C 227.118 75.450,227.967 74.662,228.334 74.248 C 228.700 73.835,229.615 72.935,230.367 72.248 C 231.119 71.562,232.871 69.875,234.260 68.500 C 235.649 67.125,236.969 66.000,237.193 66.000 C 237.417 66.000,237.600 65.820,237.600 65.600 C 237.600 65.380,237.830 65.200,238.112 65.200 C 238.393 65.200,238.883 64.840,239.200 64.400 C 239.517 63.960,239.967 63.600,240.200 63.600 C 240.433 63.600,240.883 63.240,241.200 62.800 C 241.517 62.360,241.980 62.000,242.229 62.000 C 242.478 62.000,243.246 61.460,243.937 60.800 C 244.628 60.140,245.434 59.600,245.729 59.600 C 246.024 59.600,246.506 59.150,246.800 58.600 C 247.094 58.050,247.485 57.600,247.668 57.600 C 247.850 57.600,248.000 57.330,248.000 57.000 C 248.000 56.670,248.180 56.400,248.400 56.400 C 248.620 56.400,248.800 56.040,248.800 55.600 C 248.800 55.160,248.980 54.800,249.200 54.800 C 249.444 54.800,249.600 52.933,249.600 50.000 C 249.600 47.067,249.444 45.200,249.200 45.200 C 248.980 45.200,248.800 44.906,248.800 44.547 C 248.800 44.188,248.485 43.600,248.100 43.241 C 247.715 42.882,247.208 42.243,246.973 41.821 C 246.739 41.399,246.201 40.861,245.779 40.627 C 245.357 40.392,244.718 39.885,244.359 39.500 C 244.000 39.115,243.412 38.800,243.053 38.800 C 242.694 38.800,242.400 38.620,242.400 38.400 C 242.400 38.156,240.541 38.000,237.624 38.000 C 234.871 38.000,232.742 38.169,232.600 38.400 M200.000 312.751 C 200.000 358.810,200.079 356.849,198.200 357.311 C 197.416 357.503,197.417 357.508,198.220 357.554 C 198.671 357.579,199.256 357.384,199.520 357.120 C 199.893 356.747,200.107 356.747,200.480 357.120 C 200.744 357.384,201.554 357.600,202.280 357.600 C 203.006 357.600,203.600 357.761,203.600 357.958 C 203.600 358.155,205.040 358.444,206.800 358.600 C 208.560 358.756,210.000 359.045,210.000 359.242 C 210.000 359.439,210.795 359.600,211.767 359.600 C 212.805 359.600,213.617 359.806,213.736 360.100 C 213.889 360.476,214.044 360.452,214.363 360.000 C 214.651 359.593,214.790 359.561,214.794 359.900 C 214.798 360.225,215.430 360.400,216.600 360.400 C 217.590 360.400,218.400 360.580,218.400 360.800 C 218.400 361.031,219.659 361.200,221.376 361.200 C 223.013 361.200,224.464 361.380,224.600 361.600 C 224.755 361.851,228.871 362.000,235.624 362.000 C 242.541 362.000,246.400 361.857,246.400 361.600 C 246.400 361.380,247.300 361.200,248.400 361.200 C 249.500 361.200,250.400 361.020,250.400 360.800 C 250.400 360.580,250.940 360.400,251.600 360.400 C 252.260 360.400,252.800 360.220,252.800 360.000 C 252.800 359.780,253.340 359.600,254.000 359.600 C 254.660 359.600,255.200 359.440,255.200 359.245 C 255.200 359.050,256.010 358.769,257.000 358.621 C 257.990 358.472,258.800 358.182,258.800 357.975 C 258.800 357.769,259.160 357.600,259.600 357.600 C 260.040 357.600,260.400 357.420,260.400 357.200 C 260.400 356.980,260.634 356.800,260.920 356.800 C 261.656 356.800,263.593 355.859,263.597 355.500 C 263.599 355.335,263.960 355.200,264.400 355.200 C 264.840 355.200,265.200 355.020,265.200 354.800 C 265.200 354.580,265.560 354.400,266.000 354.400 C 266.440 354.400,266.800 354.220,266.800 354.000 C 266.800 353.780,267.036 353.600,267.325 353.600 C 267.613 353.600,268.198 353.285,268.625 352.900 C 269.051 352.515,269.895 351.945,270.500 351.632 C 271.105 351.320,271.600 350.915,271.600 350.732 C 271.600 350.550,271.881 350.400,272.224 350.400 C 272.567 350.400,272.736 350.220,272.600 350.000 C 272.464 349.780,272.684 349.600,273.088 349.600 C 273.493 349.600,274.083 349.240,274.400 348.800 C 274.717 348.360,275.129 348.000,275.314 348.000 C 275.500 348.000,276.529 347.100,277.600 346.000 C 278.671 344.900,279.745 344.000,279.985 344.000 C 280.466 344.000,281.573 343.009,286.506 338.165 C 290.316 334.425,291.600 332.964,291.600 332.371 C 291.600 332.138,292.500 331.071,293.600 330.000 C 294.700 328.929,295.600 327.842,295.600 327.586 C 295.600 327.330,296.140 326.617,296.800 326.000 C 297.460 325.383,298.000 324.753,298.000 324.600 C 298.000 324.447,298.540 323.817,299.200 323.200 C 299.860 322.583,300.400 321.880,300.400 321.636 C 300.400 321.392,300.940 320.628,301.600 319.937 C 302.260 319.246,302.800 318.478,302.800 318.229 C 302.800 317.980,303.160 317.517,303.600 317.200 C 304.040 316.883,304.400 316.343,304.400 316.000 C 304.400 315.657,304.760 315.117,305.200 314.800 C 305.640 314.483,306.000 313.903,306.000 313.512 C 306.000 313.120,306.158 312.800,306.351 312.800 C 306.545 312.800,306.927 312.260,307.200 311.600 C 307.473 310.940,307.810 310.398,307.949 310.396 C 308.087 310.394,308.555 309.584,308.990 308.596 C 309.424 307.608,309.919 306.800,310.090 306.800 C 310.260 306.800,310.400 306.480,310.400 306.088 C 310.400 305.697,310.760 305.117,311.200 304.800 C 311.640 304.483,312.000 303.903,312.000 303.512 C 312.000 303.120,312.180 302.800,312.400 302.800 C 312.620 302.800,312.800 302.440,312.800 302.000 C 312.800 301.560,312.980 301.200,313.200 301.200 C 313.420 301.200,313.600 300.922,313.600 300.583 C 313.600 300.244,313.960 299.580,314.400 299.108 C 314.840 298.636,315.200 298.013,315.200 297.725 C 315.200 297.436,315.380 297.200,315.600 297.200 C 315.820 297.200,316.000 296.840,316.000 296.400 C 316.000 295.960,316.180 295.600,316.400 295.600 C 316.620 295.600,316.800 295.240,316.800 294.800 C 316.800 294.360,316.980 294.000,317.200 294.000 C 317.420 294.000,317.600 293.655,317.600 293.233 C 317.600 292.812,317.735 292.407,317.900 292.333 C 318.332 292.141,320.000 288.828,320.000 288.162 C 320.000 287.853,320.180 287.600,320.400 287.600 C 320.620 287.600,320.800 287.150,320.800 286.600 C 320.800 286.050,320.980 285.600,321.200 285.600 C 321.420 285.600,321.600 285.240,321.600 284.800 C 321.600 284.360,321.780 284.000,322.000 284.000 C 322.220 284.000,322.400 283.640,322.400 283.200 C 322.400 282.760,322.547 282.400,322.728 282.400 C 322.908 282.400,323.300 281.500,323.600 280.400 C 323.900 279.300,324.286 278.400,324.459 278.400 C 324.631 278.400,324.894 277.485,325.042 276.367 C 325.219 275.031,325.428 274.517,325.650 274.867 C 325.881 275.232,325.990 275.054,325.994 274.300 C 325.997 273.695,326.180 273.200,326.400 273.200 C 326.620 273.200,326.800 272.750,326.800 272.200 C 326.800 271.650,326.980 271.200,327.200 271.200 C 327.420 271.200,327.600 270.750,327.600 270.200 L 327.600 269.200 263.800 269.200 L 200.000 269.200 200.000 312.751 M109.214 333.420 C 109.221 333.629,110.425 334.970,111.888 336.400 L 114.548 339.000 112.201 336.400 C 110.910 334.970,109.707 333.629,109.527 333.420 C 109.320 333.180,109.205 333.180,109.214 333.420 M114.435 339.300 C 114.528 339.355,115.233 339.940,116.002 340.600 L 117.400 341.800 116.225 340.500 C 115.579 339.785,114.874 339.200,114.658 339.200 C 114.443 339.200,114.343 339.245,114.435 339.300 " stroke="none" fill="#fa3004" fill-rule="evenodd"></path><path id="path2" d="M138.800 94.424 C 138.030 94.589,136.680 94.818,135.800 94.932 C 134.920 95.047,133.120 95.344,131.800 95.594 C 130.480 95.843,128.721 96.151,127.890 96.277 C 127.060 96.404,126.284 96.664,126.167 96.854 C 126.049 97.044,125.434 97.200,124.800 97.200 C 124.166 97.200,123.536 97.380,123.400 97.600 C 123.264 97.820,122.724 98.000,122.200 98.000 C 121.676 98.000,121.136 98.180,121.000 98.400 C 120.864 98.620,120.395 98.800,119.957 98.800 C 119.519 98.800,118.416 99.160,117.506 99.600 C 116.595 100.040,115.524 100.400,115.125 100.400 C 114.726 100.400,114.400 100.560,114.400 100.756 C 114.400 100.952,113.590 101.351,112.600 101.643 C 111.610 101.935,110.800 102.315,110.800 102.487 C 110.800 102.659,110.440 102.800,110.000 102.800 C 109.560 102.800,109.200 102.980,109.200 103.200 C 109.200 103.420,108.840 103.600,108.400 103.600 C 107.960 103.600,107.600 103.780,107.600 104.000 C 107.600 104.220,107.255 104.400,106.833 104.400 C 106.412 104.400,106.007 104.535,105.933 104.700 C 105.860 104.865,104.945 105.433,103.900 105.963 C 102.855 106.492,102.000 107.077,102.000 107.263 C 102.000 107.448,101.813 107.600,101.585 107.600 C 101.038 107.600,94.683 111.883,91.319 114.519 C 87.659 117.386,78.369 126.785,76.412 129.600 C 75.876 130.370,75.328 131.090,75.193 131.200 C 75.058 131.310,74.341 132.300,73.600 133.400 C 72.859 134.500,72.151 135.490,72.026 135.600 C 71.640 135.941,70.362 138.163,70.129 138.900 C 70.007 139.285,69.748 139.600,69.553 139.600 C 69.359 139.600,69.200 139.836,69.200 140.125 C 69.200 140.413,68.840 141.036,68.400 141.508 C 67.960 141.980,67.600 142.644,67.600 142.983 C 67.600 143.322,67.420 143.600,67.200 143.600 C 66.980 143.600,66.800 143.924,66.800 144.320 C 66.800 144.716,66.637 145.211,66.438 145.420 C 65.890 145.995,64.400 148.770,64.400 149.217 C 64.400 149.432,64.056 150.372,63.636 151.304 C 62.341 154.177,60.000 161.193,60.000 162.199 C 60.000 162.724,59.820 163.264,59.600 163.400 C 59.380 163.536,59.200 164.267,59.200 165.024 C 59.200 165.781,59.020 166.400,58.800 166.400 C 58.580 166.400,58.400 167.289,58.400 168.376 C 58.400 169.463,58.220 170.464,58.000 170.600 C 57.780 170.736,57.600 171.917,57.600 173.224 C 57.600 174.541,57.422 175.600,57.200 175.600 C 56.945 175.600,56.800 179.000,56.800 185.000 L 56.800 194.400 128.400 194.400 L 200.000 194.400 200.000 151.664 L 200.000 108.928 199.100 108.478 C 198.605 108.231,197.210 107.459,196.000 106.764 C 194.790 106.068,192.768 104.972,191.508 104.328 C 190.247 103.683,189.077 102.941,188.908 102.678 C 188.492 102.033,185.292 100.400,184.442 100.400 C 184.067 100.400,183.589 100.247,183.380 100.060 C 182.897 99.628,179.827 98.410,178.000 97.926 C 177.230 97.722,175.970 97.382,175.200 97.172 C 172.259 96.367,169.743 95.850,163.717 94.817 C 159.184 94.039,141.874 93.766,138.800 94.424 M314.400 120.496 C 314.400 120.736,315.435 122.035,316.700 123.382 C 320.381 127.304,322.162 129.341,323.202 130.819 C 323.736 131.578,324.398 132.432,324.673 132.715 C 324.947 132.998,325.487 133.763,325.872 134.415 C 326.257 135.067,326.714 135.600,326.886 135.600 C 327.059 135.600,327.200 135.797,327.200 136.038 C 327.200 136.279,327.539 136.954,327.953 137.538 C 330.877 141.663,335.585 151.400,337.459 157.200 C 337.779 158.190,338.191 159.360,338.375 159.800 C 338.558 160.240,338.922 161.410,339.182 162.400 C 339.441 163.390,339.822 164.753,340.027 165.428 C 340.232 166.104,340.400 167.103,340.400 167.648 C 340.400 168.194,340.563 168.811,340.761 169.020 C 340.960 169.229,341.227 170.300,341.355 171.400 C 341.483 172.500,341.784 175.020,342.023 177.000 C 342.262 178.980,342.592 183.750,342.755 187.600 L 343.051 194.600 343.121 188.800 C 343.210 181.522,342.098 171.324,340.625 165.900 C 340.281 164.635,339.747 162.655,339.437 161.500 C 338.840 159.271,338.528 158.292,338.002 157.000 C 337.823 156.560,337.083 154.670,336.357 152.800 C 332.963 144.051,323.749 129.205,319.226 125.200 C 319.102 125.089,317.965 123.888,316.700 122.529 C 315.435 121.171,314.400 120.256,314.400 120.496 M204.900 194.699 C 207.485 194.768,211.715 194.768,214.300 194.699 C 216.885 194.629,214.770 194.572,209.600 194.572 C 204.430 194.572,202.315 194.629,204.900 194.699 M250.900 194.700 C 256.125 194.763,264.675 194.763,269.900 194.700 C 275.125 194.636,270.850 194.585,260.400 194.585 C 249.950 194.585,245.675 194.636,250.900 194.700 M311.528 194.700 C 316.878 194.763,325.518 194.763,330.728 194.700 C 335.937 194.636,331.560 194.585,321.000 194.585 C 310.440 194.585,306.177 194.637,311.528 194.700 M72.524 269.453 C 72.387 269.812,72.482 270.440,72.737 270.848 C 72.992 271.255,73.200 271.862,73.200 272.195 C 73.200 272.528,73.380 272.800,73.600 272.800 C 73.820 272.800,74.000 273.239,74.000 273.776 C 74.000 274.313,74.180 274.864,74.400 275.000 C 74.620 275.136,74.800 275.597,74.800 276.024 C 74.800 276.451,74.980 276.800,75.200 276.800 C 75.420 276.800,75.600 277.160,75.600 277.600 C 75.600 278.040,75.780 278.400,76.000 278.400 C 76.220 278.400,76.400 278.749,76.400 279.176 C 76.400 279.603,76.580 280.064,76.800 280.200 C 77.020 280.336,77.200 280.806,77.200 281.244 C 77.200 281.683,77.551 282.707,77.980 283.521 C 78.409 284.334,80.218 287.970,81.999 291.600 C 85.816 299.377,87.290 302.151,87.700 302.333 C 87.865 302.407,88.000 302.722,88.000 303.033 C 88.000 303.345,88.146 303.600,88.325 303.600 C 88.504 303.600,88.898 304.230,89.200 305.000 C 89.502 305.770,89.896 306.400,90.075 306.400 C 90.254 306.400,90.400 306.636,90.400 306.925 C 90.400 307.213,90.760 307.836,91.200 308.308 C 91.640 308.780,92.000 309.404,92.000 309.695 C 92.000 309.986,92.360 310.483,92.800 310.800 C 93.240 311.117,93.600 311.614,93.600 311.905 C 93.600 312.195,93.944 312.920,94.365 313.516 C 95.096 314.552,96.952 317.387,97.800 318.763 C 98.554 319.988,100.591 322.600,101.296 323.247 C 101.683 323.603,102.000 324.006,102.000 324.142 C 102.000 324.387,102.916 325.580,103.900 326.616 C 104.175 326.906,104.400 327.244,104.400 327.367 C 104.400 327.648,105.443 328.931,107.000 330.565 C 107.660 331.258,109.214 332.989,110.453 334.412 C 111.692 335.836,113.739 337.990,115.002 339.200 C 116.266 340.410,117.669 341.805,118.122 342.300 C 118.574 342.795,119.088 343.200,119.264 343.200 C 119.440 343.200,120.713 344.279,122.092 345.598 C 123.471 346.917,124.825 347.997,125.100 347.998 C 125.375 347.999,125.600 348.138,125.600 348.306 C 125.600 348.474,126.320 349.056,127.200 349.600 C 128.080 350.144,128.800 350.726,128.800 350.894 C 128.800 351.062,129.036 351.200,129.325 351.200 C 129.613 351.200,130.229 351.554,130.693 351.986 C 131.158 352.419,132.677 353.378,134.069 354.118 C 135.461 354.858,136.960 355.664,137.400 355.910 C 139.621 357.151,142.541 358.390,143.799 358.626 C 144.575 358.772,145.307 359.050,145.428 359.245 C 145.549 359.440,146.087 359.600,146.624 359.600 C 147.161 359.600,147.600 359.780,147.600 360.000 C 147.600 360.220,148.230 360.400,149.000 360.400 C 149.770 360.400,150.400 360.580,150.400 360.800 C 150.400 361.020,151.199 361.200,152.176 361.200 C 153.153 361.200,154.064 361.380,154.200 361.600 C 154.355 361.850,158.337 362.000,164.824 362.000 C 171.475 362.000,175.200 361.856,175.200 361.600 C 175.200 361.371,176.400 361.200,178.000 361.200 C 179.600 361.200,180.800 361.029,180.800 360.800 C 180.800 360.574,181.933 360.400,183.400 360.400 C 184.867 360.400,186.000 360.226,186.000 360.000 C 186.000 359.780,186.722 359.600,187.605 359.600 C 188.488 359.600,189.523 359.438,189.905 359.239 C 190.287 359.040,191.680 358.699,193.000 358.479 C 196.021 357.977,198.850 357.200,199.500 356.692 C 199.895 356.384,200.000 347.117,200.000 312.752 L 200.000 269.202 263.900 269.100 C 299.045 269.044,270.419 268.953,200.287 268.899 C 82.657 268.808,72.755 268.851,72.524 269.453 " stroke="none" fill="#fc643c" fill-rule="evenodd"></path><path id="path3" d="M37.605 204.900 L 37.610 215.800 38.766 218.079 C 40.463 221.425,43.522 224.000,45.799 224.000 C 46.324 224.000,46.874 224.197,47.023 224.438 C 47.285 224.861,48.463 224.791,51.600 224.167 C 53.963 223.697,58.398 220.262,58.400 218.900 C 58.400 218.625,58.580 218.400,58.800 218.400 C 59.020 218.400,59.200 217.950,59.200 217.400 C 59.200 216.850,59.380 216.400,59.600 216.400 C 59.857 216.400,60.000 212.486,60.000 205.457 L 60.000 194.514 57.541 194.257 C 56.189 194.116,51.149 194.000,46.341 194.000 L 37.600 194.000 37.605 204.900 M98.006 204.700 C 98.012 215.216,98.116 216.095,99.704 219.060 C 100.464 220.479,103.466 223.200,104.272 223.200 C 104.562 223.200,104.800 223.360,104.800 223.556 C 104.800 223.752,105.385 224.009,106.100 224.128 C 106.815 224.246,107.910 224.470,108.533 224.624 C 110.627 225.145,115.010 223.419,117.066 221.265 C 120.121 218.064,120.170 217.835,120.397 205.800 C 120.509 199.860,120.544 194.865,120.476 194.700 C 120.408 194.535,115.323 194.400,109.176 194.400 L 98.000 194.400 98.006 204.700 M158.800 205.570 C 158.800 212.594,158.949 216.845,159.200 217.000 C 159.420 217.136,159.600 217.597,159.600 218.024 C 159.600 218.451,159.780 218.800,160.000 218.800 C 160.220 218.800,160.400 219.008,160.400 219.262 C 160.400 220.582,164.147 223.214,167.628 224.339 C 171.594 225.620,177.216 222.993,179.481 218.800 C 181.102 215.799,181.242 214.571,181.119 204.400 L 181.000 194.600 169.900 194.494 L 158.800 194.387 158.800 205.570 M218.882 205.300 C 218.995 215.717,219.041 216.285,219.918 218.118 C 221.741 221.925,226.132 224.800,230.124 224.800 C 234.115 224.800,238.224 222.340,240.200 218.769 L 241.400 216.600 241.523 205.500 L 241.646 194.400 230.205 194.400 L 218.764 194.400 218.882 205.300 M279.276 205.094 C 279.394 215.282,279.444 215.897,280.320 217.800 C 284.076 225.960,294.463 227.171,299.871 220.080 C 301.984 217.310,302.174 216.058,302.188 204.800 L 302.200 194.600 290.676 194.494 L 279.152 194.388 279.276 205.094 M340.000 205.131 C 340.000 215.758,340.019 216.019,340.969 218.088 C 344.421 225.614,354.120 227.035,359.721 220.835 C 362.324 217.953,362.400 217.521,362.400 205.551 L 362.400 194.800 353.659 194.800 C 348.851 194.800,343.811 194.684,342.459 194.543 L 340.000 194.286 340.000 205.131 " stroke="none" fill="#706c74" fill-rule="evenodd"></path><path id="path4" d="M314.800 120.264 C 314.800 120.482,315.295 121.097,315.900 121.630 L 317.000 122.600 316.000 121.400 C 315.450 120.740,314.955 120.125,314.900 120.033 C 314.845 119.942,314.800 120.045,314.800 120.264 M327.949 136.600 C 328.165 137.040,328.634 137.760,328.993 138.200 L 329.644 139.000 329.251 138.200 C 329.035 137.760,328.566 137.040,328.207 136.600 L 327.556 135.800 327.949 136.600 M341.858 172.400 C 342.175 174.125,342.402 174.451,342.394 173.167 C 342.391 172.635,342.211 171.930,341.994 171.600 C 341.718 171.178,341.677 171.415,341.858 172.400 M342.687 178.866 C 342.929 181.797,343.132 182.195,343.162 179.800 C 343.176 178.700,343.035 177.560,342.849 177.266 C 342.651 176.954,342.584 177.618,342.687 178.866 M36.805 203.900 C 36.811 216.294,37.251 218.334,40.653 221.724 C 46.449 227.502,55.963 225.639,59.674 218.000 C 60.742 215.801,61.491 194.398,60.500 194.399 C 60.112 194.400,60.000 196.867,60.000 205.400 C 60.000 212.467,59.857 216.400,59.600 216.400 C 59.380 216.400,59.200 216.850,59.200 217.400 C 59.200 217.950,59.020 218.400,58.800 218.400 C 58.580 218.400,58.400 218.625,58.400 218.900 C 58.398 220.262,53.963 223.697,51.600 224.167 C 48.463 224.791,47.285 224.861,47.023 224.438 C 46.874 224.197,46.324 224.000,45.799 224.000 C 43.522 224.000,40.463 221.425,38.766 218.079 L 37.610 215.800 37.605 204.900 C 37.602 197.903,37.457 194.000,37.200 194.000 C 36.944 194.000,36.802 197.564,36.805 203.900 M97.100 194.665 C 97.482 194.819,97.600 197.352,97.600 205.421 C 97.600 217.049,97.855 218.398,100.606 221.313 C 107.021 228.110,116.867 225.796,120.655 216.600 C 121.212 215.248,121.478 194.399,120.938 194.400 C 120.604 194.400,120.464 197.115,120.429 204.300 C 120.367 217.091,120.188 217.993,117.066 221.265 C 115.010 223.419,110.627 225.145,108.533 224.624 C 107.910 224.470,106.815 224.246,106.100 224.128 C 105.385 224.009,104.800 223.752,104.800 223.556 C 104.800 223.360,104.562 223.200,104.272 223.200 C 103.466 223.200,100.464 220.479,99.704 219.060 C 98.116 216.095,98.012 215.216,98.006 204.700 C 98.000 195.147,97.949 194.402,97.300 194.432 C 96.882 194.450,96.801 194.544,97.100 194.665 M158.000 205.499 L 158.200 216.600 159.284 218.655 C 163.882 227.372,175.753 227.167,180.498 218.289 C 181.359 216.676,181.406 216.112,181.530 205.805 C 181.623 198.096,181.794 194.925,182.130 194.711 C 182.428 194.522,182.307 194.410,181.800 194.406 C 181.018 194.400,181.003 194.624,181.122 204.300 C 181.249 214.584,181.114 215.777,179.481 218.800 C 177.216 222.993,171.594 225.620,167.628 224.339 C 164.147 223.214,160.400 220.582,160.400 219.262 C 160.400 219.008,160.220 218.800,160.000 218.800 C 159.780 218.800,159.600 218.451,159.600 218.024 C 159.600 217.597,159.420 217.136,159.200 217.000 C 158.949 216.845,158.800 212.596,158.800 205.576 C 158.800 196.902,158.688 194.400,158.300 194.399 C 157.907 194.399,157.843 196.779,158.000 205.499 M352.700 194.700 L 362.400 194.814 362.400 205.558 C 362.400 217.520,362.324 217.954,359.721 220.835 C 354.120 227.035,344.421 225.614,340.969 218.088 C 340.021 216.023,340.000 215.743,340.000 205.388 C 340.000 198.118,339.866 194.800,339.571 194.800 C 338.574 194.800,339.288 215.964,340.357 218.124 C 341.398 220.225,344.525 223.600,345.432 223.600 C 345.744 223.600,346.000 223.736,346.000 223.903 C 346.000 224.438,349.124 225.200,351.294 225.194 C 355.770 225.181,359.751 222.715,361.937 218.600 L 363.000 216.600 363.128 205.500 L 363.256 194.400 353.128 194.493 L 343.000 194.585 352.700 194.700 M218.572 205.600 C 218.603 217.969,218.681 218.340,221.934 221.725 C 223.296 223.142,223.926 223.523,226.919 224.744 C 232.527 227.031,240.242 222.478,241.916 215.894 C 242.504 213.579,242.600 194.800,242.024 194.800 C 241.800 194.800,241.597 199.241,241.524 205.700 L 241.400 216.600 240.200 218.769 C 237.685 223.314,231.431 226.021,227.319 224.344 C 219.746 221.256,219.075 219.769,218.772 205.400 L 218.545 194.600 218.572 205.600 M278.882 204.754 C 278.793 215.803,278.957 217.023,280.923 219.942 C 285.514 226.759,295.858 226.943,300.306 220.289 C 302.565 216.909,302.554 216.980,302.625 205.400 L 302.691 194.600 302.399 205.000 C 302.083 216.237,301.880 217.447,299.866 220.087 C 294.463 227.171,284.074 225.956,280.320 217.800 C 279.455 215.920,279.387 215.167,279.182 205.200 L 278.963 194.600 278.882 204.754 " stroke="none" fill="#9c9ca8" fill-rule="evenodd"></path></g></svg>