<svg id="svg" version="1.1" xmlns="http://www.w3.org/2000/svg" xmlns:xlink="http://www.w3.org/1999/xlink" width="400" height="400" viewBox="0, 0, 400,400"><g id="svgg"><path id="path0" d="M178.900 0.274 C 176.865 0.360,175.200 0.603,175.200 0.815 C 175.200 1.027,173.951 1.200,172.424 1.200 C 170.897 1.200,169.536 1.380,169.400 1.600 C 169.264 1.820,168.184 2.000,167.000 2.000 C 165.816 2.000,164.736 2.180,164.600 2.400 C 164.464 2.620,163.564 2.800,162.600 2.800 C 161.636 2.800,160.736 2.980,160.600 3.200 C 160.464 3.420,159.553 3.600,158.576 3.600 C 157.599 3.600,156.800 3.780,156.800 4.000 C 156.800 4.220,156.001 4.400,155.024 4.400 C 154.047 4.400,153.136 4.580,153.000 4.800 C 152.864 5.020,152.133 5.200,151.376 5.200 C 150.619 5.200,150.000 5.380,150.000 5.600 C 150.000 5.820,149.381 6.000,148.624 6.000 C 147.867 6.000,147.136 6.180,147.000 6.400 C 146.864 6.620,146.223 6.800,145.576 6.800 C 144.929 6.800,144.400 6.980,144.400 7.200 C 144.400 7.420,143.770 7.600,143.000 7.600 C 142.230 7.600,141.600 7.780,141.600 8.000 C 141.600 8.220,140.970 8.400,140.200 8.400 C 139.430 8.400,138.800 8.580,138.800 8.800 C 138.800 9.020,138.361 9.200,137.824 9.200 C 137.287 9.200,136.751 9.356,136.632 9.547 C 136.514 9.739,135.710 10.008,134.844 10.147 C 133.979 10.285,132.400 10.789,131.335 11.266 C 130.271 11.744,129.310 12.158,129.200 12.187 C 128.290 12.425,126.829 12.924,126.000 13.279 C 125.055 13.683,124.423 13.934,122.300 14.743 C 121.805 14.932,120.618 15.472,119.662 15.943 C 118.706 16.414,117.671 16.800,117.362 16.800 C 117.053 16.800,116.800 16.980,116.800 17.200 C 116.800 17.420,116.555 17.600,116.255 17.600 C 115.956 17.600,114.311 18.320,112.600 19.200 C 110.889 20.080,109.327 20.800,109.128 20.800 C 108.929 20.800,108.380 21.160,107.908 21.600 C 107.436 22.040,106.813 22.400,106.525 22.400 C 106.236 22.400,106.000 22.580,106.000 22.800 C 106.000 23.020,105.640 23.200,105.200 23.200 C 104.760 23.200,104.400 23.380,104.400 23.600 C 104.400 23.820,104.040 24.000,103.600 24.000 C 103.160 24.000,102.800 24.180,102.800 24.400 C 102.800 24.620,102.440 24.800,102.000 24.800 C 101.560 24.800,101.200 24.980,101.200 25.200 C 101.200 25.420,100.964 25.600,100.675 25.600 C 100.387 25.600,99.802 25.916,99.375 26.303 C 98.949 26.689,98.093 27.231,97.474 27.506 C 96.854 27.782,94.831 28.995,92.977 30.203 C 91.124 31.412,89.426 32.400,89.204 32.400 C 88.982 32.400,88.800 32.580,88.800 32.800 C 88.800 33.020,88.575 33.200,88.300 33.200 C 88.025 33.201,87.260 33.666,86.600 34.235 C 85.940 34.804,84.905 35.563,84.300 35.921 C 83.695 36.279,83.200 36.714,83.200 36.886 C 83.200 37.059,82.930 37.200,82.600 37.200 C 82.270 37.200,82.000 37.380,82.000 37.600 C 82.000 37.820,81.719 38.000,81.376 38.000 C 81.033 38.000,80.864 38.180,81.000 38.400 C 81.136 38.620,80.866 38.800,80.400 38.800 C 79.934 38.800,79.664 38.980,79.800 39.200 C 79.936 39.420,79.855 39.600,79.620 39.600 C 79.385 39.600,78.628 40.140,77.937 40.800 C 77.246 41.460,76.510 42.000,76.301 42.000 C 76.092 42.000,75.417 42.540,74.800 43.200 C 74.183 43.860,73.526 44.400,73.340 44.400 C 73.153 44.401,72.460 44.864,71.800 45.430 C 71.140 45.997,69.617 47.301,68.416 48.330 C 65.562 50.774,50.739 65.584,48.322 68.407 C 47.289 69.613,46.074 71.033,45.622 71.561 C 45.170 72.090,44.800 72.667,44.800 72.843 C 44.800 73.019,44.395 73.584,43.900 74.098 C 43.405 74.611,42.377 75.834,41.615 76.816 C 40.853 77.797,40.088 78.660,39.915 78.733 C 39.742 78.807,39.600 79.132,39.600 79.457 C 39.600 79.782,39.420 79.936,39.200 79.800 C 38.980 79.664,38.800 79.934,38.800 80.400 C 38.800 80.866,38.620 81.136,38.400 81.000 C 38.180 80.864,38.000 81.033,38.000 81.376 C 38.000 81.719,37.820 82.000,37.600 82.000 C 37.380 82.000,37.200 82.230,37.200 82.512 C 37.200 82.793,36.840 83.283,36.400 83.600 C 35.960 83.917,35.600 84.409,35.600 84.692 C 35.600 84.975,35.060 85.772,34.400 86.463 C 33.740 87.154,33.200 87.879,33.200 88.076 C 33.200 88.388,31.752 90.649,31.199 91.200 C 31.089 91.310,30.744 91.895,30.432 92.500 C 30.120 93.105,29.715 93.600,29.532 93.600 C 29.350 93.600,29.200 93.805,29.200 94.056 C 29.200 94.307,28.390 95.859,27.400 97.507 C 26.410 99.154,25.600 100.659,25.600 100.851 C 25.600 101.043,25.420 101.200,25.200 101.200 C 24.980 101.200,24.800 101.560,24.800 102.000 C 24.800 102.440,24.620 102.800,24.400 102.800 C 24.180 102.800,24.000 103.145,24.000 103.567 C 24.000 103.988,23.865 104.393,23.700 104.467 C 23.535 104.540,22.967 105.455,22.437 106.500 C 21.908 107.545,21.323 108.400,21.137 108.400 C 20.952 108.400,20.800 108.645,20.800 108.945 C 20.800 109.244,20.080 110.889,19.200 112.600 C 18.320 114.311,17.600 115.956,17.600 116.255 C 17.600 116.555,17.420 116.800,17.200 116.800 C 16.980 116.800,16.800 117.065,16.800 117.388 C 16.800 117.711,16.440 118.617,16.000 119.400 C 15.560 120.183,15.200 121.179,15.200 121.612 C 15.200 122.045,15.020 122.400,14.800 122.400 C 14.580 122.400,14.400 122.724,14.400 123.120 C 14.400 123.516,14.249 124.011,14.064 124.220 C 13.879 124.429,13.530 125.140,13.288 125.800 C 13.046 126.460,12.207 128.747,11.424 130.883 C 10.641 133.018,10.000 135.133,10.000 135.583 C 10.000 136.032,9.820 136.400,9.600 136.400 C 9.380 136.400,9.200 136.940,9.200 137.600 C 9.200 138.260,9.020 138.800,8.800 138.800 C 8.580 138.800,8.400 139.430,8.400 140.200 C 8.400 140.970,8.220 141.600,8.000 141.600 C 7.780 141.600,7.600 142.230,7.600 143.000 C 7.600 143.770,7.420 144.400,7.200 144.400 C 6.980 144.400,6.800 144.929,6.800 145.576 C 6.800 146.223,6.620 146.864,6.400 147.000 C 6.180 147.136,6.000 147.867,6.000 148.624 C 6.000 149.381,5.820 150.000,5.600 150.000 C 5.380 150.000,5.200 150.619,5.200 151.376 C 5.200 152.133,5.020 152.864,4.800 153.000 C 4.580 153.136,4.400 154.047,4.400 155.024 C 4.400 156.001,4.220 156.800,4.000 156.800 C 3.780 156.800,3.600 157.599,3.600 158.576 C 3.600 159.553,3.420 160.464,3.200 160.600 C 2.980 160.736,2.800 161.636,2.800 162.600 C 2.800 163.564,2.620 164.464,2.400 164.600 C 2.180 164.736,2.000 165.816,2.000 167.000 C 2.000 168.184,1.820 169.264,1.600 169.400 C 1.380 169.536,1.200 170.771,1.200 172.144 C 1.200 173.607,0.993 174.847,0.700 175.140 C -0.029 175.869,-0.029 224.131,0.700 224.860 C 0.991 225.151,1.200 226.381,1.200 227.800 C 1.200 229.142,1.370 230.411,1.577 230.620 C 1.784 230.829,1.995 232.035,2.045 233.300 C 2.096 234.565,2.286 235.600,2.468 235.600 C 2.651 235.600,2.800 236.489,2.800 237.576 C 2.800 238.663,2.980 239.664,3.200 239.800 C 3.420 239.936,3.600 240.757,3.600 241.624 C 3.600 242.491,3.780 243.200,4.000 243.200 C 4.220 243.200,4.400 243.909,4.400 244.776 C 4.400 245.643,4.580 246.464,4.800 246.600 C 5.020 246.736,5.200 247.546,5.200 248.400 C 5.200 249.254,5.380 250.064,5.600 250.200 C 5.820 250.336,6.000 250.966,6.000 251.600 C 6.000 252.234,6.180 252.864,6.400 253.000 C 6.620 253.136,6.800 253.689,6.800 254.229 C 6.800 254.769,6.958 255.523,7.151 255.905 C 7.740 257.072,8.400 259.408,8.400 260.328 C 8.400 260.808,8.580 261.200,8.800 261.200 C 9.020 261.200,9.200 261.639,9.200 262.176 C 9.200 262.713,9.356 263.249,9.546 263.367 C 9.736 263.484,9.991 264.170,10.111 264.890 C 10.231 265.611,10.555 266.740,10.831 267.400 C 11.107 268.060,11.354 268.690,11.380 268.800 C 11.577 269.641,13.512 274.644,14.047 275.695 C 14.241 276.077,14.400 276.662,14.400 276.995 C 14.400 277.328,14.580 277.600,14.800 277.600 C 15.020 277.600,15.200 277.879,15.200 278.219 C 15.200 278.560,15.560 279.584,16.000 280.494 C 16.440 281.405,16.800 282.386,16.800 282.675 C 16.800 282.964,16.980 283.200,17.200 283.200 C 17.420 283.200,17.600 283.560,17.600 284.000 C 17.600 284.440,17.780 284.800,18.000 284.800 C 18.220 284.800,18.400 285.029,18.400 285.309 C 18.400 285.588,19.329 287.613,20.465 289.809 C 21.601 292.004,22.726 294.204,22.965 294.697 C 23.204 295.190,23.535 295.595,23.700 295.597 C 23.865 295.599,24.000 295.960,24.000 296.400 C 24.000 296.840,24.180 297.200,24.400 297.200 C 24.620 297.200,24.800 297.560,24.800 298.000 C 24.800 298.440,24.980 298.800,25.200 298.800 C 25.420 298.800,25.600 299.036,25.600 299.325 C 25.600 299.613,25.938 300.212,26.351 300.655 C 26.764 301.099,27.239 301.898,27.406 302.431 C 27.573 302.964,28.045 303.829,28.455 304.354 C 28.865 304.879,29.200 305.554,29.200 305.854 C 29.200 306.154,29.335 306.403,29.500 306.408 C 29.665 306.412,30.340 307.327,31.000 308.441 C 31.660 309.555,32.425 310.709,32.700 311.005 C 32.975 311.301,33.200 311.736,33.200 311.971 C 33.200 312.207,33.380 312.400,33.600 312.400 C 33.820 312.400,34.000 312.670,34.000 313.000 C 34.000 313.330,34.138 313.600,34.306 313.600 C 34.474 313.600,35.056 314.320,35.600 315.200 C 36.144 316.080,36.726 316.800,36.894 316.800 C 37.062 316.800,37.200 317.025,37.200 317.300 C 37.201 317.780,38.069 318.939,40.203 321.307 C 40.751 321.916,41.200 322.591,41.200 322.807 C 41.200 323.023,41.380 323.200,41.600 323.200 C 41.820 323.200,42.000 323.404,42.000 323.653 C 42.000 323.902,42.324 324.397,42.719 324.753 C 43.114 325.109,43.875 326.030,44.410 326.800 C 45.333 328.131,46.842 329.917,48.600 331.763 C 49.040 332.225,50.210 333.588,51.200 334.793 C 52.190 335.998,53.695 337.617,54.544 338.392 C 55.394 339.166,58.364 342.050,61.144 344.800 C 66.453 350.050,71.089 354.282,72.233 354.922 C 72.606 355.131,73.291 355.628,73.756 356.027 C 74.220 356.425,75.033 357.122,75.561 357.576 C 76.090 358.029,76.669 358.400,76.848 358.400 C 77.027 358.400,77.766 358.985,78.490 359.700 C 79.214 360.415,80.296 361.254,80.896 361.564 C 81.496 361.874,82.305 362.419,82.693 362.775 C 83.082 363.131,84.030 363.862,84.800 364.400 C 85.570 364.938,86.549 365.698,86.975 366.089 C 87.402 366.480,87.904 366.800,88.092 366.800 C 88.280 366.800,88.820 367.160,89.292 367.600 C 89.764 368.040,90.387 368.400,90.675 368.400 C 90.964 368.400,91.200 368.558,91.200 368.751 C 91.200 368.945,91.740 369.327,92.400 369.600 C 93.060 369.873,93.600 370.255,93.600 370.449 C 93.600 370.642,93.768 370.800,93.973 370.800 C 94.347 370.800,97.351 372.524,100.022 374.270 C 100.803 374.782,101.748 375.200,102.122 375.200 C 102.495 375.200,102.800 375.380,102.800 375.600 C 102.800 375.820,103.160 376.000,103.600 376.000 C 104.040 376.000,104.401 376.135,104.403 376.300 C 104.405 376.465,104.810 376.801,105.303 377.046 C 105.796 377.291,107.620 378.236,109.355 379.146 C 111.091 380.056,112.756 380.800,113.055 380.800 C 113.355 380.800,113.600 380.980,113.600 381.200 C 113.600 381.420,113.960 381.600,114.400 381.600 C 114.840 381.600,115.200 381.780,115.200 382.000 C 115.200 382.220,115.453 382.400,115.762 382.400 C 116.071 382.400,117.016 382.739,117.862 383.153 C 119.347 383.879,120.881 384.579,124.896 386.359 C 125.938 386.822,126.975 387.200,127.200 387.200 C 127.425 387.200,128.372 387.550,129.304 387.977 C 131.877 389.156,139.484 391.600,140.582 391.600 C 141.116 391.600,141.664 391.780,141.800 392.000 C 141.936 392.220,142.577 392.400,143.224 392.400 C 143.871 392.400,144.400 392.580,144.400 392.800 C 144.400 393.020,144.929 393.200,145.576 393.200 C 146.223 393.200,146.864 393.380,147.000 393.600 C 147.136 393.820,147.867 394.000,148.624 394.000 C 149.381 394.000,150.000 394.161,150.000 394.358 C 150.000 394.694,150.949 394.897,155.100 395.453 C 156.035 395.578,156.800 395.842,156.800 396.040 C 156.800 396.238,157.700 396.400,158.800 396.400 C 159.900 396.400,160.800 396.580,160.800 396.800 C 160.800 397.020,161.700 397.200,162.800 397.200 C 163.900 397.200,164.800 397.380,164.800 397.600 C 164.800 397.822,165.867 398.000,167.200 398.000 C 168.533 398.000,169.600 398.178,169.600 398.400 C 169.600 398.624,170.707 398.800,172.120 398.800 C 173.603 398.800,174.846 399.006,175.140 399.300 C 175.529 399.689,181.045 399.800,200.000 399.800 C 218.955 399.800,224.471 399.689,224.860 399.300 C 225.162 398.998,226.437 398.800,228.080 398.800 C 229.627 398.800,230.800 398.627,230.800 398.400 C 230.800 398.180,231.779 398.000,232.976 398.000 C 234.173 398.000,235.264 397.820,235.400 397.600 C 235.536 397.380,236.526 397.200,237.600 397.200 C 238.674 397.200,239.664 397.020,239.800 396.800 C 239.936 396.580,240.757 396.400,241.624 396.400 C 242.491 396.400,243.200 396.238,243.200 396.040 C 243.200 395.842,243.965 395.578,244.900 395.453 C 249.051 394.897,250.000 394.694,250.000 394.358 C 250.000 394.161,250.619 394.000,251.376 394.000 C 252.133 394.000,252.864 393.820,253.000 393.600 C 253.136 393.380,253.777 393.200,254.424 393.200 C 255.071 393.200,255.600 393.020,255.600 392.800 C 255.600 392.580,256.219 392.400,256.976 392.400 C 257.733 392.400,258.464 392.220,258.600 392.000 C 258.736 391.780,259.366 391.600,260.000 391.600 C 260.634 391.600,261.266 391.417,261.404 391.193 C 261.542 390.970,261.791 390.871,261.956 390.973 C 262.122 391.075,264.584 390.270,267.429 389.184 C 270.273 388.098,272.737 387.207,272.904 387.204 C 273.217 387.200,276.455 385.823,277.695 385.167 C 278.077 384.965,278.662 384.800,278.995 384.800 C 279.328 384.800,279.600 384.620,279.600 384.400 C 279.600 384.180,279.949 384.000,280.376 384.000 C 280.803 384.000,281.264 383.820,281.400 383.600 C 281.536 383.380,281.997 383.200,282.424 383.200 C 282.851 383.200,283.200 383.020,283.200 382.800 C 283.200 382.580,283.560 382.400,284.000 382.400 C 284.440 382.400,284.800 382.220,284.800 382.000 C 284.800 381.780,285.160 381.600,285.600 381.600 C 286.040 381.600,286.400 381.420,286.400 381.200 C 286.400 380.980,286.861 380.800,287.424 380.800 C 288.004 380.800,288.340 380.627,288.200 380.400 C 288.064 380.180,288.218 380.000,288.542 380.000 C 289.271 380.000,295.350 376.823,295.533 376.346 C 295.607 376.156,296.012 376.000,296.433 376.000 C 296.855 376.000,297.200 375.820,297.200 375.600 C 297.200 375.380,297.458 375.200,297.773 375.200 C 298.300 375.200,300.265 374.121,304.091 371.732 C 304.912 371.219,305.767 370.800,305.991 370.800 C 306.216 370.800,306.400 370.650,306.400 370.468 C 306.400 370.285,306.895 369.880,307.500 369.568 C 308.105 369.256,308.690 368.911,308.800 368.801 C 309.292 368.307,311.599 366.798,311.884 366.784 C 312.058 366.775,312.823 366.235,313.585 365.584 C 314.347 364.933,315.135 364.400,315.338 364.400 C 315.540 364.400,315.997 364.084,316.353 363.697 C 316.709 363.311,317.495 362.740,318.100 362.430 C 318.705 362.119,319.200 361.715,319.200 361.532 C 319.200 361.350,319.393 361.200,319.629 361.200 C 319.864 361.200,320.286 360.975,320.565 360.700 C 320.845 360.425,321.677 359.750,322.416 359.200 C 323.154 358.650,324.218 357.801,324.779 357.313 C 325.341 356.826,326.610 355.776,327.600 354.982 C 329.494 353.462,333.360 350.149,334.230 349.300 C 334.512 349.025,334.828 348.800,334.931 348.800 C 335.323 348.800,337.884 346.017,337.680 345.813 C 337.563 345.696,337.648 345.600,337.870 345.600 C 338.091 345.600,338.976 344.882,339.836 344.004 C 340.696 343.127,341.602 342.203,341.848 341.952 C 342.094 341.701,343.759 340.057,345.548 338.299 C 347.337 336.541,348.800 335.037,348.800 334.956 C 348.800 334.739,350.033 333.268,351.404 331.847 C 352.066 331.161,353.471 329.520,354.526 328.200 C 357.246 324.796,358.525 323.232,359.100 322.604 C 359.375 322.303,359.600 321.904,359.600 321.717 C 359.600 321.530,359.960 321.117,360.400 320.800 C 360.840 320.483,361.200 319.993,361.200 319.712 C 361.200 319.430,361.350 319.200,361.532 319.200 C 361.715 319.200,362.119 318.705,362.430 318.100 C 362.740 317.495,363.311 316.709,363.697 316.353 C 364.084 315.997,364.400 315.540,364.400 315.338 C 364.400 315.135,364.933 314.347,365.584 313.585 C 366.235 312.823,366.775 311.975,366.784 311.700 C 366.793 311.425,366.980 311.200,367.200 311.200 C 367.420 311.200,367.600 311.007,367.600 310.772 C 367.600 310.265,370.009 306.659,370.477 306.467 C 370.655 306.393,370.800 306.180,370.800 305.993 C 370.800 305.672,372.175 303.261,374.268 299.909 C 374.781 299.088,375.200 298.143,375.200 297.809 C 375.200 297.474,375.380 297.200,375.600 297.200 C 375.820 297.200,376.000 296.840,376.000 296.400 C 376.000 295.960,376.145 295.600,376.321 295.600 C 376.498 295.600,377.083 294.703,377.621 293.606 C 378.160 292.510,378.735 291.610,378.900 291.606 C 379.065 291.603,379.200 291.366,379.200 291.080 C 379.200 290.344,380.141 288.407,380.500 288.403 C 380.665 288.401,380.800 288.135,380.800 287.812 C 380.800 287.489,381.160 286.583,381.600 285.800 C 382.040 285.017,382.400 284.111,382.400 283.788 C 382.400 283.465,382.580 283.200,382.800 283.200 C 383.020 283.200,383.200 282.840,383.200 282.400 C 383.200 281.960,383.380 281.600,383.600 281.600 C 383.820 281.600,384.000 281.328,384.000 280.995 C 384.000 280.662,384.159 280.077,384.353 279.695 C 384.548 279.313,384.890 278.550,385.113 278.000 C 385.337 277.450,385.898 276.147,386.360 275.104 C 386.822 274.062,387.200 272.947,387.200 272.628 C 387.200 272.309,387.380 271.936,387.600 271.800 C 387.820 271.664,388.000 271.291,388.000 270.972 C 388.000 270.653,388.338 269.628,388.751 268.696 C 389.164 267.763,389.982 265.380,390.569 263.400 C 391.156 261.420,391.809 259.247,392.018 258.572 C 392.228 257.896,392.400 256.951,392.400 256.472 C 392.400 255.992,392.580 255.600,392.800 255.600 C 393.020 255.600,393.200 254.981,393.200 254.224 C 393.200 253.467,393.380 252.736,393.600 252.600 C 393.820 252.464,394.000 251.924,394.000 251.400 C 394.000 250.876,394.161 250.348,394.358 250.226 C 394.694 250.018,394.906 248.989,395.453 244.900 C 395.578 243.965,395.824 243.200,396.000 243.200 C 396.299 243.200,396.490 242.165,397.049 237.500 C 397.175 236.455,397.440 235.600,397.639 235.600 C 397.837 235.600,398.000 234.520,398.000 233.200 C 398.000 231.867,398.178 230.800,398.400 230.800 C 398.631 230.800,398.800 229.544,398.800 227.833 C 398.800 225.816,398.960 224.813,399.300 224.700 C 400.031 224.457,400.031 175.871,399.300 175.140 C 399.007 174.847,398.800 173.607,398.800 172.144 C 398.800 170.771,398.620 169.536,398.400 169.400 C 398.180 169.264,398.000 168.184,398.000 167.000 C 398.000 165.816,397.820 164.736,397.600 164.600 C 397.380 164.464,397.200 163.474,397.200 162.400 C 397.200 161.326,397.020 160.336,396.800 160.200 C 396.580 160.064,396.400 159.243,396.400 158.376 C 396.400 157.509,396.238 156.800,396.040 156.800 C 395.842 156.800,395.578 156.035,395.453 155.100 C 394.897 150.949,394.694 150.000,394.358 150.000 C 394.161 150.000,394.000 149.370,394.000 148.600 C 394.000 147.830,393.820 147.200,393.600 147.200 C 393.380 147.200,393.200 146.570,393.200 145.800 C 393.200 145.030,393.020 144.400,392.800 144.400 C 392.580 144.400,392.400 143.781,392.400 143.024 C 392.400 142.267,392.220 141.536,392.000 141.400 C 391.780 141.264,391.600 140.784,391.600 140.333 C 391.600 139.181,388.899 131.081,387.621 128.400 C 387.463 128.070,387.085 126.945,386.780 125.900 C 386.475 124.855,386.085 124.000,385.913 124.000 C 385.741 124.000,385.600 123.640,385.600 123.200 C 385.600 122.760,385.420 122.400,385.200 122.400 C 384.980 122.400,384.800 122.058,384.800 121.641 C 384.800 121.223,384.260 119.855,383.600 118.600 C 382.940 117.345,382.400 116.067,382.400 115.759 C 382.400 115.452,382.220 115.200,382.000 115.200 C 381.780 115.200,381.600 114.948,381.600 114.641 C 381.600 114.333,381.060 113.055,380.400 111.800 C 379.740 110.545,379.200 109.282,379.200 108.993 C 379.200 108.703,379.065 108.407,378.900 108.333 C 378.524 108.166,377.225 106.036,376.929 105.100 C 376.807 104.715,376.548 104.400,376.353 104.400 C 376.159 104.400,376.000 104.040,376.000 103.600 C 376.000 103.160,375.820 102.800,375.600 102.800 C 375.380 102.800,375.200 102.464,375.200 102.054 C 375.200 101.644,374.878 100.879,374.485 100.354 C 374.092 99.829,372.703 97.600,371.399 95.400 C 370.094 93.200,368.930 91.310,368.813 91.200 C 368.695 91.090,368.344 90.505,368.032 89.900 C 367.720 89.295,367.315 88.800,367.132 88.800 C 366.950 88.800,366.800 88.575,366.799 88.300 C 366.799 88.025,366.259 87.170,365.600 86.400 C 364.941 85.630,364.401 84.815,364.401 84.588 C 364.400 84.362,364.040 83.917,363.600 83.600 C 363.160 83.283,362.800 82.821,362.800 82.574 C 362.800 82.326,362.440 81.798,362.000 81.400 C 361.560 81.002,361.200 80.524,361.200 80.339 C 361.200 80.154,360.570 79.334,359.800 78.518 C 359.030 77.701,358.400 76.904,358.400 76.745 C 358.400 76.587,358.172 76.219,357.894 75.929 C 357.616 75.638,356.764 74.590,356.000 73.600 C 355.236 72.610,354.429 71.583,354.206 71.317 C 351.569 68.180,349.106 65.496,345.600 61.942 C 343.290 59.599,339.704 55.954,337.631 53.842 C 335.558 51.729,333.732 50.000,333.573 50.000 C 333.414 50.000,332.749 49.505,332.094 48.900 C 329.353 46.366,328.125 45.314,326.824 44.384 C 325.264 43.269,324.318 42.531,323.066 41.455 C 322.590 41.045,321.570 40.235,320.800 39.655 C 320.031 39.075,319.052 38.285,318.625 37.900 C 318.198 37.515,317.679 37.200,317.471 37.200 C 317.264 37.200,316.803 36.884,316.447 36.497 C 316.091 36.111,315.305 35.540,314.700 35.230 C 314.095 34.919,313.600 34.515,313.600 34.332 C 313.600 34.150,313.330 34.000,313.000 34.000 C 312.670 34.000,312.400 33.820,312.400 33.600 C 312.400 33.380,312.130 33.200,311.800 33.200 C 311.470 33.200,311.200 33.050,311.200 32.868 C 311.200 32.685,310.708 32.280,310.107 31.968 C 309.506 31.655,307.571 30.456,305.807 29.302 C 304.043 28.148,302.285 27.203,301.900 27.202 C 301.515 27.201,301.200 27.042,301.200 26.849 C 301.200 26.655,300.660 26.273,300.000 26.000 C 299.340 25.727,298.800 25.345,298.800 25.151 C 298.800 24.958,298.440 24.800,298.000 24.800 C 297.560 24.800,297.200 24.620,297.200 24.400 C 297.200 24.180,296.840 24.000,296.400 24.000 C 295.960 24.000,295.600 23.854,295.600 23.675 C 295.600 23.496,294.970 23.102,294.200 22.800 C 293.430 22.498,292.800 22.104,292.800 21.925 C 292.800 21.746,292.530 21.600,292.200 21.600 C 291.870 21.600,291.600 21.420,291.600 21.200 C 291.600 20.980,291.370 20.800,291.090 20.800 C 290.809 20.800,289.504 20.266,288.190 19.613 C 286.875 18.959,285.575 18.419,285.300 18.413 C 285.025 18.406,284.800 18.220,284.800 18.000 C 284.800 17.780,284.440 17.600,284.000 17.600 C 283.560 17.600,283.200 17.420,283.200 17.200 C 283.200 16.980,282.958 16.800,282.661 16.800 C 282.365 16.800,281.600 16.550,280.961 16.244 C 279.783 15.679,277.258 14.581,275.800 13.999 C 275.360 13.823,274.190 13.328,273.200 12.897 C 272.210 12.467,270.860 11.969,270.200 11.790 C 268.695 11.383,268.827 11.428,267.400 10.831 C 266.740 10.555,265.615 10.232,264.900 10.113 C 264.185 9.993,263.600 9.739,263.600 9.548 C 263.600 9.356,262.959 9.200,262.176 9.200 C 261.329 9.200,260.853 9.038,261.000 8.800 C 261.144 8.567,260.745 8.400,260.047 8.400 C 259.387 8.400,258.736 8.220,258.600 8.000 C 258.464 7.780,257.834 7.600,257.200 7.600 C 256.566 7.600,255.936 7.420,255.800 7.200 C 255.664 6.980,255.034 6.800,254.400 6.800 C 253.766 6.800,253.136 6.620,253.000 6.400 C 252.864 6.180,252.234 6.000,251.600 6.000 C 250.966 6.000,250.336 5.820,250.200 5.600 C 250.064 5.380,249.254 5.200,248.400 5.200 C 247.546 5.200,246.736 5.020,246.600 4.800 C 246.464 4.580,245.643 4.400,244.776 4.400 C 243.909 4.400,243.200 4.220,243.200 4.000 C 243.200 3.780,242.491 3.600,241.624 3.600 C 240.757 3.600,239.936 3.420,239.800 3.200 C 239.664 2.980,238.699 2.800,237.656 2.800 C 236.613 2.800,235.589 2.636,235.380 2.435 C 235.026 2.095,233.996 1.948,227.800 1.354 C 226.480 1.227,225.155 0.923,224.857 0.677 C 224.319 0.234,187.489 -0.088,178.900 0.274 M217.800 33.181 C 219.340 33.407,222.040 33.784,223.800 34.020 C 225.560 34.256,227.810 34.602,228.800 34.789 C 229.790 34.976,231.680 35.334,233.000 35.583 C 246.885 38.206,263.241 43.937,276.800 50.928 C 279.330 52.233,281.580 53.438,281.800 53.607 C 282.020 53.776,282.875 54.294,283.700 54.757 C 284.525 55.221,285.839 55.962,286.619 56.404 C 324.369 77.788,356.207 122.991,364.376 166.800 C 364.642 168.230,365.016 170.210,365.206 171.200 C 368.494 188.346,368.479 211.245,365.169 229.000 C 363.494 237.984,362.250 243.112,360.075 250.000 C 355.861 263.347,351.595 272.849,343.732 286.400 C 340.863 291.343,335.567 298.924,331.000 304.620 C 326.153 310.667,324.281 312.784,319.200 317.967 C 311.897 325.417,304.598 331.695,297.400 336.720 C 296.080 337.641,294.010 339.107,292.800 339.978 C 291.590 340.849,290.455 341.570,290.278 341.581 C 290.101 341.591,288.931 342.289,287.678 343.131 C 284.030 345.583,268.051 354.000,267.044 354.000 C 266.905 354.000,265.938 354.378,264.896 354.840 C 263.853 355.302,262.595 355.842,262.100 356.040 C 261.605 356.238,260.795 356.568,260.300 356.773 C 259.458 357.122,253.428 359.252,251.200 359.987 C 227.180 367.912,198.305 370.041,173.200 365.737 C 171.330 365.417,168.861 364.995,167.714 364.800 C 159.554 363.416,143.955 358.739,136.904 355.564 C 135.972 355.144,135.121 354.800,135.014 354.800 C 132.589 354.800,112.523 343.614,102.759 336.819 C 68.922 313.272,41.459 270.691,35.155 232.000 C 34.922 230.570,34.573 228.500,34.381 227.400 C 31.485 210.889,31.370 190.882,34.077 174.400 C 36.313 160.778,40.545 145.453,44.429 136.904 C 44.853 135.972,45.200 135.113,45.200 134.996 C 45.200 134.370,50.628 123.274,53.319 118.400 C 55.914 113.700,64.174 100.969,65.470 99.673 C 65.764 99.379,66.190 98.792,66.417 98.369 C 67.210 96.886,68.203 97.683,78.577 108.113 C 91.265 120.871,91.756 121.620,91.731 128.200 C 91.712 133.526,90.371 136.567,86.060 141.067 C 76.259 151.298,72.846 168.867,78.071 182.190 C 81.308 190.445,82.086 191.352,109.863 219.218 C 123.799 233.198,135.200 244.855,135.200 245.123 C 135.200 245.390,134.855 246.372,134.433 247.304 C 132.221 252.199,130.375 259.916,129.501 267.925 L 129.400 268.851 127.800 267.637 C 126.920 266.969,125.975 266.417,125.700 266.411 C 125.425 266.405,125.200 266.259,125.200 266.086 C 125.200 265.914,124.667 265.457,124.015 265.072 C 123.363 264.687,122.598 264.147,122.315 263.873 C 122.032 263.598,121.170 262.938,120.400 262.406 C 119.630 261.874,118.910 261.334,118.800 261.206 C 118.690 261.078,117.340 259.923,115.800 258.639 C 108.404 252.474,98.179 241.479,94.003 235.200 C 90.805 230.394,86.321 228.853,82.250 231.163 C 77.746 233.718,77.013 237.014,79.437 243.800 C 80.223 246.000,80.968 248.160,81.091 248.600 C 81.215 249.040,81.440 249.580,81.592 249.800 C 81.745 250.020,82.298 251.280,82.821 252.600 C 84.284 256.288,89.269 266.228,91.448 269.800 C 92.522 271.560,93.633 273.450,93.918 274.000 C 94.395 274.921,99.774 282.618,100.907 284.001 C 101.178 284.332,102.023 285.412,102.785 286.401 C 108.326 293.596,118.844 304.122,125.565 309.200 C 132.553 314.479,133.181 314.902,141.168 319.701 C 147.026 323.220,157.114 327.712,164.200 329.956 C 172.434 332.564,176.077 333.387,186.000 334.879 C 190.675 335.583,213.458 335.585,217.800 334.882 C 234.758 332.139,249.774 326.960,263.000 319.294 C 280.667 309.054,297.112 294.865,307.600 280.813 C 308.150 280.076,308.825 279.245,309.100 278.965 C 309.375 278.686,309.600 278.264,309.600 278.029 C 309.600 277.793,309.741 277.600,309.914 277.600 C 310.086 277.600,310.543 277.067,310.928 276.415 C 311.313 275.763,311.857 274.998,312.138 274.715 C 313.222 273.620,318.602 265.212,321.682 259.800 C 323.199 257.133,328.556 246.029,329.642 243.300 C 329.839 242.805,330.162 241.995,330.361 241.500 C 332.435 236.330,334.482 229.821,335.801 224.200 C 336.369 221.780,336.926 219.440,337.038 219.000 C 337.242 218.197,337.633 215.740,338.502 209.800 C 339.129 205.516,339.117 185.563,338.485 181.400 C 338.218 179.640,337.833 177.120,337.631 175.800 C 336.791 170.321,333.655 160.036,331.047 154.200 C 329.373 150.456,326.114 144.114,325.600 143.600 C 325.413 143.413,324.878 142.502,323.838 140.600 C 323.597 140.160,323.310 139.710,323.200 139.600 C 323.090 139.490,322.820 139.101,322.600 138.736 C 317.774 130.719,309.905 122.502,301.898 117.120 C 298.351 114.735,290.337 110.800,289.028 110.800 C 288.709 110.800,288.349 110.641,288.229 110.446 C 288.108 110.251,287.513 109.993,286.905 109.871 C 286.297 109.749,284.990 109.447,284.000 109.199 C 276.938 107.433,264.898 107.253,258.700 108.821 C 254.633 109.849,253.747 110.106,253.105 110.439 C 252.723 110.638,252.136 110.800,251.800 110.800 C 251.464 110.800,250.877 110.959,250.495 111.153 C 250.113 111.348,249.350 111.685,248.800 111.903 C 230.991 118.955,216.562 135.674,212.814 153.600 C 212.562 154.810,212.185 156.568,211.977 157.506 C 211.464 159.828,211.494 174.868,212.015 176.239 C 213.408 179.904,208.408 182.467,205.342 179.658 C 204.934 179.284,203.970 178.539,203.200 178.002 C 202.430 177.466,201.604 176.840,201.363 176.613 C 201.123 176.386,200.403 175.808,199.763 175.328 C 199.124 174.848,197.093 173.318,195.251 171.928 C 187.709 166.235,185.592 165.394,179.000 165.470 C 169.696 165.579,162.350 170.931,158.787 180.200 C 157.286 184.105,157.756 192.374,159.629 195.000 C 159.786 195.220,160.294 196.075,160.757 196.900 C 161.221 197.725,161.960 199.030,162.400 199.800 C 168.065 209.714,168.380 210.561,167.110 212.478 C 166.775 212.985,165.443 213.935,164.150 214.588 C 161.346 216.005,154.303 220.553,153.599 221.401 C 153.326 221.730,152.895 222.000,152.643 222.000 C 151.621 222.000,107.753 177.462,106.877 175.536 C 103.713 168.577,104.826 162.391,110.380 156.059 C 120.903 144.060,124.088 129.687,119.395 115.379 C 116.930 107.866,114.019 104.121,99.044 89.202 C 92.310 82.494,86.800 76.805,86.800 76.561 C 86.800 76.103,90.824 72.420,93.990 69.980 C 94.975 69.221,96.025 68.372,96.325 68.094 C 96.624 67.816,97.529 67.097,98.335 66.496 C 99.141 65.896,99.890 65.294,100.000 65.160 C 100.291 64.803,110.552 57.985,113.600 56.122 C 119.413 52.570,126.366 49.012,134.400 45.480 C 150.111 38.572,172.201 33.298,188.200 32.635 C 194.199 32.386,214.992 32.770,217.800 33.181 M277.200 108.600 C 281.961 109.272,285.529 110.047,288.200 110.990 C 306.896 117.589,320.818 132.337,331.635 157.000 C 333.109 160.362,336.148 170.978,337.187 176.400 C 339.215 186.978,339.210 204.387,337.175 215.200 C 336.455 219.024,335.161 224.961,334.820 226.000 C 334.640 226.550,334.264 227.810,333.985 228.800 C 329.397 245.053,320.894 262.102,310.245 276.400 C 308.688 278.490,307.321 280.290,307.207 280.400 C 307.093 280.510,306.289 281.500,305.420 282.600 C 299.189 290.488,286.424 302.933,280.177 307.209 C 279.090 307.953,277.968 308.789,277.685 309.067 C 277.402 309.345,276.637 309.887,275.985 310.272 C 275.333 310.657,274.800 311.114,274.800 311.286 C 274.800 311.459,274.626 311.600,274.413 311.600 C 274.201 311.600,271.996 312.932,269.513 314.559 C 267.031 316.186,264.280 317.922,263.400 318.416 C 259.585 320.558,251.043 324.800,250.545 324.800 C 250.245 324.800,250.000 324.980,250.000 325.200 C 250.000 325.420,249.728 325.600,249.395 325.600 C 249.062 325.600,248.477 325.759,248.095 325.953 C 247.160 326.429,245.693 327.018,244.000 327.600 C 243.230 327.864,242.240 328.231,241.800 328.414 C 241.360 328.597,239.830 329.123,238.400 329.583 C 231.089 331.931,226.499 332.934,217.200 334.215 C 212.204 334.903,192.504 335.020,187.716 334.390 C 177.280 333.016,166.596 330.612,160.900 328.356 C 157.137 326.866,155.854 326.334,155.105 325.953 C 154.723 325.759,154.138 325.600,153.805 325.600 C 153.472 325.600,153.200 325.420,153.200 325.200 C 153.200 324.980,152.962 324.800,152.670 324.800 C 150.649 324.800,132.163 313.971,128.625 310.714 C 128.198 310.321,127.695 310.000,127.506 310.000 C 127.318 310.000,126.726 309.562,126.191 309.027 C 125.656 308.492,124.545 307.547,123.723 306.927 C 116.974 301.841,102.759 286.594,99.290 280.722 C 98.926 280.105,98.486 279.600,98.314 279.600 C 98.141 279.600,98.000 279.375,97.999 279.100 C 97.999 278.825,97.459 277.970,96.800 277.200 C 96.141 276.430,95.601 275.575,95.601 275.300 C 95.600 275.025,95.420 274.800,95.200 274.800 C 94.980 274.800,94.800 274.607,94.800 274.372 C 94.800 274.137,94.282 273.191,93.648 272.270 C 90.535 267.745,85.678 258.214,82.759 250.900 C 82.562 250.405,82.220 249.550,82.000 249.000 C 81.780 248.450,81.438 247.595,81.240 247.100 C 81.043 246.605,80.664 245.570,80.400 244.800 C 80.136 244.030,79.782 243.040,79.615 242.600 C 78.366 239.314,78.030 236.676,78.800 236.200 C 79.020 236.064,79.200 235.648,79.200 235.276 C 79.202 233.271,83.038 230.800,86.151 230.800 C 89.522 230.800,91.010 231.826,93.986 236.200 C 94.735 237.300,95.454 238.290,95.584 238.400 C 95.714 238.510,96.446 239.409,97.210 240.399 C 102.019 246.623,109.297 254.063,115.994 259.600 C 116.925 260.370,117.892 261.186,118.143 261.413 C 118.395 261.640,119.230 262.262,120.000 262.794 C 120.770 263.326,121.490 263.869,121.600 264.000 C 121.710 264.131,122.430 264.675,123.200 265.208 C 123.970 265.742,124.780 266.322,125.000 266.497 C 129.625 270.175,130.188 269.986,130.621 264.600 C 131.016 259.686,132.301 254.696,135.310 246.400 C 139.702 234.289,151.547 221.573,164.203 215.381 C 169.345 212.865,169.564 211.024,165.558 203.990 C 163.994 201.246,162.356 198.370,161.918 197.600 C 160.559 195.216,159.728 193.458,159.255 191.972 C 158.691 190.202,158.648 181.741,159.200 181.400 C 159.420 181.264,159.600 180.820,159.600 180.414 C 159.600 179.616,161.209 176.285,161.700 176.067 C 161.865 175.993,162.000 175.690,162.000 175.393 C 162.000 174.652,165.914 170.797,168.210 169.277 C 169.955 168.121,171.145 167.613,174.828 166.451 C 179.164 165.083,187.625 166.762,191.161 169.692 C 191.764 170.191,192.870 171.050,193.619 171.600 C 194.368 172.150,195.398 173.005,195.908 173.500 C 196.419 173.995,197.064 174.400,197.343 174.400 C 197.621 174.400,198.198 174.715,198.625 175.101 C 208.146 183.703,213.564 183.405,212.345 174.347 C 211.310 166.657,212.425 155.433,214.979 147.826 C 220.507 131.356,235.778 116.426,252.400 111.239 C 254.050 110.725,255.850 110.160,256.400 109.985 C 261.841 108.256,270.621 107.671,277.200 108.600 M252.909 149.600 C 252.909 150.590,252.987 150.995,253.082 150.500 C 253.178 150.005,253.178 149.195,253.082 148.700 C 252.987 148.205,252.909 148.610,252.909 149.600 " stroke="none" fill="#fcdba3" fill-rule="evenodd"></path><path id="path1" d="M188.200 32.635 C 172.201 33.298,150.111 38.572,134.400 45.480 C 126.366 49.012,119.413 52.570,113.600 56.122 C 110.552 57.985,100.291 64.803,100.000 65.160 C 99.890 65.294,99.141 65.896,98.335 66.496 C 97.529 67.097,96.624 67.816,96.325 68.094 C 96.025 68.372,94.975 69.221,93.990 69.980 C 90.824 72.420,86.800 76.103,86.800 76.561 C 86.800 76.805,92.310 82.494,99.044 89.202 C 114.019 104.121,116.930 107.866,119.395 115.379 C 124.088 129.687,120.903 144.060,110.380 156.059 C 104.826 162.391,103.713 168.577,106.877 175.536 C 107.753 177.462,151.621 222.000,152.643 222.000 C 152.895 222.000,153.326 221.730,153.599 221.401 C 154.303 220.553,161.346 216.005,164.150 214.588 C 165.443 213.935,166.775 212.985,167.110 212.478 C 168.380 210.561,168.065 209.714,162.400 199.800 C 161.960 199.030,161.221 197.725,160.757 196.900 C 160.294 196.075,159.786 195.220,159.629 195.000 C 157.756 192.374,157.286 184.105,158.787 180.200 C 162.350 170.931,169.696 165.579,179.000 165.470 C 185.592 165.394,187.709 166.235,195.251 171.928 C 197.093 173.318,199.124 174.848,199.763 175.328 C 200.403 175.808,201.123 176.386,201.363 176.613 C 201.604 176.840,202.430 177.466,203.200 178.002 C 203.970 178.539,204.934 179.284,205.342 179.658 C 208.408 182.467,213.408 179.904,212.015 176.239 C 211.494 174.868,211.464 159.828,211.977 157.506 C 212.185 156.568,212.562 154.810,212.814 153.600 C 216.562 135.674,230.991 118.955,248.800 111.903 C 249.350 111.685,250.113 111.348,250.495 111.153 C 250.877 110.959,251.464 110.800,251.800 110.800 C 252.136 110.800,252.723 110.638,253.105 110.439 C 253.747 110.106,254.633 109.849,258.700 108.821 C 261.851 108.024,264.413 107.815,270.800 107.833 C 277.014 107.851,279.733 108.132,284.000 109.199 C 284.990 109.447,286.297 109.749,286.905 109.871 C 287.513 109.993,288.108 110.251,288.229 110.446 C 288.349 110.641,288.709 110.800,289.028 110.800 C 290.337 110.800,298.351 114.735,301.898 117.120 C 309.905 122.502,317.774 130.719,322.600 138.736 C 322.820 139.101,323.090 139.490,323.200 139.600 C 323.310 139.710,323.597 140.160,323.838 140.600 C 324.878 142.502,325.413 143.413,325.600 143.600 C 326.114 144.114,329.373 150.456,331.047 154.200 C 333.655 160.036,336.791 170.321,337.631 175.800 C 337.833 177.120,338.218 179.640,338.485 181.400 C 339.117 185.563,339.129 205.516,338.502 209.800 C 337.633 215.740,337.242 218.197,337.038 219.000 C 336.926 219.440,336.369 221.780,335.801 224.200 C 334.482 229.821,332.435 236.330,330.361 241.500 C 330.162 241.995,329.839 242.805,329.642 243.300 C 328.556 246.029,323.199 257.133,321.682 259.800 C 318.602 265.212,313.222 273.620,312.138 274.715 C 311.857 274.998,311.313 275.763,310.928 276.415 C 310.543 277.067,310.086 277.600,309.914 277.600 C 309.741 277.600,309.600 277.793,309.600 278.029 C 309.600 278.264,309.375 278.686,309.100 278.965 C 308.825 279.245,308.150 280.076,307.600 280.813 C 297.684 294.099,282.450 307.516,265.800 317.627 C 251.268 326.452,236.013 331.936,217.800 334.882 C 213.458 335.585,190.675 335.583,186.000 334.879 C 176.077 333.387,172.434 332.564,164.200 329.956 C 157.114 327.712,147.026 323.220,141.168 319.701 C 133.181 314.902,132.553 314.479,125.565 309.200 C 118.844 304.122,108.326 293.596,102.785 286.401 C 102.023 285.412,101.178 284.332,100.907 284.001 C 99.774 282.618,94.395 274.921,93.918 274.000 C 93.633 273.450,92.522 271.560,91.448 269.800 C 89.269 266.228,84.284 256.288,82.821 252.600 C 82.298 251.280,81.745 250.020,81.592 249.800 C 81.440 249.580,81.215 249.040,81.091 248.600 C 80.968 248.160,80.223 246.000,79.437 243.800 C 77.013 237.014,77.746 233.718,82.250 231.163 C 86.321 228.853,90.805 230.394,94.003 235.200 C 98.179 241.479,108.404 252.474,115.800 258.639 C 117.340 259.923,118.690 261.078,118.800 261.206 C 118.910 261.334,119.630 261.874,120.400 262.406 C 121.170 262.938,122.032 263.598,122.315 263.873 C 122.598 264.147,123.363 264.687,124.015 265.072 C 124.667 265.457,125.200 265.914,125.200 266.086 C 125.200 266.259,125.425 266.405,125.700 266.411 C 125.975 266.417,126.920 266.969,127.800 267.637 L 129.400 268.851 129.501 267.925 C 130.375 259.916,132.221 252.199,134.433 247.304 C 134.855 246.372,135.200 245.390,135.200 245.123 C 135.200 244.855,123.799 233.198,109.863 219.218 C 82.086 191.352,81.308 190.445,78.071 182.190 C 72.846 168.867,76.259 151.298,86.060 141.067 C 90.371 136.567,91.712 133.526,91.731 128.200 C 91.756 121.620,91.265 120.871,78.577 108.113 C 68.203 97.683,67.210 96.886,66.417 98.369 C 66.190 98.792,65.764 99.379,65.470 99.673 C 64.174 100.969,55.914 113.700,53.319 118.400 C 50.628 123.274,45.200 134.370,45.200 134.996 C 45.200 135.113,44.853 135.972,44.429 136.904 C 40.545 145.453,36.313 160.778,34.077 174.400 C 31.370 190.882,31.485 210.889,34.381 227.400 C 34.573 228.500,34.922 230.570,35.155 232.000 C 41.459 270.691,68.922 313.272,102.759 336.819 C 112.523 343.614,132.589 354.800,135.014 354.800 C 135.121 354.800,135.972 355.144,136.904 355.564 C 143.955 358.739,159.554 363.416,167.714 364.800 C 168.861 364.995,171.330 365.417,173.200 365.737 C 192.283 369.009,211.485 368.701,232.600 364.787 C 236.867 363.995,246.888 361.410,251.200 359.987 C 253.428 359.252,259.458 357.122,260.300 356.773 C 260.795 356.568,261.605 356.238,262.100 356.040 C 262.595 355.842,263.853 355.302,264.896 354.840 C 265.938 354.378,266.905 354.000,267.044 354.000 C 268.051 354.000,284.030 345.583,287.678 343.131 C 288.931 342.289,290.101 341.591,290.278 341.581 C 290.455 341.570,291.590 340.849,292.800 339.978 C 294.010 339.107,296.080 337.641,297.400 336.720 C 304.598 331.695,311.897 325.417,319.200 317.967 C 324.281 312.784,326.153 310.667,331.000 304.620 C 335.567 298.924,340.863 291.343,343.732 286.400 C 355.262 266.529,361.072 250.971,365.169 229.000 C 368.479 211.245,368.494 188.346,365.206 171.200 C 365.016 170.210,364.642 168.230,364.376 166.800 C 356.207 122.991,324.369 77.788,286.619 56.404 C 285.839 55.962,284.525 55.221,283.700 54.757 C 282.875 54.294,282.020 53.776,281.800 53.607 C 281.580 53.438,279.330 52.233,276.800 50.928 C 263.241 43.937,246.885 38.206,233.000 35.583 C 231.680 35.334,229.790 34.976,228.800 34.789 C 227.810 34.602,225.560 34.256,223.800 34.020 C 222.040 33.784,219.340 33.407,217.800 33.181 C 214.992 32.770,194.199 32.386,188.200 32.635 M49.213 332.678 C 49.232 333.121,50.783 334.951,50.976 334.757 C 51.062 334.670,50.697 334.095,50.166 333.478 C 49.635 332.860,49.206 332.500,49.213 332.678 " stroke="none" fill="#fcbb67" fill-rule="evenodd"></path><path id="path2" d="M263.600 108.609 C 259.681 109.179,257.810 109.537,256.400 109.985 C 255.850 110.160,254.050 110.725,252.400 111.239 C 235.778 116.426,220.507 131.356,214.979 147.826 C 212.425 155.433,211.310 166.657,212.345 174.347 C 213.564 183.405,208.146 183.703,198.625 175.101 C 198.198 174.715,197.621 174.400,197.343 174.400 C 197.064 174.400,196.419 173.995,195.908 173.500 C 195.398 173.005,194.368 172.150,193.619 171.600 C 192.870 171.050,191.764 170.191,191.161 169.692 C 187.625 166.762,179.164 165.083,174.828 166.451 C 171.145 167.613,169.955 168.121,168.210 169.277 C 165.914 170.797,162.000 174.652,162.000 175.393 C 162.000 175.690,161.865 175.993,161.700 176.067 C 161.209 176.285,159.600 179.616,159.600 180.414 C 159.600 180.820,159.420 181.264,159.200 181.400 C 158.648 181.741,158.691 190.202,159.255 191.972 C 159.728 193.458,160.559 195.216,161.918 197.600 C 162.356 198.370,163.994 201.246,165.558 203.990 C 169.564 211.024,169.345 212.865,164.203 215.381 C 151.547 221.573,139.702 234.289,135.310 246.400 C 132.301 254.696,131.016 259.686,130.621 264.600 C 130.188 269.986,129.625 270.175,125.000 266.497 C 124.780 266.322,123.970 265.742,123.200 265.208 C 122.430 264.675,121.710 264.131,121.600 264.000 C 121.490 263.869,120.770 263.326,120.000 262.794 C 119.230 262.262,118.395 261.640,118.143 261.413 C 117.892 261.186,116.925 260.370,115.994 259.600 C 109.297 254.063,102.019 246.623,97.210 240.399 C 96.446 239.409,95.714 238.510,95.584 238.400 C 95.454 238.290,94.735 237.300,93.986 236.200 C 91.010 231.826,89.522 230.800,86.151 230.800 C 83.038 230.800,79.202 233.271,79.200 235.276 C 79.200 235.648,79.020 236.064,78.800 236.200 C 78.030 236.676,78.366 239.314,79.615 242.600 C 79.782 243.040,80.136 244.030,80.400 244.800 C 80.664 245.570,81.043 246.605,81.240 247.100 C 81.438 247.595,81.780 248.450,82.000 249.000 C 82.220 249.550,82.562 250.405,82.759 250.900 C 85.678 258.214,90.535 267.745,93.648 272.270 C 94.282 273.191,94.800 274.137,94.800 274.372 C 94.800 274.607,94.980 274.800,95.200 274.800 C 95.420 274.800,95.600 275.025,95.601 275.300 C 95.601 275.575,96.141 276.430,96.800 277.200 C 97.459 277.970,97.999 278.825,97.999 279.100 C 98.000 279.375,98.141 279.600,98.314 279.600 C 98.486 279.600,98.926 280.105,99.290 280.722 C 102.759 286.594,116.974 301.841,123.723 306.927 C 124.545 307.547,125.656 308.492,126.191 309.027 C 126.726 309.562,127.318 310.000,127.506 310.000 C 127.695 310.000,128.198 310.321,128.625 310.714 C 132.163 313.971,150.649 324.800,152.670 324.800 C 152.962 324.800,153.200 324.980,153.200 325.200 C 153.200 325.420,153.472 325.600,153.805 325.600 C 154.138 325.600,154.723 325.759,155.105 325.953 C 155.854 326.334,157.137 326.866,160.900 328.356 C 166.596 330.612,177.280 333.016,187.716 334.390 C 200.167 336.029,222.861 334.279,234.600 330.776 C 236.960 330.071,241.014 328.742,241.800 328.414 C 242.240 328.231,243.230 327.864,244.000 327.600 C 245.693 327.018,247.160 326.429,248.095 325.953 C 248.477 325.759,249.062 325.600,249.395 325.600 C 249.728 325.600,250.000 325.420,250.000 325.200 C 250.000 324.980,250.245 324.800,250.545 324.800 C 251.043 324.800,259.585 320.558,263.400 318.416 C 264.280 317.922,267.031 316.186,269.513 314.559 C 271.996 312.932,274.201 311.600,274.413 311.600 C 274.626 311.600,274.800 311.459,274.800 311.286 C 274.800 311.114,275.333 310.657,275.985 310.272 C 276.637 309.887,277.402 309.345,277.685 309.067 C 277.968 308.789,279.090 307.953,280.177 307.209 C 286.424 302.933,299.189 290.488,305.420 282.600 C 306.289 281.500,307.093 280.510,307.207 280.400 C 307.321 280.290,308.688 278.490,310.245 276.400 C 320.894 262.102,329.397 245.053,333.985 228.800 C 334.264 227.810,334.640 226.550,334.820 226.000 C 335.161 224.961,336.455 219.024,337.175 215.200 C 339.210 204.387,339.215 186.978,337.187 176.400 C 336.148 170.978,333.109 160.362,331.635 157.000 C 321.152 133.097,307.398 118.162,289.800 111.572 C 281.671 108.528,271.815 107.413,263.600 108.609 M269.520 137.768 C 274.377 140.325,274.040 145.445,268.715 149.993 C 262.028 155.703,261.873 155.796,259.157 155.759 C 254.333 155.694,251.259 150.733,253.631 146.842 C 254.528 145.370,254.615 145.277,257.048 143.200 C 257.950 142.430,259.633 140.991,260.787 140.003 C 264.058 137.200,267.007 136.446,269.520 137.768 " stroke="none" fill="#fbf8da" fill-rule="evenodd"></path><path id="path3" d="M263.424 138.825 C 262.362 139.499,261.269 140.274,260.997 140.546 C 260.724 140.819,259.730 141.662,258.789 142.421 C 251.506 148.286,251.783 155.200,259.300 155.200 C 263.244 155.200,272.400 146.996,272.400 143.462 C 272.400 138.715,267.549 136.210,263.424 138.825 " stroke="none" fill="#6b6b6a" fill-rule="evenodd"></path><path id="path4" d="M263.985 137.907 C 260.156 139.861,253.176 146.633,253.241 148.331 C 253.280 149.356,253.299 149.345,253.703 148.084 C 254.137 146.729,255.900 144.749,258.638 142.540 C 259.497 141.846,260.642 140.893,261.182 140.422 C 262.930 138.895,264.930 137.838,266.583 137.566 L 268.200 137.300 266.785 137.250 C 266.006 137.223,264.746 137.518,263.985 137.907 M268.600 138.000 C 268.736 138.220,269.075 138.400,269.354 138.400 C 270.509 138.400,272.400 141.524,272.400 143.432 C 272.400 145.954,268.538 150.196,262.688 154.100 C 259.170 156.448,254.968 155.106,253.742 151.244 C 253.382 150.108,253.275 150.000,253.242 150.738 C 253.089 154.158,258.640 156.998,261.982 155.210 C 263.644 154.320,270.588 148.348,271.684 146.866 C 273.592 144.284,273.056 140.897,270.384 138.648 C 269.145 137.606,268.128 137.236,268.600 138.000 " stroke="none" fill="#b4aca4" fill-rule="evenodd"></path></g></svg>