<svg id="svg" version="1.1" xmlns="http://www.w3.org/2000/svg" xmlns:xlink="http://www.w3.org/1999/xlink" width="400" height="400" viewBox="0, 0, 400,400"><g id="svgg"><path id="path0" d="M87.246 56.076 C 87.221 57.108,87.342 58.041,87.516 58.148 C 87.690 58.256,87.770 57.682,87.693 56.872 C 87.459 54.398,87.295 54.107,87.246 56.076 M92.624 63.787 C 93.051 64.110,93.670 64.379,94.000 64.385 C 94.330 64.390,94.084 64.126,93.454 63.798 C 91.995 63.037,91.625 63.032,92.624 63.787 M273.200 64.187 C 270.533 64.697,264.358 66.681,264.000 67.142 C 263.890 67.284,262.630 68.013,261.200 68.761 C 259.770 69.510,258.330 70.419,258.000 70.780 C 257.670 71.142,256.770 71.875,256.000 72.410 C 254.277 73.607,253.396 74.486,251.602 76.800 C 250.835 77.790,249.927 78.910,249.584 79.289 C 248.693 80.274,246.000 85.203,246.000 85.848 C 246.000 86.296,242.982 86.411,228.900 86.500 L 211.800 86.609 228.900 86.704 C 238.482 86.758,246.000 86.956,246.000 87.154 C 246.000 87.553,244.877 91.377,244.401 92.600 C 242.826 96.644,243.295 110.325,245.224 116.628 C 245.431 117.304,245.600 118.177,245.600 118.569 C 245.600 121.092,252.129 136.638,254.727 140.302 C 255.155 140.906,255.932 142.149,256.453 143.065 C 256.974 143.981,257.791 145.241,258.269 145.865 C 258.747 146.489,259.992 148.146,261.037 149.546 C 263.793 153.239,269.649 159.623,274.330 164.038 C 276.569 166.149,278.401 168.129,278.403 168.438 C 278.405 168.747,279.683 169.990,281.244 171.200 C 282.804 172.410,284.468 173.731,284.940 174.135 C 285.413 174.540,286.295 175.163,286.900 175.521 C 287.505 175.880,288.000 176.314,288.000 176.486 C 288.000 176.659,288.225 176.800,288.500 176.801 C 288.775 176.801,289.630 177.341,290.400 178.000 C 291.170 178.659,292.025 179.199,292.300 179.199 C 292.575 179.200,292.800 179.338,292.800 179.506 C 292.800 179.674,293.520 180.256,294.400 180.800 C 295.280 181.344,296.000 181.926,296.000 182.094 C 296.000 182.262,296.193 182.400,296.428 182.400 C 296.663 182.400,297.641 182.940,298.600 183.600 C 299.559 184.260,300.509 184.800,300.710 184.800 C 300.911 184.800,301.402 185.160,301.800 185.600 C 302.198 186.040,302.684 186.400,302.879 186.400 C 303.074 186.400,303.620 186.760,304.092 187.200 C 304.564 187.640,305.187 188.000,305.475 188.000 C 305.764 188.000,306.000 188.180,306.000 188.400 C 306.000 188.620,306.360 188.800,306.800 188.800 C 307.240 188.800,307.600 188.980,307.600 189.200 C 307.600 189.420,307.960 189.600,308.400 189.600 C 308.840 189.600,309.200 189.736,309.200 189.902 C 309.200 190.069,309.785 190.451,310.500 190.752 C 311.215 191.053,312.323 191.547,312.961 191.850 C 313.600 192.152,314.725 192.400,315.461 192.400 C 316.198 192.400,316.800 192.580,316.800 192.800 C 316.800 193.020,317.160 193.200,317.600 193.200 C 318.040 193.200,318.400 193.020,318.400 192.800 C 318.400 192.580,318.895 192.400,319.500 192.401 C 320.105 192.401,321.633 191.906,322.895 191.301 C 326.259 189.687,326.064 189.093,321.292 186.421 C 319.151 185.222,315.290 182.837,312.712 181.121 C 310.133 179.404,307.838 178.000,307.612 178.000 C 307.385 178.000,307.200 177.859,307.200 177.686 C 307.200 177.514,306.667 177.057,306.015 176.672 C 305.363 176.287,304.598 175.743,304.315 175.464 C 304.032 175.185,302.180 173.718,300.200 172.205 C 291.051 165.213,278.444 152.337,274.940 146.407 C 274.548 145.743,274.086 145.200,273.914 145.200 C 273.741 145.200,273.600 145.010,273.600 144.778 C 273.600 144.546,272.907 143.331,272.061 142.078 C 267.414 135.202,262.453 123.334,261.158 116.000 C 257.865 97.341,259.885 87.302,269.108 76.497 C 273.855 70.934,284.626 65.051,288.723 65.784 C 292.238 66.412,296.625 68.279,300.266 70.697 C 301.425 71.466,302.628 71.998,302.938 71.879 C 303.249 71.760,303.726 71.873,303.998 72.131 C 304.329 72.444,304.313 72.300,303.951 71.700 C 303.652 71.205,303.164 70.800,302.866 70.800 C 302.567 70.800,301.798 70.426,301.156 69.968 C 299.318 68.660,293.965 66.000,293.168 66.000 C 292.772 66.000,292.349 65.841,292.230 65.648 C 292.000 65.277,291.844 65.231,287.400 64.230 C 284.077 63.482,276.997 63.461,273.200 64.187 M95.565 64.926 C 95.744 65.105,96.681 65.191,97.646 65.118 L 99.400 64.985 97.319 64.793 C 96.175 64.687,95.385 64.747,95.565 64.926 M213.800 64.800 L 211.800 65.074 213.600 65.131 C 214.590 65.162,215.670 65.013,216.000 64.800 C 216.330 64.587,216.420 64.438,216.200 64.469 C 215.980 64.500,214.900 64.649,213.800 64.800 M133.900 65.100 C 145.835 65.159,165.365 65.159,177.300 65.100 C 189.235 65.041,179.470 64.993,155.600 64.993 C 131.730 64.993,121.965 65.041,133.900 65.100 M34.417 87.938 C 33.528 88.784,32.801 89.729,32.801 90.038 C 32.802 90.347,33.137 90.052,33.545 89.383 C 35.216 86.643,33.001 86.816,67.882 86.700 L 99.400 86.595 67.717 86.498 L 36.034 86.400 34.417 87.938 M134.069 86.700 C 145.877 86.759,165.317 86.759,177.269 86.700 C 189.221 86.641,179.560 86.593,155.800 86.593 C 132.040 86.593,122.261 86.641,134.069 86.700 M32.598 231.400 C 32.598 308.840,32.644 340.580,32.700 301.932 C 32.756 263.285,32.756 199.925,32.700 161.132 C 32.644 122.340,32.598 153.960,32.598 231.400 M373.729 150.500 C 372.674 151.672,372.050 152.847,373.041 151.795 C 374.138 150.631,374.926 149.600,374.719 149.600 C 374.620 149.600,374.175 150.005,373.729 150.500 M370.616 154.296 C 370.057 154.899,369.600 155.559,369.600 155.763 C 369.600 155.966,369.645 156.057,369.700 155.965 C 369.755 155.872,370.329 155.212,370.975 154.498 C 371.621 153.784,372.033 153.200,371.891 153.200 C 371.749 153.200,371.175 153.693,370.616 154.296 M363.791 161.421 C 361.875 163.302,360.383 164.916,360.475 165.008 C 360.567 165.100,362.248 163.561,364.212 161.587 C 366.176 159.614,367.669 158.000,367.528 158.000 C 367.388 158.000,365.706 159.539,363.791 161.421 M356.296 168.616 C 355.693 169.175,355.200 169.749,355.200 169.891 C 355.200 170.033,355.740 169.632,356.400 169.000 C 357.503 167.944,357.772 167.600,357.496 167.600 C 357.439 167.600,356.899 168.057,356.296 168.616 M248.384 335.416 C 232.004 351.797,218.725 365.200,218.876 365.200 C 219.220 365.200,278.465 305.932,278.292 305.759 C 278.223 305.689,264.764 319.035,248.384 335.416 M211.388 372.413 C 209.424 374.386,207.950 376.000,208.114 376.000 C 208.513 376.000,215.315 369.182,215.115 368.982 C 215.029 368.896,213.352 370.439,211.388 372.413 " stroke="none" fill="#ae6b74" fill-rule="evenodd"></path><path id="path1" d="M26.200 44.477 C 25.540 44.692,24.370 45.050,23.600 45.271 C 21.519 45.870,20.000 46.556,20.000 46.898 C 20.000 47.064,19.640 47.200,19.200 47.200 C 18.760 47.200,18.400 47.380,18.400 47.600 C 18.400 47.820,18.146 48.000,17.835 48.000 C 17.088 48.000,12.555 52.481,12.213 53.558 C 12.066 54.021,11.778 54.400,11.573 54.400 C 11.368 54.400,11.200 54.683,11.200 55.029 C 11.200 55.374,10.930 55.927,10.600 56.257 C 10.270 56.587,10.000 57.384,10.000 58.029 C 10.000 58.673,9.820 59.200,9.600 59.200 C 9.380 59.200,9.200 59.639,9.200 60.176 C 9.200 60.713,9.020 61.264,8.800 61.400 C 8.245 61.743,8.245 383.200,8.800 383.200 C 9.020 383.200,9.200 383.819,9.200 384.576 C 9.200 385.333,9.380 386.064,9.600 386.200 C 9.820 386.336,10.000 386.724,10.000 387.063 C 10.000 388.120,11.270 390.555,12.367 391.600 C 12.944 392.150,13.732 393.095,14.117 393.700 C 14.503 394.305,15.012 394.800,15.249 394.800 C 15.485 394.800,16.183 395.340,16.800 396.000 C 17.417 396.660,18.209 397.200,18.560 397.200 C 18.912 397.200,19.200 397.380,19.200 397.600 C 19.200 397.820,19.560 398.000,20.000 398.000 C 20.440 398.000,20.800 398.180,20.800 398.400 C 20.800 398.620,21.145 398.800,21.567 398.800 C 21.988 398.800,22.408 399.025,22.500 399.300 C 22.745 400.036,288.855 400.036,289.100 399.300 C 289.192 399.025,289.524 398.800,289.839 398.800 C 290.581 398.800,292.018 397.987,292.843 397.100 C 293.201 396.715,293.702 396.400,293.956 396.400 C 294.413 396.400,298.800 392.227,298.800 391.792 C 298.800 391.668,299.160 391.180,299.600 390.708 C 300.040 390.236,300.400 389.613,300.400 389.325 C 300.400 389.036,300.580 388.800,300.800 388.800 C 301.020 388.800,301.200 388.440,301.200 388.000 C 301.200 387.560,301.380 387.200,301.600 387.200 C 301.820 387.200,302.000 386.671,302.000 386.024 C 302.000 385.377,302.180 384.736,302.400 384.600 C 302.620 384.464,302.800 383.384,302.800 382.200 C 302.800 381.016,302.979 379.937,303.197 379.802 C 303.874 379.383,303.741 186.400,303.064 186.400 C 302.767 186.400,302.198 186.040,301.800 185.600 C 301.402 185.160,300.911 184.800,300.710 184.800 C 300.509 184.800,299.559 184.260,298.600 183.600 C 297.641 182.940,296.663 182.400,296.428 182.400 C 296.193 182.400,296.000 182.262,296.000 182.094 C 296.000 181.926,295.280 181.344,294.400 180.800 C 293.520 180.256,292.800 179.674,292.800 179.506 C 292.800 179.338,292.575 179.200,292.300 179.199 C 292.025 179.199,291.170 178.659,290.400 178.000 C 289.630 177.341,288.775 176.801,288.500 176.801 C 288.225 176.800,288.000 176.659,288.000 176.486 C 288.000 176.314,287.505 175.875,286.900 175.511 C 286.295 175.147,285.350 174.486,284.800 174.042 C 284.250 173.597,282.630 172.300,281.200 171.158 L 278.600 169.082 278.499 237.490 L 278.398 305.898 243.389 340.949 L 208.379 376.000 121.990 376.000 C 74.475 376.000,35.600 375.863,35.600 375.695 C 35.600 375.527,35.195 375.212,34.700 374.995 C 34.206 374.778,33.494 373.970,33.120 373.200 C 32.172 371.253,32.013 92.101,32.958 89.840 C 33.264 89.106,34.136 88.032,34.895 87.453 L 36.276 86.400 67.638 86.406 C 84.887 86.409,99.207 86.544,99.460 86.706 C 99.777 86.908,99.975 89.821,100.094 96.000 C 100.281 105.746,100.401 106.395,102.668 109.851 C 104.149 112.109,106.037 113.536,109.033 114.661 C 111.460 115.573,195.607 116.055,200.200 115.184 C 208.569 113.596,210.889 109.647,211.119 96.600 C 211.214 91.186,211.449 87.194,211.689 86.900 C 212.005 86.514,215.973 86.400,229.049 86.400 C 243.124 86.400,246.000 86.307,246.000 85.853 C 246.000 85.204,248.690 80.278,249.584 79.289 C 249.927 78.910,250.835 77.790,251.602 76.800 C 253.396 74.486,254.277 73.607,256.000 72.410 C 256.770 71.875,257.670 71.142,258.000 70.780 C 258.330 70.419,259.770 69.510,261.200 68.761 C 262.630 68.013,263.890 67.287,264.000 67.149 C 265.979 64.666,281.007 62.791,287.400 64.230 C 291.844 65.231,292.000 65.277,292.230 65.648 C 292.349 65.841,292.772 66.000,293.168 66.000 C 293.965 66.000,299.318 68.660,301.156 69.968 C 303.230 71.446,303.583 71.156,303.554 68.000 C 303.539 66.460,303.364 65.200,303.164 65.200 C 302.964 65.200,302.800 64.221,302.800 63.024 C 302.800 61.827,302.620 60.736,302.400 60.600 C 302.180 60.464,301.996 59.868,301.991 59.276 C 301.986 58.684,301.630 57.750,301.200 57.200 C 300.770 56.650,300.414 55.975,300.409 55.700 C 300.404 55.425,300.220 55.200,300.000 55.200 C 299.780 55.200,299.600 54.912,299.600 54.560 C 299.600 54.209,299.060 53.417,298.400 52.800 C 297.740 52.183,297.200 51.502,297.200 51.286 C 297.200 51.069,296.714 50.574,296.121 50.185 C 295.527 49.796,294.619 49.055,294.102 48.539 C 293.586 48.022,293.005 47.600,292.810 47.600 C 292.616 47.600,292.212 47.375,291.913 47.100 C 290.992 46.253,289.649 45.600,288.829 45.600 C 288.399 45.600,287.948 45.439,287.826 45.242 C 287.156 44.158,225.411 43.427,224.733 44.495 C 224.557 44.773,224.409 47.567,224.406 50.705 C 224.403 53.843,224.241 56.723,224.047 57.105 C 223.852 57.487,223.447 58.339,223.147 58.997 C 222.026 61.452,219.450 63.626,216.406 64.685 C 214.620 65.307,95.778 65.411,95.395 64.792 C 95.262 64.576,94.747 64.400,94.252 64.400 C 93.756 64.400,93.002 64.076,92.575 63.680 C 92.149 63.284,91.499 62.845,91.132 62.705 C 90.764 62.564,89.729 61.368,88.832 60.047 L 87.200 57.644 87.187 51.522 C 87.178 47.066,87.030 45.209,86.643 44.700 C 86.028 43.889,28.649 43.677,26.200 44.477 M199.226 86.814 C 200.290 87.383,200.422 101.620,199.377 103.111 L 198.755 104.000 155.657 104.000 C 122.671 104.000,112.447 103.887,112.080 103.520 C 111.212 102.652,111.418 86.906,112.300 86.676 C 113.852 86.270,198.461 86.405,199.226 86.814 " stroke="none" fill="#437994" fill-rule="evenodd"></path><path id="path2" d="M141.612 0.384 C 141.288 0.589,141.163 0.896,141.333 1.067 C 141.504 1.237,141.769 1.183,141.922 0.945 C 142.075 0.708,142.514 0.562,142.898 0.621 C 143.283 0.680,143.698 0.565,143.822 0.364 C 144.116 -0.112,142.371 -0.096,141.612 0.384 M157.518 1.312 C 153.095 4.339,152.650 5.643,152.471 16.100 L 152.322 24.800 144.338 24.800 L 136.353 24.800 136.428 16.400 C 136.469 11.781,136.351 8.001,136.166 8.002 C 135.981 8.002,135.884 11.782,135.951 16.401 L 136.074 24.800 114.837 24.800 C 100.946 24.800,93.600 24.938,93.600 25.200 C 93.600 25.420,93.280 25.600,92.888 25.600 C 92.497 25.600,91.917 25.960,91.600 26.400 C 91.283 26.840,90.703 27.200,90.312 27.200 C 89.860 27.200,89.600 27.501,89.600 28.024 C 89.600 28.477,89.436 28.746,89.235 28.621 C 89.034 28.497,88.630 28.936,88.337 29.598 C 88.044 30.259,87.669 30.800,87.502 30.800 C 87.336 30.800,87.200 31.599,87.200 32.576 C 87.200 33.553,87.020 34.464,86.800 34.600 C 86.102 35.031,86.288 43.871,87.000 44.145 C 87.496 44.335,87.600 45.408,87.600 50.350 C 87.600 57.952,88.790 60.611,93.337 63.164 L 94.824 64.000 155.693 64.000 L 216.561 64.000 218.624 62.750 C 219.759 62.062,220.989 60.989,221.357 60.364 C 221.726 59.740,222.313 58.944,222.662 58.596 C 223.164 58.093,223.349 56.605,223.554 51.395 C 223.726 47.033,223.979 44.661,224.306 44.334 C 225.612 43.028,224.749 31.667,223.203 29.804 C 222.889 29.425,222.444 28.758,222.216 28.321 C 221.987 27.885,221.260 27.229,220.600 26.864 C 219.940 26.499,219.340 26.065,219.267 25.900 C 219.193 25.735,218.788 25.600,218.367 25.600 C 217.945 25.600,217.600 25.420,217.600 25.200 C 217.600 24.938,210.267 24.800,196.400 24.800 L 175.200 24.800 175.200 15.560 C 175.200 6.333,174.824 3.600,173.554 3.600 C 173.359 3.600,173.200 3.326,173.200 2.990 C 173.200 2.655,172.765 2.215,172.232 2.012 C 171.700 1.810,171.083 1.319,170.861 0.922 C 170.507 0.287,169.789 0.189,164.929 0.112 L 159.400 0.024 157.518 1.312 M139.600 1.515 C 139.600 2.066,138.167 3.600,137.653 3.600 C 137.404 3.600,137.200 3.960,137.200 4.400 C 137.200 4.840,137.020 5.200,136.800 5.200 C 136.580 5.200,136.400 5.470,136.400 5.800 C 136.400 6.814,136.954 6.453,138.000 4.758 C 138.550 3.866,139.313 2.801,139.696 2.390 C 140.110 1.945,140.231 1.543,139.996 1.397 C 139.778 1.263,139.600 1.316,139.600 1.515 M36.039 87.706 C 35.510 87.978,34.700 88.708,34.239 89.329 L 33.400 90.459 33.300 230.929 C 33.205 364.058,33.236 371.472,33.900 372.777 C 35.476 375.876,26.951 375.614,122.516 375.501 L 207.800 375.400 208.006 341.800 C 208.119 323.320,208.254 308.183,208.306 308.161 C 208.358 308.140,208.715 307.763,209.100 307.324 C 210.474 305.757,211.339 305.600,218.601 305.600 L 225.654 305.600 224.727 306.900 L 223.800 308.200 223.692 333.800 L 223.584 359.400 250.792 332.204 L 278.000 305.008 278.000 236.687 L 278.000 168.365 271.861 162.283 C 262.161 152.671,254.591 142.617,251.018 134.600 C 250.625 133.720,249.728 131.740,249.023 130.200 C 248.318 128.660,247.499 126.590,247.201 125.600 C 246.904 124.610,246.512 123.629,246.330 123.420 C 246.149 123.211,246.000 122.637,246.000 122.144 C 246.000 121.651,245.839 121.148,245.642 121.026 C 245.445 120.905,245.182 120.129,245.058 119.303 C 244.933 118.476,244.723 117.080,244.591 116.200 C 244.458 115.320,244.196 114.240,244.006 113.800 C 243.035 111.542,242.709 98.839,243.513 94.600 C 244.379 90.040,244.494 89.589,244.846 89.371 C 245.041 89.251,245.200 88.713,245.200 88.176 L 245.200 87.200 228.600 87.200 L 212.000 87.200 212.000 95.672 C 212.000 103.922,211.857 105.166,210.561 108.213 C 209.470 110.777,206.803 113.367,203.754 114.822 L 201.286 116.000 155.862 116.000 C 123.110 116.000,110.126 115.874,109.319 115.549 C 101.041 112.216,99.242 108.433,99.214 94.300 L 99.200 87.200 68.100 87.206 C 44.213 87.210,36.777 87.326,36.039 87.706 M112.243 87.831 C 111.754 89.106,111.976 101.814,112.500 102.527 C 112.966 103.160,115.929 103.199,156.000 103.103 L 199.000 103.000 199.000 95.200 L 199.000 87.400 155.743 87.298 C 116.558 87.206,112.464 87.256,112.243 87.831 M115.596 167.859 C 117.089 168.158,119.388 170.280,119.713 171.659 C 119.834 172.176,120.297 173.950,120.741 175.600 C 121.185 177.250,122.111 180.760,122.799 183.400 C 123.487 186.040,124.565 190.180,125.196 192.600 C 125.826 195.020,126.791 198.710,127.341 200.800 C 127.890 202.890,129.178 207.840,130.202 211.800 C 131.227 215.760,132.515 220.710,133.067 222.800 C 133.618 224.890,134.605 228.670,135.260 231.200 C 135.916 233.730,136.815 237.150,137.258 238.800 C 137.701 240.450,138.216 242.430,138.402 243.200 C 139.936 249.541,140.233 250.407,140.712 249.928 C 140.980 249.660,141.200 249.230,141.200 248.973 C 141.200 248.572,141.640 247.347,143.203 243.400 C 143.377 242.960,143.736 241.970,144.000 241.200 C 144.264 240.430,144.624 239.440,144.800 239.000 C 144.976 238.560,145.336 237.570,145.600 236.800 C 145.864 236.030,146.225 235.040,146.401 234.600 C 146.698 233.861,147.016 232.998,149.165 227.100 C 153.243 215.915,152.419 216.400,167.313 216.400 C 181.271 216.400,181.806 216.592,184.183 222.459 C 184.994 224.461,185.628 225.560,185.763 225.200 C 185.888 224.870,186.996 220.640,188.225 215.800 C 189.454 210.960,191.093 204.570,191.867 201.600 C 192.641 198.630,193.438 195.525,193.637 194.700 C 194.351 191.750,194.754 190.176,195.199 188.600 C 195.448 187.720,195.812 186.248,196.008 185.329 C 197.425 178.692,202.608 175.996,206.738 179.748 C 208.353 181.215,208.378 181.284,215.385 203.000 C 217.301 208.940,219.034 214.113,219.235 214.495 C 219.436 214.877,219.600 215.454,219.600 215.778 C 219.600 216.279,221.323 216.383,231.300 216.483 C 242.195 216.592,243.110 216.657,244.600 217.423 C 248.927 219.649,248.864 226.085,244.494 228.257 C 243.142 228.930,241.690 229.012,229.200 229.124 C 211.227 229.285,211.279 229.301,208.804 223.000 C 208.631 222.560,207.450 218.960,206.178 215.000 C 203.449 206.501,203.544 206.710,203.100 208.216 C 202.586 209.963,200.383 218.379,200.017 220.000 C 199.483 222.360,193.428 245.721,192.553 248.800 C 191.472 252.601,186.958 254.391,183.607 252.348 C 181.518 251.074,181.326 250.732,178.761 243.700 C 178.300 242.435,177.777 241.040,177.600 240.600 C 177.423 240.160,176.883 238.720,176.400 237.400 C 175.917 236.080,175.378 234.640,175.202 234.200 C 175.026 233.760,174.535 232.500,174.112 231.400 L 173.341 229.400 167.529 229.290 L 161.717 229.179 161.027 231.090 C 160.648 232.140,160.189 233.360,160.008 233.800 C 159.700 234.547,159.203 235.892,157.200 241.400 C 155.270 246.709,154.702 248.249,154.401 249.000 C 154.225 249.440,153.864 250.430,153.600 251.200 C 153.336 251.970,152.975 252.960,152.799 253.400 C 152.351 254.517,151.279 257.440,148.176 266.000 C 144.504 276.133,143.799 277.226,140.550 277.836 C 135.644 278.756,133.891 276.387,131.200 265.200 C 131.015 264.430,130.475 262.360,130.000 260.600 C 129.525 258.840,128.983 256.770,128.795 256.000 C 128.607 255.230,128.249 253.880,128.000 253.000 C 127.553 251.422,127.147 249.838,126.438 246.900 C 126.057 245.323,124.621 239.858,123.259 234.800 C 122.815 233.150,121.524 228.200,120.389 223.800 C 116.694 209.465,115.960 206.643,115.132 203.600 C 114.683 201.950,114.225 200.015,114.114 199.300 C 113.766 197.052,112.984 197.871,111.823 201.700 C 111.206 203.735,110.481 206.120,110.210 207.000 C 109.940 207.880,109.307 209.950,108.804 211.600 C 108.301 213.250,107.578 215.590,107.198 216.800 C 106.818 218.010,106.283 219.810,106.008 220.800 C 104.684 225.575,103.870 226.960,101.558 228.369 C 99.819 229.429,70.290 229.676,67.887 228.651 C 62.228 226.236,62.618 218.754,68.494 217.009 C 70.129 216.524,72.948 216.400,82.392 216.400 L 94.239 216.400 94.666 215.100 C 94.900 214.385,95.317 212.990,95.592 212.000 C 95.866 211.010,96.226 209.840,96.390 209.400 C 96.555 208.960,96.879 207.970,97.111 207.200 C 97.343 206.430,98.099 203.910,98.792 201.600 C 99.485 199.290,100.201 196.950,100.384 196.400 C 100.567 195.850,101.108 194.050,101.586 192.400 C 102.064 190.750,102.610 188.950,102.800 188.400 C 102.990 187.850,103.985 184.610,105.012 181.200 C 107.604 172.585,107.961 171.538,108.693 170.400 C 110.171 168.101,112.507 167.241,115.596 167.859 " stroke="none" fill="#e1e8f7" fill-rule="evenodd"></path><path id="path3" d="M143.822 0.364 C 143.698 0.565,143.283 0.680,142.898 0.621 C 142.514 0.562,142.065 0.713,141.900 0.957 C 141.687 1.272,141.503 1.250,141.265 0.881 C 140.997 0.466,140.826 0.486,140.416 0.981 C 140.133 1.321,140.059 1.603,140.251 1.606 C 140.443 1.609,140.411 1.744,140.179 1.906 C 139.948 2.068,139.138 3.100,138.379 4.200 C 137.621 5.300,136.685 6.435,136.300 6.723 C 135.523 7.303,135.356 8.056,136.038 7.900 C 136.347 7.830,136.459 10.313,136.415 16.300 L 136.353 24.800 144.338 24.800 L 152.322 24.800 152.471 16.100 C 152.649 5.722,153.293 3.828,157.483 1.372 C 158.427 0.819,159.200 0.284,159.200 0.183 C 159.200 -0.173,144.044 0.005,143.822 0.364 M135.767 17.400 C 135.767 21.580,135.826 23.236,135.898 21.079 C 135.971 18.923,135.970 15.503,135.898 13.479 C 135.825 11.456,135.766 13.220,135.767 17.400 M86.687 44.285 C 87.012 44.516,87.218 46.291,87.307 49.616 L 87.440 54.600 87.420 49.433 C 87.404 45.190,87.293 44.236,86.800 44.102 C 86.369 43.985,86.337 44.037,86.687 44.285 M224.131 44.500 C 223.958 44.775,223.699 47.916,223.555 51.481 C 223.349 56.611,223.163 58.094,222.662 58.596 C 222.313 58.944,221.726 59.740,221.357 60.364 C 220.989 60.989,219.759 62.062,218.624 62.750 L 216.561 64.000 155.693 64.000 L 94.824 64.000 93.337 63.164 C 91.326 62.035,89.516 60.133,88.614 58.200 C 88.203 57.320,87.791 56.829,87.697 57.109 C 87.146 58.762,91.679 63.323,94.925 64.382 C 97.507 65.223,214.398 65.066,216.773 64.217 C 219.867 63.112,222.855 60.127,223.795 57.200 C 224.066 56.355,224.748 43.997,224.524 43.999 C 224.482 44.000,224.305 44.225,224.131 44.500 M35.089 87.654 C 34.478 88.110,33.713 88.995,33.389 89.622 C 32.329 91.672,32.521 371.738,33.584 373.481 C 35.249 376.212,27.785 376.000,122.295 376.000 L 207.830 376.000 243.113 340.700 L 278.396 305.400 278.299 237.000 L 278.202 168.600 278.100 236.805 L 277.998 305.010 250.791 332.205 L 223.584 359.400 223.692 333.800 L 223.800 308.200 224.727 306.900 L 225.654 305.600 218.601 305.600 C 211.339 305.600,210.474 305.757,209.100 307.324 C 208.715 307.763,208.358 308.140,208.306 308.161 C 208.254 308.183,208.119 323.320,208.006 341.800 L 207.800 375.400 122.516 375.501 C 26.951 375.614,35.475 375.876,33.901 372.777 C 32.949 370.903,32.795 92.531,33.745 90.287 C 35.066 87.165,32.254 87.413,67.642 87.293 L 99.200 87.186 99.214 94.293 C 99.242 108.434,101.039 112.215,109.319 115.549 C 110.126 115.874,123.110 116.000,155.862 116.000 L 201.286 116.000 203.754 114.822 C 206.803 113.367,209.470 110.777,210.561 108.213 C 211.857 105.166,212.000 103.922,212.000 95.676 L 212.000 87.209 228.700 87.098 L 245.400 86.987 228.400 86.993 L 211.400 87.000 211.176 96.400 C 210.860 109.693,208.581 113.594,200.200 115.184 C 195.607 116.055,111.460 115.573,109.033 114.661 C 106.037 113.536,104.149 112.109,102.668 109.851 C 100.395 106.386,100.279 105.756,100.094 95.900 L 99.924 86.800 68.062 86.813 C 36.464 86.825,36.191 86.832,35.089 87.654 M111.600 94.918 C 111.600 100.702,111.738 103.178,112.080 103.520 C 112.447 103.887,122.674 104.000,155.671 104.000 L 198.782 104.000 199.400 103.056 C 199.913 102.273,200.000 100.830,199.909 94.556 L 199.800 87.000 155.700 86.898 L 111.600 86.796 111.600 94.918 M199.000 95.200 L 199.000 103.000 156.000 103.103 C 115.929 103.199,112.966 103.160,112.500 102.527 C 111.976 101.814,111.754 89.106,112.243 87.831 C 112.464 87.256,116.558 87.206,155.743 87.298 L 199.000 87.400 199.000 95.200 " stroke="none" fill="#9dcae4" fill-rule="evenodd"></path><path id="path4" d="M346.800 64.005 C 346.250 64.176,344.450 64.714,342.800 65.199 C 341.150 65.684,339.330 66.328,338.756 66.630 C 338.182 66.932,337.597 67.064,337.456 66.923 C 337.315 66.782,337.200 66.877,337.200 67.133 C 337.200 67.390,336.930 67.600,336.600 67.600 C 336.270 67.600,336.000 67.758,336.000 67.951 C 336.000 68.145,335.415 68.545,334.700 68.841 C 333.256 69.439,332.437 70.027,330.578 71.801 C 329.885 72.461,328.842 73.256,328.259 73.568 C 327.677 73.880,327.200 74.337,327.200 74.584 C 327.200 74.831,326.382 75.926,325.381 77.017 C 324.381 78.108,323.262 79.495,322.895 80.100 C 322.528 80.705,322.086 81.200,321.914 81.200 C 321.741 81.200,321.600 81.444,321.600 81.742 C 321.600 82.418,319.201 84.448,318.740 84.163 C 318.553 84.047,318.400 84.143,318.400 84.376 C 318.400 84.609,317.860 84.800,317.200 84.800 C 316.540 84.800,316.000 84.620,316.000 84.400 C 316.000 84.180,315.650 84.000,315.223 84.000 C 314.795 84.000,314.194 83.641,313.887 83.203 C 313.580 82.764,313.240 82.494,313.131 82.602 C 313.023 82.710,312.679 82.304,312.367 81.699 C 312.055 81.095,311.485 80.251,311.100 79.825 C 310.715 79.398,310.400 78.898,310.400 78.712 C 310.400 78.527,309.339 77.312,308.043 76.011 C 306.747 74.711,305.787 73.546,305.910 73.424 C 306.033 73.301,305.910 73.200,305.638 73.200 C 305.014 73.200,303.960 72.173,304.268 71.865 C 304.395 71.739,304.000 71.725,303.391 71.836 C 302.579 71.983,301.736 71.672,300.222 70.667 C 293.928 66.488,288.679 65.042,284.659 66.380 C 269.433 71.447,259.602 85.435,259.600 102.035 C 259.600 105.848,260.001 109.447,261.158 116.000 C 262.453 123.334,267.414 135.202,272.061 142.078 C 272.907 143.331,273.600 144.546,273.600 144.778 C 273.600 145.010,273.741 145.200,273.914 145.200 C 274.086 145.200,274.548 145.743,274.940 146.407 C 278.444 152.337,291.051 165.213,300.200 172.205 C 302.180 173.718,304.032 175.185,304.315 175.464 C 304.598 175.743,305.363 176.287,306.015 176.672 C 306.667 177.057,307.200 177.514,307.200 177.686 C 307.200 177.859,307.385 178.000,307.612 178.000 C 307.838 178.000,310.133 179.404,312.712 181.121 C 315.290 182.837,319.151 185.222,321.292 186.421 C 323.432 187.619,325.187 188.809,325.192 189.065 C 325.204 189.724,326.028 189.519,327.458 188.501 C 328.136 188.019,328.805 187.738,328.945 187.878 C 329.085 188.019,329.200 187.893,329.200 187.600 C 329.200 187.307,329.314 187.181,329.454 187.320 C 329.593 187.460,330.154 187.222,330.701 186.792 C 331.247 186.363,331.881 186.126,332.109 186.267 C 332.349 186.416,332.403 186.329,332.238 186.062 C 332.069 185.788,332.207 185.600,332.576 185.600 C 332.919 185.600,333.200 185.464,333.200 185.298 C 333.200 184.977,335.489 183.854,335.697 184.072 C 335.764 184.142,336.265 183.778,336.809 183.262 C 337.354 182.746,338.610 181.767,339.600 181.085 C 340.590 180.404,341.460 179.701,341.533 179.523 C 341.607 179.345,341.877 179.200,342.133 179.199 C 342.390 179.199,343.214 178.674,343.964 178.032 C 344.714 177.391,345.794 176.627,346.364 176.333 C 346.934 176.040,347.638 175.575,347.929 175.300 C 348.219 175.025,348.584 174.800,348.739 174.800 C 349.020 174.800,351.051 173.119,352.614 171.594 C 353.062 171.157,353.559 170.800,353.719 170.800 C 354.145 170.800,356.525 168.565,363.547 161.572 C 369.743 155.401,371.139 153.883,373.820 150.400 C 374.582 149.410,375.384 148.383,375.603 148.117 C 375.821 147.851,376.000 147.446,376.000 147.217 C 376.000 146.988,376.180 146.800,376.400 146.800 C 376.620 146.800,376.800 146.612,376.800 146.383 C 376.800 146.154,377.160 145.580,377.600 145.108 C 378.040 144.636,378.400 144.013,378.400 143.725 C 378.400 143.436,378.580 143.200,378.800 143.200 C 379.020 143.200,379.200 143.010,379.200 142.778 C 379.200 142.546,379.920 141.296,380.800 140.000 C 381.680 138.704,382.400 137.527,382.400 137.384 C 382.400 137.241,382.726 136.646,383.125 136.062 C 383.524 135.478,384.093 134.235,384.389 133.300 C 384.686 132.365,385.079 131.600,385.264 131.600 C 385.449 131.600,385.600 131.335,385.600 131.012 C 385.600 130.689,385.958 129.788,386.395 129.009 C 386.832 128.231,387.181 127.460,387.171 127.297 C 387.123 126.541,388.142 123.600,388.452 123.600 C 388.643 123.600,388.800 123.255,388.800 122.832 C 388.800 122.410,389.093 120.925,389.450 119.532 C 389.808 118.140,390.138 116.446,390.184 115.768 C 390.230 115.091,390.399 114.325,390.559 114.066 C 391.584 112.407,391.686 94.844,390.688 92.000 C 390.572 91.670,390.352 91.040,390.199 90.600 C 390.047 90.160,389.832 89.260,389.721 88.600 C 389.611 87.940,389.320 87.040,389.075 86.600 C 388.830 86.160,388.668 85.665,388.715 85.500 C 388.762 85.335,388.655 85.200,388.477 85.200 C 388.300 85.200,387.535 83.896,386.777 82.301 C 385.406 79.416,383.904 77.429,383.442 77.891 C 383.309 78.024,383.200 77.858,383.200 77.520 C 383.200 76.891,378.810 72.059,378.788 72.664 C 378.781 72.849,378.592 72.685,378.368 72.300 C 378.144 71.915,377.764 71.600,377.523 71.600 C 377.283 71.600,376.604 71.095,376.014 70.478 C 375.425 69.861,374.325 69.106,373.571 68.801 C 372.817 68.495,372.110 68.145,372.000 68.023 C 371.591 67.567,368.304 66.000,367.757 66.000 C 367.445 66.000,366.877 65.841,366.495 65.647 C 365.210 64.993,363.808 64.462,362.600 64.172 C 360.908 63.765,348.007 63.628,346.800 64.005 M245.200 87.976 C 245.200 88.623,245.041 89.251,244.846 89.371 C 244.494 89.589,244.379 90.040,243.513 94.600 C 242.709 98.839,243.035 111.542,244.006 113.800 C 244.196 114.240,244.458 115.320,244.591 116.200 C 244.723 117.080,244.933 118.476,245.058 119.303 C 245.182 120.129,245.445 120.905,245.642 121.026 C 245.839 121.148,246.000 121.651,246.000 122.144 C 246.000 122.637,246.149 123.211,246.330 123.420 C 246.512 123.629,246.904 124.610,247.201 125.600 C 247.499 126.590,248.318 128.660,249.023 130.200 C 249.728 131.740,250.625 133.720,251.018 134.600 C 253.056 139.173,258.688 147.645,263.897 153.974 C 266.400 157.016,278.400 168.894,278.400 168.330 C 278.400 168.081,276.569 166.149,274.330 164.038 C 269.649 159.623,263.793 153.239,261.037 149.546 C 259.992 148.146,258.747 146.489,258.269 145.865 C 257.791 145.241,256.974 143.981,256.453 143.065 C 255.932 142.149,255.155 140.906,254.727 140.302 C 252.129 136.638,245.600 121.092,245.600 118.569 C 245.600 118.177,245.431 117.304,245.224 116.628 C 243.295 110.325,242.826 96.644,244.401 92.600 C 245.658 89.373,246.190 86.800,245.600 86.800 C 245.380 86.800,245.200 87.329,245.200 87.976 M111.792 167.940 C 108.876 168.879,108.496 169.620,105.012 181.200 C 103.985 184.610,102.990 187.850,102.800 188.400 C 102.610 188.950,102.064 190.750,101.586 192.400 C 101.108 194.050,100.567 195.850,100.384 196.400 C 100.201 196.950,99.485 199.290,98.792 201.600 C 98.099 203.910,97.343 206.430,97.111 207.200 C 96.879 207.970,96.555 208.960,96.390 209.400 C 96.226 209.840,95.866 211.010,95.592 212.000 C 95.317 212.990,94.900 214.385,94.666 215.100 L 94.239 216.400 82.392 216.400 C 72.948 216.400,70.129 216.524,68.494 217.009 C 62.618 218.754,62.228 226.236,67.887 228.651 C 70.290 229.676,99.819 229.429,101.558 228.369 C 103.870 226.960,104.684 225.575,106.008 220.800 C 106.283 219.810,106.818 218.010,107.198 216.800 C 107.578 215.590,108.301 213.250,108.804 211.600 C 109.307 209.950,109.940 207.880,110.210 207.000 C 110.481 206.120,111.206 203.735,111.823 201.700 C 112.984 197.871,113.766 197.052,114.114 199.300 C 114.225 200.015,114.683 201.950,115.132 203.600 C 115.960 206.643,116.694 209.465,120.389 223.800 C 121.524 228.200,122.815 233.150,123.259 234.800 C 124.621 239.858,126.057 245.323,126.438 246.900 C 127.147 249.838,127.553 251.422,128.000 253.000 C 128.249 253.880,128.607 255.230,128.795 256.000 C 128.983 256.770,129.525 258.840,130.000 260.600 C 130.475 262.360,131.015 264.430,131.200 265.200 C 133.891 276.387,135.644 278.756,140.550 277.836 C 143.799 277.226,144.504 276.133,148.176 266.000 C 151.279 257.440,152.351 254.517,152.799 253.400 C 152.975 252.960,153.336 251.970,153.600 251.200 C 153.864 250.430,154.225 249.440,154.401 249.000 C 154.702 248.249,155.270 246.709,157.200 241.400 C 159.203 235.892,159.700 234.547,160.008 233.800 C 160.189 233.360,160.648 232.140,161.027 231.090 L 161.717 229.179 167.529 229.290 L 173.341 229.400 174.112 231.400 C 174.535 232.500,175.026 233.760,175.202 234.200 C 175.378 234.640,175.917 236.080,176.400 237.400 C 176.883 238.720,177.423 240.160,177.600 240.600 C 177.777 241.040,178.300 242.435,178.761 243.700 C 181.326 250.732,181.518 251.074,183.607 252.348 C 186.958 254.391,191.472 252.601,192.553 248.800 C 193.428 245.721,199.483 222.360,200.017 220.000 C 200.383 218.379,202.586 209.963,203.100 208.216 C 203.544 206.710,203.449 206.501,206.178 215.000 C 210.057 227.079,210.463 227.801,213.954 228.824 C 216.697 229.628,242.707 229.145,244.494 228.257 C 248.864 226.085,248.927 219.649,244.600 217.423 C 243.110 216.657,242.195 216.592,231.300 216.483 C 221.323 216.383,219.600 216.279,219.600 215.778 C 219.600 215.454,219.436 214.877,219.235 214.495 C 219.034 214.113,217.301 208.940,215.385 203.000 C 208.378 181.284,208.353 181.215,206.738 179.748 C 202.608 175.996,197.425 178.692,196.008 185.329 C 195.812 186.248,195.448 187.720,195.199 188.600 C 194.754 190.176,194.351 191.750,193.637 194.700 C 193.438 195.525,192.641 198.630,191.867 201.600 C 191.093 204.570,189.454 210.960,188.225 215.800 C 186.996 220.640,185.888 224.870,185.763 225.200 C 185.628 225.560,184.994 224.461,184.183 222.459 C 181.806 216.592,181.271 216.400,167.313 216.400 C 152.419 216.400,153.243 215.915,149.165 227.100 C 147.016 232.998,146.698 233.861,146.401 234.600 C 146.225 235.040,145.864 236.030,145.600 236.800 C 145.336 237.570,144.976 238.560,144.800 239.000 C 144.624 239.440,144.264 240.430,144.000 241.200 C 143.736 241.970,143.377 242.960,143.203 243.400 C 141.640 247.347,141.200 248.572,141.200 248.973 C 141.200 249.230,140.980 249.660,140.712 249.928 C 140.233 250.407,139.936 249.541,138.402 243.200 C 138.216 242.430,137.701 240.450,137.258 238.800 C 136.815 237.150,135.916 233.730,135.260 231.200 C 134.605 228.670,133.618 224.890,133.067 222.800 C 132.515 220.710,131.227 215.760,130.202 211.800 C 129.178 207.840,127.890 202.890,127.341 200.800 C 126.791 198.710,125.826 195.020,125.196 192.600 C 124.565 190.180,123.487 186.040,122.799 183.400 C 122.111 180.760,121.185 177.250,120.741 175.600 C 120.297 173.950,119.834 172.176,119.713 171.659 C 119.054 168.863,114.934 166.929,111.792 167.940 " stroke="none" fill="#e9949c" fill-rule="evenodd"></path></g></svg>