<svg id="svg" version="1.1" xmlns="http://www.w3.org/2000/svg" xmlns:xlink="http://www.w3.org/1999/xlink" width="400" height="400" viewBox="0, 0, 400,400"><g id="svgg"><path id="path0" d="M292.800 56.400 C 292.800 56.620,292.164 56.800,291.387 56.800 C 289.757 56.800,287.200 58.990,287.200 60.387 C 287.200 60.834,287.020 61.200,286.800 61.200 C 286.580 61.200,286.400 62.100,286.400 63.200 C 286.400 64.300,286.580 65.200,286.800 65.200 C 287.020 65.200,287.200 65.488,287.200 65.840 C 287.200 66.670,289.730 69.200,290.560 69.200 C 290.912 69.200,291.200 69.380,291.200 69.600 C 291.200 69.820,292.190 70.000,293.400 70.000 C 294.610 70.000,295.600 69.820,295.600 69.600 C 295.600 69.380,295.876 69.200,296.213 69.200 C 297.099 69.200,299.600 66.568,299.600 65.637 C 299.600 65.203,299.780 64.736,300.000 64.600 C 300.220 64.464,300.400 63.733,300.400 62.976 C 300.400 62.219,300.220 61.600,300.000 61.600 C 299.780 61.600,299.600 61.144,299.600 60.587 C 299.600 59.002,297.165 56.800,295.413 56.800 C 294.636 56.800,294.000 56.620,294.000 56.400 C 294.000 56.180,293.730 56.000,293.400 56.000 C 293.070 56.000,292.800 56.180,292.800 56.400 M117.000 81.200 C 116.864 81.420,116.223 81.600,115.576 81.600 C 114.929 81.600,114.400 81.759,114.400 81.953 C 114.400 82.148,114.085 82.389,113.700 82.490 C 113.315 82.591,112.754 83.197,112.453 83.837 C 112.153 84.477,111.748 85.313,111.553 85.695 C 110.532 87.702,111.429 89.885,114.505 92.884 L 116.849 95.169 114.627 97.390 C 112.050 99.967,109.615 105.427,111.586 104.209 C 111.798 104.078,112.427 104.692,112.983 105.574 C 115.517 109.588,118.625 109.440,123.072 105.094 L 125.543 102.679 128.072 105.086 C 131.861 108.694,133.632 109.231,136.324 107.590 C 139.862 105.433,139.303 100.944,135.055 97.400 C 133.096 95.765,133.219 95.064,135.969 92.200 C 139.619 88.399,139.677 86.214,136.217 82.860 C 133.379 80.109,129.812 81.124,126.812 85.535 C 126.007 86.719,125.889 86.675,123.761 84.400 C 122.732 83.300,121.645 82.400,121.345 82.400 C 121.045 82.400,120.800 82.220,120.800 82.000 C 120.800 81.780,120.271 81.600,119.624 81.600 C 118.977 81.600,118.336 81.420,118.200 81.200 C 118.064 80.980,117.794 80.800,117.600 80.800 C 117.406 80.800,117.136 80.980,117.000 81.200 M309.200 108.000 C 309.200 108.220,308.480 108.400,307.600 108.400 C 306.720 108.400,306.000 108.580,306.000 108.800 C 306.000 109.020,305.640 109.200,305.200 109.200 C 304.760 109.200,304.400 109.380,304.400 109.600 C 304.400 109.820,304.075 110.000,303.679 110.000 C 302.692 110.000,299.536 112.373,299.850 112.880 C 299.989 113.105,299.314 114.822,298.351 116.695 C 293.278 126.563,299.003 138.524,309.432 139.846 C 310.515 139.983,311.799 140.344,312.286 140.648 C 313.313 141.288,315.838 141.386,316.200 140.800 C 316.336 140.580,316.763 140.400,317.148 140.400 C 317.940 140.400,321.100 138.949,321.818 138.255 C 322.077 138.005,322.944 137.285,323.744 136.656 C 324.545 136.026,325.200 135.211,325.200 134.844 C 325.200 134.477,325.560 133.917,326.000 133.600 C 326.440 133.283,326.800 132.703,326.800 132.312 C 326.800 131.920,326.980 131.600,327.200 131.600 C 327.420 131.600,327.600 131.060,327.600 130.400 C 327.600 129.740,327.780 129.200,328.000 129.200 C 328.245 129.200,328.400 127.267,328.400 124.200 C 328.400 121.133,328.245 119.200,328.000 119.200 C 327.780 119.200,327.600 118.876,327.600 118.480 C 327.600 117.586,326.706 115.607,326.300 115.603 C 326.135 115.601,326.000 115.407,326.000 115.171 C 326.000 114.701,325.606 114.232,323.089 111.703 C 322.160 110.770,321.085 110.005,320.700 110.003 C 320.315 110.001,320.000 109.820,320.000 109.600 C 320.000 109.380,319.640 109.200,319.200 109.200 C 318.760 109.200,318.400 109.020,318.400 108.800 C 318.400 108.580,317.680 108.400,316.800 108.400 C 315.920 108.400,315.200 108.220,315.200 108.000 C 315.200 107.769,313.933 107.600,312.200 107.600 C 310.467 107.600,309.200 107.769,309.200 108.000 M202.288 109.655 C 200.250 111.175,200.000 112.485,200.000 121.662 C 200.000 130.724,200.190 131.763,202.181 133.600 C 203.905 135.191,207.141 135.043,208.892 133.293 L 210.200 131.986 210.324 122.893 C 210.467 112.349,210.357 111.455,208.727 109.932 C 207.171 108.479,204.045 108.344,202.288 109.655 M182.503 119.482 C 180.242 119.918,178.650 122.766,179.104 125.563 C 179.376 127.240,184.811 133.134,187.077 134.210 C 191.520 136.318,196.089 131.627,193.836 127.270 C 192.242 124.187,185.470 118.858,183.650 119.254 C 183.513 119.284,182.997 119.387,182.503 119.482 M224.600 119.742 C 221.854 120.995,216.400 127.397,216.400 129.367 C 216.400 132.862,218.092 134.600,221.492 134.600 L 223.584 134.600 227.404 130.800 C 231.978 126.249,232.511 125.079,231.241 122.377 C 229.966 119.664,227.187 118.561,224.600 119.742 M314.769 121.231 C 315.446 121.908,316.000 122.703,316.000 122.997 C 316.000 123.292,316.194 123.598,316.430 123.677 C 316.897 123.832,316.038 127.200,315.531 127.200 C 315.380 127.200,314.966 127.491,314.611 127.846 C 312.523 129.934,307.600 127.628,307.600 124.561 C 307.600 123.217,308.935 120.800,309.677 120.800 C 310.075 120.800,310.400 120.620,310.400 120.400 C 310.400 119.403,313.538 120.000,314.769 121.231 M182.800 157.004 C 179.679 157.713,176.775 158.771,175.538 159.647 C 174.954 160.061,174.324 160.401,174.138 160.402 C 173.952 160.403,172.672 161.410,171.293 162.640 C 166.325 167.072,163.561 172.576,162.938 179.278 C 162.565 183.288,163.196 183.105,149.000 183.304 C 137.814 183.461,136.824 183.534,134.400 184.377 C 128.845 186.310,125.212 188.650,121.459 192.711 L 119.878 194.422 117.886 192.188 C 115.705 189.741,111.226 186.549,108.400 185.428 C 104.124 183.731,102.960 183.537,95.800 183.325 C 91.840 183.207,88.429 182.951,88.220 182.756 C 88.011 182.560,84.411 182.396,80.220 182.391 L 72.600 182.381 71.425 180.793 C 70.779 179.920,69.519 178.709,68.625 178.103 C 67.731 177.496,66.940 176.865,66.867 176.700 C 66.793 176.535,66.478 176.400,66.167 176.400 C 65.855 176.400,65.600 176.220,65.600 176.000 C 65.600 175.780,65.330 175.600,65.000 175.600 C 64.670 175.600,64.400 175.420,64.400 175.200 C 64.400 174.980,64.040 174.800,63.600 174.800 C 63.160 174.800,62.800 174.620,62.800 174.400 C 62.800 174.180,62.451 174.000,62.024 174.000 C 61.597 174.000,61.136 173.820,61.000 173.600 C 60.864 173.380,60.313 173.200,59.776 173.200 C 59.239 173.200,58.800 173.020,58.800 172.800 C 58.800 172.580,58.001 172.400,57.024 172.400 C 56.047 172.400,55.136 172.220,55.000 172.000 C 54.864 171.780,53.323 171.600,51.576 171.600 C 49.725 171.600,48.400 171.767,48.400 172.000 C 48.400 172.220,48.080 172.400,47.688 172.400 C 47.297 172.400,46.712 172.782,46.388 173.249 C 46.065 173.716,45.575 174.333,45.300 174.620 C 43.973 176.007,44.749 226.000,46.097 226.000 C 46.806 226.000,46.323 227.171,45.508 227.429 C 43.628 228.026,38.000 233.029,38.000 234.103 C 38.000 234.389,37.640 234.883,37.200 235.200 C 36.760 235.517,36.400 236.097,36.400 236.488 C 36.400 236.880,36.220 237.200,36.000 237.200 C 35.780 237.200,35.600 237.740,35.600 238.400 C 35.600 239.060,35.420 239.600,35.200 239.600 C 34.980 239.600,34.800 240.140,34.800 240.800 C 34.800 241.460,34.620 242.000,34.400 242.000 C 34.155 242.000,34.000 243.933,34.000 247.000 C 34.000 250.067,34.155 252.000,34.400 252.000 C 34.620 252.000,34.800 252.630,34.800 253.400 C 34.800 254.170,34.980 254.800,35.200 254.800 C 35.420 254.800,35.600 255.053,35.600 255.362 C 35.600 258.416,44.934 267.600,48.038 267.600 C 48.457 267.600,48.800 267.780,48.800 268.000 C 48.800 268.220,49.419 268.400,50.176 268.400 C 50.933 268.400,51.664 268.580,51.800 268.800 C 51.936 269.020,52.757 269.200,53.624 269.200 L 55.200 269.200 55.200 300.400 L 55.200 331.600 49.000 331.600 C 45.590 331.600,42.800 331.736,42.800 331.902 C 42.800 332.069,42.260 332.444,41.600 332.736 C 40.869 333.059,40.400 333.567,40.400 334.034 C 40.400 334.455,40.220 334.800,40.000 334.800 C 39.771 334.800,39.600 336.004,39.600 337.613 C 39.600 340.804,41.224 343.200,43.387 343.200 C 43.944 343.200,44.400 343.380,44.400 343.600 C 44.400 343.866,96.533 344.000,200.000 344.000 C 303.467 344.000,355.600 343.866,355.600 343.600 C 355.600 343.380,356.096 343.200,356.703 343.200 C 358.856 343.200,360.400 340.856,360.400 337.587 C 360.400 335.996,360.228 334.800,360.000 334.800 C 359.780 334.800,359.598 334.485,359.595 334.100 C 359.581 332.072,357.430 331.600,348.206 331.600 L 339.600 331.600 339.600 300.400 L 339.600 269.200 343.776 269.200 C 346.129 269.200,348.061 269.025,348.200 268.800 C 348.336 268.580,349.067 268.400,349.824 268.400 C 350.581 268.400,351.200 268.220,351.200 268.000 C 351.200 267.780,351.740 267.600,352.400 267.600 C 353.060 267.600,353.600 267.420,353.600 267.200 C 353.600 266.980,353.960 266.800,354.400 266.800 C 354.840 266.800,355.200 266.620,355.200 266.400 C 355.200 266.180,355.378 266.000,355.595 266.000 C 356.011 266.000,357.383 264.966,358.149 264.076 C 358.397 263.788,359.500 262.613,360.600 261.466 C 362.565 259.417,364.400 256.469,364.400 255.362 C 364.400 255.053,364.580 254.800,364.800 254.800 C 365.020 254.800,365.200 254.170,365.200 253.400 C 365.200 252.630,365.380 252.000,365.600 252.000 C 365.845 252.000,366.000 250.067,366.000 247.000 C 366.000 243.933,365.845 242.000,365.600 242.000 C 365.380 242.000,365.200 241.460,365.200 240.800 C 365.200 240.140,365.020 239.600,364.800 239.600 C 364.580 239.600,364.400 239.060,364.400 238.400 C 364.400 237.740,364.220 237.200,364.000 237.200 C 363.780 237.200,363.600 236.880,363.600 236.488 C 363.600 236.097,363.240 235.517,362.800 235.200 C 362.360 234.883,362.000 234.397,362.000 234.121 C 362.000 233.525,357.895 229.200,357.330 229.200 C 355.544 229.200,355.200 227.629,355.200 219.469 C 355.200 215.135,355.040 211.277,354.844 210.895 C 354.648 210.513,354.063 209.304,353.544 208.208 C 352.628 206.276,351.449 204.682,349.800 203.146 C 347.960 201.433,346.569 200.401,346.100 200.400 C 345.825 200.400,345.600 200.220,345.600 200.000 C 345.600 199.780,345.060 199.600,344.400 199.600 C 343.740 199.600,343.200 199.420,343.200 199.200 C 343.200 198.980,342.480 198.800,341.600 198.800 C 340.720 198.800,340.000 198.620,340.000 198.400 C 340.000 197.693,316.321 197.873,315.376 198.587 C 314.707 199.093,309.633 199.176,278.708 199.187 L 242.815 199.200 242.619 198.300 C 242.511 197.805,242.353 192.540,242.267 186.600 C 242.146 178.212,241.973 175.398,241.492 174.000 C 238.235 164.535,231.640 158.821,221.669 156.826 C 218.543 156.201,185.672 156.351,182.800 157.004 M223.663 168.107 C 226.615 169.519,228.232 170.914,229.785 173.386 C 231.904 176.760,232.000 177.561,232.000 191.820 C 232.000 204.070,232.053 205.056,232.789 206.574 C 234.221 209.526,233.175 209.387,254.900 209.514 L 274.400 209.629 274.400 217.614 L 274.400 225.600 252.753 225.600 L 231.107 225.600 231.351 224.500 C 233.132 216.478,229.865 209.599,222.549 205.965 L 219.800 204.600 177.161 204.600 C 142.737 204.600,134.337 204.701,133.561 205.125 C 130.494 206.799,129.980 211.210,132.589 213.465 L 134.133 214.800 175.767 214.801 C 216.328 214.803,217.433 214.823,218.678 215.582 C 222.528 217.930,222.198 223.704,218.118 225.409 C 216.589 226.047,149.409 226.306,133.100 225.736 L 125.600 225.474 125.600 215.990 C 125.600 203.795,126.474 201.299,132.264 196.968 C 136.262 193.978,136.951 193.856,151.200 193.614 L 163.800 193.400 166.064 192.288 C 170.381 190.168,172.601 186.740,173.175 181.312 C 174.060 172.942,178.625 167.866,186.000 167.050 C 186.770 166.965,195.050 166.924,204.400 166.960 L 221.400 167.024 223.663 168.107 M59.347 185.563 C 65.608 189.871,66.800 193.315,66.800 207.094 C 66.800 221.612,64.417 220.400,92.954 220.400 L 114.800 220.400 114.800 222.992 C 114.800 226.338,117.498 226.053,87.200 225.916 C 52.487 225.760,56.000 228.429,56.000 202.213 C 56.000 181.954,55.769 183.102,59.347 185.563 M101.972 194.055 C 108.546 196.152,113.064 200.874,114.459 207.107 C 115.138 210.144,116.080 210.004,95.600 209.896 L 77.400 209.800 77.292 201.700 L 77.183 193.600 88.863 193.600 C 96.495 193.600,101.038 193.758,101.972 194.055 M341.332 210.921 C 343.796 212.801,344.037 213.655,343.911 220.101 L 343.800 225.800 314.600 225.800 L 285.400 225.800 285.292 217.689 L 285.183 209.579 312.523 209.689 L 339.863 209.800 341.332 210.921 M348.312 237.192 C 355.482 240.305,357.044 249.599,351.304 254.999 C 350.273 255.969,349.500 256.394,346.681 257.544 C 345.073 258.200,54.927 258.200,53.319 257.544 C 50.181 256.264,49.538 255.848,47.935 254.056 C 42.464 247.940,45.727 238.174,53.801 236.496 C 54.586 236.333,120.697 236.217,200.714 236.238 L 346.200 236.275 348.312 237.192 M269.055 268.600 C 269.256 269.123,271.983 269.200,290.243 269.200 L 311.200 269.200 311.200 300.400 L 311.200 331.600 197.200 331.600 L 83.200 331.600 83.200 300.400 L 83.200 269.200 109.557 269.200 C 132.617 269.200,135.943 269.125,136.145 268.600 C 136.348 268.070,144.102 268.000,202.600 268.000 C 261.098 268.000,268.852 268.070,269.055 268.600 M71.902 300.300 L 72.005 332.000 69.402 332.000 L 66.800 332.000 66.800 300.467 C 66.800 283.123,66.928 268.805,67.084 268.649 C 67.240 268.493,68.365 268.418,69.584 268.483 L 71.800 268.600 71.902 300.300 M328.000 300.200 L 328.000 332.000 325.400 332.000 L 322.800 332.000 322.800 300.200 L 322.800 268.400 325.400 268.400 L 328.000 268.400 328.000 300.200 " stroke="none" fill="#4d251d" fill-rule="evenodd"></path><path id="path1" d="M188.412 60.273 C 186.768 60.364,185.320 60.605,185.194 60.809 C 185.069 61.013,184.028 61.213,182.883 61.253 C 181.737 61.294,180.800 61.478,180.800 61.663 C 180.800 61.849,179.990 62.000,179.000 62.000 C 178.010 62.000,177.200 62.145,177.200 62.322 C 177.200 62.499,176.435 62.688,175.500 62.743 C 174.565 62.798,173.629 63.013,173.420 63.221 C 173.211 63.430,172.547 63.600,171.944 63.600 C 171.341 63.600,170.736 63.780,170.600 64.000 C 170.464 64.220,169.911 64.400,169.371 64.400 C 168.831 64.400,168.032 64.580,167.595 64.800 C 167.158 65.020,166.442 65.380,166.005 65.600 C 165.568 65.820,164.769 66.000,164.229 66.000 C 163.689 66.000,163.136 66.180,163.000 66.400 C 162.864 66.620,162.403 66.800,161.976 66.800 C 161.549 66.800,161.200 66.980,161.200 67.200 C 161.200 67.420,160.750 67.600,160.200 67.600 C 159.650 67.600,159.200 67.780,159.200 68.000 C 159.200 68.220,158.928 68.400,158.595 68.400 C 158.262 68.400,157.677 68.557,157.295 68.750 C 154.320 70.248,153.047 70.800,152.562 70.800 C 152.253 70.800,152.000 70.980,152.000 71.200 C 152.000 71.420,151.640 71.600,151.200 71.600 C 150.760 71.600,150.400 71.780,150.400 72.000 C 150.400 72.220,150.130 72.400,149.800 72.400 C 149.470 72.400,149.200 72.580,149.200 72.800 C 149.200 73.020,148.739 73.200,148.176 73.200 C 147.596 73.200,147.260 73.373,147.400 73.600 C 147.536 73.820,147.277 74.000,146.824 74.000 C 146.371 74.000,146.000 74.180,146.000 74.400 C 146.000 74.620,145.730 74.800,145.400 74.800 C 145.070 74.800,144.800 74.980,144.800 75.200 C 144.800 75.420,144.545 75.600,144.233 75.600 C 143.922 75.600,143.607 75.741,143.533 75.913 C 143.460 76.085,142.365 76.744,141.100 77.378 C 139.835 78.012,138.800 78.681,138.800 78.865 C 138.800 79.049,138.506 79.200,138.147 79.200 C 137.788 79.200,137.203 79.527,136.847 79.928 C 136.491 80.328,135.840 80.797,135.400 80.971 C 134.751 81.227,134.713 81.334,135.200 81.543 C 140.784 83.936,140.588 89.047,134.705 94.447 C 133.773 95.302,133.810 95.536,135.036 96.500 C 141.172 101.326,140.333 108.800,133.656 108.800 C 131.215 108.800,130.294 108.241,126.506 104.466 L 125.569 103.532 122.777 106.166 C 119.992 108.794,119.979 108.800,117.643 108.800 C 115.167 108.800,112.400 107.066,112.400 105.514 C 112.400 104.208,110.435 104.373,110.406 105.682 C 110.403 105.837,109.950 106.414,109.400 106.964 C 108.850 107.514,108.400 108.202,108.400 108.494 C 108.400 108.785,108.040 109.283,107.600 109.600 C 107.160 109.917,106.800 110.507,106.800 110.912 C 106.800 111.316,106.620 111.536,106.400 111.400 C 106.180 111.264,106.000 111.433,106.000 111.776 C 106.000 112.119,105.820 112.400,105.600 112.400 C 105.380 112.400,105.200 112.670,105.200 113.000 C 105.200 113.330,105.020 113.600,104.800 113.600 C 104.580 113.600,104.400 113.870,104.400 114.200 C 104.400 114.530,104.220 114.800,104.000 114.800 C 103.780 114.800,103.600 115.070,103.600 115.400 C 103.600 115.730,103.420 116.000,103.200 116.000 C 102.980 116.000,102.800 116.360,102.800 116.800 C 102.800 117.240,102.620 117.600,102.400 117.600 C 102.180 117.600,102.000 117.960,102.000 118.400 C 102.000 118.840,101.841 119.200,101.647 119.200 C 101.452 119.200,101.193 119.515,101.070 119.900 C 100.948 120.285,100.207 121.739,99.424 123.132 C 98.641 124.525,98.000 125.937,98.000 126.270 C 98.000 126.604,97.664 127.354,97.252 127.938 C 96.841 128.522,96.370 129.450,96.206 130.000 C 96.041 130.550,95.492 131.917,94.987 133.038 C 94.481 134.159,93.942 135.914,93.788 136.938 C 93.635 137.962,93.350 138.800,93.155 138.800 C 92.960 138.800,92.800 139.329,92.800 139.976 C 92.800 140.623,92.620 141.264,92.400 141.400 C 92.180 141.536,92.000 142.076,92.000 142.600 C 92.000 143.124,91.820 143.664,91.600 143.800 C 91.380 143.936,91.200 144.566,91.200 145.200 C 91.200 145.834,91.020 146.464,90.800 146.600 C 90.580 146.736,90.400 147.636,90.400 148.600 C 90.400 149.564,90.220 150.464,90.000 150.600 C 89.780 150.736,89.600 151.636,89.600 152.600 C 89.600 153.564,89.420 154.464,89.200 154.600 C 88.980 154.736,88.800 155.827,88.800 157.024 C 88.800 158.221,88.620 159.200,88.400 159.200 C 88.162 159.200,88.000 160.725,88.000 162.976 C 88.000 165.063,87.821 166.863,87.600 167.000 C 87.356 167.151,87.200 170.204,87.200 174.824 L 87.200 182.400 88.100 182.439 C 88.595 182.460,90.530 182.453,92.400 182.424 C 103.786 182.243,110.697 184.491,116.846 190.373 L 120.033 193.422 121.717 191.591 C 128.504 184.211,134.589 182.400,152.593 182.400 C 162.773 182.400,162.238 182.594,162.518 178.800 C 163.063 171.406,167.625 163.474,173.089 160.421 C 173.700 160.079,174.290 159.708,174.400 159.595 C 174.622 159.367,178.144 157.674,179.400 157.191 C 182.261 156.092,185.225 155.958,203.600 156.101 C 221.426 156.239,223.770 156.354,225.800 157.190 C 226.240 157.371,227.230 157.751,228.000 158.033 C 229.648 158.638,233.636 161.253,235.545 162.982 C 237.832 165.052,241.600 171.173,241.600 172.817 C 241.600 173.222,241.761 173.652,241.958 173.774 C 242.641 174.196,242.896 177.459,243.060 187.900 L 243.226 198.400 278.980 198.400 C 318.435 198.400,316.000 198.534,316.000 196.357 C 316.000 195.501,316.180 194.800,316.400 194.800 C 316.626 194.800,316.800 193.667,316.800 192.200 C 316.800 190.733,316.974 189.600,317.200 189.600 C 317.444 189.600,317.600 187.733,317.600 184.800 C 317.600 182.095,317.763 180.000,317.973 180.000 C 318.185 180.000,318.347 177.831,318.347 175.007 C 318.347 172.261,318.179 169.910,317.973 169.784 C 317.768 169.657,317.600 167.594,317.600 165.200 C 317.600 162.730,317.427 160.740,317.200 160.600 C 316.980 160.464,316.800 159.193,316.800 157.776 C 316.800 156.325,316.625 155.200,316.400 155.200 C 316.180 155.200,316.000 154.311,316.000 153.224 C 316.000 152.137,315.820 151.136,315.600 151.000 C 315.380 150.864,315.200 150.079,315.200 149.256 C 315.200 148.433,315.026 147.586,314.813 147.373 C 314.601 147.161,314.383 146.405,314.328 145.693 C 314.274 144.982,314.088 144.400,313.915 144.400 C 313.742 144.400,313.600 143.952,313.600 143.405 C 313.600 141.836,312.449 140.800,310.706 140.800 C 309.872 140.800,308.877 140.642,308.495 140.449 C 308.113 140.256,307.080 139.871,306.200 139.592 C 296.468 136.516,292.650 123.653,298.782 114.600 C 299.810 113.082,299.816 111.982,298.800 110.892 C 298.360 110.420,298.000 109.886,298.000 109.705 C 298.000 109.524,297.640 109.117,297.200 108.800 C 296.760 108.483,296.400 107.975,296.400 107.672 C 296.400 107.369,295.860 106.617,295.200 106.000 C 294.540 105.383,294.000 104.663,294.000 104.400 C 294.000 104.137,293.498 103.444,292.885 102.860 C 292.271 102.277,291.364 101.223,290.869 100.517 C 289.157 98.074,288.601 97.492,281.034 90.214 C 278.853 88.116,276.894 86.400,276.681 86.400 C 276.468 86.400,275.912 85.972,275.447 85.450 C 274.981 84.927,273.514 83.710,272.186 82.746 C 270.858 81.781,269.339 80.588,268.811 80.096 C 268.282 79.603,267.613 79.200,267.325 79.200 C 267.036 79.200,266.800 79.053,266.800 78.874 C 266.800 78.694,265.720 78.031,264.400 77.400 C 263.080 76.769,262.000 76.106,262.000 75.926 C 262.000 75.747,261.640 75.600,261.200 75.600 C 260.760 75.600,260.400 75.420,260.400 75.200 C 260.400 74.980,260.080 74.800,259.688 74.800 C 259.297 74.800,258.717 74.440,258.400 74.000 C 258.083 73.560,257.518 73.200,257.145 73.200 C 256.772 73.200,256.407 73.065,256.333 72.900 C 256.113 72.405,251.146 70.000,250.344 70.000 C 249.935 70.000,249.600 69.820,249.600 69.600 C 249.600 69.380,249.366 69.200,249.080 69.200 C 248.344 69.200,246.407 68.259,246.403 67.900 C 246.401 67.735,245.860 67.600,245.200 67.600 C 244.540 67.600,244.000 67.453,244.000 67.272 C 244.000 67.092,243.089 66.696,241.975 66.393 C 240.861 66.090,239.860 65.697,239.751 65.521 C 239.642 65.344,239.023 65.200,238.376 65.200 C 237.729 65.200,237.200 65.020,237.200 64.800 C 237.200 64.580,236.660 64.400,236.000 64.400 C 235.340 64.400,234.800 64.220,234.800 64.000 C 234.800 63.780,234.080 63.600,233.200 63.600 C 232.320 63.600,231.600 63.420,231.600 63.200 C 231.600 62.980,230.891 62.800,230.024 62.800 C 229.157 62.800,228.360 62.659,228.254 62.487 C 228.148 62.315,227.487 62.131,226.786 62.078 C 226.085 62.024,225.216 61.835,224.855 61.657 C 224.495 61.479,223.499 61.296,222.643 61.251 C 221.787 61.205,220.707 60.963,220.243 60.713 C 219.394 60.255,194.859 59.916,188.412 60.273 M208.834 109.224 C 211.033 110.790,211.200 111.666,211.200 121.624 C 211.200 130.136,211.145 130.827,210.350 132.317 C 208.148 136.442,202.354 136.487,200.301 132.394 C 199.372 130.543,199.249 113.599,200.148 111.487 C 201.570 108.150,205.784 107.052,208.834 109.224 M185.655 118.864 C 186.785 119.202,188.229 120.385,191.001 123.242 L 194.800 127.157 194.800 129.678 C 194.799 134.317,190.862 136.872,186.862 134.831 C 184.699 133.728,179.105 127.650,178.540 125.789 C 177.259 121.573,181.364 117.578,185.655 118.864 M228.974 119.197 C 234.787 122.044,232.679 128.891,224.244 134.555 C 220.612 136.994,215.569 134.102,215.614 129.606 C 215.634 127.654,216.146 126.883,220.103 122.854 C 224.466 118.411,226.043 117.761,228.974 119.197 M77.600 201.588 L 77.600 209.200 95.800 209.200 C 113.244 209.200,114.000 209.169,114.000 208.460 C 114.000 204.052,107.288 195.600,103.788 195.600 C 103.465 195.600,103.200 195.439,103.200 195.242 C 103.200 194.564,99.770 194.303,88.700 194.140 L 77.600 193.976 77.600 201.588 M286.091 217.900 L 286.200 225.400 314.900 225.503 L 343.600 225.605 343.600 220.264 C 343.600 214.282,343.256 213.093,341.031 211.397 L 339.724 210.400 312.853 210.400 L 285.982 210.400 286.091 217.900 M136.000 220.186 C 136.000 224.311,136.078 224.814,136.774 225.186 C 137.975 225.829,214.201 225.752,216.694 225.106 C 221.665 223.817,222.394 217.747,217.789 215.996 C 217.127 215.744,202.045 215.600,176.374 215.600 L 136.000 215.600 136.000 220.186 M51.692 237.668 C 43.325 241.725,43.992 253.850,52.748 256.894 C 54.772 257.597,342.253 257.882,345.600 257.184 C 356.235 254.965,357.498 241.604,347.481 237.283 C 346.614 236.909,313.412 236.804,199.881 236.820 L 53.400 236.840 51.692 237.668 M136.835 269.170 C 136.176 269.587,137.105 270.800,138.083 270.800 C 138.380 270.800,138.883 271.160,139.200 271.600 C 139.517 272.040,140.014 272.400,140.305 272.400 C 140.596 272.400,141.220 272.760,141.692 273.200 C 142.164 273.640,142.787 274.000,143.075 274.000 C 143.364 274.000,143.600 274.166,143.600 274.368 C 143.600 274.571,144.140 274.855,144.800 275.000 C 145.460 275.145,146.000 275.429,146.000 275.632 C 146.000 275.834,146.360 276.000,146.800 276.000 C 147.240 276.000,147.600 276.180,147.600 276.400 C 147.600 276.620,147.870 276.800,148.200 276.800 C 148.530 276.800,148.800 276.980,148.800 277.200 C 148.800 277.420,149.160 277.600,149.600 277.600 C 150.040 277.600,150.400 277.780,150.400 278.000 C 150.400 278.220,150.760 278.400,151.200 278.400 C 151.640 278.400,152.000 278.580,152.000 278.800 C 152.000 279.020,152.360 279.200,152.800 279.200 C 153.240 279.200,153.600 279.380,153.600 279.600 C 153.600 279.820,154.005 280.004,154.500 280.009 C 154.995 280.014,155.850 280.370,156.400 280.800 C 156.950 281.230,157.805 281.586,158.300 281.591 C 158.795 281.596,159.200 281.780,159.200 282.000 C 159.200 282.220,159.555 282.400,159.988 282.400 C 160.421 282.400,161.417 282.760,162.200 283.200 C 162.983 283.640,163.968 284.000,164.389 284.000 C 164.809 284.000,165.264 284.180,165.400 284.400 C 165.536 284.620,166.087 284.800,166.624 284.800 C 167.161 284.800,167.600 284.980,167.600 285.200 C 167.600 285.420,168.219 285.600,168.976 285.600 C 169.733 285.600,170.464 285.780,170.600 286.000 C 170.736 286.220,171.366 286.400,172.000 286.400 C 172.634 286.400,173.264 286.580,173.400 286.800 C 173.536 287.020,174.256 287.200,175.000 287.200 C 175.744 287.200,176.464 287.380,176.600 287.600 C 176.736 287.820,177.636 288.000,178.600 288.000 C 179.564 288.000,180.464 288.180,180.600 288.400 C 180.736 288.620,181.636 288.800,182.600 288.800 C 183.564 288.800,184.446 288.951,184.561 289.136 C 184.675 289.322,185.977 289.512,187.454 289.560 C 188.931 289.608,190.442 289.808,190.810 290.005 C 191.648 290.454,213.453 290.436,214.637 289.986 C 215.114 289.805,216.711 289.602,218.186 289.536 C 219.660 289.470,220.952 289.277,221.057 289.108 C 221.162 288.938,222.137 288.800,223.224 288.800 C 224.311 288.800,225.200 288.620,225.200 288.400 C 225.200 288.180,225.920 288.000,226.800 288.000 C 227.680 288.000,228.400 287.855,228.400 287.678 C 228.400 287.501,229.136 287.313,230.035 287.260 C 230.934 287.207,231.969 287.014,232.335 286.831 C 233.386 286.305,235.792 285.600,236.534 285.600 C 236.906 285.600,237.568 285.420,238.005 285.200 C 238.442 284.980,239.158 284.620,239.595 284.400 C 240.032 284.180,240.842 284.000,241.395 284.000 C 241.948 284.000,242.400 283.820,242.400 283.600 C 242.400 283.380,242.760 283.200,243.200 283.200 C 243.640 283.200,244.000 283.020,244.000 282.800 C 244.000 282.580,244.540 282.400,245.200 282.400 C 245.860 282.400,246.400 282.220,246.400 282.000 C 246.400 281.780,246.760 281.600,247.200 281.600 C 247.640 281.600,248.000 281.420,248.000 281.200 C 248.000 280.980,248.405 280.794,248.900 280.787 C 249.395 280.780,250.142 280.516,250.559 280.200 C 250.976 279.884,251.471 279.720,251.659 279.836 C 251.847 279.952,252.000 279.857,252.000 279.624 C 252.000 279.391,252.360 279.200,252.800 279.200 C 253.240 279.200,253.600 279.020,253.600 278.800 C 253.600 278.580,253.971 278.400,254.424 278.400 C 254.877 278.400,255.136 278.220,255.000 278.000 C 254.864 277.780,255.036 277.600,255.382 277.600 C 256.110 277.600,257.417 276.901,258.550 275.905 C 258.984 275.523,259.939 275.098,260.670 274.960 C 261.402 274.823,262.000 274.573,262.000 274.404 C 262.000 274.235,262.540 273.873,263.200 273.600 C 263.860 273.327,264.400 272.967,264.400 272.800 C 264.400 272.633,264.940 272.273,265.600 272.000 C 266.260 271.727,266.800 271.367,266.800 271.200 C 266.800 271.033,267.340 270.673,268.000 270.400 C 269.430 269.808,269.525 269.380,268.300 269.052 C 266.831 268.658,137.460 268.774,136.835 269.170 " stroke="none" fill="#f0e8e2" fill-rule="evenodd"></path><path id="path2" d="M182.800 168.283 C 177.309 170.209,173.600 175.631,173.600 181.734 C 173.600 182.986,173.435 184.323,173.233 184.705 C 173.032 185.087,172.631 186.030,172.344 186.799 C 171.662 188.624,168.605 191.691,166.590 192.572 C 165.716 192.954,164.687 193.432,164.305 193.634 C 163.923 193.835,158.307 194.000,151.824 194.000 C 145.342 194.000,139.624 194.157,139.119 194.349 C 138.613 194.541,137.480 194.927,136.600 195.207 C 132.349 196.560,126.800 202.211,126.800 205.187 C 126.800 205.608,126.620 206.064,126.400 206.200 C 126.152 206.353,126.000 210.004,126.000 215.824 L 126.000 225.200 130.700 225.205 C 133.285 225.208,135.850 225.311,136.400 225.433 C 137.253 225.623,137.297 225.589,136.700 225.208 C 136.100 224.824,136.000 224.105,136.000 220.182 L 136.000 215.604 176.500 215.500 L 217.000 215.396 175.462 215.298 C 134.118 215.200,133.918 215.196,132.756 214.368 C 130.310 212.627,129.654 209.132,131.300 206.611 C 132.972 204.051,130.129 204.200,177.161 204.200 L 220.200 204.200 222.896 205.519 C 227.231 207.639,229.908 210.805,231.994 216.282 C 232.296 217.074,232.428 218.981,232.341 221.282 L 232.200 225.000 253.100 225.104 L 274.000 225.207 274.000 217.804 L 274.000 210.400 255.700 210.394 C 236.498 210.388,235.483 210.305,233.580 208.582 C 231.842 207.009,231.807 206.713,231.593 191.800 C 231.342 174.243,230.712 172.316,224.143 168.987 L 221.800 167.800 203.200 167.726 C 187.152 167.662,184.353 167.738,182.800 168.283 M91.500 182.695 C 92.655 182.776,94.545 182.776,95.700 182.695 C 96.855 182.614,95.910 182.548,93.600 182.548 C 91.290 182.548,90.345 182.614,91.500 182.695 M146.723 182.699 C 149.431 182.768,153.751 182.768,156.323 182.699 C 158.895 182.629,156.680 182.572,151.400 182.573 C 146.120 182.573,144.015 182.630,146.723 182.699 M107.638 197.700 C 107.732 197.755,108.527 198.430,109.404 199.200 L 111.000 200.600 109.622 199.100 C 108.863 198.275,108.068 197.600,107.855 197.600 C 107.641 197.600,107.544 197.645,107.638 197.700 M285.867 210.267 C 285.497 210.636,285.529 225.109,285.900 225.339 C 286.065 225.441,286.147 222.123,286.083 217.965 L 285.967 210.406 312.083 210.300 L 338.200 210.194 312.167 210.097 C 297.848 210.044,286.013 210.120,285.867 210.267 " stroke="none" fill="#f3acac" fill-rule="evenodd"></path><path id="path3" d="M56.400 202.609 L 56.400 220.817 57.434 222.379 C 59.520 225.532,58.107 225.387,87.919 225.508 L 114.439 225.617 114.319 223.108 L 114.200 220.600 91.932 220.400 L 69.664 220.200 68.580 219.200 C 66.549 217.325,66.400 216.424,66.394 205.913 C 66.388 195.764,66.261 194.818,64.421 191.263 C 63.222 188.944,58.035 184.400,56.588 184.400 C 56.485 184.400,56.400 192.594,56.400 202.609 " stroke="none" fill="#f8c953" fill-rule="evenodd"></path><path id="path4" d="M135.459 82.095 C 135.627 82.368,136.244 82.994,136.831 83.487 C 139.645 85.856,139.368 88.661,135.969 92.200 C 133.219 95.064,133.096 95.765,135.055 97.400 C 139.303 100.944,139.862 105.433,136.324 107.590 C 133.632 109.231,131.861 108.694,128.072 105.086 L 125.543 102.679 123.072 105.094 C 118.615 109.449,115.518 109.589,112.969 105.551 C 112.404 104.656,111.820 104.056,111.671 104.217 C 111.522 104.378,111.625 104.590,111.900 104.688 C 112.175 104.786,112.400 105.104,112.400 105.393 C 112.400 106.959,115.228 108.800,117.633 108.800 C 119.983 108.800,119.987 108.798,122.793 106.152 L 125.600 103.503 128.407 106.152 C 132.421 109.938,136.598 109.871,138.606 105.988 C 140.113 103.074,138.981 100.278,134.705 96.353 C 133.688 95.420,133.781 95.184,136.031 92.985 C 139.907 89.198,140.326 86.432,137.481 83.420 C 135.861 81.706,134.781 80.998,135.459 82.095 M203.699 108.274 C 202.313 108.554,199.995 110.940,200.033 112.047 C 200.062 112.917,200.113 112.890,200.619 111.737 C 202.504 107.433,209.355 107.930,210.193 112.432 C 210.333 113.184,210.392 117.892,210.324 122.893 L 210.200 131.986 208.892 133.293 C 206.343 135.841,202.111 134.878,200.565 131.400 C 200.103 130.362,200.029 130.320,200.016 131.086 C 199.973 133.504,204.055 135.987,206.786 135.204 C 210.665 134.091,211.200 132.465,211.200 121.776 C 211.200 109.780,209.692 107.065,203.699 108.274 M299.386 113.530 C 299.174 113.910,298.325 115.600,297.500 117.284 C 292.432 127.634,299.217 139.559,310.800 140.659 C 313.227 140.890,312.044 140.192,309.432 139.852 C 298.965 138.492,293.277 126.564,298.372 116.655 C 299.837 113.804,300.674 111.227,299.386 113.530 M199.770 121.600 C 199.770 126.330,199.828 128.265,199.898 125.900 C 199.969 123.535,199.969 119.665,199.898 117.300 C 199.828 114.935,199.770 116.870,199.770 121.600 M181.078 119.545 C 176.968 122.255,177.452 125.850,182.620 131.010 C 187.851 136.232,190.675 136.822,193.579 133.299 C 194.823 131.790,195.441 127.200,194.400 127.200 C 194.180 127.200,194.000 126.971,194.000 126.691 C 194.000 126.083,187.774 119.879,186.526 119.244 C 185.174 118.557,182.340 118.713,181.078 119.545 M224.200 119.238 C 219.176 122.128,214.667 129.036,216.049 131.726 C 219.063 137.593,225.774 135.652,231.463 127.268 C 234.443 122.878,228.772 116.608,224.200 119.238 M185.228 119.466 C 186.689 119.758,192.831 125.326,193.836 127.270 C 196.089 131.627,191.520 136.318,187.077 134.210 C 184.811 133.134,179.376 127.240,179.104 125.563 C 178.650 122.766,180.242 119.918,182.503 119.482 C 182.997 119.387,183.513 119.284,183.650 119.254 C 183.788 119.225,184.497 119.319,185.228 119.466 M229.619 120.105 C 233.173 122.324,232.459 125.771,227.404 130.800 L 223.584 134.600 221.492 134.600 C 215.264 134.600,214.509 129.540,219.900 123.931 C 224.456 119.190,226.725 118.297,229.619 120.105 M182.400 156.469 C 177.658 157.782,177.533 157.832,174.385 159.662 C 169.597 162.446,165.147 168.050,163.635 173.200 C 163.344 174.190,162.948 175.522,162.753 176.160 C 162.559 176.798,162.400 178.272,162.400 179.437 C 162.400 182.836,162.536 182.800,149.766 182.800 C 133.851 182.800,128.633 184.424,121.996 191.442 L 119.949 193.606 118.078 191.550 C 115.041 188.213,109.933 185.103,105.000 183.588 C 103.350 183.081,87.816 182.399,88.319 182.856 C 88.473 182.996,91.840 183.207,95.800 183.325 C 102.960 183.537,104.124 183.731,108.400 185.428 C 111.226 186.549,115.705 189.741,117.886 192.188 L 119.878 194.422 121.459 192.711 C 125.212 188.650,128.845 186.310,134.400 184.377 C 136.824 183.534,137.814 183.461,149.000 183.304 C 163.196 183.105,162.565 183.288,162.938 179.278 C 163.561 172.576,166.325 167.072,171.293 162.640 C 172.672 161.410,173.952 160.403,174.138 160.402 C 174.324 160.401,174.954 160.061,175.538 159.647 C 176.850 158.718,179.774 157.691,183.200 156.957 C 186.457 156.259,218.294 156.151,221.669 156.826 C 231.640 158.821,238.235 164.535,241.492 174.000 C 241.973 175.398,242.146 178.212,242.267 186.600 C 242.353 192.540,242.511 197.805,242.619 198.300 L 242.815 199.200 278.708 199.187 C 306.289 199.178,314.748 199.062,315.240 198.687 C 315.744 198.303,308.174 198.223,279.553 198.306 L 243.226 198.412 243.060 188.106 C 242.895 177.839,242.641 174.542,241.959 173.820 C 241.762 173.611,241.600 173.127,241.600 172.745 C 241.600 171.355,238.280 165.972,235.804 163.348 C 233.097 160.478,227.697 157.549,223.094 156.453 C 220.697 155.883,184.466 155.897,182.400 156.469 M186.000 167.050 C 180.332 167.677,175.684 171.433,174.083 176.680 C 173.166 179.685,172.584 184.981,173.214 184.592 C 173.426 184.460,173.600 183.251,173.600 181.905 C 173.600 175.492,177.311 170.122,183.039 168.245 C 184.845 167.653,187.170 167.589,203.439 167.688 L 221.800 167.800 224.143 168.987 C 230.712 172.316,231.342 174.243,231.593 191.800 C 231.885 212.153,229.594 210.385,255.700 210.394 L 274.000 210.400 274.000 217.804 L 274.000 225.207 253.100 225.104 L 232.200 225.000 232.341 221.282 C 232.428 218.981,232.296 217.074,231.994 216.282 C 229.908 210.805,227.231 207.639,222.896 205.519 L 220.200 204.200 177.161 204.200 C 130.129 204.200,132.972 204.051,131.300 206.611 C 129.654 209.132,130.310 212.627,132.756 214.368 C 133.920 215.198,134.043 215.200,175.175 215.200 C 209.326 215.200,216.653 215.295,217.746 215.752 C 221.932 217.501,221.912 223.256,217.714 225.010 C 216.189 225.647,149.767 225.904,133.500 225.336 L 126.000 225.074 126.000 215.760 C 126.000 209.983,126.152 206.353,126.400 206.200 C 126.620 206.064,126.800 205.608,126.800 205.187 C 126.800 202.211,132.349 196.560,136.600 195.207 C 137.480 194.927,138.613 194.541,139.119 194.349 C 139.624 194.157,145.342 194.000,151.824 194.000 C 158.307 194.000,163.923 193.835,164.305 193.634 C 164.687 193.432,165.632 192.994,166.404 192.660 C 169.164 191.467,172.809 187.422,172.796 185.565 C 172.794 185.254,172.268 185.914,171.627 187.031 C 168.312 192.812,166.637 193.352,151.200 193.614 C 136.951 193.856,136.262 193.978,132.264 196.968 C 126.474 201.299,125.600 203.795,125.600 215.990 L 125.600 225.474 133.100 225.736 C 149.409 226.306,216.589 226.047,218.118 225.409 C 222.198 223.704,222.528 217.930,218.678 215.582 C 217.433 214.823,216.328 214.803,175.767 214.801 L 134.133 214.800 132.589 213.465 C 129.980 211.210,130.494 206.799,133.561 205.125 C 134.337 204.701,142.737 204.600,177.161 204.600 L 219.800 204.600 222.549 205.965 C 229.865 209.599,233.132 216.478,231.351 224.500 L 231.107 225.600 252.753 225.600 L 274.400 225.600 274.400 217.614 L 274.400 209.629 254.900 209.514 C 233.175 209.387,234.221 209.526,232.789 206.574 C 232.053 205.056,232.000 204.070,232.000 191.820 C 232.000 177.561,231.904 176.760,229.785 173.386 C 228.232 170.914,226.615 169.519,223.663 168.107 L 221.400 167.024 204.400 166.960 C 195.050 166.924,186.770 166.965,186.000 167.050 M56.184 202.400 C 56.184 212.410,56.236 216.505,56.300 211.500 C 56.363 206.495,56.363 198.305,56.300 193.300 C 56.236 188.295,56.184 192.390,56.184 202.400 M61.785 187.931 C 62.877 189.069,63.835 190.000,63.915 190.000 C 64.231 190.000,62.152 187.724,61.011 186.821 C 60.345 186.294,60.693 186.793,61.785 187.931 M77.292 201.700 L 77.400 209.800 95.600 209.896 C 106.020 209.951,114.044 209.837,114.371 209.629 C 116.442 208.309,111.713 199.483,107.454 196.719 C 102.805 193.703,102.190 193.600,88.863 193.600 L 77.183 193.600 77.292 201.700 M101.354 194.450 C 107.924 196.244,113.116 201.578,114.007 207.449 L 114.273 209.200 95.937 209.200 L 77.600 209.200 77.600 201.600 L 77.600 194.000 88.654 194.000 C 95.592 194.000,100.320 194.167,101.354 194.450 M66.573 206.600 C 66.573 211.880,66.630 213.985,66.699 211.277 C 66.768 208.569,66.768 204.249,66.699 201.677 C 66.629 199.105,66.572 201.320,66.573 206.600 M285.292 217.689 L 285.400 225.800 314.600 225.800 L 343.800 225.800 343.911 220.101 C 344.037 213.655,343.796 212.801,341.332 210.921 L 339.863 209.800 312.523 209.689 L 285.183 209.579 285.292 217.689 M341.845 212.139 L 343.600 214.077 343.600 219.841 L 343.600 225.605 314.700 225.503 L 285.800 225.400 285.690 218.213 C 285.630 214.261,285.672 210.789,285.784 210.498 C 285.950 210.064,290.885 209.989,313.039 210.084 L 340.090 210.200 341.845 212.139 M69.144 219.576 C 69.664 220.029,70.279 220.400,70.511 220.400 C 71.003 220.400,70.979 220.380,69.400 219.455 L 68.200 218.753 69.144 219.576 M114.314 222.300 C 114.521 225.587,114.689 225.898,114.746 223.100 C 114.775 221.615,114.664 220.400,114.497 220.400 C 114.331 220.400,114.248 221.255,114.314 222.300 M75.500 225.900 C 82.595 225.961,94.205 225.961,101.300 225.900 C 108.395 225.839,102.590 225.789,88.400 225.789 C 74.210 225.789,68.405 225.839,75.500 225.900 M53.801 236.496 C 45.727 238.174,42.464 247.940,47.935 254.056 C 49.538 255.848,50.181 256.264,53.319 257.544 C 54.927 258.200,345.073 258.200,346.681 257.544 C 349.500 256.394,350.273 255.969,351.304 254.999 C 357.044 249.599,355.482 240.305,348.312 237.192 L 346.200 236.275 200.714 236.238 C 120.697 236.217,54.586 236.333,53.801 236.496 M348.284 237.681 C 357.092 241.822,356.048 254.271,346.664 256.999 C 344.817 257.535,328.043 257.593,199.190 257.502 L 53.800 257.400 51.473 256.257 C 43.655 252.418,43.754 241.514,51.641 237.692 L 53.400 236.840 199.904 236.820 L 346.409 236.800 348.284 237.681 M136.268 268.265 C 136.121 268.413,136.000 268.638,136.000 268.767 C 136.000 268.895,165.970 269.000,202.600 269.000 C 246.822 269.000,269.155 268.866,269.067 268.600 C 268.916 268.147,136.719 267.814,136.268 268.265 M67.084 268.649 C 66.928 268.805,66.800 283.123,66.800 300.467 L 66.800 332.000 69.402 332.000 L 72.005 332.000 71.902 300.300 L 71.800 268.600 69.584 268.483 C 68.365 268.418,67.240 268.493,67.084 268.649 M322.800 300.200 L 322.800 332.000 325.400 332.000 L 328.000 332.000 328.000 300.200 L 328.000 268.400 325.400 268.400 L 322.800 268.400 322.800 300.200 " stroke="none" fill="#b8a099" fill-rule="evenodd"></path></g></svg>