<svg id="svg" version="1.1" xmlns="http://www.w3.org/2000/svg" xmlns:xlink="http://www.w3.org/1999/xlink" width="400" height="400" viewBox="0, 0, 400,400"><g id="svgg"><path id="path0" d="M114.800 0.289 C 114.030 0.382,113.229 0.624,113.020 0.829 C 112.811 1.033,112.316 1.200,111.920 1.200 C 111.524 1.200,111.200 1.380,111.200 1.600 C 111.200 1.820,110.750 2.000,110.200 2.000 C 109.650 2.000,109.200 2.180,109.200 2.400 C 109.200 2.620,108.840 2.800,108.400 2.800 C 107.960 2.800,107.600 2.980,107.600 3.200 C 107.600 3.420,107.364 3.600,107.075 3.600 C 106.787 3.600,106.164 3.960,105.692 4.400 C 105.220 4.840,104.643 5.200,104.409 5.200 C 104.043 5.200,102.208 6.878,97.500 11.517 C 96.896 12.112,96.401 12.743,96.400 12.917 C 96.400 13.091,96.040 13.620,95.600 14.092 C 95.160 14.564,94.800 15.187,94.800 15.475 C 94.800 15.764,94.636 16.000,94.435 16.000 C 94.234 16.000,93.949 16.720,93.800 17.600 C 93.651 18.480,93.366 19.200,93.165 19.200 C 92.964 19.200,92.800 19.560,92.800 20.000 C 92.800 20.440,92.620 20.800,92.400 20.800 C 92.180 20.800,92.000 21.340,92.000 22.000 C 92.000 22.660,91.820 23.200,91.600 23.200 C 91.380 23.200,91.200 24.100,91.200 25.200 C 91.200 26.300,91.020 27.200,90.800 27.200 C 90.542 27.200,90.400 31.600,90.400 39.600 C 90.400 47.600,90.542 52.000,90.800 52.000 C 91.020 52.000,91.200 52.799,91.200 53.776 C 91.200 54.753,91.380 55.664,91.600 55.800 C 91.820 55.936,92.000 56.361,92.000 56.744 C 92.000 57.580,92.892 59.592,93.265 59.597 C 93.411 59.599,93.651 60.320,93.800 61.200 C 93.949 62.080,94.234 62.800,94.435 62.800 C 94.636 62.800,94.800 63.036,94.800 63.325 C 94.800 63.613,95.160 64.236,95.600 64.708 C 96.040 65.180,96.400 65.746,96.400 65.966 C 96.400 66.510,103.124 73.200,103.670 73.200 C 103.910 73.200,104.397 73.531,104.753 73.936 C 105.109 74.341,105.929 74.803,106.576 74.963 C 107.222 75.122,108.240 75.601,108.837 76.027 C 109.435 76.452,110.211 76.800,110.562 76.800 C 110.913 76.800,111.200 76.980,111.200 77.200 C 111.200 77.420,111.740 77.600,112.400 77.600 C 113.060 77.600,113.600 77.780,113.600 78.000 C 113.600 78.220,114.320 78.400,115.200 78.400 C 116.080 78.400,116.800 78.535,116.800 78.700 C 116.800 78.865,154.240 79.000,200.000 79.000 C 245.760 79.000,283.200 78.865,283.200 78.700 C 283.200 78.535,283.920 78.400,284.800 78.400 C 285.680 78.400,286.400 78.220,286.400 78.000 C 286.400 77.780,286.940 77.600,287.600 77.600 C 288.260 77.600,288.800 77.420,288.800 77.200 C 288.800 76.980,289.160 76.800,289.600 76.800 C 290.040 76.800,290.400 76.620,290.400 76.400 C 290.400 76.180,290.670 76.000,291.000 76.000 C 291.330 76.000,291.600 75.840,291.600 75.645 C 291.600 75.449,292.185 75.179,292.900 75.044 C 293.615 74.910,294.723 74.350,295.362 73.800 C 296.001 73.250,296.678 72.800,296.865 72.800 C 297.338 72.800,303.600 66.436,303.600 65.956 C 303.600 65.742,303.960 65.180,304.400 64.708 C 304.840 64.236,305.200 63.613,305.200 63.325 C 305.200 63.036,305.380 62.800,305.600 62.800 C 305.820 62.800,306.000 62.440,306.000 62.000 C 306.000 61.560,306.180 61.200,306.400 61.200 C 306.620 61.200,306.800 60.840,306.800 60.400 C 306.800 59.960,306.940 59.600,307.111 59.600 C 307.579 59.600,308.800 55.173,308.800 53.480 C 308.800 52.666,308.980 52.000,309.200 52.000 C 309.458 52.000,309.600 47.600,309.600 39.600 C 309.600 31.600,309.458 27.200,309.200 27.200 C 308.980 27.200,308.800 26.444,308.800 25.520 C 308.800 23.671,307.605 19.200,307.111 19.200 C 306.940 19.200,306.800 18.840,306.800 18.400 C 306.800 17.960,306.620 17.600,306.400 17.600 C 306.180 17.600,306.000 17.240,306.000 16.800 C 306.000 16.360,305.820 16.000,305.600 16.000 C 305.380 16.000,305.200 15.764,305.200 15.475 C 305.200 15.187,304.840 14.564,304.400 14.092 C 303.960 13.620,303.600 13.138,303.600 13.021 C 303.600 12.765,302.399 11.277,301.687 10.651 C 301.405 10.403,299.989 9.075,298.540 7.700 C 297.092 6.325,295.658 5.200,295.354 5.200 C 295.049 5.200,294.800 5.042,294.800 4.849 C 294.800 4.655,294.260 4.273,293.600 4.000 C 292.940 3.727,292.400 3.345,292.400 3.151 C 292.400 2.958,292.040 2.800,291.600 2.800 C 291.160 2.800,290.800 2.620,290.800 2.400 C 290.800 2.180,290.528 2.000,290.195 2.000 C 289.604 2.000,288.932 1.718,287.100 0.700 C 286.236 0.220,118.711 -0.179,114.800 0.289 M148.166 103.956 C 144.212 106.367,143.792 119.777,147.558 123.366 C 150.251 125.932,155.301 124.923,156.928 121.495 C 157.948 119.347,158.057 108.774,157.083 106.600 C 155.669 103.445,151.184 102.115,148.166 103.956 M245.159 104.108 C 242.764 105.708,242.401 107.001,242.401 113.940 C 242.400 120.993,242.755 122.230,245.258 123.886 C 248.402 125.966,252.691 124.516,254.233 120.851 C 255.218 118.509,255.016 108.852,253.934 106.550 C 252.374 103.230,248.208 102.071,245.159 104.108 M183.800 113.144 C 174.955 118.607,186.071 130.554,200.000 130.556 C 214.190 130.557,225.568 117.982,215.920 112.962 C 213.435 111.669,210.915 112.372,207.800 115.227 C 203.173 119.467,196.715 119.388,192.000 115.035 C 188.990 112.257,186.257 111.626,183.800 113.144 " stroke="none" fill="#5f5e76" fill-rule="evenodd"></path><path id="path1" d="M165.600 88.429 C 165.600 100.919,164.477 105.400,159.612 112.336 C 158.125 114.456,158.000 114.839,158.000 117.269 C 158.000 121.134,156.970 123.099,154.105 124.700 C 153.037 125.297,149.750 125.367,149.400 124.800 C 147.637 121.947,136.680 134.279,129.233 147.500 L 127.149 151.200 104.808 151.200 C 87.793 151.200,82.429 151.086,82.307 150.720 C 82.207 150.420,82.049 150.495,81.886 150.920 C 81.624 151.603,315.977 152.044,317.748 151.364 C 318.325 151.143,318.047 150.047,317.200 149.200 C 316.948 148.948,316.104 147.469,315.030 145.400 C 314.574 144.520,313.987 143.574,313.726 143.298 C 313.466 143.021,313.138 142.436,312.999 141.998 C 312.860 141.559,312.578 141.200,312.373 141.200 C 312.168 141.200,311.997 140.975,311.993 140.700 C 311.989 140.425,311.547 139.660,311.011 139.000 C 310.474 138.340,309.113 136.540,307.985 135.000 C 304.748 130.581,297.217 122.400,296.386 122.400 C 296.174 122.400,296.000 122.220,296.000 122.000 C 296.000 121.780,295.719 121.600,295.376 121.600 C 295.033 121.600,294.864 121.420,295.000 121.200 C 295.136 120.980,295.065 120.800,294.842 120.800 C 293.757 120.800,286.799 113.758,284.763 110.600 C 283.912 109.280,283.033 107.983,282.808 107.717 C 282.584 107.451,282.400 106.967,282.400 106.640 C 282.400 106.314,282.220 105.936,282.000 105.800 C 281.780 105.664,281.600 105.113,281.600 104.576 C 281.600 104.039,281.420 103.600,281.200 103.600 C 280.980 103.600,280.800 103.060,280.800 102.400 C 280.800 101.740,280.620 101.200,280.400 101.200 C 280.178 101.200,280.000 100.133,280.000 98.800 C 280.000 97.467,279.822 96.400,279.600 96.400 C 279.346 96.400,279.200 93.267,279.200 87.800 L 279.200 79.200 222.400 79.200 L 165.600 79.200 165.600 88.429 M251.737 103.669 C 254.955 105.779,256.392 117.659,253.953 121.998 C 252.023 125.433,246.358 126.290,244.085 123.492 C 241.017 119.715,241.004 107.323,244.065 104.555 C 246.310 102.525,249.440 102.163,251.737 103.669 M189.685 112.846 C 190.143 113.091,191.126 113.900,191.870 114.643 C 194.291 117.064,196.166 117.790,200.000 117.790 C 203.834 117.790,205.709 117.064,208.130 114.643 C 213.851 108.922,222.778 114.968,218.733 121.823 C 213.854 130.093,197.335 133.698,189.088 128.294 C 188.505 127.912,187.877 127.600,187.692 127.600 C 186.873 127.600,181.935 123.041,181.206 121.612 C 178.389 116.090,184.309 109.968,189.685 112.846 M74.000 364.000 C 74.000 364.262,81.717 364.400,96.351 364.400 L 118.703 364.400 119.111 365.500 C 122.678 375.106,125.657 380.029,131.400 385.807 C 138.782 393.233,147.508 397.648,158.600 399.570 C 162.417 400.231,291.082 400.028,291.515 399.360 C 291.782 398.947,292.664 398.660,295.300 398.130 C 295.905 398.009,296.400 397.782,296.400 397.627 C 296.400 397.472,297.300 397.100,298.400 396.800 C 299.500 396.500,300.400 396.152,300.400 396.025 C 300.400 395.899,300.985 395.538,301.700 395.223 C 305.742 393.443,313.855 387.042,316.400 383.624 C 316.950 382.886,317.886 381.759,318.480 381.120 C 319.073 380.482,319.670 379.608,319.806 379.180 C 319.943 378.751,320.222 378.400,320.427 378.400 C 320.632 378.400,320.800 378.055,320.800 377.633 C 320.800 377.212,320.962 376.807,321.161 376.733 C 321.718 376.528,324.828 369.735,325.082 368.171 C 325.206 367.406,325.464 366.684,325.654 366.567 C 325.844 366.449,326.000 365.733,326.000 364.976 L 326.000 363.600 200.000 363.600 C 116.267 363.600,74.000 363.734,74.000 364.000 " stroke="none" fill="#94dcfc" fill-rule="evenodd"></path><path id="path2" d="M117.800 181.964 C 112.487 182.499,107.084 186.423,104.684 191.490 L 103.400 194.200 103.296 256.963 L 103.193 319.726 104.044 322.163 C 105.965 327.659,110.691 331.709,116.877 333.160 C 119.242 333.714,170.760 333.777,172.572 333.227 C 173.247 333.023,175.060 332.636,176.600 332.368 C 178.140 332.101,179.760 331.751,180.200 331.592 C 180.640 331.433,181.720 331.077,182.600 330.802 C 184.671 330.153,189.361 327.933,189.533 327.520 C 189.607 327.344,189.888 327.200,190.158 327.200 C 190.428 327.200,190.998 326.880,191.425 326.489 C 191.851 326.098,192.830 325.346,193.600 324.818 C 199.898 320.501,205.233 312.122,207.875 302.400 C 208.745 299.201,208.699 288.607,207.802 285.400 C 207.433 284.080,206.987 282.423,206.812 281.718 C 205.889 278.012,201.877 271.235,198.372 267.461 C 192.288 260.910,192.005 254.802,197.509 248.770 C 209.508 235.614,212.032 218.767,204.318 203.307 C 199.155 192.958,189.095 185.366,177.414 183.002 C 171.926 181.892,126.392 181.098,117.800 181.964 M163.200 212.158 C 169.387 213.487,173.229 216.724,175.152 222.227 C 176.058 224.819,176.350 230.537,175.600 231.000 C 175.380 231.136,175.200 231.580,175.200 231.986 C 175.200 234.342,170.819 239.569,167.594 241.060 C 164.345 242.561,163.940 242.600,151.400 242.600 C 137.546 242.600,136.788 242.485,134.805 240.079 L 133.600 238.618 133.600 227.489 C 133.600 212.796,133.799 212.404,141.276 212.401 C 143.427 212.401,145.263 212.222,145.400 212.000 C 145.791 211.367,160.107 211.494,163.200 212.158 M264.537 227.612 C 258.243 228.874,255.136 233.082,254.800 240.800 L 254.600 245.400 249.736 245.629 C 241.222 246.030,236.554 250.379,236.667 257.803 C 236.778 265.092,241.417 269.192,250.000 269.588 L 254.600 269.800 254.800 274.400 C 255.177 283.071,259.230 287.600,266.612 287.600 C 274.076 287.600,278.335 282.909,278.777 274.200 L 279.000 269.800 283.400 269.565 C 292.078 269.103,296.788 264.893,296.788 257.600 C 296.788 250.353,292.031 246.033,283.600 245.624 L 279.000 245.400 278.777 241.000 C 278.305 231.701,272.301 226.056,264.537 227.612 M164.154 272.845 C 169.531 274.297,173.144 277.745,175.549 283.719 C 176.592 286.307,175.320 295.600,173.924 295.600 C 173.746 295.600,173.600 295.831,173.600 296.114 C 173.600 297.089,169.393 300.764,167.000 301.881 L 164.600 303.000 151.400 303.000 C 132.401 303.000,133.604 304.025,133.601 287.838 L 133.600 276.676 134.616 275.343 C 136.092 273.408,137.009 273.027,140.800 272.769 C 147.202 272.334,162.446 272.384,164.154 272.845 " stroke="none" fill="#fccc74" fill-rule="evenodd"></path><path id="path3" d="M121.067 79.067 C 120.920 79.213,120.800 83.083,120.800 87.667 C 120.800 92.956,120.654 96.000,120.400 96.000 C 120.180 96.000,120.000 96.191,120.000 96.424 C 120.000 96.657,120.180 96.736,120.400 96.600 C 120.620 96.464,120.800 96.644,120.800 97.000 C 120.800 97.356,120.620 97.536,120.400 97.400 C 120.159 97.251,120.000 97.788,120.000 98.753 C 120.000 99.633,119.820 100.464,119.600 100.600 C 119.380 100.736,119.200 101.467,119.200 102.224 C 119.200 102.981,119.020 103.600,118.800 103.600 C 118.580 103.600,118.400 104.151,118.400 104.824 C 118.400 105.537,118.233 105.944,118.000 105.800 C 117.777 105.662,117.600 105.966,117.600 106.488 C 117.600 107.003,117.240 107.683,116.800 108.000 C 116.360 108.317,116.000 108.897,116.000 109.288 C 116.000 109.680,115.820 110.000,115.600 110.000 C 115.380 110.000,115.200 110.390,115.200 110.867 C 115.200 111.343,115.090 111.623,114.956 111.489 C 114.700 111.233,112.960 113.108,112.811 113.800 C 112.764 114.020,112.270 114.560,111.713 115.000 C 110.110 116.267,108.359 117.937,108.380 118.179 C 108.391 118.301,108.301 118.391,108.179 118.380 C 108.057 118.369,107.445 118.909,106.818 119.580 C 106.192 120.251,105.468 120.800,105.211 120.800 C 104.427 120.800,103.516 121.899,104.104 122.136 C 104.391 122.252,104.300 122.350,103.887 122.368 C 103.082 122.404,100.323 124.989,100.693 125.360 C 100.825 125.492,100.716 125.600,100.449 125.600 C 99.942 125.600,96.514 128.981,94.800 131.172 C 94.250 131.875,93.387 132.889,92.882 133.425 C 92.377 133.961,92.158 134.400,92.395 134.400 C 92.632 134.400,92.186 135.040,91.404 135.823 C 90.621 136.605,90.066 137.383,90.169 137.550 C 90.273 137.717,90.007 138.107,89.579 138.415 C 89.150 138.724,88.797 139.342,88.794 139.788 C 88.789 140.459,88.720 140.496,88.400 140.000 C 88.080 139.504,88.011 139.541,88.006 140.212 C 88.003 140.658,87.640 141.283,87.200 141.600 C 86.760 141.917,86.400 142.497,86.400 142.888 C 86.400 143.280,86.220 143.600,86.000 143.600 C 85.780 143.600,85.600 143.870,85.600 144.200 C 85.600 144.530,85.420 144.800,85.200 144.800 C 84.980 144.800,84.800 145.171,84.800 145.624 C 84.800 146.077,84.620 146.336,84.400 146.200 C 84.061 145.991,83.916 146.468,84.026 147.430 C 84.041 147.557,83.681 147.983,83.226 148.377 C 82.772 148.771,82.400 149.568,82.400 150.147 L 82.400 151.200 104.775 151.200 L 127.149 151.200 129.233 147.500 C 134.712 137.774,145.422 124.400,147.732 124.400 C 148.488 124.400,148.456 124.291,147.353 123.100 C 143.772 119.233,144.321 106.300,148.166 103.956 C 151.184 102.115,155.669 103.445,157.083 106.600 C 157.796 108.191,158.011 117.628,157.397 120.400 C 157.228 121.163,157.272 121.258,157.582 120.800 C 157.805 120.470,157.991 118.948,157.994 117.417 C 158.000 114.819,158.107 114.483,159.612 112.336 C 164.477 105.401,165.600 100.918,165.600 88.430 L 165.600 79.203 222.500 79.100 C 273.688 79.008,271.466 78.987,200.367 78.899 C 156.898 78.844,121.213 78.920,121.067 79.067 M245.800 103.266 C 244.701 103.872,242.800 105.672,242.800 106.106 C 242.800 106.301,243.246 105.931,243.792 105.283 C 245.118 103.707,246.747 103.091,249.142 103.260 C 250.232 103.337,251.041 103.265,250.939 103.100 C 250.654 102.640,246.703 102.767,245.800 103.266 M242.243 107.433 C 241.891 108.348,241.944 120.318,242.300 120.538 C 242.465 120.640,242.600 117.590,242.600 113.761 C 242.600 109.932,242.574 106.800,242.543 106.800 C 242.511 106.800,242.376 107.085,242.243 107.433 M210.100 112.888 C 209.605 113.127,209.200 113.479,209.200 113.670 C 209.200 113.862,209.650 113.724,210.200 113.363 C 211.667 112.402,211.616 112.157,210.100 112.888 M198.900 118.287 C 199.505 118.378,200.495 118.378,201.100 118.287 C 201.705 118.195,201.210 118.120,200.000 118.120 C 198.790 118.120,198.295 118.195,198.900 118.287 M155.689 123.058 C 154.967 123.796,154.529 124.400,154.714 124.400 C 155.137 124.400,157.402 122.060,157.171 121.862 C 157.077 121.782,156.410 122.320,155.689 123.058 M181.516 122.200 C 181.744 122.640,182.531 123.540,183.264 124.200 C 184.297 125.130,184.410 125.175,183.765 124.400 C 181.940 122.206,181.086 121.371,181.516 122.200 M217.026 123.513 C 215.615 125.203,215.588 125.275,216.760 124.200 C 217.871 123.182,219.088 121.570,218.714 121.613 C 218.651 121.620,217.892 122.475,217.026 123.513 M252.575 123.250 C 251.752 124.125,251.652 124.347,252.241 123.991 C 252.967 123.551,254.243 122.000,253.878 122.000 C 253.808 122.000,253.221 122.563,252.575 123.250 M244.289 123.630 C 244.778 124.139,245.278 124.455,245.401 124.332 C 245.524 124.209,245.124 123.792,244.512 123.406 L 243.400 122.704 244.289 123.630 M149.462 124.900 C 149.564 125.065,150.526 125.200,151.600 125.200 C 152.674 125.200,153.636 125.065,153.738 124.900 C 153.840 124.735,152.878 124.600,151.600 124.600 C 150.322 124.600,149.360 124.735,149.462 124.900 M246.263 124.900 C 246.500 125.285,250.054 125.281,250.663 124.894 C 250.917 124.732,249.990 124.600,248.602 124.600 C 247.215 124.600,246.162 124.735,246.263 124.900 M185.985 126.371 C 186.747 127.047,187.542 127.600,187.752 127.600 C 187.962 127.600,188.058 127.548,187.967 127.484 C 187.875 127.420,187.080 126.867,186.200 126.255 L 184.600 125.142 185.985 126.371 M211.800 127.600 C 211.140 128.037,210.780 128.392,211.000 128.388 C 211.401 128.382,213.576 126.823,213.200 126.812 C 213.090 126.808,212.460 127.163,211.800 127.600 M189.200 128.356 C 189.750 128.811,190.470 129.185,190.800 129.189 C 191.326 129.194,191.006 128.981,188.701 127.790 C 188.426 127.647,188.650 127.902,189.200 128.356 M194.446 130.437 C 194.965 130.765,198.329 130.972,197.967 130.653 C 197.875 130.572,196.921 130.412,195.846 130.296 C 194.651 130.168,194.107 130.222,194.446 130.437 M203.600 130.400 L 201.800 130.680 203.400 130.734 C 204.280 130.763,205.270 130.613,205.600 130.400 C 205.930 130.187,206.020 130.037,205.800 130.066 C 205.580 130.096,204.590 130.246,203.600 130.400 M307.200 134.000 C 307.670 134.660,308.144 135.200,308.254 135.200 C 308.364 135.200,308.070 134.660,307.600 134.000 C 307.130 133.340,306.656 132.800,306.546 132.800 C 306.436 132.800,306.730 133.340,307.200 134.000 M74.000 365.376 C 74.000 365.913,74.180 366.464,74.400 366.600 C 74.620 366.736,74.800 367.377,74.800 368.024 C 74.800 368.671,74.980 369.200,75.200 369.200 C 75.420 369.200,75.600 369.740,75.600 370.400 C 75.600 371.060,75.780 371.600,76.000 371.600 C 76.220 371.600,76.400 371.960,76.400 372.400 C 76.400 372.840,76.560 373.200,76.755 373.200 C 76.951 373.200,77.229 373.830,77.374 374.600 C 77.518 375.370,77.786 376.000,77.970 376.000 C 78.153 376.000,78.527 376.540,78.800 377.200 C 79.073 377.860,79.411 378.400,79.551 378.400 C 79.690 378.400,80.052 378.958,80.354 379.640 C 80.763 380.565,80.990 380.743,81.245 380.340 C 81.494 379.947,81.589 380.046,81.594 380.700 C 81.597 381.195,81.791 381.600,82.024 381.600 C 82.257 381.600,82.336 381.780,82.200 382.000 C 82.064 382.220,82.154 382.400,82.400 382.400 C 82.646 382.400,82.733 382.584,82.594 382.810 C 82.455 383.035,82.551 383.170,82.807 383.110 C 83.064 383.049,83.483 383.347,83.737 383.772 C 84.479 385.009,87.535 388.000,88.056 388.000 C 88.319 388.000,88.417 388.117,88.274 388.260 C 88.003 388.530,89.962 390.399,90.517 390.400 C 90.817 390.400,91.317 390.762,92.585 391.900 C 92.892 392.175,93.336 392.400,93.571 392.400 C 93.807 392.400,94.000 392.580,94.000 392.800 C 94.000 393.020,94.270 393.200,94.600 393.200 C 94.930 393.200,95.200 393.380,95.200 393.600 C 95.200 393.820,95.470 394.000,95.800 394.000 C 96.130 394.000,96.400 394.191,96.400 394.424 C 96.400 394.657,96.565 394.745,96.768 394.620 C 96.970 394.495,97.407 394.664,97.739 394.996 C 98.071 395.328,98.626 395.600,98.971 395.600 C 99.317 395.600,99.600 395.780,99.600 396.000 C 99.600 396.220,99.960 396.400,100.400 396.400 C 100.840 396.400,101.200 396.580,101.200 396.800 C 101.200 397.020,101.740 397.200,102.400 397.200 C 103.060 397.200,103.600 397.380,103.600 397.600 C 103.600 397.820,103.949 398.000,104.376 398.000 C 104.803 398.000,105.264 398.180,105.400 398.400 C 105.536 398.620,106.492 398.803,107.524 398.806 C 108.684 398.810,109.199 398.940,108.873 399.146 C 107.803 399.825,113.735 399.999,136.559 399.959 C 151.590 399.932,159.235 399.788,158.200 399.552 C 157.320 399.351,155.700 398.993,154.600 398.756 C 146.444 397.004,137.836 392.229,131.603 386.000 C 125.685 380.087,122.722 375.224,119.111 365.500 L 118.703 364.400 96.351 364.400 L 74.000 364.400 74.000 365.376 " stroke="none" fill="#64ccfb" fill-rule="evenodd"></path><path id="path4" d="M199.400 151.600 C 134.280 151.712,80.955 151.848,80.900 151.902 C 80.845 151.956,80.800 152.236,80.800 152.525 C 80.800 152.814,80.440 153.795,80.000 154.706 C 79.560 155.616,79.200 156.640,79.200 156.981 C 79.200 157.321,79.020 157.600,78.800 157.600 C 78.580 157.600,78.400 158.039,78.400 158.576 C 78.400 159.113,78.236 159.654,78.035 159.778 C 77.834 159.903,77.554 160.768,77.412 161.702 C 77.170 163.298,76.783 164.464,75.953 166.095 C 75.759 166.477,75.600 167.432,75.600 168.218 C 75.600 169.069,75.438 169.547,75.200 169.400 C 74.959 169.251,74.800 169.788,74.800 170.753 C 74.800 171.633,74.620 172.464,74.400 172.600 C 74.180 172.736,74.000 173.647,74.000 174.624 C 74.000 175.601,73.820 176.400,73.600 176.400 C 73.374 176.400,73.200 177.533,73.200 179.000 C 73.200 180.451,73.025 181.600,72.803 181.600 C 72.543 181.600,72.405 212.193,72.402 271.000 C 72.398 330.593,72.530 360.400,72.798 360.400 C 73.019 360.400,73.200 361.300,73.200 362.400 C 73.200 363.500,73.380 364.400,73.600 364.400 C 73.820 364.400,74.000 364.220,74.000 364.000 C 74.000 363.734,116.267 363.600,200.000 363.600 C 283.733 363.600,326.000 363.734,326.000 364.000 C 326.000 364.220,326.180 364.400,326.400 364.400 C 326.620 364.400,326.800 363.500,326.800 362.400 C 326.800 361.300,326.980 360.400,327.200 360.400 C 327.754 360.400,327.754 182.143,327.200 181.800 C 326.980 181.664,326.800 180.393,326.800 178.976 C 326.800 177.525,326.625 176.400,326.400 176.400 C 326.180 176.400,326.000 175.678,326.000 174.795 C 326.000 173.912,325.829 172.877,325.620 172.495 C 325.410 172.113,325.128 170.768,324.992 169.506 C 324.855 168.245,324.577 167.109,324.372 166.983 C 324.167 166.856,324.000 166.259,324.000 165.656 C 324.000 165.053,323.851 164.389,323.670 164.180 C 323.488 163.971,323.089 162.990,322.783 162.000 C 322.476 161.010,322.004 159.763,321.733 159.229 C 321.463 158.694,321.332 158.109,321.444 157.929 C 321.556 157.748,321.457 157.600,321.224 157.600 C 320.991 157.600,320.800 157.328,320.800 156.995 C 320.800 156.382,320.659 156.042,319.435 153.700 C 319.061 152.985,318.868 152.400,319.006 152.400 C 319.144 152.400,318.987 152.130,318.657 151.800 C 318.327 151.470,317.999 151.244,317.929 151.299 C 317.858 151.353,264.520 151.489,199.400 151.600 M162.614 181.990 C 176.738 182.437,180.022 182.992,186.663 186.054 C 195.516 190.136,203.519 199.178,206.619 208.600 C 211.295 222.808,208.021 237.245,197.509 248.770 C 194.964 251.559,193.600 254.603,193.600 257.490 C 193.600 260.859,195.046 263.879,198.372 267.461 C 201.877 271.235,205.889 278.012,206.812 281.718 C 206.987 282.423,207.433 284.080,207.802 285.400 C 208.699 288.607,208.745 299.201,207.875 302.400 C 205.233 312.122,199.898 320.501,193.600 324.818 C 192.830 325.346,191.851 326.098,191.425 326.489 C 190.998 326.880,190.428 327.200,190.158 327.200 C 189.888 327.200,189.607 327.344,189.533 327.520 C 189.361 327.933,184.671 330.153,182.600 330.802 C 181.720 331.077,180.640 331.433,180.200 331.592 C 179.760 331.751,178.140 332.101,176.600 332.368 C 175.060 332.636,173.247 333.023,172.572 333.227 C 170.760 333.777,119.242 333.714,116.877 333.160 C 110.691 331.709,105.965 327.659,104.044 322.163 L 103.193 319.726 103.296 256.963 L 103.400 194.200 104.684 191.490 C 107.084 186.423,112.487 182.499,117.800 181.964 C 121.669 181.574,150.002 181.591,162.614 181.990 M145.400 212.000 C 145.263 212.222,143.427 212.401,141.276 212.401 C 133.799 212.404,133.600 212.796,133.600 227.489 L 133.600 238.618 134.805 240.079 C 136.788 242.485,137.546 242.600,151.400 242.600 C 163.940 242.600,164.345 242.561,167.594 241.060 C 170.819 239.569,175.200 234.342,175.200 231.986 C 175.200 231.580,175.380 231.136,175.600 231.000 C 176.350 230.537,176.058 224.819,175.152 222.227 C 173.229 216.724,169.387 213.487,163.200 212.158 C 160.107 211.494,145.791 211.367,145.400 212.000 M271.922 228.725 C 276.487 230.933,278.444 234.436,278.777 241.000 L 279.000 245.400 283.600 245.624 C 292.031 246.033,296.788 250.353,296.788 257.600 C 296.788 264.893,292.078 269.103,283.400 269.565 L 279.000 269.800 278.777 274.200 C 278.335 282.909,274.076 287.600,266.612 287.600 C 259.230 287.600,255.177 283.071,254.800 274.400 L 254.600 269.800 250.000 269.588 C 231.873 268.752,231.627 246.483,249.736 245.629 L 254.600 245.400 254.800 240.800 C 255.266 230.084,263.183 224.500,271.922 228.725 M140.800 272.769 C 137.009 273.027,136.092 273.408,134.616 275.343 L 133.600 276.676 133.601 287.838 C 133.604 304.025,132.401 303.000,151.400 303.000 L 164.600 303.000 167.000 301.881 C 169.393 300.764,173.600 297.089,173.600 296.114 C 173.600 295.831,173.746 295.600,173.924 295.600 C 175.320 295.600,176.592 286.307,175.549 283.719 C 173.144 277.745,169.531 274.297,164.154 272.845 C 162.446 272.384,147.202 272.334,140.800 272.769 " stroke="none" fill="#f1f0fb" fill-rule="evenodd"></path></g></svg>